<svg width="62" height="62" viewBox="0 0 62 62" fill="none" xmlns="http://www.w3.org/2000/svg">
<path d="M56.8333 8.26667H55.8V3.1C55.8 1.395 54.405 0 52.7 0H50.6333C48.9283 0 47.5333 1.395 47.5333 3.1V8.26667H14.4667V3.1C14.4667 1.395 13.0717 0 11.3667 0H9.3C7.595 0 6.2 1.395 6.2 3.1V8.26667H5.16667C2.31208 8.26667 0 10.5787 0 13.4333V56.8333C0 59.6879 2.31208 62 5.16667 62H56.8333C59.6879 62 62 59.6879 62 56.8333V13.4333C62 10.5787 59.6879 8.26667 56.8333 8.26667ZM49.6 9.3V3.1C49.6 2.53167 50.065 2.06667 50.6333 2.06667H52.7C53.2683 2.06667 53.7333 2.53167 53.7333 3.1V9.3V13.4333C53.7333 14.0017 53.2683 14.4667 52.7 14.4667H50.6333C50.065 14.4667 49.6 14.0017 49.6 13.4333V9.3ZM8.26667 9.3V3.1C8.26667 2.53167 8.73167 2.06667 9.3 2.06667H11.3667C11.935 2.06667 12.4 2.53167 12.4 3.1V9.3V13.4333C12.4 14.0017 11.935 14.4667 11.3667 14.4667H9.3C8.73167 14.4667 8.26667 14.0017 8.26667 13.4333V9.3ZM59.9333 56.8333C59.9333 58.5383 58.5383 59.9333 56.8333 59.9333H5.16667C3.46167 59.9333 2.06667 58.5383 2.06667 56.8333V26.8667H59.9333V56.8333ZM59.9333 24.8H2.06667V13.4333C2.06667 11.7283 3.46167 10.3333 5.16667 10.3333H6.2V13.4333C6.2 15.1383 7.595 16.5333 9.3 16.5333H11.3667C13.0717 16.5333 14.4667 15.1383 14.4667 13.4333V10.3333H47.5333V13.4333C47.5333 15.1383 48.9283 16.5333 50.6333 16.5333H52.7C54.405 16.5333 55.8 15.1383 55.8 13.4333V10.3333H56.8333C58.5383 10.3333 59.9333 11.7283 59.9333 13.4333V24.8Z" fill="white"/>
<path d="M42.3667 13.4336H19.6333C19.065 13.4336 18.6 13.8986 18.6 14.4669V20.6669C18.6 21.2353 19.065 21.7003 19.6333 21.7003H42.3667C42.935 21.7003 43.4 21.2353 43.4 20.6669V14.4669C43.4 13.8986 42.935 13.4336 42.3667 13.4336ZM41.3333 19.6336H20.6667V15.5003H41.3333V19.6336Z" fill="white"/>
<path d="M13.4333 29.9668H7.23335C6.66501 29.9668 6.20001 30.4318 6.20001 31.0001V36.1668C6.20001 36.7351 6.66501 37.2001 7.23335 37.2001H13.4333C14.0017 37.2001 14.4667 36.7351 14.4667 36.1668V31.0001C14.4667 30.4318 14.0017 29.9668 13.4333 29.9668ZM12.4 35.1335H8.26668V32.0335H12.4V35.1335Z" fill="white"/>
<path d="M26.8667 29.9668H20.6667C20.0983 29.9668 19.6333 30.4318 19.6333 31.0001V36.1668C19.6333 36.7351 20.0983 37.2001 20.6667 37.2001H26.8667C27.435 37.2001 27.9 36.7351 27.9 36.1668V31.0001C27.9 30.4318 27.435 29.9668 26.8667 29.9668ZM25.8333 35.1335H21.7V32.0335H25.8333V35.1335Z" fill="white"/>
<path d="M41.3333 29.9668H35.1333C34.565 29.9668 34.1 30.4318 34.1 31.0001V36.1668C34.1 36.7351 34.565 37.2001 35.1333 37.2001H41.3333C41.9017 37.2001 42.3667 36.7351 42.3667 36.1668V31.0001C42.3667 30.4318 41.9017 29.9668 41.3333 29.9668ZM40.3 35.1335H36.1667V32.0335H40.3V35.1335Z" fill="white"/>
<path d="M54.7667 29.9668H48.5667C47.9983 29.9668 47.5333 30.4318 47.5333 31.0001V36.1668C47.5333 36.7351 47.9983 37.2001 48.5667 37.2001H54.7667C55.335 37.2001 55.8 36.7351 55.8 36.1668V31.0001C55.8 30.4318 55.335 29.9668 54.7667 29.9668ZM53.7333 35.1335H49.6V32.0335H53.7333V35.1335Z" fill="white"/>
<path d="M13.4333 40.2998H7.23335C6.66501 40.2998 6.20001 40.7648 6.20001 41.3331V46.4998C6.20001 47.0681 6.66501 47.5331 7.23335 47.5331H13.4333C14.0017 47.5331 14.4667 47.0681 14.4667 46.4998V41.3331C14.4667 40.7648 14.0017 40.2998 13.4333 40.2998ZM12.4 45.4665H8.26668V42.3665H12.4V45.4665Z" fill="white"/>
<path d="M26.8667 40.2998H20.6667C20.0983 40.2998 19.6333 40.7648 19.6333 41.3331V46.4998C19.6333 47.0681 20.0983 47.5331 20.6667 47.5331H26.8667C27.435 47.5331 27.9 47.0681 27.9 46.4998V41.3331C27.9 40.7648 27.435 40.2998 26.8667 40.2998ZM25.8333 45.4665H21.7V42.3665H25.8333V45.4665Z" fill="white"/>
<path d="M41.3333 40.2998H35.1333C34.565 40.2998 34.1 40.7648 34.1 41.3331V46.4998C34.1 47.0681 34.565 47.5331 35.1333 47.5331H41.3333C41.9017 47.5331 42.3667 47.0681 42.3667 46.4998V41.3331C42.3667 40.7648 41.9017 40.2998 41.3333 40.2998ZM40.3 45.4665H36.1667V42.3665H40.3V45.4665Z" fill="white"/>
<path d="M54.7667 40.2998H48.5667C47.9983 40.2998 47.5333 40.7648 47.5333 41.3331V46.4998C47.5333 47.0681 47.9983 47.5331 48.5667 47.5331H54.7667C55.335 47.5331 55.8 47.0681 55.8 46.4998V41.3331C55.8 40.7648 55.335 40.2998 54.7667 40.2998ZM53.7333 45.4665H49.6V42.3665H53.7333V45.4665Z" fill="white"/>
<path d="M13.4333 50.6333H7.23335C6.66501 50.6333 6.20001 51.0983 6.20001 51.6666V56.8333C6.20001 57.4016 6.66501 57.8666 7.23335 57.8666H13.4333C14.0017 57.8666 14.4667 57.4016 14.4667 56.8333V51.6666C14.4667 51.0983 14.0017 50.6333 13.4333 50.6333ZM12.4 55.8H8.26668V52.7H12.4V55.8Z" fill="white"/>
<path d="M26.8667 50.6333H20.6667C20.0983 50.6333 19.6333 51.0983 19.6333 51.6666V56.8333C19.6333 57.4016 20.0983 57.8666 20.6667 57.8666H26.8667C27.435 57.8666 27.9 57.4016 27.9 56.8333V51.6666C27.9 51.0983 27.435 50.6333 26.8667 50.6333ZM25.8333 55.8H21.7V52.7H25.8333V55.8Z" fill="white"/>
<path d="M41.5787 49.9746L37.1354 55.3092L34.8362 53.01L33.3766 54.4696L36.4766 57.5696C36.6704 57.7634 36.9287 57.8667 37.2129 57.8667C37.2258 57.8667 37.2387 57.8667 37.2646 57.8667C37.5487 57.8538 37.82 57.7246 38.0137 57.4921L43.1804 51.2921L41.5787 49.9746Z" fill="white"/>
<path d="M53.9788 49.9746L49.5354 55.3092L47.2363 53.01L45.7767 54.4696L48.8767 57.5696C49.0704 57.7634 49.3288 57.8667 49.6129 57.8667C49.6258 57.8667 49.6388 57.8667 49.6646 57.8667C49.9488 57.8538 50.22 57.7246 50.4138 57.4921L55.5804 51.2921L53.9788 49.9746Z" fill="white"/>
</svg>
