<svg width="30" height="30" viewBox="0 0 30 30" fill="none" xmlns="http://www.w3.org/2000/svg">
<path d="M17.4185 29.8047C17.2935 29.8251 17.1681 29.8438 17.0422 29.861C17.1681 29.8438 17.2935 29.8251 17.4185 29.8047Z" fill="black"/>
<path d="M17.7186 29.7534C17.6588 29.7644 17.5991 29.7745 17.5394 29.7848C17.5991 29.7745 17.6588 29.7644 17.7186 29.7534Z" fill="black"/>
<path d="M16.7072 29.9023C16.561 29.9188 16.4138 29.9335 16.2662 29.9458C16.4138 29.9335 16.561 29.9188 16.7072 29.9023Z" fill="black"/>
<path d="M16.9954 29.868C16.9251 29.8774 16.8544 29.8861 16.7839 29.8944C16.8544 29.8861 16.9251 29.8774 16.9954 29.868Z" fill="black"/>
<path d="M18.127 29.6729C18.0743 29.6841 18.0215 29.6953 17.9686 29.706C18.0215 29.6953 18.0743 29.6841 18.127 29.6729Z" fill="black"/>
<path d="M19.1405 29.4213C19.0979 29.4334 19.0553 29.4448 19.0128 29.4567C19.0553 29.4448 19.0979 29.4334 19.1405 29.4213Z" fill="black"/>
<path d="M18.8339 29.5044C18.7877 29.5165 18.7412 29.5289 18.6948 29.5406C18.7412 29.5289 18.7877 29.5168 18.8339 29.5044Z" fill="black"/>
<path d="M18.4331 29.6045C18.3841 29.6159 18.3347 29.6267 18.2852 29.6377C18.3347 29.6267 18.3841 29.6159 18.4331 29.6045Z" fill="black"/>
<path d="M16.2613 29.9463C16.1823 29.9529 16.1034 29.9589 16.0242 29.9641C16.1034 29.9589 16.1823 29.9529 16.2613 29.9463Z" fill="black"/>
<path d="M30 15C30 6.717 23.283 0 15 0C6.717 0 0 6.717 0 15C0 23.283 6.717 30 15 30C15.0881 30 15.1758 29.9982 15.2637 29.9966V18.3197H12.041V14.564H15.2637V11.8002C15.2637 8.59497 17.2204 6.85043 20.0796 6.85043C21.4487 6.85043 22.6257 6.95251 22.9688 6.99806V10.348H20.9972C19.4417 10.348 19.1405 11.0873 19.1405 12.1719V14.564H22.8598L22.375 18.3197H19.1405V29.4205C25.4102 27.6231 30 21.8468 30 15Z" fill="#16B8E2"/>
<path d="M15.9911 29.9659C15.835 29.976 15.6782 29.984 15.5209 29.9893C15.6782 29.984 15.835 29.976 15.9911 29.9659Z" fill="black"/>
<path d="M15.513 29.9902C15.4301 29.993 15.3471 29.995 15.264 29.9964C15.3471 29.995 15.4301 29.993 15.513 29.9902Z" fill="#16B8E2"/>
</svg>
