<?xml version="1.0" encoding="utf-8"?>
<!-- Generator: Adobe Illustrator 24.0.1, SVG Export Plug-In . SVG Version: 6.00 Build 0)  -->
<svg width="453" height="443" viewBox="0 0 453 443" fill="none" xmlns="http://www.w3.org/2000/svg">
<style type="text/css">
	.st0{fill:#2CBEFF;}
	.st1{fill:#FDD24A;}
	.st2{fill:#16B8E2;}
	.st3{fill:#142C82;}
	.st4{fill:#DAEEF7;}
	.st5{fill:#FF5B7E;}
	.st6{opacity:0.3;fill:#E87B50;enable-background:new    ;}
	.st7{fill:#222323;}
	.st8{fill:#333333;}
	.st9{fill:#FFC0BB;}
	.st10{fill:#E2FAFA;}
	.st11{fill:#FEB546;}
	.st12{fill:#FFFFFF;}
	.st13{opacity:0.5;fill:#142C82;enable-background:new    ;}
	.st14{opacity:0.55;}
	.st15{fill:#EF3D30;}
	.st16{fill:#6B184E;}
	.st17{fill:#FFB640;}
	.st18{fill:none;stroke:#142C82;stroke-width:3.1082;stroke-miterlimit:10;}
	.st19{fill:none;stroke:#142C82;stroke-width:3.1419;stroke-miterlimit:10;}
	.st20{opacity:0.5;fill:none;stroke:#142C82;stroke-width:3.1418;stroke-miterlimit:9.9998;enable-background:new    ;}
	.st21{fill:none;stroke:#142C82;stroke-width:3.1419;stroke-miterlimit:10.0003;}
	.st22{opacity:0.5;fill:none;stroke:#142C82;stroke-width:3.1419;stroke-miterlimit:10.0002;enable-background:new    ;}
	.st23{fill:none;stroke:#142C82;stroke-width:3.142;stroke-miterlimit:10.0003;}
	.st24{fill:none;stroke:#142C82;stroke-width:3.1419;stroke-linecap:round;stroke-linejoin:round;stroke-miterlimit:10;}
	.st25{opacity:0.5;fill:none;stroke:#142C82;stroke-width:3.1419;stroke-miterlimit:10.0003;enable-background:new    ;}
	.st26{fill:none;stroke:#142C82;stroke-width:3.1419;stroke-miterlimit:10.0001;}
	.st27{fill:none;stroke:#142C82;stroke-width:3.1417;stroke-miterlimit:9.9996;}
	.st28{fill:url(#SVGID_1_);}
	.st29{fill:#91B3FA;}
	.st30{opacity:0.36;fill:#FFFFFF;}
	.st31{fill:#7D97F4;}
	.st32{fill:url(#SVGID_2_);}
	.st33{fill:#BDD0FB;}
	.st34{fill:url(#SVGID_3_);}
	.st35{fill:url(#SVGID_4_);}
	.st36{fill:url(#SVGID_5_);}
	.st37{fill:url(#SVGID_6_);}
	.st38{fill:url(#SVGID_7_);}
	.st39{fill:url(#SVGID_8_);}
	.st40{fill:url(#SVGID_9_);}
	.st41{fill:url(#SVGID_10_);}
	.st42{fill:url(#SVGID_11_);}
	.st43{opacity:0.6;}
	.st44{fill:url(#SVGID_12_);}
	.st45{fill:url(#SVGID_13_);}
	.st46{opacity:0.17;fill:#FFFFFF;}
	.st47{fill:#F5D3D5;}
	.st48{fill:#192159;}
	.st49{fill:none;stroke:#8D4DAA;stroke-miterlimit:10;}
	.st50{fill:#8D4DAA;}
	.st51{fill:#00073F;}
	.st52{fill:#3A488A;}
	.st53{fill:#6074AF;}
	.st54{fill:url(#SVGID_14_);}
	.st55{fill:none;stroke:#142C82;stroke-width:3.108;stroke-linecap:round;stroke-linejoin:round;stroke-miterlimit:10;}
	.st56{fill:#FFFFFF;stroke:#142C82;stroke-width:3.108;stroke-linecap:round;stroke-linejoin:round;stroke-miterlimit:10;}
	.st57{fill:url(#SVGID_15_);}
</style>
<g>
	<g>
		<path class="st1" d="M75.2,182c-0.3-4.5-3.9-8.5-3.4-13c0.5-3.8,3.9-7.4,2.4-11c-0.9-2.1-3.2-3.1-4.7-4.8c-2-2.2-2.3-5.5-2.5-8.5
			c-0.1-3-0.2-6.2-1.7-8.8c-1.5-2.6-5.2-4.1-7.5-2.2c-1.4,1.2-1.8,3.2-2.8,4.8c-2.6,4.3-8.9,5.2-11.1,9.8c-1.9,4,0.4,8.8-0.1,13.2
			c-0.6,5.3-5.3,10.3-3.4,15.3c0.7,1.9,2.3,3.4,3.1,5.3c1.1,2.9-0.1,6.4,1.1,9.3c0.8,2,2.6,3.5,4.4,4.7c5.1,3.6,11.1,6.1,16.3,1.5
			C69.4,193.9,75.7,188.3,75.2,182z"/>
		<path class="st1" d="M59.8,210.7c0.5-10.6,1.7-21.8-3.4-31.5c-0.5-1-2.2-0.3-1.6,0.8c5.6,10.4,3.7,22.8,3.1,34.1
			c-0.6,12.3-0.2,4.5-0.8,16.8c-0.1,1.2,1.7,1.3,1.8,0.2C59.5,217.5,59.1,224.2,59.8,210.7z"/>
	</g>
	<g>
		<g>
			<path class="st3" d="M62.3,204.1c-3.2,0-6.9-1.4-10.8-4.3c-1.8-1.3-3.9-2.9-4.8-5.3c-0.7-1.7-0.7-3.5-0.7-5.2
				c0-1.5,0-2.9-0.4-4.2c-0.3-0.8-0.8-1.6-1.4-2.3c-0.6-0.9-1.3-1.8-1.7-2.9c-1.3-3.6,0.1-6.9,1.5-10.2c0.8-1.9,1.6-3.8,1.9-5.7
				c0.2-1.6,0-3.3-0.3-5.1c-0.4-2.8-0.8-5.7,0.5-8.5c1.3-2.8,3.8-4.3,6.2-5.7c2-1.2,3.9-2.4,5-4.2c0.3-0.5,0.5-1,0.8-1.6
				c0.5-1.2,1.1-2.6,2.3-3.5c1.2-1,2.7-1.4,4.3-1.1c2.1,0.4,4.1,1.7,5.2,3.6c1.6,2.7,1.7,5.9,1.9,8.9l0,0.6c0.1,2.9,0.5,5.8,2.1,7.7
				c0.5,0.6,1.1,1,1.8,1.6c1.2,0.9,2.5,2,3.2,3.6c1.2,2.7,0,5.4-1,7.7c-0.6,1.4-1.1,2.7-1.3,3.9c-0.3,2.1,0.6,4.3,1.5,6.5
				c0.8,2,1.6,4,1.8,6.2c0.5,7-6.1,12.8-10.4,16.7C67.3,203.1,64.9,204.1,62.3,204.1z M63.5,136.8c-0.5,0-1.1,0.1-1.6,0.5
				c-0.7,0.6-1.1,1.5-1.5,2.5c-0.3,0.6-0.6,1.3-0.9,1.9c-1.4,2.4-3.7,3.8-5.9,5.1c-2.2,1.3-4.2,2.5-5.1,4.6c-0.9,2-0.6,4.4-0.3,7
				c0.3,1.9,0.5,3.9,0.3,5.8c-0.3,2.3-1.2,4.4-2.1,6.4c-1.2,2.9-2.4,5.7-1.5,8.2c0.3,0.8,0.8,1.6,1.4,2.3c0.6,0.9,1.3,1.8,1.7,2.9
				c0.6,1.7,0.6,3.4,0.6,5.1c0,1.5,0,3,0.5,4.2c0.7,1.7,2.3,3,3.9,4.1c6.2,4.4,10.9,4.9,14.6,1.6c4-3.5,9.9-8.9,9.5-14.5l0,0
				c-0.1-1.8-0.9-3.5-1.6-5.4c-1-2.5-2.1-5.1-1.7-7.9c0.2-1.6,0.9-3.2,1.5-4.6c0.9-2.1,1.7-4,1-5.6c-0.4-1-1.4-1.7-2.4-2.5
				c-0.7-0.6-1.5-1.2-2.1-1.9c-2.2-2.5-2.7-6-2.8-9.4l0-0.6c-0.1-2.7-0.2-5.5-1.5-7.6c-0.7-1.2-2-2.1-3.3-2.3
				C63.9,136.8,63.7,136.8,63.5,136.8z"/>
			<path class="st3" d="M62.3,204.2c-3.3,0-6.9-1.4-10.9-4.3c-1.9-1.3-3.9-2.9-4.9-5.4c-0.7-1.7-0.7-3.5-0.7-5.3
				c0-1.5,0-2.9-0.4-4.1c-0.3-0.8-0.8-1.5-1.4-2.3c-0.6-0.9-1.3-1.8-1.7-3c-1.4-3.6,0.1-7,1.5-10.3c0.8-1.9,1.6-3.8,1.9-5.7
				c0.2-1.6,0-3.3-0.3-5.1c-0.4-2.8-0.8-5.8,0.5-8.5c1.3-2.8,3.8-4.3,6.2-5.8c2-1.2,3.9-2.4,4.9-4.1c0.3-0.5,0.5-1,0.8-1.6
				c0.5-1.2,1.1-2.6,2.3-3.6c1.2-1,2.8-1.4,4.4-1.1c2.1,0.4,4.2,1.8,5.3,3.7c1.6,2.8,1.8,5.9,1.9,9l0,0.6c0.1,2.9,0.5,5.8,2.1,7.6
				c0.5,0.5,1.1,1,1.7,1.5c1.2,0.9,2.5,2,3.3,3.6c1.2,2.8,0,5.5-1,7.8c-0.6,1.4-1.1,2.6-1.3,3.9c-0.3,2.1,0.6,4.2,1.5,6.5
				c0.8,2,1.7,4,1.8,6.2c0.5,7-6.1,12.9-10.5,16.8C67.4,203.2,64.9,204.2,62.3,204.2z M63.5,134.2c-1.2,0-2.3,0.4-3.2,1.2
				c-1.1,1-1.7,2.3-2.2,3.5c-0.3,0.6-0.5,1.2-0.8,1.7c-1.1,1.8-3,3-5,4.2c-2.4,1.4-4.9,2.9-6.1,5.7c-1.3,2.7-0.9,5.6-0.5,8.4
				c0.2,1.8,0.5,3.5,0.3,5.2c-0.2,1.9-1.1,3.8-1.9,5.7c-1.4,3.3-2.8,6.6-1.5,10.1c0.4,1.1,1.1,2,1.7,2.9c0.6,0.8,1.1,1.6,1.4,2.4
				c0.5,1.2,0.5,2.7,0.5,4.2c0,1.7,0,3.5,0.7,5.2c0.9,2.4,3,4,4.8,5.3c3.9,2.8,7.6,4.2,10.8,4.2c2.6,0,5-0.9,7.1-2.8
				c4.3-3.9,10.9-9.7,10.4-16.6c-0.2-2.2-1-4.2-1.8-6.2c-0.9-2.3-1.8-4.4-1.6-6.6c0.2-1.3,0.7-2.6,1.3-4c1-2.3,2.1-5,1-7.6
				c-0.7-1.6-2-2.6-3.2-3.5c-0.7-0.5-1.3-1-1.8-1.6c-1.7-1.9-2-4.9-2.2-7.8l0-0.6c-0.1-3-0.2-6.1-1.8-8.8c-1.1-1.9-3.1-3.2-5.1-3.6
				C64.2,134.2,63.9,134.2,63.5,134.2z M62.2,201.5c-2.7,0-5.7-1.3-9.3-3.8c-1.6-1.1-3.2-2.4-3.9-4.2c-0.5-1.3-0.5-2.7-0.5-4.2
				c0-1.7,0-3.4-0.6-5.1c-0.4-1.1-1.1-2-1.7-2.9c-0.6-0.8-1.1-1.6-1.4-2.4c-1-2.6,0.2-5.4,1.5-8.3c0.9-2,1.8-4.2,2.1-6.4
				c0.2-2,0-3.9-0.3-5.8c-0.3-2.6-0.7-5,0.3-7c1-2,3-3.3,5.2-4.6c2.2-1.3,4.5-2.7,5.9-5.1c0.4-0.6,0.7-1.3,0.9-1.9
				c0.4-1,0.9-2,1.6-2.6c0.5-0.4,1-0.6,1.7-0.6c0.2,0,0.4,0,0.6,0c1.3,0.2,2.7,1.2,3.4,2.4c1.3,2.2,1.4,5,1.5,7.7l0,0.6
				c0.1,3.4,0.6,6.8,2.8,9.3c0.6,0.7,1.4,1.3,2.1,1.9c1,0.8,2,1.6,2.4,2.6c0.7,1.7-0.1,3.5-1,5.7c-0.6,1.5-1.3,3-1.5,4.6
				c-0.4,2.8,0.7,5.4,1.7,7.8c0.8,1.9,1.5,3.6,1.6,5.4c0.4,5.7-5.6,11.1-9.6,14.6C66,200.8,64.2,201.5,62.2,201.5z M63.5,136.9
				c-0.6,0-1.1,0.2-1.5,0.5c-0.6,0.5-1.1,1.5-1.5,2.5c-0.3,0.6-0.6,1.3-0.9,2c-1.4,2.4-3.7,3.8-5.9,5.1c-2.1,1.3-4.2,2.5-5.1,4.5
				c-0.9,2-0.6,4.4-0.3,6.9c0.3,1.9,0.5,3.9,0.3,5.9c-0.3,2.3-1.2,4.4-2.1,6.5c-1.2,2.9-2.4,5.6-1.5,8.1c0.3,0.8,0.8,1.5,1.4,2.3
				c0.6,0.9,1.3,1.8,1.7,3c0.7,1.7,0.6,3.5,0.6,5.2c0,1.5,0,2.9,0.5,4.2c0.7,1.7,2.3,2.9,3.8,4.1c6.2,4.4,10.8,4.9,14.4,1.6
				c3.9-3.5,9.9-8.8,9.5-14.4c-0.1-1.8-0.8-3.5-1.6-5.3c-1-2.5-2.1-5.1-1.7-8c0.2-1.7,0.9-3.2,1.5-4.7c0.9-2.1,1.7-3.9,1-5.5
				c-0.4-1-1.4-1.7-2.4-2.5c-0.7-0.6-1.5-1.2-2.1-1.9c-2.3-2.6-2.7-6.1-2.8-9.5l0-0.6c-0.1-2.7-0.2-5.5-1.5-7.6
				c-0.7-1.2-2-2.1-3.2-2.3C63.9,136.9,63.7,136.9,63.5,136.9z"/>
		</g>
		<path class="st3" d="M58.8,181.3c-0.6,0-1.2,0.6-0.8,1.2c5.6,10.4,3.7,22.8,3.1,34.1c-0.6,12.3-0.2,4.5-0.8,16.8c0,0.6,0.5,1,1,1
			c0.4,0,0.8-0.3,0.8-0.8c0.7-13.5,0.3-6.8,1-20.3c0.5-10.6,1.7-21.8-3.4-31.5C59.4,181.4,59.1,181.3,58.8,181.3L58.8,181.3z"/>
	</g>
</g>
<g>
	<path class="st3" d="M162,264.8H15.8l0.5-1.7c0.3-1.1,8.3-27.3,26.4-33c8.8-2.7,18.4-0.1,28.5,7.8c2.4-0.6,10.7-2.2,15.2,1.1
		c1.1,0.8,2,1.9,2.5,3.2c3.6-4,12-11.5,25.2-10.6c5.2,0.4,9,2.2,11.4,5.6c2.2,3.1,2.8,6.8,2.8,9.9c2-1.9,4.9-3.2,8.6-2.6
		c5.8,1,8,5.7,8.6,9c3.1-0.3,10.6-0.5,14.4,3.2c1.8,1.7,2.5,4,2.2,6.9L162,264.8z M19.5,262.1h140c-0.1-1.4-0.5-2.5-1.5-3.4
		c-3.2-3-10.8-2.7-13.5-2.3l-1.5,0.2l-0.1-1.5c0-0.3-0.3-6.8-6.5-7.9c-6.2-1.1-8.7,5.3-8.8,5.6l-2.6-0.8c0-0.1,2-8.1-1.7-13.2
		c-1.9-2.6-5.1-4.1-9.4-4.4c-16-1.1-24.6,11.7-24.7,11.8l-2.4,3.6l-0.1-4.4c0-1.9-0.7-3.3-1.9-4.2c-3.5-2.6-10.9-1.3-13.5-0.5
		l-0.7,0.2l-0.5-0.4c-9.6-7.7-18.5-10.3-26.5-7.8C29.4,237.1,21.6,256.2,19.5,262.1z"/>
	<path class="st3" d="M162.1,264.9H15.6l0.6-1.9c0.3-1.1,8.3-27.4,26.5-33.1c8.8-2.8,18.4-0.1,28.6,7.8c2.5-0.6,10.7-2.2,15.2,1.2
		c1.1,0.8,1.9,1.8,2.4,3.1c3.9-4.4,12.3-11.3,25.2-10.5c5.2,0.4,9.1,2.2,11.5,5.6c1.8,2.5,2.8,5.8,2.8,9.7c1.7-1.5,4.5-3.1,8.5-2.4
		c6.7,1.2,8.3,7,8.7,9c3.1-0.3,10.6-0.4,14.3,3.2c1.8,1.8,2.6,4.1,2.3,7L162.1,264.9z M16,264.7h145.9l0.1-1.1
		c0.3-2.8-0.4-5.1-2.2-6.8c-3.8-3.6-11.2-3.4-14.3-3.1l-0.1,0l0-0.1c-0.3-1.8-1.9-7.7-8.5-8.9c-4-0.7-6.8,1-8.5,2.6l-0.2,0.2v-0.3
		c0-4-0.9-7.3-2.8-9.8c-2.4-3.3-6.2-5.2-11.3-5.5c-13-0.9-21.3,6.2-25.1,10.5l-0.1,0.2l-0.1-0.2c-0.5-1.3-1.3-2.3-2.4-3.2
		c-4.5-3.3-12.7-1.7-15.1-1.1l-0.1,0l0,0c-10.1-7.9-19.6-10.6-28.4-7.8c-18,5.6-26,31.8-26.3,32.9L16,264.7z M159.6,262.2H19.3
		l0.1-0.2c2.1-5.8,9.9-25.1,24.1-29.5c8.1-2.5,17,0.1,26.6,7.8l0.5,0.4l0.6-0.2c2.6-0.7,10.1-2,13.6,0.6c1.3,1,1.9,2.4,2,4.3l0.1,4
		l2.2-3.3c0.1-0.1,8-11.9,22.9-11.9c0.6,0,1.3,0,1.9,0.1c4.4,0.3,7.6,1.8,9.5,4.5c3.5,4.8,2,12.2,1.8,13.2l2.4,0.7
		c0.4-0.9,2.9-6.6,8.9-5.6c6.3,1.1,6.6,7.7,6.7,8l0,1.4l1.4-0.2c2.7-0.4,10.4-0.7,13.6,2.3c0.9,0.9,1.4,2.1,1.5,3.5L159.6,262.2z
		 M19.7,262h139.7c-0.1-1.3-0.5-2.3-1.4-3.2c-3.1-3-10.7-2.7-13.4-2.3l-1.6,0.2l-0.1-1.7c0-0.3-0.3-6.7-6.4-7.7
		c-6.1-1.1-8.5,5.3-8.6,5.5l0,0.1l-2.8-0.9l0-0.1c0-0.1,1.9-8-1.7-13.1c-1.9-2.6-5-4.1-9.3-4.4c-15.9-1.1-24.5,11.6-24.6,11.7
		l-2.6,4l-0.1-4.8c0-1.9-0.6-3.2-1.9-4.1c-3.4-2.5-10.8-1.2-13.4-0.5l-0.7,0.2l-0.6-0.5c-9.5-7.7-18.4-10.3-26.4-7.8
		C29.6,237.2,21.8,256,19.7,262z"/>
</g>
<g>
	<path class="st2" d="M500.5,166.6c-0.2-3-2.6-5.7-2.2-8.7c0.3-2.5,2.6-5,1.6-7.3c-0.6-1.4-2.2-2.1-3.2-3.2
		c-1.3-1.5-1.6-3.7-1.7-5.7c-0.1-2-0.1-4.2-1.1-5.9c-1-1.7-3.5-2.7-5-1.5c-0.9,0.8-1.2,2.2-1.8,3.2c-1.7,2.9-6,3.5-7.4,6.5
		c-1.3,2.7,0.3,5.9-0.1,8.8c-0.4,3.5-3.6,6.9-2.3,10.2c0.5,1.3,1.6,2.2,2,3.5c0.7,2,0,4.3,0.7,6.2c0.5,1.4,1.7,2.3,2.9,3.1
		c3.4,2.4,7.4,4.1,10.9,1C496.6,174.5,500.8,170.8,500.5,166.6z"/>
	<path class="st2" d="M490.2,185.7c0.4-7.1,1.2-14.5-2.3-21c-0.4-0.7-1.5-0.2-1.1,0.5c3.7,6.9,2.5,15.2,2.1,22.7
		c-0.4,8.2-0.4,10.1-0.8,18.4c0,0.8,1.2,0.9,1.2,0.1C489.7,197.4,489.7,194.7,490.2,185.7z"/>
</g>
<g>
	<path class="st3" d="M493.5,183.6c-2.3,0-4.8-1-7.6-3c-1.3-0.9-2.8-2.1-3.5-3.8c-0.5-1.3-0.5-2.6-0.5-3.7c0-0.9,0-1.8-0.3-2.5
		c-0.2-0.5-0.5-0.9-0.8-1.4c-0.4-0.6-0.9-1.3-1.2-2.1c-1-2.6,0.1-5.1,1-7.3c0.5-1.3,1.1-2.5,1.2-3.6c0.1-1,0-2.1-0.2-3.3
		c-0.3-1.9-0.5-4,0.4-6c0.9-2,2.8-3.1,4.4-4.1c1.3-0.8,2.5-1.5,3.1-2.6c0.2-0.3,0.3-0.6,0.5-1c0.4-0.9,0.8-1.8,1.7-2.6
		c0.9-0.8,2.1-1.1,3.4-0.9c1.6,0.3,3.1,1.3,3.9,2.7c1.2,2,1.2,4.2,1.3,6.2l0,0.4c0.1,1.8,0.3,3.6,1.3,4.7c0.3,0.3,0.7,0.6,1.1,1
		c0.8,0.7,1.8,1.4,2.3,2.6c0.9,2.1,0.1,4-0.7,5.7c-0.4,0.9-0.7,1.7-0.8,2.4c-0.2,1.3,0.4,2.6,1,4c0.6,1.4,1.1,2.8,1.3,4.3l0,0
		c0.4,5-4.3,9.2-7.2,11.7C497.1,182.9,495.4,183.6,493.5,183.6z M494.3,138.7c-0.3,0-0.5,0.1-0.6,0.2c-0.3,0.3-0.6,0.9-0.8,1.5
		c-0.2,0.4-0.4,0.9-0.7,1.4c-1,1.7-2.7,2.7-4.2,3.6c-1.4,0.9-2.6,1.6-3.2,2.8c-0.6,1.2-0.4,2.6-0.1,4.3c0.2,1.3,0.4,2.7,0.2,4.1
		c-0.2,1.6-0.8,3.1-1.4,4.5c-0.8,1.9-1.5,3.5-1,5c0.2,0.5,0.5,0.9,0.8,1.4c0.4,0.6,0.9,1.3,1.2,2.1c0.5,1.2,0.5,2.5,0.5,3.7
		c0,1,0,1.9,0.3,2.6c0.4,1,1.4,1.7,2.4,2.5c5.1,3.6,7.5,2.4,8.9,1.1c2.5-2.3,6.4-5.7,6.1-9.2l0,0c-0.1-1.1-0.5-2.2-1-3.4
		c-0.7-1.7-1.5-3.5-1.2-5.6c0.1-1.2,0.6-2.3,1-3.3c0.6-1.5,1-2.4,0.7-3.2c-0.2-0.5-0.8-0.9-1.4-1.4c-0.5-0.4-1-0.8-1.5-1.3
		c-1.6-1.8-1.9-4.3-2-6.7l0-0.4c-0.1-1.8-0.1-3.5-0.9-4.8c-0.4-0.6-1.1-1.1-1.8-1.2C494.5,138.7,494.4,138.7,494.3,138.7z"/>
	<path class="st3" d="M491.2,167.7c-0.4,0-0.8,0.4-0.6,0.8c3.7,6.9,2.5,15.2,2.1,22.7c-0.4,8.2-0.3,7.6-0.7,15.9
		c0,0.4,0.3,0.6,0.6,0.6c0.3,0,0.5-0.2,0.6-0.5c0.5-9,0.4-9.2,0.8-18.2c0.4-7.1,1.2-14.5-2.3-21
		C491.6,167.8,491.4,167.7,491.2,167.7L491.2,167.7z"/>
</g>
<path class="st3" d="M532.2,236.1H399.4l0.6-2c0.3-1,7.6-24.8,24.1-30c8-2.5,16.7-0.1,25.9,7c2.4-0.6,9.7-1.9,13.8,1.1
	c0.9,0.7,1.6,1.6,2.1,2.6c3.4-3.7,11-10.1,22.7-9.3c4.8,0.3,8.3,2.1,10.6,5.2c1.9,2.6,2.5,5.7,2.6,8.4c1.8-1.5,4.3-2.5,7.5-1.9
	c5.2,0.9,7.4,5.1,8,8.1c3-0.2,9.5-0.3,12.9,3c1.7,1.6,2.4,3.8,2.1,6.5L532.2,236.1z M403.7,233h125.6c-0.1-1-0.5-1.8-1.2-2.5
	c-2.7-2.7-9.5-2.3-11.9-2l-1.7,0.3l-0.1-1.7c0-0.2-0.3-5.9-5.6-6.8c-5.3-0.9-7.5,4.6-7.6,4.9l-3-0.9c0-0.1,1.8-7.1-1.5-11.6
	c-1.7-2.3-4.5-3.6-8.3-3.9c-14.3-1-21.7,10-22,10.5l-2.8,4.2l-0.1-5c0-1.6-0.6-2.8-1.6-3.6c-3-2.2-9.6-1.1-11.9-0.4l-0.8,0.2
	l-0.6-0.5c-8.6-6.9-16.5-9.2-23.7-7C412.7,211,405.8,227.3,403.7,233z"/>
<path class="st2" d="M336,44.3h-7.4v-4h7.4V44.3z M324.3,44.3h-7.4v-4h7.4V44.3z M312.7,44.3h-7.4v-4h7.4V44.3z M301,44.3h-7.4v-4
	h7.4V44.3z M289.4,44.3H282v-4h7.4V44.3z M277.7,44.3h-7.4v-4h7.4V44.3z"/>
<path class="st2" d="M516.9,91.2h-7.4v-4h7.4V91.2z M505.2,91.2h-7.4v-4h7.4V91.2z M493.5,91.2h-7.4v-4h7.4V91.2z"/>
<path class="st2" d="M482.3,30.3h-7.4v-4h7.4V30.3z M470.6,30.3h-7.4v-4h7.4V30.3z M458.9,30.3h-7.4v-4h7.4V30.3z"/>
<path class="st2" d="M70,30.3h-7.4v-4H70V30.3z M58.3,30.3h-7.4v-4h7.4V30.3z M46.6,30.3h-7.4v-4h7.4V30.3z"/>
<path class="st2" d="M234.5,77.5h-7.4v-4h7.4V77.5z M222.8,77.5h-7.4v-4h7.4V77.5z M211.1,77.5h-7.4v-4h7.4V77.5z"/>
<path class="st2" d="M85.4,309.7H78v-4h7.4V309.7z M73.7,309.7h-7.4v-4h7.4V309.7z M62,309.7h-7.4v-4H62V309.7z"/>
<path class="st2" d="M154.7,72.3c-1.2-4.8-5.4-8.5-10.7-8.5c-0.9,0-1.9,0.1-2.7,0.3c-2.5-5.4-8.1-9.2-14.6-9.2
	c-1.7,0-3.2,0.2-4.8,0.7c-3.5-5.8-9.7-9.5-17-9.5c-8.6,0-15.8,5.4-18.6,13c-2-1-4.2-1.7-6.6-1.7c-7.5,0-13.6,6.1-13.6,13.6
	c0,0.4,0,0.8,0.1,1.4h88.5V72.3z"/>
<path class="st2" d="M379.2,74.5c0.9-4.1,4.6-7.1,9-7.1c0.8,0,1.6,0.1,2.3,0.3c2.2-4.6,6.9-7.9,12.4-7.9c1.4,0,2.7,0.2,4.1,0.6
	c2.9-4.8,8.3-8.1,14.3-8.1c7.2,0,13.4,4.6,15.8,11c1.7-0.9,3.6-1.5,5.6-1.5c6.4,0,11.5,5.1,11.5,11.5c0,0.4,0,0.7-0.1,1.2h-74.9
	V74.5z"/>
<path class="st3" d="M219.7,111.3c0,0,1.5-9.4-9.5-8.4c-11,1-13.1,10.9-14.7,23.7c-1.3,10.4-11.7,18.4-18,26
	c-7.8,9.6-9.7,22.1-3.5,33.3c5.1,9.2,16.6,10.1,25.8,7.7c28.1-7.5,35.3-8.5,33-26.8C230.5,148.4,219.7,111.3,219.7,111.3z"/>
<g>
	<path class="st12" d="M222.4,127c5.8-3.9-3.9-17.5-3.9-17.5s-6.4-0.7-8.7,1.9c-1.3,1.4-1.2,4.5-0.8,6.8c-1-0.5-2.1-0.6-2.7,0.6
		c-1.4,2.6,2.5,4.6,4.5,3.9c0.6,0.6,1.3,1.4,2.2,2.2c-0.9,2.8-3.4,10.3-3.6,14.1c0,0,4.1,1.9,8-1.3c0,0,0.2-6.1,0.6-9.9
		C219.4,128.1,220.9,128,222.4,127z"/>
	<path class="st3" d="M212.3,141c-2,0-3.5-0.6-3.6-0.7c-0.6-0.3-0.9-0.9-0.9-1.5c0.2-3.5,2.2-10,3.4-13.5c-0.3-0.3-0.7-0.6-1-1
		c-1.7,0.1-3.7-0.7-4.8-2c-1.1-1.3-1.2-2.8-0.5-4.3c0.4-0.9,1.2-1.6,2.3-1.8c-0.2-2.8,0.3-4.8,1.5-6c2.8-3,9.3-2.4,10-2.4
		c0.4,0,0.8,0.3,1.1,0.6c0.7,1,7,10,5.9,15.9c-0.3,1.6-1.1,2.9-2.4,3.8c0,0,0,0,0,0c-1.2,0.8-2.5,1.2-3.9,1.2
		c-0.3,3.6-0.5,8.1-0.5,8.2c0,0.4-0.2,0.9-0.6,1.1C216.2,140.5,214,141,212.3,141z M211,137.8c1.1,0.2,2.9,0.3,4.8-1
		c0.1-1.8,0.3-6.2,0.6-9.2c0-0.4,0.3-0.9,0.6-1.1c0.4-0.3,0.8-0.3,1.3-0.2c1.2,0.3,2.3,0.1,3.2-0.5c0.6-0.4,1-1,1.1-1.8
		c0.7-3.7-3.1-10.1-5-13c-2.2-0.1-5.5,0.2-6.7,1.4c-0.7,0.7-0.8,2.8-0.4,5.5c0.1,0.6-0.1,1.2-0.6,1.5c-0.5,0.3-1.1,0.4-1.6,0.1
		c-0.3-0.1-0.5-0.2-0.5-0.2c0,0,0,0.1-0.1,0.1c-0.1,0.3-0.2,0.5,0.1,0.8c0.6,0.7,1.9,1.1,2.5,0.9c0.6-0.2,1.2,0,1.7,0.5
		c0.7,0.8,1.3,1.5,2,2.1c0.5,0.4,0.6,1.1,0.4,1.7C213.7,127.4,211.6,133.9,211,137.8z M222.4,127L222.4,127L222.4,127z"/>
</g>
<path class="st3" d="M319.7,101.9c0,0,8.6-6,13.2,4.7c0.8,2,5.7,2.3,6.2,6.3c0.3,2.1,1.8,3.7,3.8,4c5.1,0.8,13,3.4,14.2,12.3
	c1,6.8-2.5,9.3-6.1,10.2c-2.7,0.7-4.4,3.2-3.9,5.9c0.5,2.6-0.3,5.5-4.7,7.9c-10,5.3-20-12.5-20-12.5l-2-31L319.7,101.9z"/>
<g>
	<path class="st12" d="M316.1,119.9c0.5,0,1-0.1,1.5-0.1l1.2,8.5c0,0.2,0.1,0.5,0.2,0.7c1.2,2.1,2.7,2.8,5.6,2.5
		c1.7-0.1,4-0.5,3.6-2.1l-2.8-13.8c0.4-0.5,0.9-1,1.3-1.5c0.5-0.6,0.7-1.3,0.9-2.1c0.9-1.2,1.4-2.6,0-3.4c-0.1,0-0.1,0-0.2-0.1
		c-1.2-4.7-5.7-9.5-9.3-7.3c0,0-4,2.6-5.8,9.5C310.5,117.5,313.2,120,316.1,119.9z"/>
	<path class="st3" d="M323.6,133.1c-2.9,0-4.7-1-6-3.4c-0.2-0.4-0.3-0.8-0.4-1.2l-1-7.1c0,0-0.1,0-0.1,0h0c-1.8,0.1-3.4-0.6-4.5-2
		c-1.1-1.4-2.2-4.1-0.8-9.1c1.9-7.3,6.3-10.2,6.4-10.4c1.6-1,3.3-1.1,5.1-0.4c2.8,1.1,5.3,4.3,6.4,7.9c0.8,0.6,1.1,1.3,1.2,1.9
		c0.2,1-0.1,2.1-0.9,3.3c-0.2,0.9-0.6,1.7-1.1,2.4c-0.3,0.4-0.5,0.7-0.8,1l2.6,13.1c0.2,0.8,0,1.6-0.4,2.2c-0.9,1.3-2.8,1.6-4.6,1.8
		C324.3,133.1,323.9,133.1,323.6,133.1z M317.6,118.2c0.3,0,0.7,0.1,0.9,0.3c0.3,0.2,0.5,0.6,0.6,1l1.2,8.5c0,0.1,0,0.2,0,0.2
		c0.7,1.3,1.6,1.9,4.1,1.7c1.3-0.1,1.9-0.3,2.2-0.4l-2.8-13.7c-0.1-0.5,0-1,0.4-1.4c0.4-0.4,0.8-0.9,1.2-1.4
		c0.3-0.4,0.5-0.9,0.6-1.4c0-0.2,0.1-0.5,0.3-0.7c0.5-0.6,0.6-1,0.6-1.1c0,0,0,0-0.1,0c0,0-0.1,0-0.1,0c-0.4-0.2-0.7-0.6-0.9-1
		c-0.7-2.8-2.7-5.6-4.7-6.4c-0.8-0.3-1.6-0.3-2.3,0.1l0,0c0,0-3.5,2.4-5.1,8.5c-1,4-0.3,5.7,0.3,6.4c0.6,0.7,1.4,0.9,2,0.8
		c0.5,0,0.9-0.1,1.4-0.1C317.5,118.2,317.5,118.2,317.6,118.2z M316.1,119.9L316.1,119.9L316.1,119.9z"/>
</g>
<g>
	<path class="st12" d="M253.4,122.3c-0.5,1.9-1.8,5.2-4.5,6.3c-0.1,0.1-0.3,0.1-0.4,0.2c-0.1-0.4-0.1-0.8,0.2-1.2
		c0.8-1.3-0.7-3-0.7-3s-0.1,1.5-1.3,2.5c-1,0.8-1.5,2.7-0.8,4.2c1.4,5.6,3.6,13-4.8,18.4c-8.4,5.4-20.2-10.2-20.2-10.2l5.9,18.6
		c0,0,9.1,6.7,19.6-2.7c10.5-9.4,3.6-23.1,3.6-23.1s8-3.2,4.5-10.1C254.3,121.7,253.6,121.8,253.4,122.3z"/>
	<path class="st3" d="M234.8,161.9c-5.2,0-8.8-2.5-8.8-2.6c-0.3-0.2-0.5-0.5-0.6-0.8l-5.9-18.6c-0.2-0.7,0.1-1.5,0.8-1.8
		c0.7-0.3,1.5-0.2,2,0.4c3.1,4,12.3,13.6,18.1,9.8c7.2-4.7,5.7-10.8,4.2-16.3l-0.1-0.3c-0.8-2-0.3-4.6,1.3-5.9
		c0.6-0.5,0.7-1.4,0.7-1.4c0.1-0.6,0.5-1.2,1.1-1.3c0.6-0.2,1.2,0,1.7,0.5c0.1,0.1,0.7,0.9,1.1,1.9c0.9-1.3,1.4-2.8,1.6-3.6
		c0.2-0.9,1-1.5,1.8-1.6c0.9-0.1,1.7,0.4,2.1,1.1c1.2,2.3,1.4,4.5,0.7,6.6c-0.9,2.5-3.1,4.1-4.5,5c1.5,4,4.7,15.3-4.5,23.5
		C242.9,160.7,238.4,161.9,234.8,161.9z M228.2,157.1c1.7,1.1,8.9,4.6,17.2-2.9c9.5-8.5,3.5-20.7,3.2-21.2c-0.2-0.4-0.2-0.8-0.1-1.2
		s0.5-0.7,0.9-0.9c0,0,3.2-1.4,4.2-3.9c0.2-0.5,0.2-0.9,0.2-1.4c-0.9,1.8-2.2,3.6-4.3,4.5c-0.1,0.1-0.2,0.1-0.3,0.2
		c-0.4,0.2-0.9,0.2-1.3,0c-0.3-0.1-0.5-0.3-0.7-0.6c0,0.3,0,0.6,0.2,1c0,0.1,0.1,0.2,0.1,0.3l0.1,0.4c1.4,5.5,3.6,13.8-5.6,19.7
		c-5.9,3.8-12.9-1-17.5-5.3L228.2,157.1z M253.4,122.3L253.4,122.3L253.4,122.3z"/>
</g>
<path class="st2" d="M220.2,137.4c-2.5-0.8-9.8-2.1-16.8,4.3c-1.2,1.1-1.7,2.7-1.2,4.3c1.9,6.9,6.8,27.2,2.5,36
	c0,0,7.6,8.4,15.9,1.6c0,0,3.7-16.3,8.6-23.4c3.4-4.9-5.4-18.5-7.6-21.8C221.3,138,220.8,137.6,220.2,137.4z"/>
<path class="st3" d="M214,106.2c0,0,4.5,1.1,5.1,3.1c0.6,2-6.3,3.9-8.3,4l-5.1,3.5c0,0-1.1-3,0.7-7.4
	C208.3,104.9,214,106.2,214,106.2z"/>
<path class="st3" d="M228.3,223.5c0.3,1.2,0.6,2.8,1,4.6c0.1,0.5,0,1-0.2,1.4l-17.7,29.9c2.3-6,4.8-13.1,5.8-17.4
	c1.3-6.3,8.7-11.8,8.8-11.8c1.2-0.9,1.6-2.4,1-3.7l-0.6-1.4L228.3,223.5 M230.3,217.7l-7.8,6.5l1.5,3.5c0,0-8.4,6.1-10,13.7
	c-1.4,6.7-6.9,20.3-9.1,25.7c-0.6,1.4-1.6,2.7-3,3.5l-1.5,0.9l1.2,14.7l5.5,1.2l-1.3-2.6c-0.5-4.3,0.4-9,0.9-11
	c0.1-0.6,0.3-1.1,0.6-1.6l24.4-41.1c0.6-1.1,0.8-2.4,0.6-3.7C231.6,224.3,230.3,218.5,230.3,217.7L230.3,217.7z"/>
<path class="st2" d="M195.5,281.1c0,0,2.9-4.7,3.3-6.5c0.3-1.8,1.3-5,3.1-4.1c0,0,0.9,8.8,0.6,12.3c-0.3,3.5,3.9,3.3,3.9,3.3
	s1.2,0.2,2,1c0.6,0.6,0.2,1.6-0.7,1.7c-1.4,0.1-3.6,0.1-5.9-0.3c-0.8-0.2-1.4-0.8-1.4-1.7l-0.6-10.2l-3.7,4.7L195.5,281.1z"/>
<path class="st3" d="M212.6,226.4C212.6,226.4,212.6,226.4,212.6,226.4c-0.1,6.5-0.6,26-0.8,35.3c-1.6-7.5-3.7-17.5-4.4-20.3
	c-0.9-3.6-1.3-8.8,2.3-13.2C210.6,227,211.6,226.4,212.6,226.4 M212.6,223.3c-1.5,0-3.4,0.6-5.3,2.9c-4.2,5.2-4.1,11.4-2.9,16
	c1,3.9,4.8,22.1,5.9,27.6c0.2,1,0.1,2.1-0.4,3l-1,2.1c0,0,0.9,1,4.1,6.2c2.8,4.7,5.6,7.1,5.6,7.1l2.3-1.7c-5.2-3.5-6.2-15-6.1-20.2
	c0.1-5.2,1-42,1-42S214.4,223.3,212.6,223.3L212.6,223.3z"/>
<path class="st2" d="M210.9,289.9c-0.2,0-0.3-0.1-0.3-0.3c-0.2-1.2-0.9-6.1-1.5-7.4c-0.7-1.5-2.9-7.6,0-8.1c0,0,7.2,10.5,8.6,12
	c1.4,1.4,3.1,0.5,3.1,0.5s1.3,0.4,2.4,1.7c0.5,0.6,0,1.5-0.8,1.5l-4.9,0c-1.4,0-2.7-0.8-3.2-2.2c-0.9-2.1-2.3-5.3-4-6.7l0.9,8.5
	C211.3,289.7,211.1,289.8,210.9,289.9L210.9,289.9z"/>
<path class="st1" d="M221.8,179.7c0,0-1.1,3.5,0.6,9.2l10.4,36.4c0.2,0.6-0.1,1.2-0.7,1.4c-3.1,1.1-13.4,4.3-27.4,3.3
	c-0.7,0-1.3-0.5-1.4-1.2c-0.9-4.2-4.1-18.3-4.7-21.2c-2.5-11.1-5.2-23.1,6.9-30.3C211,179.6,216.3,181.1,221.8,179.7z"/>
<path class="st3" d="M207.7,234.7c-1.7,0-3.5-0.1-5.3-0.2c-1.4-0.1-2.6-1.1-2.9-2.5c-0.9-4.2-4.1-18.3-4.7-21.2l0-0.2
	c-2.5-11.2-5.3-24,7.7-31.7l0.7-0.4l0.7,0.3c4.7,2,9.9,3.7,15.3,2.3l2.7-0.7l-0.8,2.6c0,0.1-0.9,3.3,0.6,8.3l10.4,36.4
	c0.4,1.4-0.3,2.8-1.7,3.3C227.9,232,219.4,234.7,207.7,234.7z M203.4,181.9c-10.3,6.7-7.9,17.5-5.6,28l0,0.2
	c0.6,2.9,3.8,17.1,4.7,21.2c13.3,0.9,23.2-2,26.4-3.1l-10.3-36c-1-3.3-1.1-6-1-7.7C212.5,185.2,207.6,183.7,203.4,181.9z"/>
<g>
	<path class="st1" d="M300.2,145h-10c-0.1,6.5,3.5,9.6,4.3,10.1c0.1,0.1,0.2,0.3,0.3,0.3h0.2c0.1,0,0.2-0.3,0.3-0.3
		C300.4,152,300.2,145,300.2,145z"/>
	<path class="st3" d="M300.4,171.9h-11v-1.9c0-1.6,1.4-3,3.1-3.3l0.1-9.9c-2-1.5-4.1-4.1-4.8-7.8c-1.2-6.1,0-11.4,0-11.6l0.3-1.2
		h14.3l0.3,1.2c0,0.2,1.2,5.6,0,11.7l0,0c-0.8,4-3.1,6.7-5.3,8v9.6c1.8,0.1,3.1,1.4,3.1,3.3V171.9z M290.7,139.2
		c-0.2,1.8-0.5,5.4,0.2,9.2c0.8,4.1,3.6,5.9,4.1,6.2l0.1,0.1l0,0c0.6-0.3,3.6-1.9,4.4-6.3c0.7-3.8,0.4-7.4,0.2-9.2H290.7z"/>
</g>
<path class="st3" d="M316.1,282.4c-0.6,0-1.1-0.3-1.4-0.8l-1.2-2.2c-0.2-0.5-0.2-1,0-1.5c0.9-1.6,1.3-3.4,1.2-5.2
	c-0.5-13.3-3.1-43.6-3.1-43.9c0-0.1,0-0.1,0-0.2l0.4-9.1c0-0.6,0.4-1.1,0.9-1.3c0.5-0.2,1.1-0.2,1.6,0.2l6.3,4.8
	c0.2,0.1,0.4,0.3,0.5,0.6l2.7,5.7c0.9,1.8,0.3,3.6-0.2,5.3c-0.2,0.8-0.5,1.5-0.5,2.1l-0.8,37.1l1.9,2.9c0.2,0.3,0.3,0.7,0.2,1.1
	l-0.3,1.8c-0.1,0.6-0.6,1.2-1.2,1.3l-6.9,1.5C316.3,282.4,316.2,282.4,316.1,282.4z M316.7,278.7l0.2,0.5l4.7-1l0-0.1l-1.8-2.8
	c-0.2-0.3-0.3-0.6-0.3-0.9l0.8-37.6c0.1-1.1,0.4-2,0.6-2.9c0.4-1.2,0.7-2.3,0.4-3l-2.6-5.4l-3.6-2.8l-0.3,6.1c0.2,2,2.6,31,3.1,44
	C318,274.7,317.5,276.8,316.7,278.7z"/>
<path class="st3" d="M332.7,282.4c-0.6,0-1.1-0.3-1.4-0.8l-1.2-2.2c-0.2-0.5-0.2-1,0-1.5c0.9-1.6,1.3-3.4,1.2-5.2
	c-0.5-13.3-3.5-46.9-3.5-47.2c0-0.1,0-0.3,0-0.4l0.9-5.9c0.1-0.5,0.4-1,1-1.2s1.1-0.1,1.5,0.2l6.3,4.8c0.2,0.1,0.4,0.3,0.5,0.6
	l2.8,5.7c0.9,1.8,0.1,3.6-0.5,5.2c-0.3,0.8-0.6,1.6-0.7,2.2l-0.3,37l1.9,2.9c0.2,0.3,0.3,0.7,0.2,1.1l-0.3,1.8
	c-0.1,0.6-0.6,1.2-1.2,1.3l-6.9,1.5C332.9,282.4,332.8,282.4,332.7,282.4z M333.3,278.7l0.2,0.5l4.7-1l0-0.1l-1.9-2.8
	c-0.2-0.3-0.3-0.6-0.3-0.9l0.3-37.6c0,0,0-0.1,0-0.1c0.1-1.1,0.5-2.2,0.9-3.2c0.4-1.1,0.9-2.1,0.6-2.7l-2.6-5.4l-3.9-3l-0.5,3.1
	c0.2,2.7,3,34.3,3.5,47.2C334.6,274.7,334.1,276.8,333.3,278.7z"/>
<path class="st2" d="M334.2,168.5c-3.1-13.3,0.6-23,3.9-28.4c2-3.4,0.5-7.8-3.2-9.2c-5.9-2.3-12.6-2.7-16-2.7
	c-1.5,0-2.9,0.7-3.8,1.9c-2.5,3.4-7.2,10.8-6,16.7c1,4.7,7.5,23.5,7.5,23.5S324.9,174.1,334.2,168.5z"/>
<path class="st3" d="M323.1,111.3c0,0,1.6-9.8-6.6-8.4l-1.7,1.7c0,0-3.9-4.5,0.5-7.9c4.4-3.3,10.6-2.4,13.9,3.8
	c3.3,6.2,4.5,10.6,1.6,14.4c-2.9,3.8-5,0.5-5,0.5s1.3-3.3,0.3-4.7c-1.1-1.4-2.5,0.8-2.5,0.8L323.1,111.3z"/>
<g>
	<path class="st12" d="M207.5,174c-3.8,0-2.1,3-7.5,0.6c-5.3-2.4-8.5-9.8,4.9-21c0.8-0.6,1.4-1.5,1.8-2.4c2.6-6.6,0.5-10.9-4.2-8.1
		c0,0-11.9,9.9-14.8,23.3c-2.9,13.5,17.3,14.9,17.3,14.9s2.8-3.1,6-2C214.3,180.4,211.3,174,207.5,174z"/>
	<path class="st3" d="M205,182.9c0,0-0.1,0-0.1,0c-0.5,0-12.1-0.9-17-7.4c-2-2.6-2.6-5.8-1.8-9.4c3-13.8,14.8-23.8,15.3-24.2
		c0.1-0.1,0.1-0.1,0.2-0.1c3.2-1.9,5.1-0.9,6-0.1c2.1,1.8,2.2,5.6,0.4,10.2c-0.5,1.2-1.2,2.2-2.2,3c-6.2,5.2-9.4,10.1-8.9,13.9
		c0.4,2.7,2.4,4,3.6,4.5c2.4,1.1,2.7,0.9,3.2,0.5c0.6-0.5,1.6-1.2,3.7-1.2c0,0,0,0,0,0c2.7,0,5.1,2.2,6.1,4.4c0.8,1.9,0.3,3-0.2,3.4
		c-0.4,0.4-1.3,1-2.9,0.5c-2.2-0.8-4.4,1.5-4.4,1.5C205.9,182.7,205.4,182.9,205,182.9z M203.4,144.3c-1.1,1-11.5,10.2-14.2,22.4
		c-0.6,2.7-0.2,4.9,1.2,6.8c3.4,4.6,11.6,5.9,14,6.1c1-0.9,3.3-2.5,6-2.1c-0.6-0.9-1.7-2.1-3-2.1c0,0,0,0,0,0l0,0
		c-1,0-1.3,0.2-1.8,0.6c-1.5,1.2-2.8,1.4-6.3-0.1c-3-1.4-5-3.9-5.4-6.9c-0.5-3.4,0.9-9.1,10-16.7c0.6-0.5,1.1-1.1,1.3-1.8
		c1.5-3.8,1.1-6.1,0.4-6.7C205.3,143.6,204.4,143.8,203.4,144.3z"/>
</g>
<g>
	<path class="st12" d="M339.3,135.6c-1.5-1.9-3.6-2.3-6.1-1.5c-1.9,0.6-3.1,2.4-2.9,4.4c0.5,5,0.4,15.2-6.8,18.6
		c-9.7,4.6-15.2-1.5-19.5-6c0-0.1-0.1-0.1-0.1-0.1c0,0,0,0,0,0c-1-1.5-3.1-2.7-3-1.7c0,1-1,3-1,3.1c-2.6,1.7-6.2,1-8.2,0.4
		c-0.5-0.2-1,0.4-0.7,0.9c4.2,7.1,11.7,1.6,11.7,1.6s8.6,14.1,23.1,9.8c12.3-3.7,14.2-20.9,14.5-26.2
		C340.5,137.8,340.1,136.6,339.3,135.6z"/>
	<path class="st3" d="M320.4,167.6c-9.5,0-15.9-7.1-18.1-10.1c-1.6,0.8-4.3,1.9-7.1,1.4c-2.3-0.5-4.2-1.9-5.5-4.2
		c-0.5-0.8-0.4-1.7,0.2-2.4c0.6-0.7,1.5-1,2.3-0.8c1.3,0.4,4.4,1.1,6.6,0c0.4-0.8,0.6-1.6,0.6-1.9c0-0.9,0.4-1.6,1.2-1.9
		c1.7-0.6,3.8,1.4,4.6,2.5c0,0,0,0,0.1,0.1l0.3,0.3c4.2,4.4,9,9.4,17.4,5.3c6.4-3.1,6.3-13,5.9-17.1c-0.2-2.7,1.4-5.2,4-6
		c4-1.3,6.4,0.4,7.7,2c0,0,0,0,0,0c1,1.2,1.5,2.8,1.4,4.4c-0.3,5.5-2.4,23.7-15.6,27.6C324.3,167.3,322.3,167.6,320.4,167.6z
		 M302.8,153.9c0.1,0,0.2,0,0.3,0c0.4,0.1,0.8,0.3,1,0.7c0.3,0.5,8.2,13,21.4,9.1c11.3-3.4,13.1-19.8,13.4-24.8
		c0-0.9-0.2-1.7-0.7-2.3l0,0c-0.7-0.9-1.9-1.8-4.4-1c-1.2,0.4-1.9,1.5-1.8,2.8c0.5,5.9,0.3,16.4-7.6,20.2c-10.5,5-16.8-1.6-21-6
		l-0.3-0.3c0,0-0.1-0.1-0.1-0.1c-0.1-0.1-0.1-0.1-0.2-0.2l0,0c-0.2-0.2-0.4-0.5-0.6-0.6c-0.3,0.8-0.6,1.5-0.8,1.9
		c-0.1,0.2-0.3,0.5-0.5,0.6c-2.1,1.4-4.7,1.5-6.8,1.2c0.6,0.4,1.2,0.7,1.8,0.8c2.9,0.6,6-1.6,6-1.6
		C302.1,154,302.4,153.9,302.8,153.9z M302.8,152.1C302.8,152.1,302.8,152.1,302.8,152.1C302.8,152.1,302.8,152.1,302.8,152.1z"/>
</g>
<g>
	<g>
		<path class="st12" d="M166.1,187.4c-3.4-0.2-6,0.5-7.7,1.3l4.4,15.2c0,0-0.4,4-0.4,6.8c0,1.2-1,6.7,1.6,9.9
			c0.1,0.2,0.7-4.6,0.9-3.9c1.1,3.6,1.5,9.9,2.1,8.9c6.2-9.8-0.5-22.5-0.5-22.5S166.5,196.3,166.1,187.4z"/>
		<path class="st3" d="M163.1,190.6c0,1.3,0.1,2.5,0.1,3.7l-1-3.5C162.5,190.7,162.8,190.7,163.1,190.6 M165.6,209.3
			c0.4,1.4,0.8,3.1,1,4.9c-0.3-0.2-0.7-0.4-1.1-0.4c0-0.7,0.1-1.4,0.1-1.8c0-0.4,0.1-0.8,0.1-1.1
			C165.6,210.3,165.6,209.8,165.6,209.3 M165,187.4c-2.8,0-5.1,0.7-6.6,1.4l4.4,15.2c0,0-0.4,4-0.4,6.8c0,1.2-1,6.7,1.6,9.9
			c0,0,0,0,0,0c0.1,0,0.6-4,0.8-4c0,0,0,0,0.1,0.1c1,3.3,1.4,9,2,9c0,0,0.1,0,0.1-0.1c6.2-9.8-0.5-22.5-0.5-22.5s-0.1-6.9-0.5-15.8
			C165.7,187.4,165.4,187.4,165,187.4L165,187.4z"/>
	</g>
	<path class="st3" d="M133.8,299.6c-0.4,0-0.8,0-1.2-0.1c-1.2-0.1-2.1-1-2.4-2.2l-1.5-7c-0.1-0.5,0-0.9,0.3-1.3
		c0.3-0.4,0.7-0.6,1.2-0.6h4.8c0.8,0,1.4,0.6,1.5,1.3l1,6.2c0.1,0.8-0.1,1.7-0.5,2.3c-0.5,0.6-1.1,1-1.9,1.2
		C134.8,299.6,134.3,299.6,133.8,299.6z M133.3,296.5c0.4,0,0.9,0,1.3,0l-0.8-4.8h-1.6L133.3,296.5z"/>
	<path class="st3" d="M158.1,299.1c-0.6,0-1.2,0-1.7-0.1c-1.1-0.1-2-1-2.2-2.2c-0.3-2.8-0.8-7-0.9-7.3c-0.1-0.8,0.4-1.6,1.3-1.8
		l5.7-1.1c0.5-0.1,0.9,0,1.3,0.3s0.6,0.7,0.6,1.2v7.9c0,1.4-0.9,2.6-2.2,2.8C159.3,299,158.7,299.1,158.1,299.1z M157.3,295.9
		c0.7,0.1,1.3,0,1.8,0v-5.8l-2.5,0.5C156.8,292.2,157.1,294.8,157.3,295.9z M156.8,295.9C156.8,295.9,156.8,295.9,156.8,295.9
		C156.8,295.9,156.8,295.9,156.8,295.9z"/>
	<path class="st3" d="M151.3,197.7c0,0,12,40,11.9,91.1c0,0.9-0.7,1.7-1.6,1.9c-1.3,0.3-5.7,1.2-7.3,1.2c-0.9,0-1.6-0.7-1.7-1.5
		c-1.5-8.8-5.4-57.7-10.3-65.8c0,0-5.8,43.2-4.8,66.1c0,0.6-0.4,1.1-1,1.1c-0.9,0.1-4.7,0.9-6.5,0.7c-0.7-0.1-1.2-0.6-1.3-1.2
		c-1.1-7.4-5.8-52.1-5.5-84c0-1.8,4.8-9.6,4.8-9.6H151.3z"/>
	<path class="st2" d="M163.6,153.4c-2.3-11.3-10.3-15.6-10.3-15.6c0,0,0,0,0,0c-2.2-1.8-5-3-8-3.3c-10.1-1.1-20.2,1.2-25.2,1.8
		c-2.5,0.3-4.9,1.6-6.5,3.5c-6.6,7.7-21,39.9-3.2,43c2.2-1.2,1-2,3.1-4.3c-1.9-5.3,1.5-6.4,5.4-14.8c0.1,0.7,0.3,1.3,0.5,2
		c5.5,17.3,5.8,31.8,5.8,35.1c0,0.4,0.3,0.9,0.7,1c7.2,2.9,21.1,1.2,25.8,0.5c0.9-0.1,1.4-0.9,1.3-1.8c-0.9-6.2,0.2-15.7,1.7-25.3
		l3.9,13.7c1.7-0.8,4.3-1.5,7.7-1.3C165.7,175.4,164.9,159.9,163.6,153.4z"/>
	<path class="st3" d="M135.2,204.9c-4.4,0-8.9-0.4-12.2-1.7c-1-0.4-1.6-1.4-1.6-2.5c0-2.7-0.2-16.3-5.1-32.9c-0.7,1.2-1.3,2.2-1.9,3
		c-1.9,3.1-2.7,4.2-1.7,7.1l0.3,0.9l-0.6,0.7c-0.8,0.8-0.9,1.3-1.1,1.9c-0.3,1-0.8,1.9-2.3,2.7l-0.5,0.3l-0.5-0.1
		c-4.4-0.8-7.5-3.3-8.9-7.3c-4-11.1,5.8-32.1,11.2-38.3c1.9-2.2,4.6-3.7,7.5-4c1-0.1,2.1-0.3,3.4-0.5c5.5-0.9,13.8-2.2,22.2-1.3
		c3.2,0.3,6.1,1.5,8.7,3.5c0.6,0.4,8.7,5,11,16.7l0,0c1.3,6.6,2.1,22.3,2.6,34.3l0.1,1.7L164,189c-3.2-0.2-5.6,0.5-7,1.2l-1.6,0.7
		l-2.5-8.5c-1,7.9-1.3,13.8-0.7,17.8c0.2,1.7-0.9,3.3-2.6,3.5C146.5,204.2,140.9,204.9,135.2,204.9z M124.5,200.4
		c7,2.6,20.6,0.9,24.6,0.3c-0.8-5.6-0.2-14,1.7-25.8l1.1-6.8l5.4,18.6c1.3-0.4,3-0.8,5.1-0.8c-0.5-11.6-1.2-26-2.5-32.2
		c-1.8-9.1-7.5-13.3-9.1-14.3l-0.1,0l-0.5-0.4c-2.1-1.7-4.6-2.7-7.2-3c-7.9-0.8-16,0.4-21.3,1.3c-1.4,0.2-2.5,0.4-3.5,0.5
		c-2.2,0.3-4.1,1.3-5.6,3c-4.9,5.7-14.2,25.3-10.7,35.2c1,2.8,3,4.5,6,5.1c0.2-0.2,0.3-0.4,0.5-0.8c0.2-0.6,0.5-1.3,1.2-2.2
		c-1-3.7,0.3-5.8,2.2-8.9c1-1.6,2.2-3.5,3.5-6.2l2-4.2l0.9,4.6c0.1,0.6,0.3,1.2,0.5,1.8C124,182,124.5,196.1,124.5,200.4z"/>
	<g>
		<g>
			<path class="st12" d="M148.6,121.9c0,0-7.9-15.5-8.1-15.7c-3.2-3-10.6,6.4-10.6,6.4l2.9,4c-0.4-0.3-0.9-0.5-1.3-0.5
				c-2.2,0.2-3.9,2.4-1.2,4.8c0.9,0.8,1.7,1.2,2.4,1.3l-1.4,0.1l-1.4,14.2c0,0,8,2.4,13.8-1.7l-2.9-9.1L148.6,121.9z M133.8,122.2
				c1.1-0.3,1.6-1.3,1.6-1.3s-0.3-0.8-0.7-1.8l2,2.9L133.8,122.2z"/>
			<path class="st3" d="M135.2,138.8c-3.2,0-5.6-0.7-5.8-0.8c-0.7-0.2-1.2-0.9-1.1-1.6l1.4-13.9c-0.1-0.1-0.3-0.2-0.4-0.4
				c-2.2-2-2-3.9-1.7-4.8c0.4-1,1.2-1.9,2.2-2.3l-1-1.5c-0.4-0.6-0.4-1.3,0-1.9c0.9-1.2,5.9-7.3,9.9-7.6c1.1-0.1,2.2,0.3,2.9,1
				c0.3,0.2,0.4,0.4,8.4,16.2c0.2,0.4,0.2,0.8,0.1,1.2c-0.1,0.4-0.4,0.7-0.8,0.9l-6.7,3.2l2.5,7.9c0.2,0.6,0,1.3-0.6,1.7
				C141.5,138.2,138.1,138.8,135.2,138.8z M131.5,135.3c2.1,0.4,6.6,0.9,10.3-1.2l-2.5-8c-0.2-0.7,0.1-1.5,0.8-1.9l6.4-3.1
				c-2.8-5.5-6.5-12.6-7.2-14c-0.1-0.1-0.2-0.1-0.4-0.1c-1.8,0.1-4.9,3.1-7,5.5l2.2,3c0.5,0.6,0.4,1.5-0.2,2c-0.6,0.5-1.4,0.6-2,0.1
				c-0.2-0.1-0.3-0.2-0.3-0.2c-0.6,0.1-1,0.4-1.1,0.6c-0.1,0.3,0.2,0.9,0.9,1.5c0.6,0.5,1.2,0.9,1.6,0.9c0.1,0,0.2,0,0.2,0.1
				c0.1,0,0.1-0.1,0.2-0.1c0.1,0,0.2-0.1,0.2-0.1c-0.1-0.2-0.2-0.5-0.3-0.7c-0.4-0.7-0.1-1.6,0.6-2c0.7-0.4,1.6-0.2,2.1,0.4l2,2.9
				c0.3,0.5,0.4,1.1,0.1,1.6c-0.2,0.5-0.8,0.8-1.3,0.9l-2.9,0.1c-0.2,0-0.4,0-0.6-0.1c-0.2,0.1-0.4,0.1-0.6,0.1l-0.1,0L131.5,135.3z
				"/>
		</g>
		<path class="st3" d="M133.9,112.9c-0.2,0.4-0.1,0.9,0.1,1.3l4.5,7.5c0.1,0.1,0.1,0.2,0.2,0.3c0.5,0.5,2.4,1.9,3.8,0
			c1.2-1.7,2.3-3.2,3.5-3.8c0.7-0.4,2.3-0.2,2.7,0.5c3.6,5.1,1.4,4.6,2.3,7.4c0.2,0.7-0.1,1.5-0.8,1.7c-1.8,0.7-5.4,2.1-8.6,2.5
			c-0.5,0.1-1-0.1-1.4-0.6c-1.4-1.9-5.2-7.1-6.6-8.4c-1.2-1.2-3.5-0.8-4.5-0.5c-0.4,0.1-0.8,0.1-1.1-0.1c-1-0.6-2.8-2.2-1.2-4.8
			c0.4-0.7,0.2-1.5-0.4-1.9c-1.2-0.8-2.4-2.2-1.2-4.5c1.2-2.3,3.4-2.5,4.8-2.4c0.7,0.1,1.3-0.3,1.6-0.9c0.1-0.3,0.3-0.5,0.7-0.6
			c0.8-0.2,1.3-0.9,1.1-1.6c-0.3-1.3-0.1-3,2-4.2c3.9-2.1,7.3,1.3,8.1,4.3c0.9,2.9-3.5,5-6.2,5.3
			C135.4,109.6,134.3,111.8,133.9,112.9z"/>
	</g>
	
		<linearGradient id="SVGID_1_" gradientUnits="userSpaceOnUse" x1="-264.318" y1="127.6941" x2="-287.6694" y2="170.5955" gradientTransform="matrix(1 0 0 1 395.7825 0)">
		<stop  offset="0" style="stop-color:#53D8FF"/>
		<stop  offset="1" style="stop-color:#3840F7"/>
	</linearGradient>
	<path class="st28" d="M118,162.4c-2.9-7.9-1.9-17.5-1.8-17.6l0.8,0.1c0,0.1-1,9.5,1.8,17.3L118,162.4z"/>
	<g>
		<path class="st12" d="M113.3,161.2c0,0-9.2,11.7-6.8,17.8s9.8,4.9,11.1-8l-0.6-8L113.3,161.2z"/>
		<path class="st3" d="M114.1,165.5l0.4,5.6c-0.7,6.5-2.9,8.5-3.7,8.5c-0.3,0-0.9-0.4-1.4-1.6C108.4,175.4,111.2,169.7,114.1,165.5
			 M113.3,161.2c0,0-9.2,11.7-6.8,17.8c0.9,2.3,2.5,3.6,4.3,3.6c2.9,0,6-3.5,6.8-11.6l-0.6-8L113.3,161.2L113.3,161.2z"/>
	</g>
	<g>
		<path class="st1" d="M122.9,146.8h-10.5c-0.1,6.9,3.7,10,4.5,10.7c0.1,0.1,0.2,0.4,0.4,0.4h0.2c0.1,0,0.2-0.3,0.3-0.3
			C123.1,154.2,122.9,146.8,122.9,146.8z"/>
		<path class="st3" d="M123,175h-11.4v-2c0-1.6,1.5-3.1,3.2-3.4l0.1-10.5c-2.1-1.5-4.3-4.3-5.1-8.2c-1.2-6.4,0-12,0-12.2l0.3-1.2
			H125l0.3,1.2c0.1,0.2,1.3,5.8,0,12.2l0,0c-0.9,4.9-3.9,7.4-5.5,8.4v10.3c1.9,0.1,3.2,1.4,3.2,3.4V175z M112.8,140.5
			c-0.3,1.9-0.6,5.7,0.2,9.8c0.8,4.3,3.8,6.3,4.4,6.6l0.2,0.1l0.1,0c0.6-0.3,3.8-2.1,4.7-6.7c0.8-4.1,0.4-7.9,0.2-9.8H112.8z"/>
	</g>
	<g>
		<path class="st12" d="M114,166.4l-1-6.7c-0.2-1.1,0.5-2,1.6-2.2c1.6-0.3,3.9-0.6,4.7-0.2c1.2,0.6-1.4,11.6-4.4,10.4
			C114.4,167.4,114,166.9,114,166.4z"/>
		<path class="st3" d="M115.3,169.2c-0.4,0-0.8-0.1-1-0.2c-1-0.4-1.7-1.3-1.9-2.5c0,0,0,0,0,0l-1-6.7c-0.3-1.9,1-3.6,2.8-4
			c3.7-0.7,5-0.4,5.6-0.1c2.9,1.4-0.6,9.6-0.6,9.6C118,168.5,116.5,169.2,115.3,169.2z M118,158.6c-0.5,0-1.5,0.1-3.1,0.4
			c-0.2,0-0.4,0.3-0.3,0.5l0.9,6.5C116.5,164.9,117.9,160.5,118,158.6z"/>
	</g>
	<path class="st1" d="M145.6,306.5c0-0.1,0-0.2,0-0.3c-1.7-6.9-10.4-11.2-10.4-11.2l-3.4,0.3c-2,6.1-1.7,9.8-1.4,11.5
		c0,0,0,0.1,0,0.1C133.2,307,139,307.2,145.6,306.5z"/>
	<path class="st1" d="M130.4,306.8c0.2,0.6,0.6,1,1.1,1.1c4,0.8,10.4,0.2,13.1-0.2c0.6-0.1,1-0.6,1-1.2
		C139,307.2,133.2,307,130.4,306.8z"/>
	<path class="st1" d="M160.4,306.7c-3.8-0.1-5.7-0.6-6.8-1c0,0.4,0,0.8,0,1.2c0,0.4,0.3,0.8,0.7,0.8l20.8-0.1c0.7,0,1.1-0.8,0.8-1.4
		C173.2,306.4,166.3,306.9,160.4,306.7z"/>
	<path class="st1" d="M176,306.1c0-0.1,0-0.1-0.1-0.2c-1.8-2.6-6.5-7.7-15.7-9.9l-4.4-0.1c0,0-2,3.4-2,9.8c1,0.4,3,0.9,6.8,1
		C166.3,306.9,173.2,306.4,176,306.1z"/>
</g>
<g>
	<g>
		<path class="st12" d="M408.5,151.7l0.4,13.9c0,0.9-0.5,1.7-1.4,2c-1.7,0.6-4.9,1.3-8.4,0.5c-1-0.2-1.7-1.3-1.5-2.3l1.9-10.9
			L408.5,151.7z"/>
		<path class="st3" d="M402.4,170c-1.1,0-2.3-0.1-3.5-0.4c-1.9-0.4-3.1-2.2-2.7-4.1l1.9-10.9c0.1-0.6,0.5-1,1-1.2l8.9-3.1
			c0.5-0.2,1-0.1,1.4,0.2c0.4,0.3,0.7,0.7,0.7,1.2l0.4,13.9c0,1.6-0.9,3-2.4,3.5C406.6,169.5,404.6,170,402.4,170z M401,156l-1.7,10
			c0,0.2,0.1,0.5,0.3,0.5c3.2,0.7,6.1,0,7.5-0.5c0.2-0.1,0.3-0.2,0.3-0.4l-0.4-11.8L401,156z"/>
	</g>
	<path class="st3" d="M458.8,256c-0.5,0-0.9-0.2-1.2-0.6l-2.9-3.7c-0.5-0.7-0.4-1.6,0.2-2.1l3.7-3.1c0.4-0.3,1-0.5,1.5-0.3
		c0.2,0.1,4.3,1.4,4.9,5.1c0.1,0.6-0.2,1.2-0.7,1.6l-4.6,3C459.4,255.9,459.1,256,458.8,256z M458,250.9l1.1,1.5l2.4-1.5
		c-0.4-0.7-1.2-1.1-1.7-1.4L458,250.9z"/>
	<g>
		<path class="st12" d="M374.5,167.8c-5.7-12.9-11.1-32.1-4.8-51.3l3.7-3.7c0,0,0,30.1,7.5,45C378.7,161.2,376.6,164.5,374.5,167.8z
			"/>
		<path class="st3" d="M374.5,169.3c0,0-0.1,0-0.1,0c-0.6,0-1.1-0.4-1.3-0.9c-5.8-13-11.4-32.7-4.9-52.4c0.1-0.2,0.2-0.4,0.4-0.6
			l3.7-3.7c0.4-0.4,1.1-0.6,1.7-0.3c0.6,0.2,1,0.8,1,1.4c0,0.3,0.1,29.9,7.3,44.3c0.2,0.5,0.2,1.1-0.1,1.5l-0.2,0.4
			c-2,3.2-4,6.4-6.1,9.6C375.5,169,375,169.3,374.5,169.3z M371,117.3c-5.6,17.4-1.3,34.8,3.7,47.1c1.4-2.2,2.8-4.5,4.3-6.7
			c-5.7-12.2-6.9-32.8-7.2-41.2L371,117.3z"/>
	</g>
	<g>
		<path class="st12" d="M374.2,107.1l1.4,2.1c0.4,0.6,0.5,1.3,0.3,1.9c-0.6,1.7-1.8,5-3.6,6.8c-2.5,2.5-4.9-3.4-5.4-5.4
			c-0.5-2,2.9-6.9,3.9-7.9C371.7,103.6,375.6,104.1,374.2,107.1z"/>
		<path class="st3" d="M371,120c-0.3,0-0.6-0.1-0.8-0.1c-3.3-0.9-4.9-7-4.9-7.1c-0.8-3.1,3.8-8.8,4.3-9.3c1.1-1.1,3.6-1.2,5.1-0.2
			c0.9,0.7,1.6,1.9,1.2,3.5l0.9,1.4c0.6,1,0.8,2.2,0.4,3.3c-0.6,1.9-2,5.4-4,7.4C372.5,119.8,371.6,120,371,120z M371.8,105.8
			c-1.1,1.2-3.7,5.2-3.5,6.3c0.5,2,1.9,4.6,2.7,4.8c0,0,0.1-0.1,0.1-0.1c1.1-1.1,2.3-3.4,3.2-6.2c0.1-0.2,0-0.4-0.1-0.6l-1.4-2.1
			c-0.3-0.5-0.3-1.1-0.1-1.6c0.2-0.4,0.2-0.5,0.2-0.5C372.8,105.7,372.1,105.7,371.8,105.8z"/>
	</g>
	<path class="st3" d="M389.7,315.8c-1,0-2.1-0.3-3.2-1.1c-0.5-0.4-0.7-0.9-0.6-1.5l1.3-7.1c0.2-0.8,0.9-1.4,1.8-1.2l4.7,0.7
		c0.4,0.1,0.8,0.3,1,0.7c0.2,0.4,0.3,0.8,0.2,1.2l-1.4,6.4c-0.1,0.4-0.3,0.7-0.6,1C392.4,315.2,391.1,315.8,389.7,315.8z
		 M389.3,312.6c0.6,0.1,1.2,0,1.6-0.2l0.9-4.1l-1.6-0.3L389.3,312.6z"/>
	<path class="st2" d="M393.1,217.3c0.2,1.2-0.3,61.7-6.8,89c-0.1,0.4,0.1,0.9,0.5,1.1c1,0.4,6.3,1.5,8.7,1.6c0.7,0,0.8-0.9,1.1-1.6
		c1.9-6.3,13.4-42.6,14.6-73c1.3-33.9-4.6-17.2-4.6-17.2L393.1,217.3z"/>
	<path class="st2" d="M421.3,218.4c5.5,13.8,7.3,15.9,9.7,31.7c2.9,18.9,15.6,5.3,23.2-0.8c1-0.8,6.3,2.6,6.5,6.5
		c0.4,5.1-31.3,29.2-39.6,12.1c-5.3-10.9-6.8-23.2-10.3-30c-0.4-0.8-1.2-1.5-2-1.9l-10.9-4.7l-3.1-10.7L421.3,218.4z"/>
	<g>
		<path class="st12" d="M427.3,169.4c5.7-12.9,11.1-32.1,4.8-51.3l-3.7-3.7c0,0,0,30.1-7.5,45C423,162.8,425.1,166.1,427.3,169.4z"
			/>
		<path class="st3" d="M427.3,171c-0.5,0-1-0.3-1.3-0.7c-2-3.2-4.1-6.4-6.1-9.6l-0.2-0.3c-0.3-0.5-0.3-1-0.1-1.5
			c7.2-14.4,7.3-44,7.3-44.3c0-0.6,0.4-1.2,1-1.4c0.6-0.2,1.2-0.1,1.7,0.3l3.6,3.6c0.2,0.2,0.3,0.4,0.4,0.6
			c6.5,19.7,0.9,39.4-4.9,52.4c-0.2,0.5-0.7,0.9-1.3,0.9C427.3,171,427.3,171,427.3,171z M422.7,159.4c1.4,2.2,2.8,4.5,4.3,6.7
			c5.1-12.4,9.3-29.8,3.7-47.1l-0.8-0.8C429.7,126.6,428.5,147.2,422.7,159.4z"/>
	</g>
	<path class="st1" d="M393.1,164.8h18c1.8,0,3.5-0.7,4.9-1.9c1.7-1.6,3.8-4.3,5.4-8.6c0.2-0.6,0.9-1,1.6-0.8c2.3,0.7,7.4,2.7,10,7.2
		c0.2,0.4-1.2,5.5-3.9,9.2l-7.3,9.5l1.1,42.8c0,0-28.2,4.4-32.1,0l-3.9-39.3c0,0-13.8-8.3-17.7-21.6l11.6-6.6c0,0,1.4,0.1,2.5,3.2
		C384.8,162.1,388.8,164.8,393.1,164.8z"/>
	<path class="st3" d="M404.5,227c-5.4,0-10.1-0.6-11.7-2.5l-0.3-0.4l-3.8-39c-2.9-1.9-14.2-9.9-17.7-22l-0.3-1.2l13.1-7.5l0.4,0
		c0.6,0,2.5,0.4,3.9,4.2c1.3,3.5,4.6,5.8,8.4,5.8h18c1.4,0,2.8-0.5,3.8-1.5c1.5-1.4,3.5-3.9,5-8c0.5-1.4,2-2.2,3.5-1.8
		c2.9,0.8,8.1,3,10.9,7.9c0.9,1.6-1.9,7.9-4,10.9l-7,9.1l1.1,43.7l-1.3,0.2C422.2,225.6,412.5,227,404.5,227z M395.5,222.7
		c2.9,1.9,16.7,1.2,29-0.6l-1.1-42l7.6-10c2.1-2.9,3.4-6.7,3.6-7.8c-2.4-3.7-6.7-5.5-8.7-6.1c-1.7,4.5-4,7.3-5.7,8.9
		c-1.6,1.5-3.7,2.4-5.9,2.4h-18c-5,0-9.6-3.1-11.3-7.8c-0.4-1.1-0.8-1.6-1-1.9l-9.8,5.6c4.1,11.8,16.5,19.4,16.6,19.5l0.7,0.4
		L395.5,222.7z M434.7,162L434.7,162L434.7,162z"/>
	<g>
		<g>
			<path class="st12" d="M399,139c-0.1,0.2-4.3,11.6-6.2,16.6c-0.5,1.3,0.2,2.7,1.5,3.1l4.1,0.7c2.7,0.5,5.4-0.9,6.4-3.5l4.9-5.7
				c2.7-3.1,1.7-7.9-1.9-9.7C404.3,138.7,400.4,137.3,399,139z"/>
			<path class="st3" d="M399.5,161.1c-0.4,0-0.9,0-1.4-0.1l-4.1-0.7c-0.1,0-0.1,0-0.2,0c-1-0.3-1.9-1.1-2.4-2
				c-0.5-1-0.5-2.1-0.2-3.1c6.1-16.7,6.2-16.8,6.4-17c0,0,0,0,0,0c2.2-2.8,7.2-0.7,10.8,1.1c2.1,1.1,3.6,3.1,4.1,5.5
				c0.5,2.4-0.2,4.8-1.8,6.7l-4.7,5.5C405,159.5,402.3,161.1,399.5,161.1z M394.8,157.2l3.9,0.7c2,0.4,3.9-0.7,4.7-2.5
				c0.1-0.1,0.1-0.3,0.2-0.4l4.9-5.7c1-1.1,1.4-2.6,1.1-4c-0.3-1.4-1.2-2.6-2.5-3.3c-4.5-2.3-6.4-2.3-6.8-2c-0.5,1.3-2.8,7.4-6,16.3
				c-0.1,0.3,0,0.5,0,0.6C394.4,156.9,394.5,157.1,394.8,157.2z"/>
		</g>
		<path class="st3" d="M407.1,151.6l-1.2-0.6c0,0,4.6-7.6-0.6-8.1c-5.2-0.6-9.9-1.7-9.9-4.6c0-2.9,0-8.1,6.4-5.8
			c6.4,2.3,5.8,6.4,9.3,7c3.5,0.6,6.4,1.2,5.2,4.6c-1.2,3.5-3.5,5.8-2.3,7C415.2,152.1,410,158,407.1,151.6z"/>
		<g>
			<path class="st12" d="M405.9,153.8c0,0,1-5.1,3.1-5.2c2.2-0.1,4.1,1.8,1.8,4.5C408,156.6,405.9,153.8,405.9,153.8z"/>
			<path class="st3" d="M407.9,156.4C407.9,156.4,407.9,156.4,407.9,156.4c-2,0-3.2-1.5-3.3-1.6c-0.3-0.4-0.4-0.8-0.3-1.2
				c0.3-1.5,1.4-6.3,4.6-6.5c1.8-0.1,3.4,0.7,4.1,2.1c0.4,0.7,1,2.6-1,4.9C410.7,155.6,409.4,156.4,407.9,156.4z M407.6,153.2
				c0.1,0,0.2,0.1,0.3,0.1c0,0,0,0,0,0c0.5,0,1.1-0.4,1.7-1.2c0.6-0.8,0.7-1.3,0.6-1.5c-0.1-0.2-0.6-0.5-1.2-0.4
				C408.7,150.3,408,151.7,407.6,153.2z"/>
		</g>
	</g>
	<g>
		<path class="st12" d="M427.6,108.7l-1.4,2.1c-0.4,0.6-0.5,1.3-0.3,1.9c0.6,1.7,1.8,5,3.6,6.8c2.5,2.5,4.9-3.4,5.4-5.4
			c0.5-2-2.9-6.9-3.9-7.9C430,105.3,426.1,105.8,427.6,108.7z"/>
		<path class="st3" d="M430.8,121.7c-0.7,0-1.5-0.2-2.3-1c-2-2-3.3-5.5-4-7.4c-0.4-1.1-0.2-2.3,0.4-3.3l0.9-1.4
			c-0.5-1.6,0.2-2.9,1.2-3.5c1.5-1.1,4-1,5.1,0.1c0.5,0.5,5.1,6.2,4.3,9.3c0,0.1-1.6,6.2-4.9,7.1
			C431.4,121.6,431.1,121.7,430.8,121.7z M428.8,107.6c0,0,0,0.2,0.2,0.5c0.2,0.5,0.2,1.1-0.1,1.6l-1.4,2.1
			c-0.1,0.2-0.1,0.4-0.1,0.6c0.9,2.8,2.1,5.1,3.2,6.2c0.1,0.1,0.2,0.1,0.2,0.1c0.6-0.2,2.1-2.8,2.6-4.8c0.2-1.1-2.3-5.1-3.5-6.3
			C429.7,107.3,429,107.4,428.8,107.6z"/>
	</g>
	<path class="st2" d="M457,247.1c0,0,3-1.2,5.5-4.3c1-1.2,2.7-1.5,3.7-0.6c3.6,3,11.2,9.6,13.8,12.2c0.4,0.4,0.2,1.1-0.3,1.4l0,0
		c-0.4,0.2-0.9,0.3-1.4,0.2l-14.3-2.9L457,247.1z"/>
	<path class="st2" d="M394.8,311.2c0,0-1.2,2.2-0.8,6.1c0.1,1.5-1.1,2.9-2.6,3c-5.3,0.2-16.5,0.6-20.6,0.5c-0.6,0-1-0.6-0.8-1.2l0,0
		c0.2-0.5,0.6-0.9,1-1.1l14.7-7.1L394.8,311.2z"/>
</g>
<path class="st2" d="M328.1,133.1c0,0,5.7-3.8,8.6-1.3c2.8,2.5,5.7,5.3,4.6,15.5c0,0-10.4,0.1-12.8,0
	C326,147.3,328.1,133.1,328.1,133.1z"/>
<path class="st1" d="M343,251.3c-0.1-2.2-0.5-4.4-0.8-6.6c-0.4-3.3-0.3-6.7-0.3-10c0.2-14.6,0.8-20.1,0.6-28
	c-0.2-8-1.1-28.5-8.4-39.1c-6,0.9-11.8,2.7-17.8,1.5c-2.8,8.4-3.8,17.2-5,25.9c-0.5,3.3-1.2,6.6-1.1,9.8c0.1,4-0.6,7.7-0.2,11.7
	c0.5,5.6,0.1,11.3-0.2,17c-0.4,6.3-0.6,12.6-0.1,18.9c0.5,5.3,1.3,13.2,4.8,17.4c2.2-2.6,6.2-2,9.4-1.6c0.6-6.7-0.3-13.5,0.7-20.2
	c0.3-2.1,0.8-4.1,1.1-6.2c0.4-2.9,0.4-5.8,0.4-8.7c0-9.9-0.1-19.9-0.2-29.8c0.5,3,0.9,6.1,1.1,9.2c0.1,2.8,0.1,5.7,0.1,8.5
	c-0.1,15,1.1,30.1,3.7,44.9c3.7,0.1,7.5-0.1,11.2-0.6c0.2-2.6,0.5-5.3,0.7-7.9C342.9,255.4,343.1,253.4,343,251.3z"/>
<path class="st3" d="M317.7,274.9l-1.2-1.4c-3.9-4.7-4.8-13.5-5.2-18.2c-0.6-6.6-0.3-13.4,0-19.1l0.1-1.2c0.3-5.1,0.6-10.4,0.1-15.6
	c-0.2-2.4-0.1-4.6,0-6.8c0.1-1.6,0.2-3.3,0.1-5c-0.1-2.7,0.3-5.3,0.8-7.8c0.1-0.8,0.3-1.5,0.4-2.3c0.2-1.3,0.4-2.6,0.6-3.9
	c1-7.4,2.1-15,4.5-22.2l0.4-1.3l1.3,0.3c4.2,0.9,8.3,0.1,12.7-0.7c1.5-0.3,3-0.6,4.5-0.8l1-0.1l0.5,0.8c6.6,9.6,8.4,27,8.7,39.9
	c0.1,4.3,0,8-0.2,12.6c-0.1,3.9-0.3,8.8-0.4,15.4l0,0.6c0,3-0.1,6.2,0.3,9.2c0.1,0.8,0.2,1.6,0.3,2.3c0.2,1.4,0.4,2.8,0.5,4.3l0,0
	c0.1,2.1-0.1,4.2-0.3,6.2l-0.9,9.2l-1.2,0.2c-3.8,0.5-7.7,0.7-11.5,0.6l-1.3,0l-0.2-1.2c-1.2-6.7-2.1-13.4-2.7-20.2
	c-0.1,0.8-0.3,1.6-0.4,2.3c-0.5,3.5-0.5,7.1-0.4,10.8c0,3.1,0.1,6.2-0.2,9.3l-0.2,1.6l-2-0.2c-2.8-0.4-6.1-0.8-7.6,1.1L317.7,274.9z
	 M320.6,173.6c-2,6.6-3,13.6-4,20.4c-0.2,1.3-0.4,2.6-0.6,3.9c-0.1,0.8-0.2,1.6-0.4,2.3c-0.4,2.5-0.8,4.9-0.7,7.2
	c0.1,1.8,0,3.6-0.1,5.3c-0.1,2.2-0.3,4.2,0,6.3c0.5,5.4,0.2,10.8-0.1,16.1l-0.1,1.2c-0.3,5.7-0.7,12.2-0.1,18.7c0.4,4,1,11,3.6,15.2
	c2.2-1.4,5.2-1.3,7.7-1c0.1-2.5,0.1-5,0.1-7.4c-0.1-3.7-0.1-7.5,0.5-11.3c0.2-1,0.3-2,0.5-3c0.2-1.1,0.4-2.1,0.6-3.2
	c0.4-2.8,0.4-5.7,0.4-8.5c0-8.8-0.1-18.2-0.2-29.8l3.1-0.3c0.6,3.5,1,6.5,1.1,9.4c0.1,2.3,0.1,4.7,0.1,7l0,1.6
	c-0.1,14.5,1.1,29,3.5,43.3c2.8,0,5.7-0.1,8.5-0.4l0.6-6.7c0.2-1.9,0.4-3.9,0.3-5.8l0,0c-0.1-1.3-0.3-2.6-0.5-4
	c-0.1-0.8-0.2-1.6-0.3-2.4c-0.4-3.2-0.3-6.4-0.3-9.6l0-0.6c0.1-6.7,0.3-11.6,0.4-15.5c0.2-4.6,0.3-8.2,0.2-12.4
	c-0.4-17.2-3-30.1-7.6-37.4c-1.2,0.2-2.3,0.4-3.4,0.6C329.1,173.4,324.9,174.2,320.6,173.6z"/>
<path class="st2" d="M320.5,287.3c0-0.1,0.1-0.1,0.1-0.2c-0.3-4.1,7.5-8.6,10.1-10.4l11.1,0.4c0,0,0.9,3.4,1,9.8c-1,0.4-3,0.9-6.8,1
	C330.1,288.1,323.2,287.6,320.5,287.3z"/>
<path class="st2" d="M300.3,287.8c0-0.1,0-0.1,0.1-0.2c1.8-2.6,4.6-7.2,13.5-10.1l10.3-1.4c0,0,2.9,2.8,1.9,10.8c-1,0.4-3,0.9-6.8,1
	C313.5,288.1,303,288,300.3,287.8z"/>
<g>
	<path class="st1" d="M256.9,184H247c-0.1,6.4,3.4,9.4,4.2,9.9c0.1,0.1,0.2,0.3,0.3,0.3h0.2c0.1,0,0.2-0.3,0.3-0.3
		C257,190.9,256.9,184,256.9,184z"/>
	<rect x="267.6" y="214" class="st3" width="4.6" height="88.9"/>
	<g>
		<path class="st3" d="M318.7,211.8v-2.9l-6,0c-8.3-2.1-24.4-3.5-42.9-3.5c-18.3,0-34.2,1.4-42.5,3.4l-6.1,0v3.4h-0.3
			c0.7,3.4,22.3,6.5,48.9,6.5c27,0,49-3,49-6.7C318.7,212,318.7,211.9,318.7,211.8z"/>
		<ellipse class="st1" cx="269.7" cy="208.9" rx="48.9" ry="5.8"/>
	</g>
	<path class="st3" d="M287.2,305.4c-16.5-11.6-30.8-3.1-35.1,0c-0.2,0.1-0.3,0.4-0.2,0.6c0.1,0.2,0.3,0.3,0.5,0.3h34.4
		c0.2,0,0.5-0.1,0.5-0.4C287.5,305.7,287.4,305.5,287.2,305.4z"/>
	<path class="st2" d="M273.4,168.5v-14.8H268v14.8c-0.6,0.5-3.2,2.6-3.2,3.6c0,1.1,0,28.2,0,34c0,0.7,0.5,1.3,1.2,1.6
		c1.1,0.5,3,1.1,4.7,1.1c1.7,0,3.4-0.6,4.5-1.1c0.6-0.3,1-0.9,1-1.6v-34.3C276.2,171.9,276.1,170.3,273.4,168.5z"/>
	<path class="st3" d="M273.7,179.6h-6.1c-0.3,0-0.6,0.3-0.6,0.6v16.2c0,0.3,0.3,0.6,0.6,0.6h6.1c0.3,0,0.6-0.3,0.6-0.6v-16.2
		C274.3,179.9,274.1,179.6,273.7,179.6z"/>
	<rect x="268" y="156.9" class="st3" width="5.5" height="7.3"/>
	<path class="st3" d="M257.1,210.4h-10.8v-1.9c0-1.5,1.3-2.9,3-3.2l0.1-9.7c-1.9-1.4-4-4.1-4.7-7.7c-1.1-6,0-11.2,0-11.4l0.3-1.2h14
		l0.3,1.2c0,0.2,1.2,5.5,0,11.4l0,0c-0.7,3.9-3,6.5-5.2,7.9v9.4c1.8,0.1,3,1.4,3,3.3V210.4z M247.5,178.3c-0.2,1.8-0.5,5.3,0.2,9
		c0.8,4,3.5,5.8,4,6.1l0.1,0.1l0,0c0.6-0.3,3.5-1.9,4.3-6.2l0,0c0.7-3.7,0.4-7.2,0.2-9H247.5z"/>
</g>
<g>
	<path class="st2" d="M492.4,306.8c0,0,3.6-7.5-10.4-6.3c0,0,0.1-5.2-3.6-3.2c0,0,0.9-12.3-9.1-1.3c0,0-0.2-14.8-6.8-13.3
		c-6.6,1.5-5.8,13.9-5.8,13.9s-2.7-5.6-4.3-4.2s0,6.7,0,6.7s-0.9-1.6-2.2-2.7c-1.4-1.2-5.8-0.5-1.8,6.4l3.8,6.3
		c0,0,11.9-0.1,12.4-0.2C465.3,308.9,492.4,306.8,492.4,306.8z"/>
</g>
</svg>
