<svg xmlns="http://www.w3.org/2000/svg" viewBox="0 0 640 111.76"><defs><style>.cls-3{fill:#33b6df}.cls-4{fill:#fed43d}</style></defs><g id="Слой_2" data-name="Слой 2"><g id="Слой_1-2" data-name="Слой 1"><path d="M592.69 21.29a6 6 0 1 1 11.95 0v36.22a11.84 11.84 0 0 1-3.36 8.65 11.52 11.52 0 0 1-8.59 3.42 12.29 12.29 0 0 1-6.47-1.87l-57-34.85q-2.36-1.37-3.92-2.18a5.91 5.91 0 0 0-2.55-.81q-1.87 0-2.36 2.36a35.49 35.49 0 0 0-.5 6.85V63.6a6 6 0 1 1-11.95 0V27.39a11.84 11.84 0 0 1 3.36-8.65 11.52 11.52 0 0 1 8.59-3.42 12.3 12.3 0 0 1 6.47 1.87l57 34.85q2.37 1.37 3.92 2.18a5.91 5.91 0 0 0 2.55.81q1.87 0 2.36-2.36a35.48 35.48 0 0 0 .5-6.85V21.29zM481.7 42.45a30.68 30.68 0 0 1-1.55 9.55 29.06 29.06 0 0 1-4.54 8.71 24.81 24.81 0 0 1-7.22 6.41 18.54 18.54 0 0 1-9.58 2.49H402a16.78 16.78 0 0 1-9-2.52 23.73 23.73 0 0 1-6.78-6.41 30.3 30.3 0 0 1-4.29-8.77 32.07 32.07 0 0 1-1.49-9.46 30.94 30.94 0 0 1 1.51-9.45 28.92 28.92 0 0 1 4.54-8.77 24.8 24.8 0 0 1 7.22-6.41 18.54 18.54 0 0 1 9.58-2.49H460a16.87 16.87 0 0 1 9 2.49 23.43 23.43 0 0 1 6.85 6.41 30.32 30.32 0 0 1 4.36 8.77 32.08 32.08 0 0 1 1.49 9.46zm-25.51 15.18a14 14 0 0 0 7-1.56 12.82 12.82 0 0 0 4.29-3.8 13.33 13.33 0 0 0 2.12-4.92 24.18 24.18 0 0 0 .56-4.92 24.17 24.17 0 0 0-.56-4.92 13.33 13.33 0 0 0-2.12-4.92 12.82 12.82 0 0 0-4.29-3.8 14 14 0 0 0-7-1.56h-50.28a13.9 13.9 0 0 0-7 1.56 13 13 0 0 0-4.23 3.8 13.31 13.31 0 0 0-2.12 4.92 24.13 24.13 0 0 0-.56 4.92 24.14 24.14 0 0 0 .56 4.92 13.31 13.31 0 0 0 2.12 4.92 13 13 0 0 0 4.23 3.8 13.91 13.91 0 0 0 7 1.56zM252.73 42.45a30.92 30.92 0 0 1 1.55-9.45 28.9 28.9 0 0 1 4.54-8.77A24.81 24.81 0 0 1 266 17.8a18.55 18.55 0 0 1 9.58-2.49h72.56a5.95 5.95 0 0 1 6 6 5.95 5.95 0 0 1-6 6h-69.9a13.9 13.9 0 0 0-7 1.56 13 13 0 0 0-4.23 3.8 13.31 13.31 0 0 0-2.12 4.92 24.11 24.11 0 0 0-.56 4.92 24.12 24.12 0 0 0 .56 4.92 13.31 13.31 0 0 0 2.11 4.85 13 13 0 0 0 4.23 3.8 13.91 13.91 0 0 0 7 1.56h69.94a6 6 0 1 1 0 11.95h-73.8a16.78 16.78 0 0 1-9.09-2.49 23.74 23.74 0 0 1-6.78-6.41 30.47 30.47 0 0 1-4.28-8.69 31.86 31.86 0 0 1-1.49-9.52zm-70.3 21.15a6 6 0 1 1-11.95 0V48.42a34.27 34.27 0 0 1-9.21-1.24 45.08 45.08 0 0 1-9.4-3.92 89.11 89.11 0 0 1-10.58-6.91q-5.65-4.23-12.5-10.35a7.73 7.73 0 0 1-1.68-2.12 5.35 5.35 0 0 1-.68-2.61 5.95 5.95 0 0 1 6-6 4.94 4.94 0 0 1 2.24.5 13.12 13.12 0 0 1 2 1.24q8 7 13.38 10.89a53.37 53.37 0 0 0 9.71 5.79 28.55 28.55 0 0 0 8.15 2.3 78.34 78.34 0 0 0 8.71.44q4.85 0 8.59-.37a26.34 26.34 0 0 0 8-2.24 54.57 54.57 0 0 0 9.64-5.79q5.41-3.92 13.5-11a6.67 6.67 0 0 1 4.23-1.74 5.95 5.95 0 0 1 6 6 5.34 5.34 0 0 1-.68 2.61 7.73 7.73 0 0 1-1.78 2.1q-6.84 6-12.57 10.21a93.24 93.24 0 0 1-10.77 7 45.9 45.9 0 0 1-9.52 4 32.93 32.93 0 0 1-8.84 1.24V63.6zM83.39 15.31a16.4 16.4 0 0 1 6.53 1.31 17.45 17.45 0 0 1 5.35 3.55 16.37 16.37 0 0 1 3.61 5.23 16.67 16.67 0 0 1 0 12.94 16.38 16.38 0 0 1-3.61 5.23 17.47 17.47 0 0 1-5.35 3.55 16.42 16.42 0 0 1-6.53 1.31H14.81V63.6A5.66 5.66 0 0 1 13 67.84a5.82 5.82 0 0 1-4.17 1.74 5.76 5.76 0 0 1-4.23-1.74 5.76 5.76 0 0 1-1.73-4.24V21.29a5.76 5.76 0 0 1 1.74-4.23 5.76 5.76 0 0 1 4.23-1.74zM14.81 27.26v9.21h69.08a4.75 4.75 0 0 0 3.3-1.31 4.27 4.27 0 0 0 1.43-3.3 4.33 4.33 0 0 0-1.43-3.24 4.63 4.63 0 0 0-3.3-1.37z"/><path d="M17.91 100.65a24.49 24.49 0 0 0 .2-8.82c-.6-2.72-1.94-3.93-2.44-7.08a35.39 35.39 0 0 1-.54-6.61c.1-3.27 0-7.67 0-8.13v-.81H15a5.64 5.64 0 0 1-1.76 2.8 6.38 6.38 0 0 1-4.43 1.74A6.31 6.31 0 0 1 4.32 72a5.6 5.6 0 0 1-1.77-3.3h-.09v.82c.44.39.11 5.31.07 9.63 0 3.7.3 6.83-.25 7.91a16.91 16.91 0 0 1-.93 2.52C.92 90.92-.07 93.53 0 95.1l.05 1.1c.1 2 1.72 6.68 2.45 8.28a22.3 22.3 0 0 0 1.73 3.58c1.24 1.69 2.2 3.78 4.68 3.68l2.76-.12c3.35-.14 5.78-8.73 6.24-11zM3 103c-.63.05-1.25-1-1.38-2.33s.28-2.48.91-2.53 1.25 1 1.38 2.33S3.67 102.9 3 103zm13.11-.4c.63.06 1.26-1 1.41-2.32s-.25-2.48-.88-2.54-1.26 1-1.41 2.32.25 2.48.88 2.54z" fill-rule="evenodd" fill="#33b6df"/><path class="cls-3" d="M87 .5c11.87 0 21.34 10.08 29 17.91 15.46 15.78 29.34 32.05 50.51 34.46V64c-21.88-3-33.83-15.86-49.45-30.15-5.36-4.96-17.36-19.37-25.3-22.66A17.47 17.47 0 0 0 85 9.89H7.91a6.07 6.07 0 0 0-4.38 1.74 6.37 6.37 0 0 0-.67.75V6.47a5.77 5.77 0 0 1 1.75-4.23A5.77 5.77 0 0 1 8.84.5z"/><path class="cls-4" d="M402.12 31c2.74.25 7.36.37 10.2.4l38.28.32c11.64.09 14.56 3.07 15.07 11.11l-54.91-.47a85.66 85.66 0 0 1-15.31-1.45c0-2.27 2.25-7.42 6.37-9.74l.3-.17z"/><path class="cls-3" d="M352.71 2.8c9.77 2.14 17.92 10.48 24.41 17.41a27.57 27.57 0 0 0 5 4.17 40 40 0 0 0-4.89 9.15q-.59-.47-1.13-1c-3-2.76-6-5.5-11.35-10.6-4.13-4-8.38-7.54-11.86-9a17.48 17.48 0 0 0-6.76-1.31h-78a17.46 17.46 0 0 0-6.75 1.38c-7.94 3.29-19.94 17.69-25.32 22.61C220.44 49.88 208.49 61 186.61 64V52.88c21.17-2.42 35.05-16.88 50.51-32.68 6.65-6.79 14.65-15.26 24.41-17.41a11 11 0 0 1 4.64-.51h84.06a5.92 5.92 0 0 1 2.47.51z"/><path class="cls-4" d="M517.07 0c-11.91 0-22.14 13.68-29.81 21.51q-2.29 2.34-4.55 4.63a31.84 31.84 0 0 1 1.62 4.2 33.43 33.43 0 0 1 1.39 7l.48-.44c5.37-4.9 18.27-22.9 26.2-26.16a17.46 17.46 0 0 1 6.76-1.31h3.13c4.28 0 7.07 1.51 10.13 3.43q1.56 1 3.14 1.94 1.41.85 2.82 1.67c14.67 8.51 28 17.94 43 25.87l7 3.7c.1.05.09.07.19.12V35.35a4.07 4.07 0 0 1-.66-.29L538.75 6.6c-3.28-1.75-6.72-4-10.35-5.4S521 0 517.07 0z"/><path d="M628.89 35.06c-4.31-.89-8.2-.85-12.15 1.48a11 11 0 0 1-4.12 1.28l-4.16.2.07 12.24c.64-.06 2.31.13 3.07.13a12.86 12.86 0 0 1 3.7.26 16.85 16.85 0 0 1 2.52.93c1.34.46 4 1.45 5.53 1.37l1.1-.05c2-.1 6.69-1.72 8.28-2.45a22.24 22.24 0 0 0 3.58-1.73c1.69-1.24 3.79-2.2 3.68-4.68l-.12-2.76c-.14-3.35-8.73-5.78-11-6.24zm2.31 14.88c.05.63-1 1.25-2.33 1.38s-2.48-.28-2.53-.91 1-1.25 2.33-1.38 2.48.28 2.53.91zm-.4-13.11c.06-.63-1-1.26-2.32-1.41s-2.48.25-2.54.88 1 1.26 2.32 1.41 2.48-.25 2.54-.88z" fill="#fed43d" fill-rule="evenodd"/><path d="M53.59 81.72a11.77 11.77 0 0 1 9.87 4.61 16.23 16.23 0 0 1 3 10.07 16.06 16.06 0 0 1-3 10 11.73 11.73 0 0 1-9.87 4.65 11.78 11.78 0 0 1-9.91-4.66 16.36 16.36 0 0 1-3-10 16.52 16.52 0 0 1 3-10.06 11.82 11.82 0 0 1 9.91-4.62zm0 4.57a7 7 0 0 0-6.14 2.88 12.27 12.27 0 0 0-1.93 7.23 12.35 12.35 0 0 0 1.94 7.24 7 7 0 0 0 6.14 2.88 7.07 7.07 0 0 0 6.14-2.88 12.26 12.26 0 0 0 2-7.24 12.18 12.18 0 0 0-2-7.23 7.08 7.08 0 0 0-6.14-2.89zm104.77-4h5a12.38 12.38 0 0 1 9.93 4.28 14.56 14.56 0 0 1 3.34 9.81 14.57 14.57 0 0 1-3.34 9.81 12.38 12.38 0 0 1-9.93 4.29h-5a4.46 4.46 0 0 1-3.51-1.51 4.73 4.73 0 0 1-1.12-3.16V87a4.78 4.78 0 0 1 1.12-3.19 4.46 4.46 0 0 1 3.51-1.5zm.38 23.59h4.58a7.61 7.61 0 0 0 6.26-2.75 11.7 11.7 0 0 0 0-13.53 7.65 7.65 0 0 0-6.26-2.71h-4.73a.46.46 0 0 0 0 .23v18.58a.31.31 0 0 0 0 .18.52.52 0 0 0 .17 0zm109.91-12.23h11.26a2.53 2.53 0 0 1 1.71.61 2.27 2.27 0 0 1 .67 1.63 2.23 2.23 0 0 1-.67 1.6 2.45 2.45 0 0 1-1.77.7h-11.2v7.45a.31.31 0 0 0 0 .18.52.52 0 0 0 .17 0h12.73a2.53 2.53 0 0 1 1.71.61 2.27 2.27 0 0 1 .67 1.63 2.23 2.23 0 0 1-.67 1.6 2.45 2.45 0 0 1-1.77.7h-13.03A4.46 4.46 0 0 1 265 109a4.73 4.73 0 0 1-1.12-3.16V87a4.78 4.78 0 0 1 1.12-3.19 4.46 4.46 0 0 1 3.5-1.5h12.66a2.49 2.49 0 0 1 1.68.61 2.27 2.27 0 0 1 .67 1.63 2.23 2.23 0 0 1-.67 1.6 2.41 2.41 0 0 1-1.74.7h-12.41a.46.46 0 0 0 0 .23v6.51zm120.22-2.56a2.33 2.33 0 0 1-1.63 1h-.12a2.54 2.54 0 0 1-1.69-.5 2.45 2.45 0 0 1-1-1.7 4.28 4.28 0 0 0-1.39-2.75 5.85 5.85 0 0 0-3.4-.84 7.36 7.36 0 0 0-3.86.87 2.37 2.37 0 0 0-1.16 2.17 2.85 2.85 0 0 0 .92 2.32c1.06.91 3.31 1.45 4.64 1.72 2.54.51 5.69 1.41 7.64 3.2a8 8 0 0 1 2.41 6.12A7.39 7.39 0 0 1 387 109a11.66 11.66 0 0 1-7.06 2.1 11.82 11.82 0 0 1-7.37-2.08 9.22 9.22 0 0 1-3.36-6.85 2.35 2.35 0 0 1 .66-2 2.42 2.42 0 0 1 1.53-.7 2.35 2.35 0 0 1 1.77.59 2.74 2.74 0 0 1 .84 1.73v.06a4.72 4.72 0 0 0 1.63 3.59 7.19 7.19 0 0 0 4.22 1 7.48 7.48 0 0 0 3.82-1 2.86 2.86 0 0 0 1.72-2.44 4 4 0 0 0-.85-2.83c-1.1-1.08-3.84-1.79-5.31-2.12a19 19 0 0 1-6.68-2.66 7.11 7.11 0 0 1-2.78-5.91 6.89 6.89 0 0 1 2.84-5.8 12.25 12.25 0 0 1 7.16-1.92 9.92 9.92 0 0 1 7.1 2.46 8.56 8.56 0 0 1 2.4 4.87 2.7 2.7 0 0 1-.42 2zm107 0a2.32 2.32 0 0 1-1.63 1h-.12a2.55 2.55 0 0 1-1.69-.5 2.45 2.45 0 0 1-1-1.7 4.29 4.29 0 0 0-1.43-2.73 5.85 5.85 0 0 0-3.4-.84 7.35 7.35 0 0 0-3.86.87 2.37 2.37 0 0 0-1.16 2.17 2.85 2.85 0 0 0 .92 2.32c1.06.91 3.31 1.45 4.64 1.72 2.54.51 5.69 1.41 7.64 3.2a7.94 7.94 0 0 1 2.41 6.12A7.39 7.39 0 0 1 494 109a11.65 11.65 0 0 1-7.06 2.1 11.82 11.82 0 0 1-7.37-2.08 9.22 9.22 0 0 1-3.36-6.85 2.35 2.35 0 0 1 .66-2 2.42 2.42 0 0 1 1.53-.7 2.35 2.35 0 0 1 1.77.59 2.75 2.75 0 0 1 .84 1.73v.06a4.72 4.72 0 0 0 1.63 3.59 7.19 7.19 0 0 0 4.22 1 7.48 7.48 0 0 0 3.82-1 2.86 2.86 0 0 0 1.72-2.56 4 4 0 0 0-.85-2.83c-1.1-1.08-3.84-1.79-5.3-2.12a19 19 0 0 1-6.68-2.66 7.11 7.11 0 0 1-2.78-5.91 6.89 6.89 0 0 1 2.84-5.8 12.25 12.25 0 0 1 7.16-1.92 9.92 9.92 0 0 1 7.1 2.46 8.56 8.56 0 0 1 2.4 4.87 2.7 2.7 0 0 1-.42 2zm102.7 11.05h-9.27l-2.64 7.23a2.73 2.73 0 0 1-1.26 1.45 2.27 2.27 0 0 1-1.87.16 2.38 2.38 0 0 1-1.4-3.27l8.56-23.48a3.85 3.85 0 0 1 1.29-1.85 3.3 3.3 0 0 1 2-.64 3.21 3.21 0 0 1 1.91.65 3.88 3.88 0 0 1 1.29 1.83l8.61 23.54a2.65 2.65 0 0 1-.09 1.94 2.3 2.3 0 0 1-1.37 1.22 2.45 2.45 0 0 1-1.79-.08h-.13a2.82 2.82 0 0 1-1.2-1.41l-2.61-7.23zm-7.61-4.57h5.91l-2.94-8.11-3 8.11z" fill-rule="evenodd"/></g></g></svg>