<svg xmlns="http://www.w3.org/2000/svg" viewBox="0 0 340 346">
    <defs>
        <style>.cls-1{fill:#fed43d; opacity: 0.05}</style>
    </defs>
    <title>Ресурс 1</title>
    <g id="Слой_2" data-name="Слой 2">
        <g id="Слой_1-2" data-name="Слой 1">
            <rect class="cls-1" x="6.17" y="0.69" width="1.38" height="58"/>
            <path class="cls-1"
                  d="M6.87,58.35a3.78,3.78,0,1,0,3.79,3.78A3.79,3.79,0,0,0,6.87,58.35Zm0,1.37a2.41,2.41,0,1,1-2.42,2.41A2.42,2.42,0,0,1,6.87,59.72Z"/>
            <path class="cls-1"
                  d="M3.76,149a3.78,3.78,0,1,0,3.79,3.79A3.78,3.78,0,0,0,3.76,149Zm0,1.37a2.41,2.41,0,1,1-2.39,2.41A2.42,2.42,0,0,1,3.76,150.42Z"/>
            <path class="cls-1"
                  d="M19.2,88.24A3.78,3.78,0,1,0,23,92,3.78,3.78,0,0,0,19.2,88.24Zm0,1.37A2.42,2.42,0,0,1,21.61,92a2.41,2.41,0,0,1-4.83,0A2.41,2.41,0,0,1,19.2,89.62Z"/>
            <path class="cls-1"
                  d="M3.76,117.53a3.78,3.78,0,1,0,3.79,3.78A3.77,3.77,0,0,0,3.76,117.53Zm0,1.37a2.41,2.41,0,1,1-2.39,2.41A2.41,2.41,0,0,1,3.76,118.9Z"/>
            <path class="cls-1"
                  d="M3.76,129.8a3.78,3.78,0,1,0,3.79,3.78A3.78,3.78,0,0,0,3.76,129.8Zm0,1.38a2.41,2.41,0,1,1-2.39,2.41A2.41,2.41,0,0,1,3.76,131.18Z"/>
            <path class="cls-1"
                  d="M34.63,129.8a3.78,3.78,0,1,0,3.78,3.78A3.79,3.79,0,0,0,34.63,129.8Zm0,1.38a2.41,2.41,0,1,1-2.42,2.41A2.41,2.41,0,0,1,34.63,131.18Z"/>
            <path class="cls-1"
                  d="M84,48.25A3.77,3.77,0,1,0,87.72,52,3.79,3.79,0,0,0,84,48.25Zm0,1.37a2.4,2.4,0,0,1,0,4.8A2.37,2.37,0,0,1,81.55,52,2.41,2.41,0,0,1,84,49.62Z"/>
            <path class="cls-1"
                  d="M80.86,28.69a3.78,3.78,0,1,0,3.79,3.77A3.78,3.78,0,0,0,80.86,28.69Zm0,1.37a2.4,2.4,0,1,1,0,4.8,2.38,2.38,0,0,1-2.41-2.41A2.41,2.41,0,0,1,80.86,30.06Z"/>
            <path class="cls-1"
                  d="M80.86,64.54a3.77,3.77,0,1,0,3.79,3.77A3.78,3.78,0,0,0,80.86,64.54Zm0,1.37a2.4,2.4,0,1,1,0,4.79,2.4,2.4,0,1,1,0-4.79Z"/>
            <path class="cls-1"
                  d="M68.53,64a3.77,3.77,0,1,0,3.76,3.77A3.78,3.78,0,0,0,68.53,64Zm0,1.37a2.4,2.4,0,1,1-2.42,2.4A2.4,2.4,0,0,1,68.53,65.4Z"/>
            <path class="cls-1"
                  d="M68.53,120.62a3.77,3.77,0,1,0,3.76,3.78A3.79,3.79,0,0,0,68.53,120.62Zm0,1.37a2.4,2.4,0,1,1-2.42,2.41A2.4,2.4,0,0,1,68.53,122Z"/>
            <path class="cls-1"
                  d="M84,105.46a3.78,3.78,0,1,0,3.76,3.78A3.79,3.79,0,0,0,84,105.46Zm0,1.37a2.41,2.41,0,1,1-2.42,2.41A2.4,2.4,0,0,1,84,106.83Z"/>
            <path class="cls-1"
                  d="M53.1,105.46a3.78,3.78,0,1,0,3.79,3.78A3.79,3.79,0,0,0,53.1,105.46Zm0,1.37a2.41,2.41,0,1,1-2.42,2.41A2.41,2.41,0,0,1,53.1,106.83Z"/>
            <path class="cls-1"
                  d="M56.18,205.83A3.78,3.78,0,1,0,60,209.61,3.78,3.78,0,0,0,56.18,205.83Zm0,1.38a2.41,2.41,0,1,1,0,4.81,2.41,2.41,0,0,1,0-4.81Z"/>
            <path class="cls-1"
                  d="M56.2,95.2A3.77,3.77,0,1,0,60,99,3.79,3.79,0,0,0,56.2,95.2Zm0,1.37A2.4,2.4,0,1,1,53.79,99,2.41,2.41,0,0,1,56.2,96.58Z"/>
            <path class="cls-1"
                  d="M43.85,179.2A3.78,3.78,0,1,0,47.64,183,3.78,3.78,0,0,0,43.85,179.2Zm0,1.38a2.41,2.41,0,1,1,0,4.81,2.41,2.41,0,0,1,0-4.81Z"/>
            <path class="cls-1"
                  d="M43.85,199.59a3.78,3.78,0,1,0,3.79,3.78A3.78,3.78,0,0,0,43.85,199.59Zm0,1.38a2.41,2.41,0,1,1,0,4.81,2.41,2.41,0,0,1,0-4.81Z"/>
            <path class="cls-1"
                  d="M68.53,284.75a3.78,3.78,0,1,0,3.76,3.79A3.8,3.8,0,0,0,68.53,284.75Zm0,1.38a2.41,2.41,0,0,1,0,4.81,2.41,2.41,0,1,1,0-4.81Z"/>
            <path class="cls-1"
                  d="M80.86,182.3a3.78,3.78,0,1,0,3.79,3.78A3.79,3.79,0,0,0,80.86,182.3Zm0,1.38a2.41,2.41,0,1,1-2.41,2.41A2.42,2.42,0,0,1,80.86,183.68Z"/>
            <path class="cls-1"
                  d="M56.2,259.18A3.78,3.78,0,1,0,60,262.95,3.78,3.78,0,0,0,56.2,259.18Zm0,1.36a2.41,2.41,0,0,1,0,4.82,2.41,2.41,0,1,1,0-4.82Z"/>
            <path class="cls-1"
                  d="M56.2,307A3.78,3.78,0,1,0,60,310.79,3.8,3.8,0,0,0,56.2,307Zm0,1.38a2.41,2.41,0,0,1,0,4.83,2.41,2.41,0,1,1,0-4.83Z"/>
            <path class="cls-1"
                  d="M19.2,169.22A3.78,3.78,0,1,0,23,173,3.79,3.79,0,0,0,19.2,169.22Zm0,1.37A2.41,2.41,0,1,1,16.78,173,2.42,2.42,0,0,1,19.2,170.59Z"/>
            <path class="cls-1"
                  d="M34.63,216.6a3.78,3.78,0,1,0,3.78,3.78A3.79,3.79,0,0,0,34.63,216.6Zm0,1.38a2.41,2.41,0,1,1-2.42,2.41A2.41,2.41,0,0,1,34.63,218Z"/>
            <path class="cls-1"
                  d="M19.2,227.29A3.78,3.78,0,1,0,23,231.08,3.77,3.77,0,0,0,19.2,227.29Zm0,1.38a2.41,2.41,0,1,1-2.39,2.41A2.41,2.41,0,0,1,19.2,228.67Z"/>
            <path class="cls-1"
                  d="M31.52,274.89a3.78,3.78,0,1,0,3.79,3.78A3.77,3.77,0,0,0,31.52,274.89Zm0,1.38a2.41,2.41,0,1,1-2.38,2.41A2.39,2.39,0,0,1,31.52,276.27Z"/>
            <path class="cls-1"
                  d="M19.2,294.49A3.78,3.78,0,1,0,23,298.28,3.78,3.78,0,0,0,19.2,294.49Zm0,1.38a2.41,2.41,0,1,1-2.39,2.41A2.41,2.41,0,0,1,19.2,295.87Z"/>
            <path class="cls-1"
                  d="M43.85,338.43a3.78,3.78,0,1,0,3.79,3.79A3.78,3.78,0,0,0,43.85,338.43Zm0,1.38a2.42,2.42,0,0,1,2.42,2.41,2.4,2.4,0,1,1-2.42-2.41Z"/>
            <path class="cls-1"
                  d="M6.87,222.78a3.78,3.78,0,1,0,3.79,3.78A3.79,3.79,0,0,0,6.87,222.78Zm0,1.38a2.41,2.41,0,1,1-2.42,2.41A2.42,2.42,0,0,1,6.87,224.16Z"/>
            <path class="cls-1"
                  d="M6.87,324.81a3.78,3.78,0,1,0,3.79,3.78A3.79,3.79,0,0,0,6.87,324.81Zm0,1.38a2.41,2.41,0,1,1-2.42,2.41A2.42,2.42,0,0,1,6.87,326.19Z"/>
            <path class="cls-1"
                  d="M19.2,209.94A3.78,3.78,0,1,0,23,213.72,3.78,3.78,0,0,0,19.2,209.94Zm0,1.38a2.41,2.41,0,1,1-2.39,2.41A2.41,2.41,0,0,1,19.2,211.32Z"/>
            <path class="cls-1"
                  d="M31.52,167.84a3.78,3.78,0,1,0,3.79,3.79A3.78,3.78,0,0,0,31.52,167.84Zm0,1.37a2.41,2.41,0,1,1,0,4.82,2.41,2.41,0,0,1,0-4.82Z"/>
            <path class="cls-1"
                  d="M31.52,42.65a3.77,3.77,0,1,0,3.79,3.78A3.77,3.77,0,0,0,31.52,42.65Zm0,1.37a2.4,2.4,0,1,1-2.38,2.41A2.39,2.39,0,0,1,31.52,44Z"/>
            <rect class="cls-1" x="18.5" y="0.69" width="1.37" height="88.74"/>
            <rect class="cls-1" x="30.83" y="0.69" width="1.37" height="42.64"/>
            <polygon class="cls-1"
                     points="44.54 0.69 44.54 72.57 32.21 72.57 32.21 121.99 6.87 121.99 6.87 120.62 30.83 120.62 30.83 71.2 43.16 71.2 43.16 0.69 44.54 0.69"/>
            <polygon class="cls-1"
                     points="56.9 0.69 56.9 93.13 44.54 93.13 44.54 143.53 32.21 143.53 32.21 165.93 18.5 165.93 18.5 153.52 6.87 153.52 6.87 152.15 19.88 152.15 19.88 164.56 30.83 164.56 30.83 142.16 43.16 142.16 43.16 91.76 55.51 91.76 55.51 0.69 56.9 0.69"/>
            <polygon class="cls-1"
                     points="80.86 51.35 80.86 52.72 67.84 52.72 67.84 0.69 69.22 0.69 69.22 51.35 80.86 51.35"/>
            <rect class="cls-1" x="67.84" y="70.47" width="1.37" height="50.83"/>
            <polygon class="cls-1"
                     points="56.9 101.79 56.9 156.62 44.54 156.62 44.54 179.89 43.16 179.89 43.16 155.24 55.51 155.24 55.51 101.79 56.9 101.79"/>
            <polygon class="cls-1"
                     points="31.52 219.7 31.52 221.07 6.17 221.07 6.17 197.73 18.5 197.73 18.5 176.01 19.88 176.01 19.88 199.1 7.56 199.1 7.56 219.7 31.52 219.7"/>
            <polygon class="cls-1"
                     points="32.21 174.72 32.21 205 19.88 205 19.88 210.63 18.5 210.63 18.5 203.63 30.83 203.63 30.83 174.72 32.21 174.72"/>
            <polygon class="cls-1"
                     points="69.22 229.9 69.22 285.44 67.84 285.44 67.84 231.28 56.9 231.28 56.9 246.92 43.16 246.92 43.16 206.47 44.54 206.47 44.54 245.55 55.51 245.55 55.51 229.9 69.22 229.9"/>
            <polygon class="cls-1"
                     points="56.9 266.06 56.9 281.96 44.54 281.96 44.54 292.65 56.87 292.65 56.87 307.7 55.49 307.7 55.49 294.02 43.16 294.02 43.16 280.58 55.51 280.58 55.51 266.06 56.9 266.06"/>
            <polygon class="cls-1"
                     points="19.88 262.27 19.88 289.22 7.56 289.22 7.56 325.5 6.17 325.5 6.17 287.84 18.5 287.84 18.5 263.63 6.17 263.63 6.17 229.86 7.56 229.86 7.56 262.27 19.88 262.27"/>
            <polygon class="cls-1"
                     points="32.21 254.45 32.21 275.81 30.83 275.81 30.83 255.82 18.5 255.82 18.5 234.17 19.88 234.17 19.88 254.45 32.21 254.45"/>
            <polygon class="cls-1"
                     points="44.54 310.59 44.54 338.31 43.16 338.31 43.16 311.97 32.21 311.97 32.21 321.87 18.5 321.87 18.5 301.37 19.88 301.37 19.88 320.51 30.83 320.51 30.83 310.59 44.54 310.59"/>
            <rect class="cls-1" x="80.17" y="0.69" width="1.37" height="28.69"/>
            <polygon class="cls-1"
                     points="93.88 100.81 93.88 127.74 81.55 127.74 81.55 153.01 69.22 153.01 69.22 181.45 56.87 181.45 56.87 206.47 55.49 206.47 55.49 180.07 67.84 180.07 67.84 151.64 80.17 151.64 80.17 126.36 92.5 126.36 92.5 102.18 80.17 102.18 80.17 71.34 81.55 71.34 81.55 100.81 93.88 100.81"/>
            <rect class="cls-1" x="6.87" y="132.9" width="24.65" height="1.37"/>
            <rect class="cls-1" x="56.18" y="108.56" width="24.68" height="1.37"/>
            <polygon class="cls-1"
                     points="93.88 219.52 93.88 259.28 81.55 259.28 81.55 297.72 69.22 297.72 69.22 345.85 67.84 345.85 67.84 296.36 80.17 296.36 80.17 257.89 92.5 257.89 92.5 220.9 80.17 220.9 80.17 189.29 81.55 189.29 81.55 219.52 93.88 219.52"/>
            <rect class="cls-1" x="80.17" y="229.14" width="1.37" height="19.41"/>
            <path class="cls-1"
                  d="M296.13,290.19a3.78,3.78,0,1,0,3.79,3.77A3.79,3.79,0,0,0,296.13,290.19Zm0,1.38a2.41,2.41,0,1,1-2.41,2.39A2.41,2.41,0,0,1,296.13,291.57Z"/>
            <path class="cls-1"
                  d="M299.23,309.76a3.77,3.77,0,1,0,3.79,3.79A3.79,3.79,0,0,0,299.23,309.76Zm0,1.37a2.41,2.41,0,1,1-2.41,2.42A2.41,2.41,0,0,1,299.23,311.13Z"/>
            <path class="cls-1"
                  d="M299.23,273.92a3.77,3.77,0,1,0,3.79,3.77A3.79,3.79,0,0,0,299.23,273.92Zm0,1.38a2.39,2.39,0,1,1,0,4.78,2.39,2.39,0,1,1,0-4.78Z"/>
            <path class="cls-1"
                  d="M311.55,274.43a3.77,3.77,0,1,0,3.79,3.77A3.79,3.79,0,0,0,311.55,274.43Zm0,1.38a2.39,2.39,0,1,1-2.41,2.39A2.38,2.38,0,0,1,311.55,275.81Z"/>
            <path class="cls-1"
                  d="M311.55,217.83a3.78,3.78,0,1,0,3.79,3.77A3.78,3.78,0,0,0,311.55,217.83Zm0,1.36a2.41,2.41,0,1,1-2.41,2.41A2.42,2.42,0,0,1,311.55,219.2Z"/>
            <path class="cls-1"
                  d="M296.13,233a3.78,3.78,0,1,0,3.79,3.78A3.8,3.8,0,0,0,296.13,233Zm0,1.38a2.41,2.41,0,1,1-2.41,2.41A2.41,2.41,0,0,1,296.13,234.35Z"/>
            <path class="cls-1"
                  d="M327,233a3.78,3.78,0,1,0,3.79,3.78A3.79,3.79,0,0,0,327,233Zm0,1.38a2.41,2.41,0,1,1-2.41,2.41A2.41,2.41,0,0,1,327,234.35Z"/>
            <path class="cls-1"
                  d="M323.89,132.6a3.78,3.78,0,1,0,3.79,3.78A3.77,3.77,0,0,0,323.89,132.6Zm0,1.37a2.41,2.41,0,1,1-2.4,2.41A2.41,2.41,0,0,1,323.89,134Z"/>
            <path class="cls-1"
                  d="M323.89,243.24a3.78,3.78,0,1,0,3.79,3.77A3.78,3.78,0,0,0,323.89,243.24Zm0,1.38a2.4,2.4,0,1,1-2.42,2.39A2.41,2.41,0,0,1,323.89,244.62Z"/>
            <path class="cls-1"
                  d="M336.21,159.23A3.78,3.78,0,1,0,340,163,3.78,3.78,0,0,0,336.21,159.23Zm0,1.37a2.41,2.41,0,1,1-2.38,2.41A2.41,2.41,0,0,1,336.21,160.6Z"/>
            <path class="cls-1"
                  d="M336.21,138.85a3.78,3.78,0,1,0,3.79,3.79A3.78,3.78,0,0,0,336.21,138.85Zm0,1.37a2.41,2.41,0,1,1-2.38,2.41A2.41,2.41,0,0,1,336.21,140.22Z"/>
            <path class="cls-1"
                  d="M311.55,53.68a3.78,3.78,0,1,0,3.79,3.78A3.79,3.79,0,0,0,311.55,53.68Zm0,1.38a2.41,2.41,0,1,1-2.41,2.41A2.41,2.41,0,0,1,311.55,55.06Z"/>
            <path class="cls-1"
                  d="M299.23,156.13a3.78,3.78,0,1,0,3.79,3.78A3.79,3.79,0,0,0,299.23,156.13Zm0,1.37a2.41,2.41,0,1,1-2.41,2.41A2.4,2.4,0,0,1,299.23,157.5Z"/>
            <path class="cls-1"
                  d="M323.89,79.26A3.78,3.78,0,1,0,327.68,83,3.79,3.79,0,0,0,323.89,79.26Zm0,1.37A2.41,2.41,0,1,1,321.46,83,2.41,2.41,0,0,1,323.89,80.63Z"/>
            <path class="cls-1"
                  d="M323.89,31.42a3.78,3.78,0,1,0,3.79,3.78A3.79,3.79,0,0,0,323.89,31.42Zm0,1.38a2.41,2.41,0,1,1-2.42,2.41A2.41,2.41,0,0,1,323.89,32.8Z"/>
            <polygon class="cls-1"
                     points="312.24 293.29 312.24 345.31 310.87 345.31 310.87 294.65 299.23 294.65 299.23 293.29 312.24 293.29"/>
            <rect class="cls-1" x="310.87" y="224.7" width="1.37" height="50.83"/>
            <polygon class="cls-1"
                     points="336.9 166.11 336.9 190.76 324.58 190.76 324.58 244.21 323.19 244.21 323.19 189.38 335.52 189.38 335.52 166.11 336.9 166.11"/>
            <polygon class="cls-1"
                     points="336.9 99.08 336.9 139.53 335.52 139.53 335.52 100.45 324.58 100.45 324.58 116.1 310.87 116.1 310.87 60.56 312.24 60.56 312.24 114.72 323.19 114.72 323.19 99.08 336.9 99.08"/>
            <polygon class="cls-1"
                     points="336.9 51.97 336.9 65.41 324.58 65.41 324.58 79.95 323.19 79.95 323.19 64.04 335.52 64.04 335.52 53.35 323.19 53.35 323.19 38.3 324.58 38.3 324.58 51.97 336.9 51.97"/>
            <rect class="cls-1" x="298.54" y="316.63" width="1.38" height="28.68"/>
            <polygon class="cls-1"
                     points="324.58 139.53 324.58 165.93 312.24 165.93 312.24 194.37 299.92 194.37 299.92 219.63 287.58 219.63 287.58 243.82 299.92 243.82 299.92 274.66 298.54 274.66 298.54 245.2 286.21 245.2 286.21 218.26 298.54 218.26 298.54 192.99 310.87 192.99 310.87 164.56 323.19 164.56 323.19 139.53 324.58 139.53"/>
            <rect class="cls-1" x="299.23" y="236.06" width="24.66" height="1.38"/>
            <polygon class="cls-1"
                     points="312.24 0.69 312.24 50.03 299.92 50.03 299.92 88.34 287.58 88.34 287.58 125.21 299.92 125.21 299.92 156.71 298.54 156.71 298.54 126.58 286.21 126.58 286.21 86.97 298.54 86.97 298.54 48.65 310.87 48.65 310.87 0.69 312.24 0.69"/>
            <rect class="cls-1" x="298.54" y="97.45" width="1.38" height="19.39"/>
            <rect class="cls-1" x="275.61" y="287.3" width="1.38" height="58.01"/>
            <path class="cls-1"
                  d="M276.3,280.08a3.78,3.78,0,1,0,3.79,3.78A3.79,3.79,0,0,0,276.3,280.08Zm0,1.38a2.41,2.41,0,1,1-2.42,2.41A2.41,2.41,0,0,1,276.3,281.46Z"/>
            <path class="cls-1"
                  d="M279.4,189.38a3.78,3.78,0,1,0,3.76,3.78A3.79,3.79,0,0,0,279.4,189.38Zm0,1.38a2.4,2.4,0,0,1,0,4.8,2.37,2.37,0,0,1-2.41-2.39A2.4,2.4,0,0,1,279.4,190.76Z"/>
            <path class="cls-1"
                  d="M264,250.2a3.78,3.78,0,1,0,3.79,3.79A3.8,3.8,0,0,0,264,250.2Zm0,1.38a2.4,2.4,0,1,1-2.41,2.41A2.42,2.42,0,0,1,264,251.58Z"/>
            <path class="cls-1"
                  d="M279.4,220.91a3.78,3.78,0,1,0,3.76,3.79A3.78,3.78,0,0,0,279.4,220.91Zm0,1.36A2.41,2.41,0,1,1,277,224.7,2.41,2.41,0,0,1,279.4,222.28Z"/>
            <path class="cls-1"
                  d="M199.2,290.19A3.78,3.78,0,1,0,203,294,3.76,3.76,0,0,0,199.2,290.19Zm0,1.38a2.39,2.39,0,0,1,2.42,2.39,2.4,2.4,0,1,1-2.42-2.39Z"/>
            <path class="cls-1"
                  d="M202.3,309.76a3.77,3.77,0,1,0,3.79,3.77A3.77,3.77,0,0,0,202.3,309.76Zm0,1.37a2.39,2.39,0,0,1,2.42,2.41,2.42,2.42,0,1,1-2.42-2.41Z"/>
            <path class="cls-1"
                  d="M202.3,273.91a3.78,3.78,0,1,0,3.79,3.79A3.79,3.79,0,0,0,202.3,273.91Zm0,1.38a2.42,2.42,0,0,1,2.42,2.41,2.42,2.42,0,0,1-4.83,0A2.41,2.41,0,0,1,202.3,275.29Z"/>
            <path class="cls-1"
                  d="M214.63,274.42a3.78,3.78,0,1,0,3.79,3.79A3.78,3.78,0,0,0,214.63,274.42Zm0,1.38a2.41,2.41,0,0,1,2.41,2.41,2.4,2.4,0,1,1-2.41-2.41Z"/>
            <path class="cls-1"
                  d="M214.63,217.83a3.78,3.78,0,0,0,0,7.56,3.78,3.78,0,1,0,0-7.56Zm0,1.36a2.41,2.41,0,1,1-2.38,2.41A2.39,2.39,0,0,1,214.63,219.2Z"/>
            <path class="cls-1"
                  d="M199.2,233a3.78,3.78,0,1,0,3.79,3.78A3.77,3.77,0,0,0,199.2,233Zm0,1.38a2.42,2.42,0,0,1,2.42,2.41,2.4,2.4,0,0,1-4.81,0A2.41,2.41,0,0,1,199.2,234.35Z"/>
            <path class="cls-1"
                  d="M230.06,233a3.78,3.78,0,1,0,3.79,3.78A3.8,3.8,0,0,0,230.06,233Zm0,1.38a2.42,2.42,0,0,1,2.42,2.41,2.42,2.42,0,0,1-4.84,0A2.41,2.41,0,0,1,230.06,234.35Z"/>
            <path class="cls-1"
                  d="M227,132.6a3.78,3.78,0,1,0,3.76,3.78A3.8,3.8,0,0,0,227,132.6Zm0,1.37a2.41,2.41,0,1,1-2.41,2.41A2.41,2.41,0,0,1,227,134Z"/>
            <path class="cls-1"
                  d="M227,243.24a3.78,3.78,0,1,0,3.79,3.77A3.77,3.77,0,0,0,227,243.24Zm0,1.38a2.4,2.4,0,1,1-2.38,2.39A2.39,2.39,0,0,1,227,244.62Z"/>
            <path class="cls-1"
                  d="M239.32,159.23a3.78,3.78,0,1,0,3.75,3.78A3.79,3.79,0,0,0,239.32,159.23Zm0,1.37a2.41,2.41,0,1,1-2.42,2.41A2.41,2.41,0,0,1,239.32,160.6Z"/>
            <path class="cls-1"
                  d="M239.32,138.85a3.78,3.78,0,1,0,3.75,3.79A3.79,3.79,0,0,0,239.32,138.85Zm0,1.37a2.41,2.41,0,1,1-2.42,2.41A2.41,2.41,0,0,1,239.32,140.22Z"/>
            <path class="cls-1"
                  d="M214.63,53.68a3.78,3.78,0,1,0,3.79,3.78A3.77,3.77,0,0,0,214.63,53.68Zm0,1.38a2.41,2.41,0,1,1-2.38,2.41A2.41,2.41,0,0,1,214.63,55.06Z"/>
            <path class="cls-1"
                  d="M202.3,156.13a3.78,3.78,0,1,0,3.79,3.78A3.78,3.78,0,0,0,202.3,156.13Zm0,1.37a2.41,2.41,0,1,1-2.41,2.41A2.41,2.41,0,0,1,202.3,157.5Z"/>
            <path class="cls-1"
                  d="M227,79.26A3.78,3.78,0,1,0,230.75,83,3.78,3.78,0,0,0,227,79.26Zm0,1.37A2.41,2.41,0,1,1,224.57,83,2.42,2.42,0,0,1,227,80.63Z"/>
            <path class="cls-1"
                  d="M227,31.42a3.78,3.78,0,1,0,3.79,3.78A3.78,3.78,0,0,0,227,31.42Zm0,1.38a2.41,2.41,0,1,1-2.38,2.41A2.41,2.41,0,0,1,227,32.8Z"/>
            <path class="cls-1"
                  d="M264,169.22a3.78,3.78,0,1,0,3.79,3.78A3.79,3.79,0,0,0,264,169.22Zm0,1.37a2.41,2.41,0,1,1-2.41,2.41A2.42,2.42,0,0,1,264,170.59Z"/>
            <path class="cls-1"
                  d="M248.54,121.83a3.78,3.78,0,1,0,3.79,3.78A3.8,3.8,0,0,0,248.54,121.83Zm0,1.37a2.41,2.41,0,1,1-2.41,2.41A2.41,2.41,0,0,1,248.54,123.2Z"/>
            <path class="cls-1"
                  d="M264,111.14a3.78,3.78,0,1,0,3.76,3.78A3.8,3.8,0,0,0,264,111.14Zm0,1.38a2.41,2.41,0,1,1-2.41,2.41A2.41,2.41,0,0,1,264,112.52Z"/>
            <path class="cls-1"
                  d="M251.64,63.54a3.78,3.78,0,1,0,3.76,3.78A3.79,3.79,0,0,0,251.64,63.54Zm0,1.37a2.41,2.41,0,1,1-2.41,2.41A2.4,2.4,0,0,1,251.64,64.92Z"/>
            <path class="cls-1"
                  d="M264,43.94a3.78,3.78,0,1,0,3.76,3.78A3.8,3.8,0,0,0,264,43.94Zm0,1.37a2.41,2.41,0,1,1-2.41,2.41A2.41,2.41,0,0,1,264,45.31Z"/>
            <path class="cls-1"
                  d="M239.32,0a3.78,3.78,0,1,0,3.75,3.78A3.79,3.79,0,0,0,239.32,0Zm0,1.37a2.41,2.41,0,1,1-2.42,2.41A2.41,2.41,0,0,1,239.32,1.37Z"/>
            <path class="cls-1"
                  d="M276.3,115.65a3.78,3.78,0,1,0,3.79,3.78A3.79,3.79,0,0,0,276.3,115.65Zm0,1.37a2.41,2.41,0,1,1-2.42,2.41A2.41,2.41,0,0,1,276.3,117Z"/>
            <path class="cls-1"
                  d="M276.3,13.62a3.78,3.78,0,1,0,3.79,3.78A3.79,3.79,0,0,0,276.3,13.62Zm0,1.37a2.41,2.41,0,1,1-2.42,2.41A2.41,2.41,0,0,1,276.3,15Z"/>
            <path class="cls-1"
                  d="M264,128.49a3.78,3.78,0,1,0,3.76,3.78A3.8,3.8,0,0,0,264,128.49Zm0,1.37a2.41,2.41,0,1,1-2.41,2.41A2.41,2.41,0,0,1,264,129.86Z"/>
            <path class="cls-1"
                  d="M251.64,170.59a3.78,3.78,0,1,0,3.76,3.78A3.79,3.79,0,0,0,251.64,170.59Zm0,1.38a2.41,2.41,0,1,1-2.41,2.41A2.39,2.39,0,0,1,251.64,172Z"/>
            <path class="cls-1"
                  d="M251.64,295.8a3.78,3.78,0,1,0,3.76,3.77A3.78,3.78,0,0,0,251.64,295.8Zm0,1.37a2.41,2.41,0,1,1-2.41,2.41A2.4,2.4,0,0,1,251.64,297.17Z"/>
            <rect class="cls-1" x="263.29" y="256.57" width="1.37" height="88.74"/>
            <rect class="cls-1" x="250.95" y="302.67" width="1.38" height="42.64"/>
            <polygon class="cls-1"
                     points="276.3 224.01 276.3 225.39 252.33 225.39 252.33 274.8 240 274.8 240 345.31 238.63 345.31 238.63 273.42 250.95 273.42 250.95 224.01 276.3 224.01"/>
            <polygon class="cls-1"
                     points="276.3 192.48 276.3 193.85 263.29 193.85 263.29 181.45 252.33 181.45 252.33 203.84 240 203.84 240 254.24 227.65 254.24 227.65 345.31 226.26 345.31 226.26 252.86 238.63 252.86 238.63 202.46 250.95 202.46 250.95 180.07 264.65 180.07 264.65 192.48 276.3 192.48"/>
            <polygon class="cls-1"
                     points="215.32 293.29 215.32 345.31 213.94 345.31 213.94 294.65 202.3 294.65 202.3 293.29 215.32 293.29"/>
            <rect class="cls-1" x="213.94" y="224.7" width="1.38" height="50.83"/>
            <polygon class="cls-1"
                     points="240 166.11 240 190.76 227.65 190.76 227.65 244.21 226.26 244.21 226.26 189.38 238.63 189.38 238.63 166.11 240 166.11"/>
            <polygon class="cls-1"
                     points="276.99 124.92 276.99 148.27 264.65 148.27 264.65 169.99 263.29 169.99 263.29 146.9 275.61 146.9 275.61 126.3 251.64 126.3 251.64 124.92 276.99 124.92"/>
            <polygon class="cls-1"
                     points="264.65 135.37 264.65 142.37 252.33 142.37 252.33 171.28 250.95 171.28 250.95 141 263.29 141 263.29 135.37 264.65 135.37"/>
            <polygon class="cls-1"
                     points="240 99.08 240 139.53 238.63 139.53 238.63 100.45 227.65 100.45 227.65 116.1 213.94 116.1 213.94 60.56 215.32 60.56 215.32 114.72 226.26 114.72 226.26 99.08 240 99.08"/>
            <polygon class="cls-1"
                     points="240 51.97 240 65.41 227.65 65.41 227.65 79.95 226.26 79.95 226.26 64.04 238.63 64.04 238.63 53.35 226.29 53.35 226.29 38.3 227.67 38.3 227.67 51.97 240 51.97"/>
            <polygon class="cls-1"
                     points="276.99 20.5 276.99 58.16 264.65 58.16 264.65 82.36 276.99 82.36 276.99 116.14 275.61 116.14 275.61 83.74 263.29 83.74 263.29 56.79 275.61 56.79 275.61 20.5 276.99 20.5"/>
            <polygon class="cls-1"
                     points="264.65 90.18 264.65 111.83 263.29 111.83 263.29 91.56 250.95 91.56 250.95 70.19 252.33 70.19 252.33 90.18 264.65 90.18"/>
            <polygon class="cls-1"
                     points="264.65 24.13 264.65 44.63 263.29 44.63 263.29 25.5 252.33 25.5 252.33 35.4 238.63 35.4 238.63 7.68 240 7.68 240 34.03 250.95 34.03 250.95 24.13 264.65 24.13"/>
            <rect class="cls-1" x="201.62" y="316.63" width="1.37" height="28.68"/>
            <polygon class="cls-1"
                     points="227.67 139.53 227.67 165.93 215.32 165.93 215.32 194.37 202.99 194.37 202.99 219.63 190.66 219.63 190.66 243.82 202.99 243.82 202.99 274.66 201.62 274.66 201.62 245.2 189.28 245.2 189.28 218.26 201.62 218.26 201.62 192.99 213.94 192.99 213.94 164.56 226.29 164.56 226.29 139.53 227.67 139.53"/>
            <path class="cls-1"
                  d="M279.4,208.63a3.78,3.78,0,1,0,3.76,3.79A3.79,3.79,0,0,0,279.4,208.63Zm0,1.38a2.41,2.41,0,0,1,0,4.81,2.38,2.38,0,0,1-2.41-2.41A2.41,2.41,0,0,1,279.4,210Z"/>
            <path class="cls-1"
                  d="M248.54,208.63a3.78,3.78,0,1,0,3.79,3.79A3.8,3.8,0,0,0,248.54,208.63Zm0,1.38a2.41,2.41,0,1,1,0,4.81,2.38,2.38,0,0,1-2.41-2.41A2.41,2.41,0,0,1,248.54,210Z"/>
            <rect class="cls-1" x="251.64" y="211.74" width="24.66" height="1.37"/>
            <path class="cls-1"
                  d="M107.95,300.83a3.78,3.78,0,1,0,3.76,3.79A3.8,3.8,0,0,0,107.95,300.83Zm0,1.38a2.4,2.4,0,0,1,0,4.8,2.37,2.37,0,0,1-2.42-2.39A2.41,2.41,0,0,1,107.95,302.21Z"/>
            <path class="cls-1"
                  d="M77.08,300.83a3.78,3.78,0,1,0,3.78,3.79A3.8,3.8,0,0,0,77.08,300.83Zm0,1.38a2.4,2.4,0,1,1,0,4.8,2.37,2.37,0,0,1-2.42-2.39A2.41,2.41,0,0,1,77.08,302.21Z"/>
            <rect class="cls-1" x="80.19" y="303.93" width="24.65" height="1.38"/>
            <path class="cls-1"
                  d="M88.72,310.16a3.78,3.78,0,1,0,3.79-3.76A3.78,3.78,0,0,0,88.72,310.16Zm1.37,0a2.41,2.41,0,0,1,4.81,0,2.38,2.38,0,0,1-2.4,2.41A2.41,2.41,0,0,1,90.1,310.16Z"/>
            <path class="cls-1"
                  d="M88.72,340.95a3.78,3.78,0,1,0,3.79-3.77A3.79,3.79,0,0,0,88.72,340.95Zm1.37,0a2.41,2.41,0,0,1,4.81,0,2.38,2.38,0,0,1-2.4,2.42A2.41,2.41,0,0,1,90.1,340.95Z"/>
            <rect class="cls-1" x="91.82" y="313.25" width="1.37" height="24.6"/>
            <path class="cls-1"
                  d="M88.72,137.42a3.78,3.78,0,1,0,3.79-3.76A3.79,3.79,0,0,0,88.72,137.42Zm1.37,0a2.41,2.41,0,0,1,4.81,0,2.38,2.38,0,0,1-2.4,2.41A2.41,2.41,0,0,1,90.1,137.42Z"/>
            <path class="cls-1"
                  d="M88.72,168.22a3.78,3.78,0,1,0,3.79-3.79A3.79,3.79,0,0,0,88.72,168.22Zm1.37,0a2.41,2.41,0,1,1,4.81,0,2.38,2.38,0,0,1-2.4,2.41A2.41,2.41,0,0,1,90.1,168.22Z"/>
            <rect class="cls-1" x="91.82" y="140.51" width="1.37" height="24.61"/>
            <path class="cls-1"
                  d="M282.43,147.6a3.78,3.78,0,1,0,3.79-3.76A3.79,3.79,0,0,0,282.43,147.6Zm1.38,0a2.4,2.4,0,1,1,2.41,2.41A2.4,2.4,0,0,1,283.82,147.6Z"/>
            <path class="cls-1"
                  d="M282.43,178.4a3.78,3.78,0,1,0,3.79-3.78A3.78,3.78,0,0,0,282.43,178.4Zm1.38,0a2.4,2.4,0,1,1,2.41,2.41A2.41,2.41,0,0,1,283.82,178.4Z"/>
            <rect class="cls-1" x="285.54" y="150.69" width="1.38" height="24.61"/>
            <path class="cls-1"
                  d="M320.8,299a3.78,3.78,0,1,0,7.56,0,3.78,3.78,0,0,0-7.56,0Zm1.37,0a2.41,2.41,0,1,1,2.42,2.41A2.4,2.4,0,0,1,322.16,299Z"/>
            <path class="cls-1"
                  d="M320.8,329.83a3.78,3.78,0,1,0,3.79-3.78A3.79,3.79,0,0,0,320.8,329.83Zm1.37,0a2.41,2.41,0,1,1,4.82,0,2.39,2.39,0,0,1-2.4,2.41A2.42,2.42,0,0,1,322.16,329.83Z"/>
            <rect class="cls-1" x="323.9" y="302.13" width="1.37" height="24.61"/>
            <path class="cls-1"
                  d="M189.28,10.74A3.78,3.78,0,1,0,193.07,7,3.79,3.79,0,0,0,189.28,10.74Zm1.38,0a2.41,2.41,0,1,1,2.41,2.41A2.41,2.41,0,0,1,190.66,10.74Z"/>
            <path class="cls-1"
                  d="M189.28,41.55a3.78,3.78,0,1,0,3.79-3.78A3.79,3.79,0,0,0,189.28,41.55Zm1.38,0a2.41,2.41,0,1,1,4.82,0A2.38,2.38,0,0,1,193.07,44,2.41,2.41,0,0,1,190.66,41.55Z"/>
            <rect class="cls-1" x="192.38" y="13.84" width="1.38" height="24.61"/>
            <path class="cls-1"
                  d="M288.47,10.74A3.78,3.78,0,1,0,292.27,7,3.79,3.79,0,0,0,288.47,10.74Zm1.38,0a2.4,2.4,0,1,1,2.41,2.41A2.4,2.4,0,0,1,289.86,10.74Z"/>
            <path class="cls-1"
                  d="M288.47,41.55a3.78,3.78,0,1,0,3.79-3.78A3.79,3.79,0,0,0,288.47,41.55Zm1.38,0a2.4,2.4,0,1,1,4.81,0,2.37,2.37,0,0,1-2.4,2.41A2.4,2.4,0,0,1,289.86,41.55Z"/>
            <rect class="cls-1" x="291.58" y="13.84" width="1.38" height="24.61"/>
            <path class="cls-1"
                  d="M330.78,10.73A3.78,3.78,0,1,0,334.57,7,3.79,3.79,0,0,0,330.78,10.73Zm1.37,0a2.41,2.41,0,0,1,4.82,0,2.38,2.38,0,0,1-2.4,2.41A2.41,2.41,0,0,1,332.15,10.73Z"/>
            <path class="cls-1"
                  d="M330.78,41.53a3.78,3.78,0,1,0,3.79-3.78A3.79,3.79,0,0,0,330.78,41.53Zm1.37,0a2.41,2.41,0,1,1,4.82,0,2.38,2.38,0,0,1-2.4,2.41A2.41,2.41,0,0,1,332.15,41.53Z"/>
            <rect class="cls-1" x="333.88" y="13.83" width="1.37" height="24.61"/>
            <path class="cls-1"
                  d="M330.78,256.07a3.78,3.78,0,1,0,3.79-3.76A3.78,3.78,0,0,0,330.78,256.07Zm1.37,0a2.41,2.41,0,0,1,4.82,0,2.39,2.39,0,0,1-2.4,2.41A2.42,2.42,0,0,1,332.15,256.07Z"/>
            <path class="cls-1"
                  d="M330.78,286.86a3.78,3.78,0,1,0,3.79-3.77A3.78,3.78,0,0,0,330.78,286.86Zm1.37,0a2.41,2.41,0,0,1,4.82,0,2.39,2.39,0,0,1-2.4,2.42A2.42,2.42,0,0,1,332.15,286.86Z"/>
            <rect class="cls-1" x="333.88" y="259.16" width="1.37" height="24.6"/>
            <path class="cls-1"
                  d="M185.51,167.57a3.78,3.78,0,1,0,3.79-3.76A3.79,3.79,0,0,0,185.51,167.57Zm1.38,0A2.41,2.41,0,1,1,189.3,170,2.4,2.4,0,0,1,186.89,167.57Z"/>
            <path class="cls-1"
                  d="M185.51,198.38a3.78,3.78,0,1,0,3.79-3.79A3.79,3.79,0,0,0,185.51,198.38Zm1.38,0a2.41,2.41,0,1,1,4.82,0,2.39,2.39,0,0,1-2.41,2.41A2.41,2.41,0,0,1,186.89,198.38Z"/>
            <rect class="cls-1" x="188.62" y="170.67" width="1.37" height="24.61"/>
            <path class="cls-1"
                  d="M275.61,238.58a3.78,3.78,0,1,0,3.79-3.76A3.79,3.79,0,0,0,275.61,238.58Zm1.38,0A2.4,2.4,0,1,1,279.4,241,2.4,2.4,0,0,1,277,238.58Z"/>
            <path class="cls-1"
                  d="M275.61,269.38a3.78,3.78,0,1,0,3.79-3.79A3.78,3.78,0,0,0,275.61,269.38Zm1.38,0a2.4,2.4,0,1,1,2.41,2.41A2.41,2.41,0,0,1,277,269.38Z"/>
            <rect class="cls-1" x="278.71" y="241.67" width="1.38" height="24.61"/>
            <rect class="cls-1" x="202.3" y="236.06" width="24.69" height="1.38"/>
            <polygon class="cls-1"
                     points="215.32 0.69 215.32 50.03 202.99 50.03 202.99 88.34 190.66 88.34 190.66 125.21 202.99 125.21 202.99 156.71 201.62 156.71 201.62 126.58 189.28 126.58 189.28 86.97 201.62 86.97 201.62 48.65 213.94 48.65 213.94 0.69 215.32 0.69"/>
            <rect class="cls-1" x="201.62" y="97.45" width="1.37" height="19.39"/>
            <rect class="cls-1" x="178.81" y="0.69" width="1.38" height="58"/>
            <path class="cls-1"
                  d="M179.51,58.36a3.77,3.77,0,1,0,3.79,3.76A3.78,3.78,0,0,0,179.51,58.36Zm0,1.37a2.4,2.4,0,1,1-2.41,2.39A2.4,2.4,0,0,1,179.51,59.73Z"/>
            <path class="cls-1"
                  d="M182.61,149.06a3.78,3.78,0,1,0,3.76,3.77A3.78,3.78,0,0,0,182.61,149.06Zm0,1.37a2.4,2.4,0,1,1-2.41,2.4A2.41,2.41,0,0,1,182.61,150.44Z"/>
            <path class="cls-1"
                  d="M167.18,88.24A3.78,3.78,0,1,0,171,92,3.79,3.79,0,0,0,167.18,88.24Zm0,1.37a2.4,2.4,0,1,1,0,4.8A2.37,2.37,0,0,1,164.77,92,2.41,2.41,0,0,1,167.18,89.62Z"/>
            <path class="cls-1"
                  d="M182.61,117.54a3.77,3.77,0,1,0,3.76,3.76A3.78,3.78,0,0,0,182.61,117.54Zm0,1.37a2.4,2.4,0,1,1-2.41,2.39A2.4,2.4,0,0,1,182.61,118.91Z"/>
            <path class="cls-1"
                  d="M182.61,129.81a3.78,3.78,0,1,0,3.76,3.77A3.78,3.78,0,0,0,182.61,129.81Zm0,1.38a2.4,2.4,0,1,1-2.41,2.39A2.4,2.4,0,0,1,182.61,131.19Z"/>
            <path class="cls-1"
                  d="M151.75,129.8a3.78,3.78,0,1,0,3.79,3.78A3.79,3.79,0,0,0,151.75,129.8Zm0,1.38a2.41,2.41,0,1,1-2.42,2.41A2.41,2.41,0,0,1,151.75,131.18Z"/>
            <path class="cls-1"
                  d="M102.41,48.25A3.77,3.77,0,1,0,106.21,52,3.77,3.77,0,0,0,102.41,48.25Zm0,1.37A2.41,2.41,0,0,1,104.82,52a2.4,2.4,0,1,1-2.41-2.41Z"/>
            <path class="cls-1"
                  d="M105.52,28.69a3.78,3.78,0,1,0,3.79,3.77A3.78,3.78,0,0,0,105.52,28.69Zm0,1.37a2.42,2.42,0,0,1,2.42,2.4,2.42,2.42,0,1,1-2.42-2.4Z"/>
            <path class="cls-1"
                  d="M105.52,64.54a3.77,3.77,0,1,0,3.79,3.77A3.78,3.78,0,0,0,105.52,64.54Zm0,1.37a2.39,2.39,0,0,1,2.42,2.4,2.42,2.42,0,1,1-2.42-2.4Z"/>
            <path class="cls-1"
                  d="M117.84,64a3.78,3.78,0,1,0,3.78,3.77A3.76,3.76,0,0,0,117.84,64Zm0,1.37a2.38,2.38,0,0,1,2.41,2.4,2.4,2.4,0,1,1-4.8,0A2.39,2.39,0,0,1,117.84,65.4Z"/>
            <path class="cls-1"
                  d="M117.84,120.62a3.77,3.77,0,1,0,3.78,3.78A3.78,3.78,0,0,0,117.84,120.62Zm0,1.37a2.4,2.4,0,1,1-2.39,2.41A2.39,2.39,0,0,1,117.84,122Z"/>
            <path class="cls-1"
                  d="M102.41,105.46a3.78,3.78,0,1,0,3.79,3.78A3.78,3.78,0,0,0,102.41,105.46Zm0,1.37a2.41,2.41,0,1,1-2.39,2.41A2.41,2.41,0,0,1,102.41,106.83Z"/>
            <path class="cls-1"
                  d="M133.28,105.48a3.77,3.77,0,1,0,3.78,3.77A3.78,3.78,0,0,0,133.28,105.48Zm0,1.37a2.38,2.38,0,0,1,2.41,2.4,2.41,2.41,0,1,1-2.41-2.4Z"/>
            <path class="cls-1"
                  d="M130.19,205.83a3.78,3.78,0,1,0,3.76,3.78A3.79,3.79,0,0,0,130.19,205.83Zm0,1.38a2.41,2.41,0,1,1-2.41,2.41A2.4,2.4,0,0,1,130.19,207.21Z"/>
            <path class="cls-1"
                  d="M130.17,95.2A3.77,3.77,0,1,0,134,99,3.77,3.77,0,0,0,130.17,95.2Zm0,1.37A2.42,2.42,0,0,1,132.58,99a2.4,2.4,0,1,1-2.42-2.41Z"/>
            <path class="cls-1"
                  d="M142.52,179.2a3.78,3.78,0,1,0,3.76,3.79A3.8,3.8,0,0,0,142.52,179.2Zm0,1.38a2.41,2.41,0,1,1-2.41,2.41A2.39,2.39,0,0,1,142.52,180.58Z"/>
            <path class="cls-1"
                  d="M142.52,199.59a3.78,3.78,0,1,0,3.76,3.78A3.79,3.79,0,0,0,142.52,199.59Zm0,1.38a2.41,2.41,0,1,1-2.41,2.41A2.39,2.39,0,0,1,142.52,201Z"/>
            <path class="cls-1"
                  d="M117.84,284.75a3.78,3.78,0,1,0,3.78,3.79A3.78,3.78,0,0,0,117.84,284.75Zm0,1.38a2.41,2.41,0,1,1-2.39,2.41A2.41,2.41,0,0,1,117.84,286.13Z"/>
            <path class="cls-1"
                  d="M105.52,182.3a3.78,3.78,0,1,0,3.79,3.78A3.79,3.79,0,0,0,105.52,182.3Zm0,1.38a2.41,2.41,0,1,1-2.42,2.41A2.42,2.42,0,0,1,105.52,183.68Z"/>
            <path class="cls-1"
                  d="M130.17,259.18a3.78,3.78,0,1,0,3.79,3.77A3.77,3.77,0,0,0,130.17,259.18Zm0,1.36a2.41,2.41,0,1,1-2.38,2.41A2.39,2.39,0,0,1,130.17,260.54Z"/>
            <path class="cls-1"
                  d="M130.17,307a3.78,3.78,0,1,0,3.79,3.79A3.78,3.78,0,0,0,130.17,307Zm0,1.38a2.41,2.41,0,1,1-2.38,2.41A2.4,2.4,0,0,1,130.17,308.39Z"/>
            <path class="cls-1"
                  d="M167.18,169.22A3.78,3.78,0,1,0,171,173,3.79,3.79,0,0,0,167.18,169.22Zm0,1.37a2.41,2.41,0,1,1-2.42,2.41A2.42,2.42,0,0,1,167.18,170.59Z"/>
            <path class="cls-1"
                  d="M151.75,216.6a3.78,3.78,0,1,0,3.79,3.78A3.79,3.79,0,0,0,151.75,216.6Zm0,1.38a2.41,2.41,0,1,1-2.42,2.41A2.41,2.41,0,0,1,151.75,218Z"/>
            <path class="cls-1"
                  d="M167.18,227.29a3.78,3.78,0,1,0,3.76,3.78A3.79,3.79,0,0,0,167.18,227.29Zm0,1.38a2.41,2.41,0,0,1,0,4.81,2.41,2.41,0,1,1,0-4.81Z"/>
            <path class="cls-1"
                  d="M154.85,274.89a3.78,3.78,0,1,0,3.76,3.78A3.79,3.79,0,0,0,154.85,274.89Zm0,1.38a2.41,2.41,0,0,1,0,4.81,2.41,2.41,0,1,1,0-4.81Z"/>
            <path class="cls-1"
                  d="M167.18,294.49a3.78,3.78,0,1,0,3.76,3.79A3.8,3.8,0,0,0,167.18,294.49Zm0,1.38a2.41,2.41,0,1,1-2.42,2.41A2.39,2.39,0,0,1,167.18,295.87Z"/>
            <path class="cls-1"
                  d="M142.52,338.43a3.78,3.78,0,1,0,3.76,3.79A3.8,3.8,0,0,0,142.52,338.43Zm0,1.38a2.41,2.41,0,1,1-2.41,2.41A2.4,2.4,0,0,1,142.52,339.81Z"/>
            <path class="cls-1"
                  d="M179.51,222.78a3.78,3.78,0,1,0,3.79,3.78A3.79,3.79,0,0,0,179.51,222.78Zm0,1.38a2.41,2.41,0,1,1-2.41,2.41A2.41,2.41,0,0,1,179.51,224.16Z"/>
            <path class="cls-1"
                  d="M179.51,324.81a3.78,3.78,0,1,0,3.79,3.78A3.79,3.79,0,0,0,179.51,324.81Zm0,1.38a2.41,2.41,0,1,1-2.41,2.41A2.41,2.41,0,0,1,179.51,326.19Z"/>
            <path class="cls-1"
                  d="M167.18,209.94a3.78,3.78,0,1,0,3.76,3.79A3.8,3.8,0,0,0,167.18,209.94Zm0,1.38a2.41,2.41,0,1,1-2.42,2.41A2.39,2.39,0,0,1,167.18,211.32Z"/>
            <path class="cls-1"
                  d="M154.85,167.84a3.78,3.78,0,1,0,3.76,3.79A3.79,3.79,0,0,0,154.85,167.84Zm0,1.37a2.41,2.41,0,1,1-2.42,2.41A2.4,2.4,0,0,1,154.85,169.22Z"/>
            <path class="cls-1"
                  d="M154.85,42.65a3.77,3.77,0,1,0,3.76,3.78A3.79,3.79,0,0,0,154.85,42.65Zm0,1.37a2.4,2.4,0,0,1,0,4.8,2.37,2.37,0,0,1-2.42-2.39A2.41,2.41,0,0,1,154.85,44Z"/>
            <rect class="cls-1" x="166.49" y="0.69" width="1.37" height="88.74"/>
            <rect class="cls-1" x="154.16" y="0.69" width="1.38" height="42.64"/>
            <polygon class="cls-1"
                     points="179.5 120.62 179.5 121.99 154.16 121.99 154.16 72.57 141.84 72.57 141.84 0.69 143.22 0.69 143.22 71.2 155.54 71.2 155.54 120.62 179.5 120.62"/>
            <polygon class="cls-1"
                     points="179.5 152.15 179.5 153.52 167.87 153.52 167.87 165.93 154.16 165.93 154.16 143.53 141.84 143.53 141.84 93.13 129.48 93.13 129.48 0.69 130.86 0.69 130.86 91.76 143.22 91.76 143.22 142.16 155.54 142.16 155.54 164.56 166.49 164.56 166.49 152.15 179.5 152.15"/>
            <polygon class="cls-1"
                     points="118.53 0.69 118.53 52.72 105.52 52.72 105.52 51.35 117.15 51.35 117.15 0.69 118.53 0.69"/>
            <rect class="cls-1" x="117.15" y="70.47" width="1.37" height="50.83"/>
            <polygon class="cls-1"
                     points="143.22 155.24 143.22 179.89 141.84 179.89 141.84 156.62 129.48 156.62 129.48 101.79 130.86 101.79 130.86 155.24 143.22 155.24"/>
            <polygon class="cls-1"
                     points="180.2 197.73 180.2 221.07 154.85 221.07 154.85 219.7 178.81 219.7 178.81 199.1 166.49 199.1 166.49 176.01 167.87 176.01 167.87 197.73 180.2 197.73"/>
            <polygon class="cls-1"
                     points="167.87 203.63 167.87 210.63 166.49 210.63 166.49 205 154.16 205 154.16 174.72 155.54 174.72 155.54 203.63 167.87 203.63"/>
            <polygon class="cls-1"
                     points="143.22 206.47 143.22 246.92 129.48 246.92 129.48 231.28 118.53 231.28 118.53 285.44 117.15 285.44 117.15 229.9 130.86 229.9 130.86 245.55 141.84 245.55 141.84 206.47 143.22 206.47"/>
            <polygon class="cls-1"
                     points="143.22 280.58 143.22 294.02 130.88 294.02 130.88 307.7 129.51 307.7 129.51 292.65 141.84 292.65 141.84 281.96 129.48 281.96 129.48 266.06 130.86 266.06 130.86 280.58 143.22 280.58"/>
            <polygon class="cls-1"
                     points="180.2 229.86 180.2 263.63 167.87 263.63 167.87 287.84 180.2 287.84 180.2 325.5 178.81 325.5 178.81 289.22 166.49 289.22 166.49 262.27 178.81 262.27 178.81 229.86 180.2 229.86"/>
            <polygon class="cls-1"
                     points="167.87 234.17 167.87 255.82 155.54 255.82 155.54 275.81 154.16 275.81 154.16 254.45 166.49 254.45 166.49 234.17 167.87 234.17"/>
            <polygon class="cls-1"
                     points="167.87 301.37 167.87 321.87 154.16 321.87 154.16 311.97 143.22 311.97 143.22 338.31 141.84 338.31 141.84 310.59 155.54 310.59 155.54 320.51 166.49 320.51 166.49 301.37 167.87 301.37"/>
            <rect class="cls-1" x="104.82" y="0.69" width="1.38" height="28.69"/>
            <polygon class="cls-1"
                     points="130.88 180.07 130.88 206.47 129.51 206.47 129.51 181.45 117.15 181.45 117.15 153.01 104.83 153.01 104.83 127.74 92.5 127.74 92.5 100.81 104.83 100.81 104.83 71.34 106.21 71.34 106.21 102.18 93.88 102.18 93.88 126.36 106.21 126.36 106.21 151.64 118.53 151.64 118.53 180.07 130.88 180.07"/>
            <rect class="cls-1" x="154.85" y="132.9" width="24.65" height="1.37"/>
            <rect class="cls-1" x="105.52" y="108.56" width="24.68" height="1.37"/>
            <polygon class="cls-1"
                     points="118.53 296.21 118.53 345.63 117.15 345.63 117.15 297.57 104.83 297.57 104.83 259.19 92.5 259.19 92.5 219.48 104.83 219.48 104.83 189.29 106.21 189.29 106.21 220.84 93.88 220.84 93.88 257.8 106.21 257.8 106.21 296.21 118.53 296.21"/>
            <rect class="cls-1" x="104.82" y="229.14" width="1.38" height="19.41"/>
            <path class="cls-1"
                  d="M80.87,248.55a3.78,3.78,0,1,0,3.76,3.78A3.78,3.78,0,0,0,80.87,248.55Zm0,1.36a2.41,2.41,0,1,1-2.41,2.42A2.4,2.4,0,0,1,80.87,249.92Z"/>
            <path class="cls-1"
                  d="M105.53,248.55a3.78,3.78,0,1,0,3.76,3.78A3.79,3.79,0,0,0,105.53,248.55Zm0,1.36a2.41,2.41,0,1,1-2.42,2.42A2.4,2.4,0,0,1,105.53,249.92Z"/>
            <path class="cls-1"
                  d="M105.53,221.62a3.77,3.77,0,1,0,3.76,3.78A3.79,3.79,0,0,0,105.53,221.62Zm0,1.36a2.41,2.41,0,1,1-2.42,2.42A2.4,2.4,0,0,1,105.53,223Z"/>
            <path class="cls-1"
                  d="M202.3,116.14a3.77,3.77,0,1,0,3.75,3.78A3.78,3.78,0,0,0,202.3,116.14Zm0,1.37a2.4,2.4,0,1,1-2.42,2.41A2.43,2.43,0,0,1,202.3,117.51Z"/>
            <path class="cls-1"
                  d="M202.3,89.9A3.78,3.78,0,1,0,206,93.68,3.79,3.79,0,0,0,202.3,89.9Zm0,1.37a2.4,2.4,0,1,1-2.42,2.41A2.44,2.44,0,0,1,202.3,91.27Z"/>
            <path class="cls-1"
                  d="M299.25,89.9a3.78,3.78,0,1,0,0,7.56,3.78,3.78,0,0,0,0-7.56Zm0,1.37a2.4,2.4,0,1,1-2.42,2.41A2.43,2.43,0,0,1,299.25,91.27Z"/>
            <path class="cls-1"
                  d="M299.25,116.13a3.77,3.77,0,1,0,0,7.55,3.77,3.77,0,0,0,0-7.55Zm0,1.37a2.4,2.4,0,1,1-2.42,2.41A2.42,2.42,0,0,1,299.25,117.5Z"/>
            <path class="cls-1"
                  d="M80.87,221.62a3.77,3.77,0,1,0,3.76,3.78A3.78,3.78,0,0,0,80.87,221.62Zm0,1.36a2.41,2.41,0,1,1-2.41,2.42A2.4,2.4,0,0,1,80.87,223Z"/>
        </g>
    </g>
</svg>