<svg xmlns="http://www.w3.org/2000/svg" viewBox="0 0 340 346"><defs><style>.cls-1{fill:#fed43d;opacity:.15}</style></defs><g id="Слой_2" data-name="Слой 2"><g id="Слой_1-2" data-name="Слой 1"><path class="cls-1" d="M6.17.69h1.38v58H6.17z"/><path class="cls-1" d="M6.87 58.35a3.78 3.78 0 1 0 3.79 3.78 3.79 3.79 0 0 0-3.79-3.78zm0 1.37a2.41 2.41 0 1 1-2.42 2.41 2.42 2.42 0 0 1 2.42-2.41zM3.76 149a3.78 3.78 0 1 0 3.79 3.79A3.78 3.78 0 0 0 3.76 149zm0 1.37a2.41 2.41 0 1 1-2.39 2.41 2.42 2.42 0 0 1 2.39-2.36zM19.2 88.24A3.78 3.78 0 1 0 23 92a3.78 3.78 0 0 0-3.8-3.76zm0 1.37A2.42 2.42 0 0 1 21.61 92a2.41 2.41 0 0 1-4.83 0 2.41 2.41 0 0 1 2.42-2.38zM3.76 117.53a3.78 3.78 0 1 0 3.79 3.78 3.77 3.77 0 0 0-3.79-3.78zm0 1.37a2.41 2.41 0 1 1-2.39 2.41 2.41 2.41 0 0 1 2.39-2.41zm0 10.9a3.78 3.78 0 1 0 3.79 3.78 3.78 3.78 0 0 0-3.79-3.78zm0 1.38a2.41 2.41 0 1 1-2.39 2.41 2.41 2.41 0 0 1 2.39-2.41zm30.87-1.38a3.78 3.78 0 1 0 3.78 3.78 3.79 3.79 0 0 0-3.78-3.78zm0 1.38a2.41 2.41 0 1 1-2.42 2.41 2.41 2.41 0 0 1 2.42-2.41zM84 48.25A3.77 3.77 0 1 0 87.72 52 3.79 3.79 0 0 0 84 48.25zm0 1.37a2.4 2.4 0 0 1 0 4.8A2.37 2.37 0 0 1 81.55 52 2.41 2.41 0 0 1 84 49.62zm-3.14-20.93a3.78 3.78 0 1 0 3.79 3.77 3.78 3.78 0 0 0-3.79-3.77zm0 1.37a2.4 2.4 0 1 1 0 4.8 2.38 2.38 0 0 1-2.41-2.41 2.41 2.41 0 0 1 2.41-2.39zm0 34.48a3.77 3.77 0 1 0 3.79 3.77 3.78 3.78 0 0 0-3.79-3.77zm0 1.37a2.4 2.4 0 1 1 0 4.79 2.4 2.4 0 1 1 0-4.79zM68.53 64a3.77 3.77 0 1 0 3.76 3.77A3.78 3.78 0 0 0 68.53 64zm0 1.37a2.4 2.4 0 1 1-2.42 2.4 2.4 2.4 0 0 1 2.42-2.37zm0 55.25a3.77 3.77 0 1 0 3.76 3.78 3.79 3.79 0 0 0-3.76-3.78zm0 1.37a2.4 2.4 0 1 1-2.42 2.41 2.4 2.4 0 0 1 2.42-2.4zM84 105.46a3.78 3.78 0 1 0 3.76 3.78 3.79 3.79 0 0 0-3.76-3.78zm0 1.37a2.41 2.41 0 1 1-2.42 2.41 2.4 2.4 0 0 1 2.42-2.41zm-30.9-1.37a3.78 3.78 0 1 0 3.79 3.78 3.79 3.79 0 0 0-3.79-3.78zm0 1.37a2.41 2.41 0 1 1-2.42 2.41 2.41 2.41 0 0 1 2.42-2.41zm3.08 99a3.78 3.78 0 1 0 3.82 3.78 3.78 3.78 0 0 0-3.82-3.78zm0 1.38a2.41 2.41 0 1 1 0 4.81 2.41 2.41 0 0 1 0-4.81zM56.2 95.2A3.77 3.77 0 1 0 60 99a3.79 3.79 0 0 0-3.8-3.8zm0 1.37A2.4 2.4 0 1 1 53.79 99a2.41 2.41 0 0 1 2.41-2.42zM43.85 179.2a3.78 3.78 0 1 0 3.79 3.8 3.78 3.78 0 0 0-3.79-3.8zm0 1.38a2.41 2.41 0 1 1 0 4.81 2.41 2.41 0 0 1 0-4.81zm0 19.01a3.78 3.78 0 1 0 3.79 3.78 3.78 3.78 0 0 0-3.79-3.78zm0 1.38a2.41 2.41 0 1 1 0 4.81 2.41 2.41 0 0 1 0-4.81zm24.68 83.78a3.78 3.78 0 1 0 3.76 3.79 3.8 3.8 0 0 0-3.76-3.79zm0 1.38a2.41 2.41 0 0 1 0 4.81 2.41 2.41 0 1 1 0-4.81zM80.86 182.3a3.78 3.78 0 1 0 3.79 3.78 3.79 3.79 0 0 0-3.79-3.78zm0 1.38a2.41 2.41 0 1 1-2.41 2.41 2.42 2.42 0 0 1 2.41-2.41zm-24.66 75.5a3.78 3.78 0 1 0 3.8 3.77 3.78 3.78 0 0 0-3.8-3.77zm0 1.36a2.41 2.41 0 0 1 0 4.82 2.41 2.41 0 1 1 0-4.82zm0 46.46a3.78 3.78 0 1 0 3.8 3.79 3.8 3.8 0 0 0-3.8-3.79zm0 1.38a2.41 2.41 0 0 1 0 4.83 2.41 2.41 0 1 1 0-4.83zm-37-139.16A3.78 3.78 0 1 0 23 173a3.79 3.79 0 0 0-3.8-3.78zm0 1.37a2.41 2.41 0 1 1-2.42 2.41 2.42 2.42 0 0 1 2.42-2.41zm15.43 46.01a3.78 3.78 0 1 0 3.78 3.78 3.79 3.79 0 0 0-3.78-3.78zm0 1.38a2.41 2.41 0 1 1-2.42 2.41 2.41 2.41 0 0 1 2.42-2.39zm-15.43 9.31a3.78 3.78 0 1 0 3.8 3.79 3.77 3.77 0 0 0-3.8-3.79zm0 1.38a2.41 2.41 0 1 1-2.39 2.41 2.41 2.41 0 0 1 2.39-2.41zm12.32 46.22a3.78 3.78 0 1 0 3.79 3.78 3.77 3.77 0 0 0-3.79-3.78zm0 1.38a2.41 2.41 0 1 1-2.38 2.41 2.39 2.39 0 0 1 2.38-2.41zM19.2 294.49a3.78 3.78 0 1 0 3.8 3.79 3.78 3.78 0 0 0-3.8-3.79zm0 1.38a2.41 2.41 0 1 1-2.39 2.41 2.41 2.41 0 0 1 2.39-2.41zm24.65 42.56a3.78 3.78 0 1 0 3.79 3.79 3.78 3.78 0 0 0-3.79-3.79zm0 1.38a2.42 2.42 0 0 1 2.42 2.41 2.4 2.4 0 1 1-2.42-2.41zM6.87 222.78a3.78 3.78 0 1 0 3.79 3.78 3.79 3.79 0 0 0-3.79-3.78zm0 1.38a2.41 2.41 0 1 1-2.42 2.41 2.42 2.42 0 0 1 2.42-2.41zm0 100.65a3.78 3.78 0 1 0 3.79 3.78 3.79 3.79 0 0 0-3.79-3.78zm0 1.38a2.41 2.41 0 1 1-2.42 2.41 2.42 2.42 0 0 1 2.42-2.41zM19.2 209.94a3.78 3.78 0 1 0 3.8 3.78 3.78 3.78 0 0 0-3.8-3.78zm0 1.38a2.41 2.41 0 1 1-2.39 2.41 2.41 2.41 0 0 1 2.39-2.41zm12.32-43.48a3.78 3.78 0 1 0 3.79 3.79 3.78 3.78 0 0 0-3.79-3.79zm0 1.37a2.41 2.41 0 1 1 0 4.82 2.41 2.41 0 0 1 0-4.82zm0-126.56a3.77 3.77 0 1 0 3.79 3.78 3.77 3.77 0 0 0-3.79-3.78zm0 1.37a2.4 2.4 0 1 1-2.38 2.41A2.39 2.39 0 0 1 31.52 44z"/><path class="cls-1" d="M18.5.69h1.37v88.74H18.5zm12.33 0h1.37v42.64h-1.37z"/><path class="cls-1" d="M44.54.69v71.88H32.21v49.42H6.87v-1.37h23.96V71.2h12.33V.69h1.38z"/><path class="cls-1" d="M56.9.69v92.44H44.54v50.4H32.21v22.4H18.5v-12.41H6.87v-1.37h13.01v12.41h10.95v-22.4h12.33v-50.4h12.35V.69h1.39zm23.96 50.66v1.37H67.84V.69h1.38v50.66h11.64zM67.84 70.47h1.37v50.83h-1.37zM56.9 101.79v54.83H44.54v23.27h-1.38v-24.65h12.35v-53.45h1.39zM31.52 219.7v1.37H6.17v-23.34H18.5v-21.72h1.38v23.09H7.56v20.6h23.96z"/><path class="cls-1" d="M32.21 174.72V205H19.88v5.63H18.5v-7h12.33v-28.91h1.38zm37.01 55.18v55.54h-1.38v-54.16H56.9v15.64H43.16v-40.45h1.38v39.08h10.97V229.9h13.71z"/><path class="cls-1" d="M56.9 266.06v15.9H44.54v10.69h12.33v15.05h-1.38v-13.68H43.16v-13.44h12.35v-14.52h1.39zm-37.02-3.79v26.95H7.56v36.28H6.17v-37.66H18.5v-24.21H6.17v-33.77h1.39v32.41h12.32zm12.33-7.82v21.36h-1.38v-19.99H18.5v-21.65h1.38v20.28h12.33zm12.33 56.14v27.72h-1.38v-26.34H32.21v9.9H18.5v-20.5h1.38v19.14h10.95v-9.92h13.71zM80.17.69h1.37v28.69h-1.37zm13.71 100.12v26.93H81.55v25.27H69.22v28.44H56.87v25.02h-1.38v-26.4h12.35v-28.43h12.33v-25.28H92.5v-24.18H80.17V71.34h1.38v29.47h12.33zM6.87 132.9h24.65v1.37H6.87z"/><path class="cls-1" d="M56.18 108.56h24.68v1.37H56.18zm37.7 110.96v39.76H81.55v38.44H69.22v48.13h-1.38v-49.49h12.33v-38.47H92.5V220.9H80.17v-31.61h1.38v30.23h12.33z"/><path class="cls-1" d="M80.17 229.14h1.37v19.41h-1.37zm215.96 61.05a3.78 3.78 0 1 0 3.79 3.77 3.79 3.79 0 0 0-3.79-3.77zm0 1.38a2.41 2.41 0 1 1-2.41 2.39 2.41 2.41 0 0 1 2.41-2.39zm3.1 18.19a3.77 3.77 0 1 0 3.79 3.79 3.79 3.79 0 0 0-3.79-3.79zm0 1.37a2.41 2.41 0 1 1-2.41 2.42 2.41 2.41 0 0 1 2.41-2.42zm0-37.21a3.77 3.77 0 1 0 3.79 3.77 3.79 3.79 0 0 0-3.79-3.77zm0 1.38a2.39 2.39 0 1 1 0 4.78 2.39 2.39 0 1 1 0-4.78zm12.32-.87a3.77 3.77 0 1 0 3.79 3.77 3.79 3.79 0 0 0-3.79-3.77zm0 1.38a2.39 2.39 0 1 1-2.41 2.39 2.38 2.38 0 0 1 2.41-2.39zm0-57.98a3.78 3.78 0 1 0 3.79 3.77 3.78 3.78 0 0 0-3.79-3.77zm0 1.36a2.41 2.41 0 1 1-2.41 2.41 2.42 2.42 0 0 1 2.41-2.4zM296.13 233a3.78 3.78 0 1 0 3.79 3.78 3.8 3.8 0 0 0-3.79-3.78zm0 1.38a2.41 2.41 0 1 1-2.41 2.41 2.41 2.41 0 0 1 2.41-2.44zM327 233a3.78 3.78 0 1 0 3.79 3.78A3.79 3.79 0 0 0 327 233zm0 1.38a2.41 2.41 0 1 1-2.41 2.41 2.41 2.41 0 0 1 2.41-2.44zm-3.11-101.78a3.78 3.78 0 1 0 3.79 3.78 3.77 3.77 0 0 0-3.79-3.78zm0 1.37a2.41 2.41 0 1 1-2.4 2.41 2.41 2.41 0 0 1 2.4-2.38zm0 109.27a3.78 3.78 0 1 0 3.79 3.77 3.78 3.78 0 0 0-3.79-3.77zm0 1.38a2.4 2.4 0 1 1-2.42 2.39 2.41 2.41 0 0 1 2.42-2.39zm12.32-85.39A3.78 3.78 0 1 0 340 163a3.78 3.78 0 0 0-3.79-3.77zm0 1.37a2.41 2.41 0 1 1-2.38 2.41 2.41 2.41 0 0 1 2.38-2.41zm0-21.75a3.78 3.78 0 1 0 3.79 3.79 3.78 3.78 0 0 0-3.79-3.79zm0 1.37a2.41 2.41 0 1 1-2.38 2.41 2.41 2.41 0 0 1 2.38-2.41zm-24.66-86.54a3.78 3.78 0 1 0 3.79 3.78 3.79 3.79 0 0 0-3.79-3.78zm0 1.38a2.41 2.41 0 1 1-2.41 2.41 2.41 2.41 0 0 1 2.41-2.41zm-12.32 101.07a3.78 3.78 0 1 0 3.79 3.78 3.79 3.79 0 0 0-3.79-3.78zm0 1.37a2.41 2.41 0 1 1-2.41 2.41 2.4 2.4 0 0 1 2.41-2.41zm24.66-78.24a3.78 3.78 0 1 0 3.79 3.74 3.79 3.79 0 0 0-3.79-3.74zm0 1.37a2.41 2.41 0 1 1-2.43 2.37 2.41 2.41 0 0 1 2.43-2.37zm0-49.21a3.78 3.78 0 1 0 3.79 3.78 3.79 3.79 0 0 0-3.79-3.78zm0 1.38a2.41 2.41 0 1 1-2.42 2.41 2.41 2.41 0 0 1 2.42-2.41z"/><path class="cls-1" d="M312.24 293.29v52.02h-1.37v-50.66h-11.64v-1.36h13.01zm-1.37-68.59h1.37v50.83h-1.37zm26.03-58.59v24.65h-12.32v53.45h-1.39v-54.83h12.33v-23.27h1.38zm0-67.03v40.45h-1.38v-39.08h-10.94v15.65h-13.71V60.56h1.37v54.16h10.95V99.08h13.71z"/><path class="cls-1" d="M336.9 51.97v13.44h-12.32v14.54h-1.39V64.04h12.33V53.35h-12.33V38.3h1.39v13.67h12.32zm-38.36 264.66h1.38v28.68h-1.38zm26.04-177.1v26.4h-12.34v28.44h-12.32v25.26h-12.34v24.19h12.34v30.84h-1.38V245.2h-12.33v-26.94h12.33v-25.27h12.33v-28.43h12.32v-25.03h1.39z"/><path class="cls-1" d="M299.23 236.06h24.66v1.38h-24.66zM312.24.69v49.34h-12.32v38.31h-12.34v36.87h12.34v31.5h-1.38v-30.13h-12.33V86.97h12.33V48.65h12.33V.69h1.37z"/><path class="cls-1" d="M298.54 97.45h1.38v19.39h-1.38zM275.61 287.3h1.38v58.01h-1.38z"/><path class="cls-1" d="M276.3 280.08a3.78 3.78 0 1 0 3.79 3.78 3.79 3.79 0 0 0-3.79-3.78zm0 1.38a2.41 2.41 0 1 1-2.42 2.41 2.41 2.41 0 0 1 2.42-2.41zm3.1-92.08a3.78 3.78 0 1 0 3.76 3.78 3.79 3.79 0 0 0-3.76-3.78zm0 1.38a2.4 2.4 0 0 1 0 4.8 2.37 2.37 0 0 1-2.41-2.39 2.4 2.4 0 0 1 2.41-2.41zM264 250.2a3.78 3.78 0 1 0 3.79 3.79 3.8 3.8 0 0 0-3.79-3.79zm0 1.38a2.4 2.4 0 1 1-2.41 2.41 2.42 2.42 0 0 1 2.41-2.41zm15.4-30.67a3.78 3.78 0 1 0 3.76 3.79 3.78 3.78 0 0 0-3.76-3.79zm0 1.36a2.41 2.41 0 1 1-2.4 2.43 2.41 2.41 0 0 1 2.4-2.42zm-80.2 67.92A3.78 3.78 0 1 0 203 294a3.76 3.76 0 0 0-3.8-3.81zm0 1.38a2.39 2.39 0 0 1 2.42 2.39 2.4 2.4 0 1 1-2.42-2.39zm3.1 18.19a3.77 3.77 0 1 0 3.79 3.77 3.77 3.77 0 0 0-3.79-3.77zm0 1.37a2.39 2.39 0 0 1 2.42 2.41 2.42 2.42 0 1 1-2.42-2.41zm0-37.22a3.78 3.78 0 1 0 3.79 3.79 3.79 3.79 0 0 0-3.79-3.79zm0 1.38a2.42 2.42 0 0 1 2.42 2.41 2.42 2.42 0 0 1-4.83 0 2.41 2.41 0 0 1 2.41-2.41zm12.33-.87a3.78 3.78 0 1 0 3.79 3.79 3.78 3.78 0 0 0-3.79-3.79zm0 1.38a2.41 2.41 0 0 1 2.41 2.41 2.4 2.4 0 1 1-2.41-2.41zm0-57.97a3.78 3.78 0 0 0 0 7.56 3.78 3.78 0 1 0 0-7.56zm0 1.36a2.41 2.41 0 1 1-2.38 2.41 2.39 2.39 0 0 1 2.38-2.4zM199.2 233a3.78 3.78 0 1 0 3.79 3.78 3.77 3.77 0 0 0-3.79-3.78zm0 1.38a2.42 2.42 0 0 1 2.42 2.41 2.4 2.4 0 0 1-4.81 0 2.41 2.41 0 0 1 2.39-2.44zm30.86-1.38a3.78 3.78 0 1 0 3.79 3.78 3.8 3.8 0 0 0-3.79-3.78zm0 1.38a2.42 2.42 0 0 1 2.42 2.41 2.42 2.42 0 0 1-4.84 0 2.41 2.41 0 0 1 2.42-2.44zM227 132.6a3.78 3.78 0 1 0 3.76 3.78 3.8 3.8 0 0 0-3.76-3.78zm0 1.37a2.41 2.41 0 1 1-2.41 2.41A2.41 2.41 0 0 1 227 134zm0 109.27a3.78 3.78 0 1 0 3.79 3.77 3.77 3.77 0 0 0-3.79-3.77zm0 1.38a2.4 2.4 0 1 1-2.38 2.39 2.39 2.39 0 0 1 2.38-2.39zm12.32-85.39a3.78 3.78 0 1 0 3.75 3.78 3.79 3.79 0 0 0-3.75-3.78zm0 1.37a2.41 2.41 0 1 1-2.42 2.41 2.41 2.41 0 0 1 2.42-2.41zm0-21.75a3.78 3.78 0 1 0 3.75 3.79 3.79 3.79 0 0 0-3.75-3.79zm0 1.37a2.41 2.41 0 1 1-2.42 2.41 2.41 2.41 0 0 1 2.42-2.41zm-24.69-86.54a3.78 3.78 0 1 0 3.79 3.78 3.77 3.77 0 0 0-3.79-3.78zm0 1.38a2.41 2.41 0 1 1-2.38 2.41 2.41 2.41 0 0 1 2.38-2.41zM202.3 156.13a3.78 3.78 0 1 0 3.79 3.78 3.78 3.78 0 0 0-3.79-3.78zm0 1.37a2.41 2.41 0 1 1-2.41 2.41 2.41 2.41 0 0 1 2.41-2.41zM227 79.26a3.78 3.78 0 1 0 3.75 3.74 3.78 3.78 0 0 0-3.75-3.74zm0 1.37a2.41 2.41 0 1 1-2.43 2.37 2.42 2.42 0 0 1 2.43-2.37zm0-49.21a3.78 3.78 0 1 0 3.79 3.78 3.78 3.78 0 0 0-3.79-3.78zm0 1.38a2.41 2.41 0 1 1-2.38 2.41A2.41 2.41 0 0 1 227 32.8zm37 136.42a3.78 3.78 0 1 0 3.79 3.78 3.79 3.79 0 0 0-3.79-3.78zm0 1.37a2.41 2.41 0 1 1-2.41 2.41 2.42 2.42 0 0 1 2.41-2.41zm-15.46-48.76a3.78 3.78 0 1 0 3.79 3.78 3.8 3.8 0 0 0-3.79-3.78zm0 1.37a2.41 2.41 0 1 1-2.41 2.41 2.41 2.41 0 0 1 2.41-2.41zM264 111.14a3.78 3.78 0 1 0 3.76 3.78 3.8 3.8 0 0 0-3.76-3.78zm0 1.38a2.41 2.41 0 1 1-2.41 2.41 2.41 2.41 0 0 1 2.41-2.41zm-12.36-48.98a3.78 3.78 0 1 0 3.76 3.78 3.79 3.79 0 0 0-3.76-3.78zm0 1.37a2.41 2.41 0 1 1-2.41 2.41 2.4 2.4 0 0 1 2.41-2.4zM264 43.94a3.78 3.78 0 1 0 3.76 3.78 3.8 3.8 0 0 0-3.76-3.78zm0 1.37a2.41 2.41 0 1 1-2.41 2.41 2.41 2.41 0 0 1 2.41-2.41zM239.32 0a3.78 3.78 0 1 0 3.75 3.78A3.79 3.79 0 0 0 239.32 0zm0 1.37a2.41 2.41 0 1 1-2.42 2.41 2.41 2.41 0 0 1 2.42-2.41zm36.98 114.28a3.78 3.78 0 1 0 3.79 3.78 3.79 3.79 0 0 0-3.79-3.78zm0 1.37a2.41 2.41 0 1 1-2.42 2.41 2.41 2.41 0 0 1 2.42-2.43zm0-103.4a3.78 3.78 0 1 0 3.79 3.78 3.79 3.79 0 0 0-3.79-3.78zm0 1.37a2.41 2.41 0 1 1-2.42 2.41 2.41 2.41 0 0 1 2.42-2.4zM264 128.49a3.78 3.78 0 1 0 3.76 3.78 3.8 3.8 0 0 0-3.76-3.78zm0 1.37a2.41 2.41 0 1 1-2.41 2.41 2.41 2.41 0 0 1 2.41-2.41zm-12.36 40.73a3.78 3.78 0 1 0 3.76 3.78 3.79 3.79 0 0 0-3.76-3.78zm0 1.38a2.41 2.41 0 1 1-2.41 2.41 2.39 2.39 0 0 1 2.41-2.38zm0 123.83a3.78 3.78 0 1 0 3.76 3.77 3.78 3.78 0 0 0-3.76-3.77zm0 1.37a2.41 2.41 0 1 1-2.41 2.41 2.4 2.4 0 0 1 2.41-2.41z"/><path class="cls-1" d="M263.29 256.57h1.37v88.74h-1.37zm-12.34 46.1h1.38v42.64h-1.38z"/><path class="cls-1" d="M276.3 224.01v1.38h-23.97v49.41H240v70.51h-1.37v-71.89h12.32v-49.41h25.35z"/><path class="cls-1" d="M276.3 192.48v1.37h-13.01v-12.4h-10.96v22.39H240v50.4h-12.35v91.07h-1.39v-92.45h12.37v-50.4h12.32v-22.39h13.7v12.41h11.65zm-60.98 100.81v52.02h-1.38v-50.66H202.3v-1.36h13.02zm-1.38-68.59h1.38v50.83h-1.38zM240 166.11v24.65h-12.35v53.45h-1.39v-54.83h12.37v-23.27H240zm36.99-41.19v23.35h-12.34v21.72h-1.36V146.9h12.32v-20.6h-23.97v-1.38h25.35z"/><path class="cls-1" d="M264.65 135.37v7h-12.32v28.91h-1.38V141h12.34v-5.63h1.36zM240 99.08v40.45h-1.37v-39.08h-10.98v15.65h-13.71V60.56h1.38v54.16h10.94V99.08H240z"/><path class="cls-1" d="M240 51.97v13.44h-12.35v14.54h-1.39V64.04h12.37V53.35h-12.34V38.3h1.38v13.67H240zm36.99-31.47v37.66h-12.34v24.2h12.34v33.78h-1.38v-32.4h-12.32V56.79h12.32V20.5h1.38zm-12.34 69.68v21.65h-1.36V91.56h-12.34V70.19h1.38v19.99h12.32zm0-66.05v20.5h-1.36V25.5h-10.96v9.9h-13.7V7.68H240v26.35h10.95v-9.9h13.7zm-63.03 292.5h1.37v28.68h-1.37zm26.05-177.1v26.4h-12.35v28.44h-12.33v25.26h-12.33v24.19h12.33v30.84h-1.37V245.2h-12.34v-26.94h12.34v-25.27h12.32v-28.43h12.35v-25.03h1.38zm51.73 69.1a3.78 3.78 0 1 0 3.76 3.79 3.79 3.79 0 0 0-3.76-3.79zm0 1.38a2.41 2.41 0 0 1 0 4.81 2.38 2.38 0 0 1-2.41-2.41 2.41 2.41 0 0 1 2.41-2.41zm-30.86-1.38a3.78 3.78 0 1 0 3.79 3.79 3.8 3.8 0 0 0-3.79-3.79zm0 1.38a2.41 2.41 0 1 1 0 4.81 2.38 2.38 0 0 1-2.41-2.41 2.41 2.41 0 0 1 2.41-2.41z"/><path class="cls-1" d="M251.64 211.74h24.66v1.37h-24.66zm-143.69 89.09a3.78 3.78 0 1 0 3.76 3.79 3.8 3.8 0 0 0-3.76-3.79zm0 1.38a2.4 2.4 0 0 1 0 4.8 2.37 2.37 0 0 1-2.42-2.39 2.41 2.41 0 0 1 2.42-2.41zm-30.87-1.38a3.78 3.78 0 1 0 3.78 3.79 3.8 3.8 0 0 0-3.78-3.79zm0 1.38a2.4 2.4 0 1 1 0 4.8 2.37 2.37 0 0 1-2.42-2.39 2.41 2.41 0 0 1 2.42-2.41z"/><path class="cls-1" d="M80.19 303.93h24.65v1.38H80.19zm8.53 6.23a3.78 3.78 0 1 0 3.79-3.76 3.78 3.78 0 0 0-3.79 3.76zm1.37 0a2.41 2.41 0 0 1 4.81 0 2.38 2.38 0 0 1-2.4 2.41 2.41 2.41 0 0 1-2.4-2.41zm-1.37 30.79a3.78 3.78 0 1 0 3.79-3.77 3.79 3.79 0 0 0-3.79 3.77zm1.37 0a2.41 2.41 0 0 1 4.81 0 2.38 2.38 0 0 1-2.4 2.42 2.41 2.41 0 0 1-2.4-2.42z"/><path class="cls-1" d="M91.82 313.25h1.37v24.6h-1.37zm-3.1-175.83a3.78 3.78 0 1 0 3.79-3.76 3.79 3.79 0 0 0-3.79 3.76zm1.37 0a2.41 2.41 0 0 1 4.81 0 2.38 2.38 0 0 1-2.4 2.41 2.41 2.41 0 0 1-2.4-2.41zm-1.37 30.8a3.78 3.78 0 1 0 3.79-3.79 3.79 3.79 0 0 0-3.79 3.79zm1.37 0a2.41 2.41 0 1 1 4.81 0 2.38 2.38 0 0 1-2.4 2.41 2.41 2.41 0 0 1-2.4-2.41z"/><path class="cls-1" d="M91.82 140.51h1.37v24.61h-1.37zm190.61 7.09a3.78 3.78 0 1 0 3.79-3.76 3.79 3.79 0 0 0-3.79 3.76zm1.38 0a2.4 2.4 0 1 1 2.41 2.41 2.4 2.4 0 0 1-2.4-2.41zm-1.38 30.8a3.78 3.78 0 1 0 3.79-3.78 3.78 3.78 0 0 0-3.79 3.78zm1.38 0a2.4 2.4 0 1 1 2.41 2.41 2.41 2.41 0 0 1-2.4-2.41z"/><path class="cls-1" d="M285.54 150.69h1.38v24.61h-1.38zM320.8 299a3.78 3.78 0 1 0 7.56 0 3.78 3.78 0 0 0-7.56 0zm1.37 0a2.41 2.41 0 1 1 2.42 2.41 2.4 2.4 0 0 1-2.43-2.41zm-1.37 30.83a3.78 3.78 0 1 0 3.79-3.78 3.79 3.79 0 0 0-3.79 3.78zm1.37 0a2.41 2.41 0 1 1 4.82 0 2.39 2.39 0 0 1-2.4 2.41 2.42 2.42 0 0 1-2.43-2.41z"/><path class="cls-1" d="M323.9 302.13h1.37v24.61h-1.37zM189.28 10.74A3.78 3.78 0 1 0 193.07 7a3.79 3.79 0 0 0-3.79 3.74zm1.38 0a2.41 2.41 0 1 1 2.41 2.41 2.41 2.41 0 0 1-2.41-2.41zm-1.38 30.81a3.78 3.78 0 1 0 3.79-3.78 3.79 3.79 0 0 0-3.79 3.78zm1.38 0a2.41 2.41 0 1 1 4.82 0 2.38 2.38 0 0 1-2.41 2.45 2.41 2.41 0 0 1-2.41-2.45z"/><path class="cls-1" d="M192.38 13.84h1.38v24.61h-1.38zm96.09-3.1a3.78 3.78 0 1 0 3.8-3.74 3.79 3.79 0 0 0-3.8 3.74zm1.38 0a2.4 2.4 0 1 1 2.41 2.41 2.4 2.4 0 0 1-2.4-2.41zm-1.38 30.81a3.78 3.78 0 1 0 3.79-3.78 3.79 3.79 0 0 0-3.79 3.78zm1.38 0a2.4 2.4 0 1 1 4.81 0 2.37 2.37 0 0 1-2.4 2.41 2.4 2.4 0 0 1-2.4-2.41z"/><path class="cls-1" d="M291.58 13.84h1.38v24.61h-1.38zm39.2-3.11A3.78 3.78 0 1 0 334.57 7a3.79 3.79 0 0 0-3.79 3.73zm1.37 0a2.41 2.41 0 0 1 4.82 0 2.38 2.38 0 0 1-2.4 2.41 2.41 2.41 0 0 1-2.42-2.41zm-1.37 30.8a3.78 3.78 0 1 0 3.79-3.78 3.79 3.79 0 0 0-3.79 3.78zm1.37 0a2.41 2.41 0 1 1 4.82 0 2.38 2.38 0 0 1-2.4 2.41 2.41 2.41 0 0 1-2.42-2.41z"/><path class="cls-1" d="M333.88 13.83h1.37v24.61h-1.37zm-3.1 242.24a3.78 3.78 0 1 0 3.79-3.76 3.78 3.78 0 0 0-3.79 3.76zm1.37 0a2.41 2.41 0 0 1 4.82 0 2.39 2.39 0 0 1-2.4 2.41 2.42 2.42 0 0 1-2.42-2.41zm-1.37 30.79a3.78 3.78 0 1 0 3.79-3.77 3.78 3.78 0 0 0-3.79 3.77zm1.37 0a2.41 2.41 0 0 1 4.82 0 2.39 2.39 0 0 1-2.4 2.42 2.42 2.42 0 0 1-2.42-2.42z"/><path class="cls-1" d="M333.88 259.16h1.37v24.6h-1.37zm-148.37-91.59a3.78 3.78 0 1 0 3.79-3.76 3.79 3.79 0 0 0-3.79 3.76zm1.38 0a2.41 2.41 0 1 1 2.41 2.43 2.4 2.4 0 0 1-2.41-2.43zm-1.38 30.81a3.78 3.78 0 1 0 3.79-3.79 3.79 3.79 0 0 0-3.79 3.79zm1.38 0a2.41 2.41 0 1 1 4.82 0 2.39 2.39 0 0 1-2.41 2.41 2.41 2.41 0 0 1-2.41-2.41z"/><path class="cls-1" d="M188.62 170.67h1.37v24.61h-1.37zm86.99 67.91a3.78 3.78 0 1 0 3.79-3.76 3.79 3.79 0 0 0-3.79 3.76zm1.38 0a2.4 2.4 0 1 1 2.41 2.42 2.4 2.4 0 0 1-2.4-2.42zm-1.38 30.8a3.78 3.78 0 1 0 3.79-3.79 3.78 3.78 0 0 0-3.79 3.79zm1.38 0a2.4 2.4 0 1 1 2.41 2.41 2.41 2.41 0 0 1-2.4-2.41z"/><path class="cls-1" d="M278.71 241.67h1.38v24.61h-1.38zm-76.41-5.61h24.69v1.38H202.3zM215.32.69v49.34h-12.33v38.31h-12.33v36.87h12.33v31.5h-1.37v-30.13h-12.34V86.97h12.34V48.65h12.32V.69h1.38z"/><path class="cls-1" d="M201.62 97.45h1.37v19.39h-1.37zM178.81.69h1.38v58h-1.38z"/><path class="cls-1" d="M179.51 58.36a3.77 3.77 0 1 0 3.79 3.76 3.78 3.78 0 0 0-3.79-3.76zm0 1.37a2.4 2.4 0 1 1-2.41 2.39 2.4 2.4 0 0 1 2.41-2.39zm3.1 89.33a3.78 3.78 0 1 0 3.76 3.77 3.78 3.78 0 0 0-3.76-3.77zm0 1.37a2.4 2.4 0 1 1-2.41 2.4 2.41 2.41 0 0 1 2.41-2.39zm-15.43-62.19A3.78 3.78 0 1 0 171 92a3.79 3.79 0 0 0-3.82-3.76zm0 1.37a2.4 2.4 0 1 1 0 4.8 2.37 2.37 0 0 1-2.41-2.41 2.41 2.41 0 0 1 2.41-2.38zm15.43 27.93a3.77 3.77 0 1 0 3.76 3.76 3.78 3.78 0 0 0-3.76-3.76zm0 1.37a2.4 2.4 0 1 1-2.41 2.39 2.4 2.4 0 0 1 2.41-2.39zm0 10.9a3.78 3.78 0 1 0 3.76 3.77 3.78 3.78 0 0 0-3.76-3.77zm0 1.38a2.4 2.4 0 1 1-2.41 2.39 2.4 2.4 0 0 1 2.41-2.39zm-30.86-1.39a3.78 3.78 0 1 0 3.79 3.78 3.79 3.79 0 0 0-3.79-3.78zm0 1.38a2.41 2.41 0 1 1-2.42 2.41 2.41 2.41 0 0 1 2.42-2.41zm-49.34-82.93a3.77 3.77 0 1 0 3.8 3.75 3.77 3.77 0 0 0-3.8-3.75zm0 1.37a2.41 2.41 0 0 1 2.41 2.38 2.4 2.4 0 1 1-2.41-2.41zm3.11-20.93a3.78 3.78 0 1 0 3.79 3.77 3.78 3.78 0 0 0-3.79-3.77zm0 1.37a2.42 2.42 0 0 1 2.42 2.4 2.42 2.42 0 1 1-2.42-2.4zm0 34.48a3.77 3.77 0 1 0 3.79 3.77 3.78 3.78 0 0 0-3.79-3.77zm0 1.37a2.39 2.39 0 0 1 2.42 2.4 2.42 2.42 0 1 1-2.42-2.4zM117.84 64a3.78 3.78 0 1 0 3.78 3.77 3.76 3.76 0 0 0-3.78-3.77zm0 1.37a2.38 2.38 0 0 1 2.41 2.4 2.4 2.4 0 1 1-4.8 0 2.39 2.39 0 0 1 2.39-2.37zm0 55.25a3.77 3.77 0 1 0 3.78 3.78 3.78 3.78 0 0 0-3.78-3.78zm0 1.37a2.4 2.4 0 1 1-2.39 2.41 2.39 2.39 0 0 1 2.39-2.4zm-15.43-16.53a3.78 3.78 0 1 0 3.79 3.78 3.78 3.78 0 0 0-3.79-3.78zm0 1.37a2.41 2.41 0 1 1-2.39 2.41 2.41 2.41 0 0 1 2.39-2.41zm30.87-1.35a3.77 3.77 0 1 0 3.78 3.77 3.78 3.78 0 0 0-3.78-3.77zm0 1.37a2.38 2.38 0 0 1 2.41 2.4 2.41 2.41 0 1 1-2.41-2.4zm-3.09 98.98a3.78 3.78 0 1 0 3.76 3.78 3.79 3.79 0 0 0-3.76-3.78zm0 1.38a2.41 2.41 0 1 1-2.41 2.41 2.4 2.4 0 0 1 2.41-2.41zm-.02-112.01A3.77 3.77 0 1 0 134 99a3.77 3.77 0 0 0-3.83-3.8zm0 1.37a2.42 2.42 0 0 1 2.41 2.43 2.4 2.4 0 1 1-2.42-2.41zm12.35 82.63a3.78 3.78 0 1 0 3.76 3.79 3.8 3.8 0 0 0-3.76-3.79zm0 1.38a2.41 2.41 0 1 1-2.41 2.41 2.39 2.39 0 0 1 2.41-2.41zm0 19.01a3.78 3.78 0 1 0 3.76 3.78 3.79 3.79 0 0 0-3.76-3.78zm0 1.38a2.41 2.41 0 1 1-2.41 2.41 2.39 2.39 0 0 1 2.41-2.38zm-24.68 83.78a3.78 3.78 0 1 0 3.78 3.79 3.78 3.78 0 0 0-3.78-3.79zm0 1.38a2.41 2.41 0 1 1-2.39 2.41 2.41 2.41 0 0 1 2.39-2.41zM105.52 182.3a3.78 3.78 0 1 0 3.79 3.78 3.79 3.79 0 0 0-3.79-3.78zm0 1.38a2.41 2.41 0 1 1-2.42 2.41 2.42 2.42 0 0 1 2.42-2.41zm24.65 75.5a3.78 3.78 0 1 0 3.79 3.77 3.77 3.77 0 0 0-3.79-3.77zm0 1.36a2.41 2.41 0 1 1-2.38 2.41 2.39 2.39 0 0 1 2.38-2.41zm0 46.46a3.78 3.78 0 1 0 3.79 3.79 3.78 3.78 0 0 0-3.79-3.79zm0 1.38a2.41 2.41 0 1 1-2.38 2.41 2.4 2.4 0 0 1 2.38-2.4zm37.01-139.16A3.78 3.78 0 1 0 171 173a3.79 3.79 0 0 0-3.82-3.78zm0 1.37a2.41 2.41 0 1 1-2.42 2.41 2.42 2.42 0 0 1 2.42-2.41zm-15.43 46.01a3.78 3.78 0 1 0 3.79 3.78 3.79 3.79 0 0 0-3.79-3.78zm0 1.38a2.41 2.41 0 1 1-2.42 2.41 2.41 2.41 0 0 1 2.42-2.39zm15.43 9.31a3.78 3.78 0 1 0 3.76 3.78 3.79 3.79 0 0 0-3.76-3.78zm0 1.38a2.41 2.41 0 0 1 0 4.81 2.41 2.41 0 1 1 0-4.81zm-12.33 46.22a3.78 3.78 0 1 0 3.76 3.78 3.79 3.79 0 0 0-3.76-3.78zm0 1.38a2.41 2.41 0 0 1 0 4.81 2.41 2.41 0 1 1 0-4.81zm12.33 18.22a3.78 3.78 0 1 0 3.76 3.79 3.8 3.8 0 0 0-3.76-3.79zm0 1.38a2.41 2.41 0 1 1-2.42 2.41 2.39 2.39 0 0 1 2.42-2.41zm-24.66 42.56a3.78 3.78 0 1 0 3.76 3.79 3.8 3.8 0 0 0-3.76-3.79zm0 1.38a2.41 2.41 0 1 1-2.41 2.41 2.4 2.4 0 0 1 2.41-2.41zm36.99-117.03a3.78 3.78 0 1 0 3.79 3.78 3.79 3.79 0 0 0-3.79-3.78zm0 1.38a2.41 2.41 0 1 1-2.41 2.41 2.41 2.41 0 0 1 2.41-2.41zm0 100.65a3.78 3.78 0 1 0 3.79 3.78 3.79 3.79 0 0 0-3.79-3.78zm0 1.38a2.41 2.41 0 1 1-2.41 2.41 2.41 2.41 0 0 1 2.41-2.41zm-12.33-116.25a3.78 3.78 0 1 0 3.76 3.79 3.8 3.8 0 0 0-3.76-3.79zm0 1.38a2.41 2.41 0 1 1-2.42 2.41 2.39 2.39 0 0 1 2.42-2.41zm-12.33-43.48a3.78 3.78 0 1 0 3.76 3.79 3.79 3.79 0 0 0-3.76-3.79zm0 1.37a2.41 2.41 0 1 1-2.42 2.41 2.4 2.4 0 0 1 2.42-2.4zm0-126.56a3.77 3.77 0 1 0 3.76 3.78 3.79 3.79 0 0 0-3.76-3.78zm0 1.37a2.4 2.4 0 0 1 0 4.8 2.37 2.37 0 0 1-2.42-2.39 2.41 2.41 0 0 1 2.42-2.43z"/><path class="cls-1" d="M166.49.69h1.37v88.74h-1.37zm-12.33 0h1.38v42.64h-1.38z"/><path class="cls-1" d="M179.5 120.62v1.37h-25.34V72.57h-12.32V.69h1.38V71.2h12.32v49.42h23.96z"/><path class="cls-1" d="M179.5 152.15v1.37h-11.63v12.41h-13.71v-22.4h-12.32v-50.4h-12.36V.69h1.38v91.07h12.36v50.4h12.32v22.4h10.95v-12.41h13.01zM118.53.69v52.03h-13.01v-1.37h11.63V.69h1.38zm-1.38 69.78h1.37v50.83h-1.37zm26.07 84.77v24.65h-1.38v-23.27h-12.36v-54.83h1.38v53.45h12.36zm36.98 42.49v23.34h-25.35v-1.37h23.96v-20.6h-12.32v-23.09h1.38v21.72h12.33z"/><path class="cls-1" d="M167.87 203.63v7h-1.38V205h-12.33v-30.28h1.38v28.91h12.33zm-24.65 2.84v40.45h-13.74v-15.64h-10.95v54.16h-1.38V229.9h13.71v15.65h10.98v-39.08h1.38z"/><path class="cls-1" d="M143.22 280.58v13.44h-12.34v13.68h-1.37v-15.05h12.33v-10.69h-12.36v-15.9h1.38v14.52h12.36zm36.98-50.72v33.77h-12.33v24.21h12.33v37.66h-1.39v-36.28h-12.32v-26.95h12.32v-32.41h1.39zm-12.33 4.31v21.65h-12.33v19.99h-1.38v-21.36h12.33v-20.28h1.38zm0 67.2v20.5h-13.71v-9.9h-10.94v26.34h-1.38v-27.72h13.7v9.92h10.95v-19.14h1.38zM104.82.69h1.38v28.69h-1.38zm26.06 179.38v26.4h-1.37v-25.02h-12.36v-28.44h-12.32v-25.27H92.5v-26.93h12.33V71.34h1.38v30.84H93.88v24.18h12.33v25.28h12.32v28.43h12.35zm23.97-47.17h24.65v1.37h-24.65z"/><path class="cls-1" d="M105.52 108.56h24.68v1.37h-24.68zm13.01 187.65v49.42h-1.38v-48.06h-12.32v-38.38H92.5v-39.71h12.33v-30.19h1.38v31.55H93.88v36.96h12.33v38.41h12.32z"/><path class="cls-1" d="M104.82 229.14h1.38v19.41h-1.38zm-23.95 19.41a3.78 3.78 0 1 0 3.76 3.78 3.78 3.78 0 0 0-3.76-3.78zm0 1.36a2.41 2.41 0 1 1-2.41 2.42 2.4 2.4 0 0 1 2.41-2.41z"/><path class="cls-1" d="M105.53 248.55a3.78 3.78 0 1 0 3.76 3.78 3.79 3.79 0 0 0-3.76-3.78zm0 1.36a2.41 2.41 0 1 1-2.42 2.42 2.4 2.4 0 0 1 2.42-2.41zm0-28.29a3.77 3.77 0 1 0 3.76 3.78 3.79 3.79 0 0 0-3.76-3.78zm0 1.36a2.41 2.41 0 1 1-2.42 2.42 2.4 2.4 0 0 1 2.42-2.4zm96.77-106.84a3.77 3.77 0 1 0 3.75 3.78 3.78 3.78 0 0 0-3.75-3.78zm0 1.37a2.4 2.4 0 1 1-2.42 2.41 2.43 2.43 0 0 1 2.42-2.41zm0-27.61a3.78 3.78 0 1 0 3.7 3.78 3.79 3.79 0 0 0-3.7-3.78zm0 1.37a2.4 2.4 0 1 1-2.42 2.41 2.44 2.44 0 0 1 2.42-2.41zm96.95-1.37a3.78 3.78 0 1 0 0 7.56 3.78 3.78 0 0 0 0-7.56zm0 1.37a2.4 2.4 0 1 1-2.42 2.41 2.43 2.43 0 0 1 2.42-2.41zm0 24.86a3.77 3.77 0 1 0 0 7.55 3.77 3.77 0 0 0 0-7.55zm0 1.37a2.4 2.4 0 1 1-2.42 2.41 2.42 2.42 0 0 1 2.42-2.41zM80.87 221.62a3.77 3.77 0 1 0 3.76 3.78 3.78 3.78 0 0 0-3.76-3.78zm0 1.36a2.41 2.41 0 1 1-2.41 2.42 2.4 2.4 0 0 1 2.41-2.4z"/></g></g></svg>