<svg width="453" height="443" viewBox="0 0 453 443" fill="none" xmlns="http://www.w3.org/2000/svg">
<g clip-path="url(#clip0)">
<path d="M368.924 430.685C368.924 416.18 367.438 391.117 395.267 384.047C396.965 386.151 399.116 387.847 401.558 389.007C404 390.168 406.672 390.764 409.376 390.751C412.08 390.739 414.746 390.118 417.178 388.935C419.609 387.751 421.743 386.036 423.423 383.916L423.586 383.709C423.586 383.709 449.209 388.624 450.557 410.888C451.906 433.152 450.557 431.023 450.557 431.023L368.924 430.685Z" fill="#FDD24A"/>
<path d="M234.433 441.364H165.959L141.749 339.699L106.884 349.276L107.058 336.102L266.092 286.743V297.837L233.696 308.888C233.696 308.888 234.433 440.628 234.433 441.364Z" fill="#FDD24A"/>
<path d="M27.0556 55.6127L15.5295 29.9409L46.0191 33.7852L27.0556 55.6127ZM22.8896 35.3897L28.2726 47.3751L37.1268 37.1841L22.8896 35.3897Z" fill="#16B8E2"/>
<path d="M218.646 205.048L214.727 202.872L222.271 189.273L234.913 195.445L238.498 166.161L260.041 191.616L256.621 194.516L241.702 176.887L238.6 202.234L224.127 195.168L218.646 205.048Z" fill="#16B8E2"/>
<path d="M421.213 34.6218C419.071 34.6215 416.977 33.9856 415.196 32.7946C413.415 31.6035 412.027 29.9108 411.207 27.9304C410.388 25.95 410.173 23.7709 410.591 21.6687C411.01 19.5665 412.041 17.6355 413.556 16.1199C415.071 14.6043 417.001 13.5723 419.102 13.1542C421.203 12.7361 423.381 12.9508 425.36 13.7711C427.339 14.5915 429.031 15.9806 430.221 17.7628C431.411 19.545 432.046 21.6404 432.046 23.7838C432.043 26.6575 430.901 29.4125 428.87 31.4443C426.839 33.4761 424.085 34.6189 421.213 34.6218ZM421.213 17.4313C419.958 17.4315 418.73 17.8044 417.686 18.5026C416.643 19.2008 415.829 20.193 415.349 21.3539C414.868 22.5147 414.743 23.7919 414.988 25.0241C415.233 26.2563 415.838 27.3881 416.726 28.2764C417.614 29.1647 418.745 29.7696 419.977 30.0146C421.208 30.2596 422.485 30.1337 423.645 29.6528C424.805 29.172 425.796 28.3577 426.494 27.313C427.191 26.2684 427.564 25.0402 427.564 23.7838C427.562 22.0994 426.892 20.4845 425.701 19.2935C424.511 18.1026 422.897 17.4329 421.213 17.4313Z" fill="#16B8E2"/>
<path d="M231.513 59.197H151.891V63.6822H231.513V59.197Z" fill="#FDD24A"/>
<path d="M231.743 80.8857H187.698V85.371H231.743V80.8857Z" fill="#FDD24A"/>
<path d="M171.681 80.8857H151.659V85.371H171.681V80.8857Z" fill="#FDD24A"/>
<path d="M165.71 158.761L167.491 155.041C169.759 150.464 170.817 145.383 170.564 140.281C170.013 130.855 167.865 126.729 166.641 126.342C162.762 125.106 158.995 123.542 155.382 121.666C129.471 111.939 113.381 92.8755 113.381 71.8905C113.381 40.9116 148.515 15.707 191.702 15.707C234.889 15.707 270.023 40.9116 270.023 71.8905C270.023 95.9839 248.673 117.338 216.876 125.063C216.063 125.369 215.145 125.709 214.182 126.033C210.08 134.696 203.864 142.187 196.108 147.814C188.351 153.441 179.304 157.024 169.8 158.232L165.71 158.761ZM191.702 20.1922C150.987 20.1922 117.863 43.3834 117.863 71.8905C117.863 90.9907 132.89 108.472 157.077 117.512L157.327 117.623C160.748 119.407 164.316 120.893 167.992 122.065C173.042 123.662 174.612 132.71 175.038 140.019C175.285 144.473 174.636 148.931 173.13 153.13C181.28 151.468 188.919 147.894 195.42 142.703C201.922 137.512 207.099 130.852 210.527 123.269L210.941 122.364L211.89 122.065C213.14 121.67 214.376 121.213 215.421 120.818L215.688 120.736C245.506 113.535 265.541 93.9049 265.541 71.8905C265.541 43.3834 232.418 20.1922 191.702 20.1922H191.702Z" fill="#FDD24A"/>
<path d="M146.879 218.833C145.094 218.863 143.316 218.592 141.622 218.031C139.18 217.129 137.196 215.293 136.106 212.928C135.017 210.562 134.912 207.86 135.813 205.417C136.715 202.974 138.549 200.989 140.914 199.899C143.278 198.809 145.978 198.703 148.42 199.605C152.792 201.219 159.829 207.894 157.754 213.521C156.329 217.389 151.302 218.833 146.879 218.833ZM145.019 203.48C143.767 203.481 142.556 203.922 141.597 204.727C140.638 205.531 139.992 206.647 139.772 207.88C139.552 209.112 139.772 210.383 140.394 211.47C141.016 212.556 142 213.389 143.174 213.823C146.462 215.036 152.711 214.239 153.549 211.967C154.386 209.694 150.158 205.028 146.867 203.813C146.276 203.594 145.65 203.481 145.019 203.48Z" fill="#16B8E2"/>
<path d="M211.074 282.004L204.554 265.581C196.641 245.656 181.802 229.261 162.768 219.414L154.178 214.971L156.235 210.988L164.825 215.431C184.821 225.772 200.409 242.995 208.719 263.926L215.24 280.348L211.074 282.004Z" fill="#16B8E2"/>
<path d="M372.706 263.649C357.459 263.65 342.554 259.126 329.876 250.65C317.199 242.174 307.318 230.127 301.483 216.033C295.648 201.938 294.121 186.428 297.096 171.466C300.07 156.503 307.413 142.758 318.194 131.971C328.975 121.183 342.712 113.837 357.666 110.86C372.62 107.884 388.12 109.412 402.207 115.25C416.293 121.088 428.333 130.975 436.804 143.66C445.275 156.345 449.796 171.259 449.796 186.515C449.772 206.965 441.643 226.571 427.191 241.032C412.739 255.492 393.144 263.626 372.706 263.649ZM372.706 113.863C358.345 113.863 344.307 118.124 332.367 126.107C320.426 134.09 311.12 145.436 305.624 158.711C300.129 171.986 298.691 186.594 301.492 200.687C304.294 214.779 311.209 227.724 321.363 237.885C331.517 248.045 344.455 254.965 358.539 257.768C372.624 260.572 387.223 259.133 400.49 253.634C413.758 248.136 425.098 238.824 433.076 226.877C441.054 214.93 445.313 200.884 445.313 186.515C445.292 167.253 437.635 148.787 424.023 135.167C410.411 121.547 391.956 113.885 372.706 113.863Z" fill="#FDD24A"/>
<path d="M404.799 249.23H400.317V237.642H352.405V249.23H347.923V233.156H404.799V249.23Z" fill="#FDD24A"/>
<path d="M379.396 169.799H374.914V161.811C374.843 160.768 374.38 159.791 373.617 159.077C372.854 158.364 371.848 157.967 370.804 157.967C369.759 157.967 368.754 158.364 367.991 159.077C367.228 159.791 366.764 160.768 366.694 161.811V168.21H362.211V161.811C362.282 159.578 363.218 157.46 364.822 155.905C366.426 154.351 368.571 153.481 370.804 153.481C373.037 153.481 375.182 154.351 376.786 155.905C378.389 157.46 379.326 159.578 379.396 161.811V169.799Z" fill="#FDD24A"/>
<path d="M392.097 172.976H387.614V164.718C387.544 163.675 387.081 162.698 386.318 161.984C385.555 161.271 384.55 160.874 383.505 160.874C382.461 160.874 381.455 161.271 380.693 161.984C379.93 162.698 379.466 163.675 379.396 164.718V171.387H374.914V164.718C374.984 162.485 375.92 160.367 377.524 158.813C379.127 157.258 381.272 156.389 383.505 156.389C385.738 156.389 387.883 157.258 389.487 158.813C391.09 160.367 392.026 162.485 392.097 164.718V172.976Z" fill="#FDD24A"/>
<path d="M358.756 234.932H354.273V230.638C354.275 229.475 353.878 228.347 353.15 227.441C352.72 227.022 352.145 226.515 351.459 225.908C350.014 224.629 348.034 222.877 345.886 220.649C339.47 213.242 335.57 202.379 334.394 197.658C334.362 197.539 334.283 197.314 334.173 196.986C333.673 195.489 332.632 192.375 331.405 187.249L328.439 174.823L330.528 174.249C332.925 173.585 335.471 173.701 337.798 174.581C340.124 175.461 342.111 177.059 343.47 179.143L344.857 181.348L347.239 187.341C347.855 188.801 348.616 190.195 349.511 191.504V131.582C349.51 130.301 349.794 129.036 350.343 127.879C350.893 126.722 351.693 125.701 352.685 124.892C353.678 124.083 354.838 123.506 356.082 123.202C357.326 122.898 358.622 122.875 359.875 123.135C361.838 123.588 363.586 124.701 364.827 126.289C366.069 127.877 366.727 129.843 366.694 131.858V163.443H362.211V131.858C362.237 130.877 361.931 129.915 361.343 129.129C360.755 128.343 359.919 127.779 358.971 127.526C358.372 127.396 357.751 127.403 357.155 127.547C356.559 127.691 356.003 127.969 355.53 128.359C355.05 128.748 354.663 129.239 354.397 129.797C354.131 130.354 353.993 130.965 353.993 131.582V191.88C353.992 192.817 353.691 193.728 353.133 194.48C352.576 195.232 351.792 195.785 350.897 196.058C350.002 196.331 349.043 196.309 348.161 195.995C347.279 195.682 346.521 195.094 345.998 194.317C344.84 192.651 343.859 190.868 343.073 188.997L340.776 183.215L339.72 181.602C339.083 180.624 338.22 179.815 337.203 179.242C336.187 178.67 335.047 178.352 333.881 178.315L335.765 186.205C336.946 191.14 337.945 194.127 338.425 195.564C338.593 196.068 338.7 196.402 338.742 196.571C340.007 201.641 343.833 211.43 349.194 217.624C351.138 219.635 353.039 221.319 354.428 222.548C355.177 223.211 355.803 223.766 356.271 224.221C357.873 225.974 358.759 228.264 358.756 230.638V234.932Z" fill="#FDD24A"/>
<path d="M396.861 233.344H392.379V228.554C392.433 226.908 392.867 225.297 393.647 223.846L394.516 222.372C395.327 221.084 396.05 219.743 396.682 218.358C397.436 216.562 397.978 214.684 398.295 212.762C398.438 211.922 398.541 211.089 398.598 210.283C398.792 207.513 398.73 205.729 398.73 205.711L398.729 168.597C398.683 167.756 398.31 166.966 397.691 166.395C397.072 165.824 396.255 165.517 395.414 165.539C394.534 165.533 393.685 165.865 393.042 166.467C392.823 166.683 392.63 166.924 392.469 167.187C392.222 167.616 392.094 168.103 392.097 168.597V171.387H387.614V168.597C387.616 167.274 387.974 165.975 388.652 164.838C389.014 164.247 389.449 163.705 389.946 163.223C391.424 161.827 393.381 161.05 395.414 161.053C397.447 161.022 399.409 161.798 400.871 163.213C402.333 164.627 403.174 166.563 403.212 168.597V205.628C403.213 205.628 403.281 207.569 403.069 210.6C403.001 211.552 402.882 212.533 402.714 213.515C402.337 215.783 401.697 217.999 400.805 220.117C400.098 221.686 399.284 223.205 398.37 224.663L397.519 226.105C397.138 226.869 396.914 227.701 396.861 228.554V233.344Z" fill="#FDD24A"/>
<path d="M99.0719 376.566H1.05592L0.82253 374.587C-1.36632 356.108 1.11435 277.234 4.72583 250.474C7.91132 226.012 15.7349 202.383 27.7764 180.856L28.9175 178.851L30.8875 180.048C37.1951 183.881 43.9536 186.916 51.008 189.083C55.9029 190.84 61.0649 191.735 66.2652 191.73L69.5337 191.828L72.1559 196.915C78.8651 209.891 87.2146 226.042 92.5085 243.696C95.6764 254.259 100.884 276.302 101.372 290.479L96.8919 290.634C96.4191 276.879 91.3193 255.333 88.2157 244.983C83.0414 227.731 74.7985 211.786 68.1738 198.976L66.7584 196.231L66.1485 196.214C61.25 196.087 58.2923 196.009 49.6933 193.37C43.0265 191.322 36.6091 188.536 30.5605 185.064C19.5006 205.593 12.2523 227.959 9.16748 251.076C5.70049 276.761 3.27242 350.736 5.07607 372.08H94.5178C94.5208 368.207 94.7032 363.398 94.9584 356.708L95.0256 354.954L99.5053 355.124L99.4382 356.879C99.1332 364.872 98.9318 370.153 99.0223 374.275L99.0719 376.566Z" fill="#142C82"/>
<path d="M73.3583 177.889C72.7293 177.889 72.0999 177.865 71.47 177.817C67.8705 177.46 64.3776 176.392 61.1939 174.674C58.0103 172.956 55.1993 170.622 52.9239 167.809L56.4172 164.997C58.3037 167.337 60.6354 169.28 63.2774 170.713C65.9193 172.146 68.819 173.04 71.8086 173.344C74.4765 173.544 77.1579 173.226 79.7056 172.409C80.5944 172.11 81.3906 171.585 82.0166 170.886C82.6426 170.188 83.0771 169.339 83.2778 168.422C83.4864 167.526 83.6893 166.687 83.8847 165.882C84.9976 161.748 85.6774 157.509 85.913 153.235C86.4849 143.437 85.7285 133.606 83.6645 124.011L88.0477 123.068C90.1965 133.059 90.9834 143.295 90.3869 153.498C90.1355 158.039 89.4162 162.543 88.2405 166.937C88.0492 167.731 87.8493 168.555 87.6435 169.438C87.2651 171.113 86.4594 172.661 85.305 173.931C84.1507 175.201 82.687 176.15 81.0568 176.686C78.5675 177.48 75.9709 177.885 73.3583 177.889Z" fill="#142C82"/>
<path d="M45.0327 152.397C41.1641 152.426 37.4071 151.1 34.4127 148.649C30.0002 144.882 26.863 137.824 29.742 132.159C30.3985 130.853 31.3272 129.703 32.4654 128.787C33.6036 127.87 34.925 127.208 36.3404 126.846C40.2583 126.065 44.417 128.097 47.3806 131.89L47.417 131.731C48.0075 129.166 49.5813 126.935 51.7996 125.519C54.0179 124.103 56.7032 123.615 59.2772 124.161C61.6881 124.678 64.1454 124.948 66.6111 124.967C73.3022 124.973 79.8719 123.179 85.6328 119.774L87.9151 123.634C81.4509 127.447 74.083 129.457 66.5789 129.452C63.8082 129.432 61.0467 129.129 58.3375 128.547C56.917 128.243 55.434 128.51 54.2088 129.291C52.9835 130.072 52.1142 131.303 51.7886 132.72L50.4361 138.716C50.3288 139.193 50.0685 139.622 49.6949 139.937C49.3213 140.253 48.8549 140.437 48.3669 140.462C47.8795 140.484 47.3981 140.348 46.9945 140.074C46.5908 139.8 46.2866 139.402 46.1271 138.941C44.274 133.454 40.0875 130.674 37.2261 131.244C36.4774 131.477 35.7829 131.858 35.1837 132.365C34.5844 132.871 34.0926 133.492 33.7372 134.192C31.9891 137.633 34.2362 142.603 37.3224 145.235C39.5081 146.999 42.2396 147.945 45.0472 147.911L45.0327 152.397Z" fill="#142C82"/>
<path d="M26.9141 134.944C23.79 127.386 23.6212 118.929 26.4413 111.253C28.1565 106.586 31.0845 102.462 34.9234 99.3042C40.2758 95.0074 47.1149 92.9896 55.2163 93.3064C59.4661 93.5005 63.6157 94.662 67.3493 96.7025C70.6013 98.4567 74.1612 99.5662 77.8335 99.97C82.5554 100.433 87.322 99.9168 91.8358 98.4546L93.8159 97.834L94.5878 99.7598C96.6118 104.798 96.6066 110.425 94.5732 115.46C90.3416 125.532 79.8516 127.61 78.6697 127.814L77.9079 123.393C78.2815 123.329 87.0774 121.729 90.4408 113.722C91.788 110.426 92.004 106.775 91.0551 103.343C86.5949 104.521 81.9598 104.89 77.3696 104.432C73.1885 103.97 69.1325 102.721 65.416 100.75C62.2329 98.9738 58.6816 97.9603 55.0412 97.7888C48.0518 97.5098 42.215 99.2021 37.728 102.803C34.4967 105.462 32.0406 108.943 30.6174 112.88C28.2096 119.484 28.368 126.751 31.0611 133.244L26.9141 134.944Z" fill="#142C82"/>
<path d="M32.0489 184.082L28.1441 181.88C34.5251 170.554 33.87 160.129 33.3913 152.516C33.2761 150.684 33.168 148.954 33.168 147.4H37.6506C37.6506 148.814 37.7557 150.475 37.8652 152.234C38.3788 160.406 39.0821 171.599 32.0489 184.082Z" fill="#142C82"/>
<path d="M117.814 299.076H75.817C65.3824 299.076 57.586 288.121 57.586 278.327V248.435H62.0685V278.327C62.0685 285.693 68.2015 294.59 75.817 294.59H117.814V299.076Z" fill="#142C82"/>
<path d="M91.7906 328.404H71.6029C59.4062 328.39 47.7131 323.536 39.0887 314.906C30.4644 306.277 25.6132 294.577 25.5993 282.373V237.425H30.0819V282.373C30.0945 293.388 34.473 303.948 42.257 311.736C50.0409 319.525 60.5947 323.906 71.6029 323.918H91.7906V328.404Z" fill="#142C82"/>
<path d="M120.603 311.814H116.12V294.591H127.6V299.076H120.603V311.814Z" fill="#142C82"/>
<path d="M67.4559 197.117C63.7627 192.128 64.1406 181.348 64.323 176.166C64.3478 175.432 64.3698 174.843 64.3698 174.448H68.8524C68.8524 174.88 68.8304 175.522 68.8028 176.324C68.6641 180.26 68.2979 190.72 71.0572 194.448L67.4559 197.117Z" fill="#142C82"/>
<path d="M129.931 310.448H125.448V294.702L156.189 295.357C158.099 295.488 159.886 296.348 161.182 297.758C162.478 299.168 163.184 301.022 163.155 302.938H158.672C158.705 302.179 158.448 301.437 157.954 300.861C157.459 300.286 156.765 299.92 156.01 299.838L129.931 299.283V310.448Z" fill="#142C82"/>
<path d="M98.9128 379.564H94.4302V441.712H98.9128V379.564Z" fill="#142C82"/>
<path d="M30.8253 440.972H26.3427V426.951L15.9102 374.762L20.3047 373.883L30.8253 426.507V440.972Z" fill="#142C82"/>
<path d="M232.787 304.598H228.304V442.467H232.787V304.598Z" fill="#142C82"/>
<path d="M136.256 333.9L131.902 334.967L158.347 443.001L162.701 441.934L136.256 333.9Z" fill="#142C82"/>
<path d="M94.5395 348.865V327.692L266.187 274.326V295.5L223.108 308.894L221.776 304.611L261.704 292.198V280.419L99.0221 330.994V342.774L139.839 330.084L141.169 334.369L94.5395 348.865Z" fill="#142C82"/>
<path d="M228.039 274.742L196.877 284.434L198.208 288.718L229.37 279.025L228.039 274.742Z" fill="#142C82"/>
<path d="M279.664 339.025C274.505 334.377 275.12 322.771 275.206 321.463C275.202 297.911 287.391 283.762 307.806 283.762C328.223 283.762 340.411 297.911 340.411 321.612H335.929C335.929 311.58 333.188 288.247 307.806 288.247C282.425 288.247 279.685 311.58 279.685 321.612C279.412 325.865 279.985 333.279 282.664 335.694L279.664 339.025Z" fill="#142C82"/>
<path d="M405.155 386.456C398.735 386.407 392.594 383.821 388.072 379.261L391.216 376.063C394.901 379.795 399.912 381.919 405.155 381.971V386.456Z" fill="#142C82"/>
<path d="M405.155 386.456V381.971C410.398 381.919 415.407 379.796 419.092 376.063L422.238 379.261C417.716 383.821 411.575 386.408 405.155 386.456Z" fill="#142C82"/>
<path d="M368.727 394.562L365.029 392.024C367.986 387.723 371.767 384.052 376.152 381.223C380.537 378.395 385.44 376.465 390.576 375.546L391.35 379.965C386.801 380.779 382.459 382.488 378.576 384.994C374.692 387.499 371.345 390.752 368.727 394.562Z" fill="#142C82"/>
<path d="M453 431.743H448.517V411.91C447.509 395.653 434.518 381.569 418.944 379.987L419.397 375.525C437.388 377.353 451.833 392.936 452.996 411.771L453 431.743Z" fill="#142C82"/>
<path d="M385.512 339.774L381.128 338.834C381.991 334.81 384.467 327.087 388.275 323.651L390.556 321.593L391.818 324.396C393.129 326.937 394.991 329.153 397.267 330.883C400.012 332.963 406.286 334.07 411.64 332.229C413.56 331.627 415.295 330.544 416.679 329.081C418.063 327.619 419.049 325.827 419.544 323.875L423.875 325.031C423.205 327.7 421.862 330.153 419.975 332.156C418.088 334.159 415.72 335.644 413.096 336.47C406.001 338.907 398.249 337.254 394.561 334.458C392.63 332.975 390.926 331.217 389.501 329.242C387.641 332.528 386.295 336.08 385.512 339.774Z" fill="#142C82"/>
<path d="M432.602 339.164C432.599 339.098 432.382 332.556 432.462 325.676C432.576 315.757 426.525 308.534 414.478 304.211C413.955 304.053 399.191 299.712 390.673 311.362L389.93 312.377L388.676 312.273C387.463 312.256 386.258 312.485 385.135 312.947C384.012 313.409 382.995 314.093 382.144 314.96C379.488 317.216 377.755 320.371 377.275 323.823C377.126 325.651 377.174 335.152 377.204 338.669L372.722 338.707C372.71 337.391 372.615 325.792 372.801 323.577C372.897 319.792 375.453 314.935 379.154 311.617C381.494 309.374 384.541 308.016 387.773 307.776C398.297 294.7 415.717 299.902 415.898 299.958C433.481 306.265 437.04 317.45 436.945 325.729C436.866 332.502 437.08 338.948 437.082 339.012L432.602 339.164Z" fill="#142C82"/>
<path d="M405.203 375.313C403.009 375.319 400.836 374.89 398.809 374.05C396.782 373.209 394.942 371.975 393.396 370.419L388.051 365.071C385.958 362.989 384.299 360.512 383.169 357.784C382.04 355.056 381.463 352.131 381.471 349.178V338.367H385.954V349.178C385.947 351.542 386.41 353.883 387.313 356.067C388.217 358.25 389.545 360.233 391.22 361.9L396.565 367.248C397.697 368.386 399.043 369.289 400.526 369.903C402.009 370.518 403.598 370.832 405.203 370.828C406.84 370.824 408.459 370.493 409.966 369.855C411.472 369.216 412.836 368.282 413.977 367.109L419.038 361.883C422.294 358.533 424.112 354.04 424.102 349.367V338.727H428.585V349.367C428.597 355.206 426.326 360.819 422.257 365.005L417.196 370.23C415.636 371.834 413.772 373.11 411.713 373.983C409.653 374.856 407.44 375.308 405.203 375.313Z" fill="#142C82"/>
<path d="M392.072 379.691L389.594 375.954C392.898 373.761 392.74 368.931 392.739 368.883L397.216 368.668C397.23 368.969 397.524 376.073 392.072 379.691Z" fill="#142C82"/>
<path d="M418.238 379.909C412.789 376.294 413.046 369.502 413.061 369.214L417.538 369.428C417.538 369.46 417.412 373.979 420.716 376.172L418.238 379.909Z" fill="#142C82"/>
<path d="M260.774 431.549H256.291V407.933C256.291 388.601 266.052 377.212 266.468 376.738C274.097 367.947 283.474 362.362 293.579 360.593L294.352 365.011C285.272 366.601 276.798 371.674 269.847 379.684C269.754 379.791 260.774 390.364 260.774 407.933V431.549Z" fill="#142C82"/>
<path d="M358.712 430.314H354.23V398.504C353.173 381.454 339.552 366.691 323.225 365.033L323.677 360.571C342.435 362.475 357.495 378.724 358.708 398.365L358.712 430.314Z" fill="#142C82"/>
<path d="M308.851 360.146C306.571 360.152 304.313 359.706 302.206 358.833C300.1 357.96 298.188 356.678 296.581 355.061L290.992 349.469C286.544 345.02 284.145 336.086 284.145 329.939V322.757L286.585 318.252L286.785 318.039C289.022 315.663 291.529 313.558 294.256 311.766L295.721 310.804L297.008 311.993C301.788 316.431 307.855 319.234 314.332 319.996C320.809 320.758 327.36 319.44 333.04 316.233L335.228 320.145C334.64 320.475 333.959 320.833 333.191 321.197V330.135C333.191 336.177 330.883 344.982 326.605 349.402L321.315 354.865C319.694 356.532 317.756 357.858 315.616 358.764C313.475 359.671 311.175 360.141 308.851 360.146ZM288.628 323.893V329.939C288.628 335.144 290.744 342.878 294.161 346.298L299.75 351.889C300.942 353.089 302.361 354.04 303.923 354.687C305.485 355.335 307.16 355.665 308.851 355.661C310.575 355.657 312.281 355.308 313.869 354.636C315.456 353.963 316.894 352.98 318.096 351.743L323.386 346.28C326.673 342.884 328.709 335.255 328.709 330.135V322.972C323.554 324.643 318.083 325.099 312.723 324.305C306.322 323.321 300.309 320.615 295.326 316.476C293.502 317.796 291.802 319.278 290.246 320.905L288.628 323.893Z" fill="#142C82"/>
<path d="M295.069 364.741L292.591 361.003C296.08 358.686 295.925 353.583 295.922 353.532L300.399 353.307C300.415 353.62 300.717 360.99 295.069 364.741Z" fill="#142C82"/>
<path d="M322.532 364.967C316.885 361.218 317.152 354.176 317.167 353.878L321.643 354.091C321.642 354.128 321.508 358.905 325.01 361.229L322.532 364.967Z" fill="#142C82"/>
<path d="M308.88 389.006L307.117 386.691C306.587 385.994 294.103 369.572 290.928 363.885L294.841 361.698C297.177 365.882 305.296 376.812 308.918 381.633C312.655 376.741 321.136 365.457 323.352 360.95L327.374 362.93C324.321 369.141 311.225 385.994 310.669 386.71L308.88 389.006Z" fill="#142C82"/>
<path d="M409.889 98.3623C409.312 96.5446 408.695 94.7284 408.053 92.9647L412.264 91.4288C412.928 93.2523 413.566 95.1285 414.161 97.0075L409.889 98.3623ZM405.926 87.4924C405.183 85.6995 404.386 83.892 403.559 82.121L407.621 80.2229C408.475 82.0538 409.298 83.9213 410.067 85.7755L405.926 87.4924ZM400.958 76.8561C400.052 75.1216 399.099 73.3885 398.128 71.708L402.009 69.4626C403.013 71.1985 403.995 72.9885 404.93 74.7799L400.958 76.8561ZM395.076 66.6885C394.019 65.0343 392.92 63.3902 391.808 61.8047L395.476 59.2291C396.626 60.8672 397.761 62.5639 398.853 64.2736L395.076 66.6885ZM388.329 57.0698C387.127 55.5076 385.888 53.9657 384.646 52.4896L388.078 49.6017C389.361 51.1289 390.641 52.7203 391.881 54.3336L388.329 57.0698ZM380.768 48.0702C379.45 46.6334 378.083 45.2056 376.701 43.8258L379.87 40.6518C381.296 42.0782 382.71 43.5543 384.071 45.0391L380.768 48.0702ZM372.453 39.7582C371.009 38.4368 369.52 37.1316 368.031 35.8817L370.911 32.4449C372.45 33.7356 373.987 35.0832 375.48 36.4497L372.453 39.7582ZM363.444 32.201C361.895 31.0111 360.298 29.8402 358.702 28.7218L361.273 25.0483C362.924 26.2032 364.571 27.4122 366.173 28.6416L363.444 32.201ZM353.81 25.4542C352.149 24.3957 350.458 23.3693 348.781 22.4028L351.02 18.5162C352.753 19.5162 354.501 20.5777 356.217 21.6699L353.81 25.4542ZM343.623 19.5718C341.875 18.6636 340.099 17.7891 338.344 16.973L340.235 12.9053C342.049 13.7491 343.884 14.6529 345.689 15.5917L343.623 19.5718ZM332.958 14.6048C331.135 13.8542 329.288 13.1388 327.467 12.4789L328.993 8.26237C330.874 8.94278 332.783 9.68149 334.665 10.4582L332.958 14.6048ZM235.292 12.7169L233.745 8.50622C235.622 7.81564 237.554 7.15273 239.489 6.53511L240.852 10.8071C238.979 11.4058 237.109 12.0482 235.292 12.7169H235.292ZM321.889 10.5969C320.008 10.0086 318.105 9.45962 316.231 8.96311L317.378 4.62695C319.316 5.14081 321.283 5.70878 323.225 6.31608L321.889 10.5969ZM246.49 9.14865L245.317 4.81817C247.272 4.28966 249.256 3.79898 251.215 3.36107L252.192 7.7382C250.297 8.1616 248.379 8.63614 246.49 9.14865H246.49ZM310.516 7.58196C308.623 7.16738 306.684 6.78778 304.752 6.45483L305.514 2.0339C307.513 2.37986 309.518 2.77261 311.476 3.20185L310.516 7.58196ZM257.959 6.57608L257.171 2.16083C259.148 1.80754 261.168 1.49373 263.174 1.22506L263.766 5.67231C261.824 5.93065 259.87 6.23445 257.959 6.57608H257.959ZM298.943 5.5817C297.002 5.33352 295.035 5.12481 293.096 4.96274L293.472 0.492028C295.476 0.66142 297.507 0.876113 299.509 1.13162L298.943 5.5817ZM269.608 5.02255L269.208 0.554821C271.218 0.375263 273.257 0.238016 275.269 0.147564L275.471 4.62695C273.525 4.71591 271.553 4.84882 269.608 5.02255H269.608ZM287.23 4.59765C285.403 4.52319 283.544 4.48522 281.703 4.48522L281.345 4.48671V0.00149507L281.675 0C283.613 0 285.529 0.0394699 287.411 0.11542L287.23 4.59765Z" fill="#142C82"/>
</g>
<defs>
<clipPath id="clip0">
<rect width="453" height="443" fill="white"/>
</clipPath>
</defs>
</svg>
