<svg width="89" height="78" viewBox="0 0 89 78" fill="none" xmlns="http://www.w3.org/2000/svg">
<g clip-path="url(#clip0)">
<path d="M44.3665 66.2684L59.7646 27.8919C60.074 27.1207 60.6791 26.5032 61.4468 26.1753C62.2145 25.8473 63.082 25.8357 63.8583 26.1431C64.6346 26.4504 65.2562 27.0515 65.5864 27.8141C65.9165 28.5767 65.9282 29.4383 65.6188 30.2095L50.9134 66.8593L44.3665 66.2684Z" fill="#90A4AE"/>
<path d="M50.4359 32.8713L50.4392 32.8637L50.4361 32.8606L50.4359 32.8713Z" fill="#FFF9C5"/>
<path opacity="0.1" d="M63.8583 26.143C63.082 25.8357 62.2146 25.8473 61.4469 26.1753C60.6792 26.5033 60.0741 27.1207 59.7647 27.8918L55.7325 37.941C57.8306 38.28 59.829 39.0699 61.588 40.2555L65.6189 30.2096C65.9283 29.4385 65.9166 28.5768 65.5864 27.8141C65.2563 27.0515 64.6346 26.4504 63.8583 26.143Z" fill="black"/>
<path d="M69.434 12.2473L57.8155 13.4878L50.4361 22.025L50.4373 32.8585L50.4425 32.8564L50.4415 32.859C53.8951 32.2843 57.4411 32.6586 60.696 33.9413C63.9509 35.224 66.7907 37.3664 68.9084 40.1366L68.9421 40.1978L75.0118 34.228L75.6889 19.3317L69.434 12.2473Z" fill="#FFF9C5"/>
<path d="M80.2175 73.0171C75.9892 66.3035 61.669 61.363 44.654 61.363C27.6395 61.363 13.3198 66.3033 9.09106 73.0164L11.4666 73.0171L16.6218 76.3011L22.0427 76.8863L25.8631 74.6937L31.9271 72.4966L35.1814 73.3745L42.1043 76.8861L46.6704 76.1545L52.5623 73.9709L56.8338 72.6431L62.2837 73.9709L66.7026 76.8863L73.7727 76.0084L80.2175 73.0171Z" fill="#FFCA28"/>
<path opacity="0.1" d="M74.2688 75.7782L80.2175 73.0169C75.9893 66.3035 61.6691 61.3629 44.6541 61.3629C40.902 61.3578 37.154 61.6068 33.436 62.1083C50.9882 64.1079 65.6687 69.122 74.2688 75.7782Z" fill="black"/>
<path d="M88.3963 73.7379C86.3697 72.3625 83.9725 71.6267 81.5181 71.6267C79.0637 71.6267 76.6664 72.3625 74.6399 73.7379C73.0459 74.8195 71.1604 75.3982 69.2299 75.3982C67.2995 75.3982 65.414 74.8195 63.82 73.7379C61.7935 72.3625 59.3962 71.6267 56.9418 71.6267C54.4874 71.6267 52.0901 72.3625 50.0636 73.7379C48.4696 74.8195 46.5841 75.3982 44.6537 75.3982C42.7232 75.3982 40.8378 74.8195 39.2438 73.7379C37.2172 72.3625 34.8199 71.6267 32.3655 71.6267C29.9111 71.6267 27.5139 72.3625 25.4873 73.7379C23.8933 74.8195 22.0078 75.3982 20.0774 75.3982C18.147 75.3982 16.2615 74.8195 14.6675 73.7379C12.6409 72.3625 10.2437 71.6267 7.78927 71.6267C5.33487 71.6267 2.9376 72.3625 0.91103 73.7379C0.625062 73.9318 0.428148 74.2304 0.363444 74.5683C0.298739 74.9061 0.371523 75.2557 0.565843 75.5404C0.760163 75.825 1.06017 76.0216 1.40011 76.0869C1.74005 76.1522 2.09219 76.081 2.37936 75.8888C3.97332 74.8071 5.85882 74.2284 7.78926 74.2284C9.71969 74.2284 11.6052 74.8071 13.1992 75.8888C15.2258 77.2641 17.623 77.9999 20.0774 77.9999C22.5318 77.9999 24.929 77.2641 26.9556 75.8888C28.5496 74.8071 30.4351 74.2284 32.3655 74.2284C34.296 74.2284 36.1815 74.8071 37.7754 75.8888C39.802 77.2641 42.1993 77.9999 44.6537 77.9999C47.108 77.9999 49.5053 77.2641 51.5319 75.8888C53.1259 74.8071 55.0114 74.2284 56.9418 74.2284C58.8722 74.2284 60.7577 74.8071 62.3517 75.8888C64.3783 77.2641 66.7756 77.9999 69.23 77.9999C71.6844 77.9999 74.0817 77.2641 76.1083 75.8888C77.7023 74.8071 79.5878 74.2285 81.5182 74.2285C83.4487 74.2285 85.3342 74.8071 86.9281 75.8888C87.0703 75.985 87.2302 76.0524 87.3986 76.0871C87.567 76.1219 87.7407 76.1233 87.9097 76.0913C88.0786 76.0592 88.2396 75.9944 88.3833 75.9005C88.527 75.8066 88.6507 75.6855 88.7472 75.5441C88.8438 75.4027 88.9113 75.2437 88.9459 75.0763C88.9805 74.909 88.9815 74.7365 88.9489 74.5687C88.9163 74.4009 88.8507 74.2412 88.7559 74.0986C88.6611 73.956 88.5389 73.8335 88.3963 73.7379H88.3963Z" fill="#4FC3F7"/>
<path d="M50.4373 32.8584C48.322 30.072 45.4775 27.9156 42.2138 26.624C38.95 25.3323 35.392 24.955 31.9273 25.533C31.9273 25.533 47.5695 3.59071 69.4342 12.2472C69.4342 12.2472 57.9679 15.2936 50.4363 32.8709L50.4373 32.8584Z" fill="#EF495B"/>
<path d="M68.9499 40.1878C72.4147 39.6106 75.9726 39.9889 79.2361 41.2815C82.4995 42.574 85.3433 44.7312 87.4579 47.5182C87.4579 47.5182 91.2987 20.9036 69.4338 12.2471C69.4338 12.2471 75.6469 22.2929 68.942 40.1976L68.9499 40.1878Z" fill="#EF495B"/>
<path d="M14.9159 21.8667C18.8517 21.8667 22.0424 18.6973 22.0424 14.7877C22.0424 10.8781 18.8517 7.70874 14.9159 7.70874C10.9801 7.70874 7.78943 10.8781 7.78943 14.7877C7.78943 18.6973 10.9801 21.8667 14.9159 21.8667Z" fill="#FFCA28"/>
<path d="M6.45148 14.787C6.45146 16.4441 6.94612 18.064 7.87292 19.4418C8.79972 20.8197 10.117 21.8936 11.6583 22.5277C13.1995 23.1619 14.8954 23.3278 16.5316 23.0045C18.1677 22.6813 19.6706 21.8833 20.8503 20.7115C22.0299 19.5398 22.8332 18.0469 23.1586 16.4216C23.4841 14.7964 23.317 13.1117 22.6786 11.5808C22.0402 10.0498 20.9591 8.7413 19.5721 7.82068C18.185 6.90005 16.5542 6.40867 14.886 6.40869C12.6498 6.41118 10.5059 7.29469 8.92466 8.86539C7.34343 10.4361 6.45399 12.5657 6.45148 14.787ZM14.8862 9.00759C16.0369 9.00761 17.1618 9.34659 18.1186 9.98167C19.0754 10.6167 19.8211 11.5194 20.2615 12.5755C20.7018 13.6315 20.817 14.7936 20.5925 15.9147C20.368 17.0358 19.8139 18.0656 19.0002 18.8739C18.1865 19.6821 17.1497 20.2326 16.0211 20.4556C14.8925 20.6786 13.7226 20.5641 12.6595 20.1267C11.5963 19.6892 10.6876 18.9485 10.0483 17.998C9.40901 17.0476 9.06777 15.9302 9.06777 14.7871C9.06951 13.2548 9.68308 11.7857 10.7739 10.7022C11.8647 9.61873 13.3436 9.00928 14.8862 9.00759Z" fill="black"/>
<path d="M16.1943 3.91325V1.29935C16.1943 0.95474 16.0564 0.624246 15.8111 0.38057C15.5658 0.136895 15.2331 0 14.8862 0C14.5393 0 14.2066 0.136895 13.9612 0.38057C13.7159 0.624246 13.5781 0.95474 13.5781 1.29935V3.91325C13.5781 4.25785 13.7159 4.58835 13.9612 4.83202C14.2066 5.0757 14.5393 5.21259 14.8862 5.21259C15.2331 5.21259 15.5658 5.0757 15.8111 4.83202C16.0564 4.58835 16.1943 4.25785 16.1943 3.91325Z" fill="black"/>
<path d="M23.5623 4.33082L21.7016 6.1791C21.4575 6.42306 21.3207 6.75324 21.3212 7.09725C21.3217 7.44126 21.4595 7.77103 21.7044 8.01427C21.9493 8.25751 22.2813 8.39437 22.6276 8.39485C22.9739 8.39533 23.3063 8.25939 23.5519 8.01683L25.4125 6.16857C25.5346 6.04801 25.6315 5.90472 25.6977 5.7469C25.7639 5.58908 25.7981 5.41983 25.7983 5.24886C25.7986 5.07789 25.7649 4.90855 25.6991 4.75054C25.6333 4.59254 25.5368 4.44898 25.4151 4.32809C25.2934 4.2072 25.1489 4.11136 24.9898 4.04605C24.8307 3.98074 24.6602 3.94726 24.4881 3.94751C24.316 3.94777 24.1456 3.98176 23.9868 4.04754C23.8279 4.11331 23.6836 4.20959 23.5623 4.33084V4.33082Z" fill="black"/>
<path d="M28.4643 16.0862C28.8112 16.0862 29.1439 15.9494 29.3892 15.7057C29.6345 15.462 29.7723 15.1315 29.7723 14.7869C29.7723 14.4423 29.6345 14.1118 29.3892 13.8681C29.1439 13.6244 28.8112 13.4875 28.4643 13.4875H25.833C25.4861 13.4875 25.1534 13.6244 24.9081 13.8681C24.6628 14.1118 24.525 14.4423 24.525 14.7869C24.525 15.1315 24.6628 15.462 24.9081 15.7057C25.1534 15.9494 25.4861 16.0862 25.833 16.0862H28.4643Z" fill="black"/>
<path d="M21.7017 21.5571C21.5802 21.6778 21.4839 21.821 21.4181 21.9787C21.3524 22.1363 21.3185 22.3053 21.3185 22.4759C21.3185 22.6465 21.3524 22.8155 21.4181 22.9732C21.4839 23.1308 21.5802 23.274 21.7017 23.3947L23.5624 25.2429C23.6837 25.3642 23.828 25.4605 23.9868 25.5262C24.1457 25.592 24.3161 25.626 24.4882 25.6263C24.6603 25.6265 24.8308 25.593 24.9899 25.5277C25.1489 25.4624 25.2935 25.3666 25.4152 25.2457C25.5369 25.1248 25.6334 24.9812 25.6992 24.8232C25.7649 24.6652 25.7986 24.4959 25.7984 24.3249C25.7982 24.1539 25.764 23.9847 25.6978 23.8269C25.6316 23.6691 25.5347 23.5258 25.4126 23.4052L23.5519 21.5571C23.3066 21.3134 22.9738 21.1765 22.6268 21.1765C22.2798 21.1765 21.9471 21.3134 21.7017 21.5571Z" fill="black"/>
<path d="M13.5781 25.6609V28.2748C13.5781 28.6194 13.7159 28.9499 13.9612 29.1936C14.2066 29.4373 14.5393 29.5742 14.8862 29.5742C15.2331 29.5742 15.5658 29.4373 15.8111 29.1936C16.0564 28.9499 16.1943 28.6194 16.1943 28.2748V25.6609C16.1943 25.3163 16.0564 24.9858 15.8111 24.7421C15.5658 24.4985 15.2331 24.3616 14.8862 24.3616C14.5393 24.3616 14.2066 24.4985 13.9612 24.7421C13.7159 24.9858 13.5781 25.3163 13.5781 25.6609Z" fill="black"/>
<path d="M4.35996 25.243C4.60534 25.4866 4.93811 25.6235 5.28508 25.6235C5.63205 25.6235 5.96482 25.4866 6.2102 25.243L8.07086 23.3947C8.19232 23.274 8.28867 23.1308 8.3544 22.9731C8.42014 22.8155 8.45397 22.6465 8.45396 22.4759C8.45395 22.3052 8.42011 22.1363 8.35436 21.9786C8.28861 21.821 8.19225 21.6777 8.07077 21.5571C7.9493 21.4364 7.80509 21.3407 7.64637 21.2754C7.48766 21.2101 7.31756 21.1765 7.14577 21.1765C6.97399 21.1765 6.80388 21.2101 6.64518 21.2754C6.48647 21.3408 6.34227 21.4365 6.2208 21.5571L4.36014 23.4053C4.23865 23.526 4.14227 23.6692 4.0765 23.8268C4.01074 23.9845 3.97688 24.1535 3.97687 24.3241C3.97685 24.4948 4.01067 24.6637 4.07641 24.8214C4.14214 24.979 4.23849 25.1223 4.35996 25.243Z" fill="black"/>
<path d="M1.30806 16.0862H3.93926C4.28618 16.0862 4.61889 15.9494 4.8642 15.7057C5.10951 15.462 5.24732 15.1315 5.24732 14.7869C5.24732 14.4423 5.10951 14.1118 4.8642 13.8681C4.61889 13.6244 4.28618 13.4875 3.93926 13.4875H1.30806C0.961144 13.4875 0.628433 13.6244 0.383123 13.8681C0.137814 14.1118 0 14.4423 0 14.7869C0 15.1315 0.137814 15.462 0.383123 15.7057C0.628433 15.9494 0.961144 16.0862 1.30806 16.0862Z" fill="black"/>
<path d="M6.21004 4.3308C5.96471 4.0871 5.63196 3.9502 5.285 3.9502C4.93805 3.9502 4.6053 4.0871 4.35997 4.3308C4.11463 4.5745 3.97681 4.90503 3.97681 5.24968C3.97681 5.59432 4.11463 5.92485 4.35997 6.16855L6.22064 8.01681C6.46633 8.25885 6.79854 8.39435 7.14457 8.39365C7.49059 8.39295 7.82224 8.25611 8.06693 8.01307C8.31162 7.77003 8.44941 7.4406 8.45015 7.09688C8.45089 6.75316 8.31451 6.42315 8.07087 6.17908L6.21004 4.3308Z" fill="black"/>
<path d="M67.8084 40.8849C67.958 41.1115 68.1736 41.2873 68.4265 41.3889C68.6794 41.4905 68.9574 41.513 69.2235 41.4534C72.4364 40.9352 75.7307 41.2972 78.7519 42.5004C81.7731 43.7036 84.4068 45.7024 86.3695 48.2818C86.5226 48.491 86.735 48.65 86.9797 48.7386C87.2243 48.8272 87.4899 48.8412 87.7426 48.7789C87.9953 48.7166 88.2236 48.5809 88.3982 48.389C88.5727 48.1971 88.6857 47.9579 88.7226 47.7019C89.3778 41.8481 88.8625 35.9235 87.2063 30.2681C87.1568 30.1048 87.0755 29.9527 86.9668 29.8205C86.8582 29.6884 86.7244 29.5788 86.5731 29.498C86.4218 29.4172 86.256 29.3668 86.0851 29.3497C85.9142 29.3325 85.7416 29.349 85.5771 29.3981C85.4126 29.4473 85.2595 29.5281 85.1264 29.636C84.9934 29.744 84.8831 29.8769 84.8017 30.0271C84.7204 30.1774 84.6697 30.3421 84.6524 30.5119C84.6352 30.6816 84.6518 30.8531 84.7012 31.0165C85.9526 35.3355 86.5095 39.8238 86.3514 44.3154C84.2945 42.3684 81.858 40.8605 79.192 39.8844C76.5261 38.9084 73.6872 38.4849 70.8502 38.6401C70.8725 38.5729 70.8926 38.5073 70.9145 38.4405C71.9559 35.3396 72.6793 32.1422 73.0738 28.897C73.433 25.9287 73.4326 22.9284 73.0724 19.9602C72.8567 18.24 72.4813 16.5432 71.9512 14.8915L71.9396 14.8548C76.6029 17.3478 80.3626 21.2297 82.6902 25.9548C82.7672 26.1073 82.8737 26.2433 83.0036 26.3549C83.1335 26.4666 83.2843 26.5517 83.4473 26.6055C83.6103 26.6592 83.7824 26.6806 83.9538 26.6683C84.1251 26.656 84.2923 26.6103 84.4458 26.5338C84.5994 26.4573 84.7363 26.3515 84.8487 26.2225C84.9611 26.0935 85.0468 25.9437 85.1009 25.7818C85.155 25.6198 85.1765 25.4489 85.1641 25.2787C85.1517 25.1085 85.1057 24.9424 85.0287 24.7899C81.9086 18.4726 76.4996 13.5605 69.8863 11.0387C60.5295 7.33491 50.7908 8.55327 41.725 14.5624C37.546 17.3428 33.8635 20.7966 30.8293 24.7814C30.6788 24.9924 30.5952 25.2432 30.5891 25.5018C30.583 25.7603 30.6547 26.0147 30.7951 26.2325C30.9354 26.4503 31.1379 26.6216 31.3768 26.7244C31.6157 26.8272 31.88 26.8568 32.1359 26.8095C35.3355 26.2805 38.6196 26.6248 41.6374 27.8058C44.6553 28.9868 47.2934 30.96 49.2699 33.5147C49.4224 33.7631 49.6516 33.9558 49.9234 34.0641C50.1951 34.1724 50.4949 34.1904 50.7779 34.1156C52.4591 33.824 54.1756 33.7923 55.8665 34.0217L45.4155 60.07C45.1518 60.0677 44.8889 60.0631 44.6244 60.0631C38.8679 60.0345 33.1255 60.629 27.4988 61.8362C27.3311 61.8732 27.1723 61.9427 27.0316 62.0406C26.891 62.1385 26.7711 62.263 26.6788 62.407C26.5866 62.5509 26.5238 62.7115 26.494 62.8796C26.4642 63.0476 26.4681 63.2199 26.5053 63.3865C26.5426 63.5531 26.6125 63.7107 26.7111 63.8505C26.8096 63.9902 26.935 64.1093 27.0799 64.201C27.2248 64.2926 27.3865 64.355 27.5557 64.3845C27.7249 64.4141 27.8983 64.4103 28.066 64.3733C33.5078 63.2155 39.0591 62.6418 44.6244 62.6619C47.3528 62.6619 50.083 62.7908 52.7982 63.0588L52.8274 63.0601C57.5719 63.4911 62.2534 64.445 66.7857 65.9042C70.9361 67.0807 74.7413 69.2302 77.8813 72.1718C76.7193 72.5309 75.617 73.0586 74.6102 73.7378C73.0163 74.8194 71.1308 75.3981 69.2005 75.3981C67.2701 75.3981 65.3846 74.8194 63.7907 73.7378C61.7641 72.3624 59.3668 71.6265 56.9124 71.6265C54.4579 71.6265 52.0606 72.3624 50.0341 73.7378C48.4401 74.8194 46.5547 75.3981 44.6243 75.3981C42.6939 75.3981 40.8085 74.8194 39.2145 73.7378C37.188 72.3624 34.7907 71.6265 32.3362 71.6265C29.8818 71.6265 27.4845 72.3624 25.4579 73.7378C23.864 74.8194 21.9785 75.3981 20.0481 75.3981C18.1178 75.3981 16.2323 74.8194 14.6384 73.7378C13.6317 73.0585 12.5295 72.5308 11.3674 72.1718C14.502 69.2347 18.3003 67.0877 22.4433 65.9109C22.7718 65.801 23.043 65.5661 23.1972 65.2577C23.3515 64.9494 23.3762 64.5928 23.266 64.2664C23.1558 63.9399 22.9197 63.6702 22.6095 63.5166C22.2992 63.3629 21.9403 63.3379 21.6115 63.4469C15.3603 65.5293 10.8223 68.3534 8.41566 71.6462C5.74155 71.5046 3.09464 72.2394 0.881913 73.7377C0.595777 73.9316 0.398714 74.2302 0.333939 74.5682C0.269163 74.9062 0.341962 75.2559 0.536371 75.5406C0.730779 75.8254 1.03093 76.0219 1.371 76.0872C1.71108 76.1524 2.06331 76.081 2.35047 75.8886C4.23541 74.6113 6.51662 74.0423 8.78544 74.2837C8.86451 74.3011 8.94506 74.3111 9.02603 74.3135C10.5119 74.5118 11.9308 75.0511 13.1703 75.8888C15.1968 77.2642 17.5941 78 20.0485 78C22.5029 78 24.9002 77.2642 26.9267 75.8888C28.5207 74.8071 30.4062 74.2284 32.3366 74.2284C34.267 74.2284 36.1524 74.8071 37.7464 75.8888C39.7729 77.2642 42.1702 78 44.6246 78C47.079 78 49.4763 77.2642 51.5028 75.8888C53.0968 74.8071 54.9823 74.2284 56.9127 74.2284C58.8431 74.2284 60.7285 74.8071 62.3225 75.8888C64.3491 77.2642 66.7464 78 69.2009 78C71.6553 78 74.0527 77.2642 76.0793 75.8888C77.3161 75.053 78.7315 74.5142 80.2138 74.3149C80.3 74.3128 80.3857 74.3022 80.4697 74.2832C82.7367 74.0433 85.0156 74.6124 86.8989 75.8887C87.1861 76.081 87.5383 76.1523 87.8784 76.0871C88.2184 76.0218 88.5185 75.8253 88.7129 75.5406C88.9073 75.2558 88.9801 74.9062 88.9154 74.5682C88.8506 74.2302 88.6535 73.9316 88.3674 73.7377C86.1547 72.2393 83.5078 71.5045 80.8337 71.6462C78.4243 68.3493 73.8792 65.523 67.6172 63.4399C63.4429 62.0874 59.1421 61.1559 54.7799 60.6596L64.1519 37.3022C65.5507 38.3005 66.7843 39.5092 67.8084 40.8849ZM52.5528 31.2996L52.5952 31.2119C53.805 28.6686 55.2435 26.239 56.8933 23.9528C56.994 23.8146 57.0663 23.658 57.1061 23.492C57.1459 23.326 57.1524 23.1539 57.1252 22.9854C57.098 22.8169 57.0376 22.6554 56.9476 22.5101C56.8576 22.3647 56.7396 22.2385 56.6004 22.1384C56.4613 22.0384 56.3036 21.9666 56.1365 21.927C55.9694 21.8875 55.7961 21.8811 55.6265 21.9081C55.4568 21.9351 55.2942 21.9951 55.148 22.0845C55.0017 22.1739 54.8745 22.2911 54.7738 22.4294C53.4483 24.2625 52.2534 26.1856 51.198 28.1843C50.8145 28.9047 50.425 29.6337 50.0961 30.3808L50.0785 30.4171C48.1264 28.3656 45.772 26.7329 43.1604 25.6197C40.5489 24.5064 37.7355 23.9362 34.8937 23.9442C37.3577 21.1833 40.1633 18.7429 43.2436 16.6811C46.6679 14.3531 50.5327 12.7403 54.6034 11.9406C58.3145 11.262 62.1319 11.4232 65.7717 12.412L65.7258 12.4373C63.7183 13.5406 61.8503 14.8775 60.1611 16.4196C59.5013 17.0183 58.8576 17.6337 58.2409 18.2758C58.0014 18.5252 57.8716 18.8589 57.8798 19.2035C57.8881 19.548 58.0337 19.8752 58.2848 20.113C58.5359 20.3509 58.8719 20.4799 59.2187 20.4717C59.5656 20.4635 59.895 20.3188 60.1344 20.0694C61.8143 18.2995 63.7076 16.7422 65.7713 15.4328C66.7217 14.8304 67.7201 14.3063 68.7564 13.8655C69.1416 14.7468 69.4626 15.6545 69.717 16.5815C71.1209 22.2983 71.0412 28.2756 69.4855 33.9535C69.1881 35.1656 68.8445 36.3655 68.4547 37.5532L68.4424 37.5905C66.6139 35.6854 64.4253 34.1571 62.0016 33.093L61.9 33.0481C58.9657 31.7443 55.7635 31.1454 52.5528 31.2997V31.2996ZM61.8881 35.9231L52.0749 60.3804C51.4685 60.3282 50.858 60.2829 50.2437 60.2443C49.5649 60.198 48.8848 60.164 48.205 60.1366L58.4644 34.5677C59.0853 34.7446 59.6963 34.954 60.295 35.195C60.392 35.2342 61.8909 35.9162 61.8881 35.9231V35.9231Z" fill="black"/>
</g>
<defs>
<clipPath id="clip0">
<rect width="89" height="78" fill="white"/>
</clipPath>
</defs>
</svg>
