<svg width="223" height="269" viewBox="0 0 223 269" fill="none" xmlns="http://www.w3.org/2000/svg">
<g filter="url(#filter0_d)">
<path fill-rule="evenodd" clip-rule="evenodd" d="M112.063 71.7632C110.791 66.6698 111.574 61.2812 114.243 56.7586C116.072 53.6606 118.686 51.1389 121.783 49.4215C124.171 48.0979 125.804 45.4601 125.142 42.8115L120.414 23.8932C119.744 21.2115 117.025 19.5824 114.344 20.2563L0 49C0.000210285 92.5 -0.000116348 108 9.39369e-05 152.5L138.874 118.48C141.565 117.821 143.207 115.099 142.535 112.412L137.23 91.1812C136.568 88.5356 133.892 86.976 131.165 86.9285C127.619 86.8666 124.122 85.866 121.048 83.9871C116.563 81.2464 113.336 76.8565 112.063 71.7632Z" fill="white"/>
</g>
<path d="M17.1046 89.3839L10.662 90.9886L14.9635 108.201L8.73238 109.753L4.43091 92.5406L0 93.5V88L15.8217 84.2505L17.1046 89.3839Z" fill="#142C82"/>
<path d="M22.1785 87.4465C21.1698 87.6977 20.2638 87.5866 19.4605 87.1129C18.6563 86.6397 18.1286 85.8998 17.8775 84.8931C17.626 83.8868 17.7423 82.981 18.2266 82.1757C18.7108 81.3711 19.457 80.8431 20.4654 80.5917C21.4734 80.3406 22.3756 80.458 23.172 80.944C23.9683 81.4305 24.4922 82.1767 24.7435 83.1829C24.9952 84.1897 24.8826 85.0892 24.4058 85.8813C23.9292 86.6737 23.1867 87.1954 22.1785 87.4465ZM19.4327 89.4455L25.4823 87.9387L29.6328 104.547L23.5833 106.054L19.4327 89.4455Z" fill="#142C82"/>
<path d="M41.5349 101.904C40.2471 102.242 38.9101 102.352 37.5842 102.23C36.4069 102.121 35.2645 101.773 34.2276 101.206C33.2252 100.646 32.3543 99.8785 31.6732 98.9552C30.2206 96.9146 29.5927 94.402 29.9148 91.9194C30.083 90.7815 30.4963 89.6936 31.1261 88.7305C31.786 87.7406 32.6404 86.8949 33.6375 86.2446C34.7658 85.5103 36.0132 84.9772 37.3242 84.6689C38.4308 84.3858 39.5789 84.3006 40.7153 84.4175C41.7741 84.5229 42.8104 84.7894 43.7884 85.2078L41.4196 90.1282C41.0556 89.9129 40.6542 89.768 40.2365 89.7011C39.7345 89.6321 39.2237 89.6665 38.7356 89.8022C37.7677 90.0433 37.0694 90.5488 36.6405 91.3185C36.2115 92.0885 36.1279 92.9968 36.3897 94.0434C36.6462 95.07 37.1411 95.8289 37.8743 96.3199C38.6074 96.8109 39.468 96.9333 40.4562 96.6872C41.787 96.3557 42.6845 95.7044 43.1488 94.7335L47.5628 97.8682C46.9298 98.8971 46.0711 99.7691 45.0513 100.418C43.9687 101.103 42.7807 101.605 41.5349 101.904Z" fill="#142C82"/>
<path d="M60.6662 96.8173L54.5969 92.3307L56.0081 97.9776L49.9586 99.4843L44.0725 75.9306L50.1219 74.4238L53.08 86.2611L56.1224 80.3069L63.7448 78.4083L58.3568 88.0902L68.2886 94.9188L60.6662 96.8173Z" fill="#142C82"/>
<path d="M82.7812 82.1995C82.882 82.6024 82.97 83.0188 83.0453 83.4488C83.1208 83.879 83.1811 84.2703 83.2262 84.6227L72.3976 87.3198C72.6335 87.8022 73.0192 88.1955 73.4972 88.4412C73.9484 88.6607 74.5571 88.6749 75.3233 88.4837C76.4726 88.1973 77.3045 87.5838 77.8192 86.6431L83.0735 87.74C82.6493 88.9577 81.8813 90.0632 80.7695 91.0565C79.6574 92.05 78.2646 92.755 76.5913 93.1717C75.3392 93.5004 74.0391 93.607 72.7501 93.4869C71.6066 93.3807 70.4961 93.0464 69.4844 92.504C68.5083 91.9678 67.66 91.2271 66.9977 90.3327C66.2785 89.3516 65.7648 88.2359 65.4873 87.0522C65.1622 85.8208 65.0654 84.5404 65.2018 83.2743C65.3218 82.1358 65.6851 81.0364 66.2673 80.0502C66.8495 79.064 67.637 78.2141 68.5765 77.5578C69.6064 76.8389 70.7639 76.322 71.9873 76.0348C73.1998 75.7157 74.4603 75.6191 75.7074 75.7499C76.8225 75.8692 77.9023 76.2111 78.8825 76.7551C79.8408 77.2991 80.6688 78.0452 81.3085 78.9415C82.0046 79.9229 82.5046 81.0291 82.7812 82.1995ZM73.1645 80.7455C72.5189 80.9065 72.0626 81.2019 71.7956 81.6318C71.5083 82.1408 71.3692 82.7198 71.3942 83.3036L76.0218 82.1509C75.6943 81.5269 75.3027 81.0952 74.8467 80.8558C74.3905 80.6166 73.8297 80.5799 73.1645 80.7455H73.1645Z" fill="#142C82"/>
<path d="M95.2941 83.0278C96.1364 82.8146 96.9264 82.4323 97.6158 81.9042L98.8233 86.7359C98.1768 87.2001 97.485 87.598 96.7586 87.9236C96.0594 88.2429 95.333 88.499 94.5881 88.6888C93.7992 88.8962 92.9774 88.9483 92.1686 88.8422C91.4284 88.743 90.716 88.4949 90.0746 88.1129C89.4271 87.7187 88.8728 87.1893 88.4497 86.5609C87.9797 85.8664 87.6394 85.0927 87.4454 84.2772L85.9058 78.1169L83.3045 78.765L82.0745 73.8427L84.6758 73.1947L83.4609 68.3329L89.5103 66.8262L90.7251 71.6879L94.5666 70.7311L95.7967 75.6534L91.9552 76.6102L93.1778 81.502C93.2791 82.016 93.5654 82.4753 93.9825 82.7932C94.1691 82.9289 94.3841 83.0204 94.6113 83.0611C94.8385 83.1017 95.0719 83.0903 95.2941 83.0278Z" fill="#142C82"/>
<g filter="url(#filter1_d)">
<path fill-rule="evenodd" clip-rule="evenodd" d="M144.338 149.264C145.067 144.065 147.811 139.362 151.981 136.169C154.837 133.981 158.205 132.622 161.721 132.191C164.43 131.858 166.932 130.024 167.311 127.32L170.02 107.969C170.401 105.247 168.514 102.728 165.794 102.329L-0.049483 77.9996C-0.0494425 115.634 -0.0494814 136.169 -0.0494703 181.5L151.718 202.653C154.451 203.034 156.977 201.127 157.36 198.394L160.398 176.696C160.776 173.995 158.878 171.546 156.368 170.481C153.104 169.095 150.236 166.857 148.089 163.963C144.958 159.742 143.611 154.463 144.338 149.264Z" fill="white"/>
</g>
<path d="M49.2435 130.027L42.6689 129.101L40.2088 146.671L33.8501 145.776L36.3102 128.206L29.7355 127.28L30.4692 122.04L49.9771 124.787L49.2435 130.027Z" fill="#142C82"/>
<path d="M54.6739 130.131C53.6446 129.986 52.8462 129.544 52.2788 128.804C51.7104 128.064 51.4984 127.18 51.6427 126.153C51.7865 125.125 52.2337 124.329 52.9843 123.764C53.7347 123.199 54.6245 122.989 55.6536 123.134C56.6823 123.279 57.4748 123.726 58.0311 124.475C58.5872 125.224 58.7933 126.112 58.6494 127.139C58.5056 128.167 58.0642 128.959 57.3253 129.514C56.5866 130.071 55.7028 130.276 54.6739 130.131ZM51.3792 130.956L57.5527 131.825L55.179 148.779L49.0055 147.91L51.3792 130.956Z" fill="#142C82"/>
<path d="M67.2045 150.787C65.8839 150.618 64.6029 150.22 63.4193 149.61C62.3685 149.068 61.4398 148.317 60.6909 147.402C59.9713 146.508 59.4513 145.47 59.1656 144.359C58.5833 141.923 58.9424 139.358 60.1712 137.177C60.7534 136.185 61.5441 135.331 62.4889 134.674C63.4715 134.003 64.5805 133.539 65.7486 133.31C67.0698 133.052 68.4261 133.025 69.7571 133.23C70.8893 133.382 71.9857 133.733 72.9955 134.267C73.9377 134.762 74.7987 135.397 75.5487 136.151L71.5091 139.826C71.2523 139.49 70.9344 139.205 70.5721 138.987C70.1326 138.735 69.6461 138.575 69.1427 138.518C68.155 138.379 67.3181 138.586 66.6322 139.139C65.9459 139.692 65.5281 140.503 65.3787 141.572C65.232 142.62 65.4065 143.509 65.9024 144.239C66.3982 144.968 67.1503 145.404 68.1587 145.546C69.5168 145.738 70.5929 145.47 71.3871 144.744L74.3053 149.304C73.3329 150.021 72.2101 150.507 71.0213 150.727C69.7612 150.956 68.4717 150.976 67.2045 150.787Z" fill="#142C82"/>
<path d="M86.8481 153.238L82.9015 146.805L82.0945 152.569L75.9211 151.7L79.2876 127.656L85.4609 128.526L83.769 140.609L88.8205 136.228L96.599 137.323L87.9762 144.282L94.6266 154.334L86.8481 153.238Z" fill="#142C82"/>
<path d="M112.829 147.97C112.771 148.381 112.697 148.801 112.605 149.227C112.514 149.655 112.423 150.04 112.333 150.384L101.283 148.828C101.321 149.363 101.531 149.872 101.882 150.279C102.218 150.652 102.777 150.893 103.56 151.003C104.732 151.168 105.734 150.911 106.563 150.231L111.024 153.217C110.174 154.187 109.048 154.924 107.645 155.428C106.242 155.933 104.686 156.065 102.979 155.824C101.695 155.66 100.449 155.272 99.2993 154.678C98.2789 154.151 97.3745 153.425 96.6396 152.543C95.9355 151.68 95.4265 150.675 95.1475 149.598C94.8483 148.419 94.7899 147.192 94.9761 145.991C95.136 144.727 95.5259 143.504 96.1267 142.381C96.6644 141.37 97.4132 140.487 98.3225 139.791C99.2317 139.095 100.28 138.601 101.397 138.345C102.621 138.064 103.888 138.019 105.13 138.211C106.374 138.369 107.579 138.752 108.686 139.34C109.675 139.869 110.548 140.59 111.253 141.462C111.938 142.325 112.426 143.327 112.684 144.398C112.961 145.568 113.01 146.781 112.829 147.97ZM104.457 143.019C103.798 142.927 103.264 143.03 102.856 143.328C102.399 143.693 102.053 144.177 101.857 144.728L106.58 145.393C106.51 144.692 106.308 144.145 105.975 143.752C105.642 143.359 105.136 143.115 104.457 143.019L104.457 143.019Z" fill="#142C82"/>
<path d="M124.12 153.426C124.981 153.544 125.856 153.485 126.693 153.254L126.003 158.186C125.23 158.374 124.439 158.484 123.644 158.514C122.876 158.548 122.106 158.513 121.345 158.41C120.535 158.307 119.754 158.047 119.044 157.646C118.395 157.277 117.827 156.78 117.375 156.185C116.923 155.577 116.607 154.879 116.45 154.138C116.275 153.318 116.249 152.473 116.375 151.644L117.255 145.356L114.6 144.982L115.304 139.957L117.959 140.331L118.654 135.368L124.827 136.237L124.132 141.2L128.052 141.752L127.349 146.777L123.428 146.225L122.729 151.218C122.631 151.733 122.724 152.266 122.992 152.717C123.114 152.913 123.279 153.078 123.474 153.201C123.67 153.324 123.891 153.401 124.12 153.426Z" fill="#142C82"/>
<defs>
<filter id="filter0_d" x="-20" y="0.104492" width="192.686" height="182.396" filterUnits="userSpaceOnUse" color-interpolation-filters="sRGB">
<feFlood flood-opacity="0" result="BackgroundImageFix"/>
<feColorMatrix in="SourceAlpha" type="matrix" values="0 0 0 0 0 0 0 0 0 0 0 0 0 0 0 0 0 0 127 0"/>
<feOffset dx="5" dy="5"/>
<feGaussianBlur stdDeviation="12.5"/>
<feColorMatrix type="matrix" values="0 0 0 0 0 0 0 0 0 0 0 0 0 0 0 0 0 0 0.25 0"/>
<feBlend mode="normal" in2="BackgroundImageFix" result="effect1_dropShadow"/>
<feBlend mode="normal" in="SourceGraphic" in2="effect1_dropShadow" result="shape"/>
</filter>
<filter id="filter1_d" x="-56" y="21.1768" width="278.104" height="247.426" filterUnits="userSpaceOnUse" color-interpolation-filters="sRGB">
<feFlood flood-opacity="0" result="BackgroundImageFix"/>
<feColorMatrix in="SourceAlpha" type="matrix" values="0 0 0 0 0 0 0 0 0 0 0 0 0 0 0 0 0 0 127 0"/>
<feOffset dx="5" dy="5"/>
<feGaussianBlur stdDeviation="12.5"/>
<feColorMatrix type="matrix" values="0 0 0 0 0 0 0 0 0 0 0 0 0 0 0 0 0 0 0.25 0"/>
<feBlend mode="normal" in2="BackgroundImageFix" result="effect1_dropShadow"/>
<feBlend mode="normal" in="SourceGraphic" in2="effect1_dropShadow" result="shape"/>
</filter>
</defs>
</svg>
