<svg xmlns="http://www.w3.org/2000/svg" width="1435" height="271"><defs><clipPath clipPathUnits="userSpaceOnUse" id="cp1"><path d="M0 0h1435v271H0z"/></clipPath></defs><style/><g id="Page 1" clip-path="url(#cp1)"><path id="Path 1" d="M1019.13 223.29c3.24-31.87 5.11-66.96 5.7-105.26l-41.89 1.13.45-10.9c.24-5.85.44-12.24.56-19.2 18.64.1 40.33.14 65.11.09l24.29-.13 23.61-.04 12.79-.14-.59 9.66c-.26 5.16-.42 9.42-.51 12.78-.1 3.39-.13 5.94-.13 7.65-14.02-.67-25.62-1.01-34.71-.99l-6.88.01c-.96 11.56-1.72 22.27-2.21 32.09-.7 14.07-1.24 27.74-1.59 41.01-.39 13.27-.58 23.98-.56 32.16-10.73-.12-17.69-.18-20.85-.17-2.81 0-10.36.09-22.62.25zm-171.28.32c1.23-11.55 2.21-21.93 2.89-31.2.72-9.24 1.35-19.95 1.83-32.16.51-12.19.89-25.07 1.13-38.62.21-13.54.32-24.32.31-32.32 8.2.2 14.86.3 19.88.29 5.23-.01 11.65-.21 19.18-.5 7.56-.31 14.87-.49 22.03-.5 8.38-.02 15.88.31 22.43.97 4.94.43 9.39 1.39 13.43 2.84 4.03 1.42 7.42 3.16 10.19 5.21 2.76 2.09 5.07 4.39 6.89 6.94 1.86 2.55 3.27 5.52 4.31 8.98 1.02 3.43 1.53 7.11 1.54 11.05.01 4.4-.56 8.53-1.65 12.37-1.1 3.83-2.85 7.45-5.26 10.82-2.36 3.39-5.39 6.33-9.01 8.77-3.61 2.45-8.72 4.99-15.31 7.56l5.16 12.48c1.46 3.47 3.01 6.99 4.66 10.63L965.7 216c.6 1.27 1.65 3.73 3.17 7.39-10.81-.12-18.11-.18-21.84-.17-4.73.01-12.46.09-23.2.25-1.07-3.43-2.96-9.72-5.77-18.95-1.11-3.91-2.06-6.86-2.87-8.95-1.57-4.68-3.91-11.2-7.01-19.57l-10.19-27.84c3.55.64 7.02.98 10.44.97 4.76-.01 9.14-.73 13.02-2.19 3.89-1.44 6.85-3.7 8.86-6.73 1.98-3.02 2.98-6.18 2.97-9.54-.01-2.81-.75-5.29-2.26-7.41-1.51-2.16-3.9-3.72-7.16-4.76-3.23-1.03-8.23-1.58-14.97-1.57-2.32 0-4.69.06-7.16.16-2.45.1-5.3.21-8.59.29-.82 13.43-1.57 29.81-2.16 49.18-.64 19.35-1.02 38.32-1.2 56.96-10.96-.12-18.06-.18-21.32-.17-3.84 0-10.68.09-20.59.25zM697.1 89.6c10.2.12 17.43.18 21.63.17 5.23-.01 12.21-.1 20.95-.25l-2.88 41.82c-.55 7.86-1.01 15.26-1.26 22.14-.3 6.87-.42 11.64-.41 14.26.01 4.98.35 9.17 1.1 12.48.71 3.36 2.02 6.17 3.93 8.52 1.93 2.32 4.56 4.07 7.95 5.24 3.36 1.17 6.88 1.77 10.59 1.76 3.11-.01 6.06-.45 8.82-1.3 2.19-.7 4.1-1.67 5.8-2.94 1.52-1.15 2.82-2.54 3.92-4.11 1.38-1.85 2.59-4.22 3.65-7.03 1.03-2.65 1.79-6.09 2.32-10.3.62-4.31 1.36-14.08 2.31-29.31.84-12.95 1.46-24.83 1.92-35.62.39-10.44.71-15.69 1.04-15.69l23.41-.04 19.97-.04-4.66 69.86c-.07 1.31-.09 2.4-.09 3.25-.25 13.64-1.09 23.25-2.48 28.87-1.39 5.6-3.74 10.47-7.02 14.64-3.24 4.13-8.05 7.85-14.31 11.18-6.31 3.33-13.46 5.67-21.45 7.06-7.99 1.38-16.13 2.11-24.31 2.12-7.32.01-14.4-.53-21.22-1.55-6.32-1.03-12-2.56-17.03-4.53-5.07-2-9.48-4.31-13.22-7.03-3.43-2.47-6.05-4.98-7.87-7.6-1.84-2.58-3.3-5.66-4.35-9.25-1.19-4.1-1.79-8.43-1.8-13.11 0-1.57.05-3.94.18-7.09.14-3.2.44-7.76.85-13.76l1.27-15.73c.3-4.13.66-10.21 1.06-18.21zm-84.01 56.14c9 .12 17.56.17 25.69.16 13.9-.03 24.81-.11 32.67-.27-.85 9.01-1.7 21.7-2.55 38.17-.87 16.48-1.38 28.89-1.58 37.28-7.51 1.4-13.75 2.43-18.72 3.03-4.94.66-10.92 1.19-17.86 1.71-6.95.53-13.12.77-18.58.78-8.92.02-17.69-.68-26.29-2.1-8.6-1.43-16.3-3.77-23.07-6.94-6.79-3.21-12.43-7.58-16.98-13.08-4.55-5.49-8.06-12.01-10.52-19.56a75.603 75.603 0 0 1-3.75-23.4c-.02-13.31 3.28-25.69 9.88-37.11 6.6-11.39 16.11-20.47 28.52-27.14 12.41-6.69 28.49-10.03 48.16-10.07 14.38-.03 30.26 1.67 47.72 5.1.02 9.59.48 20.22 1.36 31.97-4.75-1.55-8.56-2.74-11.46-3.56-2.93-.8-6.36-1.56-10.25-2.24-3.9-.69-7.63-1.18-11.12-1.48-3.53-.34-6.65-.49-9.4-.49-7.22.01-14.04 1.06-20.49 3.12-6.4 2.09-11.93 5.3-16.53 9.57-4.62 4.32-8.09 9.46-10.36 15.43-2.29 5.99-3.43 12.26-3.42 18.87.01 6.79 1.33 12.81 3.97 18.05 2.63 5.28 6.8 9.3 12.51 12.05 5.71 2.73 12.1 4.1 19.12 4.09 5.84-.01 12.22-.85 19.17-2.59l1.06-21.36c-4.26-.2-6.8-.29-7.59-.29l-10.45.11.69-12.07c.02-1.31.13-3.22.25-5.69.13-2.45.2-5.81.19-10.07zm640.35 62.74l5.74 14.37c-11.33-.12-18.22-.18-20.64-.17-5.51.01-13.6.09-24.3.26-2.91-10.8-7.1-23.53-12.57-38.11l-22.38.04-27.21.05c-5.69 11.56-11.56 24.26-17.67 38.16-12.19-.12-19.63-.17-22.39-.17-5.01.01-13.03.09-24.11.25l8.14-14.18 50.69-95.89 5.39-10.76c1.57-3.12 3.75-7.66 6.55-13.59 8.5.08 15.32.13 20.44.15 1.83.02 3.45.02 4.84.02 9.27-.02 17.8-.11 25.69-.26l14.45 41zm-58.91-52.3c-7.66-23.12-11.85-35.87-12.55-38.22-.96 2.14-1.91 4.22-2.8 6.2-3.13 6.87-5.88 12.71-8.18 17.53l-7.06 14.55 15.3-.03zm237.86-10.99c-.78 31.1-1.18 52.5-1.16 64.13 0 2.47.08 6.87.23 13.2-8.68-.13-14.75-.18-18.21-.18-5.06.01-11.24.09-18.6.25.53-5.9 1.14-19.95 1.88-42.14.77-22.21 1.09-36.4 1.09-42.55-.01-2.71-.07-6.45-.19-11.22l-12.81 40.06-18.4 55.9c-8.52-.12-14.4-.18-17.59-.18-4.05.01-10.31.09-18.71.25l-12.18-54.07-7.14-28.83c-.28-1.1-.58-2.49-.92-4.12-.3-1.66-.85-4.54-1.56-8.66l-2.43 27.26-3.12 55.9-.29 12.58c-9.06-.12-14.81-.18-17.33-.18-3.39.01-9.28.08-17.69.24l2.43-19.89 5.94-68.98 2.98-45.44c12.09.11 21.57.17 28.45.16 5.69-.01 14.44-.1 26.17-.26.86 5.64 1.61 9.9 2.19 12.83.61 2.93 2.07 8.64 4.44 17.14 2.32 8.47 4.22 15.82 5.64 22.01 1.42 6.19 3.56 16.81 6.4 31.8 2.84-10.3 5.49-19.13 7.82-26.58 2.34-7.42 5.27-15.85 8.81-25.29 3.52-9.45 5.75-15.63 6.69-18.56.97-2.9 2.23-7.37 3.86-13.44 9.84.12 19.47.17 28.92.16 6.45-.01 15.34-.1 26.77-.26-1.21 22.12-1.98 41.11-2.35 56.96zM192.47 9.18l75.35 80.4-80.4 75.37-75.36-80.41zm-17.21 168.37l-99.55 93.31L.34 190.45l99.55-93.31zm105.46 86.95l-75.37-80.41 80.41-75.35 75.35 80.39zM299 96.32l99.54-93.31 75.36 80.4-99.55 93.3z" fill="#fff"/></g></svg>