<svg xmlns="http://www.w3.org/2000/svg" viewBox="0 0 1435 271" width="1435" height="271">
	<defs>
		<clipPath clipPathUnits="userSpaceOnUse" id="cp1">
			<path d="M0 0L1435 0L1435 271L0 271Z" />
		</clipPath>
	</defs>
	<style>
		tspan { white-space:pre }
		.shp0 { fill: #ffffff } 
	</style>
	<g id="Page 1" clip-path="url(#cp1)">
		<path id="Path 1" class="shp0" d="M1019.13,223.29c3.24,-31.87 5.11,-66.96 5.7,-105.26l-41.89,1.13l0.45,-10.9c0.24,-5.85 0.44,-12.24 0.56,-19.2c18.64,0.1 40.33,0.14 65.11,0.09l24.29,-0.13l23.61,-0.04l12.79,-0.14l-0.59,9.66c-0.26,5.16 -0.42,9.42 -0.51,12.78c-0.1,3.39 -0.13,5.94 -0.13,7.65c-14.02,-0.67 -25.62,-1.01 -34.71,-0.99l-6.88,0.01c-0.96,11.56 -1.72,22.27 -2.21,32.09c-0.7,14.07 -1.24,27.74 -1.59,41.01c-0.39,13.27 -0.58,23.98 -0.56,32.16c-10.73,-0.12 -17.69,-0.18 -20.85,-0.17c-2.81,0 -10.36,0.09 -22.62,0.25zM847.85,223.61c1.23,-11.55 2.21,-21.93 2.89,-31.2c0.72,-9.24 1.35,-19.95 1.83,-32.16c0.51,-12.19 0.89,-25.07 1.13,-38.62c0.21,-13.54 0.32,-24.32 0.31,-32.32c8.2,0.2 14.86,0.3 19.88,0.29c5.23,-0.01 11.65,-0.21 19.18,-0.5c7.56,-0.31 14.87,-0.49 22.03,-0.5c8.38,-0.02 15.88,0.31 22.43,0.97c4.94,0.43 9.39,1.39 13.43,2.84c4.03,1.42 7.42,3.16 10.19,5.21c2.76,2.09 5.07,4.39 6.89,6.94c1.86,2.55 3.27,5.52 4.31,8.98c1.02,3.43 1.53,7.11 1.54,11.05c0.01,4.4 -0.56,8.53 -1.65,12.37c-1.1,3.83 -2.85,7.45 -5.26,10.82c-2.36,3.39 -5.39,6.33 -9.01,8.77c-3.61,2.45 -8.72,4.99 -15.31,7.56l5.16,12.48c1.46,3.47 3.01,6.99 4.66,10.63l13.22,28.78c0.6,1.27 1.65,3.73 3.17,7.39c-10.81,-0.12 -18.11,-0.18 -21.84,-0.17c-4.73,0.01 -12.46,0.09 -23.2,0.25c-1.07,-3.43 -2.96,-9.72 -5.77,-18.95c-1.11,-3.91 -2.06,-6.86 -2.87,-8.95c-1.57,-4.68 -3.91,-11.2 -7.01,-19.57l-10.19,-27.84c3.55,0.64 7.02,0.98 10.44,0.97c4.76,-0.01 9.14,-0.73 13.02,-2.19c3.89,-1.44 6.85,-3.7 8.86,-6.73c1.98,-3.02 2.98,-6.18 2.97,-9.54c-0.01,-2.81 -0.75,-5.29 -2.26,-7.41c-1.51,-2.16 -3.9,-3.72 -7.16,-4.76c-3.23,-1.03 -8.23,-1.58 -14.97,-1.57c-2.32,0 -4.69,0.06 -7.16,0.16c-2.45,0.1 -5.3,0.21 -8.59,0.29c-0.82,13.43 -1.57,29.81 -2.16,49.18c-0.64,19.35 -1.02,38.32 -1.2,56.96c-10.96,-0.12 -18.06,-0.18 -21.32,-0.17c-3.84,0 -10.68,0.09 -20.59,0.25zM697.1,89.6c10.2,0.12 17.43,0.18 21.63,0.17c5.23,-0.01 12.21,-0.1 20.95,-0.25l-2.88,41.82c-0.55,7.86 -1.01,15.26 -1.26,22.14c-0.3,6.87 -0.42,11.64 -0.41,14.26c0.01,4.98 0.35,9.17 1.1,12.48c0.71,3.36 2.02,6.17 3.93,8.52c1.93,2.32 4.56,4.07 7.95,5.24c3.36,1.17 6.88,1.77 10.59,1.76c3.11,-0.01 6.06,-0.45 8.82,-1.3c2.19,-0.7 4.1,-1.67 5.8,-2.94c1.52,-1.15 2.82,-2.54 3.92,-4.11c1.38,-1.85 2.59,-4.22 3.65,-7.03c1.03,-2.65 1.79,-6.09 2.32,-10.3c0.62,-4.31 1.36,-14.08 2.31,-29.31c0.84,-12.95 1.46,-24.83 1.92,-35.62c0.39,-10.44 0.71,-15.69 1.04,-15.69l23.41,-0.04l19.97,-0.04l-4.66,69.86c-0.07,1.31 -0.09,2.4 -0.09,3.25c-0.25,13.64 -1.09,23.25 -2.48,28.87c-1.39,5.6 -3.74,10.47 -7.02,14.64c-3.24,4.13 -8.05,7.85 -14.31,11.18c-6.31,3.33 -13.46,5.67 -21.45,7.06c-7.99,1.38 -16.13,2.11 -24.31,2.12c-7.32,0.01 -14.4,-0.53 -21.22,-1.55c-6.32,-1.03 -12,-2.56 -17.03,-4.53c-5.07,-2 -9.48,-4.31 -13.22,-7.03c-3.43,-2.47 -6.05,-4.98 -7.87,-7.6c-1.84,-2.58 -3.3,-5.66 -4.35,-9.25c-1.19,-4.1 -1.79,-8.43 -1.8,-13.11c0,-1.57 0.05,-3.94 0.18,-7.09c0.14,-3.2 0.44,-7.76 0.85,-13.76l1.27,-15.73c0.3,-4.13 0.66,-10.21 1.06,-18.21zM613.09,145.74c9,0.12 17.56,0.17 25.69,0.16c13.9,-0.03 24.81,-0.11 32.67,-0.27c-0.85,9.01 -1.7,21.7 -2.55,38.17c-0.87,16.48 -1.38,28.89 -1.58,37.28c-7.51,1.4 -13.75,2.43 -18.72,3.03c-4.94,0.66 -10.92,1.19 -17.86,1.71c-6.95,0.53 -13.12,0.77 -18.58,0.78c-8.92,0.02 -17.69,-0.68 -26.29,-2.1c-8.6,-1.43 -16.3,-3.77 -23.07,-6.94c-6.79,-3.21 -12.43,-7.58 -16.98,-13.08c-4.55,-5.49 -8.06,-12.01 -10.52,-19.56c-2.46,-7.55 -3.73,-15.33 -3.75,-23.4c-0.02,-13.31 3.28,-25.69 9.88,-37.11c6.6,-11.39 16.11,-20.47 28.52,-27.14c12.41,-6.69 28.49,-10.03 48.16,-10.07c14.38,-0.03 30.26,1.67 47.72,5.1c0.02,9.59 0.48,20.22 1.36,31.97c-4.75,-1.55 -8.56,-2.74 -11.46,-3.56c-2.93,-0.8 -6.36,-1.56 -10.25,-2.24c-3.9,-0.69 -7.63,-1.18 -11.12,-1.48c-3.53,-0.34 -6.65,-0.49 -9.4,-0.49c-7.22,0.01 -14.04,1.06 -20.49,3.12c-6.4,2.09 -11.93,5.3 -16.53,9.57c-4.62,4.32 -8.09,9.46 -10.36,15.43c-2.29,5.99 -3.43,12.26 -3.42,18.87c0.01,6.79 1.33,12.81 3.97,18.05c2.63,5.28 6.8,9.3 12.51,12.05c5.71,2.73 12.1,4.1 19.12,4.09c5.84,-0.01 12.22,-0.85 19.17,-2.59l1.06,-21.36c-4.26,-0.2 -6.8,-0.29 -7.59,-0.29l-10.45,0.11l0.69,-12.07c0.02,-1.31 0.13,-3.22 0.25,-5.69c0.13,-2.45 0.2,-5.81 0.19,-10.07zM1253.44,208.48l5.74,14.37c-11.33,-0.12 -18.22,-0.18 -20.64,-0.17c-5.51,0.01 -13.6,0.09 -24.3,0.26c-2.91,-10.8 -7.1,-23.53 -12.57,-38.11l-22.38,0.04l-27.21,0.05c-5.69,11.56 -11.56,24.26 -17.67,38.16c-12.19,-0.12 -19.63,-0.17 -22.39,-0.17c-5.01,0.01 -13.03,0.09 -24.11,0.25l8.14,-14.18l50.69,-95.89l5.39,-10.76c1.57,-3.12 3.75,-7.66 6.55,-13.59c8.5,0.08 15.32,0.13 20.44,0.15c1.83,0.02 3.45,0.02 4.84,0.02c9.27,-0.02 17.8,-0.11 25.69,-0.26l14.45,41zM1194.53,156.18c-7.66,-23.12 -11.85,-35.87 -12.55,-38.22c-0.96,2.14 -1.91,4.22 -2.8,6.2c-3.13,6.87 -5.88,12.71 -8.18,17.53l-7.06,14.55l15.3,-0.03zM1432.39,145.19c-0.78,31.1 -1.18,52.5 -1.16,64.13c0,2.47 0.08,6.87 0.23,13.2c-8.68,-0.13 -14.75,-0.18 -18.21,-0.18c-5.06,0.01 -11.24,0.09 -18.6,0.25c0.53,-5.9 1.14,-19.95 1.88,-42.14c0.77,-22.21 1.09,-36.4 1.09,-42.55c-0.01,-2.71 -0.07,-6.45 -0.19,-11.22l-12.81,40.06l-18.4,55.9c-8.52,-0.12 -14.4,-0.18 -17.59,-0.18c-4.05,0.01 -10.31,0.09 -18.71,0.25l-12.18,-54.07l-7.14,-28.83c-0.28,-1.1 -0.58,-2.49 -0.92,-4.12c-0.3,-1.66 -0.85,-4.54 -1.56,-8.66l-2.43,27.26l-3.12,55.9l-0.29,12.58c-9.06,-0.12 -14.81,-0.18 -17.33,-0.18c-3.39,0.01 -9.28,0.08 -17.69,0.24l2.43,-19.89l5.94,-68.98l2.98,-45.44c12.09,0.11 21.57,0.17 28.45,0.16c5.69,-0.01 14.44,-0.1 26.17,-0.26c0.86,5.64 1.61,9.9 2.19,12.83c0.61,2.93 2.07,8.64 4.44,17.14c2.32,8.47 4.22,15.82 5.64,22.01c1.42,6.19 3.56,16.81 6.4,31.8c2.84,-10.3 5.49,-19.13 7.82,-26.58c2.34,-7.42 5.27,-15.85 8.81,-25.29c3.52,-9.45 5.75,-15.63 6.69,-18.56c0.97,-2.9 2.23,-7.37 3.86,-13.44c9.84,0.12 19.47,0.17 28.92,0.16c6.45,-0.01 15.34,-0.1 26.77,-0.26c-1.21,22.12 -1.98,41.11 -2.35,56.96zM192.47,9.18l75.35,80.4l-80.4,75.37l-75.36,-80.41zM175.26,177.55l-99.55,93.31l-75.37,-80.41l99.55,-93.31zM280.72,264.5l-75.37,-80.41l80.41,-75.35l75.35,80.39zM299,96.32l99.54,-93.31l75.36,80.4l-99.55,93.3z" />
	</g>
</svg>