<svg xmlns="http://www.w3.org/2000/svg" viewBox="0 0 5412 1268" width="5412" height="1268">
	<defs>
		<clipPath clipPathUnits="userSpaceOnUse" id="cp1">
			<path d="M-192,1931.8h120v-120h-120z" />
		</clipPath>
		<linearGradient id="grd1" gradientUnits="userSpaceOnUse"  x1="86.211" y1="176.91" x2="594.725" y2="618.6">
			<stop offset="0" stop-color="#5a9fd4"  />
			<stop offset="1" stop-color="#306998"  />
		</linearGradient>
		<linearGradient id="grd2" gradientUnits="userSpaceOnUse"  x1="666.069" y1="985.704" x2="484.481" y2="726.331">
			<stop offset="0" stop-color="#ffd43b"  />
			<stop offset="1" stop-color="#ffe873"  />
		</linearGradient>
		<linearGradient id="grd3" gradientUnits="userSpaceOnUse"  x1="3680.89" y1="989.028" x2="5226.497" y2="989.028">
			<stop offset="0" stop-color="#4c8cbf"  />
			<stop offset="1" stop-color="#306898"  />
		</linearGradient>
	</defs>
	<style>
		tspan { white-space:pre }
		.shp0 { fill: #7f7f7f } 
		.shp1 { fill: url(#grd1) } 
		.shp2 { fill: url(#grd2) } 
		.shp3 { fill: #ffffff } 
		.shp4 { fill: url(#grd3) } 
	</style>
	<g id="Document">
		<g id="Spread">
			<g id="Logo">
				<g id="Group">
					<g id="Clip-Path" clip-path="url(#cp1)">
						<path id="Layer" class="shp0" d="M835.6,1250.54c0,-43.9 -133.4,-79.47 -297.93,-79.47c-164.55,0 -297.95,35.57 -297.95,79.47c0,43.91 133.4,79.49 297.95,79.49c164.53,0 297.93,-35.58 297.93,-79.49z" />
					</g>
					<g id="Group_1">
						<g id="Group_2">
							<path id="Layer" class="shp1" d="M541.6,176.92c38.01,-0.18 77.62,2.7 115.81,9.07c60.34,10.05 111.17,55.31 111.17,115.56v211.67c0,62.08 -49.34,112.98 -111.17,112.98h-222.06c-75.4,0 -138.89,64.72 -138.89,138.11v101.55h-76.44c-64.62,0 -102.36,-46.89 -118.15,-112.7c-21.31,-88.42 -20.42,-141.26 0,-225.94c17.69,-73.88 74.28,-112.71 138.89,-112.71h305.76v-28.25h-222.33v-84.71c0,-64.15 17.08,-98.95 111.16,-115.56c31.94,-5.66 68.24,-8.89 106.24,-9.07zM421.35,245.06c-23.05,0 -41.71,19.06 -41.71,42.5c0,23.34 18.66,42.23 41.71,42.23c22.97,0 41.72,-18.89 41.72,-42.23c0,-23.44 -18.75,-42.5 -41.72,-42.5z" />
							<path id="Layer" class="shp2" d="M796.31,414.51h83.44c64.7,0 95.19,48.38 111.16,112.71c22.22,89.33 23.2,156.31 0,225.94c-22.48,67.64 -46.56,112.7 -111.16,112.7h-333.23v28.25h222.06v84.72c0,64.17 -55.19,96.78 -111.17,112.99c-84.19,24.42 -151.69,20.67 -222.06,0c-58.78,-17.3 -111.16,-52.73 -111.16,-112.99v-211.68c0,-60.91 50.32,-112.97 111.16,-112.97h222.06c74,0 138.9,-64.42 138.9,-140.96zM671.41,950.6c-22.97,0 -41.71,18.89 -41.71,42.24c0,23.43 18.74,42.49 41.71,42.49c23.05,0 41.72,-19.06 41.72,-42.49c0,-23.35 -18.67,-42.24 -41.72,-42.24z" />
						</g>
					</g>
					<g id="Group_3">
						<g id="Group_4">
							<path id="Layer" class="shp3" d="M1571.48,652.81c0,59.15 -13.98,108.22 -41.91,147.22c-31.19,44.19 -74.4,66.94 -129.62,68.24c-41.59,1.3 -84.46,-11.7 -128.63,-39.01v252.51l-70.23,-25.35v-560.55c11.73,-14.3 26.72,-26.65 44.96,-37.05c42.35,-24.7 93.82,-37.37 154.4,-38.02l0.99,0.97c55.37,-0.65 98.04,22.1 128.02,68.25c28,42.24 42.02,96.5 42.02,162.79zM1489.59,647.98c0,-116.31 -33.31,-176.1 -99.92,-179.35c-26.51,-1.29 -52.38,2.93 -77.6,12.68c-20.06,7.13 -33.64,14.29 -40.75,21.43v277.79c42.68,26.63 80.52,38.98 113.5,37.05c69.85,-4.57 104.77,-61.1 104.77,-169.6z" />
							<path id="Layer" class="shp3" d="M2007.54,431.49h-71.16v348.05c-37.05,24.7 -71.82,37.37 -104.31,38.04c-32.5,0.63 -58.98,-7.65 -79.46,-24.86c-20.47,-17.24 -30.7,-41.78 -30.7,-73.61v-298.31l-72.12,24.37v296.39c-0.01,37.06 14.94,67.61 44.82,91.66c26.64,22.09 57.5,33.14 92.58,33.14c53.28,0 104.27,-11.06 153,-33.2c0.04,0 0.04,6.18 0,18.53c0,55.25 -5.2,92.64 -15.59,112.14c-12.99,24.06 -36.7,41.94 -71.12,53.63c-17.54,5.85 -47.73,11.7 -90.59,17.55l11.68,44.86c42.24,-1.31 81.55,-9.11 117.95,-23.4c44.84,-18.21 75.22,-42.59 91.15,-73.13c15.92,-30.55 23.88,-85.47 23.87,-164.77z" />
							<path id="Layer" class="shp3" d="M2285.56,827.39c-26.66,-1.3 -46.16,-6.5 -58.51,-15.6c-14.31,-11.04 -21.46,-29.89 -21.46,-56.53v-277.82h79.97v-45.93h-79.97v-144.25l-71.18,25.35v118.9h-48.79v45.93h48.79v279.77c0,33.79 11.21,60.27 33.65,79.45c22.43,19.17 53.79,28.76 94.1,28.76c7.15,0 14.95,-0.33 23.4,-0.98z" />
							<path id="Layer" class="shp3" d="M2729.73,561.21c0,-37.69 -11.7,-69.2 -35.09,-94.55c-23.4,-25.34 -53.94,-38.01 -91.64,-38.01c-53.94,0 -103.66,16.55 -149.14,49.64v-299.33l-71.18,22.42v657.13h71.18v-329.42c48.73,-34.43 89.36,-51.65 121.87,-51.65c26.63,0 47.43,11.37 62.38,34.12c13,20.13 19.5,44.17 19.5,72.12v274.83h72.12z" />
							<path id="Layer" class="shp3" d="M3198.66,637.23c0,63.71 -16.26,116.68 -48.76,158.91c-35.76,47.46 -85.18,71.19 -148.24,71.17c-62.42,0.02 -111.19,-23.71 -146.3,-71.17c-31.86,-42.23 -47.79,-95.2 -47.79,-158.91c0,-59.8 17.23,-110.17 51.69,-151.11c36.41,-43.55 84.2,-65.32 143.38,-65.32c59.16,0 107.27,21.77 144.33,65.32c34.45,40.94 51.69,91.31 51.69,151.11zM3120.58,637.3c0.02,-44.86 -8.43,-81.91 -25.33,-111.16c-20.15,-35.75 -51.35,-54.59 -93.59,-56.56c-77.98,4.55 -116.97,60.42 -116.97,167.62c0,49.43 8.15,90.72 24.47,123.89c20.88,42.27 52.22,63.08 93.98,62.43c78.31,-0.65 117.46,-62.73 117.44,-186.22z" />
							<path id="Layer" class="shp3" d="M3620.7,531.92c0.01,-27.29 -9.74,-50.68 -29.25,-70.18c-17.54,-17.55 -40.29,-29.57 -68.25,-36.07c-14.95,-3.25 -30.88,-4.87 -47.78,-4.87c-24.7,0 -53.31,4.22 -85.81,12.67c-34.45,9.1 -72.15,28.58 -113.1,58.48v366.56h71.16v-357.69c30.57,-21.43 62.74,-32.48 96.54,-33.13c31.85,-0.65 57.37,7.96 76.55,25.82c19.19,17.87 28.77,42.72 28.77,74.57v290.43h71.17z" />
						</g>
					</g>
					<g id="Group_5">
						<g id="Group_6">
							<path id="Layer" class="shp3" d="M3857.4,524.23c-7.18,-8.37 -18.35,-15.04 -33.5,-20.02l-21.22,-6.88c-21.72,-6.97 -32.49,-16.83 -32.29,-29.58c0.2,-9.56 3.59,-17.13 10.16,-22.71c6.58,-5.58 15.65,-8.37 27.21,-8.37c12.55,0 24.91,4.48 37.06,13.44l9.27,-14.35c-15.55,-11.36 -31.39,-17.04 -47.54,-17.04c-18.13,0 -32.73,4.98 -43.79,14.94c-11.06,9.97 -16.59,22.92 -16.59,38.86c0,12.35 3.68,22.41 11.06,30.18c6.18,6.57 17.45,12.55 33.8,17.93l18.79,6.39c11.58,3.78 19.97,8.21 25.17,13.29c5.19,5.07 7.79,11.69 7.79,19.85c0,10.75 -4.69,19.6 -14.06,26.57c-6.98,4.97 -16.34,7.56 -28.1,7.76c-17.15,0.2 -33.59,-6.29 -49.34,-19.45l-9.27,15.25c6.77,6.38 15.34,11.66 25.7,15.85c11.16,4.78 22.02,7.17 32.58,7.17c15.94,0 29.89,-3.78 41.84,-11.36v-0.3c17.36,-11.75 26.04,-26.7 26.04,-44.83c0,-13.36 -3.59,-24.22 -10.77,-32.59z" />
							<path id="Layer" class="shp3" d="M4048.11,514.07c0,25.51 -6.88,47.92 -20.63,67.25c-15.54,21.72 -35.66,32.58 -60.37,32.58c-24.71,0 -44.83,-10.86 -60.37,-32.58c-13.75,-19.33 -20.62,-41.75 -20.62,-67.25c0,-25.31 7.06,-47.13 21.18,-65.46c15.31,-19.93 35.2,-29.89 59.66,-29.89c24.66,0 44.65,9.96 59.97,29.89c14.12,18.33 21.18,40.15 21.18,65.46zM4023,514.07c0.01,-20.33 -4.57,-37.97 -13.74,-52.93c-10.56,-17.14 -24.61,-25.71 -42.14,-25.71c-17.73,0 -31.88,8.57 -42.44,25.71c-9.36,14.96 -14.04,32.6 -14.04,52.93c0,21.73 4.78,40.56 14.34,56.51c10.76,17.54 24.7,26.32 41.84,26.32c17.13,0 31.08,-8.78 41.84,-26.32c9.57,-15.95 14.35,-34.78 14.34,-56.51z" />
							<path id="Layer" class="shp3" d="M4075.25,422.95v188.25h21.53v-93.83h54.94l8.11,-14.96h-63.05v-64.21h75.3l7.78,-15.25z" />
							<path id="Layer" class="shp3" d="M4319.39,422.59l-126.72,0.29l-6.87,14.66h56.18v173.66h22.11v-173.66h55.3z" />
							<path id="Layer" class="shp3" d="M4542.25,419.01l-42.64,152.73l-42.22,-152.73l-21.52,7.79l-40.07,144.7l-42.24,-152.44l-21.1,7.74l52.6,187.1l17.02,-5.98l40.89,-156.71l45.9,162.76l16.93,-6.05l49.32,-186.2z" />
							<path id="Layer" class="shp3" d="M4709.08,611.2h-23.01l-20.3,-58.59h-72.66l-21.55,58.59h-16.4l68.15,-185.29l21.21,-6.9zM4661.35,538.53l-29.96,-89.17l-33.1,89.17z" />
							<path id="Layer" class="shp3" d="M4843.96,611.2h-26.33l-49.91,-88.14h-15.84v88.14h-21.82v-188.61h59.47c14.94,0 27.58,4.93 37.95,14.81c10.35,9.87 15.53,21.88 15.53,36.04c0,14.35 -4.79,26.22 -14.36,35.59c-9.58,9.38 -21.55,14.06 -35.92,14.06zM4820.9,472.82c0,-8.97 -3.38,-17 -10.15,-24.08c-6.78,-7.07 -14.75,-10.61 -23.91,-10.61h-34.96v69.68h34.66c10.16,0 18.43,-3.34 24.8,-10.02c6.38,-6.68 9.56,-15.01 9.56,-24.97z" />
							<path id="Layer" class="shp3" d="M4871.18,422.88v188.32h102.82v-14.96h-81.29v-78.87h54.99l7.77,-14.96h-62.76v-64.57h75.61l7.47,-15.25z" />
						</g>
						<g id="Group_7">
							<path id="Layer" class="shp3" d="M3750.98,673.05v188.25h21.53v-93.83h54.95l8.1,-14.96h-63.05v-64.21h75.31l7.77,-15.25z" />
							<path id="Layer" class="shp3" d="M4023.59,764.17c0,25.51 -6.87,47.92 -20.62,67.25c-15.54,21.72 -35.67,32.58 -60.37,32.58c-24.71,0 -44.83,-10.86 -60.37,-32.58c-13.75,-19.33 -20.63,-41.75 -20.63,-67.25c0,-25.31 7.06,-47.13 21.18,-65.46c15.32,-19.93 35.2,-29.89 59.66,-29.89c24.67,0 44.66,9.96 59.97,29.89c14.12,18.33 21.18,40.15 21.18,65.46zM3998.49,764.17c0,-20.33 -4.58,-37.97 -13.75,-52.93c-10.56,-17.13 -24.6,-25.71 -42.14,-25.71c-17.73,0 -31.88,8.58 -42.43,25.71c-9.37,14.96 -14.05,32.6 -14.05,52.93c0,21.73 4.78,40.57 14.35,56.51c10.75,17.54 24.7,26.32 41.83,26.32c17.14,0 31.09,-8.78 41.85,-26.32c9.56,-15.94 14.34,-34.78 14.34,-56.51z" />
							<path id="Layer" class="shp3" d="M4185.22,673.02h-17.01v120.43c0,15.94 -4.44,28.69 -13.31,38.25c-8.87,9.57 -21.08,14.35 -36.64,14.35c-31.11,0.2 -46.66,-17.14 -46.65,-52.01v-124.93l-22.41,7.48v121.05c0,19.53 6.43,35.48 19.28,47.83c12.86,12.35 28.85,18.53 47.98,18.53c19.73,0 36.12,-6.23 49.18,-18.68c13.05,-12.45 19.57,-28.44 19.58,-47.97z" />
							<path id="Layer" class="shp3" d="M4361.87,673.02h-14.96v156.94l-110.02,-160.84l-17.31,5.98v186.2h15.25v-154.22l105.5,154.22h21.54z" />
							<path id="Layer" class="shp3" d="M4532.25,770.18c0,24.5 -6.78,45.82 -20.32,63.95c-14.55,19.52 -32.78,29.28 -54.69,29.28c-20.52,0 -40.35,-7.77 -59.47,-23.31v-167.41l60.37,0.36c24.1,0.2 42.93,10.57 56.48,31.08c11.75,18.13 17.63,40.14 17.63,66.05zM4507.44,772.57c0,-56.37 -21.31,-84.56 -63.95,-84.56h-23.61v147.01c9.56,8.77 20.52,13.14 32.87,13.14c17.14,0 30.88,-8.26 41.24,-24.8c8.97,-14.54 13.45,-31.47 13.45,-50.79z" />
							<path id="Layer" class="shp3" d="M4698.14,861.3h-23.01l-20.3,-58.59h-72.66l-21.55,58.59h-16.4l68.15,-185.29l21.21,-6.9zM4650.41,788.63l-29.96,-89.17l-33.1,89.17z" />
							<path id="Layer" class="shp3" d="M4819.81,672.69l-126.72,0.3l-6.88,14.66h56.19v173.65h22.11v-173.65h55.3z" />
							<path id="Layer" class="shp3" d="M4865.78,669.41l-22.1,7.47v184.42h22.1z" />
							<path id="Layer" class="shp3" d="M5054.77,764.17c0,25.51 -6.87,47.92 -20.62,67.25c-15.54,21.72 -35.67,32.58 -60.37,32.58c-24.71,0 -44.83,-10.86 -60.37,-32.58c-13.75,-19.33 -20.63,-41.75 -20.63,-67.25c0,-25.31 7.06,-47.13 21.18,-65.46c15.32,-19.93 35.2,-29.89 59.67,-29.89c24.66,0 44.65,9.96 59.96,29.89c14.12,18.33 21.18,40.15 21.18,65.46zM5029.67,764.17c0,-20.33 -4.58,-37.97 -13.75,-52.93c-10.56,-17.13 -24.6,-25.71 -42.14,-25.71c-17.73,0 -31.88,8.58 -42.43,25.71c-9.37,14.96 -14.05,32.6 -14.05,52.93c0,21.73 4.78,40.57 14.35,56.51c10.75,17.54 24.7,26.32 41.83,26.32c17.14,0 31.09,-8.78 41.85,-26.32c9.56,-15.94 14.34,-34.78 14.34,-56.51z" />
							<path id="Layer" class="shp3" d="M5224.2,673.02h-14.96v156.94l-110.02,-160.84l-17.31,5.98v186.2h15.26v-154.22l105.49,154.22h21.54z" />
						</g>
					</g>
					<path id="Layer" class="shp4" d="M2135.32,989.03v0c0,19.69 15.99,35.68 35.68,35.68l3019.85,-0.01c19.7,0 35.68,-15.98 35.67,-35.68v0c-0.01,-19.69 -16,-35.68 -35.69,-35.68l-3019.85,0.01c-19.69,0 -35.67,15.98 -35.66,35.68z" />
				</g>
			</g>
			<g id="Layer_1">
			</g>
		</g>
	</g>
</svg>