<svg xmlns="http://www.w3.org/2000/svg" width="5412" height="1268"><defs><clipPath clipPathUnits="userSpaceOnUse" id="cp1"><path d="M-192 1931.8h120v-120h-120z"/></clipPath><linearGradient id="grd1" gradientUnits="userSpaceOnUse" x1="86.211" y1="176.91" x2="594.725" y2="618.6"><stop offset="0" stop-color="#5a9fd4"/><stop offset="1" stop-color="#306998"/></linearGradient><linearGradient id="grd2" gradientUnits="userSpaceOnUse" x1="666.069" y1="985.704" x2="484.481" y2="726.331"><stop offset="0" stop-color="#ffd43b"/><stop offset="1" stop-color="#ffe873"/></linearGradient><linearGradient id="grd3" gradientUnits="userSpaceOnUse" x1="3680.89" y1="989.028" x2="5226.497" y2="989.028"><stop offset="0" stop-color="#4c8cbf"/><stop offset="1" stop-color="#306898"/></linearGradient></defs><style>.shp3{fill:#fff}</style><g id="Document"><g id="Spread"><g id="Logo"><g id="Group"><g id="Clip-Path" clip-path="url(#cp1)"><path id="Layer" d="M835.6 1250.54c0-43.9-133.4-79.47-297.93-79.47-164.55 0-297.95 35.57-297.95 79.47 0 43.91 133.4 79.49 297.95 79.49 164.53 0 297.93-35.58 297.93-79.49z" fill="#7f7f7f"/></g><g id="Group_1"><g id="Group_2"><path id="Layer" d="M541.6 176.92c38.01-.18 77.62 2.7 115.81 9.07 60.34 10.05 111.17 55.31 111.17 115.56v211.67c0 62.08-49.34 112.98-111.17 112.98H435.35c-75.4 0-138.89 64.72-138.89 138.11v101.55h-76.44c-64.62 0-102.36-46.89-118.15-112.7-21.31-88.42-20.42-141.26 0-225.94 17.69-73.88 74.28-112.71 138.89-112.71h305.76v-28.25H324.19v-84.71c0-64.15 17.08-98.95 111.16-115.56 31.94-5.66 68.24-8.89 106.24-9.07zm-120.25 68.14c-23.05 0-41.71 19.06-41.71 42.5 0 23.34 18.66 42.23 41.71 42.23 22.97 0 41.72-18.89 41.72-42.23 0-23.44-18.75-42.5-41.72-42.5z" fill="url(#grd1)"/><path id="Layer" d="M796.31 414.51h83.44c64.7 0 95.19 48.38 111.16 112.71 22.22 89.33 23.2 156.31 0 225.94-22.48 67.64-46.56 112.7-111.16 112.7H546.52v28.25h222.06v84.72c0 64.17-55.19 96.78-111.17 112.99-84.19 24.42-151.69 20.67-222.06 0-58.78-17.3-111.16-52.73-111.16-112.99V767.15c0-60.91 50.32-112.97 111.16-112.97h222.06c74 0 138.9-64.42 138.9-140.96zM671.41 950.6c-22.97 0-41.71 18.89-41.71 42.24 0 23.43 18.74 42.49 41.71 42.49 23.05 0 41.72-19.06 41.72-42.49 0-23.35-18.67-42.24-41.72-42.24z" fill="url(#grd2)"/></g></g><g id="Group_3"><g id="Group_4"><path id="Layer" class="shp3" d="M1571.48 652.81c0 59.15-13.98 108.22-41.91 147.22-31.19 44.19-74.4 66.94-129.62 68.24-41.59 1.3-84.46-11.7-128.63-39.01v252.51l-70.23-25.35V495.87c11.73-14.3 26.72-26.65 44.96-37.05 42.35-24.7 93.82-37.37 154.4-38.02l.99.97c55.37-.65 98.04 22.1 128.02 68.25 28 42.24 42.02 96.5 42.02 162.79zm-81.89-4.83c0-116.31-33.31-176.1-99.92-179.35-26.51-1.29-52.38 2.93-77.6 12.68-20.06 7.13-33.64 14.29-40.75 21.43v277.79c42.68 26.63 80.52 38.98 113.5 37.05 69.85-4.57 104.77-61.1 104.77-169.6zm517.95-216.49h-71.16v348.05c-37.05 24.7-71.82 37.37-104.31 38.04-32.5.63-58.98-7.65-79.46-24.86-20.47-17.24-30.7-41.78-30.7-73.61V420.8l-72.12 24.37v296.39c-.01 37.06 14.94 67.61 44.82 91.66 26.64 22.09 57.5 33.14 92.58 33.14 53.28 0 104.27-11.06 153-33.2.04 0 .04 6.18 0 18.53 0 55.25-5.2 92.64-15.59 112.14-12.99 24.06-36.7 41.94-71.12 53.63-17.54 5.85-47.73 11.7-90.59 17.55l11.68 44.86c42.24-1.31 81.55-9.11 117.95-23.4 44.84-18.21 75.22-42.59 91.15-73.13 15.92-30.55 23.88-85.47 23.87-164.77zm278.02 395.9c-26.66-1.3-46.16-6.5-58.51-15.6-14.31-11.04-21.46-29.89-21.46-56.53V477.44h79.97v-45.93h-79.97V287.26l-71.18 25.35v118.9h-48.79v45.93h48.79v279.77c0 33.79 11.21 60.27 33.65 79.45 22.43 19.17 53.79 28.76 94.1 28.76 7.15 0 14.95-.33 23.4-.98zm444.17-266.18c0-37.69-11.7-69.2-35.09-94.55-23.4-25.34-53.94-38.01-91.64-38.01-53.94 0-103.66 16.55-149.14 49.64V178.96l-71.18 22.42v657.13h71.18V529.09c48.73-34.43 89.36-51.65 121.87-51.65 26.63 0 47.43 11.37 62.38 34.12 13 20.13 19.5 44.17 19.5 72.12v274.83h72.12zm468.93 76.02c0 63.71-16.26 116.68-48.76 158.91-35.76 47.46-85.18 71.19-148.24 71.17-62.42.02-111.19-23.71-146.3-71.17-31.86-42.23-47.79-95.2-47.79-158.91 0-59.8 17.23-110.17 51.69-151.11 36.41-43.55 84.2-65.32 143.38-65.32 59.16 0 107.27 21.77 144.33 65.32 34.45 40.94 51.69 91.31 51.69 151.11zm-78.08.07c.02-44.86-8.43-81.91-25.33-111.16-20.15-35.75-51.35-54.59-93.59-56.56-77.98 4.55-116.97 60.42-116.97 167.62 0 49.43 8.15 90.72 24.47 123.89 20.88 42.27 52.22 63.08 93.98 62.43 78.31-.65 117.46-62.73 117.44-186.22zm500.12-105.38c.01-27.29-9.74-50.68-29.25-70.18-17.54-17.55-40.29-29.57-68.25-36.07-14.95-3.25-30.88-4.87-47.78-4.87-24.7 0-53.31 4.22-85.81 12.67-34.45 9.1-72.15 28.58-113.1 58.48v366.56h71.16V500.82c30.57-21.43 62.74-32.48 96.54-33.13 31.85-.65 57.37 7.96 76.55 25.82 19.19 17.87 28.77 42.72 28.77 74.57v290.43h71.17z"/></g></g><g id="Group_5"><g id="Group_6"><path id="Layer" class="shp3" d="M3857.4 524.23c-7.18-8.37-18.35-15.04-33.5-20.02l-21.22-6.88c-21.72-6.97-32.49-16.83-32.29-29.58.2-9.56 3.59-17.13 10.16-22.71 6.58-5.58 15.65-8.37 27.21-8.37 12.55 0 24.91 4.48 37.06 13.44l9.27-14.35c-15.55-11.36-31.39-17.04-47.54-17.04-18.13 0-32.73 4.98-43.79 14.94-11.06 9.97-16.59 22.92-16.59 38.86 0 12.35 3.68 22.41 11.06 30.18 6.18 6.57 17.45 12.55 33.8 17.93l18.79 6.39c11.58 3.78 19.97 8.21 25.17 13.29 5.19 5.07 7.79 11.69 7.79 19.85 0 10.75-4.69 19.6-14.06 26.57-6.98 4.97-16.34 7.56-28.1 7.76-17.15.2-33.59-6.29-49.34-19.45l-9.27 15.25c6.77 6.38 15.34 11.66 25.7 15.85 11.16 4.78 22.02 7.17 32.58 7.17 15.94 0 29.89-3.78 41.84-11.36v-.3c17.36-11.75 26.04-26.7 26.04-44.83 0-13.36-3.59-24.22-10.77-32.59zm190.71-10.16c0 25.51-6.88 47.92-20.63 67.25-15.54 21.72-35.66 32.58-60.37 32.58s-44.83-10.86-60.37-32.58c-13.75-19.33-20.62-41.75-20.62-67.25 0-25.31 7.06-47.13 21.18-65.46 15.31-19.93 35.2-29.89 59.66-29.89 24.66 0 44.65 9.96 59.97 29.89 14.12 18.33 21.18 40.15 21.18 65.46zm-25.11 0c.01-20.33-4.57-37.97-13.74-52.93-10.56-17.14-24.61-25.71-42.14-25.71-17.73 0-31.88 8.57-42.44 25.71-9.36 14.96-14.04 32.6-14.04 52.93 0 21.73 4.78 40.56 14.34 56.51 10.76 17.54 24.7 26.32 41.84 26.32 17.13 0 31.08-8.78 41.84-26.32 9.57-15.95 14.35-34.78 14.34-56.51zm52.25-91.12V611.2h21.53v-93.83h54.94l8.11-14.96h-63.05V438.2h75.3l7.78-15.25zm244.14-.36l-126.72.29-6.87 14.66h56.18V611.2h22.11V437.54h55.3zm222.86-3.58l-42.64 152.73-42.22-152.73-21.52 7.79-40.07 144.7-42.24-152.44-21.1 7.74 52.6 187.1 17.02-5.98 40.89-156.71 45.9 162.76 16.93-6.05 49.32-186.2zm166.83 192.19h-23.01l-20.3-58.59h-72.66l-21.55 58.59h-16.4l68.15-185.29 21.21-6.9zm-47.73-72.67l-29.96-89.17-33.1 89.17zm182.61 72.67h-26.33l-49.91-88.14h-15.84v88.14h-21.82V422.59h59.47c14.94 0 27.58 4.93 37.95 14.81 10.35 9.87 15.53 21.88 15.53 36.04 0 14.35-4.79 26.22-14.36 35.59-9.58 9.38-21.55 14.06-35.92 14.06zm-23.06-138.38c0-8.97-3.38-17-10.15-24.08-6.78-7.07-14.75-10.61-23.91-10.61h-34.96v69.68h34.66c10.16 0 18.43-3.34 24.8-10.02 6.38-6.68 9.56-15.01 9.56-24.97zm50.28-49.94V611.2H4974v-14.96h-81.29v-78.87h54.99l7.77-14.96h-62.76v-64.57h75.61l7.47-15.25z"/></g><g id="Group_7"><path id="Layer" class="shp3" d="M3750.98 673.05V861.3h21.53v-93.83h54.95l8.1-14.96h-63.05V688.3h75.31l7.77-15.25zm272.61 91.12c0 25.51-6.87 47.92-20.62 67.25-15.54 21.72-35.67 32.58-60.37 32.58-24.71 0-44.83-10.86-60.37-32.58-13.75-19.33-20.63-41.75-20.63-67.25 0-25.31 7.06-47.13 21.18-65.46 15.32-19.93 35.2-29.89 59.66-29.89 24.67 0 44.66 9.96 59.97 29.89 14.12 18.33 21.18 40.15 21.18 65.46zm-25.1 0c0-20.33-4.58-37.97-13.75-52.93-10.56-17.13-24.6-25.71-42.14-25.71-17.73 0-31.88 8.58-42.43 25.71-9.37 14.96-14.05 32.6-14.05 52.93 0 21.73 4.78 40.57 14.35 56.51 10.75 17.54 24.7 26.32 41.83 26.32 17.14 0 31.09-8.78 41.85-26.32 9.56-15.94 14.34-34.78 14.34-56.51zm186.73-91.15h-17.01v120.43c0 15.94-4.44 28.69-13.31 38.25-8.87 9.57-21.08 14.35-36.64 14.35-31.11.2-46.66-17.14-46.65-52.01V669.11l-22.41 7.48v121.05c0 19.53 6.43 35.48 19.28 47.83 12.86 12.35 28.85 18.53 47.98 18.53 19.73 0 36.12-6.23 49.18-18.68 13.05-12.45 19.57-28.44 19.58-47.97zm176.65 0h-14.96v156.94l-110.02-160.84-17.31 5.98v186.2h15.25V707.08l105.5 154.22h21.54zm170.38 97.16c0 24.5-6.78 45.82-20.32 63.95-14.55 19.52-32.78 29.28-54.69 29.28-20.52 0-40.35-7.77-59.47-23.31V672.69l60.37.36c24.1.2 42.93 10.57 56.48 31.08 11.75 18.13 17.63 40.14 17.63 66.05zm-24.81 2.39c0-56.37-21.31-84.56-63.95-84.56h-23.61v147.01c9.56 8.77 20.52 13.14 32.87 13.14 17.14 0 30.88-8.26 41.24-24.8 8.97-14.54 13.45-31.47 13.45-50.79zm190.7 88.73h-23.01l-20.3-58.59h-72.66l-21.55 58.59h-16.4l68.15-185.29 21.21-6.9zm-47.73-72.67l-29.96-89.17-33.1 89.17zm169.4-115.94l-126.72.3-6.88 14.66h56.19V861.3h22.11V687.65h55.3zm45.97-3.28l-22.1 7.47V861.3h22.1zm188.99 94.76c0 25.51-6.87 47.92-20.62 67.25-15.54 21.72-35.67 32.58-60.37 32.58-24.71 0-44.83-10.86-60.37-32.58-13.75-19.33-20.63-41.75-20.63-67.25 0-25.31 7.06-47.13 21.18-65.46 15.32-19.93 35.2-29.89 59.67-29.89 24.66 0 44.65 9.96 59.96 29.89 14.12 18.33 21.18 40.15 21.18 65.46zm-25.1 0c0-20.33-4.58-37.97-13.75-52.93-10.56-17.13-24.6-25.71-42.14-25.71-17.73 0-31.88 8.58-42.43 25.71-9.37 14.96-14.05 32.6-14.05 52.93 0 21.73 4.78 40.57 14.35 56.51 10.75 17.54 24.7 26.32 41.83 26.32 17.14 0 31.09-8.78 41.85-26.32 9.56-15.94 14.34-34.78 14.34-56.51zm194.53-91.15h-14.96v156.94l-110.02-160.84-17.31 5.98v186.2h15.26V707.08l105.49 154.22h21.54z"/></g></g><path id="Layer" d="M2135.32 989.03c0 19.69 15.99 35.68 35.68 35.68l3019.85-.01c19.7 0 35.68-15.98 35.67-35.68-.01-19.69-16-35.68-35.69-35.68l-3019.85.01c-19.69 0-35.67 15.98-35.66 35.68z" fill="url(#grd3)"/></g></g></g></g></svg>