<svg stroke-width=".501" stroke-linejoin="bevel" fill-rule="evenodd" xmlns="http://www.w3.org/2000/svg" overflow="visible" width="7596.867" height="3250.4" viewBox="0 0 5697.65 2437.8"><defs><radialGradient id="a" gradientUnits="userSpaceOnUse" cx="0" cy="0" r="297.932" gradientTransform="matrix(1 0 0 .26673 719.664 671.249)"><stop offset="0" stop-color="#727272"/><stop offset="1"/></radialGradient><linearGradient id="c" gradientUnits="userSpaceOnUse" x1="0" y1="0" x2="673.555" y2="0" gradientTransform="rotate(-40.977 2468.982 513.546)"><stop offset="0" stop-color="#5a9fd4"/><stop offset="1" stop-color="#306998"/></linearGradient><linearGradient id="d" gradientUnits="userSpaceOnUse" x1="0" y1="0" x2="316.62" y2="0" gradientTransform="rotate(124.996 180.363 688.805)"><stop offset="0" stop-color="#ffd43b"/><stop offset="1" stop-color="#ffe873"/></linearGradient><linearGradient id="e" gradientUnits="userSpaceOnUse" x1="0" y1="0" x2="1545.607" y2="0" gradientTransform="translate(3862.89 932.772)"><stop offset="0" stop-color="#4c8cbf"/><stop offset="1" stop-color="#306898"/></linearGradient></defs><g transform="matrix(1 0 0 -1 0 2437.8)" fill="none" font-family="Times New Roman" font-size="16"><mask id="b"><rect x="-10%" y="-10%" width="120%" height="120%" fill="url(#a)"/></mask><path d="M1017.6 671.259c0-43.91-133.4-79.488-297.928-79.488-164.553 0-297.95 35.578-297.95 79.488 0 43.898 133.397 79.467 297.95 79.467 164.528 0 297.928-35.569 297.928-79.467z" fill="#7f7f7f" fill-rule="nonzero" mask="url(#b)"/><g fill-rule="nonzero"><path d="M723.596 1744.88c-38.008-.18-74.306-3.41-106.244-9.07-94.083-16.61-111.159-51.41-111.159-115.56v-84.71h222.325v-28.25H422.755c-64.608 0-121.197-38.83-138.889-112.71-20.416-84.68-21.314-137.52 0-225.94 15.795-65.81 53.538-112.7 118.153-112.7h76.444v101.55c0 73.39 63.487 138.11 138.889 138.11H839.41c61.832 0 111.168 50.9 111.168 112.98v211.67c0 60.25-50.832 105.51-111.168 115.56-38.195 6.37-77.804 9.25-115.814 9.07zm-120.243-68.14c22.968 0 41.72-19.06 41.72-42.5 0-23.34-18.752-42.23-41.72-42.23-23.049 0-41.71 18.89-41.71 42.23 0 23.44 18.661 42.5 41.71 42.5z" fill="url(#c)"/><path d="M978.309 1507.29v-98.71c0-76.54-64.902-140.96-138.899-140.96H617.352c-60.836 0-111.159-52.06-111.159-112.97V942.975c0-60.265 52.379-95.693 111.159-112.992 70.372-20.673 137.864-24.419 222.058 0 55.977 16.213 111.168 48.82 111.168 112.992v84.715h-222.06v28.25h333.232c64.6 0 88.68 45.06 111.16 112.7 23.2 69.63 22.22 136.61 0 225.94-15.97 64.33-46.46 112.71-111.16 112.71h-83.441zM853.408 971.204c23.05 0 41.72-18.886 41.72-42.237 0-23.432-18.67-42.494-41.72-42.494-22.967 0-41.709 19.062-41.709 42.494 0 23.351 18.742 42.237 41.709 42.237z" fill="url(#d)"/></g><path d="M1753.48 1268.99c0-59.15-13.98-108.22-41.91-147.22-31.19-44.19-74.4-66.94-129.62-68.24-41.59-1.3-84.46 11.7-128.63 39.01V840.032l-70.23 25.348v560.55c11.73 14.3 26.72 26.65 44.96 37.05 42.35 24.7 93.82 37.37 154.4 38.02l.99-.97c55.37.65 98.04-22.1 128.02-68.25 28-42.24 42.02-96.5 42.02-162.79zm-81.89 4.83c0 116.31-33.31 176.1-99.92 179.35-26.51 1.29-52.38-2.93-77.6-12.68-20.06-7.13-33.64-14.29-40.75-21.43v-277.79c42.68-26.63 80.52-38.98 113.5-37.05 69.85 4.57 104.77 61.1 104.77 169.6zm517.95-170.59c.01-79.3-7.95-134.224-23.87-164.771-15.93-30.548-46.31-54.921-91.15-73.133-36.4-14.286-75.71-22.085-117.95-23.399l-11.68 44.861c42.86 5.849 73.05 11.699 90.59 17.548 34.42 11.699 58.13 29.573 71.12 53.635 10.39 19.498 15.59 56.889 15.59 112.139.04 12.35.04 18.53 0 18.53-48.73-22.14-99.72-33.2-153-33.2-35.08 0-65.94 11.05-92.58 33.14-29.88 24.05-44.83 54.6-44.82 91.66v296.39l72.12 24.37v-298.31c0-31.83 10.23-56.37 30.7-73.61 20.48-17.21 46.96-25.49 79.46-24.86 32.49.67 67.26 13.34 104.31 38.04v348.05h71.16v-387.08zm278.02-45.87c-8.45-.65-16.25-.98-23.4-.98-40.31 0-71.67 9.59-94.1 28.76-22.44 19.18-33.65 45.66-33.65 79.45v279.77h-48.79v45.93h48.79v118.9l71.18 25.35v-144.25h79.97v-45.93h-79.97v-277.82c0-26.64 7.15-45.49 21.46-56.53 12.35-9.1 31.85-14.3 58.51-15.6v-37.05zm444.17 5.93h-72.12v274.83c0 27.95-6.5 51.99-19.5 72.12-14.95 22.75-35.75 34.12-62.38 34.12-32.51 0-73.14-17.22-121.87-51.65v-329.42h-71.18v657.13l71.18 22.42v-299.33c45.48 33.09 95.2 49.64 149.14 49.64 37.7 0 68.24-12.67 91.64-38.01 23.39-25.35 35.09-56.86 35.09-94.55v-297.3zm468.93 221.28c0-63.71-16.26-116.68-48.76-158.91-35.76-47.46-85.18-71.19-148.24-71.17-62.42-.02-111.19 23.71-146.3 71.17-31.86 42.23-47.79 95.2-47.79 158.91 0 59.8 17.23 110.17 51.69 151.11 36.41 43.55 84.2 65.32 143.38 65.32 59.16 0 107.27-21.77 144.33-65.32 34.45-40.94 51.69-91.31 51.69-151.11zm-78.08-.07c.02 44.86-8.43 81.91-25.33 111.16-20.15 35.75-51.35 54.59-93.59 56.56-77.98-4.55-116.97-60.42-116.97-167.62 0-49.43 8.15-90.72 24.47-123.89 20.88-42.27 52.22-63.08 93.98-62.43 78.31.65 117.46 62.73 117.44 186.22zm500.12-221.21h-71.17v290.43c0 31.85-9.58 56.7-28.77 74.57-19.18 17.86-44.7 26.47-76.55 25.82-33.8-.65-65.97-11.7-96.54-33.13v-357.69h-71.16v366.56c40.95 29.9 78.65 49.38 113.1 58.48 32.5 8.45 61.11 12.67 85.81 12.67 16.9 0 32.83-1.62 47.78-4.87 27.96-6.5 50.71-18.52 68.25-36.07 19.51-19.5 29.26-42.89 29.25-70.18v-326.59zm247.47 301.69c0-18.13-8.68-33.08-26.04-44.83v-.3c-11.95-7.58-25.9-11.36-41.84-11.36-10.56 0-21.42 2.39-32.58 7.17-10.36 4.19-18.93 9.47-25.7 15.85l9.27 15.25c15.75-13.16 32.19-19.65 49.34-19.45 11.76.2 21.12 2.79 28.1 7.76 9.37 6.97 14.06 15.82 14.06 26.57 0 8.16-2.6 14.78-7.79 19.85-5.2 5.08-13.59 9.51-25.17 13.29l-18.79 6.39c-16.35 5.38-27.62 11.36-33.8 17.93-7.38 7.77-11.06 17.83-11.06 30.18 0 15.94 5.53 28.89 16.59 38.86 11.06 9.96 25.66 14.94 43.79 14.94 16.15 0 31.99-5.68 47.54-17.04l-9.27-14.35c-12.15 8.96-24.51 13.44-37.06 13.44-11.56 0-20.63-2.79-27.21-8.37-6.57-5.58-9.96-13.15-10.16-22.71-.2-12.75 10.57-22.61 32.29-29.58l21.22-6.88c15.15-4.98 26.32-11.65 33.5-20.02s10.77-19.23 10.77-32.59zm179.94 42.75c0-25.51-6.88-47.92-20.63-67.25-15.54-21.72-35.66-32.58-60.37-32.58s-44.83 10.86-60.37 32.58c-13.75 19.33-20.62 41.75-20.62 67.25 0 25.31 7.06 47.13 21.18 65.46 15.31 19.93 35.2 29.89 59.66 29.89 24.66 0 44.65-9.96 59.97-29.89 14.12-18.33 21.18-40.15 21.18-65.46zm-25.11 0c.01 20.33-4.57 37.97-13.74 52.93-10.56 17.14-24.61 25.71-42.14 25.71-17.73 0-31.88-8.57-42.44-25.71-9.36-14.96-14.04-32.6-14.04-52.93 0-21.73 4.78-40.56 14.34-56.51 10.76-17.54 24.7-26.32 41.84-26.32 17.13 0 31.08 8.78 41.84 26.32 9.57 15.95 14.35 34.78 14.34 56.51zm156.86 91.12l-7.78-15.25h-75.3v-64.21h63.05l-8.11-14.96h-54.94v-93.83h-21.53v188.25h104.61zm139.53-14.59h-55.3V1310.6h-22.11v173.66h-56.18l6.87 14.66 126.72.29v-14.95zm235.73 15.82l-49.32-186.2-16.93-6.05-45.9 162.76-40.89-156.71-17.02-5.98-52.6 187.1 21.1 7.74 42.24-152.44 40.07 144.7 21.52 7.79 42.22-152.73 42.64 152.73 12.87-2.71zm153.96-189.48h-23.01l-20.3 58.59h-72.66l-21.55-58.59h-16.4l68.15 185.29 21.21 6.9 64.56-192.19zm-47.73 72.67l-29.96 89.17-33.1-89.17h63.06zm182.61-72.67h-26.33l-49.91 88.14h-15.84v-88.14h-21.82v188.61h59.47c14.94 0 27.58-4.93 37.95-14.81 10.35-9.87 15.53-21.88 15.53-36.04 0-14.35-4.79-26.22-14.36-35.59-9.58-9.38-21.55-14.06-35.92-14.06l51.23-88.11zm-23.06 138.38c0 8.97-3.38 17-10.15 24.08-6.78 7.07-14.75 10.61-23.91 10.61h-34.96v-69.68h34.66c10.16 0 18.43 3.34 24.8 10.02 6.38 6.68 9.56 15.01 9.56 24.97zm154.89 50.23l-7.47-15.25h-75.61v-64.57h62.76l-7.77-14.96h-54.99v-78.87H5156v-14.96h-102.82v188.32l104.61.29zm-1120.2-250.46l-7.77-15.25h-75.31v-64.21h63.05l-8.1-14.96h-54.95v-93.83h-21.53v188.25h104.61zm168-91.12c0-25.51-6.87-47.92-20.62-67.25-15.54-21.72-35.67-32.58-60.37-32.58-24.71 0-44.83 10.86-60.37 32.58-13.75 19.33-20.63 41.75-20.63 67.25 0 25.31 7.06 47.13 21.18 65.46 15.32 19.93 35.2 29.89 59.66 29.89 24.67 0 44.66-9.96 59.97-29.89 14.12-18.33 21.18-40.15 21.18-65.46zm-25.1 0c0 20.33-4.58 37.97-13.75 52.93-10.56 17.13-24.6 25.71-42.14 25.71-17.73 0-31.88-8.58-42.43-25.71-9.37-14.96-14.05-32.6-14.05-52.93 0-21.73 4.78-40.57 14.35-56.51 10.75-17.54 24.7-26.32 41.83-26.32 17.14 0 31.09 8.78 41.85 26.32 9.56 15.94 14.34 34.78 14.34 56.51zm186.73-33.18c-.01-19.53-6.53-35.52-19.58-47.97-13.06-12.45-29.45-18.68-49.18-18.68-19.13 0-35.12 6.18-47.98 18.53-12.85 12.35-19.28 28.3-19.28 47.83v121.05l22.41 7.48v-124.93c-.01-34.87 15.54-52.21 46.65-52.01 15.56 0 27.77 4.78 36.64 14.35 8.87 9.56 13.31 22.31 13.31 38.25v120.43h17.01v-124.33zm176.65-63.95h-21.54l-105.5 154.22V1060.5h-15.25v186.2l17.31 5.98 110.02-160.84v156.94h14.96V1060.5zm170.38 91.12c0-24.5-6.78-45.82-20.32-63.95-14.55-19.52-32.78-29.28-54.69-29.28-20.52 0-40.35 7.77-59.47 23.31v167.41l60.37-.36c24.1-.2 42.93-10.57 56.48-31.08 11.75-18.13 17.63-40.14 17.63-66.05zm-24.81-2.39c0 56.37-21.31 84.56-63.95 84.56h-23.61v-147.01c9.56-8.77 20.52-13.14 32.87-13.14 17.14 0 30.88 8.26 41.24 24.8 8.97 14.54 13.45 31.47 13.45 50.79zm190.7-88.73h-23.01l-20.3 58.59h-72.66l-21.55-58.59h-16.4l68.15 185.29 21.21 6.9 64.56-192.19zm-47.73 72.67l-29.96 89.17-33.1-89.17h63.06zm169.4 100.98h-55.3V1060.5h-22.11v173.65h-56.19l6.88 14.66 126.72.3v-14.96zm45.97-173.65h-22.1v184.42l22.1 7.47V1060.5zm188.99 97.13c0-25.51-6.87-47.92-20.62-67.25-15.54-21.72-35.67-32.58-60.37-32.58-24.71 0-44.83 10.86-60.37 32.58-13.75 19.33-20.63 41.75-20.63 67.25 0 25.31 7.06 47.13 21.18 65.46 15.32 19.93 35.2 29.89 59.67 29.89 24.66 0 44.65-9.96 59.96-29.89 14.12-18.33 21.18-40.15 21.18-65.46zm-25.1 0c0 20.33-4.58 37.97-13.75 52.93-10.56 17.13-24.6 25.71-42.14 25.71-17.73 0-31.88-8.58-42.43-25.71-9.37-14.96-14.05-32.6-14.05-52.93 0-21.73 4.78-40.57 14.35-56.51 10.75-17.54 24.7-26.32 41.83-26.32 17.14 0 31.09 8.78 41.85 26.32 9.56 15.94 14.34 34.78 14.34 56.51zm194.53-97.13h-21.54l-105.49 154.22V1060.5h-15.26v186.2l17.31 5.98 110.02-160.84v156.94h14.96V1060.5z" fill-rule="nonzero" stroke-width=".25" fill="#fff" stroke-miterlimit="79.84"/><path d="M2317.32 932.775v-.001c0-19.693 15.99-35.677 35.68-35.677l3019.85.01c19.7 0 35.68 15.984 35.67 35.678v.001c-.01 19.693-16 35.677-35.69 35.677l-3019.85-.01c-19.69 0-35.67-15.984-35.66-35.678z" stroke-width=".5" stroke-linejoin="miter" stroke-miterlimit="79.84" fill="url(#e)"/></g></svg>