<svg width="66" height="66" viewBox="0 0 66 66" fill="none" xmlns="http://www.w3.org/2000/svg">
<g clip-path="url(#clip0)">
<path d="M40.7344 33.5156C40.0254 33.5156 39.4453 34.0957 39.4453 34.8047C39.4453 35.5137 40.0254 36.0938 40.7344 36.0938C41.4434 36.0938 42.0234 35.5137 42.0234 34.8047C42.0234 34.0957 41.4434 33.5156 40.7344 33.5156Z" fill="white"/>
<path d="M13.1751 47.6695L0.28448 63.9117C-0.024895 64.2984 -0.0764575 64.827 0.129792 65.2781C0.348933 65.7293 0.800105 66.0129 1.28995 66.0129H64.7118C65.2017 66.0129 65.6528 65.7293 65.872 65.2781C66.0911 64.827 66.0267 64.2984 65.7173 63.9117L52.8267 47.6695C52.5817 47.3602 52.2079 47.1797 51.8212 47.1797H40.529L50.1712 32.059C52.4271 28.6687 53.6259 24.7113 53.6259 20.625C53.6259 9.25547 44.3704 0 33.0009 0C21.6314 0 12.3759 9.25547 12.3759 20.625C12.3759 24.7113 13.5747 28.6687 15.8306 32.059L25.4728 47.1797H14.1806C13.781 47.1797 13.42 47.3602 13.1751 47.6695ZM8.35401 57.8789H16.1528L11.7571 63.4219H3.95831L8.35401 57.8789ZM27.1228 49.7578L30.6548 55.3008H21.4896L25.8853 49.7578H27.1228ZM38.8919 49.7578H40.1165L44.5122 55.3008H35.347L38.8919 49.7578ZM46.5618 57.8789L50.9575 63.4219H15.0442L19.44 57.8789H46.5618ZM54.2446 63.4219L49.8489 57.8789H57.6478L62.0435 63.4219H54.2446ZM55.5982 55.3008H47.7993L43.4036 49.7578H51.2025L55.5982 55.3008ZM17.9833 30.641C15.9982 27.6762 14.954 24.2086 14.954 20.625C14.954 10.6734 23.0493 2.57812 33.0009 2.57812C42.9525 2.57812 51.0478 10.6734 51.0478 20.625C51.0478 24.2086 50.0036 27.6762 48.0185 30.641C48.0185 30.6539 48.0056 30.6539 48.0056 30.6668C47.1548 31.9945 33.6583 53.1738 33.0009 54.1922C31.3638 51.6141 19.672 33.2836 17.9962 30.6668C17.9962 30.6539 17.9833 30.641 17.9833 30.641ZM22.5982 49.7578L18.2025 55.3008H10.4036L14.7993 49.7578H22.5982Z" fill="white"/>
<path d="M33 33.5156C40.077 33.5156 45.8906 27.7793 45.8906 20.625C45.8906 13.5223 40.1027 7.73438 33 7.73438C25.8973 7.73438 20.1094 13.5223 20.1094 20.625C20.1094 27.7922 25.923 33.5156 33 33.5156ZM33 10.3125C38.6848 10.3125 43.3125 14.9402 43.3125 20.625C43.3125 26.3613 38.6461 30.9375 33 30.9375C27.3539 30.9375 22.6875 26.3613 22.6875 20.625C22.6875 14.9402 27.3152 10.3125 33 10.3125Z" fill="white"/>
<path d="M38.4269 37.9113C37.8211 37.5375 37.0219 37.7438 36.6609 38.3496L31.8914 46.2516C31.5176 46.8574 31.7238 47.6567 32.3297 48.0176C32.9484 48.3914 33.7347 48.1852 34.0957 47.5793L38.8652 39.6774C39.239 39.0715 39.0457 38.2852 38.4269 37.9113Z" fill="white"/>
</g>
<defs>
<clipPath id="clip0">
<rect width="66" height="66" fill="white"/>
</clipPath>
</defs>
</svg>
