<svg width="30" height="30" viewBox="0 0 30 30" fill="none" xmlns="http://www.w3.org/2000/svg">
<g clip-path="url(#clip0)">
<path d="M15 0.624878C6.7125 0.624878 0 7.22488 0 15.3649C0 21.8786 4.2975 27.4024 10.2563 29.3499C11.0063 29.4886 11.2812 29.0324 11.2812 28.6411C11.2812 28.2911 11.2688 27.3636 11.2625 26.1349C7.09 27.0236 6.21 24.1574 6.21 24.1574C5.5275 22.4561 4.54125 22.0011 4.54125 22.0011C3.1825 21.0874 4.64625 21.1061 4.64625 21.1061C6.1525 21.2086 6.94375 22.6249 6.94375 22.6249C8.28125 24.8786 10.455 24.2274 11.3125 23.8511C11.4475 22.8974 11.8338 22.2486 12.2625 21.8799C8.93125 21.5111 5.43 20.2436 5.43 14.5961C5.43 12.9874 6.01125 11.6724 6.97375 10.6411C6.805 10.2686 6.29875 8.76988 7.105 6.73988C7.105 6.73988 8.36125 6.34488 11.23 8.25113C12.43 7.92363 13.705 7.76113 14.98 7.75363C16.255 7.76113 17.53 7.92363 18.73 8.25113C21.58 6.34488 22.8362 6.73988 22.8362 6.73988C23.6425 8.76988 23.1362 10.2686 22.9862 10.6411C23.9425 11.6724 24.5238 12.9874 24.5238 14.5961C24.5238 20.2586 21.0175 21.5049 17.68 21.8674C18.205 22.3099 18.6925 23.2136 18.6925 24.5949C18.6925 26.5674 18.6737 28.1524 18.6737 28.6311C18.6737 29.0174 18.9363 29.4786 19.705 29.3311C25.7062 27.3961 30 21.8686 30 15.3649C30 7.22488 23.2838 0.624878 15 0.624878Z" fill="#16B8E2"/>
</g>
<defs>
<clipPath id="clip0">
<rect width="30" height="30" fill="white"/>
</clipPath>
</defs>
</svg>
