<?xml version="1.0" encoding="utf-8"?>
<!-- Generator: Adobe Illustrator 24.0.1, SVG Export Plug-In . SVG Version: 6.00 Build 0)  -->
<svg width="453" height="443" viewBox="0 0 453 443" fill="none" xmlns="http://www.w3.org/2000/svg">
<style type="text/css">
	.st0{fill:#2CBEFF;}
	.st1{fill:#FDD24A;}
	.st2{fill:#16B8E2;}
	.st3{fill:#142C82;}
	.st4{fill:#DAEEF7;}
	.st5{fill:#FF5B7E;}
	.st6{opacity:0.3;fill:#E87B50;enable-background:new    ;}
	.st7{fill:#222323;}
	.st8{fill:#333333;}
	.st9{fill:#FFC0BB;}
	.st10{fill:#E2FAFA;}
	.st11{fill:#FEB546;}
	.st12{fill:#FFFFFF;}
	.st13{opacity:0.5;fill:#142C82;enable-background:new    ;}
	.st14{opacity:0.55;}
	.st15{fill:#EF3D30;}
	.st16{fill:#6B184E;}
	.st17{fill:#FFB640;}
	.st18{fill:none;stroke:#142C82;stroke-width:3.1082;stroke-miterlimit:10;}
	.st19{fill:none;stroke:#142C82;stroke-width:3.1419;stroke-miterlimit:10;}
	.st20{opacity:0.5;fill:none;stroke:#142C82;stroke-width:3.1418;stroke-miterlimit:9.9998;enable-background:new    ;}
	.st21{fill:none;stroke:#142C82;stroke-width:3.1419;stroke-miterlimit:10.0003;}
	.st22{opacity:0.5;fill:none;stroke:#142C82;stroke-width:3.1419;stroke-miterlimit:10.0002;enable-background:new    ;}
	.st23{fill:none;stroke:#142C82;stroke-width:3.142;stroke-miterlimit:10.0003;}
	.st24{fill:none;stroke:#142C82;stroke-width:3.1419;stroke-linecap:round;stroke-linejoin:round;stroke-miterlimit:10;}
	.st25{opacity:0.5;fill:none;stroke:#142C82;stroke-width:3.1419;stroke-miterlimit:10.0003;enable-background:new    ;}
	.st26{fill:none;stroke:#142C82;stroke-width:3.1419;stroke-miterlimit:10.0001;}
	.st27{fill:none;stroke:#142C82;stroke-width:3.1417;stroke-miterlimit:9.9996;}
</style>
<path class="st0" d="M457.8,92.9c-1-4.2-4.9-7.5-9.4-7.5c-0.8,0-1.7,0.1-2.5,0.3c-2.3-4.9-7.1-8.2-13-8.2c-1.5,0-2.9,0.2-4.2,0.6
	c-3.1-5.1-8.7-8.5-15-8.5c-7.6,0-14.1,4.8-16.5,11.6c-1.8-0.9-3.7-1.6-5.9-1.6c-6.6,0-12,5.4-12,12c0,0.4,0,0.8,0.1,1.1H457.8z"/>
<path class="st0" d="M70.7,175c-15.9,0-28.6,12.7-28.6,28.6c0,15.9,16.3,42.5,28.6,49.3c11-7.1,28.6-33.6,28.6-49.3
	C99.3,187.8,86.6,175,70.7,175z M70.7,217.5c-7.7,0-13.9-6.2-13.9-13.9c0-7.7,6.2-13.9,13.9-13.9c7.7,0,13.9,6.2,13.9,13.9
	C84.6,211.3,78.4,217.5,70.7,217.5z"/>
<g>
	<path class="st1" d="M231.3,150h-38c-5.4,0-9.6,4.4-9.6,9.6l0,0h57.4l0,0C241.1,154.2,236.7,150,231.3,150z"/>
</g>
<g>
	<path class="st1" d="M357.1,150.2h-38c-5.4,0-9.6,4.4-9.6,9.6l0,0h57.4l0,0C366.7,154.5,362.4,150.2,357.1,150.2z"/>
</g>
<path class="st2" d="M422.2,307.1h-7.4v-4h7.4C422.2,303.1,422.2,307.1,422.2,307.1z M410.5,307.1h-7.4v-4h7.4V307.1z M398.9,307.1
	h-7.4v-4h7.4V307.1z"/>
<rect x="120.3" y="299.6" class="st2" width="103.3" height="4"/>
<path class="st2" d="M481.6,134.2h-5.6v-3h5.6V134.2z M472.8,134.2h-5.6v-3h5.6V134.2z M464,134.2h-5.6v-3h5.6V134.2z M455.3,134.2
	h-5.6v-3h5.6V134.2z M446.5,134.2h-5.6v-3h5.6V134.2z M437.8,134.2h-5.6v-3h5.6V134.2z M429,134.2h-5.6v-3h5.6V134.2z M420.2,134.2
	h-5.6v-3h5.6V134.2z M411.4,134.2h-5.6v-3h5.6V134.2z"/>
<path class="st2" d="M155.5,131.9h-5.6v-3h5.6V131.9z M146.7,131.9h-5.6v-3h5.6V131.9z M137.9,131.9h-5.6v-3h5.6V131.9z
	 M129.1,131.9h-5.6v-3h5.6V131.9z M120.3,131.9h-5.6v-3h5.6V131.9z M111.6,131.9H106v-3h5.6V131.9z M102.8,131.9h-5.6v-3h5.6V131.9z
	 M94.1,131.9h-5.6v-3h5.6V131.9z M85.3,131.9h-5.6v-3h5.6V131.9z"/>
<rect x="428.8" y="111.7" class="st2" width="77.7" height="3"/>
<rect x="205.4" y="58.3" class="st2" width="77.7" height="3"/>
<path class="st3" d="M144.9,99.6H63.4L63,98.5c-0.2-0.5-0.2-1.1-0.2-1.6c0-7.5,6.1-13.6,13.6-13.6c1.7,0,3.4,0.3,5.1,1
	c3-6.7,9.8-11.1,17.3-11.1c6.2,0,12.1,3.1,15.7,8.3c1.1-0.3,2.3-0.4,3.6-0.4c5.8,0,11,3,13.8,8c0.5-0.1,1.1-0.1,1.6-0.1
	c5.2,0,9.7,3.6,10.9,8.6L144.9,99.6z M66,96.5h74.7c-1.4-2.6-4.2-4.4-7.2-4.4c-0.7,0-1.4,0.1-2.1,0.3l-1.2,0.3l-0.5-1.2
	c-2.1-4.5-6.5-7.3-11.5-7.3c-1.3,0-2.6,0.2-3.8,0.6l-1.2,0.4l-0.6-1c-2.9-4.8-8.2-7.8-13.7-7.8c-6.8,0-12.8,4.2-15,10.6l-0.6,1.7
	l-1.6-0.8c-1.7-0.9-3.4-1.4-5.2-1.4C70.8,86.4,66.2,90.9,66,96.5z"/>
<path class="st3" d="M450.8,91.1h-81.5l-0.4-1.1c-0.2-0.5-0.2-1.1-0.2-1.6c0-7.5,6.1-13.6,13.6-13.6c1.7,0,3.4,0.3,5.1,1
	c3-6.7,9.8-11.1,17.3-11.1c6.2,0,12.1,3.1,15.7,8.3c1.1-0.3,2.3-0.4,3.6-0.4c5.8,0,11,3,13.8,8c0.5-0.1,1.1-0.1,1.6-0.1
	c5.2,0,9.7,3.6,10.9,8.6L450.8,91.1z M371.9,88h74.7c-1.4-2.6-4.2-4.4-7.2-4.4c-0.7,0-1.4,0.1-2.1,0.3l-1.2,0.3l-0.5-1.2
	c-2.1-4.5-6.5-7.3-11.5-7.3c-1.3,0-2.6,0.2-3.8,0.6l-1.2,0.4l-0.6-1c-2.9-4.8-8.2-7.8-13.7-7.8c-6.8,0-12.8,4.2-15,10.6l-0.6,1.7
	l-1.6-0.8c-1.7-0.9-3.4-1.4-5.2-1.4C376.7,78,372.1,82.5,371.9,88z"/>
<g>
	<path class="st1" d="M412.1,172.8v84.7c0,0.7-0.3,1.3-0.7,1.9c-0.5,0.5-1.1,0.8-1.9,0.8h-37.7c-0.7,0-1.5-0.3-1.9-0.8
		c-0.5-0.5-0.7-1.1-0.7-1.9V253c0-0.3,0-0.7,0-1c-0.1-1.6-0.5-3.1-1.1-4.6c0-0.1-0.1-0.2-0.1-0.3c-0.4-0.9-0.9-1.8-1.5-2.5
		c-2.4-3.3-6.2-5.5-10.6-5.7c-2.9-0.1-5.6,0.7-7.9,2.2c-2.3,1.5-4,3.5-5.2,6c0,0.1-0.1,0.2-0.1,0.3c-0.3,0.7-0.5,1.5-0.7,2.2l0,0
		c0,0.2-0.1,0.4-0.1,0.5c0,0.2-0.1,0.5-0.1,0.7c0,0.3-0.1,0.7-0.1,1c0,0.2,0,0.4,0,0.7v4.8c0,1.5-1.1,2.6-2.6,2.6H256
		c-1.5,0-2.6-1.1-2.6-2.6V253c0-0.6,0-1.1-0.1-1.8c-0.8-6.6-6.2-12-13.1-12.3c-7.4-0.2-13.5,5.2-14.2,12.3c0,0.4-0.1,0.9-0.1,1.5
		v4.1c0,1.5-1.1,3-2.4,3.2h-3.6c-1.5,0-2.6-1.1-2.6-2.6V253c0-0.2,0-0.4,0-0.7c0-0.2,0-0.3,0-0.5c0-0.1,0-0.1,0-0.2
		c0-0.2,0-0.4-0.1-0.5c0,0,0,0,0-0.1c0-0.2-0.1-0.4-0.1-0.6c-1.2-6.2-6.4-11.1-13-11.3c-7.8-0.3-14.2,6-14.2,13.8v4.1
		c0,1.7-1.6,2.9-3.2,2.6l-33.2-5.6c-1.9-0.3-3.2-2-3.2-3.8v-76.9c0-5.7,4.6-10.3,10.3-10.3h241.6
		C407.8,162.9,412.1,167.3,412.1,172.8z"/>
	<path class="st1" d="M409.5,260.4h-37.7c-0.7,0-1.6-0.3-2.1-0.8c-0.5-0.5-0.8-1.2-0.8-2V253c0-0.4,0-0.7,0-1
		c-0.1-1.6-0.5-3.1-1-4.5c0-0.1-0.1-0.2-0.1-0.3c-0.4-0.8-0.8-1.7-1.5-2.5c-2.5-3.4-6.2-5.5-10.4-5.6c-2.8-0.1-5.4,0.6-7.8,2.1
		c-2.3,1.5-4,3.5-5.1,5.9c0,0.1-0.1,0.2-0.1,0.3c-0.3,0.7-0.5,1.3-0.7,2.2v0.1c0,0.2-0.1,0.3-0.1,0.5c0,0.2-0.1,0.4-0.1,0.7
		c0,0.3-0.1,0.7-0.1,1c0,0.2,0,0.4,0,0.7v4.8c0,1.6-1.2,2.9-2.9,2.9h-83.2c-1.6,0-2.9-1.2-2.9-2.9V253c0-0.6,0-1.1-0.1-1.8
		c-0.8-6.6-6.3-11.9-12.8-12.1c-7-0.2-13.2,5.1-13.9,12.1c0,0.4-0.1,0.9-0.1,1.3v4.1c0,1.6-1.2,3.2-2.6,3.4h-3.5
		c-1.6,0-2.9-1.2-2.9-2.9V253c0-0.2,0-0.4,0-0.7c0-0.2,0-0.3,0-0.5c0-0.1,0-0.1,0-0.2c0-0.2,0-0.3-0.1-0.5V251
		c0-0.2-0.1-0.4-0.1-0.6c-1.2-6.3-6.4-11-12.7-11.2c-3.7-0.1-7.1,1.2-9.8,3.8c-2.7,2.6-4.1,6-4.1,9.7v4.1c0,0.8-0.4,1.7-1,2.2
		c-0.6,0.5-1.6,0.7-2.4,0.6l-33.2-5.6c-2-0.3-3.4-2.1-3.4-4v-76.9c0-5.8,4.7-10.5,10.5-10.5h241.7c5.5,0,10,4.6,10,10v84.7
		c0,0.7-0.3,1.5-0.8,2C411,260.1,410.2,260.4,409.5,260.4z M355.4,238.7c0.2,0,0.3,0,0.5,0c4.2,0.1,8.2,2.3,10.7,5.8
		c0.5,0.8,1,1.7,1.5,2.6c0,0.1,0.1,0.2,0.1,0.3c0.6,1.5,1,3,1.1,4.7c0,0.3,0,0.6,0,1v4.5c0,0.6,0.2,1.2,0.7,1.7
		c0.4,0.4,1,0.7,1.8,0.7h37.7c0.6,0,1.2-0.3,1.8-0.7c0.4-0.4,0.7-1,0.7-1.7v-84.7c0-5.3-4.4-9.6-9.6-9.6H160.6c-5.5,0-10,4.5-10,10
		v76.9c0,1.8,1.2,3.3,3.1,3.6l33.2,5.6c0.7,0.1,1.5,0,2-0.5c0.5-0.4,0.9-1.1,0.9-1.9v-4.1c0-3.8,1.6-7.4,4.2-10
		c2.8-2.7,6.3-4,10.2-3.9c6.4,0.2,11.9,5,13.2,11.5c0,0.2,0.1,0.4,0.1,0.7v0.1c0,0.2,0,0.3,0.1,0.5c0,0.1,0,0.2,0,0.2
		c0,0.2,0,0.3,0,0.5s0,0.5,0,0.7v4.5c0,1.3,1,2.4,2.4,2.4h3.5c1.1-0.2,2.2-1.7,2.2-3v-4.1c0-0.5,0-0.9,0.1-1.5
		c0.7-7.3,7-12.7,14.4-12.5c6.7,0.2,12.4,5.6,13.3,12.5c0.1,0.6,0.1,1.1,0.1,1.8v4.5c0,1.3,1,2.4,2.4,2.4h83.3c1.3,0,2.4-1,2.4-2.4
		v-4.8c0-0.2,0-0.5,0-0.7c0-0.4,0.1-0.7,0.1-1.1c0-0.2,0.1-0.5,0.1-0.7c0-0.2,0.1-0.4,0.1-0.5l0,0c0.2-0.7,0.4-1.6,0.7-2.2
		c0-0.1,0.1-0.2,0.1-0.3c1.1-2.5,2.9-4.7,5.3-6.1C350.3,239.5,352.7,238.7,355.4,238.7z"/>
</g>
<g>
	<path class="st12" d="M406.8,229.2v12.6h-44.1c0-0.1-0.1-0.2-0.1-0.3c-0.4-0.9-0.9-1.8-1.5-2.5c-2.4-3.3-6.2-5.5-10.6-5.7
		c-2.9-0.1-5.6,0.7-7.9,2.2c-2.3,1.5-4,3.5-5.2,6c0,0.1-0.1,0.2-0.1,0.3h-65.3c-1.6,0-3-0.7-3.9-2l-7.9-10.7l-3.1-4.1
		c-0.9-1.2-2.4-2-3.9-2H144.6v-12.6h115c1.6,0,3,0.7,3.9,2l7.9,10.7l3.1,4.1c0.9,1.2,2.4,2,3.9,2L406.8,229.2L406.8,229.2z"/>
</g>
<g>
	<path class="st0" d="M205.7,175.1v22c0,1.3-0.6,2.5-1.7,3.2c-0.6,0.5-1.5,0.7-2.4,0.7h-22c-2.2,0-4-1.8-4-4v-22
		c0-2,1.5-3.6,3.3-3.9c0.2,0,0.5-0.1,0.7-0.1h22C204,171.2,205.7,173,205.7,175.1z"/>
</g>
<g>
	<path class="st0" d="M242.3,175.1v22c0,1.3-0.6,2.5-1.7,3.2c-0.6,0.5-1.5,0.7-2.4,0.7h-22c-2.2,0-4-1.8-4-4v-22
		c0-2,1.5-3.6,3.3-3.9c0.2,0,0.5-0.1,0.7-0.1h22C240.4,171.2,242.3,173,242.3,175.1z"/>
</g>
<g>
	<path class="st0" d="M279.1,175.1v22c0,1.3-0.6,2.5-1.7,3.2c-0.6,0.5-1.5,0.7-2.4,0.7h-22c-2.2,0-4-1.8-4-4v-22
		c0-2,1.5-3.6,3.3-3.9c0.2,0,0.5-0.1,0.7-0.1h22C277.3,171.2,279.1,173,279.1,175.1z"/>
</g>
<g>
	<path class="st0" d="M315.5,175.1v22c0,1.3-0.6,2.5-1.7,3.2c-0.6,0.5-1.5,0.7-2.4,0.7h-22c-2.2,0-4-1.8-4-4v-22
		c0-2,1.5-3.6,3.3-3.9c0.2,0,0.5-0.1,0.7-0.1h22C313.8,171.2,315.5,173,315.5,175.1z"/>
</g>
<g>
	<path class="st0" d="M352.3,175.1v22c0,1.3-0.6,2.5-1.7,3.2c-0.6,0.5-1.5,0.7-2.4,0.7h-22c-2.2,0-4-1.8-4-4v-22
		c0-2,1.5-3.6,3.3-3.9c0.2,0,0.5-0.1,0.7-0.1h22C350.5,171.2,352.3,173,352.3,175.1z"/>
</g>
<g>
	<path class="st0" d="M155.1,172.6v22c0,0.4-0.1,0.7-0.2,1.1c-0.3,1.2-1.2,2.2-2.5,2.6c-0.4,0.2-0.9,0.2-1.3,0.2h-6.4v-29.9h6.4
		C153.2,168.6,155.1,170.4,155.1,172.6z"/>
</g>
<g class="st14">
	<path class="st12" d="M158,175.3v22c0,2.2-1.8,4-4,4h-3.6c-1.6,0-2.8-1.2-2.8-2.8v-0.6h3.5c2.2,0,4-1.8,4-4v-22c0-0.1,0-0.3,0-0.4
		C156.7,171.9,158,173.5,158,175.3z"/>
</g>
<g>
	<path class="st3" d="M406.8,230h-6.3c-3.5,0-6.4-2.9-6.4-6.4V172c0-2.7,2.2-4.9,4.9-4.9h7.9c0.8,0,1.6,0.7,1.6,1.6v59.9
		C408.4,229.3,407.7,230,406.8,230z M398.9,170.2c-1,0-1.9,0.8-1.9,1.9v51.6c0,1.9,1.6,3.4,3.4,3.4h4.9v-56.9H398.9z"/>
</g>
<g>
	<path class="st15" d="M148.3,212L148.3,212v33.3l0,0c3.8,0,6.9-3.1,6.9-6.9v-19.3C155.4,215.1,152.2,212,148.3,212z"/>
</g>
<g>
	<path class="st0" d="M391.7,174.3v37.3h-29.9v-37.3c0-1,0.5-2.1,1.2-2.7c0.6-0.6,1.5-0.9,2.4-0.9h22.7
		C390,170.6,391.7,172.2,391.7,174.3z"/>
</g>
<g>
	<path class="st3" d="M148.4,243.6h-3.9c-0.8,0-1.6-0.7-1.6-1.6v-33.3c0-0.8,0.7-1.6,1.6-1.6h3.9c2.6,0,4.7,2.1,4.7,4.7v27
		C153.1,241.5,151,243.6,148.4,243.6z M146.2,240.6h2.4c0.8,0,1.6-0.7,1.6-1.6v-27c0-0.8-0.7-1.6-1.6-1.6h-2.4V240.6z"/>
</g>
<g>
	<path class="st16" d="M151.5,234h-6.9c-0.8,0-1.6-0.7-1.6-1.6v-10.9c0-0.8,0.7-1.6,1.6-1.6h6.9c0.8,0,1.6,0.7,1.6,1.6v10.9
		C153.1,233.3,152.4,234,151.5,234z M146.2,230.9h3.9V223h-3.9V230.9z"/>
</g>
<g>
	<path class="st3" d="M383,249.4h-9.7c-2.8,0-5.2-2-5.8-4.7c-1-4.4-3.7-8.2-7.6-10.6c-1.8-1.1-2.9-3.1-2.9-5.2v-56.8
		c0-2.9,2.3-5.2,5.2-5.2h22.7c2.9,0,5.2,2.3,5.2,5.2v70.1C390,246.3,386.8,249.4,383,249.4z M362.2,170.2c-1.1,0-2.1,0.9-2.1,2.1
		V229c0,1,0.5,2,1.5,2.6c4.5,2.9,7.7,7.4,8.9,12.4c0.3,1.3,1.5,2.3,2.8,2.3h9.7c2.2,0,3.9-1.8,3.9-3.9v-70.1c0-1.1-0.9-2.1-2.1-2.1
		H362.2z"/>
</g>
<g>
	<path class="st3" d="M345.8,200.1h-22c-3,0-5.5-2.5-5.5-5.5v-22c0-3,2.5-5.5,5.5-5.5h22c3,0,5.5,2.5,5.5,5.5v22
		C351.4,197.6,348.9,200.1,345.8,200.1z M323.8,170.2c-1.3,0-2.5,1.1-2.5,2.5v22c0,1.3,1.1,2.5,2.5,2.5h22c1.3,0,2.5-1.1,2.5-2.5
		v-22c0-1.3-1.1-2.5-2.5-2.5H323.8z"/>
</g>
<g>
	<path class="st3" d="M308.9,200.1h-22c-3,0-5.5-2.5-5.5-5.5v-22c0-3,2.5-5.5,5.5-5.5h22c3,0,5.5,2.5,5.5,5.5v22
		C314.4,197.6,311.9,200.1,308.9,200.1z M287,170.2c-1.3,0-2.5,1.1-2.5,2.5v22c0,1.3,1.1,2.5,2.5,2.5h22c1.3,0,2.5-1.1,2.5-2.5v-22
		c0-1.3-1.1-2.5-2.5-2.5H287z"/>
</g>
<g>
	<path class="st3" d="M272,200.1h-22c-3,0-5.5-2.5-5.5-5.5v-22c0-3,2.5-5.5,5.5-5.5h22c3,0,5.5,2.5,5.5,5.5v22
		C277.5,197.6,275,200.1,272,200.1z M250.1,170.2c-1.3,0-2.5,1.1-2.5,2.5v22c0,1.3,1.1,2.5,2.5,2.5h22c1.3,0,2.5-1.1,2.5-2.5v-22
		c0-1.3-1.1-2.5-2.5-2.5H250.1z"/>
</g>
<g>
	<path class="st3" d="M235,200.1h-22c-3,0-5.5-2.5-5.5-5.5v-22c0-3,2.5-5.5,5.5-5.5h22c3,0,5.5,2.5,5.5,5.5v22
		C240.6,197.6,238.2,200.1,235,200.1z M213.2,170.2c-1.3,0-2.5,1.1-2.5,2.5v22c0,1.3,1.1,2.5,2.5,2.5h22c1.3,0,2.5-1.1,2.5-2.5v-22
		c0-1.3-1.1-2.5-2.5-2.5H213.2z"/>
</g>
<g>
	<path class="st3" d="M198.2,200.1h-22c-3,0-5.5-2.5-5.5-5.5v-22c0-3,2.5-5.5,5.5-5.5h22c3,0,5.5,2.5,5.5,5.5v22
		C203.8,197.6,201.3,200.1,198.2,200.1z M176.2,170.2c-1.3,0-2.5,1.1-2.5,2.5v22c0,1.3,1.1,2.5,2.5,2.5h22c1.3,0,2.5-1.1,2.5-2.5
		v-22c0-1.3-1.1-2.5-2.5-2.5H176.2z"/>
</g>
<g>
	<path class="st3" d="M151,200.1h-6.4c-0.8,0-1.6-0.7-1.6-1.6s0.7-1.6,1.6-1.6h6.4c1.3,0,2.5-1.1,2.5-2.5v-22c0-1.3-1.1-2.5-2.5-2.5
		h-6.4c-0.8,0-1.6-0.7-1.6-1.6s0.7-1.6,1.6-1.6h6.4c3,0,5.5,2.5,5.5,5.5v22C156.6,197.6,154.1,200.1,151,200.1z"/>
</g>
<g>
	<path class="st3" d="M388.5,211.1h-29.9c-0.8,0-1.6-0.7-1.6-1.6s0.7-1.6,1.6-1.6h29.9c0.8,0,1.6,0.7,1.6,1.6
		S389.3,211.1,388.5,211.1z"/>
</g>
<g>
	<path class="st3" d="M364.8,222.6L364.8,222.6c-1.1,0-2-0.9-2-2v-4.4c0-1.1,0.9-2,2-2l0,0c1.1,0,2,0.9,2,2v4.4
		C366.8,221.7,365.9,222.6,364.8,222.6z"/>
</g>
<g>
	<path class="st3" d="M217.4,257.6c-0.2,0-0.3,0-0.5,0h-2.6c-2.4,0-4.2-1.9-4.2-4.2v-4.5c0-6.6-5.3-12.2-11.7-12.4
		c-3.3-0.1-6.4,1-8.8,3.4c-2.4,2.3-3.7,5.4-3.7,8.7v4.1c0,1.2-0.6,2.5-1.6,3.3c-1,0.8-2.3,1.1-3.5,0.8l-33.2-5.6
		c-2.7-0.4-4.6-2.7-4.6-5.4V169c0-6.5,5.3-11.9,11.9-11.9h242.1c6.3,0,11.5,5.2,11.5,11.5v84.7c0,2.4-1.9,4.2-4.2,4.2h-37.7
		c-2.4,0-4.2-1.9-4.2-4.2v-4.5c0-6.6-5.3-12.2-11.7-12.4c-3.3-0.1-6.4,1.1-8.9,3.4c-2.4,2.3-3.7,5.4-3.7,8.7v4.8
		c0,2.4-1.9,4.2-4.2,4.2h-83.3c-2.4,0-4.2-1.9-4.2-4.2v-4.5c0-0.5,0-1-0.1-1.6c-0.7-6-5.7-10.7-11.6-10.9
		c-6.3-0.2-11.8,4.6-12.5,10.9c0,0.4-0.1,0.8-0.1,1.2v4.1c0,2.2-1.7,4.5-3.7,4.8c0,0,0,0-0.1,0C218,257.6,217.6,257.6,217.4,257.6z
		 M350,233.3c0.2,0,0.4,0,0.5,0c8.2,0.3,14.8,7.4,14.8,15.6v4.5c0,0.5,0.4,1,1,1h37.7c0.5,0,1-0.4,1-1v-84.7c0-4.6-3.7-8.2-8.2-8.2
		H154.9c-4.8,0-8.6,3.8-8.6,8.6v76.9c0,1.1,0.8,2.1,1.9,2.3l33.2,5.6c0,0,0,0,0.1,0c0.4,0.1,0.7-0.1,0.8-0.2
		c0.1-0.1,0.4-0.4,0.4-0.8v-4.1c0-4.2,1.7-8.1,4.7-11.1c3-2.9,7-4.5,11.2-4.2c8.2,0.3,14.8,7.4,14.8,15.6v4.5c0,0.5,0.4,1,1,1h2.7
		c0,0,0,0,0.1,0h0.5c0.5-0.2,1-0.9,1-1.7v-4.1c0-0.5,0-1,0.1-1.6c0.8-8,7.8-14.1,15.9-13.8c7.5,0.3,13.8,6.2,14.7,13.8
		c0.1,0.6,0.1,1.2,0.1,2v4.5c0,0.5,0.4,1,1,1h83.3c0.5,0,1-0.4,1-1v-4.8c0-4.2,1.7-8.1,4.7-11.1C342.3,234.7,346,233.3,350,233.3z"
		/>
</g>
<g>
	<path class="st17" d="M408.5,239.8h-5.6c-1.8,0-3.2,1.5-3.2,3.2v13.1h0.8c6.7,0,12.1-5.4,12.1-12.1l0,0
		C412.5,241.5,410.8,239.8,408.5,239.8z"/>
	<path class="st16" d="M404.6,256.3h-5.3v-14.4c0-1.2,1-2.3,2.3-2.3h8.2c1.6,0,2.9,1.3,2.9,2.9v5.7
		C412.7,252.5,409.1,256.3,404.6,256.3z M399.9,255.7h4.8c4.2,0,7.7-3.4,7.7-7.7v-5.7c0-1.3-1.1-2.5-2.5-2.5h-8.2
		c-1,0-1.9,0.8-1.9,1.9v14H399.9z"/>
</g>
<g>
	<path class="st3" d="M404.6,257.6h-5.1c-0.9,0-1.7-0.7-1.7-1.7v-14.2c0-2.1,1.7-3.7,3.7-3.7h8.2c2.4,0,4.2,2,4.2,4.2v5.7
		C414.2,253.4,409.9,257.6,404.6,257.6z M401.2,254.4h3.4c3.4,0,6.3-2.8,6.3-6.3v-5.7c0-0.6-0.5-1-1-1h-8.2c-0.2,0-0.4,0.2-0.4,0.4
		v12.6H401.2z"/>
</g>
<g>
	<path class="st3" d="M350,266.4c-7.5,0-13.9-5.5-14.8-13.1c-1-8.2,4.8-15.6,13-16.7c8.2-1,15.6,4.8,16.7,13c1,8.2-4.8,15.6-13,16.7
		C351.3,266.3,350.7,266.4,350,266.4z M350,239.7c-0.5,0-1,0-1.5,0.1c-6.4,0.8-11,6.6-10.2,13.1c0.8,6.4,6.6,11,13.1,10.2
		c3.1-0.4,5.9-2,7.8-4.5c2-2.5,2.8-5.6,2.4-8.7c-0.4-3.1-2-5.9-4.5-7.8C355.1,240.5,352.6,239.7,350,239.7z"/>
</g>
<g>
	<circle class="st3" cx="350" cy="251.4" r="2"/>
</g>
<g>
	<circle class="st3" cx="350" cy="247.6" r="0.8"/>
</g>
<g>
	<circle class="st3" cx="350" cy="255.3" r="0.8"/>
</g>
<g>
	<path class="st3" d="M347,248.7c0.4,0.2,0.6,0.6,0.4,1c-0.2,0.4-0.6,0.6-1,0.4c-0.4-0.2-0.6-0.6-0.4-1
		C346.1,248.7,346.6,248.6,347,248.7z"/>
</g>
<g>
	<path class="st3" d="M353.7,252.6c0.4,0.2,0.6,0.6,0.4,1c-0.2,0.4-0.6,0.6-1,0.4c-0.4-0.2-0.6-0.6-0.4-1
		C352.8,252.6,353.3,252.4,353.7,252.6z"/>
</g>
<g>
	<path class="st3" d="M346.2,252.7c0.4-0.3,0.9-0.2,1.1,0.2c0.3,0.4,0.2,0.9-0.2,1.1c-0.4,0.3-0.9,0.2-1.1-0.2
		C345.8,253.5,345.8,252.9,346.2,252.7z"/>
</g>
<g>
	<path class="st3" d="M352.9,248.8c0.4-0.3,0.9-0.2,1.1,0.2c0.3,0.4,0.2,0.9-0.2,1.1c-0.4,0.2-0.9,0.2-1.1-0.2
		C352.4,249.6,352.5,249.1,352.9,248.8z"/>
</g>
<g>
	<path class="st3" d="M350,259.5c-4,0-7.5-3-8-7c-0.3-2.2,0.3-4.2,1.7-5.9c1.3-1.7,3.2-2.8,5.4-3.1c2.2-0.3,4.2,0.3,5.9,1.7
		c1.7,1.3,2.8,3.2,3.1,5.4c0.3,2.2-0.3,4.2-1.7,5.9c-1.3,1.7-3.2,2.8-5.4,3.1C350.7,259.5,350.4,259.5,350,259.5z M350,245.6
		c-0.2,0-0.5,0-0.7,0c-1.6,0.2-2.9,0.9-3.8,2.2c-0.9,1.2-1.3,2.8-1.1,4.4c0.4,3.2,3.3,5.5,6.5,5.1c3.2-0.4,5.5-3.3,5.1-6.5l0,0
		c-0.2-1.6-0.9-2.9-2.2-3.8C352.6,246,351.4,245.6,350,245.6z"/>
</g>
<g>
	<path class="st3" d="M233.7,266.4c-7.5,0-13.9-5.5-14.8-13.1c-1-8.2,4.8-15.6,13-16.7c8.2-1,15.6,4.8,16.7,13
		c1,8.2-4.8,15.6-13,16.7C234.9,266.3,234.3,266.4,233.7,266.4z M233.7,239.7c-0.5,0-1,0-1.5,0.1c-6.4,0.8-11,6.6-10.2,13.1
		c0.8,6.4,6.7,11,13.1,10.2c3.1-0.4,5.9-2,7.8-4.5c2-2.5,2.8-5.6,2.4-8.7s-2-5.9-4.5-7.8C238.8,240.5,236.3,239.7,233.7,239.7z"/>
</g>
<g>
	<circle class="st3" cx="233.7" cy="251.4" r="2"/>
</g>
<g>
	<circle class="st3" cx="233.7" cy="247.6" r="0.8"/>
</g>
<g>
	<circle class="st3" cx="233.7" cy="255.3" r="0.8"/>
</g>
<g>
	<path class="st3" d="M230.7,248.7c0.4,0.2,0.6,0.6,0.4,1c-0.2,0.4-0.6,0.6-1,0.4c-0.4-0.2-0.6-0.6-0.4-1
		C229.8,248.7,230.3,248.6,230.7,248.7z"/>
</g>
<g>
	<circle class="st3" cx="237.1" cy="253.4" r="0.8"/>
</g>
<g>
	<circle class="st3" cx="230.4" cy="253.4" r="0.8"/>
</g>
<g>
	<path class="st3" d="M236.6,248.8c0.4-0.3,0.9-0.2,1.1,0.2c0.3,0.4,0.2,0.9-0.2,1.1c-0.4,0.3-0.9,0.2-1.1-0.2
		C236.1,249.6,236.2,249.1,236.6,248.8z"/>
</g>
<g>
	<path class="st3" d="M233.7,259.5c-4,0-7.5-3-8-7c-0.5-4.5,2.6-8.5,7-9c2.2-0.3,4.2,0.3,5.9,1.7c1.7,1.3,2.8,3.2,3.1,5.4
		c0.5,4.5-2.6,8.5-7,9C234.4,259.5,234,259.5,233.7,259.5z M233.7,245.6c-0.2,0-0.5,0-0.7,0c-3.2,0.4-5.5,3.3-5.1,6.5
		c0.4,3.2,3.3,5.5,6.5,5.1s5.5-3.3,5.1-6.5C239.1,247.8,236.6,245.6,233.7,245.6z"/>
</g>
<g>
	<path class="st3" d="M237.1,160.4h-57.4c-0.9,0-1.7-0.7-1.7-1.7v-4.5c0-3.7,3-6.8,6.8-6.8h47c3.7,0,6.8,3,6.8,6.8v4.5
		C238.7,159.7,237.9,160.4,237.1,160.4z M181.4,157.1h54.1v-2.9c0-2-1.6-3.5-3.5-3.5h-47c-2,0-3.5,1.6-3.5,3.5L181.4,157.1
		L181.4,157.1z"/>
</g>
<g>
	<path class="st3" d="M363.5,160.4h-57.4c-0.9,0-1.7-0.7-1.7-1.7v-4.5c0-3.7,3-6.8,6.8-6.8h47c3.7,0,6.8,3,6.8,6.8v4.5
		C365.1,159.7,364.3,160.4,363.5,160.4z M307.8,157.1h54.1v-2.9c0-2-1.6-3.5-3.5-3.5h-47c-2,0-3.5,1.6-3.5,3.5L307.8,157.1
		L307.8,157.1z"/>
</g>
<g>
	<path class="st3" d="M198.3,266.4c-7.5,0-13.9-5.5-14.8-13.1c-1-8.2,4.8-15.6,13-16.7c3.9-0.5,7.9,0.6,11.1,3
		c3.1,2.5,5.2,6,5.7,9.9c0.5,3.9-0.6,7.9-3,11.1c-2.5,3.1-6,5.2-9.9,5.7C199.5,266.3,198.9,266.4,198.3,266.4z M198.4,239.7
		c-0.5,0-1,0-1.5,0.1c-6.4,0.8-11,6.6-10.2,13.1s6.7,11,13.1,10.2c3.1-0.4,5.9-2,7.8-4.5c2-2.5,2.8-5.6,2.4-8.7s-2-5.9-4.5-7.8
		C203.4,240.5,201,239.7,198.4,239.7z"/>
</g>
<g>
	<circle class="st3" cx="198.3" cy="251.4" r="2"/>
</g>
<g>
	<circle class="st3" cx="198.3" cy="247.6" r="0.8"/>
</g>
<g>
	<circle class="st3" cx="198.3" cy="255.3" r="0.8"/>
</g>
<g>
	<path class="st3" d="M195.3,248.7c0.4,0.2,0.6,0.6,0.4,1s-0.6,0.6-1,0.4c-0.4-0.2-0.6-0.6-0.4-1
		C194.3,248.7,194.8,248.6,195.3,248.7z"/>
</g>
<g>
	<path class="st3" d="M202,252.6c0.4,0.2,0.6,0.6,0.4,1c-0.2,0.4-0.6,0.6-1,0.4c-0.4-0.2-0.6-0.6-0.4-1
		C201.1,252.6,201.6,252.4,202,252.6z"/>
</g>
<g>
	<path class="st3" d="M194.4,252.7c0.4-0.3,0.9-0.2,1.1,0.2c0.3,0.4,0.2,0.9-0.2,1.1c-0.4,0.3-0.9,0.2-1.1-0.2
		S194.1,252.9,194.4,252.7z"/>
</g>
<g>
	<path class="st3" d="M201.2,248.8c0.4-0.3,0.9-0.2,1.1,0.2c0.3,0.4,0.2,0.9-0.2,1.1c-0.4,0.3-0.9,0.2-1.1-0.2
		C200.8,249.6,200.8,249.1,201.2,248.8z"/>
</g>
<g>
	<path class="st3" d="M198.3,259.5c-4,0-7.5-3-8-7c-0.3-2.2,0.3-4.2,1.7-5.9c1.3-1.7,3.2-2.8,5.4-3.1c2.2-0.3,4.2,0.3,5.9,1.7
		c1.7,1.3,2.8,3.2,3.1,5.4c0.5,4.5-2.6,8.5-7,9C199,259.5,198.7,259.5,198.3,259.5z M198.4,245.6c-0.2,0-0.5,0-0.7,0
		c-1.6,0.2-2.9,0.9-3.8,2.2c-0.9,1.2-1.3,2.8-1.1,4.4c0.4,3.2,3.3,5.5,6.5,5.1c3.2-0.4,5.5-3.3,5.1-6.5l0,0
		c-0.2-1.6-0.9-2.9-2.2-3.8C200.9,246,199.6,245.6,198.4,245.6z"/>
</g>
<g>
	<path class="st3" d="M417.2,265.3c-5.6,0.8-11.2,1-16.8,1.1c-5.6,0.1-11.2,0.1-16.8,0h-8.4h-8.4H350h-67h-67h-33.5h-8.4H170
		l-4.1,0.1c-2.8,0-5.6,0-8.4-0.1c-2.8-0.2-5.6-0.4-8.4-1c-0.3-0.1-0.5-0.3-0.4-0.6c0-0.2,0.2-0.4,0.4-0.4c2.8-0.6,5.6-0.8,8.4-1
		c2.8-0.1,5.6-0.2,8.4-0.1l4.1,0.1h4.1h8.4H216h67h67h16.8h8.4h8.4c5.6-0.1,11.2-0.1,16.8,0c5.6,0.1,11.2,0.3,16.8,1.1
		c0.3,0,0.5,0.3,0.4,0.6C417.6,265.1,417.4,265.3,417.2,265.3z"/>
</g>
<g>
	<path class="st3" d="M94.2,265.3c-1.2,0.8-2.3,1-3.5,1.1c-1.2,0.1-2.3,0.1-3.5,0h-1.7h-1.7h-3.5H66.6H52.7h-6.9h-1.7h-0.9l-0.9,0.1
		c-0.6,0-1.2,0-1.7-0.1c-0.6-0.2-1.2-0.4-1.7-1c-0.1-0.1-0.1-0.3-0.1-0.6c0-0.2,0-0.4,0.1-0.4c0.6-0.6,1.2-0.8,1.7-1
		c0.6-0.1,1.2-0.2,1.7-0.1l0.9,0.1h0.9h1.7h6.9h13.8h13.8h3.5h1.7h1.7c1.2-0.1,2.3-0.1,3.5,0s2.3,0.3,3.5,1.1c0.1,0,0.1,0.3,0.1,0.6
		C94.3,265.1,94.3,265.3,94.2,265.3z"/>
</g>
<g>
	<path class="st3" d="M516.3,265.3c-1.2,0.8-2.3,1-3.5,1.1s-2.3,0.1-3.5,0h-1.7h-1.7h-3.5h-13.8h-13.8h-6.9h-1.7h-0.9l-0.9,0.1
		c-0.6,0-1.2,0-1.7-0.1c-0.6-0.2-1.2-0.4-1.7-1c-0.1-0.1-0.1-0.3-0.1-0.6c0-0.2,0-0.4,0.1-0.4c0.6-0.6,1.2-0.8,1.7-1
		c0.6-0.1,1.2-0.2,1.7-0.1l0.9,0.1h0.9h1.7h6.9h13.8h13.8h3.5h1.7h1.7c1.2-0.1,2.3-0.1,3.5,0s2.3,0.3,3.5,1.1c0.1,0,0.1,0.3,0.1,0.6
		C516.4,265.1,516.4,265.3,516.3,265.3z"/>
</g>
<g>
	<path class="st1" d="M426.4,173.8v11.3c0,2.8-2.3,5-5,5c-1.3,0-2.4-1-2.4-2.4v-12.8h-27.4v-3.3c0-1.3,1-2.4,2.4-2.4h27.8
		C424.3,169.2,426.4,171.2,426.4,173.8z"/>
	<path class="st1" d="M421.4,190.4c-1.5,0-2.6-1.1-2.6-2.6v-12.6h-27.4v-3.5c0-1.5,1.1-2.6,2.6-2.6h27.8c2.7,0,4.9,2.2,4.9,4.9v11.3
		C426.6,188,424.3,190.4,421.4,190.4z M391.9,174.6h27.4v13.2c0,1.1,0.9,2.2,2.2,2.2c2.7,0,4.8-2.2,4.8-4.8v-11.3
		c0-2.4-2-4.4-4.4-4.4h-27.8c-1.1,0-2.1,0.9-2.1,2.1v3H391.9z"/>
</g>
<g>
	<path class="st3" d="M418.1,191.1c-2.2,0-3.9-1.8-3.9-3.9v-11.4h-25.8c-0.8,0-1.6-0.7-1.6-1.6v-3.3c0-2.2,1.8-3.8,3.8-3.8h27.8
		c3.4,0,6.1,2.8,6.1,6.1v11.3C424.7,188.1,421.7,191.1,418.1,191.1z M390,172.8h25.8c0.8,0,1.6,0.7,1.6,1.6v12.8
		c0,0.4,0.4,0.8,0.8,0.8c2,0,3.5-1.6,3.5-3.5v-11.3c0-1.7-1.3-3.1-3.1-3.1h-27.8c-0.4,0-0.8,0.3-0.8,0.8V172.8z"/>
</g>
<path class="st3" d="M66.6,251.2l-0.8-0.5c-12.3-6.8-29.4-33.6-29.4-50.7c0-16.6,13.5-30.1,30.1-30.1c16.6,0,30.1,13.5,30.1,30.1
	c0,16.8-18.3,43.4-29.3,50.6L66.6,251.2z M66.6,173.1c-14.9,0-27,12.1-27,27c0,15.3,15.6,40.4,27,47.5c10.5-7.6,27.1-32.5,27.1-47.5
	C93.6,185.2,81.5,173.1,66.6,173.1z M66.6,215.5c-8.5,0-15.4-6.9-15.4-15.4s6.9-15.4,15.4-15.4c8.5,0,15.4,6.9,15.4,15.4
	S75.1,215.5,66.6,215.5z M66.6,187.8c-6.8,0-12.3,5.5-12.3,12.3s5.5,12.3,12.3,12.3c6.8,0,12.3-5.5,12.3-12.3S73.4,187.8,66.6,187.8
	z"/>
<path class="st1" d="M492.8,175c-15.9,0-28.6,12.7-28.6,28.6c0,15.9,16.3,42.5,28.6,49.3c11-7.1,28.6-33.6,28.6-49.3
	C521.4,187.8,508.7,175,492.8,175z M492.8,217.5c-7.7,0-13.9-6.2-13.9-13.9c0-7.7,6.2-13.9,13.9-13.9c7.7,0,13.9,6.2,13.9,13.9
	C506.7,211.3,500.5,217.5,492.8,217.5z"/>
<path class="st3" d="M488.7,251.2l-0.8-0.5c-12.3-6.8-29.4-33.6-29.4-50.7c0-16.6,13.5-30.1,30.1-30.1c16.6,0,30.1,13.5,30.1,30.1
	c0,16.8-18.3,43.4-29.3,50.6L488.7,251.2z M488.7,173.1c-14.9,0-27,12.1-27,27c0,15.3,15.6,40.4,27,47.5
	c10.5-7.6,27.1-32.5,27.1-47.5C515.7,185.2,503.6,173.1,488.7,173.1z M488.7,215.5c-8.5,0-15.4-6.9-15.4-15.4s6.9-15.4,15.4-15.4
	c8.5,0,15.4,6.9,15.4,15.4S497.2,215.5,488.7,215.5z M488.7,187.8c-6.8,0-12.3,5.5-12.3,12.3s5.5,12.3,12.3,12.3
	c6.8,0,12.3-5.5,12.3-12.3S495.5,187.8,488.7,187.8z"/>
<g>
	<path class="st3" d="M342.4,124.5h-84.5c-5.2,0-9.5-4.3-9.5-9.5s4.3-9.5,9.5-9.5H277c3.5,0,6.4-2.9,6.4-6.4s-2.9-6.4-6.4-6.4h-84.5
		v-3.1H277c5.2,0,9.5,4.3,9.5,9.5s-4.3,9.5-9.5,9.5h-19.1c-3.5,0-6.4,2.9-6.4,6.4s2.9,6.4,6.4,6.4h84.5V124.5z"/>
	<polygon class="st3" points="198.2,99.1 190.4,91.2 198.3,83.3 200.5,85.5 194.8,91.2 200.4,96.9 	"/>
	<polygon class="st3" points="336.7,130.8 334.5,128.6 340.2,123 334.5,117.3 336.7,115.1 344.6,123 	"/>
</g>
</svg>
