<?xml version="1.0" encoding="utf-8"?>
<!-- Generator: Adobe Illustrator 24.0.1, SVG Export Plug-In . SVG Version: 6.00 Build 0)  -->
<svg width="453" height="443" viewBox="0 0 453 443" fill="none" xmlns="http://www.w3.org/2000/svg">
<style type="text/css">
	.st0{fill:#2CBEFF;}
	.st1{fill:#FDD24A;}
	.st2{fill:#16B8E2;}
	.st3{fill:#142C82;}
	.st4{fill:#DAEEF7;}
	.st5{fill:#FF5B7E;}
	.st6{opacity:0.3;fill:#E87B50;enable-background:new    ;}
	.st7{fill:#222323;}
	.st8{fill:#333333;}
	.st9{fill:#FFC0BB;}
	.st10{fill:#E2FAFA;}
	.st11{fill:#FEB546;}
	.st12{fill:#FFFFFF;}
	.st13{opacity:0.5;fill:#142C82;enable-background:new    ;}
	.st14{opacity:0.55;}
	.st15{fill:#EF3D30;}
	.st16{fill:#6B184E;}
	.st17{fill:#FFB640;}
	.st18{fill:none;stroke:#142C82;stroke-width:3.1082;stroke-miterlimit:10;}
	.st19{fill:none;stroke:#142C82;stroke-width:3.1419;stroke-miterlimit:10;}
	.st20{opacity:0.5;fill:none;stroke:#142C82;stroke-width:3.1418;stroke-miterlimit:9.9998;enable-background:new    ;}
	.st21{fill:none;stroke:#142C82;stroke-width:3.1419;stroke-miterlimit:10.0003;}
	.st22{opacity:0.5;fill:none;stroke:#142C82;stroke-width:3.1419;stroke-miterlimit:10.0002;enable-background:new    ;}
	.st23{fill:none;stroke:#142C82;stroke-width:3.142;stroke-miterlimit:10.0003;}
	.st24{fill:none;stroke:#142C82;stroke-width:3.1419;stroke-linecap:round;stroke-linejoin:round;stroke-miterlimit:10;}
	.st25{opacity:0.5;fill:none;stroke:#142C82;stroke-width:3.1419;stroke-miterlimit:10.0003;enable-background:new    ;}
	.st26{fill:none;stroke:#142C82;stroke-width:3.1419;stroke-miterlimit:10.0001;}
	.st27{fill:none;stroke:#142C82;stroke-width:3.1417;stroke-miterlimit:9.9996;}
	.st28{fill:url(#SVGID_1_);}
	.st29{fill:#91B3FA;}
	.st30{opacity:0.36;fill:#FFFFFF;}
	.st31{fill:#7D97F4;}
	.st32{fill:url(#SVGID_2_);}
	.st33{fill:#BDD0FB;}
	.st34{fill:url(#SVGID_3_);}
	.st35{fill:url(#SVGID_4_);}
	.st36{fill:url(#SVGID_5_);}
	.st37{fill:url(#SVGID_6_);}
	.st38{fill:url(#SVGID_7_);}
	.st39{fill:url(#SVGID_8_);}
	.st40{fill:url(#SVGID_9_);}
	.st41{fill:url(#SVGID_10_);}
	.st42{fill:url(#SVGID_11_);}
	.st43{opacity:0.6;}
	.st44{fill:url(#SVGID_12_);}
	.st45{fill:url(#SVGID_13_);}
	.st46{opacity:0.17;fill:#FFFFFF;}
	.st47{fill:#F5D3D5;}
	.st48{fill:#192159;}
	.st49{fill:none;stroke:#8D4DAA;stroke-miterlimit:10;}
	.st50{fill:#8D4DAA;}
	.st51{fill:#00073F;}
	.st52{fill:#3A488A;}
	.st53{fill:#6074AF;}
	.st54{fill:url(#SVGID_14_);}
	.st55{fill:none;stroke:#142C82;stroke-width:3.108;stroke-linecap:round;stroke-linejoin:round;stroke-miterlimit:10;}
	.st56{fill:#FFFFFF;stroke:#142C82;stroke-width:3.108;stroke-linecap:round;stroke-linejoin:round;stroke-miterlimit:10;}
	.st57{fill:url(#SVGID_15_);}
</style>
<rect x="35.8" y="54.8" class="st2" width="77.7" height="3"/>
<path class="st2" d="M354.4,107.4H347v-4h7.4V107.4z M342.7,107.4h-7.4v-4h7.4V107.4z M331.1,107.4h-7.4v-4h7.4V107.4z M319.4,107.4
	H312v-4h7.4V107.4z M307.8,107.4h-7.4v-4h7.4V107.4z M296.1,107.4h-7.4v-4h7.4V107.4z"/>
<path class="st2" d="M67.5,277.2h-7.4v-4h7.4V277.2z M55.8,277.2h-7.4v-4h7.4V277.2z M44.1,277.2h-7.4v-4h7.4V277.2z"/>
<path class="st2" d="M498.3,288h-7.4v-4h7.4V288z M486.6,288h-7.4v-4h7.4V288z M474.9,288h-7.4v-4h7.4V288z"/>
<path class="st2" d="M185.4,39.4H178v-4h7.4V39.4z M173.7,39.4h-7.4v-4h7.4V39.4z M162,39.4h-7.4v-4h7.4V39.4z"/>
<rect x="324.3" y="33.4" class="st2" width="103.3" height="4"/>
<path class="st2" d="M209.3,63.4c0.9-4.1,4.6-7.1,9-7.1c0.8,0,1.6,0.1,2.3,0.3c2.2-4.6,6.9-7.9,12.4-7.9c1.4,0,2.7,0.2,4.1,0.6
	c2.9-4.8,8.3-8.1,14.3-8.1c7.2,0,13.4,4.6,15.8,11c1.7-0.9,3.6-1.5,5.6-1.5c6.4,0,11.5,5.1,11.5,11.5c0,0.4,0,0.7-0.1,1.2h-74.9
	V63.4z"/>
<g>
	<path class="st1" d="M444,323.3H89.5c-5.9,0-9.3-6.7-5.8-11.4l35.8-48.6c3.6-4.9,9.4-7.8,15.5-7.8h263.4c6.1,0,11.9,2.9,15.5,7.8
		l35.8,48.6C453.2,316.6,449.8,323.3,444,323.3z"/>
	<path class="st3" d="M440.4,320.1H85.9c-3.3,0-6.3-1.8-7.8-4.8c-1.5-3-1.2-6.5,0.8-9.1l35.8-48.6c3.9-5.3,10.2-8.5,16.8-8.5h263.4
		c6.6,0,12.8,3.2,16.8,8.5l35.8,48.6c2,2.7,2.3,6.2,0.8,9.1C446.7,318.2,443.7,320.1,440.4,320.1z M131.5,252.2
		c-5.6,0-10.9,2.7-14.3,7.2L81.4,308c-1.3,1.7-1.5,3.9-0.5,5.9c1,1.9,2.9,3.1,5,3.1h354.5c2.2,0,4-1.2,5-3.1c1-1.9,0.8-4.1-0.5-5.9
		l-35.8-48.6c-3.3-4.5-8.7-7.2-14.3-7.2H131.5z"/>
	<g>
		<g>
			<path class="st12" d="M172.2,274.8c-5,0.8-9.1-0.7-9.1-0.7s-4.8-3.4-7.4-7.8c-2.5-4.4-14.3,12.4-14.3,12.4s-16.2,4.2-16.2,9.1
				c0,0,27.3-2,51.9-2C175.6,280.8,171,279,172.2,274.8z"/>
			<path class="st3" d="M125.2,289.4c-0.4,0-0.8-0.1-1.1-0.4c-0.3-0.3-0.5-0.7-0.5-1.1c0-5.4,12.2-9.2,16.8-10.4
				c3.1-4.4,10.1-13.6,14.2-13.4c1,0,1.9,0.6,2.4,1.5c2.1,3.6,5.9,6.5,6.7,7.2c0.8,0.3,4.2,1.2,8.1,0.5c0.5-0.1,1.1,0.1,1.4,0.5
				c0.4,0.4,0.5,0.9,0.3,1.5c-0.5,1.6,0.2,2.6,1.7,4.6c1.1,1.5,2.4,3.2,3.1,5.6c0.1,0.5,0,1-0.2,1.4s-0.8,0.6-1.2,0.6
				c-24.3,0-51.5,2-51.8,2C125.3,289.4,125.2,289.4,125.2,289.4z M154.4,267.2c-1.7,0.1-7.1,5.9-11.7,12.5c-0.2,0.3-0.5,0.5-0.9,0.6
				c-5.4,1.4-11.3,3.8-13.8,5.8c7.4-0.5,27.7-1.7,46.8-1.8c-0.5-0.9-1.2-1.8-1.8-2.6c-1.2-1.5-2.4-3.1-2.5-5.2
				c-4.4,0.3-7.7-0.9-7.9-1c-0.1,0-0.2-0.1-0.4-0.2C162,275.3,157.1,271.8,154.4,267.2z"/>
		</g>
		<g>
			<path class="st12" d="M386.6,283.1c-4-0.6-15.9-7.4-18.5-14.4c-0.4-1.2-1.1-6.7-1.4-8.2c-3.5,1.4-5.8,2.6-9.3,2
				c1.8,7.4-1.6,12.7-3.7,17c-2.8,5.8-1,8.3-1,8.3h41.1C393.8,284.1,390.6,283.7,386.6,283.1z"/>
			<path class="st3" d="M393.8,289.4h-41.1c-0.5,0-1-0.3-1.3-0.7c-0.2-0.3-2.2-3.5,0.9-9.9c0.3-0.5,0.5-1.1,0.8-1.7
				c2-3.9,4.2-8.4,2.8-14.3c-0.1-0.5,0-1,0.4-1.4c0.4-0.4,0.9-0.6,1.4-0.5c2.6,0.4,4.4-0.3,7.3-1.5c0.4-0.2,0.8-0.3,1.2-0.5
				c0.4-0.2,0.9-0.1,1.3,0.1c0.4,0.2,0.7,0.6,0.8,1.1c0.1,0.5,0.3,1.5,0.4,2.7c0.3,1.7,0.7,4.6,0.9,5.3c2.3,6.3,13.5,12.8,17.2,13.4
				h0l0.4,0.1c3.8,0.6,8.1,1.3,8.1,6.3C395.4,288.7,394.7,289.4,393.8,289.4z M353.8,286.3h38c-0.6-0.8-2.1-1.2-5.1-1.6l-0.4-0.1
				c-4.5-0.7-16.9-7.9-19.7-15.4c-0.3-0.8-0.6-3-1.1-5.9c0-0.2-0.1-0.5-0.1-0.7c-2,0.8-3.9,1.5-6.1,1.5c0.8,6-1.5,10.6-3.4,14.3
				c-0.3,0.6-0.5,1.1-0.8,1.6C353.6,283.4,353.6,285.3,353.8,286.3z"/>
		</g>
		<path class="st2" d="M368.4,264.8c-1.4-7.1-1.2-17.5,0.4-31.7c1.9-17.1-0.6-26.3-7.4-26.3s-29.9,0-55.7,0l-14.3,38
			c26.7,0,46.8-15.8,56.7-15.8c-1.6,21.7,7,28.4,8.2,37.2C359.8,266.6,364.9,266.2,368.4,264.8z"/>
		<path class="st3" d="M358.7,272c-1.2,0-2.4-0.1-3.5-0.3l-1.1-0.2l-0.2-1.1c-0.4-2.7-1.5-5.2-2.8-8.2c-2.8-6.1-6.1-13.7-5.5-27.5
			c-3.4,0.5-7.9,2.5-13.1,4.8c-10.5,4.6-25,10.9-41.9,10.9h-2.2l15.4-41.1h56.8c2.3,0,4.2,0.9,5.7,2.6c3.6,4,4.6,12.6,3.2,25.5
			c-1.6,14.7-1.8,24.6-0.4,31.2l0.3,1.3l-1.2,0.5C365.5,271.4,362,272,358.7,272z M356.8,268.8c2.8,0.3,6.3-0.1,9-0.9
			c-1.1-6.9-0.9-16.8,0.6-30.9c1.7-15-0.4-20.8-2.4-23.1c-0.9-1-2-1.5-3.4-1.5H306l-13.1,34.8c15.3-0.5,28.6-6.3,38.4-10.6
			c6.7-2.9,12-5.2,16-5.2h1.7l-0.1,1.7c-1,14.2,2.4,21.8,5.1,27.8C355.2,263.7,356.3,266.1,356.8,268.8z"/>
		<path class="st2" d="M305.7,206.7l-34.3-1.4c-8.6,5.1-20.2,17.5-13.7,35.2c0,0-33.9,29.5-39,29.5c-5.1,0-10.7-5.5-27.3-1.5
			c-8.7,2.1-14.7,3.6-20.2,4.5c-1.2,4.2-1.2,9.9,0.3,14.9c28.5,0,50.1,0,57.2,0c13.3,0,50.8-19,65.5-37.5
			C294.2,250.4,309.9,233.4,305.7,206.7z"/>
		<g>
			<g>
				<path class="st3" d="M221.4,95l0,3.1c1.1,0,2.1,0.2,3,0.5c0.5,0.2,0.9,0.3,1.3,0.5c0.9,0.4,1.8,0.8,3,0.8c0.3,0,0.7,0,1-0.1
					c0.4-0.1,0.8-0.2,1.5-0.5c1.1,1.9,3.3,2.4,5.2,2.9c0.9,0.2,1.9,0.4,2.9,0.8c0.5,0.2,4.9,1.8,4.4,3.6l-2.5,9.4
					c-0.2,0.9-0.1,1.8,0.5,2.6c4.9,6.9,7.7,10.8,8.3,11.6c0.3,0.7-0.7,3.6-3.4,5.7c-1.6,1.2-3.7,2.1-5.4,2.1c-0.7,0-1-0.1-1-0.2
					c-0.4-0.5-2.1-2.8-9.4-13.1c-0.6-0.8-1.5-1.3-2.5-1.3c-0.4,0-0.7,0.1-1.1,0.2c0,0,0,0,0,0c-0.3-1.5-1.3-3.2-3.1-4.7
					c-0.7-0.6-1.1-1.3-1-2c0.1-0.7,0.5-1.3,0.8-1.4c0.6-0.3,1.1-0.8,1.4-1.4c0,0,0.1-0.1,0.1-0.1c0.7-0.9,0.9-2.1,0.5-3.1
					s-1.3-1.8-2.5-1.9l-0.5-0.1l-0.3,0c-9.2-1.3-10.2-3.9-10-6.3c0.2-1.1,4.1-4.5,9-4.5V95 M232.9,98.7L232.9,98.7L232.9,98.7
					 M221.4,95c-6,0-11.9,4.1-12.1,7.3c-0.5,6.8,6.5,8.8,12.7,9.7c0.2,0,0.5,0.1,0.8,0.1c-0.2,0.2-0.3,0.4-0.4,0.7
					c-2.5,1.3-3.9,5.7-0.4,8.6c3.6,2.9,2.1,6.2-0.5,6.2c0,0-0.1,0-0.1,0c0.3,0,0.7,0,1,0c2,0,4-0.4,5.8-1.1
					c3.6,5.1,8.6,12.1,9.5,13.2c0.7,0.9,2,1.4,3.5,1.4c2.2,0,5-1,7.2-2.7c3.8-2.9,5.8-7.7,4-10.1c-0.7-1-4.8-6.7-8.3-11.5l2.5-9.4
					c0.9-3.3-2-5.8-6.4-7.3c-3.4-1.2-6.1-1.1-6.5-2.6l0-1c-0.1-0.6-0.5-0.9-1.1-0.9c-0.2,0-0.4,0-0.7,0.1c-0.3,0.1-2.4,0.9-2.8,1
					c-0.1,0-0.3,0-0.4,0c-0.8,0-1.6-0.5-3.2-1.1C224.2,95.2,222.8,95,221.4,95L221.4,95z"/>
			</g>
			<g>
				<path class="st1" d="M223.8,127.6c0.7,1.7,5.2,17.9,8.7,24.6c12.3,23.5,23.9,13.9,33.9,35.4c0,0,5.3,11.1,4.9,17.7
					c-0.3,4.7,30.4,10.1,34.3,1.4c0,0-1.8-15.3-2.2-18.5c-0.5-3.7-8.9-19.3-10.9-23.4c-2.1-4.1-1.8-15-9-18.9
					c-7.2-3.9-23.8-10.7-31.1-17.6L223.8,127.6z"/>
				<g>
					<g>
						<path class="st12" d="M305.7,206.7c0,0-1-10.5-2.2-18.5c1.3,10.6-7.7,22.6-17.4,22.6l0,0C294.5,211.8,303.8,211.1,305.7,206.7
							z"/>
						<path class="st3" d="M302.4,204.1c0.1,0.7,0.1,1.3,0.2,1.8c-0.5,0.4-1.3,0.9-2.7,1.4c0.1-0.1,0.3-0.3,0.4-0.4
							C301,206,301.7,205.1,302.4,204.1 M303.5,188.2c1.3,10.6-7.7,22.6-17.4,22.6l0,0c2.1,0.2,4.2,0.4,6.3,0.4
							c6.3,0,11.8-1.2,13.3-4.5C305.7,206.7,304.7,196.2,303.5,188.2L303.5,188.2z"/>
					</g>
				</g>
				<path class="st3" d="M219.1,97.4c-2.2-3.7-7.5-4.1-10.2-0.7c-2.2,2.7-1.5,2.9-6.4,2.9c-6.6,0-12.6,6-12.6,12.6
					c0,6.6,6.1,12.5,12.7,12.4c2,4-7.7,5.7-12.2,9.5c-4.9,4.2-4.9,12,0.3,16.1c4.3,3.4,12.6-0.7,14.1,1.3c3.5,4.6-4.6,7.7-5.2,13
					c-0.9,7.5,9.2,10.2,11.6,4.1c-1.9,18.7,17,17.3,18.1,10.2c3.6,0.2,11.6-6.5,12.4-13c1.7-12.8-10.1-16.6-7.7-17.5
					c6.6-2.6,9.5-13.4,5.1-19.8c-2.3-3.4-6.9-5.2-10.8-3.8c0.6-0.9,2-4-0.7-5.1c-1.9-0.7-2.8,0.1-3.8-1.2c-1.9-2.4,1.9-4.1,2.8-5.4
					c1.1-1.6,0.6-4-1.5-5.3c-2-1.2-3.3-3.2-3.3-5.5c0-0.1,0-0.3,0-0.4C221.8,99.7,220.9,98.2,219.1,97.4z"/>
			</g>
			<g>
				<path class="st12" d="M164.5,79.7c14.2,5.2,38.5,12.6,51.7,24c8,6.9,15.4,15.7,20,21.5c2.6,3.4,6.5,5.5,10.7,6.3
					c4.4,0.8,14.6,4.8,17,12.6c2.6,8.2-5.4,17.1-14.1,17.1c-6.2,0-9.8-2.1-15.7-8.5c-7.5-8-15.9-23.1-15.9-23.1s-8.9-17.4-57.2-41.4
					l-5.7,4.4c0,0-3.5,1.4-5.1,4c0,0-3.2-2.4,1.5-5.7c0,0,0.1-3.1-3.8-3.1h-11.6c-0.5,0-1-0.4-1-0.9l0,0c0-0.6,0.4-1,0.9-1.1l9-0.6
					v-0.8l-11.7-1c-0.4,0-0.8-0.4-0.8-0.9l0,0c0-0.5,0.4-0.9,0.9-0.9l11.5-0.2l-9.8-0.6c-0.4,0-0.7-0.4-0.7-0.7l0,0
					c0-0.4,0.3-0.7,0.7-0.7l11.9-0.5l-7.9-2.5c-0.3-0.1-0.5-0.4-0.4-0.7l0,0c0.1-0.3,0.4-0.5,0.7-0.5l11,2.1
					C150.7,77.3,162.1,78.8,164.5,79.7z"/>
				<path class="st3" d="M150.1,80.3L150.1,80.3c0.1,0,0.2,0,0.2,0c5.4,0.7,11.8,1.8,13.1,2.3c2,0.7,4.2,1.5,6.5,2.3
					c14.1,4.9,33.3,11.7,44.3,21.1c7.7,6.7,14.9,15.1,19.6,21.1c3.1,3.9,7.5,6.5,12.6,7.4c3.8,0.7,12.6,4.2,14.6,10.4
					c0.8,2.5,0.2,5.4-1.7,8c-2.3,3.1-5.9,5-9.4,5c-5.1,0-8-1.6-13.5-7.5c-7-7.5-15-21.8-15.4-22.5c-0.7-1.4-10.8-19-58.5-42.7
					c-0.4-0.2-0.9-0.3-1.4-0.3c-0.7,0-1.4,0.2-1.9,0.7l-4.5,3.5c-0.2-0.8-0.6-1.7-1.4-2.5c-0.8-0.9-2.3-1.9-4.8-2v-0.3
					c0-0.6-0.2-1.1-0.4-1.6c0.2-0.3,0.3-0.6,0.3-1C149,81.6,149.7,81.1,150.1,80.3 M139.6,75.2c-0.3,0-0.6,0.2-0.6,0.5
					c-0.1,0.3,0.1,0.6,0.4,0.7l7.9,2.5l-11.9,0.5c-0.4,0-0.7,0.3-0.7,0.7c0,0.4,0.3,0.7,0.7,0.7l9.8,0.6l-11.5,0.2
					c-0.5,0-0.9,0.4-0.9,0.9c0,0.5,0.3,0.8,0.8,0.9l11.7,1v0.8l-9,0.6c-0.6,0-1,0.5-0.9,1.1c0,0.5,0.5,0.9,1,0.9h11.6
					c3.9,0,3.8,3.1,3.8,3.1c-4.6,3.2-1.5,5.7-1.5,5.7c1.5-2.6,5.1-4,5.1-4l5.7-4.4c48.3,24,57.2,41.4,57.2,41.4s8.3,15.1,15.9,23.1
					c6,6.3,9.6,8.5,15.7,8.5c8.7,0,16.6-8.9,14.1-17.1c-2.4-7.8-12.6-11.8-17-12.5c-4.2-0.8-8-2.9-10.7-6.3
					c-4.6-5.9-12-14.6-20-21.5c-13.2-11.4-37.6-18.9-51.7-24c-2.4-0.9-13.8-2.4-13.8-2.4l-11-2.1C139.7,75.2,139.7,75.2,139.6,75.2
					L139.6,75.2z"/>
			</g>
		</g>
		<path class="st3" d="M229.9,293.5h-58.3l-0.3-1.1c-1.5-5.1-1.6-11.1-0.3-15.8l0.3-0.9l1-0.2c5.1-0.8,10.5-2.1,18-4l2.1-0.5
			c12.2-2.9,18.9-0.9,23.3,0.5c1.8,0.5,3.1,1,4.4,1c2.9-0.2,21-14.5,37.2-28.4c-5.6-16.8,4.3-29.9,14.7-36l0.4-0.2l36.1,1.5l0.2,1.3
			c4.1,26.7-10.8,43.7-11.9,44.9C281.3,274.7,243.3,293.5,229.9,293.5z M173.9,290.4h56c12.5,0,49.8-18.6,64.3-36.9l0.1-0.1
			c0.1-0.2,14.6-16.2,11.3-41.1l-32.6-1.4c-4.2,2.6-19.7,13.7-12.6,33l0.4,1l-0.8,0.7c-8.1,7-34.8,29.9-40,29.9
			c-1.7,0-3.4-0.5-5.3-1.1c-4.3-1.3-10.3-3.2-21.7-0.4l-2.1,0.5c-7.1,1.7-12.4,3-17.3,3.8C172.9,282,173,286.5,173.9,290.4z"/>
	</g>
</g>
<g>
	<path class="st1" d="M489.5,91.4C489,85.4,484.2,80,485,74c0.6-5.1,5.2-10,3.2-14.7c-1.2-2.8-4.4-4.1-6.4-6.4
		c-2.7-3-3.2-7.4-3.3-11.5c-0.2-4.1-0.2-8.4-2.3-11.9c-2.1-3.5-7-5.5-10.1-2.9c-1.9,1.6-2.4,4.3-3.7,6.5c-3.5,5.8-12,7-14.9,13.1
		c-2.5,5.4,0.6,11.8-0.2,17.8c-0.9,7.1-7.2,13.8-4.6,20.5c1,2.6,3.1,4.5,4.1,7.1c1.5,4-0.1,8.6,1.5,12.6c1.1,2.7,3.5,4.7,5.9,6.3
		c6.9,4.9,15,8.2,21.9,2C481.7,107.4,490.1,99.9,489.5,91.4z"/>
	<path class="st1" d="M468.7,129.9c0.7-14.2,2.3-29.3-4.6-42.3c-0.7-1.4-3-0.4-2.2,1c7.5,13.9,4.9,30.7,4.2,45.8
		c-0.8,16.6-1.7,33.2-2.5,49.8c-0.1,1.6,2.4,1.8,2.4,0.2C466.9,166.3,467.8,148.1,468.7,129.9z"/>
</g>
<g>
	<path class="st3" d="M472,120.8c-4.2,0-9-1.9-14.3-5.7c-2.4-1.7-5.1-3.8-6.4-7c-0.9-2.2-0.9-4.6-0.9-6.9c0-2.1,0-4-0.6-5.7
		c-0.4-1.1-1.1-2.1-1.9-3.2c-0.8-1.2-1.7-2.4-2.2-3.9c-1.8-4.6,0.2-9.1,2-13.5c1.1-2.5,2.2-5.2,2.5-7.7c0.3-2.2,0-4.5-0.4-7
		c-0.5-3.7-1-7.6,0.7-11.2c1.7-3.6,5-5.6,8.2-7.5c2.7-1.7,5.3-3.2,6.8-5.7c0.4-0.7,0.7-1.4,1.1-2.2c0.7-1.7,1.4-3.4,2.9-4.6
		c1.5-1.3,3.5-1.8,5.5-1.4c2.7,0.5,5.3,2.3,6.8,4.7c2.1,3.6,2.3,7.8,2.4,11.8l0,0.8c0.2,3.9,0.6,8,3,10.6c0.7,0.8,1.5,1.4,2.4,2.1
		c1.6,1.3,3.3,2.6,4.2,4.7c1.5,3.5,0.1,6.9-1.3,10.1c-0.8,1.8-1.5,3.6-1.8,5.4c-0.4,3,0.8,5.9,2.1,9c1.1,2.6,2.2,5.3,2.4,8.2
		c0.7,9.2-8.1,17-13.9,22.2C478.6,119.5,475.5,120.8,472,120.8z M473.7,30.2c-0.7,0-1.6,0.2-2.4,0.8c-1,0.8-1.5,2.1-2.1,3.6
		c-0.4,0.9-0.7,1.7-1.2,2.6c-1.8,3.1-4.9,5-7.8,6.7c-2.9,1.8-5.7,3.5-7,6.3c-1.3,2.8-0.9,6.1-0.4,9.6c0.3,2.5,0.7,5.2,0.4,7.8
		c-0.4,3-1.6,5.8-2.7,8.5c-1.7,4-3.3,7.7-2,11.3c0.4,1.1,1.1,2.1,1.9,3.2c0.8,1.2,1.7,2.4,2.2,3.9c0.8,2.2,0.8,4.5,0.8,6.8
		c0,2.1,0,4.1,0.7,5.8c0.9,2.4,3.2,4.1,5.3,5.7c8.5,6.1,14.9,6.8,20.1,2.1c5.4-4.8,13.5-12.1,12.9-19.8c-0.2-2.5-1.2-4.8-2.2-7.3
		c-1.4-3.3-2.8-6.7-2.3-10.5c0.3-2.2,1.1-4.2,2-6.2c1.3-2.9,2.3-5.5,1.3-7.8c-0.6-1.4-1.9-2.4-3.3-3.5c-1-0.8-2-1.5-2.8-2.5
		c-2.9-3.3-3.5-7.9-3.7-12.4l0-0.8c-0.1-3.7-0.3-7.5-2-10.4c-1-1.7-2.9-3-4.7-3.3C474.3,30.2,474,30.2,473.7,30.2z"/>
	<path class="st3" d="M467.4,90.4c-0.8,0-1.6,0.8-1.1,1.7c7.5,13.9,4.9,30.7,4.2,45.8c-0.8,16.6-1.7,33.2-2.5,49.8
		c0,0.8,0.6,1.3,1.3,1.3c0.6,0,1.1-0.3,1.1-1.1c0.9-18.2,1.8-36.3,2.7-54.5c0.7-14.2,2.3-29.3-4.6-42.3
		C468.2,90.6,467.8,90.4,467.4,90.4L467.4,90.4z"/>
</g>
<g>
	<path class="st2" d="M419.1,117.3c-0.3-4.1-3.6-7.8-3.1-11.9c0.4-3.5,3.6-6.8,2.2-10.1c-0.8-1.9-3-2.8-4.4-4.4
		c-1.8-2.1-2.2-5.1-2.3-7.9c-0.1-2.8-0.1-5.7-1.5-8.1c-1.4-2.4-4.8-3.8-6.9-2c-1.3,1.1-1.7,3-2.5,4.4c-2.4,4-8.2,4.8-10.2,9
		c-1.7,3.7,0.4,8.1-0.1,12.1c-0.6,4.9-4.9,9.4-3.2,14c0.7,1.8,2.2,3.1,2.8,4.9c1,2.7,0,5.9,1,8.6c0.7,1.9,2.4,3.2,4,4.3
		c4.7,3.4,10.2,5.6,15,1.4C413.8,128.2,419.6,123,419.1,117.3z"/>
	<path class="st2" d="M405,143.6c0.5-9.7,1.6-20-3.2-28.9c-0.5-0.9-2-0.3-1.5,0.7c5.1,9.5,3.4,20.9,2.9,31.3
		c-0.6,11.3-1.1,22.7-1.7,34c-0.1,1.1,1.6,1.2,1.7,0.2C403.7,168.4,404.3,156,405,143.6z"/>
</g>
<g>
	<path class="st3" d="M407.2,137.8c-3,0-6.4-1.3-10.1-4c-1.7-1.2-3.6-2.7-4.5-5c-0.6-1.6-0.6-3.3-0.6-4.9c0-1.4,0-2.6-0.4-3.7
		c-0.3-0.7-0.7-1.4-1.2-2.1c-0.6-0.8-1.2-1.7-1.6-2.7c-1.3-3.4,0.1-6.5,1.4-9.6c0.8-1.8,1.5-3.5,1.7-5.2c0.2-1.5,0-3-0.3-4.7
		c-0.4-2.6-0.7-5.3,0.5-7.9c1.2-2.6,3.5-4,5.8-5.3c1.8-1.1,3.5-2.2,4.5-3.8c0.3-0.4,0.5-0.9,0.7-1.5c0.5-1.1,1-2.4,2.1-3.3
		c1.1-0.9,2.6-1.3,4.2-1.1c2,0.3,3.9,1.7,4.9,3.4c1.5,2.6,1.6,5.6,1.7,8.3l0,0.5c0.1,2.6,0.4,5.3,1.9,6.9c0.4,0.5,1,0.9,1.6,1.4
		c1.1,0.9,2.3,1.8,3,3.4c1.1,2.6,0,5.1-0.9,7.3c-0.5,1.2-1,2.4-1.2,3.5c-0.2,1.9,0.6,3.8,1.4,5.9c0.8,1.8,1.5,3.7,1.7,5.8
		c0.5,6.5-5.6,12-9.6,15.6C411.9,136.9,409.7,137.8,407.2,137.8z M408.4,75.9c-0.5,0-0.9,0.2-1.3,0.5c-0.6,0.5-0.9,1.3-1.3,2.3
		c-0.3,0.6-0.5,1.2-0.9,1.8c-1.3,2.2-3.4,3.5-5.5,4.8c-1.9,1.2-3.8,2.3-4.6,4.1c-0.8,1.8-0.5,4-0.2,6.3c0.2,1.8,0.5,3.6,0.3,5.4
		c-0.3,2.1-1.1,4.1-1.9,6c-1.2,2.7-2.2,5.1-1.3,7.4c0.3,0.7,0.7,1.4,1.2,2.1c0.6,0.8,1.2,1.7,1.6,2.7c0.6,1.6,0.6,3.2,0.6,4.8
		c0,1.4,0,2.7,0.4,3.8c0.6,1.5,2.1,2.7,3.5,3.7c5.6,4,9.8,4.5,13.1,1.5c3.6-3.2,9.1-8.1,8.7-13.2l0,0c-0.1-1.6-0.8-3.2-1.5-4.9
		c-1-2.3-1.9-4.7-1.6-7.4c0.2-1.5,0.8-3,1.4-4.3c0.8-1.9,1.5-3.6,0.9-5c-0.4-0.9-1.2-1.5-2.1-2.2c-0.7-0.5-1.4-1.1-2-1.8
		c-2.1-2.4-2.5-5.6-2.6-8.8l0-0.5c-0.1-2.5-0.2-5-1.3-6.9c-0.6-1-1.8-1.9-2.9-2C408.7,75.9,408.5,75.9,408.4,75.9z"/>
	<path class="st3" d="M404,116.6c-0.6,0-1.1,0.5-0.8,1.1c5.1,9.5,3.4,20.9,2.9,31.3c-0.6,11.3-1.1,22.7-1.7,34
		c0,0.6,0.4,0.9,0.9,0.9c0.4,0,0.8-0.2,0.8-0.7c0.6-12.4,1.2-24.8,1.9-37.2c0.5-9.7,1.6-20-3.2-28.9
		C404.6,116.7,404.3,116.6,404,116.6L404,116.6z"/>
</g>
<g>
	<g>
		<g>
			<path class="st1" d="M90.3,123c-0.4-4.9-4.2-9.2-3.6-14.1c0.5-4.1,4.2-8.1,2.6-11.9c-1-2.3-3.5-3.3-5.1-5.2
				c-2.2-2.4-2.5-6-2.7-9.3c-0.1-3.3-0.2-6.8-1.8-9.6c-1.7-2.8-5.7-4.4-8.1-2.4c-1.5,1.3-1.9,3.5-3,5.2c-2.8,4.7-9.7,5.6-12,10.6
				c-2,4.3,0.5,9.5-0.1,14.3c-0.7,5.7-5.8,11.1-3.7,16.5c0.8,2.1,2.5,3.6,3.3,5.7c1.2,3.2-0.1,7,1.2,10.1c0.9,2.2,2.8,3.8,4.7,5.1
				c5.5,4,12.1,6.6,17.7,1.6C84,135.9,90.8,129.8,90.3,123z"/>
		</g>
		<path class="st1" d="M73.6,154c0.6-11.5,1.9-23.6-3.7-34.1c-0.6-1.1-2.4-0.3-1.8,0.8c6,11.2,4,24.7,3.4,36.9
			c-0.7,13.4-1.3,26.7-2,40.1c-0.1,1.3,1.9,1.5,2,0.2C72.1,183.3,72.8,168.7,73.6,154z"/>
	</g>
</g>
<g>
	<path class="st3" d="M76.2,147c-3.5,0-7.5-1.5-11.8-4.6c-2-1.4-4.2-3.2-5.3-5.8c-0.7-1.9-0.7-3.8-0.7-5.7c0-1.6,0-3.2-0.5-4.5
		c-0.3-0.9-0.9-1.7-1.5-2.5c-0.7-1-1.4-2-1.8-3.2c-1.5-3.9,0.1-7.6,1.6-11.1c0.9-2,1.8-4.1,2-6.1c0.2-1.7,0-3.6-0.3-5.6
		c-0.4-3.1-0.8-6.2,0.6-9.2c1.4-3,4.1-4.6,6.7-6.2c2.2-1.3,4.2-2.6,5.4-4.5c0.3-0.5,0.6-1.1,0.8-1.8c0.6-1.3,1.2-2.8,2.5-3.9
		c1.3-1.1,3-1.5,4.8-1.2c2.3,0.4,4.5,1.9,5.7,4c1.8,3,1.9,6.5,2,9.7l0,0.6c0.1,3.1,0.5,6.3,2.3,8.3c0.5,0.6,1.2,1.1,1.9,1.7
		c1.3,1,2.7,2.1,3.5,3.9c1.3,3,0,5.9-1.1,8.5c-0.6,1.5-1.2,2.9-1.4,4.2c-0.3,2.3,0.7,4.6,1.7,7c0.9,2.1,1.8,4.3,2,6.7l0,0
		c0.6,7.6-6.6,14-11.3,18.2C81.7,145.9,79.1,147,76.2,147z M77.6,74c-0.5,0-1.1,0.1-1.7,0.6c-0.7,0.6-1.2,1.6-1.6,2.7
		c-0.3,0.7-0.6,1.4-1,2.1c-1.5,2.6-4,4.1-6.4,5.6c-2.3,1.4-4.5,2.7-5.5,4.9c-1,2.2-0.7,4.8-0.3,7.5c0.3,2.1,0.6,4.2,0.3,6.3
		c-0.3,2.5-1.3,4.8-2.2,7c-1.3,3.1-2.6,6.1-1.6,8.8c0.3,0.9,0.9,1.7,1.5,2.5c0.7,1,1.4,2,1.8,3.2c0.7,1.9,0.7,3.8,0.7,5.6
		c0,1.6,0,3.2,0.5,4.5c0.7,1.8,2.5,3.2,4.2,4.4c6.7,4.8,11.7,5.3,15.7,1.7c4.3-3.8,10.7-9.6,10.3-15.7l0,0c-0.1-1.9-0.9-3.8-1.7-5.8
		c-1.1-2.7-2.3-5.5-1.9-8.6c0.2-1.8,0.9-3.5,1.6-5.1c1-2.3,1.8-4.3,1.1-6c-0.5-1.1-1.4-1.8-2.6-2.7c-0.8-0.6-1.6-1.3-2.3-2.1
		c-2.4-2.8-2.9-6.6-3.1-10.2l0-0.6c-0.1-2.9-0.2-5.9-1.6-8.2c-0.7-1.3-2.2-2.3-3.5-2.5C78,74,77.8,74,77.6,74z"/>
	<path class="st3" d="M72.5,122.1c-0.7,0-1.3,0.6-0.9,1.4c6,11.2,4,24.7,3.4,36.9c-0.7,13.4-1.3,26.7-2,40.1c0,0.7,0.5,1,1,1
		c0.5,0,0.9-0.3,0.9-0.9c0.7-14.6,1.5-29.3,2.2-43.9c0.6-11.5,1.9-23.6-3.7-34.1C73.1,122.3,72.8,122.1,72.5,122.1L72.5,122.1z"/>
</g>
<path class="st1" d="M426,168.9c0,0,18.3-5.1,18.5,6.5c0,0,9.6-14.6,27.9-13.4c18.4,1.2,13.4,20.8,13.4,20.8s3.1-8.4,11.1-7
	c8,1.4,8.3,9.9,8.3,9.9s19-2.8,17.7,9H368.6C368.6,194.8,385.9,136.7,426,168.9z"/>
<path class="st3" d="M530.7,199.3H373.1l0.6-1.9c0.4-1.2,9-29.4,28.5-35.5c9.5-3,19.8-0.1,30.7,8.5c2.6-0.6,11.5-2.4,16.4,1.2
	c1.2,0.9,2.1,2.1,2.6,3.5c3.8-4.3,12.9-12.3,27.2-11.4c5.6,0.4,9.7,2.4,12.3,6c2.4,3.3,3,7.4,3,10.6c2.2-2,5.2-3.5,9.2-2.8
	c6.2,1.1,8.7,6.2,9.3,9.7c3.3-0.3,11.4-0.5,15.5,3.4c1.9,1.9,2.7,4.3,2.4,7.4L530.7,199.3z M377.1,196.4H528
	c-0.1-1.5-0.6-2.7-1.6-3.7c-3.4-3.3-11.6-2.9-14.5-2.5l-1.6,0.2l-0.1-1.6c0-0.3-0.4-7.3-7.1-8.5c-6.7-1.2-9.3,5.8-9.4,6.1l-2.8-0.9
	c0-0.1,2.1-8.7-1.9-14.2c-2.1-2.9-5.5-4.5-10.2-4.8c-17.3-1.2-26.5,12.6-26.6,12.7l-2.6,3.9l-0.1-4.7c0-2.1-0.7-3.6-2.1-4.6
	c-3.7-2.8-11.8-1.4-14.6-0.6l-0.7,0.2l-0.6-0.5c-10.3-8.3-19.9-11.1-28.6-8.4C387.8,169.5,379.4,190,377.1,196.4z"/>
<g>
	<path class="st1" d="M124.5,216c0,0,6-12.4-17.3-10.5c0,0,0.2-8.6-6-5.2c0,0,1.5-20.4-15.1-2.1c0,0-0.3-24.5-11.3-22.1
		c-11,2.4-9.6,23.1-9.6,23.1s-4.4-9.3-7.1-6.9c-2.7,2.4,0,11.1,0,11.1s-1.5-2.6-3.6-4.4c-2.3-1.9-9.6-0.9-3,10.7l6.4,10.5
		c0,0,19.8-0.2,20.6-0.4C79.3,219.5,124.5,216,124.5,216z"/>
	<path class="st3" d="M61.3,225.4l-6.8-11.2c-4.6-8.1-2.7-11.5-1.2-12.8c1.9-1.6,4.8-1.3,6.4,0c-0.2-2.5,0.1-5.2,1.6-6.6
		c0.7-0.7,1.7-0.9,2.6-0.7c1.4,0.3,2.8,1.6,4,3.2c0.4-6.7,2.4-17.2,10.8-19c2.4-0.5,4.5,0,6.4,1.4c4.7,3.7,6.1,13.3,6.6,18.6
		c4.8-4.7,8.5-6.4,11.3-5.2c3.2,1.4,3.8,5.8,4,8.7c1.2-0.2,2.2-0.1,3.2,0.5c1.9,1.1,2.5,3.6,2.7,5.3c8.7-0.5,14.4,1,16.8,4.6
		c2.5,3.7,0.5,8,0.4,8.2l-0.4,0.8l-0.9,0.1c-17.6,1.4-44.4,3.4-45.8,3.7v0c-0.6,0.1-3.2,0.3-20.9,0.4L61.3,225.4z M56.5,203.5
		c-0.4,0-0.9,0.1-1.2,0.4c-1,0.8-1.1,3.6,1.9,8.8l5.9,9.7c7.3-0.1,18.4-0.2,19.4-0.4l0,0c1.7-0.3,16.9-1.5,45.1-3.7
		c0.3-1,0.6-2.8-0.5-4.3c-1.3-1.9-5.1-4-15.6-3.1l-1.7,0.1l0-1.7c0-1.4-0.4-3.7-1.3-4.3c-0.6-0.4-1.6,0-2.4,0.5l-2.5,1.4l0.2-2.8
		c0.2-2.2-0.1-7.1-2-7.9c-0.7-0.3-3.4-0.6-10.3,7l-2.7,2.9l-0.1-4c-0.1-4.3-1.2-16.3-5.6-19.8c-1.1-0.9-2.3-1.1-3.8-0.8
		c-9.6,2.1-8.4,21.3-8.4,21.5l0.6,8.2l-3.5-7.4c-1.5-3.1-3.7-6.2-4.6-6.4c-1.2,1.2-0.5,6.3,0.5,9.5l3.8,12.3l-6.6-11
		c0,0-1.4-2.4-3.3-4.1C57.5,203.6,57,203.5,56.5,203.5z"/>
</g>
<g>
	<path class="st2" d="M435.2,253.4c0,0-5.7-10.8,15-9.8c0,0-0.4-7.6,5.2-4.8c0,0-2-18,13.2-2.3c0,0-0.4-21.7,9.3-19.9
		c9.8,1.8,9.1,20.1,9.1,20.1s3.6-8.4,6-6.3c2.4,2.1,0.3,9.8,0.3,9.8s1.3-2.3,3.1-4c1.9-1.8,8.4-1.1,2.9,9.4l-5.3,9.4
		c0,0-17.5,0.4-18.2,0.3C475.2,255.1,435.2,253.4,435.2,253.4z"/>
	<path class="st3" d="M480.3,260.1c-1.7,0-2.2,0-2.4-0.1v0c-1.3-0.2-24.9-1.2-40.5-1.9l-0.9,0l-0.4-0.8c-0.1-0.2-2.1-4,0.1-7.4
		c2.1-3.3,7-4.8,14.7-4.6c0.2-1.5,0.7-3.7,2.3-4.7c0.6-0.4,1.5-0.7,2.7-0.6c0-2.6,0.6-6.4,3.3-7.7c2.5-1.2,5.7,0.1,10.1,4
		c0.3-4.8,1.3-12.9,5.3-16.3c1.6-1.4,3.6-1.9,5.7-1.5c7.3,1.3,9.5,10.2,10.2,16.1c1-1.3,2.1-2.4,3.2-2.6c0.9-0.2,1.8,0,2.5,0.6
		c1.4,1.2,1.8,3.4,1.7,5.5c1.5-1,3.8-1.3,5.6,0c1.8,1.4,3.1,4.5-0.6,11.5l-5.8,10.2l-0.9,0C487.3,260,482.7,260.1,480.3,260.1z
		 M478.4,257c1,0.1,10.6-0.1,17-0.3l4.9-8.7c2.4-4.5,2.2-6.9,1.4-7.5c-0.6-0.4-1.6-0.3-1.9,0.1c-1.6,1.5-2.7,3.6-2.8,3.6l-6.2,11.3
		l3.3-12.4c0.8-3.1,1.1-7.1,0.3-8.1c-0.8,0.4-2.6,3.1-3.7,5.7l-3.3,7.5l0.3-8.2c0-0.2,0.5-17-7.9-18.5c-1.2-0.2-2.2,0-3.2,0.8
		c-3.8,3.2-4.4,13.7-4.3,17.5l0.1,4l-2.7-2.8c-6.2-6.5-8.5-6.1-9.1-5.8c-1.5,0.7-1.7,4.8-1.5,6.9l0.3,2.8l-2.6-1.3
		c-0.5-0.3-1.5-0.7-2-0.3c-0.7,0.5-1,2.5-1,3.7l0.1,1.7l-1.7-0.1c-9.7-0.5-12.6,1.8-13.5,3.2c-0.8,1.2-0.6,2.7-0.3,3.5
		C473.1,256.6,477.6,256.9,478.4,257L478.4,257z"/>
</g>
</svg>
