<?xml version="1.0" encoding="utf-8"?>
<!-- Generator: Adobe Illustrator 24.0.1, SVG Export Plug-In . SVG Version: 6.00 Build 0)  -->
<svg width="453" height="443" viewBox="0 0 453 443" fill="none" xmlns="http://www.w3.org/2000/svg">
<style type="text/css">
	.st0{fill:#2CBEFF;}
	.st1{fill:#FDD24A;}
	.st2{fill:#16B8E2;}
	.st3{fill:#142C82;}
	.st4{fill:#DAEEF7;}
	.st5{fill:#FF5B7E;}
	.st6{opacity:0.3;fill:#E87B50;enable-background:new    ;}
	.st7{fill:#222323;}
	.st8{fill:#333333;}
	.st9{fill:#FFC0BB;}
	.st10{fill:#E2FAFA;}
	.st11{fill:#FEB546;}
	.st12{fill:#FFFFFF;}
	.st13{opacity:0.5;fill:#142C82;enable-background:new    ;}
	.st14{opacity:0.55;}
	.st15{fill:#EF3D30;}
	.st16{fill:#6B184E;}
	.st17{fill:#FFB640;}
	.st18{fill:none;stroke:#142C82;stroke-width:3.1082;stroke-miterlimit:10;}
	.st19{fill:none;stroke:#142C82;stroke-width:3.1419;stroke-miterlimit:10;}
	.st20{opacity:0.5;fill:none;stroke:#142C82;stroke-width:3.1418;stroke-miterlimit:9.9998;enable-background:new    ;}
	.st21{fill:none;stroke:#142C82;stroke-width:3.1419;stroke-miterlimit:10.0003;}
	.st22{opacity:0.5;fill:none;stroke:#142C82;stroke-width:3.1419;stroke-miterlimit:10.0002;enable-background:new    ;}
	.st23{fill:none;stroke:#142C82;stroke-width:3.142;stroke-miterlimit:10.0003;}
	.st24{fill:none;stroke:#142C82;stroke-width:3.1419;stroke-linecap:round;stroke-linejoin:round;stroke-miterlimit:10;}
	.st25{opacity:0.5;fill:none;stroke:#142C82;stroke-width:3.1419;stroke-miterlimit:10.0003;enable-background:new    ;}
	.st26{fill:none;stroke:#142C82;stroke-width:3.1419;stroke-miterlimit:10.0001;}
	.st27{fill:none;stroke:#142C82;stroke-width:3.1417;stroke-miterlimit:9.9996;}
</style>
<rect x="512.8" y="96" class="st2" width="28.7" height="4"/>
<path class="st2" d="M513.9,100h-7.4v-4h7.4C513.9,96,513.9,100,513.9,100z M502.2,100h-7.4v-4h7.4V100z M490.6,100h-7.4v-4h7.4V100
	z M478.9,100h-7.4v-4h7.4V100z M467.3,100h-7.4v-4h7.4V100z M455.6,100h-7.4v-4h7.4V100z"/>
<path class="st2" d="M212.7,28.3h-7.4v-4h7.4V28.3z M201,28.3h-7.4v-4h7.4V28.3z M189.3,28.3h-7.4v-4h7.4V28.3z"/>
<path class="st2" d="M58.8,118.2h-7.4v-4h7.4V118.2z M47.1,118.2h-7.4v-4h7.4V118.2z M35.5,118.2h-7.4v-4h7.4V118.2z"/>
<g>
	<g>
		<path class="st3" d="M73.1,238.4c-12.6,0-22.9-10.3-22.9-22.9v-45.8c0-12.6,10.3-22.9,22.9-22.9c12.6,0,22.9,10.3,22.9,22.9v45.8
			C96.1,228.1,85.8,238.4,73.1,238.4z M73.1,149.9c-10.9,0-19.8,8.9-19.8,19.8v45.8c0,10.9,8.9,19.8,19.8,19.8
			c10.9,0,19.8-8.9,19.8-19.8v-45.8C92.9,158.8,84.1,149.9,73.1,149.9z"/>
		<path class="st13" d="M73.2,184c-1.1,0-2.2-0.1-3.3-0.4C62,181.8,57.2,174,59,166.2c1.8-7.8,9.7-12.7,17.5-10.8
			c7.8,1.8,12.7,9.7,10.8,17.5C85.8,179.5,79.8,184,73.2,184z M73.2,158.1c-5.2,0-9.9,3.6-11.1,8.8c-1.4,6.1,2.4,12.3,8.5,13.7
			c6.1,1.4,12.3-2.4,13.7-8.5c1.4-6.1-2.4-12.3-8.5-13.7C74.9,158.2,74,158.1,73.2,158.1z"/>
		<path class="st3" d="M73.1,180.1c-0.8,0-1.6-0.1-2.4-0.3c-5.7-1.3-9.2-7-7.9-12.7c0.6-2.8,2.3-5.1,4.7-6.6c2.4-1.5,5.2-2,8-1.3
			c2.8,0.6,5.1,2.3,6.6,4.7c1.5,2.4,2,5.2,1.3,8C82.3,176.8,77.9,180.1,73.1,180.1z M73.1,162.1c-1.4,0-2.7,0.4-3.9,1.1
			c-1.7,1-2.9,2.7-3.3,4.6l0,0c-0.9,4,1.5,8,5.5,8.9c4,0.9,8-1.5,8.9-5.5c0.5-1.9,0.1-3.9-0.9-5.6s-2.7-2.9-4.6-3.3
			C74.3,162.1,73.7,162.1,73.1,162.1z"/>
		<path class="st13" d="M73.2,223.6c-1.8,0-3.7-0.3-5.5-0.8c-4.7-1.5-8.5-4.6-10.8-9s-2.7-9.3-1.3-14c3-9.6,13.3-15.1,22.9-12.1
			c9.6,3,15.1,13.3,12.1,22.9c-1.5,4.7-4.6,8.5-9,10.8C79,222.9,76.1,223.6,73.2,223.6z M73.2,190.1c-6.5,0-12.5,4.2-14.5,10.7
			c-1.2,3.9-0.8,8,1.1,11.6c1.9,3.6,5.1,6.2,8.9,7.4c3.9,1.2,8,0.8,11.6-1.1c3.6-1.9,6.2-5.1,7.4-8.9c2.5-8-2-16.5-10-19
			C76.2,190.3,74.7,190.1,73.2,190.1z"/>
		<path class="st3" d="M73.1,218.5c-3.3,0-6.5-1.2-9-3.5c-2.6-2.4-4.1-5.7-4.2-9.2c-0.3-7.3,5.4-13.4,12.7-13.7
			c7.3-0.2,13.4,5.4,13.7,12.7c0.1,3.5-1.1,6.9-3.5,9.5c-2.4,2.6-5.7,4.1-9.2,4.2C73.5,218.5,73.3,218.5,73.1,218.5z M72.7,193.7
			l0.1,1.6c-5.5,0.2-9.9,4.9-9.7,10.4c0.1,2.7,1.2,5.2,3.2,7c2,1.8,4.5,2.8,7.2,2.7c2.7-0.1,5.2-1.2,7-3.2c1.8-2,2.8-4.5,2.7-7.2
			c-0.1-2.7-1.2-5.2-3.2-7c-2-1.8-4.5-2.8-7.2-2.7L72.7,193.7z"/>
	</g>
	<path class="st2" d="M114,261.4c0,0,7.9-16.1-22.5-13.6c0,0,0.2-11.2-7.9-6.8c0,0,2-26.6-19.6-2.7c0,0-0.4-31.9-14.7-28.8
		C35.1,212.6,37,239.5,37,239.5s-5.8-12.1-9.2-9c-3.5,3.1,0,14.5,0,14.5s-2-3.4-4.7-5.8c-2.9-2.5-12.5-1.2-3.9,13.9l8.3,13.6
		c0,0,26.2,6.4,27.2,6.1C55.7,272.5,114,261.4,114,261.4z"/>
	<path class="st3" d="M361.6,321.4c-0.1,0-0.2,0-0.3,0c-0.4-0.1-0.8-0.4-1-0.8l-2.2-4c-0.2-0.4-0.3-0.9-0.1-1.4l9.1-21.8
		c0.2-0.5,0.7-0.9,1.3-1c0.6-0.1,1.1,0.2,1.5,0.6l4.5,6.1c0.3,0.5,0.4,1.1,0.2,1.6l-7.4,16.9c-0.1,0.3-0.3,0.5-0.5,0.6l-4,2.8
		C362.2,321.3,361.9,321.4,361.6,321.4z M361.1,315.8l1,1.8l2.2-1.6l6.9-15.6l-2.3-3.1L361.1,315.8z"/>
	<g>
		<path class="st1" d="M344.8,325.9l22.8,0.1c0.4,0,0.7-0.3,0.7-0.7v-0.9c0-0.4-0.3-0.7-0.7-0.7l-22.8-0.1c-0.4,0-0.7,0.3-0.7,0.7
			v0.9C344.1,325.6,344.4,325.9,344.8,325.9z"/>
		<path class="st1" d="M367.3,316.1l0.7,6.8c0.1,0.8-0.4,1.6-0.9,1.6l-21.5-0.1c-0.5,0-1.2-0.3-1.4-1c-0.3-0.6-0.3-1.7,0.6-3
			c1.9-2.7,8.3-3.4,11.3-5.7h9.9C366.7,314.8,367.2,315.4,367.3,316.1z"/>
		<g>
			<path class="st1" d="M357.7,318.7L357.7,318.7c0.1-0.1,0.2-0.3,0.1-0.5c-0.4-0.9-1.7-3.2-4.4-2.7c-0.1,0-0.2,0.2-0.2,0.4l0,0
				c0,0.2,0.2,0.3,0.3,0.3c2.4-0.4,3.6,1.6,3.9,2.4C357.4,318.7,357.6,318.8,357.7,318.7z"/>
		</g>
		<g>
			<path class="st1" d="M355.5,319.5L355.5,319.5c0.1-0.1,0.2-0.3,0.1-0.5c-0.4-0.9-1.7-3.2-4.4-2.7c-0.1,0-0.2,0.2-0.2,0.4l0,0
				c0,0.2,0.2,0.3,0.3,0.3c2.4-0.4,3.6,1.6,3.9,2.4C355.2,319.5,355.3,319.7,355.5,319.5z"/>
		</g>
		<g>
			<path class="st1" d="M353.4,320.4L353.4,320.4c0.1-0.1,0.2-0.3,0.1-0.5c-0.4-0.9-1.7-3.2-4.4-2.7c-0.1,0-0.2,0.2-0.2,0.4l0,0
				c0,0.2,0.2,0.3,0.3,0.3c2.4-0.4,3.6,1.6,3.9,2.4C353.1,320.4,353.3,320.5,353.4,320.4z"/>
		</g>
	</g>
	<path class="st3" d="M344,324.7c-0.1,0-0.2,0-0.4,0c-0.4-0.1-0.8-0.4-1-0.8l-2.5-4.7c-0.2-0.4-0.2-0.9-0.1-1.3l10.6-25.3
		c0.2-0.5,0.7-0.9,1.3-1c0.6-0.1,1.1,0.2,1.5,0.6l5.3,7.1c0.3,0.5,0.4,1.1,0.2,1.6l-8.7,19.6c-0.1,0.3-0.3,0.5-0.5,0.6l-4.7,3.4
		C344.6,324.6,344.3,324.7,344,324.7z M343.2,318.3l1.3,2.5l2.9-2.1l8.1-18.3l-3.1-4.2L343.2,318.3z"/>
	<g>
		<path class="st1" d="M328.8,326.7l22.8,0.1c0.4,0,0.7-0.3,0.7-0.7v-0.9c0-0.4-0.3-0.7-0.7-0.7l-22.8-0.1c-0.4,0-0.7,0.3-0.7,0.7
			v0.9C328,326.4,328.5,326.7,328.8,326.7z"/>
		<path class="st1" d="M351.3,316.8l0.7,6.8c0.1,0.8-0.4,1.6-0.9,1.6l-21.5-0.1c-0.5,0-1.2-0.3-1.4-1c-0.3-0.6-0.3-1.7,0.6-3
			c1.9-2.7,8.3-3.4,11.3-5.7h9.9C350.8,315.6,351.3,316.1,351.3,316.8z"/>
		<g>
			<path class="st1" d="M341.8,319.4L341.8,319.4c0.1-0.1,0.2-0.3,0.1-0.5c-0.4-0.9-1.7-3.2-4.4-2.7c-0.1,0-0.2,0.2-0.2,0.4l0,0
				c0,0.2,0.2,0.3,0.3,0.3c2.4-0.4,3.6,1.6,3.9,2.4C341.5,319.4,341.6,319.5,341.8,319.4z"/>
		</g>
		<g>
			<path class="st1" d="M339.5,320.3L339.5,320.3c0.1-0.1,0.2-0.3,0.1-0.5c-0.4-0.9-1.7-3.2-4.4-2.7c-0.1,0-0.2,0.2-0.2,0.4l0,0
				c0,0.2,0.2,0.3,0.3,0.3c2.4-0.4,3.6,1.6,3.9,2.4C339.3,320.4,339.4,320.4,339.5,320.3z"/>
		</g>
		<g>
			<path class="st1" d="M337.5,321.1L337.5,321.1c0.1-0.1,0.2-0.3,0.1-0.5c-0.4-0.9-1.7-3.2-4.4-2.7c-0.1,0-0.2,0.2-0.2,0.4l0,0
				c0,0.2,0.2,0.3,0.3,0.3c2.4-0.4,3.6,1.6,3.9,2.4C337.2,321.1,337.3,321.2,337.5,321.1z"/>
		</g>
	</g>
	<rect x="107.6" y="63" class="st2" width="330.1" height="177.6"/>
	<path class="st3" d="M434.2,239h-333V56.9h333V239z M104.3,235.9h326.8V60H104.3V235.9z"/>
	<path class="st3" d="M162.6,265.7c0,0,12.8-11.3,22.6,9.6l11.1,22.4c0,0-7.7,5.2-12.4,6.9l-8.2-12.3c0,0-6.9,39.3-45.5,36.7
		s-8.7-48.9-8.7-48.9l17.5,13.1l8.7,3.4C147.7,296.6,154.2,274.9,162.6,265.7z"/>
	<path class="st3" d="M151.9,241.2l-13.6-4.2l1.2-11.2l-1.9-15.3l3.7-8.1l19.5,3.4l0.3,1c0.4,1.7,4.2,16.3,0.9,21.2
		c-0.7,1-1.7,1.7-2.9,1.8c-3.3,0.5-5.5,0.6-6.8,0.7L151.9,241.2z M141.8,234.8l7.2,2.2l0.3-9.7l1.6,0.1c0,0,2.2,0.1,7.9-0.7
		c0.2,0,0.5-0.1,0.7-0.5c1.8-2.6,0.3-11.8-1.1-17.7l-15.1-2.7l-2.3,5.1l1.9,14.8L141.8,234.8z"/>
	<path class="st1" d="M134.5,232.7c2.6-0.6,5.4-0.5,8.1,0.3c4.2,1.3,13.6,4.4,15.8,6.6c2.8,2.8,7.4,22.5,10.4,26.1
		s19.9,9.6,19.9,9.6s1.8,4.8,0,7.6c0,0-22,1.8-34.4-11.8c0,0-4,21.5-3.2,32.9c0,0-19.7,14.8-40.6,5
		C110.5,309.1,109.4,239,134.5,232.7z"/>
	<path class="st3" d="M159.1,198.5c-2.5-1.3-7-1.9-12.8-1.2c-4,0.5-8.6,0.7-10.5,4.2c-1.9,3.5-4.7,9,0,19.3c0.4,0.8,0.7,1.5,1.2,2
		c3.6,7.3,8.9,4.1,12,4.1c1.4,0,2.3-1.4,2.8-3c-1.4-0.2-2.6-1.5-2.8-3.2c-0.2-2,0.8-3.7,2.5-3.9c0.8-0.1,1.6,0.2,2.2,0.8
		c3.9-2.1,4.1-7.5,3.8-10.6l0,0c0,0,5.3,1.5,5.8-1.6C163.7,202.5,161.5,199.7,159.1,198.5z"/>
	<path class="st3" d="M121.1,312.5c-5,0-10.3-1-15.8-3.5l-6.4-3h5.6c0.2-21.8,3.2-70.8,25.3-76.3l0,0c2.9-0.7,6-0.6,8.9,0.3
		c2.2,0.7,13.7,4.2,16.4,7c1.6,1.6,3.2,6.2,5.6,13.7c1.7,5.1,3.6,11,4.8,12.5c1.9,2.3,12.8,6.9,19.2,9.2l0.7,0.2l0.3,0.7
		c0.2,0.6,2,5.6-0.1,9l-0.4,0.7l-0.8,0.1c-0.9,0.1-20.5,1.5-33.4-10.2c-1,6.3-3.3,20.9-2.7,29.5l0.1,0.8l-0.7,0.5
		C146.9,304.3,135.7,312.5,121.1,312.5z M107.5,306.6c17.4,7.5,33.9-2.5,37.4-4.8c-0.5-11.6,3.2-31.5,3.3-32.4l0.6-3.1l2.1,2.3
		c10.3,11.4,28,11.5,32.2,11.4c0.5-1.5,0.1-3.6-0.2-4.9c-3.6-1.3-17-6.4-19.9-9.9c-1.5-1.8-3.1-6.3-5.4-13.5
		c-1.6-5-3.7-11.3-4.9-12.5c-1.6-1.6-8.8-4.3-15.2-6.2c-2.3-0.8-4.9-0.9-7.2-0.3C113.9,236.9,107.8,273.6,107.5,306.6z"/>
	<path class="st3" d="M373,276c0,0-12.8-11.3-22.6,9.6L339.3,308c0,0,7.7,5.2,12.4,6.9l8.2-12.3c0,0,6.9,39.3,45.5,36.7
		c38.5-2.6,8.7-48.9,8.7-48.9l-17.5,13.1l-8.7,3.4C387.7,306.9,381.4,285.2,373,276z"/>
	<path class="st3" d="M383.5,251.5l-0.3-10.7c-1.3-0.1-3.5-0.2-6.9-0.7c-1.2-0.1-2.2-0.8-2.9-1.8c-3.3-4.9,0.5-19.5,0.9-21.2l0.3-1
		l19.5-3.4l3.7,8.1l-1.9,15.3l1.2,11.2L383.5,251.5z M386.2,237.6l0.3,9.7l7.2-2.2l-0.9-9l1.9-14.8l-2.3-5.1l-15.1,2.7
		c-1.5,5.8-2.9,15-1.1,17.7c0.2,0.4,0.5,0.4,0.7,0.5c5.7,0.8,7.9,0.7,7.9,0.7L386.2,237.6z"/>
	<path class="st2" d="M401,243c-2.6-0.6-5.4-0.5-8.1,0.3c-4.2,1.3-13.6,4.4-15.8,6.6c-2.8,2.8-7.4,22.5-10.4,26.1
		s-19.9,9.6-19.9,9.6s-1.8,4.8,0,7.6c0,0,22,1.8,34.4-11.8c0,0,4,21.5,3.2,32.9c0,0,19.7,14.8,40.6,5C425,319.3,426.2,249.3,401,243
		z"/>
	<path class="st3" d="M376.4,208.7c2.5-1.3,7-1.9,12.8-1.2c4,0.5,8.6,0.7,10.5,4.2c1.9,3.5,4.7,9,0,19.3c-0.4,0.8-0.7,1.5-1.2,2
		c-3.6,7.3-8.9,4.1-12,4.1c-1.4,0-2.3-1.4-2.8-3c1.4-0.2,2.6-1.5,2.8-3.2c0.2-2-0.8-3.7-2.5-3.9c-0.8-0.1-1.6,0.2-2.2,0.8
		c-3.9-2.1-4.1-7.5-3.8-10.6l0,0c0,0-5.3,1.5-5.8-1.6C371.7,212.7,373.9,210,376.4,208.7z"/>
	<path class="st3" d="M414.4,322.8c-14.6,0-25.8-8.2-26.4-8.7l-0.7-0.5l0.1-0.8c0.6-8.6-1.7-23.3-2.7-29.5
		c-12.9,11.7-32.6,10.2-33.4,10.2l-0.8-0.1l-0.4-0.7c-2.1-3.4-0.4-8.5-0.1-9l0.3-0.7l0.7-0.2c6.4-2.3,17.3-6.8,19.2-9.2
		c1.3-1.5,3.2-7.3,4.8-12.5c2.4-7.5,4-12.1,5.6-13.7c2.8-2.8,14.2-6.3,16.5-7c2.9-0.9,6-1,8.9-0.3l0,0c22.1,5.5,25.1,54.5,25.3,76.3
		h5.6l-6.4,3C424.7,321.8,419.3,322.8,414.4,322.8z M390.5,312.1c3.5,2.3,20,12.3,37.4,4.8c-0.3-33-6.4-69.7-22.9-73.8
		c-2.3-0.6-4.9-0.5-7.2,0.3c-6.4,1.9-13.6,4.7-15.2,6.2c-1.2,1.2-3.2,7.4-4.9,12.5c-2.3,7.2-3.9,11.7-5.4,13.5
		c-2.9,3.5-16.2,8.5-19.9,9.9c-0.4,1.3-0.7,3.4-0.2,4.9c4.2,0.1,21.9,0,32.2-11.4l2.1-2.3l0.6,3.1
		C387.4,280.5,391,300.4,390.5,312.1z"/>
	<path class="st3" d="M238.4,311.9c-0.3,0-0.7-0.1-0.9-0.3l-3.9-2.8c-0.2-0.2-0.4-0.4-0.5-0.6l-7.5-16.9c-0.2-0.5-0.2-1.1,0.2-1.6
		l4.5-6.1c0.3-0.5,0.9-0.7,1.4-0.6c0.6,0.1,1,0.4,1.3,0.9l9.2,21.8c0.2,0.5,0.2,1-0.1,1.4l-2.3,4c-0.2,0.4-0.6,0.7-1,0.8
		C238.6,311.9,238.5,311.9,238.4,311.9z M235.8,306.5l2.1,1.6l1-1.8l-7.8-18.5l-2.3,3.1L235.8,306.5z"/>
	<g>
		<path class="st1" d="M255.2,316.4l-22.8,0.1c-0.4,0-0.7-0.3-0.7-0.7v-0.9c0-0.4,0.3-0.7,0.7-0.7l22.8-0.1c0.4,0,0.7,0.3,0.7,0.7
			v0.9C255.9,316.1,255.6,316.4,255.2,316.4z"/>
		<path class="st1" d="M232.6,306.6l-0.7,6.8c-0.1,0.8,0.4,1.6,0.9,1.6l21.5-0.1c0.5,0,1.2-0.3,1.4-1c0.3-0.6,0.3-1.7-0.6-3
			c-1.9-2.7-8.3-3.4-11.3-5.7h-9.9C233.3,305.3,232.7,305.8,232.6,306.6z"/>
		<g>
			<path class="st1" d="M242.3,309.2L242.3,309.2c-0.1-0.1-0.2-0.3-0.1-0.5c0.4-0.9,1.7-3.2,4.4-2.7c0.1,0,0.2,0.2,0.2,0.4l0,0
				c0,0.2-0.2,0.3-0.3,0.3c-2.4-0.4-3.6,1.6-3.9,2.4C242.6,309.2,242.4,309.3,242.3,309.2z"/>
		</g>
		<g>
			<path class="st1" d="M244.5,310L244.5,310c-0.1-0.1-0.2-0.3-0.1-0.5c0.4-0.9,1.7-3.2,4.4-2.7c0.1,0,0.2,0.2,0.2,0.4l0,0
				c0,0.2-0.2,0.3-0.3,0.3c-2.4-0.4-3.6,1.6-3.9,2.4C244.8,310,244.7,310.1,244.5,310z"/>
		</g>
		<g>
			<path class="st1" d="M246.6,310.9L246.6,310.9c-0.1-0.1-0.2-0.3-0.1-0.5c0.4-0.9,1.7-3.2,4.4-2.7c0.1,0,0.2,0.2,0.2,0.4l0,0
				c0,0.2-0.2,0.3-0.3,0.3c-2.4-0.4-3.6,1.6-3.9,2.4C246.9,310.9,246.8,311,246.6,310.9z"/>
		</g>
	</g>
	<path class="st2" d="M117.4,39.3c-1.2-4.8-5.4-8.5-10.7-8.5c-0.9,0-1.9,0.1-2.7,0.3c-2.5-5.4-8.1-9.2-14.6-9.2
		c-1.7,0-3.2,0.2-4.8,0.7c-3.5-5.8-9.7-9.5-17-9.5c-8.6,0-15.8,5.4-18.6,13c-2-1-4.2-1.7-6.6-1.7c-7.5,0-13.6,6.1-13.6,13.6
		c0,0.4,0,0.8,0.1,1.4h88.5V39.3z"/>
	<path class="st1" d="M495.6,16.9c-2.9,0-5.7,0.5-8.2,1.6c8.5,3.2,14.5,11.5,14.5,21.2s-6,17.9-14.5,21.2c2.5,0.9,5.3,1.6,8.2,1.6
		c12.6,0,22.6-10.2,22.6-22.6C518.3,26.9,508.2,16.9,495.6,16.9z"/>
	<path class="st3" d="M490.8,61.4c-2.8,0-5.8-0.6-8.7-1.7l-3.9-1.5l3.9-1.5c8-3.1,13.4-11,13.4-19.7s-5.4-16.6-13.4-19.7l-3.7-1.4
		l3.6-1.5c2.7-1.1,5.6-1.7,8.8-1.7c6.5,0,12.6,2.5,17.2,7.1c4.6,4.6,7.1,10.7,7,17.3C515,50.5,504.1,61.4,490.8,61.4z M487,57.9
		c1.3,0.3,2.6,0.4,3.8,0.4c11.6,0,21.1-9.4,21.1-21.1c0-5.7-2.1-11-6.1-15c-4-4-9.3-6.2-15-6.2c-1.3,0-2.6,0.1-3.9,0.4
		c7.1,4.3,11.7,12.2,11.7,20.8C498.6,45.6,494.1,53.5,487,57.9z"/>
	<path class="st2" d="M454.7,64.5c0.9-4.1,4.6-7.1,9-7.1c0.8,0,1.6,0.1,2.3,0.3c2.2-4.6,6.9-7.9,12.4-7.9c1.4,0,2.7,0.2,4.1,0.6
		c2.9-4.8,8.3-8.1,14.3-8.1c7.2,0,13.4,4.6,15.8,11c1.7-0.9,3.6-1.5,5.6-1.5c6.4,0,11.5,5.1,11.5,11.5c0,0.4,0,0.7-0.1,1.2h-74.9
		V64.5z"/>
	<g>
		<path class="st3" d="M466.3,238.4c-12.6,0-22.9-10.3-22.9-22.9v-45.8c0-12.6,10.3-22.9,22.9-22.9s22.9,10.3,22.9,22.9v45.8
			c0.1,6.1-2.3,11.8-6.6,16.1C478.3,236,472.5,238.4,466.3,238.4z M466.3,149.9c-10.9,0-19.8,8.9-19.8,19.8v45.8
			c0,10.9,8.9,19.8,19.8,19.8c5.4,0,10.4-2.1,14.1-5.9c3.7-3.7,5.7-8.7,5.7-13.9v-45.8C486.1,158.8,477.2,149.9,466.3,149.9z"/>
		<path class="st13" d="M466.3,184.1c-1.9,0-3.8-0.4-5.6-1.1c-3.6-1.5-6.4-4.3-7.9-7.9c-3.1-7.4,0.5-15.9,7.9-19l0,0
			c3.6-1.5,7.5-1.5,11.1,0c3.6,1.5,6.4,4.3,7.9,7.9c1.5,3.6,1.5,7.5,0,11.1c-1.5,3.6-4.3,6.4-7.9,7.9
			C470.1,183.7,468.2,184.1,466.3,184.1z M466.3,158.1c-1.5,0-3,0.3-4.4,0.9l0,0c-5.8,2.4-8.6,9.1-6.2,14.9c1.2,2.8,3.4,5,6.2,6.2
			c2.8,1.2,5.9,1.2,8.7,0c2.8-1.2,5-3.4,6.2-6.2c1.2-2.8,1.2-5.9,0-8.7c-1.2-2.8-3.4-5-6.2-6.2C469.2,158.4,467.8,158.1,466.3,158.1
			z"/>
		<path class="st3" d="M466.3,180.1c-4.7,0-9-3.1-10.2-7.9c-1.5-5.6,1.9-11.4,7.5-12.9c5.6-1.5,11.4,1.9,12.9,7.5
			c1.5,5.6-1.9,11.4-7.5,12.9C468.1,179.9,467.2,180.1,466.3,180.1z M466.3,162c-0.6,0-1.3,0.1-1.9,0.2c-4,1.1-6.3,5.1-5.3,9.1
			c1.1,4,5.1,6.3,9.1,5.3c4-1.1,6.3-5.1,5.3-9.1C472.6,164.2,469.6,162,466.3,162z"/>
		<path class="st13" d="M466.4,223.6c-1,0-2-0.1-3-0.2c-4.8-0.8-9.1-3.4-11.9-7.4c-2.9-4-4-8.8-3.2-13.7c1.6-10,11.1-16.8,21-15.2
			c4.8,0.8,9.1,3.4,11.9,7.4s4,8.8,3.2,13.7c-0.8,4.8-3.4,9.1-7.4,11.9C473.9,222.4,470.2,223.6,466.4,223.6z M466.4,190.1
			c-7.3,0-13.8,5.3-15,12.8l0,0c-0.6,4,0.3,8,2.7,11.3s5.9,5.5,9.9,6.1c4,0.7,8-0.3,11.3-2.7c3.3-2.4,5.5-5.9,6.1-9.9
			c0.6-4-0.3-8-2.7-11.3s-5.9-5.5-9.9-6.1C468,190.2,467.2,190.1,466.4,190.1z"/>
		<path class="st3" d="M466.3,218.5c-1,0-2-0.1-3-0.4c-3.4-0.8-6.3-2.9-8.2-5.9c-1.9-3-2.4-6.5-1.6-10l0,0c0.8-3.4,2.9-6.3,5.9-8.2
			c3-1.9,6.5-2.4,10-1.6c3.4,0.8,6.3,2.9,8.2,5.9c1.9,3,2.4,6.5,1.6,10C477.8,214.4,472.3,218.5,466.3,218.5z M466.3,195.2
			c-1.8,0-3.7,0.5-5.3,1.5c-2.3,1.4-3.9,3.6-4.5,6.2l0,0c-1.3,5.4,2.1,10.8,7.5,12.1c5.4,1.3,10.8-2.1,12.1-7.5
			c0.6-2.6,0.2-5.3-1.2-7.6c-1.4-2.3-3.6-3.9-6.2-4.5C467.9,195.3,467.1,195.2,466.3,195.2z"/>
	</g>
	<g>
		<path class="st4" d="M205.7,315.3l-18.1,0.1c-0.3,0-0.6-0.2-0.6-0.6V314c0-0.3,0.2-0.6,0.6-0.6l18.1-0.1c0.3,0,0.6,0.2,0.6,0.6
			v0.7C206.3,314.9,206,315.3,205.7,315.3z"/>
		<path class="st5" d="M187.8,307.5l-0.6,5.4c-0.1,0.6,0.3,1.3,0.8,1.3l17-0.1c0.4,0,0.8-0.3,1.2-0.8c0.2-0.5,0.3-1.4-0.5-2.4
			c-1.6-2.1-6.5-2.6-9-4.5h-8C188.3,306.5,187.9,306.9,187.8,307.5z"/>
		<g>
			<path class="st4" d="M195.5,309.5L195.5,309.5c-0.1-0.1-0.2-0.3-0.1-0.4c0.3-0.7,1.4-2.5,3.5-2.2c0.1,0,0.2,0.2,0.2,0.3l0,0
				c0,0.2-0.1,0.3-0.2,0.2c-1.9-0.3-2.8,1.3-3,1.9C195.7,309.5,195.6,309.6,195.5,309.5z"/>
		</g>
		<g>
			<path class="st4" d="M197.2,310.2L197.2,310.2c-0.1-0.1-0.2-0.3-0.1-0.4c0.3-0.7,1.4-2.5,3.5-2.2c0.1,0,0.2,0.2,0.2,0.3l0,0
				c0,0.2-0.1,0.3-0.2,0.2c-1.9-0.3-2.8,1.3-3,1.9C197.5,310.2,197.3,310.3,197.2,310.2z"/>
		</g>
		<g>
			<path class="st4" d="M198.9,310.9L198.9,310.9c-0.1-0.1-0.2-0.3-0.1-0.4c0.3-0.7,1.4-2.5,3.5-2.2c0.1,0,0.2,0.2,0.2,0.3l0,0
				c0,0.2-0.1,0.3-0.2,0.2c-1.9-0.3-2.8,1.3-3,1.9C199.1,310.9,199,311,198.9,310.9z"/>
		</g>
		<path class="st6" d="M192.5,314.1c-1.4-4.4-3.7-4.8-4.9-4.7l-0.4,3.5c-0.1,0.6,0.3,1.3,0.8,1.3H192.5z"/>
	</g>
	<path class="st3" d="M256,315.1c-0.3,0-0.7-0.1-0.9-0.3l-4.6-3.4c-0.2-0.2-0.4-0.4-0.5-0.6l-8.8-19.6c-0.2-0.5-0.2-1.1,0.2-1.6
		l5.3-7.1c0.3-0.5,0.9-0.7,1.5-0.6c0.6,0.1,1,0.4,1.3,1l10.6,25.4c0.2,0.4,0.2,0.9-0.1,1.4l-2.5,4.6c-0.2,0.4-0.6,0.7-1,0.8
		C256.2,315.1,256.1,315.1,256,315.1z M252.7,309.2l2.8,2.1l1.3-2.4l-9.2-22.2l-3.1,4.2L252.7,309.2z"/>
	<g>
		<path class="st1" d="M271.2,317.1l-22.8,0.1c-0.4,0-0.7-0.3-0.7-0.7v-0.9c0-0.4,0.3-0.7,0.7-0.7l22.8-0.1c0.4,0,0.7,0.3,0.7,0.7
			v0.9C271.9,316.8,271.6,317.1,271.2,317.1z"/>
		<path class="st1" d="M248.7,307.3l-0.7,6.8c-0.1,0.8,0.4,1.6,0.9,1.6l21.5-0.1c0.5,0,1.2-0.3,1.4-1c0.3-0.6,0.3-1.7-0.6-3
			c-1.9-2.7-8.3-3.4-11.3-5.7h-9.9C249.2,306,248.8,306.6,248.7,307.3z"/>
		<g>
			<path class="st1" d="M258.3,309.9L258.3,309.9c-0.1-0.1-0.2-0.3-0.1-0.5c0.4-0.9,1.7-3.2,4.4-2.7c0.1,0,0.2,0.2,0.2,0.4l0,0
				c0,0.2-0.2,0.3-0.3,0.3c-2.4-0.4-3.6,1.6-3.9,2.4C258.5,309.9,258.4,310,258.3,309.9z"/>
		</g>
		<g>
			<path class="st1" d="M260.5,310.7L260.5,310.7c-0.1-0.1-0.2-0.3-0.1-0.5c0.4-0.9,1.7-3.2,4.4-2.7c0.1,0,0.2,0.2,0.2,0.4l0,0
				c0,0.2-0.2,0.3-0.3,0.3c-2.4-0.4-3.6,1.6-3.9,2.4C260.7,310.9,260.6,310.9,260.5,310.7z"/>
		</g>
		<g>
			<path class="st1" d="M262.6,311.6L262.6,311.6c-0.1-0.1-0.2-0.3-0.1-0.5c0.4-0.9,1.7-3.2,4.4-2.7c0.1,0,0.2,0.2,0.2,0.4l0,0
				c0,0.2-0.2,0.3-0.3,0.3c-2.4-0.4-3.6,1.6-3.9,2.4C262.8,311.6,262.7,311.7,262.6,311.6z"/>
		</g>
	</g>
	<path class="st3" d="M236.7,294.1l3,6.3c0,0-2.8,2.5-8.2,2.7c-5.3,0.2-0.9-5.8-0.9-5.8L236.7,294.1z"/>
	<path class="st3" d="M253.2,291.7c-0.2,0-0.4,0-0.6-0.1c-6.7-2.9-6.8-3.3-7-4.1c0,0,0-0.1,0-0.1c-0.2-0.7-2-5.1-3.7-9
		c-0.2-0.5-0.2-1.1,0.2-1.5c0.3-0.4,0.8-0.7,1.4-0.7l6.2,0.3c0.1,0,0.3,0,0.4,0.1c0.2,0.1,5,1.6,5.5,7.9c0.1,0.6,0.6,3.7-0.9,6.4
		C254.3,291.4,253.7,291.7,253.2,291.7z M248.4,286.1c0.7,0.4,2.2,1.1,3.9,1.9c0.4-1.6,0.1-3,0.1-3c0-0.1,0-0.1,0-0.2
		c-0.3-3.6-2.5-4.9-3.2-5.2l-3.4-0.2C247.4,283.4,248.1,285.3,248.4,286.1z M248.6,286.6c0,0.1,0,0.1,0,0.1l0,0
		C248.6,286.6,248.6,286.6,248.6,286.6z"/>
	<path class="st3" d="M224.3,267c0,0,12.5-11.1,22.1,9.4l10.9,21.9c0,0-7.6,5.1-12,6.8l-8.1-11.9c0,0-6.7,38.4-44.4,35.8
		s-8.5-47.9-8.5-47.9l17.1,12.8l8.5,3.2C209.8,297.1,216.1,275.9,224.3,267z"/>
	<path class="st3" d="M214,243.1l-13.4-4.1l1.2-10.9l-1.9-15l3.6-8l19.2,3.3l0.3,1c0.4,1.6,4.1,15.9,0.9,20.8
		c-0.7,1-1.7,1.7-2.8,1.8c-3.2,0.5-5.4,0.6-6.7,0.7L214,243.1z M204.1,236.7l7,2.2l0.3-9.5l1.6,0.1c0,0,2.1,0.1,7.7-0.7
		c0.2,0,0.4-0.1,0.6-0.5c1.7-2.6,0.3-11.6-1.1-17.2l-14.8-2.6l-2.2,5L205,228L204.1,236.7z"/>
	<path class="st2" d="M196.8,234.6c2.6-0.6,5.3-0.5,7.9,0.3c4.1,1.3,13.3,4.3,15.4,6.5c2.7,2.8,7.3,22,10.2,25.6s19.5,9.4,19.5,9.4
		s1.7,4.7,0,7.4c0,0-21.5,1.7-33.5-11.6c0,0-3.9,20.9-3.1,32.2c0,0-19.2,14.3-39.7,4.9C173.5,309.3,172.3,240.8,196.8,234.6z"/>
	<path class="st3" d="M183.8,312.6c-4.9,0-10.1-0.9-15.5-3.4l-0.9-0.4l0-1c0-2.8-0.9-69.8,24.6-76.2l0,0c2.9-0.7,5.9-0.6,8.7,0.4
		c5,1.5,13.7,4.5,16,6.9c1.5,1.6,3.1,6.1,5.5,13.4c1.7,5,3.5,10.7,4.7,12.2c1.9,2.3,12.5,6.7,18.8,8.9l0.7,0.2l0.3,0.7
		c0.2,0.6,1.9,5.5-0.1,8.8l-0.4,0.7l-0.8,0.1c-0.9,0.1-20,1.4-32.6-9.9c-1,6.1-3.2,20.4-2.6,28.8l0.1,0.8l-0.7,0.5
		C209,304.6,198.1,312.6,183.8,312.6z M170.5,306.8c17,7.2,33.1-2.4,36.5-4.7c-0.5-11.4,3.1-30.8,3.2-31.6l0.6-3.1l2.1,2.4
		c10,11,27.2,11.3,31.3,11.2c0.4-1.4,0.1-3.5-0.2-4.7c-3.6-1.3-16.7-6.2-19.4-9.7c-1.5-1.8-3-6.2-5.3-13.2
		c-1.6-4.9-3.6-11.1-4.8-12.2c-1.3-1.3-7-3.7-14.7-6.1c-2.3-0.8-4.7-0.8-7-0.3C171.2,240.1,170.5,298.4,170.5,306.8z"/>
	<path class="st3" d="M222,202.1c0,0,3.5-0.9-1-3.1c-4.5-2.2-15.3-3.1-20.5,2.5c0,0-6.1,3.7-8.5,16.8c-2.4,13.1-15.6,25.8-15.8,34.2
		s8.2,16,24.9,9.1c16.8-6.9,17.4-23.2,15.9-28.3c-1.5-5-3-7.3-3-7.3l0,0c0.8-2.5,1-5.8,1-5.8c4-1.5,4.6-6,4.6-9.2
		c3.1,0.4,5.9,0,4-3.2C223.5,207.8,228.3,206.8,222,202.1z"/>
	
		<rect x="251.3" y="105.5" transform="matrix(0.5843 -0.8115 0.8115 0.5843 -13.1907 265.851)" class="st3" width="3.1" height="80.7"/>
	
		<rect x="288.7" y="129.6" transform="matrix(0.586 -0.8103 0.8103 0.586 -7.7169 300.5871)" class="st3" width="3.1" height="56.5"/>
	<path class="st2" d="M432.5,262.1c0,0-7.2-14.8,20.7-12.5c0,0-0.2-10.3,7.2-6.2c0,0-1.9-24.4,18-2.5c0,0,0.3-29.2,13.4-26.4
		s11.4,27.5,11.4,27.5s5.2-11.1,8.4-8.3c3.1,2.8,0,13.3,0,13.3s1.9-3.1,4.3-5.2c2.7-2.3,11.4-1,3.6,12.8l-7.5,12.5
		c0,0-24,5.9-25,5.6C486,272.4,432.5,262.1,432.5,262.1z"/>
</g>
</svg>
