<svg width="20" height="20" viewBox="0 0 20 20" fill="none" xmlns="http://www.w3.org/2000/svg">
<g clip-path="url(#clip0)">
<path d="M19.4846 14.757L16.999 12.2708C16.3358 11.6076 15.1771 11.6064 14.5128 12.2708L14.0983 12.6853L19.0703 17.657L19.4846 17.2427C20.1729 16.5544 20.1706 15.4417 19.4846 14.757Z" fill="white"/>
<path d="M13.2467 13.4913C12.7236 13.8965 11.9775 13.8803 11.4995 13.4013L6.58483 8.48319C6.10581 8.00417 6.08967 7.25745 6.49487 6.73569L1.53429 1.77539C-0.599726 4.26289 -0.516288 8.01104 1.83898 10.3663L9.61643 18.1472C11.8766 20.4072 15.5787 20.707 18.2075 18.4517L13.2467 13.4913Z" fill="white"/>
<path d="M7.71495 2.98403L5.22929 0.497826C4.56609 -0.165376 3.40738 -0.166508 2.74308 0.497826L2.32859 0.912318L7.30061 5.88407L7.71495 5.46969C8.40315 4.78149 8.40088 3.66884 7.71495 2.98403Z" fill="white"/>
</g>
<defs>
<clipPath id="clip0">
<rect width="20" height="20" fill="white"/>
</clipPath>
</defs>
</svg>
