<svg width="71" height="83" viewBox="0 0 71 83" fill="none" xmlns="http://www.w3.org/2000/svg">
<g clip-path="url(#clip0)">
<path d="M35.3111 1.29688C33.8521 1.29687 32.4073 1.58482 31.0594 2.1443C29.7114 2.70377 28.4866 3.52381 27.455 4.55758C26.4233 5.59136 25.6049 6.81863 25.0466 8.16932C24.4883 9.52001 24.2009 10.9677 24.2009 12.4296V16.9312C24.5773 16.5802 25.0254 16.3155 25.5141 16.1555C26.0028 15.9955 26.5204 15.9441 27.031 16.0047V15.4499C27.0311 15.3458 27.0526 15.2427 27.0941 15.1472C27.1357 15.0517 27.1964 14.9658 27.2725 14.8949C27.3487 14.8239 27.4386 14.7694 27.5366 14.7348C27.6347 14.7002 27.7388 14.6862 27.8425 14.6937C32.074 14.9251 36.2686 13.7962 39.815 11.4716C39.9644 11.3739 40.1434 11.3321 40.3205 11.3537C40.4976 11.3754 40.6614 11.459 40.783 11.5898C43.6088 14.6334 43.5919 14.5157 43.5919 14.9131V16.0023C44.0954 15.916 44.6119 15.9458 45.1022 16.0895C45.5925 16.2332 46.0437 16.4869 46.4215 16.8315V12.4299C46.4215 10.9679 46.1341 9.52021 45.5758 8.1695C45.0175 6.81878 44.1991 5.59149 43.1674 4.55769C42.1357 3.52389 40.9109 2.70384 39.5629 2.14434C38.2149 1.58485 36.7702 1.29688 35.3111 1.29688Z" fill="#707487"/>
<path d="M27.6945 12.4298C27.6947 9.78064 28.6376 7.21836 30.3538 5.20319C32.07 3.18802 34.447 1.85202 37.0579 1.43516C35.4711 1.1822 33.8485 1.27708 32.3018 1.71326C30.7552 2.14943 29.3214 2.91652 28.0992 3.96164C26.877 5.00675 25.8956 6.30503 25.2225 7.76695C24.5495 9.22888 24.2009 10.8197 24.2008 12.4296V16.9312C24.5771 16.5802 25.0252 16.3155 25.514 16.1555C26.0027 15.9955 26.5203 15.9441 27.0309 16.0047V15.45C27.0312 15.2652 27.0987 15.0869 27.2209 14.9485C27.3431 14.8101 27.5115 14.7211 27.6945 14.6982V12.4298H27.6945Z" fill="#5B5D6E"/>
<path d="M43.5768 15.5992V21.7213C43.5768 21.7876 43.5735 21.8533 43.5718 21.9193C44.0388 22.014 44.5209 22.0036 44.9833 21.8889C45.4457 21.7742 45.877 21.558 46.2459 21.2559C46.6148 20.9538 46.9121 20.5735 47.1164 20.1422C47.3207 19.711 47.4269 19.2397 47.4273 18.7623C47.4277 18.2849 47.3222 17.8134 47.1186 17.3819C46.915 16.9503 46.6182 16.5695 46.2498 16.2668C45.8814 15.9642 45.4505 15.7473 44.9882 15.6318C44.526 15.5164 44.0439 15.5052 43.5768 15.5992Z" fill="#F0A479"/>
<path d="M46.4263 16.4397C46.0468 16.091 45.5927 15.834 45.0988 15.6883C44.6049 15.5427 44.0842 15.5122 43.5768 15.5993V21.7215C43.5768 21.7878 43.5732 21.8534 43.5718 21.9194C44.08 22.0076 44.6017 21.9777 45.0966 21.832C45.5916 21.6863 46.0465 21.4288 46.4265 21.0792V16.4397L46.4263 16.4397Z" fill="#E59770"/>
<path d="M27.0556 21.729V15.5936C26.5916 15.5286 26.1191 15.5605 25.668 15.6873C25.2169 15.8141 24.7968 16.0331 24.4343 16.3304C24.0717 16.6278 23.7744 16.9971 23.5612 17.4152C23.348 17.8332 23.2234 18.2909 23.1953 18.7596C23.1995 19.237 23.3084 19.7077 23.5144 20.1382C23.7204 20.5687 24.0183 20.9486 24.3872 21.2509C24.756 21.5531 25.1867 21.7704 25.6486 21.8874C26.1106 22.0043 26.5926 22.0179 27.0604 21.9274C27.0588 21.8611 27.0556 21.7951 27.0556 21.729Z" fill="#F0A479"/>
<path d="M27.0556 20.777C26.5908 20.208 26.3375 19.4949 26.3389 18.7595C26.3427 18.0533 26.5967 17.3714 27.0556 16.8354V15.5936C26.5916 15.5286 26.1191 15.5605 25.668 15.6873C25.2169 15.8141 24.7968 16.0331 24.4343 16.3304C24.0717 16.6278 23.7744 16.9971 23.5612 17.4152C23.348 17.8332 23.2234 18.2909 23.1953 18.7596C23.1995 19.237 23.3084 19.7077 23.5144 20.1382C23.7204 20.5687 24.0183 20.9486 24.3872 21.2509C24.756 21.5531 25.1867 21.7704 25.6486 21.8874C26.1106 22.0043 26.5926 22.0179 27.0604 21.9274C27.0588 21.8612 27.0556 21.7953 27.0556 21.729V20.777Z" fill="#E59770"/>
<path d="M35.4294 29.4979C33.7808 29.5165 32.1619 29.0582 30.7668 28.1781V32.7391L35.4093 38.4811L40.0518 32.7391V28.0549C38.6934 28.996 37.0808 29.4994 35.4294 29.4979Z" fill="#F0A479"/>
<path d="M34.2215 29.4194C32.9926 29.2664 31.8128 28.8425 30.7669 28.178V32.739L34.2215 37.0117V29.4194Z" fill="#E59770"/>
<path d="M52.3334 37.1139L40.0517 32.3479L35.4092 38.0899L30.7666 32.3479L18.4979 37.114C17.1472 37.7336 16.0017 38.7277 15.1968 39.9787C14.3918 41.2297 13.9611 42.6855 13.9553 44.174V64.5299C13.9553 64.9322 14.1148 65.318 14.3987 65.6024C14.6826 65.8869 15.0677 66.0467 15.4691 66.0467H55.362C55.7635 66.0467 56.1485 65.8869 56.4324 65.6024C56.7163 65.318 56.8758 64.9322 56.8758 64.5299V44.174C56.8701 42.6855 56.4394 41.2297 55.6344 39.9787C54.8295 38.7276 53.6841 37.7336 52.3334 37.1139Z" fill="#E4EAF8"/>
<path d="M17.4102 64.5298V42.4431C17.3957 41.2818 17.6498 40.133 18.1524 39.0865C18.655 38.04 19.3925 37.1243 20.3073 36.4111L18.498 37.1139C17.1473 37.7335 16.0019 38.7276 15.1969 39.9786C14.392 41.2297 13.9612 42.6854 13.9555 44.1739V64.53C13.9555 64.9322 14.115 65.318 14.3989 65.6025C14.6828 65.8869 15.0678 66.0467 15.4693 66.0467H18.9239C18.5224 66.0466 18.1374 65.8868 17.8535 65.6023C17.5697 65.3179 17.4102 64.9321 17.4102 64.5298Z" fill="#D8DCE5"/>
<path d="M40.783 11.199C40.6614 11.0681 40.4976 10.9845 40.3205 10.9628C40.1434 10.9412 39.9644 10.983 39.815 11.0809C36.2686 13.4054 32.074 14.5343 27.8425 14.3029C27.7388 14.2955 27.6347 14.3095 27.5366 14.3441C27.4386 14.3787 27.3487 14.4332 27.2725 14.5041C27.1964 14.5751 27.1357 14.661 27.0941 14.7565C27.0525 14.8519 27.0311 14.955 27.031 15.0592V21.7099C27.062 23.89 27.948 25.9702 29.4975 27.5009C31.047 29.0316 33.1355 29.8897 35.3114 29.8897C37.4873 29.8897 39.5758 29.0316 41.1253 27.5009C42.6748 25.9702 43.5609 23.89 43.5918 21.7099V14.522C43.5917 14.1248 43.6087 14.2425 40.783 11.199Z" fill="#F0A479"/>
<path d="M30.4911 21.7101V14.2876C29.6098 14.3597 28.7244 14.3648 27.8424 14.3028C27.7387 14.2954 27.6345 14.3094 27.5365 14.344C27.4384 14.3786 27.3485 14.4331 27.2724 14.504C27.1962 14.575 27.1355 14.6609 27.0939 14.7564C27.0524 14.8519 27.0309 14.9549 27.0309 15.0591V21.7098C27.0626 22.9324 27.3605 24.1334 27.9038 25.2286C28.447 26.3238 29.2225 27.287 30.1759 28.0506C31.1294 28.8142 32.2378 29.3599 33.4236 29.6496C34.6095 29.9392 35.8442 29.9658 37.0414 29.7274C35.1947 29.3522 33.5341 28.3493 32.3405 26.8884C31.1468 25.4275 30.4935 23.5982 30.4911 21.7101Z" fill="#E59770"/>
<path d="M41.015 41.0404L44.4866 34.0686L40.0519 32.3477L35.4093 38.0897L39.9356 41.3107C40.0217 41.3721 40.1201 41.414 40.224 41.4337C40.3279 41.4533 40.4348 41.4502 40.5374 41.4245C40.6399 41.3988 40.7357 41.3512 40.8182 41.2849C40.9006 41.2186 40.9678 41.1351 41.015 41.0404Z" fill="#D8DCE5"/>
<path d="M29.8105 41.0404L26.3388 34.0686L30.7735 32.3477L35.4162 38.0897L30.89 41.3107C30.8038 41.3721 30.7054 41.4141 30.6015 41.4337C30.4976 41.4534 30.3907 41.4503 30.2881 41.4246C30.1855 41.3989 30.0897 41.3513 30.0072 41.2849C29.9248 41.2186 29.8577 41.1352 29.8105 41.0404Z" fill="#D8DCE5"/>
<path d="M40.131 60.4148L37.1514 42.7463H33.6739L30.6942 60.4148C30.6778 60.5241 30.6852 60.6357 30.7158 60.7419C30.7464 60.8482 30.7995 60.9465 30.8716 61.0303L34.9852 65.5721C35.0393 65.6319 35.1053 65.6797 35.1789 65.7123C35.2525 65.745 35.3321 65.7619 35.4126 65.7619C35.4931 65.7619 35.5727 65.745 35.6463 65.7123C35.7199 65.6797 35.7859 65.6319 35.8399 65.5721L39.9536 61.0303C40.0257 60.9465 40.0788 60.8482 40.1094 60.7419C40.14 60.6357 40.1474 60.5241 40.131 60.4148Z" fill="#FF5050"/>
<path d="M34.332 61.0304C34.26 60.9466 34.2068 60.8483 34.1762 60.742C34.1456 60.6357 34.1382 60.5241 34.1545 60.4147L37.1341 42.7463H33.6737L30.6941 60.4147C30.6777 60.5241 30.6851 60.6357 30.7157 60.742C30.7463 60.8482 30.7994 60.9466 30.8714 61.0304L34.9851 65.5723C35.0392 65.632 35.1052 65.6798 35.1788 65.7125C35.2524 65.7452 35.332 65.7621 35.4125 65.7621C35.493 65.7621 35.5726 65.7452 35.6462 65.7125C35.7198 65.6798 35.7858 65.632 35.8398 65.5723L37.1425 64.1339L34.332 61.0304Z" fill="#ED3A3A"/>
<path d="M35.4162 38.0932V38.0898L35.4128 38.0915L35.4095 38.0898V38.0932L32.1175 40.4372L33.6737 42.783H35.4095H35.4162H37.152L38.7082 40.4372L35.4162 38.0932Z" fill="#ED3A3A"/>
<path d="M37.1399 39.3213L35.4155 38.0941V38.0901L35.4127 38.092L35.41 38.0901V38.0941L32.1179 40.437L33.6742 42.7837H37.1287L35.7929 40.7691C35.7338 40.6801 35.7117 40.5715 35.7312 40.4664C35.7506 40.3613 35.8101 40.2679 35.8971 40.206L37.1399 39.3213Z" fill="#DB2A2A"/>
<path d="M14.2849 31.5351C16.0655 31.5351 17.5089 30.0887 17.5089 28.3045C17.5089 26.5203 16.0655 25.074 14.2849 25.074C12.5043 25.074 11.0609 26.5203 11.0609 28.3045C11.0609 30.0887 12.5043 31.5351 14.2849 31.5351Z" fill="#707487"/>
<path d="M56.636 31.5351C58.4166 31.5351 59.86 30.0887 59.86 28.3045C59.86 26.5203 58.4166 25.074 56.636 25.074C54.8554 25.074 53.412 26.5203 53.412 28.3045C53.412 30.0887 54.8554 31.5351 56.636 31.5351Z" fill="#707487"/>
<path d="M14.3083 28.3045C14.3085 27.7402 14.4563 27.1858 14.7371 26.6966C15.018 26.2075 15.4219 25.8007 15.9087 25.5169C15.4189 25.2295 14.8621 25.0768 14.2945 25.0743C13.727 25.0717 13.1688 25.2193 12.6764 25.5021C12.184 25.785 11.7748 26.1931 11.4903 26.6852C11.2058 27.1773 11.0559 27.7359 11.0559 28.3046C11.0559 28.8733 11.2058 29.432 11.4903 29.9241C11.7748 30.4161 12.184 30.8242 12.6764 31.1071C13.1688 31.39 13.727 31.5376 14.2945 31.535C14.8621 31.5324 15.4189 31.3797 15.9087 31.0923C15.4219 30.8085 15.018 30.4016 14.7372 29.9125C14.4564 29.4233 14.3085 28.8689 14.3083 28.3045Z" fill="#5B5D6E"/>
<path d="M56.6586 28.3045C56.6588 27.7402 56.8066 27.1858 57.0874 26.6966C57.3683 26.2075 57.7722 25.8007 58.259 25.5169C57.7692 25.2295 57.2124 25.0768 56.6448 25.0743C56.0773 25.0717 55.5191 25.2193 55.0267 25.5021C54.5343 25.785 54.1251 26.1931 53.8406 26.6852C53.5561 27.1773 53.4062 27.7359 53.4062 28.3046C53.4062 28.8733 53.5561 29.432 53.8406 29.9241C54.1251 30.4161 54.5343 30.8242 55.0267 31.1071C55.5191 31.39 56.0773 31.5376 56.6448 31.535C57.2124 31.5324 57.7692 31.3797 58.259 31.0923C57.7723 30.8085 57.3683 30.4016 57.0875 29.9125C56.8067 29.4233 56.6588 28.8689 56.6586 28.3045Z" fill="#5B5D6E"/>
<path d="M3.85352 64.5754V80.5496C3.85355 80.8986 3.99193 81.2334 4.23823 81.4802C4.48453 81.7269 4.81856 81.8656 5.16688 81.8656H65.7532C66.1015 81.8656 66.4355 81.7269 66.6818 81.4802C66.9281 81.2334 67.0665 80.8986 67.0665 80.5496V64.5754H3.85352Z" fill="#868B9B"/>
<path d="M7.08935 80.5496V64.5754H3.85352V80.5496C3.85355 80.8986 3.99193 81.2334 4.23823 81.4802C4.48453 81.7269 4.81856 81.8656 5.16688 81.8656H8.40288C8.2304 81.8657 8.0596 81.8316 7.90024 81.7655C7.74087 81.6994 7.59607 81.6024 7.4741 81.4802C7.35212 81.358 7.25537 81.213 7.18935 81.0533C7.12334 80.8936 7.08936 80.7225 7.08935 80.5496Z" fill="#707487"/>
<path d="M68.2767 65.7103H2.64363C2.25372 65.7103 1.87979 65.5551 1.60409 65.2788C1.32839 65.0026 1.1735 64.6279 1.17349 64.2372V57.9336C1.1735 57.5429 1.32839 57.1682 1.60409 56.8919C1.87979 56.6157 2.25372 56.4605 2.64363 56.4604H68.2769C68.6668 56.4605 69.0407 56.6157 69.3164 56.8919C69.5921 57.1682 69.747 57.5429 69.747 57.9336V64.2372C69.7469 64.6279 69.592 65.0026 69.3163 65.2788C69.0405 65.5551 68.6666 65.7103 68.2767 65.7103Z" fill="#707487"/>
<path d="M68.2767 62.4677H2.64363C2.25372 62.4677 1.87979 62.3125 1.60409 62.0363C1.32839 61.76 1.1735 61.3853 1.17349 60.9946V64.237C1.1735 64.6277 1.32839 65.0024 1.60409 65.2786C1.87979 65.5549 2.25372 65.7101 2.64363 65.7101H68.2769C68.6668 65.7101 69.0407 65.5549 69.3164 65.2786C69.5921 65.0024 69.747 64.6277 69.747 64.237V60.9946C69.747 61.3853 69.592 61.76 69.3163 62.0363C69.0406 62.3125 68.6666 62.4677 68.2767 62.4677Z" fill="#5B5D6E"/>
<path d="M68.3165 55.1636H66.2888V39.3106C66.2889 39.0442 66.2015 38.7852 66.0402 38.5734L60.2077 30.9106C60.8546 30.0557 61.1713 28.9953 61.0992 27.9249C61.0271 26.8545 60.5712 25.8463 59.8156 25.0862C59.0599 24.3262 58.0555 23.8655 56.9875 23.7893C55.9196 23.713 54.8601 24.0263 54.0045 24.6712C53.1489 25.3162 52.5549 26.2494 52.3321 27.2988C52.1092 28.3481 52.2726 29.4428 52.792 30.381C53.3114 31.3191 54.1518 32.0375 55.1582 32.4035C56.1647 32.7695 57.2692 32.7586 58.2682 32.3726L63.8618 39.7216V55.1637H58.0618V51.6388C58.0618 51.3163 57.934 51.0071 57.7064 50.7791C57.4789 50.5511 57.1703 50.423 56.8484 50.423C56.5266 50.423 56.218 50.5511 55.9905 50.7791C55.7629 51.0071 55.6351 51.3163 55.6351 51.6388V55.1637H50.3711V45.6446C50.3711 45.3221 50.2433 45.0129 50.0157 44.7849C49.7882 44.5569 49.4795 44.4288 49.1577 44.4288C48.8359 44.4288 48.5273 44.5569 48.2997 44.7849C48.0722 45.0129 47.9444 45.3221 47.9444 45.6446V55.1637H40.5985L38.5031 42.759L39.0923 41.8705C39.3345 42.0834 39.6241 42.2349 39.9368 42.3122C40.2495 42.3896 40.5763 42.3905 40.8894 42.315C41.1614 42.247 41.4155 42.1207 41.6341 41.9448C41.8527 41.7689 42.0307 41.5476 42.1557 41.2962L45.1159 35.3516L51.8755 37.9747C52.9957 38.4989 53.9441 39.3316 54.6098 40.3755C55.2755 41.4195 55.6311 42.6316 55.6352 43.8705V45.9646C55.6352 46.2871 55.763 46.5963 55.9906 46.8244C56.2181 47.0524 56.5268 47.1805 56.8486 47.1805C57.1704 47.1805 57.479 47.0524 57.7066 46.8244C57.9341 46.5963 58.062 46.2871 58.062 45.9646V43.8705C58.0619 42.1475 57.5642 40.4614 56.6289 39.0156C55.6936 37.5698 54.3607 36.4262 52.791 35.7226L52.7679 35.7134L41.3254 31.273V28.8328C43.161 27.3698 44.3797 25.268 44.739 22.9456C45.6289 22.8491 46.4686 22.4846 47.1475 21.9001C48.0126 21.1533 48.551 20.0963 48.6471 18.9562C48.7433 17.8161 48.3895 16.6836 47.6618 15.8019V12.2909C47.6618 9.03114 46.3695 5.90491 44.0691 3.59992C41.7688 1.29493 38.6489 0 35.3957 0C32.1425 0 29.0226 1.29493 26.7222 3.59992C24.4219 5.90491 23.1295 9.03114 23.1295 12.2909V15.8933C22.4853 16.6427 22.1304 17.5986 22.1292 18.5877C22.1286 19.2166 22.2637 19.8382 22.5252 20.4099C22.7867 20.9816 23.1685 21.4899 23.6443 21.9C24.3251 22.4861 25.1677 22.8509 26.0603 22.9461C26.4419 25.3472 27.7316 27.509 29.6616 28.9827V31.2729L18.2315 35.7131L18.2087 35.7221C16.6391 36.4256 15.3062 37.5693 14.3709 39.0151C13.4356 40.4609 12.9379 42.147 12.9378 43.87V55.1632H7.1379V39.7211L12.7314 32.3722C13.7323 32.7595 14.8392 32.771 15.8479 32.4046C16.8566 32.0382 17.699 31.3187 18.2197 30.3787C18.7405 29.4387 18.9044 28.3418 18.6812 27.2902C18.458 26.2386 17.8629 25.3034 17.0055 24.6571C16.1481 24.0107 15.0864 23.6969 14.0162 23.7735C12.946 23.85 11.9396 24.3119 11.1825 25.0737C10.4255 25.8355 9.969 26.846 9.89721 27.9187C9.82543 28.9913 10.1432 30.0538 10.7919 30.9101L4.95948 38.5729C4.7982 38.7847 4.71084 39.0437 4.71081 39.3101V55.1631H2.68352C1.97204 55.1638 1.28991 55.4474 0.786817 55.9515C0.283722 56.4556 0.000752607 57.1391 0 57.852L0 64.1557C0.000790054 64.868 0.283309 65.5509 0.785665 66.0549C1.28802 66.5589 1.96925 66.8428 2.68011 66.8444V80.468C2.68084 81.1393 2.94729 81.7829 3.42102 82.2576C3.89475 82.7323 4.53706 82.9993 5.20701 83H32.6687C32.9905 83 33.2991 82.8719 33.5267 82.6439C33.7542 82.4159 33.8821 82.1066 33.8821 81.7842C33.8821 81.4617 33.7542 81.1525 33.5267 80.9245C33.2991 80.6965 32.9905 80.5684 32.6687 80.5684H5.20685C5.18034 80.5683 5.15492 80.5578 5.13618 80.539C5.11743 80.5202 5.10689 80.4948 5.10687 80.4682V66.8447H65.8931V80.4682C65.8931 80.4948 65.8826 80.5202 65.8638 80.539C65.8451 80.5578 65.8196 80.5684 65.7931 80.5684H38.3313C38.0095 80.5684 37.7009 80.6965 37.4733 80.9245C37.2457 81.1525 37.1179 81.4618 37.1179 81.7842C37.1179 82.1067 37.2457 82.4159 37.4733 82.6439C37.7009 82.872 38.0095 83 38.3313 83H65.793C66.4629 82.9993 67.1052 82.7323 67.579 82.2576C68.0527 81.783 68.3192 81.1394 68.3199 80.4681V66.8444C69.0307 66.8427 69.712 66.5588 70.2143 66.0548C70.7167 65.5509 70.9992 64.868 71 64.1557V57.8523C70.9992 57.1394 70.7162 56.456 70.2131 55.9519C69.71 55.4478 69.0279 55.1643 68.3165 55.1636ZM54.6644 28.2236C54.6644 27.8251 54.7824 27.4356 55.0033 27.1043C55.2242 26.773 55.5382 26.5147 55.9056 26.3622C56.273 26.2098 56.6773 26.1699 57.0674 26.2476C57.4574 26.3253 57.8156 26.5172 58.0968 26.799C58.378 27.0807 58.5695 27.4397 58.6471 27.8305C58.7247 28.2214 58.6849 28.6264 58.5327 28.9946C58.3805 29.3627 58.1228 29.6774 57.7921 29.8988C57.4615 30.1201 57.0728 30.2383 56.6751 30.2383C56.142 30.2377 55.631 30.0252 55.2541 29.6475C54.8772 29.2698 54.6651 28.7577 54.6645 28.2236H54.6644ZM14.3248 26.2089C14.7225 26.2089 15.1112 26.327 15.4419 26.5484C15.7725 26.7698 16.0303 27.0845 16.1824 27.4526C16.3346 27.8207 16.3744 28.2258 16.2969 28.6166C16.2193 29.0075 16.0278 29.3664 15.7466 29.6482C15.4654 29.93 15.1071 30.1218 14.7171 30.1996C14.3271 30.2773 13.9228 30.2374 13.5554 30.0849C13.188 29.9324 12.874 29.6742 12.653 29.3429C12.4321 29.0116 12.3142 28.6221 12.3142 28.2236C12.3148 27.6894 12.5268 27.1773 12.9038 26.7996C13.2807 26.4219 13.7918 26.2095 14.3248 26.2089ZM30.7566 39.7023L28.1509 34.4694L30.4906 33.5614L33.7392 37.5793C32.3341 38.5792 30.9082 39.5944 30.7566 39.7023V39.7023ZM32.8565 55.1634L34.7924 43.7029H36.2012L38.1371 55.1634H32.8565ZM36.5758 41.271H34.4176L33.8808 40.4615L35.4969 39.3114L37.113 40.4613L36.5758 41.271ZM40.2371 39.7021C40.2288 39.6963 39.4499 39.1417 37.2506 37.5765C39.3392 34.9931 39.4408 34.8675 40.4982 33.5596L42.8428 34.4694L40.2371 39.7021ZM45.5651 20.0557C45.3557 20.2358 45.1111 20.3702 44.847 20.4504V16.7269C45.1806 16.8253 45.4815 17.012 45.7182 17.2673C45.9549 17.5226 46.1185 17.8371 46.192 18.1777C46.2655 18.5183 46.2461 18.8724 46.1357 19.2029C46.0254 19.5333 45.8283 19.8279 45.5651 20.0556V20.0557ZM25.5565 12.2909C25.5599 9.67832 26.598 7.17392 28.4429 5.32776C30.2877 3.4816 32.7884 2.44464 35.3957 2.44464C38.003 2.44464 40.5037 3.4816 42.3486 5.32776C44.1934 7.17392 45.2315 9.67832 45.2349 12.2909V14.3116C45.1068 14.2826 44.9767 14.2599 44.8453 14.2419C44.8344 13.7947 44.6482 13.3697 44.327 13.059C43.9525 12.6038 43.2775 11.9072 41.7278 10.2383C41.4122 9.89791 40.9866 9.68033 40.5264 9.62408C40.0661 9.56783 39.6008 9.67653 39.2128 9.93094C35.9118 12.1046 32.0019 13.1599 28.0578 12.9418C27.7884 12.922 27.5177 12.9579 27.2627 13.0472C27.0077 13.1366 26.7738 13.2776 26.5754 13.4614C26.3405 13.6847 26.1616 13.9603 26.053 14.2659C25.886 14.2912 25.7205 14.3254 25.5571 14.3684V12.2909L25.5565 12.2909ZM24.5564 18.5877C24.5619 18.3406 24.618 18.0972 24.7211 17.8727C24.8242 17.6481 24.9722 17.4471 25.1559 17.2821L25.1682 17.2717C25.394 17.0645 25.6579 16.9033 25.9451 16.7971V20.4507C25.681 20.3707 25.4365 20.2363 25.2271 20.0563C25.0163 19.8744 24.8471 19.649 24.7314 19.3955C24.6156 19.142 24.5559 18.8664 24.5564 18.5877L24.5564 18.5877ZM28.372 21.5227V15.3956C30.6882 15.4831 33.0022 15.1707 35.2126 14.4719C36.9709 13.9253 38.6514 13.1538 40.2127 12.1764C40.6566 12.6537 41.0229 13.0448 41.3251 13.3678L41.3845 13.4313L41.6932 13.7614C42.0245 14.1161 42.2803 14.3929 42.4198 14.5559V21.5227C42.3895 23.3693 41.6362 25.13 40.3222 26.4251C39.0083 27.7203 37.239 28.4461 35.3959 28.4461C33.5528 28.4461 31.7835 27.7203 30.4695 26.4251C29.1556 25.13 28.4023 23.3693 28.372 21.5227L28.372 21.5227ZM35.5135 30.8749C36.6712 30.8718 37.8185 30.656 38.8985 30.2381V31.6748L35.4968 35.8825L32.0887 31.6671V30.2952C33.1894 30.6812 34.3474 30.8772 35.5135 30.8749L35.5135 30.8749ZM15.3648 43.8702C15.3651 42.6304 15.7193 41.4166 16.3856 40.3719C17.0518 39.3272 18.0023 38.4953 19.125 37.9741L25.8775 35.351L28.8377 41.2958V41.296C28.9989 41.6196 29.247 41.8919 29.554 42.0821C29.8611 42.2724 30.215 42.373 30.5761 42.3728C31.0624 42.3633 31.5306 42.1857 31.9012 41.87L32.4904 42.7585L30.395 55.1632H23.0557V45.6441C23.0557 45.3217 22.9278 45.0124 22.7003 44.7844C22.4727 44.5564 22.1641 44.4283 21.8423 44.4283C21.5205 44.4283 21.2118 44.5564 20.9843 44.7844C20.7567 45.0124 20.6289 45.3217 20.6289 45.6441V55.1632H15.3648V43.8702ZM68.573 64.156C68.573 64.2242 68.5459 64.2895 68.4978 64.3378C68.4497 64.386 68.3844 64.4131 68.3164 64.4131H2.68336C2.61532 64.413 2.5501 64.3859 2.502 64.3377C2.45389 64.2895 2.42683 64.2242 2.42676 64.156V57.8523C2.42681 57.7841 2.45386 57.7188 2.50197 57.6706C2.55008 57.6224 2.61532 57.5953 2.68336 57.5952H68.3165C68.3845 57.5953 68.4498 57.6224 68.4979 57.6706C68.546 57.7188 68.573 57.7841 68.5731 57.8523L68.573 64.156Z" fill="black"/>
</g>
<defs>
<clipPath id="clip0">
<rect width="71" height="83" fill="white"/>
</clipPath>
</defs>
</svg>
