<svg xmlns="http://www.w3.org/2000/svg" viewBox="0 0 833.8 191.3"><path d="M89.4 151l-9.9 2.2c-.8-2.2-2.8-3.3-6.2-3.3-2.4 0-3.6.7-3.6 2 0 1.2 1.1 2 3.4 2.4 4.7.8 8 1.7 9.9 2.6 1.9 1 3.4 2.2 4.3 3.7 1 1.5 1.5 3.2 1.5 5 0 3.4-1.4 6.2-4.3 8.6-2.8 2.3-7.2 3.5-13 3.5-4.3 0-8-.8-11.2-2.5-3.2-1.7-5.2-4.2-6-7.6l10.6-1.5c.8 2.4 3.2 3.6 7.1 3.6 1.5 0 2.6-.2 3.4-.7.7-.4 1.1-.9 1.1-1.5 0-.5-.2-.9-.7-1.2-.5-.3-1.7-.6-3.7-1.1-3.9-.9-6.8-1.7-8.4-2.4-1.7-.7-3.1-1.8-4.3-3.4s-1.8-3.3-1.8-5.3c0-3.5 1.4-6.3 4.1-8.5s6.5-3.3 11.1-3.3c4.3 0 7.9.8 10.9 2.5s4.9 3.7 5.7 6.2zm71.9-7.8l-16.1 34.2c-2.4 5-4.8 8.2-7.3 9.6-2.5 1.4-5.4 2-8.9 2-1.7 0-3.5-.2-5.3-.6v-9.1c2.8.3 5 .4 6.3.4 3.5 0 5.2-.9 5.2-2.8 0-.5-.1-1.2-.4-2.2l-8.2-31.6H140l2.9 13.6c.5 2.3.8 3.7.8 4.3.2-.4.5-1 .8-1.7.2-.6.5-1.3.8-1.9l6.7-14.3h9.3zm65.5 7.8l-9.9 2.2c-.8-2.2-2.8-3.3-6.2-3.3-2.4 0-3.6.7-3.6 2 0 1.2 1.1 2 3.4 2.4 4.7.8 8 1.7 9.9 2.6 1.9 1 3.4 2.2 4.3 3.7 1 1.5 1.5 3.2 1.5 5 0 3.4-1.4 6.2-4.3 8.6-2.8 2.3-7.2 3.5-13 3.5-4.3 0-8-.8-11.2-2.5-3.2-1.7-5.2-4.2-6-7.6l10.6-1.5c.8 2.4 3.2 3.6 7.1 3.6 1.5 0 2.6-.2 3.4-.7.7-.4 1.1-.9 1.1-1.5 0-.5-.2-.9-.7-1.2-.5-.3-1.7-.6-3.7-1.1-3.9-.9-6.8-1.7-8.4-2.4-1.7-.7-3.1-1.8-4.3-3.4s-1.8-3.3-1.8-5.3c0-3.5 1.4-6.3 4.1-8.5 2.7-2.2 6.5-3.3 11.1-3.3 4.3 0 7.9.8 10.9 2.5s4.9 3.7 5.7 6.2zm61.8-7.8l-1.5 8.6H281l-2 12c-.2 1.2-.3 1.9-.3 2.2 0 1.6 1 2.5 3.1 2.5.9 0 2-.1 3.2-.4l-1.5 8.8c-2.4.5-4.7.8-6.9.8-2.7 0-4.8-.3-6.1-1-1.3-.7-2.4-1.7-3.2-2.9-.8-1.3-1.3-2.9-1.3-5 0-.9.2-2.5.6-4.9l2-12H264l1.4-8.6h4.7l1.9-10 12.3-.2-1.7 10.2h6zm70.8 19.4h-23.3c-.1.9-.2 1.6-.2 2 0 1.5.5 2.6 1.4 3.5.9.8 2.1 1.2 3.6 1.2 2.7 0 4.7-1.4 5.8-4.3l11.4 1.8c-1.5 3.3-3.8 6-7.1 8s-6.9 3.1-10.9 3.1c-5 0-9.1-1.4-12.2-4.3-3.1-2.9-4.7-6.8-4.7-11.7 0-5.4 1.8-10 5.5-13.8 3.7-3.8 8.5-5.8 14.5-5.8 5.1 0 9.1 1.5 12.1 4.5s4.5 6.9 4.5 11.9c0 1.1-.1 2.4-.4 3.9zm-12.2-6.5c.1-.7.2-1.2.2-1.6 0-1.2-.4-2.2-1.1-3.1-.7-.9-1.8-1.3-3.1-1.3-1.4 0-2.7.5-3.9 1.6-1.2 1.1-1.9 2.6-2.1 4.5h10zm54.9-12.9h11.5l-.9 5.2c2.5-4.1 6-6.2 10.4-6.2 4.2 0 7.1 2.1 8.6 6.2 2.2-4 5.5-6 10.1-6 3 0 5.4.8 7.2 2.5 1.8 1.7 2.7 3.9 2.7 6.8 0 .9-.1 2-.3 3.3l-3.7 22h-12.8l3.4-20c.2-1 .2-1.8.2-2.4 0-2-.9-2.9-2.7-2.9-1.1 0-2 .4-2.7 1.2-.7.8-1.3 2.4-1.7 4.7l-3.2 19.3h-12.5l3.4-20c.2-1.2.3-2.1.3-2.6 0-1-.3-1.8-.9-2.2-.6-.4-1.2-.7-1.8-.7-.6 0-1.4.3-2.3.8-.9.5-1.6 2.1-2 4.7l-3.4 20h-12.4l5.5-33.7zM523.5 177h-13.2c-.1-.6-.1-1.2-.1-1.6 0-1.1.1-2.5.2-4-2.7 4.2-6.3 6.4-11.1 6.4-3.2 0-5.8-.9-7.8-2.8-2-1.8-3-4.2-3-7 0-2.1.5-4 1.6-5.7 1.1-1.7 2.6-3.1 4.5-4.1 2-1 4-1.7 6-2 2-.3 6.1-.8 12-1.3.3-.8.4-1.5.4-1.9 0-1.9-1.3-2.8-3.9-2.8-2.5 0-4.4 1.3-5.6 3.8l-11-2.2c2.8-6.3 8.9-9.4 18.4-9.4 4.8 0 8.6.8 11.3 2.5s4.1 4.1 4.1 7.3c0 1.4-.8 6.6-2.4 15.4-.6 3.3-.9 5.4-.9 6.5.2.8.3 1.7.5 2.9zm-11.9-16.1c-6.1.5-9.2 2.4-9.2 5.9 0 1.9 1 2.8 3 2.8 1.3 0 2.5-.6 3.8-1.7 1.3-1.1 2.1-3.4 2.4-7zm77.4-17.7l-1.5 8.6h-6.1l-2 12c-.2 1.2-.3 1.9-.3 2.2 0 1.6 1 2.5 3.1 2.5.9 0 2-.1 3.2-.4L584 177c-2.4.5-4.7.8-6.9.8-2.7 0-4.8-.3-6.1-1-1.3-.7-2.4-1.7-3.2-2.9-.8-1.3-1.3-2.9-1.3-5 0-.9.2-2.5.6-4.9l2-12h-4.6l1.4-8.6h4.7l1.9-10 12.3-.2-1.7 10.2h5.9zm52.4 0l-5.7 33.8h-13.1l5.7-33.8h13.1zm2.2-12.9l-1.7 9.9h-13.1l1.7-9.9h13.1zm56.4 33.6l10.2 2.5c-1.8 4.4-4.2 7.4-7.2 9.1-3 1.7-6 2.5-9.2 2.5-4.7 0-8.5-1.5-11.4-4.4-3-3-4.4-6.8-4.4-11.4 0-5.3 1.7-10 5.2-14 3.5-4.1 8.1-6.1 13.9-6.1 4.2 0 7.7 1.3 10.6 3.8 2.9 2.5 4.3 5.7 4.3 9.7l-11.5 1.3c0-3.7-1.2-5.5-3.7-5.5-2.1 0-3.6 1.5-4.5 4.5-.9 3-1.3 5.6-1.3 7.8 0 3.3 1.2 5 3.7 5 2.5-.1 4.2-1.7 5.3-4.8zm80.7-12.9l-9.9 2.2c-.8-2.2-2.8-3.3-6.2-3.3-2.4 0-3.6.7-3.6 2 0 1.2 1.1 2 3.4 2.4 4.7.8 8 1.7 9.9 2.6 1.9 1 3.4 2.2 4.3 3.7 1 1.5 1.5 3.2 1.5 5 0 3.4-1.4 6.2-4.3 8.6-2.8 2.3-7.2 3.5-13 3.5-4.3 0-8-.8-11.2-2.5-3.2-1.7-5.2-4.2-6-7.6l10.6-1.5c.8 2.4 3.2 3.6 7.1 3.6 1.5 0 2.6-.2 3.4-.7.7-.4 1.1-.9 1.1-1.5 0-.5-.2-.9-.7-1.2-.5-.3-1.7-.6-3.7-1.1-3.9-.9-6.7-1.7-8.4-2.4-1.7-.7-3.1-1.8-4.3-3.4-1.2-1.5-1.8-3.3-1.8-5.3 0-3.5 1.4-6.3 4.1-8.5s6.5-3.3 11.1-3.3c4.3 0 7.9.8 10.9 2.5s4.9 3.7 5.7 6.2zM98 72.6l24.5 3.1c-2.9 10-7.7 18.2-14.7 24.5-6.9 6.4-15.7 9.6-26.2 9.6-11.5 0-20.6-3.9-27.3-11.7s-10.1-17.8-10.1-30c0-14.1 4.2-26.5 12.5-37.4C64.9 19.9 76.4 14.5 91 14.5c10.6 0 19.2 3.3 25.8 9.8 6.6 6.5 9.9 15.1 10.1 25.8L101 51.9c-.1-5.6-1-9.8-2.6-12.6-1.6-2.8-4.4-4.1-8.4-4.1-6.8 0-11.4 5-13.9 15s-3.7 17.9-3.7 23.7c0 9.4 3.7 14 11 14 3.6 0 6.5-1.2 8.8-3.6 2.3-2.4 4.2-6.3 5.8-11.7zm99.6-32.2l-32.2 68.4c-4.7 10-9.6 16.4-14.5 19.1-5 2.7-10.9 4.1-17.7 4.1-3.4 0-7-.4-10.7-1.1l.1-18.1c5.7.6 9.9.9 12.7.9 6.9 0 10.4-1.9 10.4-5.6 0-.9-.3-2.4-.8-4.4l-16.3-63.3h26.9l5.8 27.1c1 4.6 1.6 7.5 1.7 8.7.4-.8 1-2 1.5-3.4.4-1.2 1-2.5 1.7-3.9l13.4-28.5h18zm36.5-23.8l-5.4 32.2c3.5-4.2 6.7-7 9.4-8.3 2.8-1.3 5.9-2 9.3-2 6.5 0 11.7 2.3 15.6 6.9 3.9 4.6 5.9 11.4 5.9 20.4 0 11.1-3.1 21.1-9.3 30.1-6.2 9-14.8 13.5-25.8 13.5-10.4 0-17.7-4.3-21.8-12.8l-7.6 11.3h-11.7L208 16.6h26.1zm-11.4 67.6c0 2.5.2 4.2.5 5.1.4.9 1.1 1.8 2.3 2.7 1.2.8 2.7 1.3 4.5 1.3 2.3 0 4.2-.7 5.8-2.2 1.6-1.5 3.2-4.8 4.7-9.9 1.5-5.1 2.2-10.6 2.2-16.4 0-6.7-2.4-10.1-7.1-10.1-4.5 0-7.8 3.4-9.8 10.3l-3.1 19.2zm124.6-5.1h-46.5c-.2 1.8-.3 3.2-.3 4.1 0 3 .9 5.3 2.8 6.9 1.9 1.7 4.3 2.5 7.2 2.5 5.5 0 9.4-2.9 11.6-8.6l22.7 3.7c-2.9 6.6-7.7 12-14.3 16.1-6.6 4.1-13.9 6.1-21.9 6.1-10.1 0-18.2-2.9-24.5-8.6-6.3-5.7-9.4-13.5-9.4-23.4 0-10.7 3.7-20 11.1-27.6 7.4-7.7 17.1-11.5 29-11.5 10.1 0 18.2 3 24.2 8.9 6 6 9 13.9 9 23.8 0 2.1-.2 4.7-.7 7.6zm-24.3-13c.2-1.4.3-2.5.3-3.2 0-2.4-.7-4.5-2.2-6.3-1.5-1.8-3.6-2.7-6.2-2.7-2.9 0-5.4 1.1-7.8 3.2-2.3 2.2-3.7 5.1-4.3 8.9H323zm41.2-25.7h22.5L384 56.6c4.7-12.2 11.9-18.3 21.5-18.3.8 0 1.8.1 3.1.3l-3 24.1c-2.3-.1-3.9-.2-4.6-.2-5.6 0-9.7 1.3-12.3 3.9-2.6 2.6-4.5 7.2-5.6 13.8l-4.6 27.6h-25.7l11.4-67.4zm43.2 67.5l15.2-91.2h37.7c6.9 0 12.5.6 16.8 1.8 4.4 1.2 8 3.7 11 7.5s4.4 8.2 4.4 13.3c0 5.6-1.8 10.3-5.3 14.2-3.5 3.9-8.2 6.5-14.2 7.9 10 3.5 15 10.1 15 19.9 0 7.1-2.4 13.3-7.2 18.6-4.8 5.3-12.8 8-23.9 8h-49.5zm29.8-20.2h13.6c4.2 0 7.2-.9 8.8-2.7 1.6-1.8 2.4-3.7 2.4-5.8 0-2.6-.9-4.7-2.6-6.2-1.8-1.6-4.4-2.4-7.9-2.4H440l-2.8 17.1zm6-36.3h10.4c8.3 0 12.5-2.8 12.5-8.3 0-4.9-3.3-7.3-9.9-7.3h-10.5l-2.5 15.6zm89.2-11l-11.3 67.5h-26.2l11.3-67.5h26.2zm4.3-25.9l-3.3 19.9h-26.2l3.3-19.9h26.2zm33.7 95.4c-9.4 0-17.3-2.8-23.7-8.4-6.4-5.6-9.6-13.2-9.6-22.9 0-11.6 3.7-21.2 11.1-28.7 7.4-7.5 16.8-11.2 28.1-11.2 10.3 0 18.5 2.9 24.6 8.8s9.1 13.1 9.1 21.7c0 12.8-3.9 22.8-11.7 29.9-7.8 7.2-17.1 10.8-27.9 10.8zm1.1-16.5c4.7 0 7.9-3.5 9.5-10.4 1.7-7 2.5-12.8 2.5-17.4 0-7.1-2.6-10.7-7.8-10.7-4.6 0-7.8 3.6-9.5 10.7-1.8 7.1-2.6 12.9-2.6 17.4 0 6.9 2.6 10.4 7.9 10.4zm54.6-53h23.5l-1.8 11c1.8-4.5 4.8-7.8 8.9-9.9 4.1-2.1 8.5-3.1 13.1-3.1 5.7 0 10.4 1.5 14 4.5 3.6 3 5.3 7 5.3 12 0 1.9-.2 4.2-.7 6.9l-7.7 46.1H655l6.8-40.6c.4-2.6.7-4.3.7-5.1 0-3.8-2-5.7-6-5.7-5.4 0-8.7 3.6-9.9 10.8l-6.8 40.6h-25.1l11.4-67.5zm106.2 0L721 107.9h-26.2l11.3-67.5h26.2zm4.4-25.9l-3.3 19.9h-26.2l3.3-19.9h26.2zM781 81.7l20.4 5c-3.7 8.7-8.4 14.8-14.4 18.1-5.9 3.4-12.1 5-18.4 5-9.3 0-16.9-3-22.8-8.9-5.9-5.9-8.9-13.5-8.9-22.8 0-10.6 3.5-19.9 10.5-28 7-8.1 16.2-12.2 27.7-12.2 8.3 0 15.4 2.5 21.2 7.5 5.8 5 8.7 11.5 8.7 19.4l-22.9 2.7c0-7.3-2.5-11-7.4-11-4.2 0-7.2 3-9 9-1.8 6-2.7 11.2-2.7 15.7 0 6.6 2.5 9.9 7.5 9.9 4.8.1 8.4-3.1 10.5-9.4z" fill="#fff"/></svg>