<svg xmlns="http://www.w3.org/2000/svg" viewBox="0 0 80.07 73.49"><defs><style>.cls-1{fill:#231f20;}</style></defs><title>Ресурс 2</title><g id="Слой_2" data-name="Слой 2"><g id="Слой_1-2" data-name="Слой 1"><path class="cls-1" d="M60.56,39.42V55H80.07V39.42Zm6.92,10.64a2.84,2.84,0,1,1,2.84-2.84A2.84,2.84,0,0,1,67.48,50.06Z"/><polygon class="cls-1" points="57.82 57.22 57.82 37.23 68.85 37.23 68.85 26.14 8.16 26.14 8.16 64.74 68.85 64.74 68.85 57.22 57.82 57.22"/><polygon class="cls-1" points="71.65 57.22 71.65 67.62 5.36 67.62 5.36 23.26 71.65 23.26 71.65 37.23 77.01 37.23 77.01 17.39 0 17.39 0 73.49 77.01 73.49 77.01 57.22 71.65 57.22"/><polygon class="cls-1" points="0 14.34 0 12.43 54.19 0 65.09 14.34 0 14.34"/></g></g></svg>