<svg xmlns="http://www.w3.org/2000/svg" viewBox="0 0 143 46.7"><path fill="#8DC63F" d="M0 11.4c0 2.1 1.7 3.7 3.7 3.7s3.7-1.7 3.7-3.7V8.6h2.7c2 0 3.7-1.7 3.7-3.7s-1.6-3.7-3.7-3.7H3.7C1.7 1.2 0 2.9 0 4.9v6.5zm10.2 18.9c2 0 3.7-1.7 3.7-3.7 0-2.1-1.7-3.7-3.7-3.7H7.4v-2.7c0-2-1.7-3.7-3.7-3.7S0 18.1 0 20.2v6.4c0 2 1.7 3.7 3.7 3.7h6.5zm19-10.1c0-2.1-1.7-3.7-3.7-3.7s-3.7 1.7-3.7 3.7V23h-2.7c-2 0-3.7 1.7-3.7 3.7s1.6 3.7 3.7 3.7h6.4c2.1 0 3.7-1.7 3.7-3.7v-6.5z"/><path fill="#FFF" d="M52 30h-2.4L37.1 1.6h7.1l6.6 17.1L58 1.6h6.9zm38.1-12.4H70.2c.1 2.2.9 4 2.3 5.2 1.4 1.2 3.3 1.8 5.7 1.8 3 0 5.2-.8 6.8-2.3l2.5 5c-2.3 1.9-5.7 2.8-10.3 2.8-4.3 0-7.6-1.2-10.1-3.7s-3.7-6-3.7-10.4 1.4-8 4.1-10.7c2.7-2.7 6-4.1 9.8-4.1 4 0 7.3 1.2 9.7 3.6 2.5 2.4 3.7 5.5 3.7 9.2-.1.7-.2 1.9-.6 3.6m-19.7-5h13.7c-.5-4.1-2.7-6.1-6.8-6.1-3.7 0-6 2.1-6.9 6.1m64.5 14.1c-.6 1-1.6 1.8-3.1 2.4-1.5.6-3 .9-4.6.9-3 0-5.4-.8-7.1-2.3-1.7-1.5-2.6-3.6-2.6-6.4 0-3.2 1.2-5.8 3.6-7.6 2.4-1.8 5.9-2.7 10.3-2.7.8 0 1.7.1 2.7.4 0-3.3-2.1-4.9-6.2-4.9-2.4 0-4.5.4-6.1 1.2l-1.4-5.1c2.2-1.1 4.9-1.6 8-1.6 4.3 0 7.4 1 9.3 2.9 2 1.9 3 5.6 3 11v6c0 3.7.7 6.1 2.2 7-.5.9-1.1 1.5-1.8 1.7-.7.2-1.4.3-2.3.3-.9 0-1.8-.3-2.5-1-.6-.6-1.1-1.4-1.4-2.2m-.6-10.3c-1.1-.2-1.9-.3-2.5-.3-5.1 0-7.7 1.7-7.7 5.1 0 2.5 1.4 3.8 4.3 3.8 3.9 0 5.8-2 5.8-5.9v-2.7zM108 25c-1 0-2.1.1-3.4.4-1.3.3-2.3.4-2.8.4-1.3 0-1.9-.4-1.9-1.1 0-.4.4-.8 1.3-1.2.8-.4 1.3-.6 1.5-.6l1.1.2c.8.1 1.5.1 2 .1 3.1 0 5.7-1 7.7-3s3.1-4.7 3.1-8c0-2.3-.6-4.4-1.7-6.1l.3-.2c-1.3-1.4-3.1-2.8-4.3-3.6l-.2.2c-1.8-1-4-1.5-6.6-1.5-3.4 0-6.2 1-8.5 3.1C93.2 6.2 92 8.8 92 12c0 4 1.7 7.1 5 9.3-1 .4-2 1.1-2.7 2.1-.8.9-1.2 1.9-1.2 2.8 0 3.4 2.4 5.1 7.1 5.1.8 0 1.9-.1 3.4-.3 1.5-.2 2.7-.3 3.4-.3 2.8 0 4.2 2.7 4.2 4.4 0 1-.3 3.7-2.1 4.6-1.3.6-2.9.9-4.9.9-2.9 0-5.6-1.1-8-3.3L92 42.6c3.6 2.7 7.7 4 12.2 4 3.8 0 7-.8 9.6-2.5 3.2-2.1 4.1-6.2 4.1-9.1.1-5.5-3.3-10-9.9-10m-7.5-16.8c1-1 2.3-1.5 3.8-1.5s2.7.5 3.7 1.5c.9 1 1.4 2.3 1.4 3.8 0 1.8-.4 3.2-1.3 4.2s-2.1 1.5-3.7 1.5-2.9-.5-3.9-1.6-1.4-2.4-1.4-4.2c-.1-1.5.4-2.7 1.4-3.7m-81.4-7c-2 0-3.7 1.7-3.7 3.7 0 2.1 1.7 3.7 3.7 3.7h2.7v2.7c0 2 1.7 3.7 3.7 3.7s3.7-1.6 3.7-3.7V4.9c0-2.1-1.7-3.7-3.7-3.7h-6.4zM2.3 36.7v2.2H4v1.7H2.3v2.8c0 .9.2 1.3.9 1.3.3 0 .5 0 .7-.1v1.8c-.3.1-.9.2-1.5.2-.8 0-1.4-.3-1.8-.7-.4-.3-.6-1-.6-2.1v-6.5l2.3-.6zm12.3 5.2c0-.6-.2-1.5-1.3-1.5-1 0-1.4.9-1.5 1.5h2.8zm-2.8 1.6c.1 1 1 1.4 2.2 1.4.8 0 1.5-.1 2.1-.3l.3 1.6c-.8.3-1.7.5-2.8.5-2.6 0-4.1-1.5-4.1-3.9 0-1.9 1.2-4.1 3.8-4.1 2.5 0 3.4 1.9 3.4 3.8 0 .4 0 .8-.1.9h-4.8zm11.1-6v9h2.4v-9.7zm13.6 4.4c0-.6-.2-1.5-1.3-1.5-1 0-1.4.9-1.5 1.5h2.8zm-2.8 1.6c.1 1 1 1.4 2.2 1.4.8 0 1.5-.1 2.1-.3l.3 1.6c-.8.3-1.7.5-2.8.5-2.6 0-4.1-1.5-4.1-3.9 0-1.9 1.2-4.1 3.9-4.1 2.5 0 3.4 1.9 3.4 3.8 0 .4 0 .8-.1.9h-4.9zm16.8 2.9c-.4.2-1.2.3-2.1.3-2.5 0-4-1.5-4-3.9 0-2.2 1.5-4.1 4.4-4.1.6 0 1.3.1 1.8.3l-.4 1.8c-.3-.1-.7-.2-1.3-.2-1.2 0-2.1.9-2 2.1 0 1.4.9 2.1 2.1 2.1.6 0 1-.1 1.4-.2l.1 1.8zm7.8-3.7c0 1.3.5 2.3 1.6 2.3.9 0 1.5-.9 1.5-2.3 0-1.1-.4-2.3-1.5-2.3-1.2 0-1.6 1.2-1.6 2.3m5.5-.1c0 2.8-2 4.1-4 4.1-2.2 0-3.9-1.5-3.9-3.9 0-2.5 1.6-4 4.1-4 2.3-.1 3.8 1.5 3.8 3.8m6.2-1.3c0-1 0-1.8-.1-2.4h2l.1 1c.3-.5 1-1.2 2.3-1.2 1 0 1.8.5 2.1 1.3.3-.4.6-.7 1-.9.4-.2.9-.4 1.4-.4 1.5 0 2.6 1 2.6 3.3v4.5h-2.3v-4.1c0-1.1-.4-1.7-1.1-1.7-.5 0-.9.4-1.1.8-.1.2-.1.4-.1.6v4.5h-2.3v-4.3c0-1-.3-1.6-1.1-1.6-.6 0-1 .5-1.1.9-.1.2-.1.4-.1.6v4.4H70v-5.3z"/><path fill="#8DC63F" d="M114.7 6.1l1.8-1.3s1.4-1.1 0-2.4c-1.4-1.3-1.9-1.8-1.9-1.8s-1.4-1.3-2.4-.2c-.8.9-1.8 2.1-1.8 2.1 1.2.8 3.1 2.2 4.3 3.6"/></svg>