<?xml version="1.0" encoding="utf-8"?>
<!-- Generator: Adobe Illustrator 18.0.0, SVG Export Plug-In . SVG Version: 6.00 Build 0)  -->
<!DOCTYPE svg PUBLIC "-//W3C//DTD SVG 1.1//EN" "http://www.w3.org/Graphics/SVG/1.1/DTD/svg11.dtd">
<svg version="1.1" id="Layer_1" xmlns="http://www.w3.org/2000/svg" xmlns:xlink="http://www.w3.org/1999/xlink" x="0px" y="0px"
	 viewBox="0 0 143 46.7" enable-background="new 0 0 143 46.7" xml:space="preserve">
<g>
	<path fill="#8DC63F" d="M0,11.4c0,2.1,1.7,3.7,3.7,3.7c2,0,3.7-1.7,3.7-3.7v-0.1V8.6h2.7c2,0,3.7-1.7,3.7-3.7c0-2-1.6-3.7-3.7-3.7
		v0H3.7C1.7,1.2,0,2.9,0,4.9V11.4L0,11.4z"/>
	<path fill="#8DC63F" d="M10.2,30.3c2,0,3.7-1.7,3.7-3.7c0-2.1-1.7-3.7-3.7-3.7c0,0-0.1,0-0.1,0H7.4l0-2.7h0c0-2-1.7-3.7-3.7-3.7
		c-2,0-3.7,1.6-3.7,3.7v6.4c0,2,1.7,3.7,3.7,3.7H10.2L10.2,30.3z"/>
	<path fill="#8DC63F" d="M29.2,20.2c0-2.1-1.7-3.7-3.7-3.7c-2,0-3.7,1.7-3.7,3.7v0.1V23h-2.7v0c-2,0-3.7,1.7-3.7,3.7
		c0,2,1.6,3.7,3.7,3.7h6.4c2.1,0,3.7-1.7,3.7-3.7V20.2L29.2,20.2z"/>
	<polygon fill="#FFFFFF" points="52,30 49.6,30 37.1,1.6 44.2,1.6 50.8,18.7 58,1.6 64.9,1.6 	"/>
	<path fill="#FFFFFF" d="M90.1,17.6H70.2c0.1,2.2,0.9,4,2.3,5.2c1.4,1.2,3.3,1.8,5.7,1.8c3,0,5.2-0.8,6.8-2.3l2.5,5
		c-2.3,1.9-5.7,2.8-10.3,2.8c-4.3,0-7.6-1.2-10.1-3.7c-2.5-2.5-3.7-6-3.7-10.4c0-4.4,1.4-8,4.1-10.7c2.7-2.7,6-4.1,9.8-4.1
		c4,0,7.3,1.2,9.7,3.6c2.5,2.4,3.7,5.5,3.7,9.2C90.6,14.7,90.5,15.9,90.1,17.6 M70.4,12.6h13.7c-0.5-4.1-2.7-6.1-6.8-6.1
		C73.6,6.5,71.3,8.6,70.4,12.6"/>
	<path fill="#FFFFFF" d="M134.9,26.7c-0.6,1-1.6,1.8-3.1,2.4c-1.5,0.6-3,0.9-4.6,0.9c-3,0-5.4-0.8-7.1-2.3c-1.7-1.5-2.6-3.6-2.6-6.4
		c0-3.2,1.2-5.8,3.6-7.6c2.4-1.8,5.9-2.7,10.3-2.7c0.8,0,1.7,0.1,2.7,0.4c0-3.3-2.1-4.9-6.2-4.9c-2.4,0-4.5,0.4-6.1,1.2l-1.4-5.1
		c2.2-1.1,4.9-1.6,8-1.6c4.3,0,7.4,1,9.3,2.9c2,1.9,3,5.6,3,11v6c0,3.7,0.7,6.1,2.2,7c-0.5,0.9-1.1,1.5-1.8,1.7
		c-0.7,0.2-1.4,0.3-2.3,0.3c-0.9,0-1.8-0.3-2.5-1C135.7,28.3,135.2,27.5,134.9,26.7 M134.3,16.4c-1.1-0.2-1.9-0.3-2.5-0.3
		c-5.1,0-7.7,1.7-7.7,5.1c0,2.5,1.4,3.8,4.3,3.8c3.9,0,5.8-2,5.8-5.9V16.4z"/>
	<path fill="#FFFFFF" d="M108,25c-1,0-2.1,0.1-3.4,0.4c-1.3,0.3-2.3,0.4-2.8,0.4c-1.3,0-1.9-0.4-1.9-1.1c0-0.4,0.4-0.8,1.3-1.2
		c0.8-0.4,1.3-0.6,1.5-0.6l1.1,0.2c0.8,0.1,1.5,0.1,2,0.1c3.1,0,5.7-1,7.7-3c2-2,3.1-4.7,3.1-8c0-2.3-0.6-4.4-1.7-6.1l0.3-0.2
		c-1.3-1.4-3.1-2.8-4.3-3.6l-0.2,0.2c-1.8-1-4-1.5-6.6-1.5c-3.4,0-6.2,1-8.5,3.1C93.2,6.2,92,8.8,92,12c0,4,1.7,7.1,5,9.3
		c-1,0.4-2,1.1-2.7,2.1c-0.8,0.9-1.2,1.9-1.2,2.8c0,3.4,2.4,5.1,7.1,5.1c0.8,0,1.9-0.1,3.4-0.3c1.5-0.2,2.7-0.3,3.4-0.3
		c2.8,0,4.2,2.7,4.2,4.4c0,1-0.3,3.7-2.1,4.6c-1.3,0.6-2.9,0.9-4.9,0.9c-2.9,0-5.6-1.1-8-3.3L92,42.6c3.6,2.7,7.7,4,12.2,4
		c3.8,0,7-0.8,9.6-2.5c3.2-2.1,4.1-6.2,4.1-9.1C118,29.5,114.6,25,108,25 M100.5,8.2c1-1,2.3-1.5,3.8-1.5c1.5,0,2.7,0.5,3.7,1.5
		c0.9,1,1.4,2.3,1.4,3.8c0,1.8-0.4,3.2-1.3,4.2c-0.9,1-2.1,1.5-3.7,1.5c-1.6,0-2.9-0.5-3.9-1.6c-1-1.1-1.4-2.4-1.4-4.2
		C99,10.4,99.5,9.2,100.5,8.2"/>
	<path fill="#FFFFFF" d="M19.1,1.2c-2,0-3.7,1.7-3.7,3.7c0,2.1,1.7,3.7,3.7,3.7h0.1h2.6v2.7h0c0,2,1.7,3.7,3.7,3.7
		c2,0,3.7-1.6,3.7-3.7V4.9c0-2.1-1.7-3.7-3.7-3.7H19.1L19.1,1.2z"/>
	<path fill="#FFFFFF" d="M2.3,36.7v2.2H4v1.7H2.3v2.8c0,0.9,0.2,1.3,0.9,1.3c0.3,0,0.5,0,0.7-0.1l0,1.8c-0.3,0.1-0.9,0.2-1.5,0.2
		c-0.8,0-1.4-0.3-1.8-0.7C0.2,45.6,0,44.9,0,43.8v-3.1v-1.7v-1.7L2.3,36.7z"/>
	<path fill="#FFFFFF" d="M14.6,41.9c0-0.6-0.2-1.5-1.3-1.5c-1,0-1.4,0.9-1.5,1.5H14.6z M11.8,43.5c0.1,1,1,1.4,2.2,1.4
		c0.8,0,1.5-0.1,2.1-0.3l0.3,1.6c-0.8,0.3-1.7,0.5-2.8,0.5c-2.6,0-4.1-1.5-4.1-3.9c0-1.9,1.2-4.1,3.8-4.1c2.5,0,3.4,1.9,3.4,3.8
		c0,0.4,0,0.8-0.1,0.9H11.8z"/>
	<polygon fill="#FFFFFF" points="22.9,37.5 22.9,46.5 25.3,46.5 25.3,36.8 	"/>
	<path fill="#FFFFFF" d="M36.5,41.9c0-0.6-0.2-1.5-1.3-1.5c-1,0-1.4,0.9-1.5,1.5H36.5z M33.7,43.5c0.1,1,1,1.4,2.2,1.4
		c0.8,0,1.5-0.1,2.1-0.3l0.3,1.6c-0.8,0.3-1.7,0.5-2.8,0.5c-2.6,0-4.1-1.5-4.1-3.9c0-1.9,1.2-4.1,3.9-4.1c2.5,0,3.4,1.9,3.4,3.8
		c0,0.4,0,0.8-0.1,0.9H33.7z"/>
	<path fill="#FFFFFF" d="M50.5,46.4c-0.4,0.2-1.2,0.3-2.1,0.3c-2.5,0-4-1.5-4-3.9c0-2.2,1.5-4.1,4.4-4.1c0.6,0,1.3,0.1,1.8,0.3
		l-0.4,1.8c-0.3-0.1-0.7-0.2-1.3-0.2c-1.2,0-2.1,0.9-2,2.1c0,1.4,0.9,2.1,2.1,2.1c0.6,0,1-0.1,1.4-0.2L50.5,46.4z"/>
	<path fill="#FFFFFF" d="M58.3,42.7c0,1.3,0.5,2.3,1.6,2.3c0.9,0,1.5-0.9,1.5-2.3c0-1.1-0.4-2.3-1.5-2.3
		C58.7,40.4,58.3,41.6,58.3,42.7 M63.8,42.6c0,2.8-2,4.1-4,4.1c-2.2,0-3.9-1.5-3.9-3.9c0-2.5,1.6-4,4.1-4
		C62.3,38.7,63.8,40.3,63.8,42.6"/>
	<path fill="#FFFFFF" d="M70,41.3c0-1,0-1.8-0.1-2.4h2l0.1,1h0c0.3-0.5,1-1.2,2.3-1.2c1,0,1.8,0.5,2.1,1.3h0c0.3-0.4,0.6-0.7,1-0.9
		c0.4-0.2,0.9-0.4,1.4-0.4c1.5,0,2.6,1,2.6,3.3v4.5h-2.3v-4.1c0-1.1-0.4-1.7-1.1-1.7c-0.5,0-0.9,0.4-1.1,0.8
		c-0.1,0.2-0.1,0.4-0.1,0.6v4.5h-2.3v-4.3c0-1-0.3-1.6-1.1-1.6c-0.6,0-1,0.5-1.1,0.9c-0.1,0.2-0.1,0.4-0.1,0.6v4.4H70V41.3z"/>
	<path fill="#8DC63F" d="M114.7,6.1l1.8-1.3c0,0,1.4-1.1,0-2.4c-1.4-1.3-1.9-1.8-1.9-1.8s-1.4-1.3-2.4-0.2c-0.8,0.9-1.8,2.1-1.8,2.1
		C111.6,3.3,113.5,4.7,114.7,6.1"/>
</g>
</svg>
