<?xml version="1.0" encoding="utf-8"?>
<!-- Generator: Adobe Illustrator 21.0.2, SVG Export Plug-In . SVG Version: 6.00 Build 0)  -->
<svg version="1.1" id="Layer_1" xmlns="http://www.w3.org/2000/svg" xmlns:xlink="http://www.w3.org/1999/xlink" x="0px" y="0px"
	 viewBox="0 0 600 300" style="enable-background:new 0 0 600 300;" xml:space="preserve">
<style type="text/css">
	.st0{fill:#EF503F;}
	.st1{fill:#DF3B27;}
	.st2{fill:#30302F;}
</style>
<g transform="translate(0 -1028.4)">
	<path class="st0" d="M294.3,1034.1c-19.9,0-36,16.9-36,37.7c0,6.7,1.7,13,4.6,18.4c0.5,0.9,1,1.8,1.5,2.7l29.8,54.3l29.8-54.3
		c0.5-0.7,0.9-1.5,1.3-2.2l0.3-0.4c2.9-5.4,4.6-11.7,4.6-18.4C330.3,1051,314.2,1034.1,294.3,1034.1z M294.3,1053
		c9.9,0,18,8.4,18,18.9c0,10.4-8.1,18.9-18,18.9c-9.9,0-18-8.4-18-18.9C276.3,1061.4,284.3,1053,294.3,1053z"/>
	<path class="st1" d="M294.3,1048.3c-12.4,0-22.5,10.5-22.5,23.6c0,13,10.1,23.6,22.5,23.6c12.4,0,22.5-10.6,22.5-23.6
		C316.8,1058.8,306.7,1048.3,294.3,1048.3z M294.3,1057.7c7.5,0,13.5,6.3,13.5,14.1c0,7.8-6,14.1-13.5,14.1
		c-7.5,0-13.5-6.3-13.5-14.1C280.8,1064,286.8,1057.7,294.3,1057.7z"/>
</g>
<g>
	<path class="st2" d="M35,266.5h2.1l4.5,11.4l4.5-11.4h2.1L43,279.8l6.3,15.3l11.5-28.8h2.4l-12.9,31.5h-2l-6.6-16.2L35,297.8h-2
		l-12.8-31.5h2.3l11.6,28.8l6.2-15.3L35,266.5z"/>
	<path class="st2" d="M96.3,295.8v2h-20v-31.5H96v2H78.5v12.4h15.3v2H78.5v13.1H96.3z"/>
	<path class="st2" d="M133,289.6c0,1.2-0.2,2.2-0.6,3.2c-0.4,1-1,1.9-1.7,2.6c-0.7,0.7-1.6,1.3-2.6,1.7c-1,0.4-2,0.6-3.1,0.6h-14.1
		v-31.5h14c1,0,2,0.2,2.8,0.7s1.6,1.1,2.2,1.8c0.6,0.8,1.1,1.6,1.4,2.6c0.3,1,0.5,1.9,0.5,2.9c0,1.6-0.4,3.1-1.1,4.4
		c-0.8,1.3-1.8,2.3-3.2,2.9c1.7,0.5,3.1,1.5,4.1,3C132.5,286.1,133,287.8,133,289.6z M113,268.4V281h11c0.8,0,1.6-0.2,2.2-0.5
		s1.3-0.8,1.8-1.4c0.5-0.6,0.9-1.2,1.2-2c0.3-0.8,0.4-1.6,0.4-2.3c0-0.9-0.1-1.7-0.4-2.4c-0.3-0.8-0.6-1.4-1.1-2
		c-0.5-0.6-1-1-1.7-1.4c-0.6-0.3-1.4-0.5-2.2-0.5H113z M130.8,289.3c0-0.8-0.1-1.6-0.4-2.4c-0.3-0.8-0.7-1.5-1.2-2.1
		c-0.5-0.6-1.1-1.1-1.8-1.4c-0.7-0.4-1.4-0.5-2.2-0.5H113v12.9h11.9c0.8,0,1.6-0.2,2.4-0.5s1.3-0.8,1.9-1.4c0.5-0.6,0.9-1.3,1.2-2.1
		C130.7,291,130.8,290.2,130.8,289.3z"/>
	<path class="st2" d="M187.6,297.8l-3.9-4.2c-1.2,1.4-2.5,2.5-4.1,3.4c-1.6,0.8-3.3,1.3-5.2,1.3c-1.2,0-2.4-0.2-3.6-0.6
		c-1.1-0.4-2.2-0.9-3-1.7c-0.9-0.7-1.6-1.6-2.1-2.6s-0.8-2.2-0.8-3.5c0-1.1,0.2-2,0.5-2.9c0.4-0.9,0.8-1.7,1.4-2.5
		c0.6-0.8,1.3-1.5,2.1-2.1c0.8-0.7,1.7-1.3,2.6-2c-0.8-0.9-1.5-1.7-2-2.4c-0.6-0.7-1-1.4-1.3-2s-0.6-1.2-0.7-1.7
		c-0.2-0.5-0.2-1.1-0.2-1.6c0-0.9,0.2-1.8,0.6-2.6c0.4-0.8,0.9-1.5,1.5-2.1c0.6-0.6,1.4-1.1,2.3-1.5c0.9-0.4,1.9-0.5,2.9-0.5
		c1,0,1.8,0.2,2.7,0.5c0.8,0.3,1.5,0.7,2.1,1.3c0.6,0.5,1.1,1.2,1.4,1.9c0.3,0.7,0.5,1.5,0.5,2.4c0,0.9-0.2,1.7-0.6,2.5
		c-0.4,0.8-0.9,1.5-1.5,2.2c-0.6,0.7-1.4,1.4-2.2,2c-0.8,0.6-1.7,1.3-2.6,1.9l9.1,9.8c0.6-1.2,1.1-2.4,1.4-3.8s0.5-2.8,0.5-4.3h1.9
		c-0.1,3.5-0.9,6.7-2.5,9.5l5.5,5.9H187.6z M174.8,296.4c1.6,0,3.1-0.4,4.4-1.1c1.3-0.8,2.4-1.8,3.4-3l-9.6-10.5
		c-0.8,0.6-1.6,1.2-2.3,1.8c-0.7,0.6-1.3,1.2-1.8,1.9c-0.5,0.7-1,1.4-1.2,2.1c-0.3,0.8-0.4,1.6-0.4,2.5c0,1.1,0.2,2,0.7,2.8
		c0.5,0.8,1,1.5,1.8,2c0.7,0.5,1.5,1,2.5,1.2C173,296.3,173.9,296.4,174.8,296.4z M169.4,272.6c0,0.4,0,0.8,0.1,1.2
		c0.1,0.4,0.3,0.8,0.6,1.3c0.3,0.5,0.7,1.1,1.2,1.8c0.5,0.7,1.2,1.5,2,2.4c1.9-1.3,3.4-2.4,4.5-3.5c1.1-1.1,1.7-2.3,1.7-3.7
		c0-1.2-0.5-2.3-1.4-3.1c-0.9-0.8-2.1-1.2-3.5-1.2c-0.8,0-1.5,0.1-2.1,0.4c-0.6,0.3-1.2,0.6-1.7,1.1c-0.5,0.4-0.9,1-1.1,1.6
		C169.5,271.3,169.4,272,169.4,272.6z"/>
	<path class="st2" d="M250,297.8v-27.2l-11.9,21.2h-1.4L225,270.6v27.2h-2.2v-31.5h2.2l12.5,22.5l12.5-22.5h2.2v31.5H250z"/>
	<path class="st2" d="M280.7,298c-2.1,0-4-0.5-5.7-1.4c-1.7-0.9-3.2-2.1-4.4-3.6c-1.2-1.5-2.2-3.2-2.9-5.1c-0.7-1.9-1-3.9-1-5.9
		c0-2.1,0.4-4.1,1.1-6c0.7-1.9,1.7-3.6,3-5.1c1.3-1.5,2.7-2.7,4.5-3.5c1.7-0.9,3.6-1.3,5.6-1.3c2.1,0,4,0.5,5.7,1.4
		c1.7,0.9,3.2,2.2,4.4,3.7s2.2,3.2,2.9,5.1c0.7,1.9,1,3.8,1,5.8c0,2.1-0.4,4.2-1.1,6.1c-0.7,1.9-1.7,3.6-3,5.1
		c-1.3,1.5-2.7,2.6-4.5,3.5C284.5,297.6,282.7,298,280.7,298z M268.8,282.1c0,1.8,0.3,3.5,0.9,5.2c0.6,1.7,1.4,3.1,2.5,4.4
		c1.1,1.3,2.3,2.3,3.8,3.1c1.5,0.8,3.1,1.2,4.8,1.2c1.8,0,3.4-0.4,4.9-1.2c1.5-0.8,2.7-1.9,3.7-3.2c1-1.3,1.8-2.8,2.4-4.5
		c0.6-1.7,0.8-3.3,0.8-5.1c0-1.8-0.3-3.5-0.9-5.2c-0.6-1.7-1.4-3.1-2.5-4.4s-2.3-2.3-3.7-3.1c-1.4-0.8-3-1.2-4.7-1.2
		c-1.8,0-3.4,0.4-4.9,1.2c-1.5,0.8-2.7,1.9-3.8,3.2c-1,1.3-1.9,2.8-2.4,4.5C269,278.7,268.8,280.3,268.8,282.1z"/>
	<path class="st2" d="M331.3,289.6c0,1.2-0.2,2.2-0.6,3.2s-1,1.9-1.7,2.6c-0.7,0.7-1.6,1.3-2.6,1.7c-1,0.4-2,0.6-3.1,0.6h-14.1
		v-31.5h14c1,0,2,0.2,2.8,0.7s1.6,1.1,2.2,1.8c0.6,0.8,1.1,1.6,1.4,2.6c0.3,1,0.5,1.9,0.5,2.9c0,1.6-0.4,3.1-1.1,4.4
		s-1.8,2.3-3.2,2.9c1.7,0.5,3.1,1.5,4.1,3C330.8,286.1,331.3,287.8,331.3,289.6z M311.3,268.4V281h11c0.8,0,1.6-0.2,2.2-0.5
		s1.3-0.8,1.8-1.4s0.9-1.2,1.2-2s0.4-1.6,0.4-2.3c0-0.9-0.1-1.7-0.4-2.4c-0.3-0.8-0.6-1.4-1.1-2s-1-1-1.7-1.4
		c-0.7-0.3-1.4-0.5-2.2-0.5H311.3z M329.2,289.3c0-0.8-0.1-1.6-0.4-2.4s-0.7-1.5-1.2-2.1c-0.5-0.6-1.1-1.1-1.8-1.4
		c-0.7-0.4-1.4-0.5-2.2-0.5h-12.2v12.9h11.9c0.8,0,1.6-0.2,2.4-0.5c0.7-0.4,1.3-0.8,1.9-1.4c0.5-0.6,0.9-1.3,1.2-2.1
		C329,291,329.2,290.2,329.2,289.3z"/>
	<path class="st2" d="M345.8,297.8v-31.5h2.2v31.5H345.8z"/>
	<path class="st2" d="M364.5,297.8v-31.5h2.2v29.4h18v2H364.5z"/>
	<path class="st2" d="M417.7,295.8v2h-20v-31.5h19.7v2h-17.5v12.4h15.3v2h-15.3v13.1H417.7z"/>
	<path class="st2" d="M459.8,266.3h1.9l12.7,31.5h-2.3l-4.2-10.4h-14.4l-4.2,10.4H447L459.8,266.3z M467.3,285.6l-6.6-16.5
		l-6.7,16.5H467.3z"/>
	<path class="st2" d="M487.6,297.8v-31.5h12.4c1.3,0,2.4,0.3,3.5,0.8c1.1,0.6,2,1.3,2.8,2.2c0.8,0.9,1.4,2,1.8,3.1
		c0.4,1.2,0.7,2.3,0.7,3.5c0,1.3-0.2,2.5-0.6,3.7c-0.4,1.2-1,2.2-1.7,3.1c-0.7,0.9-1.6,1.6-2.7,2.2s-2.2,0.8-3.5,0.8h-10.5v11.9
		H487.6z M489.7,283.8h10.4c1,0,1.9-0.2,2.7-0.6c0.8-0.4,1.5-1,2-1.7c0.6-0.7,1-1.6,1.3-2.5c0.3-0.9,0.4-1.9,0.4-2.9
		c0-1-0.2-2-0.5-2.9s-0.8-1.8-1.4-2.5s-1.3-1.3-2.1-1.7c-0.8-0.4-1.7-0.6-2.6-0.6h-10.1V283.8z"/>
	<path class="st2" d="M522.5,297.8v-31.5h12.4c1.3,0,2.4,0.3,3.5,0.8c1.1,0.6,2,1.3,2.8,2.2c0.8,0.9,1.4,2,1.8,3.1
		c0.4,1.2,0.7,2.3,0.7,3.5c0,1.3-0.2,2.5-0.6,3.7c-0.4,1.2-1,2.2-1.7,3.1c-0.7,0.9-1.6,1.6-2.7,2.2s-2.2,0.8-3.5,0.8h-10.5v11.9
		H522.5z M524.6,283.8H535c1,0,1.9-0.2,2.7-0.6c0.8-0.4,1.5-1,2-1.7c0.6-0.7,1-1.6,1.3-2.5c0.3-0.9,0.4-1.9,0.4-2.9
		c0-1-0.2-2-0.5-2.9s-0.8-1.8-1.4-2.5s-1.3-1.3-2.1-1.7c-0.8-0.4-1.7-0.6-2.6-0.6h-10.1V283.8z"/>
	<path class="st2" d="M574.9,271.6c-1.9-2.3-4.7-3.4-8.3-3.4c-2.9,0-5.1,0.6-6.4,1.8s-2,2.7-2,4.7c0,1,0.2,1.8,0.5,2.5
		s0.9,1.2,1.6,1.7s1.6,0.9,2.7,1.2c1.1,0.3,2.4,0.7,4,1c1.6,0.4,3.1,0.7,4.4,1.2c1.3,0.4,2.4,1,3.3,1.6c0.9,0.7,1.6,1.4,2.1,2.4
		c0.5,0.9,0.7,2.1,0.7,3.5c0,1.4-0.3,2.6-0.8,3.6c-0.5,1-1.3,1.9-2.2,2.6c-0.9,0.7-2.1,1.2-3.4,1.6s-2.8,0.5-4.4,0.5
		c-4.7,0-8.7-1.6-11.9-4.7l1.1-1.8c1.3,1.4,2.8,2.5,4.7,3.3s3.9,1.2,6.2,1.2c2.6,0,4.7-0.5,6.2-1.5c1.5-1,2.2-2.5,2.2-4.6
		c0-1-0.2-1.9-0.6-2.6c-0.4-0.7-1-1.4-1.8-1.9c-0.8-0.5-1.8-1-2.9-1.4c-1.2-0.4-2.6-0.8-4.2-1.1c-1.6-0.4-3-0.7-4.3-1.1
		c-1.2-0.4-2.3-0.9-3.1-1.5s-1.5-1.3-1.9-2.2c-0.4-0.9-0.6-1.9-0.6-3.2c0-1.4,0.3-2.7,0.8-3.8c0.5-1.1,1.2-2,2.2-2.8
		c0.9-0.8,2-1.3,3.3-1.7c1.3-0.4,2.7-0.6,4.3-0.6c1.9,0,3.7,0.3,5.2,0.9c1.5,0.6,2.9,1.5,4.2,2.8L574.9,271.6z"/>
</g>
<g>
	<path class="st2" d="M38.7,179.4c-1.4,1.2-2.1,2.8-2.1,4.8s0.9,3.6,2.6,4.7c1.7,1.2,5.7,2.6,11.8,4.1c6.2,1.6,11,4,14.4,7.2
		c3.4,3.2,5.1,7.8,5.1,13.9c0,6.1-2.2,11.1-6.6,14.9c-4.4,3.8-10.1,5.7-17.3,5.7c-10.3,0-19.6-4-27.9-12l8.7-11.1
		c7,6.4,13.5,9.7,19.5,9.7c2.7,0,4.8-0.6,6.3-1.8c1.5-1.2,2.3-2.8,2.3-4.9c0-2-0.8-3.7-2.4-4.9c-1.6-1.2-4.8-2.4-9.6-3.7
		c-7.6-1.9-13.1-4.3-16.6-7.4c-3.5-3-5.3-7.8-5.3-14.2c0-6.5,2.2-11.5,6.7-15c4.4-3.5,10-5.3,16.6-5.3c4.3,0,8.7,0.8,13,2.3
		c4.3,1.6,8.1,3.8,11.4,6.6L62,184.3c-5.7-4.5-11.5-6.7-17.5-6.7C42,177.6,40.1,178.2,38.7,179.4z"/>
	<path class="st2" d="M110.5,233.9H96V207l-22.6-41.3h15.8l14.1,25.4l14.1-25.4h15.8L110.5,207V233.9z"/>
	<path class="st2" d="M185.7,165.8h14.5v68.2h-14.5l-31-42.7v42.7h-14.5v-68.2h13.6l32,43.9V165.8z"/>
	<path class="st2" d="M266,174.7c6.2,5.9,9.3,14.2,9.3,24.8c0,10.6-3,19-9.1,25.2c-6.1,6.2-15.3,9.3-27.7,9.3h-22.3v-68.2h23
		C250.9,165.8,259.8,168.7,266,174.7z M255.3,215.2c3.6-3.5,5.4-8.6,5.4-15.3c0-6.7-1.8-11.9-5.4-15.5c-3.6-3.6-9.1-5.4-16.5-5.4
		h-8.1v41.5h9.2C246.7,220.5,251.8,218.7,255.3,215.2z"/>
	<path class="st2" d="M287.9,165.8h14.5v68.2h-14.5V165.8z"/>
	<path class="st2" d="M348.4,220.5c7.1,0,13-3,17.5-8.9l9.3,10c-7.4,8.7-16.1,13.1-26.1,13.1c-10,0-18.3-3.3-24.8-9.9
		c-6.5-6.6-9.7-15-9.7-25.1c0-10.1,3.3-18.5,9.9-25.3c6.6-6.8,14.7-10.1,24.3-10.1c10.7,0,19.6,4.3,26.8,12.8l-9,10.7
		c-4.6-6-10.3-9-17.2-9c-5.5,0-10.1,1.9-14,5.6c-3.9,3.7-5.8,8.8-5.8,15.1c0,6.3,1.8,11.4,5.5,15.3
		C338.8,218.6,343.2,220.5,348.4,220.5z"/>
	<path class="st2" d="M440.1,224.5c-6.6,6.7-14.7,10.1-24.3,10.1c-9.6,0-17.7-3.4-24.3-10.1c-6.6-6.7-9.9-15.1-9.9-25.1
		c0-10,3.3-18.4,9.9-25.1c6.6-6.7,14.7-10.1,24.3-10.1c9.6,0,17.7,3.4,24.3,10.1c6.6,6.7,9.9,15.1,9.9,25.1
		C450,209.4,446.7,217.8,440.1,224.5z M435.2,199.5c0-6.1-1.9-11.3-5.6-15.6s-8.3-6.4-13.7-6.4c-5.4,0-10,2.1-13.7,6.4
		c-3.7,4.3-5.6,9.5-5.6,15.6c0,6.1,1.9,11.2,5.6,15.5c3.7,4.3,8.3,6.4,13.7,6.4c5.4,0,10-2.1,13.7-6.4
		C433.3,210.7,435.2,205.5,435.2,199.5z"/>
	<path class="st2" d="M512.1,174.7c6.2,5.9,9.3,14.2,9.3,24.8c0,10.6-3,19-9.1,25.2c-6.1,6.2-15.3,9.3-27.7,9.3h-22.3v-68.2h23
		C497,165.8,505.9,168.7,512.1,174.7z M501.4,215.2c3.6-3.5,5.4-8.6,5.4-15.3c0-6.7-1.8-11.9-5.4-15.5c-3.6-3.6-9.1-5.4-16.5-5.4
		h-8.1v41.5h9.2C492.7,220.5,497.8,218.7,501.4,215.2z"/>
	<path class="st2" d="M581,165.8v13.6h-32.4v14h29.2v13h-29.2v14.1H582v13.5h-48v-68.2H581z"/>
</g>
</svg>
