<svg xmlns="http://www.w3.org/2000/svg" viewBox="0 0 600 300"><path d="M294.3 5.7c-19.9 0-36 16.9-36 37.7 0 6.7 1.7 13 4.6 18.4l1.5 2.7 29.8 54.3L324 64.5c.5-.7.9-1.5 1.3-2.2l.3-.4c2.9-5.4 4.6-11.7 4.6-18.4.1-20.9-16-37.8-35.9-37.8zm0 18.9c9.9 0 18 8.4 18 18.9 0 10.4-8.1 18.9-18 18.9s-18-8.4-18-18.9c0-10.5 8-18.9 18-18.9z" fill="#ef503f"/><path d="M294.3 19.9c-12.4 0-22.5 10.5-22.5 23.6 0 13 10.1 23.6 22.5 23.6s22.5-10.6 22.5-23.6c0-13.1-10.1-23.6-22.5-23.6zm0 9.4c7.5 0 13.5 6.3 13.5 14.1s-6 14.1-13.5 14.1-13.5-6.3-13.5-14.1 6-14.1 13.5-14.1z" fill="#df3b27"/><path d="M35 266.5h2.1l4.5 11.4 4.5-11.4h2.1L43 279.8l6.3 15.3 11.5-28.8h2.4l-12.9 31.5h-2l-6.6-16.2-6.7 16.2h-2l-12.8-31.5h2.3l11.6 28.8 6.2-15.3-5.3-13.3zm61.3 29.3v2h-20v-31.5H96v2H78.5v12.4h15.3v2H78.5v13.1h17.8zm36.7-6.2c0 1.2-.2 2.2-.6 3.2-.4 1-1 1.9-1.7 2.6-.7.7-1.6 1.3-2.6 1.7-1 .4-2 .6-3.1.6h-14.1v-31.5h14c1 0 2 .2 2.8.7s1.6 1.1 2.2 1.8c.6.8 1.1 1.6 1.4 2.6.3 1 .5 1.9.5 2.9 0 1.6-.4 3.1-1.1 4.4-.8 1.3-1.8 2.3-3.2 2.9 1.7.5 3.1 1.5 4.1 3 .9 1.6 1.4 3.3 1.4 5.1zm-20-21.2V281h11c.8 0 1.6-.2 2.2-.5s1.3-.8 1.8-1.4c.5-.6.9-1.2 1.2-2 .3-.8.4-1.6.4-2.3 0-.9-.1-1.7-.4-2.4-.3-.8-.6-1.4-1.1-2-.5-.6-1-1-1.7-1.4-.6-.3-1.4-.5-2.2-.5H113zm17.8 20.9c0-.8-.1-1.6-.4-2.4-.3-.8-.7-1.5-1.2-2.1-.5-.6-1.1-1.1-1.8-1.4-.7-.4-1.4-.5-2.2-.5H113v12.9h11.9c.8 0 1.6-.2 2.4-.5s1.3-.8 1.9-1.4c.5-.6.9-1.3 1.2-2.1.3-.8.4-1.6.4-2.5zm56.8 8.5l-3.9-4.2c-1.2 1.4-2.5 2.5-4.1 3.4-1.6.8-3.3 1.3-5.2 1.3-1.2 0-2.4-.2-3.6-.6-1.1-.4-2.2-.9-3-1.7-.9-.7-1.6-1.6-2.1-2.6s-.8-2.2-.8-3.5c0-1.1.2-2 .5-2.9.4-.9.8-1.7 1.4-2.5.6-.8 1.3-1.5 2.1-2.1.8-.7 1.7-1.3 2.6-2-.8-.9-1.5-1.7-2-2.4-.6-.7-1-1.4-1.3-2s-.6-1.2-.7-1.7c-.2-.5-.2-1.1-.2-1.6 0-.9.2-1.8.6-2.6.4-.8.9-1.5 1.5-2.1.6-.6 1.4-1.1 2.3-1.5.9-.4 1.9-.5 2.9-.5s1.8.2 2.7.5c.8.3 1.5.7 2.1 1.3.6.5 1.1 1.2 1.4 1.9.3.7.5 1.5.5 2.4 0 .9-.2 1.7-.6 2.5-.4.8-.9 1.5-1.5 2.2-.6.7-1.4 1.4-2.2 2-.8.6-1.7 1.3-2.6 1.9l9.1 9.8c.6-1.2 1.1-2.4 1.4-3.8s.5-2.8.5-4.3h1.9c-.1 3.5-.9 6.7-2.5 9.5l5.5 5.9h-2.7zm-12.8-1.4c1.6 0 3.1-.4 4.4-1.1 1.3-.8 2.4-1.8 3.4-3l-9.6-10.5c-.8.6-1.6 1.2-2.3 1.8-.7.6-1.3 1.2-1.8 1.9s-1 1.4-1.2 2.1c-.3.8-.4 1.6-.4 2.5 0 1.1.2 2 .7 2.8.5.8 1 1.5 1.8 2 .7.5 1.5 1 2.5 1.2.7.2 1.6.3 2.5.3zm-5.4-23.8c0 .4 0 .8.1 1.2.1.4.3.8.6 1.3s.7 1.1 1.2 1.8 1.2 1.5 2 2.4c1.9-1.3 3.4-2.4 4.5-3.5s1.7-2.3 1.7-3.7c0-1.2-.5-2.3-1.4-3.1-.9-.8-2.1-1.2-3.5-1.2-.8 0-1.5.1-2.1.4-.6.3-1.2.6-1.7 1.1-.5.4-.9 1-1.1 1.6-.2.4-.3 1.1-.3 1.7zm80.6 25.2v-27.2l-11.9 21.2h-1.4L225 270.6v27.2h-2.2v-31.5h2.2l12.5 22.5 12.5-22.5h2.2v31.5H250zm30.7.2c-2.1 0-4-.5-5.7-1.4-1.7-.9-3.2-2.1-4.4-3.6-1.2-1.5-2.2-3.2-2.9-5.1-.7-1.9-1-3.9-1-5.9 0-2.1.4-4.1 1.1-6 .7-1.9 1.7-3.6 3-5.1 1.3-1.5 2.7-2.7 4.5-3.5 1.7-.9 3.6-1.3 5.6-1.3 2.1 0 4 .5 5.7 1.4 1.7.9 3.2 2.2 4.4 3.7s2.2 3.2 2.9 5.1c.7 1.9 1 3.8 1 5.8 0 2.1-.4 4.2-1.1 6.1-.7 1.9-1.7 3.6-3 5.1-1.3 1.5-2.7 2.6-4.5 3.5-1.8.8-3.6 1.2-5.6 1.2zm-11.9-15.9c0 1.8.3 3.5.9 5.2.6 1.7 1.4 3.1 2.5 4.4 1.1 1.3 2.3 2.3 3.8 3.1 1.5.8 3.1 1.2 4.8 1.2 1.8 0 3.4-.4 4.9-1.2 1.5-.8 2.7-1.9 3.7-3.2 1-1.3 1.8-2.8 2.4-4.5.6-1.7.8-3.3.8-5.1 0-1.8-.3-3.5-.9-5.2-.6-1.7-1.4-3.1-2.5-4.4s-2.3-2.3-3.7-3.1c-1.4-.8-3-1.2-4.7-1.2-1.8 0-3.4.4-4.9 1.2-1.5.8-2.7 1.9-3.8 3.2-1 1.3-1.9 2.8-2.4 4.5-.7 1.7-.9 3.3-.9 5.1zm62.5 7.5c0 1.2-.2 2.2-.6 3.2s-1 1.9-1.7 2.6c-.7.7-1.6 1.3-2.6 1.7-1 .4-2 .6-3.1.6h-14.1v-31.5h14c1 0 2 .2 2.8.7s1.6 1.1 2.2 1.8c.6.8 1.1 1.6 1.4 2.6.3 1 .5 1.9.5 2.9 0 1.6-.4 3.1-1.1 4.4s-1.8 2.3-3.2 2.9c1.7.5 3.1 1.5 4.1 3 .9 1.6 1.4 3.3 1.4 5.1zm-20-21.2V281h11c.8 0 1.6-.2 2.2-.5s1.3-.8 1.8-1.4.9-1.2 1.2-2 .4-1.6.4-2.3c0-.9-.1-1.7-.4-2.4-.3-.8-.6-1.4-1.1-2s-1-1-1.7-1.4c-.7-.3-1.4-.5-2.2-.5h-11.2zm17.9 20.9c0-.8-.1-1.6-.4-2.4s-.7-1.5-1.2-2.1c-.5-.6-1.1-1.1-1.8-1.4-.7-.4-1.4-.5-2.2-.5h-12.2v12.9h11.9c.8 0 1.6-.2 2.4-.5.7-.4 1.3-.8 1.9-1.4.5-.6.9-1.3 1.2-2.1.2-.8.4-1.6.4-2.5zm16.6 8.5v-31.5h2.2v31.5h-2.2zm18.7 0v-31.5h2.2v29.4h18v2h-20.2zm53.2-2v2h-20v-31.5h19.7v2h-17.5v12.4h15.3v2h-15.3v13.1h17.8zm42.1-29.5h1.9l12.7 31.5h-2.3l-4.2-10.4h-14.4l-4.2 10.4H447l12.8-31.5zm7.5 19.3l-6.6-16.5-6.7 16.5h13.3zm20.3 12.2v-31.5H500c1.3 0 2.4.3 3.5.8 1.1.6 2 1.3 2.8 2.2.8.9 1.4 2 1.8 3.1.4 1.2.7 2.3.7 3.5 0 1.3-.2 2.5-.6 3.7-.4 1.2-1 2.2-1.7 3.1-.7.9-1.6 1.6-2.7 2.2s-2.2.8-3.5.8h-10.5v11.9h-2.2zm2.1-14h10.4c1 0 1.9-.2 2.7-.6.8-.4 1.5-1 2-1.7.6-.7 1-1.6 1.3-2.5.3-.9.4-1.9.4-2.9s-.2-2-.5-2.9-.8-1.8-1.4-2.5-1.3-1.3-2.1-1.7c-.8-.4-1.7-.6-2.6-.6h-10.1v15.4zm32.8 14v-31.5h12.4c1.3 0 2.4.3 3.5.8 1.1.6 2 1.3 2.8 2.2.8.9 1.4 2 1.8 3.1.4 1.2.7 2.3.7 3.5 0 1.3-.2 2.5-.6 3.7-.4 1.2-1 2.2-1.7 3.1-.7.9-1.6 1.6-2.7 2.2s-2.2.8-3.5.8h-10.5v11.9h-2.2zm2.1-14H535c1 0 1.9-.2 2.7-.6.8-.4 1.5-1 2-1.7.6-.7 1-1.6 1.3-2.5.3-.9.4-1.9.4-2.9s-.2-2-.5-2.9-.8-1.8-1.4-2.5-1.3-1.3-2.1-1.7c-.8-.4-1.7-.6-2.6-.6h-10.1v15.4zm50.3-12.2c-1.9-2.3-4.7-3.4-8.3-3.4-2.9 0-5.1.6-6.4 1.8s-2 2.7-2 4.7c0 1 .2 1.8.5 2.5s.9 1.2 1.6 1.7 1.6.9 2.7 1.2c1.1.3 2.4.7 4 1 1.6.4 3.1.7 4.4 1.2 1.3.4 2.4 1 3.3 1.6.9.7 1.6 1.4 2.1 2.4.5.9.7 2.1.7 3.5s-.3 2.6-.8 3.6-1.3 1.9-2.2 2.6c-.9.7-2.1 1.2-3.4 1.6s-2.8.5-4.4.5c-4.7 0-8.7-1.6-11.9-4.7l1.1-1.8c1.3 1.4 2.8 2.5 4.7 3.3s3.9 1.2 6.2 1.2c2.6 0 4.7-.5 6.2-1.5s2.2-2.5 2.2-4.6c0-1-.2-1.9-.6-2.6-.4-.7-1-1.4-1.8-1.9s-1.8-1-2.9-1.4c-1.2-.4-2.6-.8-4.2-1.1-1.6-.4-3-.7-4.3-1.1-1.2-.4-2.3-.9-3.1-1.5s-1.5-1.3-1.9-2.2c-.4-.9-.6-1.9-.6-3.2 0-1.4.3-2.7.8-3.8.5-1.1 1.2-2 2.2-2.8.9-.8 2-1.3 3.3-1.7 1.3-.4 2.7-.6 4.3-.6 1.9 0 3.7.3 5.2.9 1.5.6 2.9 1.5 4.2 2.8l-.9 1.8zM38.7 179.4c-1.4 1.2-2.1 2.8-2.1 4.8s.9 3.6 2.6 4.7c1.7 1.2 5.7 2.6 11.8 4.1 6.2 1.6 11 4 14.4 7.2 3.4 3.2 5.1 7.8 5.1 13.9 0 6.1-2.2 11.1-6.6 14.9-4.4 3.8-10.1 5.7-17.3 5.7-10.3 0-19.6-4-27.9-12l8.7-11.1c7 6.4 13.5 9.7 19.5 9.7 2.7 0 4.8-.6 6.3-1.8 1.5-1.2 2.3-2.8 2.3-4.9 0-2-.8-3.7-2.4-4.9-1.6-1.2-4.8-2.4-9.6-3.7-7.6-1.9-13.1-4.3-16.6-7.4-3.5-3-5.3-7.8-5.3-14.2 0-6.5 2.2-11.5 6.7-15 4.4-3.5 10-5.3 16.6-5.3 4.3 0 8.7.8 13 2.3 4.3 1.6 8.1 3.8 11.4 6.6L62 184.3c-5.7-4.5-11.5-6.7-17.5-6.7-2.5 0-4.4.6-5.8 1.8zm71.8 54.5H96V207l-22.6-41.3h15.8l14.1 25.4 14.1-25.4h15.8L110.5 207v26.9zm75.2-68.1h14.5V234h-14.5l-31-42.7V234h-14.5v-68.2h13.6l32 43.9v-43.9zm80.3 8.9c6.2 5.9 9.3 14.2 9.3 24.8 0 10.6-3 19-9.1 25.2-6.1 6.2-15.3 9.3-27.7 9.3h-22.3v-68.2h23c11.7 0 20.6 2.9 26.8 8.9zm-10.7 40.5c3.6-3.5 5.4-8.6 5.4-15.3 0-6.7-1.8-11.9-5.4-15.5-3.6-3.6-9.1-5.4-16.5-5.4h-8.1v41.5h9.2c6.8 0 11.9-1.8 15.4-5.3zm32.6-49.4h14.5V234h-14.5v-68.2zm60.5 54.7c7.1 0 13-3 17.5-8.9l9.3 10c-7.4 8.7-16.1 13.1-26.1 13.1s-18.3-3.3-24.8-9.9c-6.5-6.6-9.7-15-9.7-25.1 0-10.1 3.3-18.5 9.9-25.3 6.6-6.8 14.7-10.1 24.3-10.1 10.7 0 19.6 4.3 26.8 12.8l-9 10.7c-4.6-6-10.3-9-17.2-9-5.5 0-10.1 1.9-14 5.6-3.9 3.7-5.8 8.8-5.8 15.1 0 6.3 1.8 11.4 5.5 15.3 3.7 3.8 8.1 5.7 13.3 5.7zm91.7 4c-6.6 6.7-14.7 10.1-24.3 10.1-9.6 0-17.7-3.4-24.3-10.1-6.6-6.7-9.9-15.1-9.9-25.1 0-10 3.3-18.4 9.9-25.1 6.6-6.7 14.7-10.1 24.3-10.1 9.6 0 17.7 3.4 24.3 10.1 6.6 6.7 9.9 15.1 9.9 25.1 0 10-3.3 18.4-9.9 25.1zm-4.9-25c0-6.1-1.9-11.3-5.6-15.6s-8.3-6.4-13.7-6.4c-5.4 0-10 2.1-13.7 6.4-3.7 4.3-5.6 9.5-5.6 15.6s1.9 11.2 5.6 15.5c3.7 4.3 8.3 6.4 13.7 6.4 5.4 0 10-2.1 13.7-6.4 3.7-4.3 5.6-9.5 5.6-15.5zm76.9-24.8c6.2 5.9 9.3 14.2 9.3 24.8 0 10.6-3 19-9.1 25.2-6.1 6.2-15.3 9.3-27.7 9.3h-22.3v-68.2h23c11.7 0 20.6 2.9 26.8 8.9zm-10.7 40.5c3.6-3.5 5.4-8.6 5.4-15.3 0-6.7-1.8-11.9-5.4-15.5-3.6-3.6-9.1-5.4-16.5-5.4h-8.1v41.5h9.2c6.7 0 11.8-1.8 15.4-5.3zm79.6-49.4v13.6h-32.4v14h29.2v13h-29.2v14.1H582V234h-48v-68.2h47z" fill="#30302f"/></svg>