<svg xmlns="http://www.w3.org/2000/svg" viewBox="0 0 74.66 80.61"><defs><style>.cls-1{fill:#2e6fff}</style></defs><g id="Слой_2" data-name="Слой 2"><g id="Слой_1-2" data-name="Слой 1"><path class="cls-1" d="M38.85 10.66C25.92 11.68 13.25 19.26 9 32c-3.29 10-2.29 23.08 5.12 31 8.83 9.49 29.27 14.24 40.19 6 9.59-7.2 12.84-20.76 11.87-32.18C64.94 21.79 52.6 8.75 36.66 10.86c-.74.1-.4 5-.09 5 14-1.85 27.23 8.76 28.89 22.76 1 8.71-3.35 18.82-9.93 24.55C50 68 43 68.5 36 67.68 20.85 65.91 3.82 55 9.1 37.06c3.79-12.87 17-20.4 29.67-21.4.66-.05.48-5 .08-5z" transform="translate(-.04)"/><path class="cls-1" d="M35.35 18.22a3.2 3.2 0 0 0 4.84.85c.51-.45.39-1.87.4-2.49a11.6 11.6 0 0 0-.07-1.77c0-.07-.16-.81-.24-.74a3.09 3.09 0 0 1-4.65-.67c-.24-.41-.47 1.63-.48 1.74 0 .84-.25 2.29.2 3.08zm1.2 52.44c-.08.75-.07.38.14.09a2.06 2.06 0 0 1 .56-.54 2.09 2.09 0 0 1 1.19-.32 1.9 1.9 0 0 1 1.09.41 2.08 2.08 0 0 1 .47.55c.59 1-.32 1.25.13-2.25a8.61 8.61 0 0 0 .07 3.4c.3.9.48-.65.51-.89.23-1.78.57-5.21-1.56-6.11a2.06 2.06 0 0 0-2.17.46 3.85 3.85 0 0 0-1 2.64 8.94 8.94 0 0 0 .02 3.45c.3.9.48-.64.51-.89zM61.1 55.18a2.92 2.92 0 0 1-2.1-1.73l-.18 4.91a4.27 4.27 0 0 1 3.42-1c.35.06.4-2.26.4-2.49s.14-2.44-.32-2.51a4.3 4.3 0 0 0-3.41 1c-.46.37-.37 1.66-.39 2.16a6.7 6.7 0 0 0 .21 2.75A3.28 3.28 0 0 0 61 60.18c.32.08.4-2.28.4-2.49a11.6 11.6 0 0 0-.07-1.77c0-.16 0-.69-.24-.74zM41.32 39c-2.1-.67-4.82-1.32-6.46.64-1.34 1.61-1.21 5-.69 6.86a3.36 3.36 0 0 0 4.26 2.38c1.93-.67 2.78-2.61 3.14-4.47a10.52 10.52 0 0 0 .06-3.54c-.12-.79-.33-.92-.5 0-.49 2.53-3.64 4.24-5.73 2.38-.21-.18-.37-.48-.57-.65-.27-.5-.31-.16-.1 1-.23 1.22-.16 1.5.23.86a5.32 5.32 0 0 1 1.77-1 8.19 8.19 0 0 1 4.5.55c.07 0 1-4.72.09-5z" transform="translate(-.04)"/><path class="cls-1" d="M37.68 38.21v-5.92c0-1-.57-4.2.82-4.12 2 .12 1 8.35 1 9.94 0 .27-.1 2.5.31 2.51s.4-2.37.4-2.49c0-1.58 1.16-15.77-1.85-14.93-1.72.49-1.37 4.26-1.38 5.48v10.85c0 .29 0 1.94.41 1.75s.31-2.74.3-3.07zm3.59 5.95l7.33-.08c1.66 0 4.75-.69 5.69 1.08l-.22-2.42v.64l.3-2.38c-1.06 2-4.82 1.72-6.83 1.84-2.48.14-4.95.14-7.43 0-.49 0-.66 5-.09 5a54.89 54.89 0 0 0 11.67-.42c2.74-.48 3.05-1.84 3.09-4.36 0-2 0-3.67-2.3-4-3.54-.5-7.54 0-11.12.09-.57 0-.58 5-.09 5zm8.84 19.14v2.16c-.12 2.07-.37 1.12.25.67a1.13 1.13 0 0 1 .71-.22 1.2 1.2 0 0 1 1.19.84c0 .22.1.41.27.26s.22-1 .24-1.15a12.25 12.25 0 0 0-.07-3.42c-.19-1-1.23-2-2.26-1.31a2 2 0 0 0-.78 1.23 9.23 9.23 0 0 0-.23 2.09 11.7 11.7 0 0 0 .09 2.37s.07.74.24.74.27-.72.27-.73a11.6 11.6 0 0 0 .06-3.53zm-27.23 3a5.33 5.33 0 0 1 3.05-1.71 2.3 2.3 0 0 1 1.41.31c.23.14.33.35.51.53l.09.19c.72-3.26.67-4.34-.12-3.24a2.93 2.93 0 0 0-.24 1.15 15.41 15.41 0 0 0-.07 1.92c0 .24.17 2.07.41 1.76.77-1 .67-2.76.65-3.92 0-1 0-2.3-.74-3.07-1.59-1.66-3.81.12-5.06 1.26-.18.16-.22 1-.24 1.14a15.56 15.56 0 0 0-.06 1.93c0 .25.08 2 .41 1.75zM8.45 45.61c.85-.13 2.68-.36 2.93.85L11.24 45l.18-2.41-.09.15a2.37 2.37 0 0 1-.27.28 1.84 1.84 0 0 1-.75.31 4.56 4.56 0 0 1-1.8-.12c-.34-.06-.4 2.28-.4 2.5a13.16 13.16 0 0 0 .07 1.77c0 .15.05.69.25.73A3.2 3.2 0 0 0 11 48c1-.74 1-2.37 1-3.5s.15-2.76-.86-3.56a3.16 3.16 0 0 0-2.57-.32c-.46.07-.4 2.17-.41 2.49s0 2.56.32 2.51zm56.79-8.07c-1.17-.14-2.47-.28-3.41.58-1.16 1.06-1 3.13-1 4.55 0 1.23.12 2.67 1.47 3.12 1.15.38 2.26-.29 3.21-.88.51-.32.39-2 .4-2.49a13 13 0 0 0-.32-2.51 5.23 5.23 0 0 1-2.4 1c-.69 0-1.63-.28-1.78-1l.14 1.5v-.24l-.13 2.43c.08-.55 1-.93 1.48-1a6.54 6.54 0 0 1 2.25 0c.36 0 .78-4.92.09-5zM17 27.37a2.08 2.08 0 0 0 3.36-1 11.91 11.91 0 0 0 .22-4.83 2.82 2.82 0 0 0-1.07-2.14c-.13-.09-.29.84-.27.72a10.55 10.55 0 0 0-.13 1.77 11.65 11.65 0 0 0 .07 1.77c0 .23 0 .59.24.74a1.45 1.45 0 0 1 .44.45 1.71 1.71 0 0 1 .14.27c.55 1 .58-.09.11-3.22a1.78 1.78 0 0 1-.74.82 2.06 2.06 0 0 1-2.28-.31c-.12-.1-.29.86-.27.73a11.5 11.5 0 0 0-.14 1.76 13 13 0 0 0 .08 1.77 1.13 1.13 0 0 0 .24.74zm37.24-9.48a6.76 6.76 0 0 0-.72 3.66 7.09 7.09 0 0 0 .56 3.7 2.33 2.33 0 0 0 3.75.21 3.12 3.12 0 0 0 .24-1.15 17.6 17.6 0 0 0 .07-1.92c0-.24-.14-2.07-.42-1.76a2.27 2.27 0 0 1-2.36.59 1.87 1.87 0 0 1-1-.78c-.08-.13-.12-.28-.19-.41 1.32 2.41-.72 4 .19 2.68a2.88 2.88 0 0 0 .23-1.15 13.64 13.64 0 0 0 .07-1.92 5.38 5.38 0 0 0-.13-1.5c0-.11-.11-.49-.28-.25zM25.05 22c1.06.37 2.44.72 3.16-.43a5 5 0 0 0 .48-2.41 7.22 7.22 0 0 0-.33-3.52c-.14-.27-.27.19-.28.24a6.27 6.27 0 0 0-.19 1.49 13.81 13.81 0 0 0 0 1.93 3.16 3.16 0 0 0 .19 1.15v-.2L28 17.76l.13-1.13-.09.13a2.16 2.16 0 0 1-.25.27 1.46 1.46 0 0 1-.78.29 4.47 4.47 0 0 1-1.9-.37c-.28-.1-.4 2.3-.4 2.49a13.1 13.1 0 0 0 .07 1.77c0 .18 0 .66.25.74zm22.3-2.22a2.41 2.41 0 0 0 3.41-.66A3.06 3.06 0 0 0 51 18a13.64 13.64 0 0 0 .07-1.92 6.81 6.81 0 0 0-.13-1.5c0-.11-.12-.49-.28-.25a2.29 2.29 0 0 1-3.22.48c-.12-.09-.28.85-.26.73a11.5 11.5 0 0 0-.18 1.73 13 13 0 0 0 .1 1.73c0 .23 0 .59.25.74zM12.12 34.43a5.81 5.81 0 0 1 2 .1 2.1 2.1 0 0 1 .69.33c.4.29.53 1 .48.12v-2.52c.1-.83.08-.5-.19-.27a1.68 1.68 0 0 1-.5.29 2.17 2.17 0 0 1-1.1.08 5.06 5.06 0 0 1-2.21-1.37c-.11-.1-.29.87-.26.73a11.63 11.63 0 0 0-.03 1.77c0 .6-.2 2 .32 2.5.78.7 1.73 1.53 2.87 1.39s1.63-1.23 1.76-2.36a16.47 16.47 0 0 0 .06-3 3.43 3.43 0 0 0-.59-2c-.8-.95-2.05-.91-3.18-.84-.65.05-.49 5-.09 5zm51.22-7.01a4.8 4.8 0 0 0-4.47.41c-.52.34-.4 2-.4 2.5 0 .34-.17 2.37.31 2.5l5 1.34c.31.09.39-2.29.4-2.49 0-.35.17-2.38-.32-2.51l-5-1.34-.09 5a4.8 4.8 0 0 1 4.47-.41c.26.1.4-2.31.4-2.49 0-.41.19-2.31-.31-2.51zm-50.07 31.4c1-.66 3.15-1.73 3.73 0l-.15-.64c.7-3.17.7-4.23 0-3.18l-.15.16a2.26 2.26 0 0 1-.58.34 4.8 4.8 0 0 1-1.24.37c-.46.09-.4 2.16-.4 2.5s0 2.56.31 2.5a3.58 3.58 0 0 0 2.11-1 2.64 2.64 0 0 0 .5-1.33 13.79 13.79 0 0 0 .11-3.21c-.07-1-.21-2-1.21-2.38s-2.08.25-2.92.81c-.2.14-.23.54-.27.73a15.72 15.72 0 0 0-.11 3.6c0 .07.13.81.24.73z" transform="translate(-.04)"/><path class="cls-1" d="M39.08.45C22.14 3.48 5.66 13.23 1.75 31.13A84.26 84.26 0 0 0 .26 54.42c.57 8.25 4.56 12.25 11.52 16.14 4 2.22 7.65 5 11.84 6.84 4.63 2 9.66 2.55 14.64 2.9 9.41.66 18.5.92 25.48-6.39C74 63.18 76.62 45.84 73.42 31.75 69.76 15.59 52.58-4.76 34.07 1c-.93.29-.13 5-.09 5C50.19 1 66 16.71 71.34 30.65a37.35 37.35 0 0 1-4.77 34.82C60.56 74 52.78 76 42.79 75.55c-9.69-.45-17.65-1.84-26-7-3.51-2.18-7.5-3.91-10.72-6.5C.36 57.41.69 50.41 1.08 43.61c.66-11.32 4.68-20.86 13.61-28C21.69 10 30.25 7 39 5.45c.8-.14.32-5 .09-5z" transform="translate(-.04)"/></g></g></svg>