<svg xmlns="http://www.w3.org/2000/svg" viewBox="0 0 433.14 365.12"><g data-name="Слой 2"><path d="M273.06 121.07c-7.28-7.76-19.21-10.75-29.54-11.69a73.72 73.72 0 0 0-30.61 3.9c-19.86 6.9-39.28 23.31-40.16 45.63-.43 10.84 2 20.37 10.74 27.32s20.69 10.42 31.57 12.92c22.88 5.26 50.25 3.26 65.6-16.86 7.8-10.22 9.35-23.79 7.69-36.25-1.58-11.77-10.37-23.57-23.61-19.83-1.05.29-.95 8.43 0 8.59 9.15 1.57 17.72 7.58 21.09 16.48 3.26 8.58-6.15 19.64-12.43 24.84-15.78 13.07-37.21 14.18-56.51 10.16-9.39-2-19.1-4.64-27.54-9.3a35.46 35.46 0 0 1-10.46-8.26 23.27 23.27 0 0 1-2.87-4.4c-1.41-2.91-1.21-4 0-7.11C182.9 140.61 200.28 129 217 124c17.55-5.24 40.15-4.68 55.95 5.58-.34-.21 1.36-7.23.16-8.51zM192 202.13c-28.65 25.67-56.2 52.52-84.77 78.3q-21.56 19.45-43.31 38.69-10.79 9.51-21.63 18.88c-7.62 6.62-14.7 13.49-21.93 20.48-1.1 1.06.55 6.29.13 6.6 3.91-2.86 7.92-5.31 11.65-8.39 3.91-3.24 7.75-6.58 11.59-9.9q10.86-9.4 21.59-19 21.32-18.94 42.05-38.53c29.08-27.49 57.91-55.19 84.64-85 .37-.42-.23-2.07 0-2.23zm-54.8 7.77l.46.19c.23.09.23-3 .19-3.23-.57-3.32-1.52-4-4.95-3.68a101.38 101.38 0 0 0-13.24 2.65c-9.76 2.31-19.55 4.57-29.25 7.15q-14.11 3.77-28.2 7.71c-9.74 2.73-19.84 5.19-29 9.47-1.25.58-.52 8.66 0 8.59 9.51-1.23 18.89-4.49 28.09-7.13q13.14-3.76 26.32-7.38c16.67-4.56 33.66-9.72 50.07-14.15l-.08-3.71-.42 1.06c-.13.33-.37 2.28 0 2.46zm7.62-47.73c-4.21-9.86-18.49-10.72-27.79-11.2q-19.2-1-38.42-1.62t-38.45-.94c-12.83-.17-26.81-1.63-39.44.69-1 .18-.95 8.27 0 8.44 12.39 2.14 25.88.79 38.45.94 12.82.15 25.64.35 38.45.7q18.72.49 37.44 1.34c5.61.25 11.26-.08 16.86.38a27.66 27.66 0 0 1 6.38 1.21c2 .66 4.35 2.65 6.48 2.13.32-.08.14-1.83 0-2.07zm24.12-46.34C149.21 98.62 121.33 92 96.38 86.28c-25.3-5.75-50.73-10.78-75.84-17.37-.11 0-.74 4.17 0 4.53C44.42 85 70.75 89.88 96.38 96c12.48 3 25 6.09 37.14 10.19 12 4 23.47 9.43 35.42 13.55.11 0 .5-3.46 0-3.9zM210.28 98c-2.05-15.77-2.85-31.45-.66-47.25 2-14.75 6.68-28.44 11.14-42.57a15.71 15.71 0 0 0 .24-5.54c0-.33-.41-3.15-.74-2.56-4.2 7.59-6.5 16.7-8.5 25.09a185.68 185.68 0 0 0-4.19 26.1c-1.52 16.71-1.4 34.2 2.26 50.62.16.72.53-3.19.44-3.92zm56.11 9c3-3.24 5.19-7.71 7.55-11.47 2.76-4.42 5.64-8.73 8.62-13 5.87-8.4 12.16-16.56 18.79-24.38 13.73-16.2 30-29.62 44.64-44.9 1-1.07-.28-7.92-.16-8-17.45 9.29-31.85 26.1-44.38 41.08a280.51 280.51 0 0 0-18.82 25.26c-6.11 9.26-12.6 19.14-16.47 29.59-.36 1 .12 5.91.23 5.8zM255 232.52c3.45 6.61 9 12.46 13.76 18.15q6.59 7.8 13 15.72c8.72 10.75 17.49 21.45 26.09 32.3 8.37 10.57 16.53 21.29 24.71 32 4.15 5.42 8.42 10.79 12.67 16.13 3.53 4.44 6.86 9.84 11.53 13.13 0 0 .55-5.49.12-6.37-6.14-12.7-15.76-24.66-24.42-35.77q-12.48-16-25.37-31.7c-8.37-10.18-16.82-20.29-25.57-30.13-4.56-5.13-9.11-10.27-13.7-15.36-3.39-3.77-8-10.28-12.78-12-.25-.09-.28 3.51-.07 3.91zm-37.19-3.43c-2.63 7.88-3.81 16.41-5.39 24.56s-3.1 16.52-4.46 24.82c-2.86 17.49-5.65 35.21-6.62 52.91 0 .58.4 4.76.65 3.53 3.31-16 4.57-32.63 7.06-48.8 2.77-18 6.62-35.83 9.11-53.83.08-.6-.15-3.81-.35-3.19zm84.87-29.42c11.47 21.09 33.14 34.84 52.77 47.62q16.57 10.8 33.39 21.21a321.07 321.07 0 0 0 34.68 18.28c-.19-.09 1.61-8 0-9.14-10.9-7.44-21.65-14.87-33-21.54q-16.82-9.84-33.41-20.1c-19.55-12.07-38.56-23.54-54.22-40.62 0 0-.63 3.45-.17 4.29zm-4.17-42.22c5.21.77 11.16-.82 16.4-1.43q8.22-.93 16.43-1.79c11.32-1.2 22.59-2.64 33.89-4q16.49-2 33-3.79 8.25-.89 16.52-1.68c5.94-.58 11.85-.72 17.52-2.66 1.24-.43 1.07-9.92 0-10.08-5.56-.79-11 .21-16.54.87s-11 1.33-16.53 2q-17 2.18-34 4.65c-11 1.61-22 3.36-32.92 5.53-5.49 1.09-11 2.23-16.43 3.38-5.64 1.18-12.19 1.7-17.37 4.24-.58.28-.53 4.68 0 4.76z" fill="#fff031" data-name="Слой 1"/></g></svg>