<svg xmlns="http://www.w3.org/2000/svg" viewBox="0 0 28.59 28.13"><g data-name="Слой 2"><path d="M28.36 8.47H.24v18.07a1.19 1.19 0 0 0 .09.51 1.61 1.61 0 0 0 .3.45 1.49 1.49 0 0 0 .44.3 1.31 1.31 0 0 0 .53.09H27a1.19 1.19 0 0 0 .51-.09 1.54 1.54 0 0 0 .45-.3 1.42 1.42 0 0 0 .3-.45 1.36 1.36 0 0 0 .1-.51zM21.53 1v3.48a.72.72 0 0 0 .07.28 1 1 0 0 0 .15.25 1 1 0 0 0 .25.16.77.77 0 0 0 .29.07.73.73 0 0 0 .3-.07.78.78 0 0 0 .24-.17.7.7 0 0 0 .17-.24.71.71 0 0 0 .06-.28V1A.67.67 0 0 0 23 .71a.56.56 0 0 0-.17-.25.81.81 0 0 0-.24-.17.73.73 0 0 0-.3 0 .74.74 0 0 0-.29 0 1 1 0 0 0-.25.17.76.76 0 0 0-.15.25.68.68 0 0 0-.07.28zm-.22 2.74V1a1.59 1.59 0 0 1 .06-.38 1.44 1.44 0 0 1 .23-.33.89.89 0 0 1 .32-.21.91.91 0 0 1 .37-.08 1 1 0 0 1 .38.08.92.92 0 0 1 .54.53 1 1 0 0 1 .08.38v3.49a.83.83 0 0 1-.08.36.81.81 0 0 1-.21.33 1 1 0 0 1-.33.22 1.17 1.17 0 0 1-.38.07 1.11 1.11 0 0 1-.37-.07.91.91 0 0 1-.32-.22 1.14 1.14 0 0 1-.23-.33 1.29 1.29 0 0 1-.06-.36zm-14.25 0V1A.68.68 0 0 0 7 .71a.63.63 0 0 0-.17-.25.85.85 0 0 0-.25-.17.66.66 0 0 0-.28 0 .65.65 0 0 0-.3 0 .74.74 0 0 0-.25.17.56.56 0 0 0-.17.25.66.66 0 0 0 0 .28v3.49a.7.7 0 0 0 .18.52.57.57 0 0 0 .24.17.65.65 0 0 0 .29.07.68.68 0 0 0 .28-.07.69.69 0 0 0 .43-.41.72.72 0 0 0 .07-.28zM7.28 1v3.48a1 1 0 0 1-.07.36 1 1 0 0 1-.21.33 1.1 1.1 0 0 1-.31.22 1.22 1.22 0 0 1-.38.07 1.17 1.17 0 0 1-.38-.07 1.06 1.06 0 0 1-.33-.22.93.93 0 0 1-.21-.33.83.83 0 0 1-.08-.36V1a1 1 0 0 1 .07-.39 1.11 1.11 0 0 1 .21-.32 1 1 0 0 1 .33-.21A1 1 0 0 1 6.3 0a1 1 0 0 1 .38.08A1.06 1.06 0 0 1 7 .29a1.14 1.14 0 0 1 .22.32 1.22 1.22 0 0 1 .06.39zm-7 6.8h28.08V5.43a1.55 1.55 0 0 0-.1-.52 1.33 1.33 0 0 0-.3-.43 1.39 1.39 0 0 0-.45-.31 1.36 1.36 0 0 0-.51-.1h-3.27v.41a1.72 1.72 0 0 1-.1.55 1.6 1.6 0 0 1-.32.45 1.4 1.4 0 0 1-.47.32 1.26 1.26 0 0 1-.55.12 1.33 1.33 0 0 1-.55-.12 1.47 1.47 0 0 1-.46-.32A1.25 1.25 0 0 1 21 5a1.33 1.33 0 0 1-.12-.55v-.38H7.74v.41a1.33 1.33 0 0 1-.12.52 1.17 1.17 0 0 1-.32.45 1.42 1.42 0 0 1-.45.32 1.3 1.3 0 0 1-.55.12 1.26 1.26 0 0 1-.55-.12 1.31 1.31 0 0 1-.47-.32A1.42 1.42 0 0 1 5 5a1.72 1.72 0 0 1-.1-.55v-.38H1.6a1.51 1.51 0 0 0-.53.1 1.35 1.35 0 0 0-.44.31 1.33 1.33 0 0 0-.3.43 1.33 1.33 0 0 0-.09.52zm28.19.2H0V5.43a1.5 1.5 0 0 1 .12-.6 1.33 1.33 0 0 1 .35-.52A1.43 1.43 0 0 1 1 4a1.56 1.56 0 0 1 .62-.13h3.46v.64a1.39 1.39 0 0 0 .09.45 1.84 1.84 0 0 0 .26.4 2 2 0 0 0 .39.26 1.51 1.51 0 0 0 .48.09 1.39 1.39 0 0 0 .45-.09 1.84 1.84 0 0 0 .4-.26 1.53 1.53 0 0 0 .26-.4 1.17 1.17 0 0 0 .09-.45v-.67h13.59v.64a1.39 1.39 0 0 0 .09.45 1.53 1.53 0 0 0 .26.4 2 2 0 0 0 .39.26 1.45 1.45 0 0 0 .46.09 1.4 1.4 0 0 0 .47-.09 1.56 1.56 0 0 0 .39-.26 1.56 1.56 0 0 0 .27-.4 1.39 1.39 0 0 0 .09-.45v-.64H27a1.5 1.5 0 0 1 .6.13 1.38 1.38 0 0 1 .52.34 1.45 1.45 0 0 1 .35.52 1.5 1.5 0 0 1 .12.6V8zM.12 8.25h28.47v18.29a1.58 1.58 0 0 1-.12.61 1.6 1.6 0 0 1-.35.51 1.54 1.54 0 0 1-.52.35 1.5 1.5 0 0 1-.6.12H1.6A1.56 1.56 0 0 1 1 28a1.6 1.6 0 0 1-.51-.35 1.46 1.46 0 0 1-.35-.51 1.58 1.58 0 0 1-.14-.6V8.25zM4.46 16v-3.76a.37.37 0 0 1 .1-.25.37.37 0 0 1 .24-.09h4a.39.39 0 0 1 .2.1.37.37 0 0 1 .1.25V16a.31.31 0 0 1-.1.24.35.35 0 0 1-.24.1h-4a.37.37 0 0 1-.24-.09.36.36 0 0 1-.1-.25zm.23-3.79v3.87c0 .01 0 0 .07 0h4.07c.01 0 0-.05 0-.08v-3.84c0-.01 0 0-.07 0H4.69c-.01 0 0 0 0 .08zM12 16v-3.76a.34.34 0 0 1 .11-.25.36.36 0 0 1 .23-.09h4a.34.34 0 0 1 .34.34V16a.29.29 0 0 1-.11.24.31.31 0 0 1-.23.1h-4a.33.33 0 0 1-.23-.1A.29.29 0 0 1 12 16zm.24-3.79V16a.15.15 0 0 0 0 .08.09.09 0 0 0 .08 0h4a.07.07 0 0 0 .07 0v-3.92a.09.09 0 0 0-.07 0h-4a.1.1 0 0 0-.08 0 .13.13 0 0 0 0 .08zm7.6 5.86h4a.32.32 0 0 1 .23.09.32.32 0 0 1 .09.25v3.8a.27.27 0 0 1-.09.23.3.3 0 0 1-.23.11h-4a.38.38 0 0 1-.34-.34v-3.8a.42.42 0 0 1 .09-.25.38.38 0 0 1 .25-.09zm4 .22h-4a.12.12 0 0 0-.08 0v3.88a.13.13 0 0 0 0 .08h4.14a.12.12 0 0 0 0-.08v-3.8a.08.08 0 0 0 0-.08.08.08 0 0 0-.06 0zm-11.55-.19h4a.3.3 0 0 1 .23.09.34.34 0 0 1 .11.25v3.8a.38.38 0 0 1-.34.34h-4a.3.3 0 0 1-.23-.11.28.28 0 0 1-.11-.23v-3.8a.34.34 0 0 1 .11-.25.32.32 0 0 1 .23-.09zm4 .22h-4.08a.15.15 0 0 0 0 .08v3.8a.31.31 0 0 0 0 .08h4.15a.16.16 0 0 0 0-.08v-3.8a.1.1 0 0 0 0-.08.13.13 0 0 0-.07 0zM4.8 18.1h4a.34.34 0 0 1 .24.09.37.37 0 0 1 .1.25v3.8a.31.31 0 0 1-.1.23.32.32 0 0 1-.24.11h-4a.3.3 0 0 1-.24-.11.31.31 0 0 1-.1-.23v-3.8a.37.37 0 0 1 .1-.25.32.32 0 0 1 .24-.09zm4 .22h-4a.07.07 0 0 0-.07 0 .08.08 0 0 0 0 .08v3.8a.12.12 0 0 0 0 .08.1.1 0 0 0 .07 0h4a.1.1 0 0 0 .07 0 .12.12 0 0 0 0-.08v-3.8a.08.08 0 0 0 0-.08.07.07 0 0 0-.07 0zm11-6.42h4a.36.36 0 0 1 .2.1.32.32 0 0 1 .09.25V16a.28.28 0 0 1-.09.24.33.33 0 0 1-.23.1h-4a.39.39 0 0 1-.25-.1.35.35 0 0 1-.09-.24v-3.76a.42.42 0 0 1 .09-.25.45.45 0 0 1 .25-.09zm4 .22h-4a.09.09 0 0 0-.08 0v3.96a.08.08 0 0 0 .08 0h4.06c.01 0 0-.05 0-.08v-3.84a.06.06 0 0 0-.06 0z" fill="#2e6aff" data-name="Слой 1"/></g></svg>