<svg xmlns="http://www.w3.org/2000/svg" viewBox="0 0 932.18 273.64"><defs><style>.cls-1{fill:#2f6aff}.cls-2{fill:#fff}.cls-4{fill:#ffe739}</style></defs><g id="Слой_2" data-name="Слой 2"><g id="Слой_1-2" data-name="Слой 1"><path class="cls-1" d="M852.8 64a85.4 85.4 0 0 1-26.8.6 9.61 9.61 0 0 1 .67-9.63 20.8 20.8 0 0 1 5.2-4.59c4.18-3 8.27-6.36 10.74-10.87 2.78-5.07 3.26-11.16 2.28-16.85-1.54-9-7.08-17.61-15.52-20.94-6.5-2.57-13.79-1.78-20.7-.72-8.55 1.31-18.08 3.67-22.43 11.14a23.89 23.89 0 0 0-2.5 7.14c-1.46 6.9-1.52 14.25 1 20.84s7.8 12.31 14.58 14.24v2.36a25 25 0 0 1 .78 9c-9-2.44-18.57-1.15-27.82.16a57.58 57.58 0 0 1-1.07 12.36l25.8.43a.66.66 0 0 1 .48.13.72.72 0 0 1 .16.5l.24 4.08.47.45a48.41 48.41 0 0 0 5.55-1.27c6.41-1.56 13.1-1.4 19.7-1.23 1.31 0 2.79.14 3.64 1.13l-.29-2.12c-1.22-.32-1.23-2.24-.26-3a5.17 5.17 0 0 1 3.6-.73l23.8 1A37.44 37.44 0 0 0 852.8 64zm-33-22a13.22 13.22 0 0 1-6.1.19 22.43 22.43 0 0 1-10.28-3.85 12 12 0 0 1-5-9.42 17.78 17.78 0 0 1 1-4.83c.8-2.62 1.73-5.32 3.64-7.28 2.51-2.58 6.31-3.47 9.91-3.5a11 11 0 0 1 4.26.65 12.25 12.25 0 0 1 3.41 2.36 49.44 49.44 0 0 1 6.36 7.06l-.46 1.67a25.73 25.73 0 0 1-.45 9.82C825.15 38 822.93 41 819.8 42zM932 173.29a193.62 193.62 0 0 1-24 44.31c-2.75-4.22-7-9-11.83-7.55a11.17 11.17 0 0 0-3.15 1.78 153 153 0 0 0-18.52 15.67c-7.66 7.6-14.65 16.11-23.82 21.79-6.25 3.87-13.28 6.27-19.81 9.64s-12.82 8-15.86 14.71c-1.42-2.17-4.27-2.72-6.64-3.78-3.44-1.54-6.09-4.38-8.81-7-21.3-20.43-51.76-29.85-71.33-51.94A101.66 101.66 0 0 1 717.59 221l-24.12-49.23-.89-.23a60.34 60.34 0 0 1 21.69 6.65c3 1.58 5.85 3.42 9 4.71 7.22 3 15.91 3 21.62 8.34a41.08 41.08 0 0 0-8.29 7.67c5.19 1.58 9.75 4.69 14.42 7.45a121.88 121.88 0 0 0 41.21 15.14 47.23 47.23 0 0 0 .41-10.49l-.77-.38c6-1.3 12.09-2.62 18.21-2.22 8.07.51 16.65 3.88 23.85.2a53.84 53.84 0 0 1 1.07 12.77 275.52 275.52 0 0 0 55.68-20.81l-8.48-8.76c6.3.33 11.89-3.63 17.68-6.13 10.91-4.73 24.47-5 32.32-13.94M5 53.65l15.25-15.31h38.08l15.31 15.31v76.1l-15.31 15.31H20.25L5 129.75zm15.24 7.62v61l7.69 7.47h22.78l7.62-7.47v-61l-7.62-7.62H27.94zm138.33 68.48l-15.31 15.31h-38.08L90.1 129.6V76.73l15.08-15.46h38.08V38.34h15.31zm-15.31-53.17h-30.39l-7.69 7.62v37.93l7.69 7.62h22.93l7.46-7.47zm102 30.42h-53.4v15.16l7.69 7.62h22.93l7.47-7.47v-7.61h15.31v15.08L230 145.06h-37.91l-15.31-15.46V76.73l15.08-15.46H230l15.31 15.31zM230 91.74V84l-7.47-7.46h-22.98l-7.69 7.62v7.54zm48.54 30.54l7.7 7.47h22.93l7.46-7.47v-3.73l-7.46-7.46h-30.63l-15.08-15.16v-19.2l15.08-15.46h38.09l15.31 15.31v10.74h-15.31V84l-7.46-7.46h-22.93l-7.7 7.62v4.42l7.7 7.31h30.39l15.31 15.16v18.66l-15.31 15.31h-37.86l-15.31-15.42V119h15.08zm86.69 0l7.69 7.47h22.93l7.46-7.47v-3.73l-7.46-7.46h-30.62l-15.08-15.16v-19.2l15.08-15.46h38.08l15.32 15.31v10.74h-15.32V84l-7.46-7.46h-22.93l-7.69 7.62v4.42l7.69 7.31h30.39l15.32 15.16v18.66l-15.32 15.31h-37.85l-15.31-15.42V119h15.08zm78-61.01h46.62l15.31 15.46v68.33h-53.25l-15.23-15.31V107l15.23-14.5H490v-8.3l-7.62-7.62h-39.15zm13.56 46.54l-4.88 4.65V125l4.88 4.8h33.06v-21.99zm69.09-69.47h53.32l15.31 15.31v38.09l-15.31 15.08h-38.09v38.24h-15.23zm15.23 15.31v38.09h30.47L579.2 84V61.27l-7.62-7.62zm125.53-15.31H682v41.52l-26.74 30.39v34.81H640v-34.81l-26.68-30.39V38.34h15.23v35.73l19.05 22.16 19-22.16zM48.29 203.46h-10.8V198l-5.26-5.27H16.06l-5.43 5.37v26.75l5.43 5.37h16.17l5.26-5.22v-5.37h10.8v10.63l-10.8 10.8H10.8L0 230.16v-37.28L10.63 182h26.86l10.8 10.79zm73 26.8l-10.8 10.8H83.8L73 230.16v-37.28L83.64 182h26.85l10.8 10.79zM110.49 198l-5.26-5.27H89.06l-5.42 5.37v26.75l5.42 5.37h16.17l5.26-5.26zm46.15 43.06H146V182h37.5l10.79 10.9v48.18H183.5v-42.94l-5.27-5.37h-21.59zM219 197.07v-10.8h5.37v-9.66l10.8-10.8h16.06v10.8h-12.56l-3.6 4.18v5.48h16.17v10.8h-16.06v44h-10.8v-44zm105.24 17.13h-37.65v10.69l5.42 5.37h16.17l5.26-5.26v-5.37h10.8v10.63l-10.8 10.8h-26.69L276 230.16v-37.28L286.59 182h26.85l10.8 10.79zm-10.8-10.74V198l-5.26-5.27H292l-5.42 5.37v5.32zm78.43-2.79h-10.69V198l-5.37-5.27h-16.22v48.29H349V182h32.22l10.69 10.79zm70.91 13.53h-37.65v10.69l5.42 5.37h16.17L452 225v-5.37h10.8v10.63l-10.8 10.8h-26.71l-10.8-10.9v-37.28L425.13 182H452l10.8 10.79zM452 203.46V198l-5.26-5.27h-16.19l-5.42 5.37v5.32zm46.13 37.6H487.5V182H525l10.79 10.9v48.18H525v-42.94l-5.27-5.37h-21.6zm110.66-37.6H598V198l-5.26-5.27h-16.18l-5.43 5.37v26.75l5.43 5.37h16.17L598 225v-5.37h10.8v10.63l-10.8 10.8h-26.7l-10.79-10.9v-37.28L571.13 182H598l10.8 10.79zm73 10.74h-37.65v10.69l5.42 5.37h16.17L671 225v-5.37h10.8v10.63l-10.8 10.8h-26.7l-10.8-10.9v-37.28L644.14 182H671l10.8 10.79zM671 203.46V198l-5.26-5.27h-16.18l-5.42 5.37v5.32z"/><path class="cls-1" d="M800.21 80.88a601.89 601.89 0 0 0-7.78 98.23 388.42 388.42 0 0 0 2.41 44.6 2.07 2.07 0 0 0 2.77 2.15l40-2.14a531.67 531.67 0 0 1-9.24-131.92 31.08 31.08 0 0 0-.39-9.34 15.17 15.17 0 0 0-27.87-3.84"/><path class="cls-2" d="M828.29 78.89c-5.28.81-8 5.78-10.91 9.78l-12.46 17.41c-1 1.37-.57 4.52-.5 6.11 0 .46.42 4.09.87 3.46l11.33-15.83c3-4.25 6-10.14 11.67-11 1.46-.23.59-10 0-9.93zm-37.42 86.67a131.43 131.43 0 0 0 43.73 27.05c-.07 0 1.92-9.2 0-9.92a131.59 131.59 0 0 1-43.73-27.05 36.31 36.31 0 0 0-.71 5c0 1.26-.32 4 .71 5z"/><path class="cls-2" d="M831.13 160.51c-3.45 2.68-3.34 7.58-3.25 11.59a27.92 27.92 0 0 0 .83 6.69c.26.94.62 1.85 1 2.76l1 2.6c.74 3 1 2.83.67-.65-.15 1.83-.68 5.13.25 6.79.83 1.47.9-.93 1-1.78a33.76 33.76 0 0 0-.5-10.8 38.63 38.63 0 0 0-1.53-4.43l-.53-1.29q-.81-3.21-.61-.7c-.17 1.18-.08 1.41.25.67a3.91 3.91 0 0 1 1.44-1.53c1-.79.7-3.83.71-5a37.5 37.5 0 0 0-.71-5z"/><path class="cls-1" d="M798.74 80.37q-.13 14.28-1.52 28.49"/><path class="cls-2" d="M829.25 81.32c-3.89.37-5.55 2.31-7.2 5.55a9.2 9.2 0 0 0-.45 1.79 4.34 4.34 0 0 1-3.28 2.51 8.21 8.21 0 0 0-2.41 2.83c-1.51 2.81-1.95 8.28-5.08 9.85-2.7 1.35-3.55.67-4 4.14-.5 4.37.67 14.48 6.81 7.71 2.56-2.81 3.24-7 4.75-10.38a34.09 34.09 0 0 1 7.85-11.14c1-.93.71-3.73.71-5 0-.46-.66-5-.71-5a36.05 36.05 0 0 0-8.83 12.93 63.16 63.16 0 0 1-2.63 6.69c-.77 1.42-1.87 3.11-3.44 3.75a16.75 16.75 0 0 1-3.28.37l-.43 7.29c.86-1.65 2.73-1.07 4.05-2a5.94 5.94 0 0 0 1.42-2c1.43-2.57 1.77-5.79 3.42-8.23s4.11-2 5.37-4.54c.73-1.43.66-3.1 1.67-4.43a7.29 7.29 0 0 1 5.64-2.78c1.3-.13.77-10 0-9.93z"/><path class="cls-1" d="M800.83 84.19l-2.19.06v3.29a39.82 39.82 0 0 0-.1-4.23c-1.66 4.16-.18 8.81.28 13.26a54 54 0 0 1-.36 11.14"/><path d="M792.57 219.81c-1.26-11.16.61-22.27 2.39-33.26.11-.73-.19-5.5-.51-3.54-2.17 13.41-3.92 26.76-2.39 40.34.23 2 .59-2.8.51-3.54z" fill="#3a3a3a"/><path class="cls-1" d="M792.25 183.17c.64 6.67 1.14 13.21-1.09 19.72l.44 3.08c.1-5.18.33-10.21 1.74-15.22l-.52-2.82c-.2 5.84-.61 11.72-.59 17.57 0 1.92 1.36 6 .73 7.57-.53 1.31.41 4.26.19 4.82a16.22 16.22 0 0 0 .7-9.23c-1.23-6.39-.57-12.85-.34-19.4 0-.43-.24-3.84-.53-2.83-1.68 6-2 12-2.07 18.21a28.88 28.88 0 0 0 .44 3.07c3-8.76 2.4-18 1.51-27.06-.3-3.07-.7 1.62-.61 2.52z"/><path class="cls-4" d="M792.32 161.64c-3.87 2.4-4.39 7.72-4.5 12.28-.12 5.51 0 11.61 3.67 15.68 3.5 3.85 9.16 4.66 14.33 5.24l4 .45c2.05.23 4.3.41 6-.74 2.76-1.85 2.52-6.19.69-9s-4.76-4.64-7-7.11c-2.56-2.79-4.18-6.29-6.35-9.39s-5.19-6-8.95-6.42c-1.59-.19-3.49.27-4.12 1.74z"/><path class="cls-1" d="M791.57 203.22a50.32 50.32 0 0 0 2.14 19.43 33.8 33.8 0 0 1-1.22-13.78 6.74 6.74 0 0 1 .92 4 64.19 64.19 0 0 1-.84-16.26l-.27 4.21a3.42 3.42 0 0 1-.29-2.11"/><path class="cls-4" d="M809.57 145.49l7.22.15c2.36.05 4.88.05 6.83-1.29 2.4-1.64 3.19-5 2.61-7.82s-2.27-5.35-4-7.7a132.32 132.32 0 0 0-14.87-16.94c-.18-4.9-.53-10-3.09-14.14-1.93-3.14-5-5.45-8-7.47a79.34 79.34 0 0 0-9.4-5.25 22 22 0 0 0-7.26-2.33 9.1 9.1 0 0 0-7.12 2.12A9.94 9.94 0 0 0 770 89c-2.56 7.71.61 16 3.74 23.51a9.18 9.18 0 0 0 2.55 4c1.41 1.09 3.29 1.27 5 1.69a16.7 16.7 0 0 1 9.38 6.22 43.13 43.13 0 0 1 3.83 7.08 70 70 0 0 0 5.43 9.23 11.52 11.52 0 0 0 3.64 3.71c1.81.95 3.95 1.01 6 1.05zm-22.42-51.62a6 6 0 0 1-1.49-6.13 1.13 1.13 0 0 1 .19-.38.84.84 0 0 1 .45-.29 2 2 0 0 1 1.87.47 3.92 3.92 0 0 1 1 1.71 4.8 4.8 0 0 1 .23 2.7l-.09-.62a3.94 3.94 0 0 1-1 2.6.85.85 0 0 1-.36.29 1 1 0 0 1-.8-.35zm-11.33 6.86a2.93 2.93 0 0 1-.28-.94c-.32-1.12-1.7-1.82-1.73-3a1.93 1.93 0 0 1 1.46-1.73 5.3 5.3 0 0 1 2.41 0 1.44 1.44 0 0 1 1.44 1.94l-.18 3.52-1.05.28a3.15 3.15 0 0 1-1.06.35 1.09 1.09 0 0 1-1.01-.42z"/><path class="cls-4" d="M812.08 125.64a24.5 24.5 0 0 0-8.8 8.57 6.64 6.64 0 0 0-1 2.31 6.37 6.37 0 0 0 1.31 4.42l-.66-.86c1.93 7.63 4.92 16 12 19.42 3.83 1.86 8.26 1.93 12.52 2 2.68 0 5.72-.1 7.52-2.1a7.11 7.11 0 0 0 1.56-3.79 19.78 19.78 0 0 0-1.71-10.2 23.51 23.51 0 0 0-5.55-8.42 34.63 34.63 0 0 0-4.86-3.56L808 122.74"/><path class="cls-1" d="M850.29 99.76c-.6-4.37-1.38-9.1-4.58-12.14-2.66-2.52-6.58-3.36-10.21-3a28.94 28.94 0 0 0-10.27 3.69c-2.79 1.5-5.57 3.23-7.43 5.79-2.54 3.51-3 8.07-4.78 12-4.4 9.92-16.29 15.3-21.37 24.44-3.5 3.26-4.64 8.77-4.67 13.73a51.71 51.71 0 0 0 1 10.24c.25 1.25.64 2.63 1.76 3.25a4.4 4.4 0 0 0 3.16.07A40.72 40.72 0 0 0 815.45 143c2.16-2.87 3.93-6 6-8.9a46.08 46.08 0 0 1 7.81-8.28 14.39 14.39 0 0 1 5-2.92 40.51 40.51 0 0 1 4.8-.7 14.37 14.37 0 0 0 10.94-9.08c1.5-4.24.91-8.9.29-13.36zm-14.61-4.17a3.61 3.61 0 0 1-4 .41 1.73 1.73 0 0 1-.74-.75 2.21 2.21 0 0 1 .05-1.52 17 17 0 0 1 1-2.57 2.7 2.7 0 0 1 1.01-1.31 2.45 2.45 0 0 1 1.17-.19 7.91 7.91 0 0 1 2.63.54l.35 1.51a4.42 4.42 0 0 1-1.47 3.88zm11 6.62a6.26 6.26 0 0 1-1 3.5 3.1 3.1 0 0 1-2.74 1.63 3.57 3.57 0 0 1-1.9-1.09 3.45 3.45 0 0 1-.94-1.3 3.74 3.74 0 0 1 .48-2.72 7 7 0 0 1 1.4-2.11 2.65 2.65 0 0 1 2.33-.74 3.94 3.94 0 0 1 1 .47l1.43.81z"/><path class="cls-4" d="M820.33 145.84c.93 0 1-8.93 0-8.93s-1 8.93 0 8.93zm-27.98 20.84c7.55 2.23 12.82 9.22 20.11 12.18 2.06.83 4.24 1.33 6.32 2.08 10.22 3.71 17.22 13.19 22.57 22.66 2.14 3.76 4.18 7.74 4.48 12.06.22 3.28-.57 6.53-1.17 9.76-.88 4.79-.85 9.94-3.28 14.28-.68 1.2-1.49 2.32-2.1 3.55s-1.07 2.8-1.63 4.2a14.1 14.1 0 0 1-5.83 7.18 36.23 36.23 0 0 1-8.47 4.22c-3.47 1.21-8.28 2.65-12 2.07s-8-2.88-11.12-4.82a21 21 0 0 1-6-5.42c-.61-.85-1.74-2.25-1.76-3.35s1.07-2.75 1.52-3.76c.24-.51 2.41-4.5 2-4.86l-.85-.81c-2.72 3.09-1.51 8.26 1.53 11s7.28 3.74 11.35 4.38 8.46 1.07 12.55.07 8-3.67 9.46-7.61a20.31 20.31 0 0 0 .91-6.36c.17-4.62-.18-9.42.37-14 .45-3.72.93-5.7-1-9.26-3.64-6.75-10.71-11.44-17.91-13.63-2.47-.75-5-1.27-7.42-2.18a24.86 24.86 0 0 1-15.11-17"/><path class="cls-2" d="M830.22 159.57c-4.36 4.57-4.82 10.9-4.6 16.92 0 .59 0 3.84.87 3.47s.52-5.49.5-6.1c.12 3.29-.21 1.86.16 1s.54-1.53.92-2.27a15.1 15.1 0 0 1 2.52-3.47c.35-.37.39-1.9.43-2.28a30.41 30.41 0 0 0 .07-3.82c0-.49-.29-4.07-.87-3.46z"/><path class="cls-2" d="M817.29 184.49A35.12 35.12 0 0 0 838.92 174c1-1.06.56-4.75.5-6.11 0-.49-.28-4.07-.87-3.46a34.57 34.57 0 0 1-21.26 10.16c-1.34.15-.74 10 0 9.93z"/><path class="cls-4" d="M795.73 172.1a74.1 74.1 0 0 0 27.77 18.07c5.94 2.24 11 4.94 14.68 10.32 4.76 6.95 5.53 14.91 4.22 23.09-.28 1.76-.69 4.64 0 6.31.45 1.09.59 2 .9 0 2.14-13.38 2.67-30.24-7.1-41-5.3-5.81-12.79-7.3-19.64-10.54a70.39 70.39 0 0 1-20.49-14.9c-.61-.63-.77 2.85-.79 3.12 0 1.15-.48 4.53.45 5.49z"/><path class="cls-4" d="M790.79 181.88c-.9 3.31-1.23 8 .11 11.19 1.89 4.57 8.43 7 12.51 9.09a137.21 137.21 0 0 0 18.24 7.73c5.7 2 12.54 5.24 12.09 12.56-.08 1.29-.73 5.13.23 6.11s.79-.32.87-1.6c.53-8.61.76-19.84-8.27-24.17-5.62-2.68-11.8-4.2-17.49-6.8-3-1.37-6-2.86-8.85-4.46-1.56-.86-3.19-1.73-4.67-2.71l-1.37-.87q-3.32-4.68-2.75 1.64a17.18 17.18 0 0 0 .23-6.11c-.06-.47-.41-3.29-.88-1.6z"/><path class="cls-4" d="M793 164.71c-5 2.89-5 12.06-5 17.12 0 7.36 1.52 12.57 8.61 15.78-.25-.11 1.81-8.1 0-8.93-2.84-1.28-6.16-3-6.9-6.32-.67-2.94.6-7.14 3.31-8.72 1.87-1.09-.46-8.66 0-8.93z"/><path class="cls-4" d="M793.67 183.83a8.28 8.28 0 0 1-4.56-3.88c-.48-.8-.74-1.74-1.22-2.53-.15-.34-.29-.69-.41-1-.42-1.35-.6-.65-.53 2.13.57-.46.73-2.27 1.2-3a7.86 7.86 0 0 1 2.69-2.5 13.41 13.41 0 0 1 6.15-1.51c1.08-.06.82-9 0-8.93-8.18.43-11.17 6.11-11.31 13.7-.11 5.79 1.81 14.37 8 16.48 0 0 1.69-8.36 0-8.93zM811.29 259c5.26-1.2 11-2.54 15-6.4 4.28-4.1 4.78-10.43 8.7-14.8.93-1 .51-4.21.45-5.49 0-.43-.29-3.68-.79-3.12-3.63 4.05-4.19 9.81-7.78 13.86-3.87 4.37-10.12 5.78-15.56 7-1.47.34-.32 9 0 8.93z"/><path class="cls-4" d="M794.18 247.62c2.78 6.38 13.47 7 19.34 6.79.33 0 .29-3 0-3-5.8.17-16.5-.42-19.23-6.68.14.33-.46 2.09-.11 2.87z"/><path class="cls-4" d="M808 254.36a10.88 10.88 0 0 0 4.5-2.16c.3-.25.21-1.15.21-1.49a14.84 14.84 0 0 0-.21-1.49 10.9 10.9 0 0 1-4.5 2.17c-.49.11-.12 3 0 3z"/><path class="cls-2" d="M797.51 204c-17.25 6.81-15.18 33.87-3.41 44.63 12.77 11.68 38.77 13.36 48.74-2.83.55-.91.78-9.88-.19-9.75a63.91 63.91 0 0 1-23.75-1 63.07 63.07 0 0 1-10.9-3.66c-3.21-1.41-9.18-3.53-10.73-6.94V234c1.21-3.17 6.34-5.72 9-7.7s5.53-4.16 8.38-6.13a62.7 62.7 0 0 1 17.9-9.08c1.77-.53.16-10 0-9.92-9 2.68-16.61 8-24.07 13.55l-6.81 5.09c-1.3 1-3.39 2-4.3 3.41-1.47 2.25-1.22 6.55-.83 9 1 6.63 12.92 10 18.42 11.67a64.12 64.12 0 0 0 27.69 2.11l-.19-9.75c-7.26 11.75-23.24 13.31-35.46 9.58-7.47-2.29-14.39-6.85-18.14-13.89-2.18-4.1-2.33-7.26.27-11.3a17.21 17.21 0 0 1 8.37-6.73c1.92-.75-.11-9.88 0-9.92z"/><path class="cls-2" d="M807.34 199a34.29 34.29 0 0 0-15 10.74c-1 1.25-.56 4.61-.5 6.11 0 .47.36 4.09.87 3.46a33.33 33.33 0 0 1 14.67-10.39c1.88-.68 0-9.91 0-9.92zm16.6 34.49c-7.32-3.39-13.71-10.52-14.56-18.82-.09-.86-.07-3.23-1-1.78s-.41 5.21-.25 6.79c1.05 10.32 6.12 19.26 15.78 23.73-.29-.13 2-9 0-9.92z"/><path class="cls-1" d="M827.56 170.76c-1.73-2.89 1.09-6.85 4.43-7.31s6.54 1.49 9 3.77a28.28 28.28 0 0 1 9.2 18.78c.37 6.08-1 11.71-5.84 15.42a61.6 61.6 0 0 1-16.63 9.32c-5 1.81-10.68 3.22-13.71 7.6-2.77 4-2.41 9.59 0 13.79s6.62 7.14 11.07 9.07a19.6 19.6 0 0 0 9.37 1.87c3.18-.29 5.68-1.75 8.91-2l1 .93c-6.61 2.22-11.15 8.61-17.75 10.88-5.29 1.82-11.14.71-16.44-1.05a50.58 50.58 0 0 1-8-3.39c-7.34-4-13.38-10.71-15.62-18.76s-.3-17.37 5.68-23.21c7.61-7.44 19.53-8 28.73-13.36a15.32 15.32 0 0 0 5.75-5.25c3.46-5.94.18-13.55 1.46-20.31"/></g></g></svg>