<svg xmlns="http://www.w3.org/2000/svg" viewBox="0 0 90.17 60.02"><defs><style>.cls-1{fill:#2e6fff}</style></defs><g id="Слой_2" data-name="Слой 2"><g id="Слой_1-2" data-name="Слой 1"><path class="cls-1" d="M21.71 1.58c-3.73.11-8.18.36-10.64 3.61-1.89 2.49-2 6.15-2.07 9.12-.21 7.85 2.48 15.41 11.88 14.8 16.39-1.06 16.67-29.6-.32-27.83-.87.09-.6 5.06 0 5 3.66-.39 8.76 1 10.44 4.76 3 6.78-3.25 12.32-9.44 13-4.79.55-9.82-1.41-11.06-6.31-2.28-9.07 4.42-11 11.21-11.18.78 0 .72-5 0-5z" transform="translate(-.01)"/><path class="cls-1" d="M48.84 1.66C32-2.91 27.46 25 42.68 29c17.73 4.65 22.66-26.44 5.2-27.33-.66 0-.82 4.95 0 5 6.51.33 12.51 6.65 7.77 13a12.58 12.58 0 0 1-12.39 4.51c-5.62-1.15-11-7.48-7.2-13.23 2.78-4.14 8.18-5.52 12.78-4.28.33.09 1-4.72 0-5z" transform="translate(-.01)"/><path class="cls-1" d="M71.89 0c-8.08.45-13.58 6.27-13.81 14.26-.22 7.37 3.46 14 11.42 14.6 8.32.65 14.79-5.22 14.89-13.47.1-8.77-6-14-14.49-14.79-.6-.06-.88 4.91 0 5a18.33 18.33 0 0 1 7.83 2.27 11.6 11.6 0 0 1 2.94 2.25 9 9 0 0 1 1.66 7.68c-1.53 4.4-8 6.24-12.1 6.11-5.63-.18-10.87-3.52-10.29-9.5s6.21-9.09 12-9.41c.81 0 .67-5 0-5zM14.05 26.56C2.23 27.54.19 41.62 0 51.08c-.06 3.7.05 7 4.3 7.39 7.43.75 15.42-.08 22.89-.11.75 0 .75-5 0-5l-12.4.06H8.12c-1.39 0-3.91.58-5.08 0-4.77-2.53-.27-13.65 1.68-16.42a12.46 12.46 0 0 1 9.33-5.46c.85-.07.63-5.06 0-5z" transform="translate(-.01)"/><path class="cls-1" d="M14.2 31.85c3.56 3.32 6.27 7.82 6.28 12.82 0 .12.42 2.88.65 2.42a56.73 56.73 0 0 0 4-10.62c.56-2.12.89-5.32 3.68-5.51 1.73-.11 3.32 1 4.7 1.9-.12-.08 1.16-4.24 0-5-2.52-1.65-6.11-3.16-7.84.25-.93 1.83-1.07 4.27-1.66 6.2a52.89 52.89 0 0 1-3.17 7.95l.64 2.41c0-6.74-2-12.94-7-17.64-.15-.15-1.19 4-.27 4.82z" transform="translate(-.01)"/><path class="cls-1" d="M40.05 26.09c-15.71.82-14.69 20.79-13.29 31.82 0 .13.11 1.27.44 1.23a131.48 131.48 0 0 1 17.85-.74c5.57.16 11.54 1.83 17 1.59 2.83-.12 3.33-1.63 3.52-4.16.37-4.89-.52-10.14-.88-15-.21-3-.41-6.22-2.18-8.76-1.66-2.39-7.14-6.78-10.24-6.26-3.5.59-3.67 6.71-4.41 9.45-.65 2.39-.77 7.1-3.41 4.09C42.09 36.6 41 32 40.55 28.58c-.4-3.1-1 1.51-.88 2.52a30.06 30.06 0 0 0 6.47 15.6c.18.22.34-.11.39-.26l2.81-10.33c.77-2.83 1.22-6 4.76-5 2.78.79 6.71 3.24 8.17 5.77 2.14 3.7 1.75 9.49 2 13.66.29 4.53-1.34 4.58-5.19 4.06-3.42-.46-6.85-.83-10.29-1a132.31 132.31 0 0 0-21.62.58l.44 1.24c-1.26-9.88-.21-23.63 12.41-24.29.81 0 .68-5 0-5z" transform="translate(-.01)"/><path class="cls-1" d="M63.89 31.31L70 46.73c.16.41.35.42.51 0C72.2 42.38 74.72 29.46 81 32c8.76 3.5 8.33 16.12 7.64 23.57l.44-1.24A161.68 161.68 0 0 0 64 53.07c-.78 0-.72 5 0 5a161.68 161.68 0 0 1 25.07 1.24c.32 0 .42-1.11.44-1.23.86-9.35 2.33-24.54-7.24-30.42-5.62-3.45-7.27 1.69-9 6.07a31.53 31.53 0 0 1-2 5.21c-1.54 2.53-.91 2-2.18.05C67 35.7 65.86 30.66 64.4 27c-.32-.81-.9 3.32-.51 4.31z" transform="translate(-.01)"/><path class="cls-1" d="M64.72 26.51a14.5 14.5 0 0 0-6.83 1.36c-.62.29-.51 1.95-.51 2.5 0 .18.16 2.66.51 2.5a14.5 14.5 0 0 1 6.83-1.36c.68 0 .81-5 0-5z" transform="translate(-.01)"/></g></g></svg>