<svg xmlns="http://www.w3.org/2000/svg" viewBox="0 0 297.98 133.93"><defs><style>.cls-5{fill:#2e6aff;opacity:.1}</style><clipPath id="clip-path"><path id="_Составной_обтравочный_контур_" data-name="&lt;Составной обтравочный контур&gt;" d="M286.23 47.49V13.06A12.56 12.56 0 0 0 273.67.5h-61.24a9.11 9.11 0 0 1-18.22 0H21.79A12.56 12.56 0 0 0 9.23 13.06v34.43a19.48 19.48 0 1 1 0 38.95v34.43a12.56 12.56 0 0 0 12.56 12.56h172.42a9.11 9.11 0 0 1 18.22 0h61.24a12.56 12.56 0 0 0 12.56-12.56V86.44a19.48 19.48 0 1 1 0-38.95zm-82.91 61.76a9.11 9.11 0 1 1 9.11-9.11 9.11 9.11 0 0 1-9.11 9.11zm0-33.17a9.11 9.11 0 1 1 9.11-9.08 9.11 9.11 0 0 1-9.11 9.08zm0-33.18a9.11 9.11 0 1 1 9.11-9.11 9.11 9.11 0 0 1-9.11 9.11z" fill="none"/></clipPath></defs><g id="Слой_2" data-name="Слой 2"><g clip-path="url(#clip-path)" id="Слой_1-2" data-name="Слой 1"><path id="_Составной_контур_" data-name="&lt;Составной контур&gt;" d="M286.23 47.49V13.06A12.56 12.56 0 0 0 273.67.5h-61.24a9.11 9.11 0 0 1-18.22 0H21.79A12.56 12.56 0 0 0 9.23 13.06v34.43a19.48 19.48 0 1 1 0 38.95v34.43a12.56 12.56 0 0 0 12.56 12.56h172.42a9.11 9.11 0 0 1 18.22 0h61.24a12.56 12.56 0 0 0 12.56-12.56V86.44a19.48 19.48 0 1 1 0-38.95zm-82.91 61.76a9.11 9.11 0 1 1 9.11-9.11 9.11 9.11 0 0 1-9.11 9.11zm0-33.17a9.11 9.11 0 1 1 9.11-9.08 9.11 9.11 0 0 1-9.11 9.08zm0-33.18a9.11 9.11 0 1 1 9.11-9.11 9.11 9.11 0 0 1-9.11 9.11z" stroke="#2e6aff" stroke-miterlimit="10" fill="none"/><g id="_Группа_" data-name="&lt;Группа&gt;" opacity=".3"><path id="_Прямоугольник_" data-name="&lt;Прямоугольник&gt;" class="cls-5" d="M0 4.29h297.98v5.55H0z"/><path id="_Прямоугольник_2" data-name="&lt;Прямоугольник&gt;" class="cls-5" d="M0 14.28h297.98v5.55H0z"/><path id="_Прямоугольник_3" data-name="&lt;Прямоугольник&gt;" class="cls-5" d="M0 24.27h297.98v5.55H0z"/><path id="_Прямоугольник_4" data-name="&lt;Прямоугольник&gt;" class="cls-5" d="M0 34.26h297.98v5.55H0z"/><path id="_Прямоугольник_5" data-name="&lt;Прямоугольник&gt;" class="cls-5" d="M0 44.26h297.98v5.55H0z"/><path id="_Прямоугольник_6" data-name="&lt;Прямоугольник&gt;" class="cls-5" d="M0 54.25h297.98v5.55H0z"/><path id="_Прямоугольник_7" data-name="&lt;Прямоугольник&gt;" class="cls-5" d="M0 64.24h297.98v5.55H0z"/><path id="_Прямоугольник_8" data-name="&lt;Прямоугольник&gt;" class="cls-5" d="M0 74.24h297.98v5.55H0z"/><path id="_Прямоугольник_9" data-name="&lt;Прямоугольник&gt;" class="cls-5" d="M0 84.23h297.98v5.55H0z"/><path id="_Прямоугольник_10" data-name="&lt;Прямоугольник&gt;" class="cls-5" d="M0 94.22h297.98v5.55H0z"/><path id="_Прямоугольник_11" data-name="&lt;Прямоугольник&gt;" class="cls-5" d="M0 104.21h297.98v5.55H0z"/><path id="_Прямоугольник_12" data-name="&lt;Прямоугольник&gt;" class="cls-5" d="M0 114.21h297.98v5.55H0z"/><path id="_Прямоугольник_13" data-name="&lt;Прямоугольник&gt;" class="cls-5" d="M0 124.2h297.98v5.55H0z"/></g></g></g></svg>