<svg xmlns="http://www.w3.org/2000/svg" viewBox="0 0 78.86 88.04">
  <defs>
    <style>
      .cls-1 {
        fill: #2e6fff;
      }
    </style>
  </defs>
  <title>Ресурс 4coffe_p</title>
  <g id="Слой_2" data-name="Слой 2">
    <g id="Слой_1-2" data-name="Слой 1">
      <path class="cls-1" d="M8.37,28.54a75.07,75.07,0,0,0-.67,35.6c.93,4,2.2,8.56,5.82,11,5.18,3.52,13.84,2.55,19.77,2.6,6.69.06,14.1.36,20.67-1.1,4.59-1,6.88-4.1,7.69-8.6,1-5.56.3-11.49.17-17.09l-.55-23.45c0-.28,0-2.52-.5-2.5L7.27,26.74c-.78,0-.71,5,0,5L60.77,30l-.51-2.5c.24,10.42.51,20.84.73,31.27.14,6.46-.68,11.68-7.73,13-4.62.88-9.58.82-14.27.93-5.07.11-10.15,0-15.21-.28-4.4-.27-9-.42-12.1-4C8.08,64.19,7.42,56.88,7,51.65a60.45,60.45,0,0,1,2-19.58c.22-.81-.18-5.6-.71-3.53Z"/>
      <path class="cls-1" d="M25.2.44C22.57,2.68,22.09,6,22.27,9.28a17.11,17.11,0,0,0,.79,4.43c.59,1.8,3.52,5.6,2.44,7.22-.76,1.14.3,4.77.26,4.83C27.27,23.49,27.39,20.6,27,18c-.63-4.39-5.88-9-1.54-12.7.91-.78,0-5-.27-4.82Z"/>
      <path class="cls-1" d="M36,0c-3,1.69-3.51,4.93-3.43,8.15a16.55,16.55,0,0,0,.95,5.07c.64,1.81,4,6.3,1.37,7.15-1.07.35-.28,5.09,0,5,2.8-.9,2.7-4.51,2.46-7C37,14.55,31.63,7.47,36,5c1.16-.65,0-5,0-5Z"/>
      <path class="cls-1" d="M60.6,41.17c5.93-.39,19.68,1,16.24,10.37-2.29,6.21-9.59,10-15.9,9.19-.55-.08-.92,4.88,0,5,9.26,1.18,17.47-6.82,17.9-15.9C79.36,39,70.07,35.55,60.6,36.17c-.82,0-.66,5,0,5Z"/>
      <path class="cls-1" d="M17.59,72.41,6.7,72.79c-2.09.07-4.71-.44-6,1.52-1.43,2.24-.55,7,.59,9.12,2.58,4.86,8.59,5.08,13.37,4.23,7.29-1.31,14.08-2.53,21.55-2.34,7.3.19,14.57,1,21.88,1.22,4.79.12,11.59.61,13-5.28.65-2.78.48-6.69-2.22-8.27-1.74-1-4-.84-6-.82-4.22,0-8.44.17-12.65.25-.76,0-.73,5,0,5,4.72-.09,9.52-.44,14.24-.26,1.25,0,4.37,0,5.07,1.29,1.14,2.17-4.84,3-5.94,3.07-8.73.77-17.71-.89-26.44-1.17a80.89,80.89,0,0,0-13.2.49c-3.92.52-7.75,1.85-11.69,2.18-1.94.16-13.13-1.28-9.23-5.11.77-.75,6.08-.21,7.26-.25l7.26-.25c.78,0,.71-5,0-5Z"/>
    </g>
  </g>
</svg>
