<svg xmlns="http://www.w3.org/2000/svg" viewBox="0 0 28.59 28.13">
  <defs>
    <style>
      .cls-1 {
        fill: #2e6aff;
      }
    </style>
  </defs>
  <title>Ресурс 21i1</title>
  <g id="Слой_2" data-name="Слой 2">
    <g id="Слой_1-2" data-name="Слой 1">
      <path class="cls-1" d="M28.36,8.47H.24V26.54a1.19,1.19,0,0,0,.09.51,1.61,1.61,0,0,0,.3.45,1.49,1.49,0,0,0,.44.3,1.31,1.31,0,0,0,.53.09H27a1.19,1.19,0,0,0,.51-.09,1.54,1.54,0,0,0,.45-.3,1.42,1.42,0,0,0,.3-.45,1.36,1.36,0,0,0,.1-.51ZM21.53,1V4.48a.72.72,0,0,0,.07.28,1,1,0,0,0,.15.25,1,1,0,0,0,.25.16.77.77,0,0,0,.29.07.73.73,0,0,0,.3-.07A.78.78,0,0,0,22.83,5,.7.7,0,0,0,23,4.76a.71.71,0,0,0,.06-.28V1A.67.67,0,0,0,23,.71a.56.56,0,0,0-.17-.25.81.81,0,0,0-.24-.17.73.73,0,0,0-.3,0,.74.74,0,0,0-.29,0,1,1,0,0,0-.25.17.76.76,0,0,0-.15.25.68.68,0,0,0-.07.28Zm-.22,2.74V1a1.59,1.59,0,0,1,.06-.38A1.44,1.44,0,0,1,21.6.29a.89.89,0,0,1,.32-.21A.91.91,0,0,1,22.29,0a1,1,0,0,1,.38.08.92.92,0,0,1,.54.53,1,1,0,0,1,.08.38V4.48a.83.83,0,0,1-.08.36.81.81,0,0,1-.21.33,1,1,0,0,1-.33.22,1.17,1.17,0,0,1-.38.07,1.11,1.11,0,0,1-.37-.07.91.91,0,0,1-.32-.22,1.14,1.14,0,0,1-.23-.33,1.29,1.29,0,0,1-.06-.36Zm-14.25,0V1A.68.68,0,0,0,7,.71.63.63,0,0,0,6.83.46.85.85,0,0,0,6.58.29a.66.66,0,0,0-.28,0A.65.65,0,0,0,6,.29a.74.74,0,0,0-.25.17.56.56,0,0,0-.17.25.66.66,0,0,0,0,.28V4.48A.7.7,0,0,0,5.76,5,.57.57,0,0,0,6,5.17a.65.65,0,0,0,.29.07.68.68,0,0,0,.28-.07A.69.69,0,0,0,7,4.76a.72.72,0,0,0,.07-.28ZM7.28,1V4.48a1,1,0,0,1-.07.36A1,1,0,0,1,7,5.17a1.1,1.1,0,0,1-.31.22,1.22,1.22,0,0,1-.38.07,1.17,1.17,0,0,1-.38-.07,1.06,1.06,0,0,1-.33-.22.93.93,0,0,1-.21-.33.83.83,0,0,1-.08-.36V1A1,1,0,0,1,5.38.61,1.11,1.11,0,0,1,5.59.29,1,1,0,0,1,5.92.08,1,1,0,0,1,6.3,0a1,1,0,0,1,.38.08A1.06,1.06,0,0,1,7,.29a1.14,1.14,0,0,1,.22.32A1.22,1.22,0,0,1,7.28,1Zm-7,6.8H28.36V5.43a1.55,1.55,0,0,0-.1-.52,1.33,1.33,0,0,0-.3-.43,1.39,1.39,0,0,0-.45-.31,1.36,1.36,0,0,0-.51-.1H23.73v.41a1.72,1.72,0,0,1-.1.55,1.6,1.6,0,0,1-.32.45,1.4,1.4,0,0,1-.47.32,1.26,1.26,0,0,1-.55.12,1.33,1.33,0,0,1-.55-.12,1.47,1.47,0,0,1-.46-.32A1.25,1.25,0,0,1,21,5a1.33,1.33,0,0,1-.12-.55V4.07H7.74v.41A1.33,1.33,0,0,1,7.62,5a1.17,1.17,0,0,1-.32.45,1.42,1.42,0,0,1-.45.32,1.3,1.3,0,0,1-.55.12,1.26,1.26,0,0,1-.55-.12,1.31,1.31,0,0,1-.47-.32A1.42,1.42,0,0,1,5,5a1.72,1.72,0,0,1-.1-.55V4.07H1.6a1.51,1.51,0,0,0-.53.1,1.35,1.35,0,0,0-.44.31,1.33,1.33,0,0,0-.3.43,1.33,1.33,0,0,0-.09.52ZM28.47,8H0V5.43a1.5,1.5,0,0,1,.12-.6,1.33,1.33,0,0,1,.35-.52A1.43,1.43,0,0,1,1,4a1.56,1.56,0,0,1,.62-.13H5.08v.64a1.39,1.39,0,0,0,.09.45,1.84,1.84,0,0,0,.26.4,2,2,0,0,0,.39.26,1.51,1.51,0,0,0,.48.09,1.39,1.39,0,0,0,.45-.09,1.84,1.84,0,0,0,.4-.26,1.53,1.53,0,0,0,.26-.4,1.17,1.17,0,0,0,.09-.45V3.84H21.09v.64a1.39,1.39,0,0,0,.09.45,1.53,1.53,0,0,0,.26.4,2,2,0,0,0,.39.26,1.45,1.45,0,0,0,.46.09,1.4,1.4,0,0,0,.47-.09,1.56,1.56,0,0,0,.39-.26,1.56,1.56,0,0,0,.27-.4,1.39,1.39,0,0,0,.09-.45V3.84H27a1.5,1.5,0,0,1,.6.13,1.38,1.38,0,0,1,.52.34,1.45,1.45,0,0,1,.35.52,1.5,1.5,0,0,1,.12.6V8ZM.12,8.25H28.59V26.54a1.58,1.58,0,0,1-.12.61,1.6,1.6,0,0,1-.35.51,1.54,1.54,0,0,1-.52.35,1.5,1.5,0,0,1-.6.12H1.6A1.56,1.56,0,0,1,1,28a1.6,1.6,0,0,1-.51-.35,1.46,1.46,0,0,1-.35-.51A1.58,1.58,0,0,1,0,26.54V8.25ZM4.46,16V12.24a.37.37,0,0,1,.1-.25.37.37,0,0,1,.24-.09h4A.39.39,0,0,1,9,12a.37.37,0,0,1,.1.25V16a.31.31,0,0,1-.1.24.35.35,0,0,1-.24.1h-4a.37.37,0,0,1-.24-.09.36.36,0,0,1-.1-.25Zm.23-3.79V16s0,.07,0,.08,0,0,.07,0h4s.06,0,.07,0,0-.05,0-.08V12.24s0-.07,0-.08,0,0-.07,0h-4s-.06,0-.07,0,0,0,0,.08ZM12,16V12.24a.34.34,0,0,1,.11-.25.36.36,0,0,1,.23-.09h4a.34.34,0,0,1,.34.34V16a.29.29,0,0,1-.11.24.31.31,0,0,1-.23.1h-4a.33.33,0,0,1-.23-.1A.29.29,0,0,1,12,16Zm.24-3.79V16a.15.15,0,0,0,0,.08.09.09,0,0,0,.08,0h4a.07.07,0,0,0,.07,0s0-.05,0-.08V12.24s0-.07,0-.08a.09.09,0,0,0-.07,0h-4a.1.1,0,0,0-.08,0,.13.13,0,0,0,0,.08Zm7.6,5.86h4a.32.32,0,0,1,.23.09.32.32,0,0,1,.09.25v3.8a.27.27,0,0,1-.09.23.3.3,0,0,1-.23.11h-4a.38.38,0,0,1-.34-.34v-3.8a.42.42,0,0,1,.09-.25.38.38,0,0,1,.25-.09Zm4,.22h-4a.12.12,0,0,0-.08,0s0,0,0,.08v3.8a.13.13,0,0,0,0,.08l.08,0h4l.06,0a.12.12,0,0,0,0-.08v-3.8a.08.08,0,0,0,0-.08.08.08,0,0,0-.06,0ZM12.29,18.1h4a.3.3,0,0,1,.23.09.34.34,0,0,1,.11.25v3.8a.38.38,0,0,1-.34.34h-4a.3.3,0,0,1-.23-.11.28.28,0,0,1-.11-.23v-3.8a.34.34,0,0,1,.11-.25.32.32,0,0,1,.23-.09Zm4,.22h-4s0,0-.08,0a.15.15,0,0,0,0,.08v3.8a.31.31,0,0,0,0,.08l.08,0h4l.07,0a.16.16,0,0,0,0-.08v-3.8a.1.1,0,0,0,0-.08.13.13,0,0,0-.07,0ZM4.8,18.1h4a.34.34,0,0,1,.24.09.37.37,0,0,1,.1.25v3.8a.31.31,0,0,1-.1.23.32.32,0,0,1-.24.11h-4a.3.3,0,0,1-.24-.11.31.31,0,0,1-.1-.23v-3.8a.37.37,0,0,1,.1-.25.32.32,0,0,1,.24-.09Zm4,.22h-4a.07.07,0,0,0-.07,0,.08.08,0,0,0,0,.08v3.8a.12.12,0,0,0,0,.08.1.1,0,0,0,.07,0h4a.1.1,0,0,0,.07,0,.12.12,0,0,0,0-.08v-3.8a.08.08,0,0,0,0-.08.07.07,0,0,0-.07,0Zm11-6.42h4A.36.36,0,0,1,24,12a.32.32,0,0,1,.09.25V16a.28.28,0,0,1-.09.24.33.33,0,0,1-.23.1h-4a.39.39,0,0,1-.25-.1.35.35,0,0,1-.09-.24V12.24a.42.42,0,0,1,.09-.25.45.45,0,0,1,.25-.09Zm4,.22h-4a.09.09,0,0,0-.08,0s0,0,0,.08V16s0,.07,0,.08a.08.08,0,0,0,.08,0h4s.05,0,.06,0,0-.05,0-.08V12.24s0-.07,0-.08a.06.06,0,0,0-.06,0Z"/>
    </g>
  </g>
</svg>
