<svg xmlns="http://www.w3.org/2000/svg" viewBox="0 0 22.97 31.06">
  <defs>
    <style>
      .cls-1 {
        fill: #2e6aff;
      }
    </style>
  </defs>
  <title>Ресурс 22i2</title>
  <g id="Слой_2" data-name="Слой 2">
    <g id="Слой_1-2" data-name="Слой 1">
      <path class="cls-1" d="M16.92,3.07V2.74h0V2.61h-3a.27.27,0,0,1-.22-.09.33.33,0,0,1-.1-.24,2.06,2.06,0,0,0-.16-.79A2.1,2.1,0,0,0,13,.81a2.15,2.15,0,0,0-.68-.46A2.26,2.26,0,0,0,11.49.2a2.37,2.37,0,0,0-.8.15A2.15,2.15,0,0,0,10,.81a2.1,2.1,0,0,0-.46.68,2.06,2.06,0,0,0-.15.79.33.33,0,0,1-.1.24.3.3,0,0,1-.23.09H6v.13h0v3H16.92Zm.2-.13V6H5.85v-3h0V2.41H9.07a.12.12,0,0,0,.09,0,.18.18,0,0,0,0-.1,2.27,2.27,0,0,1,.17-.86,2.24,2.24,0,0,1,.5-.75,2.17,2.17,0,0,1,.74-.49A2.16,2.16,0,0,1,11.49,0a2.12,2.12,0,0,1,.87.18,2.08,2.08,0,0,1,.74.49,2.43,2.43,0,0,1,.51.75,2.48,2.48,0,0,1,.17.86.13.13,0,0,0,0,.1.1.1,0,0,0,.08,0h3.23v.53ZM1.53,3H5.15v.66h0V5.37H3.64a1.6,1.6,0,0,0-1.13.47A1.58,1.58,0,0,0,2,7V27.07a1.57,1.57,0,0,0,.47,1.13,1.6,1.6,0,0,0,1.13.48H19.33a1.62,1.62,0,0,0,1.61-1.61V7a1.6,1.6,0,0,0-1.61-1.61H17.81V3.63h0V3h3.62a1.59,1.59,0,0,1,1.09.45A1.53,1.53,0,0,1,23,4.51v25a1.5,1.5,0,0,1-1.53,1.53H1.53A1.52,1.52,0,0,1,0,29.53v-25A1.46,1.46,0,0,1,.45,3.43,1.53,1.53,0,0,1,1.53,3ZM5,3.17H1.53a1.36,1.36,0,0,0-.94.39,1.36,1.36,0,0,0-.39.95v25a1.36,1.36,0,0,0,.39.95,1.36,1.36,0,0,0,.94.38H21.44a1.4,1.4,0,0,0,.95-.38,1.35,1.35,0,0,0,.38-.95v-25a1.35,1.35,0,0,0-.38-.95,1.41,1.41,0,0,0-.95-.39H18v.66h0V5.18h1.32A1.78,1.78,0,0,1,21.13,7V27.07a1.78,1.78,0,0,1-.52,1.27,1.82,1.82,0,0,1-1.28.53H3.64a1.81,1.81,0,0,1-1.8-1.8V7A1.8,1.8,0,0,1,2.37,5.7a1.75,1.75,0,0,1,1.27-.52H5V3.83H5Zm3.71,7.31a.36.36,0,0,1-.23-.09.32.32,0,0,1,.23-.55H18.71a.31.31,0,0,1,.22.09.31.31,0,0,1,0,.46.36.36,0,0,1-.22.09Zm-.09-.23a.14.14,0,0,0,.09,0H18.71a.1.1,0,0,0,.08,0,.12.12,0,0,0,0-.18.1.1,0,0,0-.08,0h-10a.15.15,0,0,0-.09,0,.15.15,0,0,0,0,.18Zm-3,13.48a1.24,1.24,0,0,1,.47.1,1.19,1.19,0,0,1,.39.27,1.11,1.11,0,0,1,.26.4,1,1,0,0,1,.1.46,1,1,0,0,1-.1.46,1.2,1.2,0,0,1-.26.4h0a1,1,0,0,1-.39.26,1.22,1.22,0,0,1-.46.09,1.14,1.14,0,0,1-.46-.09,1.27,1.27,0,0,1-.67-.67A1.34,1.34,0,0,1,4.39,25a1.39,1.39,0,0,1,.09-.46,1,1,0,0,1,.27-.4,1.23,1.23,0,0,1,.4-.27,1.15,1.15,0,0,1,.46-.1ZM6,24a1.11,1.11,0,0,0-.4-.09,1,1,0,0,0-.39.09.8.8,0,0,0-.33.22,1.06,1.06,0,0,0-.22.33.83.83,0,0,0-.08.39.88.88,0,0,0,.08.39,1,1,0,0,0,.55.55,1,1,0,0,0,.39.08A.92.92,0,0,0,6,25.9a1,1,0,0,0,.33-.21h0a1.09,1.09,0,0,0,.23-.33A1.28,1.28,0,0,0,6.63,25a1.23,1.23,0,0,0-.07-.39,1.09,1.09,0,0,0-.23-.33A.84.84,0,0,0,6,24Zm0,.53a.62.62,0,0,0-.19-.12.54.54,0,0,0-.22-.05.5.5,0,0,0-.21.05.62.62,0,0,0-.19.12.41.41,0,0,0-.13.19A.54.54,0,0,0,5,25a.46.46,0,0,0,0,.21.41.41,0,0,0,.13.19.38.38,0,0,0,.18.13.87.87,0,0,0,.22.05.79.79,0,0,0,.22-.05A.52.52,0,0,0,6,25.37H6a.64.64,0,0,0,.13-.19.66.66,0,0,0,0-.21.73.73,0,0,0,0-.22A.64.64,0,0,0,6,24.55Zm-.11-.3a.6.6,0,0,1,.25.16.67.67,0,0,1,.16.25.62.62,0,0,1,.06.3.65.65,0,0,1-.06.3.63.63,0,0,1-.16.24h0a.85.85,0,0,1-.25.17.94.94,0,0,1-.29.06.88.88,0,0,1-.29-.06.94.94,0,0,1-.25-.18,1.08,1.08,0,0,1-.18-.24,1,1,0,0,1,0-.3,1,1,0,0,1,0-.3,1.14,1.14,0,0,1,.18-.25.6.6,0,0,1,.25-.16.56.56,0,0,1,.29-.06.62.62,0,0,1,.3.06Zm-.3-5.45a1.24,1.24,0,0,1,.47.1,1.05,1.05,0,0,1,.39.27,1.12,1.12,0,0,1,.26.38,1.14,1.14,0,0,1,.1.47,1,1,0,0,1-.1.47,1.31,1.31,0,0,1-.26.4,1.33,1.33,0,0,1-.39.26,1.07,1.07,0,0,1-.47.09,1,1,0,0,1-.46-.09,1.38,1.38,0,0,1-.4-.26,1.34,1.34,0,0,1-.27-.4A1.4,1.4,0,0,1,4.39,20a1.56,1.56,0,0,1,.09-.47,1.15,1.15,0,0,1,.27-.38l0,0a1.36,1.36,0,0,1,.38-.24,1.23,1.23,0,0,1,.46-.1Zm.4.29a.93.93,0,0,0-.4-.09,1.22,1.22,0,0,0-.38.07.94.94,0,0,0-.32.23h0a1,1,0,0,0-.22.33.79.79,0,0,0-.08.38.92.92,0,0,0,.08.4,1.19,1.19,0,0,0,.22.33,1.27,1.27,0,0,0,.33.22,1,1,0,0,0,.39.07A1.09,1.09,0,0,0,6,21a1.4,1.4,0,0,0,.32-.22,1.23,1.23,0,0,0,.23-.33,1.34,1.34,0,0,0,.07-.4,1.12,1.12,0,0,0-.07-.38,1,1,0,0,0-.23-.33A.84.84,0,0,0,6,19.09Zm0,.52a.59.59,0,0,0-.19-.11.42.42,0,0,0-.22-.05.41.41,0,0,0-.21.05.41.41,0,0,0-.19.11h0A.55.55,0,0,0,5,20a.54.54,0,0,0,0,.22.41.41,0,0,0,.13.19.5.5,0,0,0,.19.13.71.71,0,0,0,.21,0,.78.78,0,0,0,.22,0A.59.59,0,0,0,6,20.43a.46.46,0,0,0,.13-.19.78.78,0,0,0,0-.22.71.71,0,0,0,0-.21.69.69,0,0,0-.13-.2Zm-.11-.3a.92.92,0,0,1,.25.17.67.67,0,0,1,.16.25.58.58,0,0,1,.06.29.66.66,0,0,1-.06.31.63.63,0,0,1-.16.24.74.74,0,0,1-.25.17.77.77,0,0,1-.3.06.68.68,0,0,1-.29-.06.74.74,0,0,1-.25-.17,1.08,1.08,0,0,1-.18-.24,1.06,1.06,0,0,1,0-.31.75.75,0,0,1,.23-.54h0a.6.6,0,0,1,.25-.16.64.64,0,0,1,.28-.06.77.77,0,0,1,.3.06Zm-.3-5.53a1.24,1.24,0,0,1,.47.1,1,1,0,0,1,.39.26,1.27,1.27,0,0,1,.26.39,1.1,1.1,0,0,1,.1.47,1.07,1.07,0,0,1-.1.47,1.31,1.31,0,0,1-.26.4,1.3,1.3,0,0,1-.39.25,1.07,1.07,0,0,1-.47.1,1,1,0,0,1-.46-.1,1.15,1.15,0,0,1-.67-.65A1.45,1.45,0,0,1,4.39,15a1.39,1.39,0,0,1,.09-.46,1.23,1.23,0,0,1,.27-.4l0,0a1.17,1.17,0,0,1,.38-.24,1.23,1.23,0,0,1,.46-.1Zm.4.28a.92.92,0,0,0-.4-.08,1,1,0,0,0-.38.07,1.07,1.07,0,0,0-.32.22l0,0a.91.91,0,0,0-.22.32.85.85,0,0,0-.08.39.92.92,0,0,0,.08.4,1.36,1.36,0,0,0,.22.33,1.06,1.06,0,0,0,.33.22,1.23,1.23,0,0,0,.39.07A1.34,1.34,0,0,0,6,16a1.4,1.4,0,0,0,.32-.22,1.41,1.41,0,0,0,.23-.33,1.34,1.34,0,0,0,.07-.4,1.23,1.23,0,0,0-.07-.39.94.94,0,0,0-.23-.32A1,1,0,0,0,6,14.06Zm0,.54a.5.5,0,0,0-.19-.13.78.78,0,0,0-.22,0,.52.52,0,0,0-.21,0,.55.55,0,0,0-.19.12h0a.41.41,0,0,0-.13.19A.5.5,0,0,0,5,15a.54.54,0,0,0,0,.22.46.46,0,0,0,.13.19.75.75,0,0,0,.18.13.83.83,0,0,0,.22,0,.78.78,0,0,0,.22,0A.8.8,0,0,0,6,15.41a.64.64,0,0,0,.13-.19.78.78,0,0,0,0-.22.71.71,0,0,0,0-.21A.64.64,0,0,0,6,14.6Zm-.11-.31a.74.74,0,0,1,.25.17.6.6,0,0,1,.16.25.56.56,0,0,1,.06.29.62.62,0,0,1-.06.3.69.69,0,0,1-.41.41.62.62,0,0,1-.3.06.56.56,0,0,1-.29-.06.6.6,0,0,1-.25-.16.94.94,0,0,1-.18-.25,1,1,0,0,1,0-.3.88.88,0,0,1,0-.29.94.94,0,0,1,.18-.25h0a.6.6,0,0,1,.25-.16.64.64,0,0,1,.28-.06.77.77,0,0,1,.3.06Zm2.75,11a.36.36,0,0,1-.23-.09.32.32,0,0,1,.23-.55H18.71a.31.31,0,0,1,.22.09.31.31,0,0,1,0,.46.36.36,0,0,1-.22.09Zm-.09-.23a.14.14,0,0,0,.09,0H18.71a.1.1,0,0,0,.08,0,.12.12,0,0,0,0-.09.11.11,0,0,0,0-.09.1.1,0,0,0-.08,0h-10a.15.15,0,0,0-.09,0,.14.14,0,0,0,0,.09.16.16,0,0,0,0,.09Zm.09-4.7a.32.32,0,0,1-.23-.09A.32.32,0,0,1,8.34,20a.31.31,0,0,1,.09-.22.32.32,0,0,1,.23-.09H18.71a.31.31,0,0,1,.22.09A.32.32,0,0,1,19,20a.33.33,0,0,1-.1.24.31.31,0,0,1-.22.09Zm-.09-.23a.14.14,0,0,0,.09,0H18.71a.1.1,0,0,0,.08,0,.13.13,0,0,0,0-.1.09.09,0,0,0,0-.08.1.1,0,0,0-.08,0h-10a.14.14,0,0,0-.09,0,.11.11,0,0,0,0,.08.17.17,0,0,0,0,.1Zm.09-4.79a.33.33,0,0,1-.23-.1A.3.3,0,0,1,8.34,15a.31.31,0,0,1,.09-.22.33.33,0,0,1,.23-.1H18.71A.34.34,0,0,1,19,15a.31.31,0,0,1-.1.23.32.32,0,0,1-.22.1Zm-.09-.24a.11.11,0,0,0,.09,0H18.71a.08.08,0,0,0,.08,0,.11.11,0,0,0,0-.09.14.14,0,0,0-.12-.12h-10a.11.11,0,0,0-.09,0,.1.1,0,0,0,0,.08.14.14,0,0,0,0,.09ZM11.49,2.76a1,1,0,0,1,.7.3,1,1,0,0,1,.29.7.92.92,0,0,1-.29.7,1,1,0,0,1-.7.29,1,1,0,0,1-.71-.29,1,1,0,0,1-.29-.7,1,1,0,0,1,.29-.7,1,1,0,0,1,.71-.3Zm.56.44a.79.79,0,0,0-1.13,0,.81.81,0,0,0-.23.56.8.8,0,1,0,1.59,0,.77.77,0,0,0-.23-.56Z"/>
    </g>
  </g>
</svg>
