<svg xmlns="http://www.w3.org/2000/svg" viewBox="0 0 21.53 27.18">
  <defs>
    <style>
      .cls-1 {
        fill: #2e6aff;
      }
    </style>
  </defs>
  <title>Ресурс 23i3</title>
  <g id="Слой_2" data-name="Слой 2">
    <g id="Слой_1-2" data-name="Слой 1">
      <path class="cls-1" d="M21.28,22.21,21.17.2H6.34V7.3l-.19.06L4.28,4.8,2.43,7.35l-.18,0V.2H2.1A2,2,0,0,0,.77.76,1.92,1.92,0,0,0,.21,2.09v0c0,5,0,10,0,15,0,2.36,0,4.72,0,7.49a1.12,1.12,0,0,0,0,.32,1.87,1.87,0,0,0,.08.32,2.47,2.47,0,0,0,1.12,1.24A3.59,3.59,0,0,0,3.3,27H21.08c-.3-.35-.55-.64-.78-.89-.63-.72-.95-1.09-1-1.48s.33-.81,1-1.6l.68-.75,0,0ZM21.37.1l.12,22.32h-.3c-.24.27-.45.52-.65.73-.68.74-1,1.1-1,1.45s.32.66.91,1.34c.26.3.57.65.92,1.07l.15.17H3.3a4,4,0,0,1-2-.51A2.65,2.65,0,0,1,.14,25.33l0,0,0,0v0A1.39,1.39,0,0,1,0,25a1.53,1.53,0,0,1,0-.36c0-2.23,0-4.86,0-7.49,0-5,0-10,0-15v0A2.17,2.17,0,0,1,.62.61,2.11,2.11,0,0,1,2.1,0a2.16,2.16,0,0,1,.36,0V7L4.28,4.44,6.13,7V0H21.37ZM2.18,15.72a.35.35,0,0,1-.25-.09.37.37,0,0,1-.1-.24A.34.34,0,0,1,2.18,15h17a.33.33,0,0,1,.24.1.36.36,0,0,1,.11.25.38.38,0,0,1-.11.24.32.32,0,0,1-.24.09Zm-.1-.24a.15.15,0,0,0,.1,0h17a.15.15,0,0,0,.1,0s0-.05,0-.09,0-.07,0-.1a.15.15,0,0,0-.1,0h-17a.15.15,0,0,0-.1,0,.13.13,0,0,0,0,.1.11.11,0,0,0,0,.09Zm.1-5.34a.34.34,0,0,1-.35-.35.34.34,0,0,1,.1-.23.36.36,0,0,1,.25-.1h17a.31.31,0,0,1,.24.1.36.36,0,0,1,.11.23.36.36,0,0,1-.11.25.33.33,0,0,1-.24.1Zm-.1-.25a.12.12,0,0,0,.1,0h17a.12.12,0,0,0,.1,0,.23.23,0,0,0,0-.1s0-.06,0-.08a.12.12,0,0,0-.1,0h-17a.12.12,0,0,0-.1,0,.1.1,0,0,0,0,.08.12.12,0,0,0,0,.1Z"/>
    </g>
  </g>
</svg>
