<svg xmlns="http://www.w3.org/2000/svg" viewBox="0 0 73.5 73.47">
  <defs>
    <style>
      .cls-1 {
        fill: none;
        stroke: #739aff;
        stroke-miterlimit: 10;
        stroke-width: 1px;
      }
    </style>
  </defs>
  <title>Ресурс 1111</title>
  <g id="Слой_2" data-name="Слой 2">
    <g id="Слой_1-2" data-name="Слой 1">
      <path class="cls-1" d="M36.75.75A36,36,0,1,1,11.3,11.3,36,36,0,0,1,36.75.75Zm35.46,36A35.42,35.42,0,1,0,61.82,61.82,35.45,35.45,0,0,0,72.21,36.75Zm-32.59,1H50.48a1,1,0,0,0,.73-.29,1,1,0,0,0,0-1.41,1,1,0,0,0-.73-.29H39.71l-.06-.19A2.92,2.92,0,0,0,39,34.39a3.08,3.08,0,0,0-1.07-.79l-.16-.06V19.81a1.13,1.13,0,0,0-.29-.7,1,1,0,0,0-.72-.31.88.88,0,0,0-.69.31,1,1,0,0,0-.32.7v13.7l-.16.06a3.12,3.12,0,0,0-1.41,1.13,2.87,2.87,0,0,0-.54,1.73,3.11,3.11,0,0,0,3.06,3.06,2.89,2.89,0,0,0,1.57-.44,3.12,3.12,0,0,0,1.14-1.17l.06-.15Zm10.86.53H39.77a3.24,3.24,0,0,1-1.23,1.26,3.56,3.56,0,0,1-1.85.51,3.65,3.65,0,0,1-3.59-3.6,3.81,3.81,0,0,1,.63-2,3.41,3.41,0,0,1,1.48-1.23V19.81a1.58,1.58,0,0,1,.47-1.08,1.5,1.5,0,0,1,1.07-.44,1.52,1.52,0,0,1,1.1.44,1.69,1.69,0,0,1,.44,1.08V33.19A4.37,4.37,0,0,1,39.4,34a4.15,4.15,0,0,1,.69,1.17H50.48a1.53,1.53,0,0,1,1.1,2.61,1.52,1.52,0,0,1-1.1.44ZM23.55,10.83l2,3.37a1.49,1.49,0,0,1,.15,1.16,1.45,1.45,0,0,1-.72.92h0a1.52,1.52,0,0,1-1.17.15,1.39,1.39,0,0,1-.91-.72l-1.95-3.34a29.29,29.29,0,0,0-8.54,8.54l3.37,1.92a1.52,1.52,0,0,1,.7.94,1.47,1.47,0,0,1-.13,1.14l0,0a1.43,1.43,0,0,1-.92.69,1.49,1.49,0,0,1-1.16-.12l-3.34-2a27.55,27.55,0,0,0-2.17,5.67,26.76,26.76,0,0,0-.95,6h3.84a1.51,1.51,0,0,1,1.11.44,1.52,1.52,0,0,1,.44,1.1,1.5,1.5,0,0,1-.44,1.07,1.55,1.55,0,0,1-1.11.44H7.71a31,31,0,0,0,1,6,30.35,30.35,0,0,0,2.17,5.64L14.2,48a1.5,1.5,0,0,1,1.16-.15,1.43,1.43,0,0,1,.92.69l0,0a1.55,1.55,0,0,1-.57,2.08l-3.37,2a28,28,0,0,0,3.84,4.7,30.06,30.06,0,0,0,4.7,3.84l1.95-3.37a1.53,1.53,0,0,1,.91-.73,1.57,1.57,0,0,1,1.17.16h0a1.57,1.57,0,0,1,.69,1,1.5,1.5,0,0,1-.15,1.16l-2,3.34a29.38,29.38,0,0,0,5.67,2.17,27,27,0,0,0,6,1V61.88a1.57,1.57,0,0,1,.47-1.07,1.5,1.5,0,0,1,1.07-.44,1.52,1.52,0,0,1,1.1.44,1.69,1.69,0,0,1,.44,1.07v3.88a27,27,0,0,0,6-1A27.55,27.55,0,0,0,50,62.64L48,59.3a1.53,1.53,0,0,1-.12-1.16,1.57,1.57,0,0,1,.69-1h0A1.57,1.57,0,0,1,49.73,57a1.68,1.68,0,0,1,.94.73l1.92,3.37a31.76,31.76,0,0,0,4.73-3.84,29.33,29.33,0,0,0,3.81-4.7l-3.34-2a1.46,1.46,0,0,1-.72-.91,1.5,1.5,0,0,1,.15-1.17h0a1.38,1.38,0,0,1,.92-.72A1.49,1.49,0,0,1,59.3,48l3.37,1.93a27.78,27.78,0,0,0,2.17-5.64,31,31,0,0,0,1-6H61.92a1.62,1.62,0,0,1-1.11-.44,1.56,1.56,0,0,1,0-2.17,1.57,1.57,0,0,1,1.11-.44h3.87a29.19,29.19,0,0,0-3.12-11.66L59.3,25.47a1.34,1.34,0,0,1-1.16.16,1.43,1.43,0,0,1-.92-.69v0a1.43,1.43,0,0,1-.15-1.14,1.57,1.57,0,0,1,.69-.94l3.37-1.92a31,31,0,0,0-3.81-4.73,31,31,0,0,0-4.73-3.81l-1.92,3.34a1.55,1.55,0,0,1-2.11.57h0a1.48,1.48,0,0,1-.69-.92A1.52,1.52,0,0,1,48,14.2l2-3.37a29.38,29.38,0,0,0-5.67-2.17,28.91,28.91,0,0,0-6-1v3.87a1.61,1.61,0,0,1-.44,1.08,1.49,1.49,0,0,1-2.17,0,1.5,1.5,0,0,1-.47-1.08V7.71a28.91,28.91,0,0,0-6,1,29.38,29.38,0,0,0-5.67,2.17ZM25,14.45l-2.2-3.84.25-.13a30.78,30.78,0,0,1,6-2.33,28,28,0,0,1,6.39-1l.25,0v4.44a.91.91,0,0,0,.32.7.88.88,0,0,0,.69.31,1,1,0,0,0,1-1V7.14l.28,0a28.11,28.11,0,0,1,6.4,1,32.5,32.5,0,0,1,6,2.33l.22.13c-.72,1.26-1.51,2.58-2.2,3.87a1,1,0,0,0-.1.73.94.94,0,0,0,.47.6v0a1.13,1.13,0,0,0,.76.09,1,1,0,0,0,.6-.47l2.2-3.84.26.15a31,31,0,0,1,5,4,29.8,29.8,0,0,1,4,5l.15.23L58,23.3a.91.91,0,0,0-.47.6,1.11,1.11,0,0,0,.09.76,1,1,0,0,0,.63.47,1.07,1.07,0,0,0,.76-.1l3.84-2.23.13.25a30.54,30.54,0,0,1,2.33,6,27.93,27.93,0,0,1,1,6.39l0,.28H61.92a1,1,0,0,0-.73.29,1,1,0,0,0,0,1.41,1,1,0,0,0,.73.29h4.44l0,.28a27.93,27.93,0,0,1-1,6.39,30.78,30.78,0,0,1-2.33,6l-.13.25-3.84-2.23a1.07,1.07,0,0,0-.76-.1,1.16,1.16,0,0,0-.63.47,1.13,1.13,0,0,0-.09.76,1,1,0,0,0,.47.63l3.84,2.2-.15.22a29.48,29.48,0,0,1-4,5,30,30,0,0,1-5,4.07l-.26.12L50.2,58a1,1,0,0,0-1.36-.35.94.94,0,0,0-.47.6,1.05,1.05,0,0,0,.1.76l2.2,3.84-.22.13a30,30,0,0,1-6,2.36,31.18,31.18,0,0,1-6.4,1h-.28V61.88a1.13,1.13,0,0,0-.29-.69,1,1,0,0,0-.72-.28.86.86,0,0,0-.69.28,1,1,0,0,0-.32.69v4.45h-.25a31.09,31.09,0,0,1-6.39-1,28.54,28.54,0,0,1-6-2.36l-.25-.13c.72-1.26,1.54-2.55,2.24-3.84a1,1,0,0,0-.38-1.36h0a.9.9,0,0,0-.73-.09,1.11,1.11,0,0,0-.63.44c-.72,1.07-1.54,2.68-2.2,3.84l-.26-.12a29.75,29.75,0,0,1-5-4.07,28.26,28.26,0,0,1-4.07-5l-.12-.22,3.81-2.2a1,1,0,0,0,.47-.63,1,1,0,0,0-.09-.73v0a1,1,0,0,0-.6-.47,1.05,1.05,0,0,0-.76.1l-3.84,2.23-.13-.25a29.09,29.09,0,0,1-2.36-6,30.32,30.32,0,0,1-1-6.39v-.28h4.4a1,1,0,0,0,.73-.29,1,1,0,0,0,0-1.41,1,1,0,0,0-.73-.29H7.18v-.28a30.32,30.32,0,0,1,1-6.39,28.87,28.87,0,0,1,2.36-6l.13-.25L14.48,25a1.05,1.05,0,0,0,.76.1.91.91,0,0,0,.6-.47h0a1.13,1.13,0,0,0,.09-.76.91.91,0,0,0-.47-.6c-1.26-.69-2.55-1.48-3.81-2.23l.12-.23a28.55,28.55,0,0,1,4.07-5,29.58,29.58,0,0,1,5-4l.26-.15c.69,1.22,1.6,2.61,2.2,3.84a1,1,0,0,0,.63.47,1.14,1.14,0,0,0,.76-.09,1.11,1.11,0,0,0,.44-.63.83.83,0,0,0-.1-.76Z"/>
    </g>
  </g>
</svg>
