<svg xmlns="http://www.w3.org/2000/svg" viewBox="0 0 523.63 155.46">
  <defs>
    <style>
      .cls-1, .cls-2 {
        fill: #2f6aff;
      }

      .cls-2 {
        font-size: 87.04px;
        font-family: WarfaceRegularEnglish, WarfaceRegularEnglish;
      }

      .cls-3 {
        font-size: 61.37px;
        letter-spacing: 0.11em;
      }

      .cls-4 {
        fill: #fff;
      }

      .cls-5 {
        fill: #3a3a3a;
      }

      .cls-6 {
        fill: #ffe739;
      }
    </style>
  </defs>
  <title>Ресурс 1logo_py_white</title>
  <g id="Слой_2" data-name="Слой 2">
    <g id="Слой_1-2" data-name="Слой 1">
      <path class="cls-1" d="M479.34,35.71a47.59,47.59,0,0,1-15,.33,5.33,5.33,0,0,1,.37-5.37,11.66,11.66,0,0,1,2.9-2.56,19.07,19.07,0,0,0,6-6.07,14.55,14.55,0,0,0,1.28-9.4c-.86-5-4-9.82-8.67-11.68-3.62-1.43-7.69-1-11.54-.4-4.77.73-10.09,2-12.52,6.21a13.23,13.23,0,0,0-1.39,4,20.86,20.86,0,0,0,.54,11.62,12.89,12.89,0,0,0,8.14,8l0,1.31a13.94,13.94,0,0,1,.43,5c-5-1.36-10.36-.64-15.52.09a32,32,0,0,1-.6,6.9l14.4.24a.37.37,0,0,1,.27.07.45.45,0,0,1,.09.28c0,.76.09,1.52.13,2.28l.26.25a27.79,27.79,0,0,0,3.1-.71,42.06,42.06,0,0,1,11-.69,2.7,2.7,0,0,1,2,.63l-.16-1.18c-.68-.18-.69-1.25-.15-1.7a2.94,2.94,0,0,1,2-.41l13.28.57A20.82,20.82,0,0,0,479.34,35.71ZM460.93,23.44a7.54,7.54,0,0,1-3.41.11,12.59,12.59,0,0,1-5.73-2.16A6.65,6.65,0,0,1,449,16.14a9.67,9.67,0,0,1,.54-2.7,9.71,9.71,0,0,1,2-4.06,7.74,7.74,0,0,1,5.53-2,6.19,6.19,0,0,1,2.38.37,6.52,6.52,0,0,1,1.9,1.31A27.94,27.94,0,0,1,465,13l-.26.94a14.36,14.36,0,0,1-.25,5.47A5.85,5.85,0,0,1,460.93,23.44Z"/>
      <path class="cls-1" d="M523.52,96.68a107.78,107.78,0,0,1-13.39,24.73c-1.53-2.36-3.91-5-6.6-4.21a6.49,6.49,0,0,0-1.76,1,87,87,0,0,0-10.33,8.75c-4.27,4.24-8.17,9-13.29,12.16-3.48,2.15-7.41,3.5-11,5.37s-7.15,4.48-8.85,8.21c-.79-1.21-2.38-1.51-3.7-2.1a18.45,18.45,0,0,1-4.92-3.91c-11.88-11.4-28.88-16.65-39.79-29a57.42,57.42,0,0,1-5.93,5.64L390.45,95.86l-.5-.13a33.66,33.66,0,0,1,12.1,3.71c1.67.88,3.27,1.91,5,2.63,4,1.65,8.88,1.69,12.06,4.65A22.91,22.91,0,0,0,414.5,111c2.89.88,5.44,2.62,8,4.16a68.12,68.12,0,0,0,23,8.44,26,26,0,0,0,.22-5.85l-.42-.21a36.83,36.83,0,0,1,10.16-1.24c4.5.29,9.29,2.16,13.3.11a30.21,30.21,0,0,1,.6,7.1,153.62,153.62,0,0,0,31.06-11.6L495.73,107c3.52.18,6.64-2,9.87-3.43,6.08-2.63,13.65-2.79,18-7.77"/>
      <text class="cls-2" transform="translate(0 80.93)">OdessaPY<tspan class="cls-3"><tspan x="0" y="53.56">conference</tspan></tspan></text>
      <path class="cls-1" d="M450,45.12a335.47,335.47,0,0,0-4.34,54.81A215.33,215.33,0,0,0,447,124.81a1.16,1.16,0,0,0,1.55,1.2l22.31-1.19a296.91,296.91,0,0,1-5.15-73.6,17.15,17.15,0,0,0-.22-5.21,8.46,8.46,0,0,0-15.55-2.14"/>
      <path class="cls-4" d="M465.67,41.82c-3,.51-4.62,3.37-6.28,5.68l-6.85,9.57c-1,1.37-.56,4.52-.49,6.1,0,.47.42,4.1.87,3.47L459.08,58c1.74-2.43,3.4-5.75,6.59-6.28,1.49-.25.54-10,0-9.93Z"/>
      <path class="cls-4" d="M444.79,94.56a74.78,74.78,0,0,0,24.4,15.1c-.09,0,1.93-9.19,0-9.93a74.75,74.75,0,0,1-24.4-15.09,35.24,35.24,0,0,0-.71,5c0,1.26-.33,4,.71,5Z"/>
      <path class="cls-4" d="M467.25,87.36c-2.5,1.94-2.18,6.15-2.12,9a22.91,22.91,0,0,0,.61,5.34c.17.6.4,1.18.62,1.76l.58,1.45q1,3.65.18-3.59c-.15,1.88-.64,5.06.26,6.79.79,1.53.9-1,1-1.78a28.45,28.45,0,0,0-.39-9,24.38,24.38,0,0,0-.93-2.69c-.57-1.47-.55-3.26-.6,1.11-.05,4.09-.48,2.61.82,1.6,1-.78.71-3.83.71-5a37.5,37.5,0,0,0-.71-5Z"/>
      <path class="cls-1" d="M449.18,44.84c-.05,5.31-.33,10.62-.85,15.9"/>
      <path class="cls-4" d="M466.2,43.18a4.6,4.6,0,0,0-4.1,3.17c-.37,1-.17,1.34-1.27,2.09-.75.51-1.28.49-1.84,1.28-1.21,1.7-1.18,4.81-3.07,6-.85.53-1.49.15-2,1.12a6.8,6.8,0,0,0-.46,2.87c-.13,1.92-.67,10.86,3.63,7.46,1.7-1.33,2.12-3.71,2.9-5.6a19.38,19.38,0,0,1,4.6-6.86c1-.93.71-3.72.71-5,0-.46-.66-5-.71-5a20.29,20.29,0,0,0-5,7.21c-.46,1.12-3.25,8.77-5.27,5.36l.42,2.28-.05-.52-.42,7.28c.42-.8,1.65-.66,2.32-1.2a4.46,4.46,0,0,0,1-1.6c.74-1.59,1-3.93,2.55-5s1.76-.65,2.39-2.46a3.94,3.94,0,0,1,3.71-3c1.3-.12.78-10,0-9.92Z"/>
      <path class="cls-1" d="M450.34,47l-1.22,0,0,1.83a23.32,23.32,0,0,0-.06-2.36c-.93,2.32-.1,4.92.15,7.4a29.34,29.34,0,0,1-.2,6.21"/>
      <path class="cls-5" d="M445.9,122.37c-.62-5.91.34-11.7,1.28-17.51.12-.73-.19-5.49-.51-3.53-1.26,7.83-2.23,15.63-1.38,23.56.32,3.07.71-1.62.61-2.52Z"/>
      <path class="cls-1" d="M445.42,102.76a23.19,23.19,0,0,1-.6,9.63l.53,2.82a31.74,31.74,0,0,1,.9-7.83l-.53-2.82c-.11,3.36-.34,6.73-.32,10.09a20.26,20.26,0,0,0,.1,2.34c.17,1.51-.08,2,.41.82-.53,1.32.41,4.26.19,4.82a12.15,12.15,0,0,0,.64-5.71,81,81,0,0,1-.33-11c0-.43-.25-3.84-.52-2.83a43.77,43.77,0,0,0-1.23,10.82c0,.41.18,3.85.52,2.82,1.77-5.31,1.39-11,.86-16.47-.3-3.07-.71,1.63-.62,2.53Z"/>
      <path class="cls-6" d="M445.6,90.18c-2.16,1.34-2.45,4.31-2.51,6.86-.07,3.07,0,6.47,2,8.74s5.11,2.61,8,2.93l2.21.25a5,5,0,0,0,3.36-.41c1.55-1,1.41-3.46.39-5s-2.66-2.59-3.91-4a49.7,49.7,0,0,1-3.54-5.25c-1.21-1.73-2.89-3.33-5-3.58a2.16,2.16,0,0,0-2.3,1Z"/>
      <path class="cls-1" d="M445.18,113.38a27.87,27.87,0,0,0,1.2,10.85,18.71,18.71,0,0,1-.69-7.69,3.69,3.69,0,0,1,.51,2.23,36.29,36.29,0,0,1-.46-9.07l-.15,2.34a1.83,1.83,0,0,1-.16-1.17"/>
      <path class="cls-6" d="M455.22,81.18l4,.08a6.51,6.51,0,0,0,3.81-.72,4.26,4.26,0,0,0,1.45-4.37,11.17,11.17,0,0,0-2.23-4.29A73.72,73.72,0,0,0,454,62.43c-.1-2.74-.3-5.57-1.72-7.89a14.16,14.16,0,0,0-4.5-4.17,45.52,45.52,0,0,0-5.24-2.93,12.23,12.23,0,0,0-4-1.3,5.09,5.09,0,0,0-4,1.18,5.42,5.42,0,0,0-1.36,2.31c-1.43,4.3.34,8.94,2.08,13.12A5.3,5.3,0,0,0,436.66,65a7.43,7.43,0,0,0,2.8.94,9.35,9.35,0,0,1,5.24,3.47,24.58,24.58,0,0,1,2.13,4,39.71,39.71,0,0,0,3,5.15,6.48,6.48,0,0,0,2,2.07A7.1,7.1,0,0,0,455.22,81.18ZM442.71,52.37a3.34,3.34,0,0,1-.83-3.41.76.76,0,0,1,.11-.22.47.47,0,0,1,.25-.16,1.08,1.08,0,0,1,1,.26,2.13,2.13,0,0,1,.58.95A2.61,2.61,0,0,1,444,51.3l-.05-.35a2.22,2.22,0,0,1-.53,1.46.56.56,0,0,1-.21.16C443,52.63,442.84,52.5,442.71,52.37Zm-6.32,3.83a1.85,1.85,0,0,1-.16-.52c-.17-.63-.94-1-1-1.67a1.08,1.08,0,0,1,.81-1,3.08,3.08,0,0,1,1.35,0,1.11,1.11,0,0,1,.64.26,1.07,1.07,0,0,1,.16.79c0,.66-.07,1.31-.1,2l-.58.15a1.85,1.85,0,0,1-.6.2A.61.61,0,0,1,436.39,56.2Z"/>
      <path class="cls-6" d="M456.62,70.1a13.71,13.71,0,0,0-4.91,4.78,3.66,3.66,0,0,0-.54,1.29,3.53,3.53,0,0,0,.73,2.47l-.37-.49c1.07,4.26,2.74,8.92,6.69,10.84,2.14,1,4.61,1.08,7,1.1,1.5,0,3.19-.06,4.2-1.17a4,4,0,0,0,.87-2.12,11.11,11.11,0,0,0-.95-5.69,13.38,13.38,0,0,0-3.1-4.7,19.6,19.6,0,0,0-2.71-2l-9.18-6"/>
      <path class="cls-1" d="M477.94,55.66c-.33-2.44-.77-5.08-2.56-6.77a7.1,7.1,0,0,0-5.69-1.65A16.11,16.11,0,0,0,464,49.3a11.77,11.77,0,0,0-4.15,3.23c-1.42,2-1.69,4.5-2.67,6.71-2.45,5.54-9.08,8.55-11.92,13.64-2,1.82-2.58,4.9-2.6,7.66a28.87,28.87,0,0,0,.54,5.72,1.9,1.9,0,0,0,2.74,1.85,22.78,22.78,0,0,0,12.6-8.3c1.21-1.6,2.19-3.35,3.38-5a25.39,25.39,0,0,1,4.35-4.62A8.2,8.2,0,0,1,469,68.59a24,24,0,0,1,2.68-.39,8,8,0,0,0,6.09-5.09C478.62,60.75,478.28,58.15,477.94,55.66Zm-8.15-2.33a2,2,0,0,1-2.25.23,1,1,0,0,1-.41-.42,1.24,1.24,0,0,1,0-.85,10.3,10.3,0,0,1,.55-1.43,1.58,1.58,0,0,1,.59-.73,1.44,1.44,0,0,1,.65-.11,4.39,4.39,0,0,1,1.47.31l.19.84A2.43,2.43,0,0,1,469.79,53.33Zm6.14,3.7a3.48,3.48,0,0,1-.55,1.95,1.72,1.72,0,0,1-1.52.91,2.58,2.58,0,0,1-1.59-1.33,2.07,2.07,0,0,1,.27-1.52,3.79,3.79,0,0,1,.78-1.18,1.52,1.52,0,0,1,1.3-.42,2.24,2.24,0,0,1,.59.27l.79.45Z"/>
      <path class="cls-6" d="M461.22,83.34c.94,0,1-8.93,0-8.93s-1,8.93,0,8.93Z"/>
      <path class="cls-6" d="M445.62,93c4.21,1.24,7.15,5.14,11.22,6.79,1.14.47,2.36.74,3.52,1.16,5.72,2.07,9.59,7.36,12.6,12.64a16.33,16.33,0,0,1,2.49,6.73,21.44,21.44,0,0,1-.65,5.45c-.49,2.67-.47,5.55-1.83,8-.38.67-.83,1.29-1.17,2s-.6,1.56-.91,2.34a7.89,7.89,0,0,1-3.25,4,20.88,20.88,0,0,1-4.73,2.35c-1.93.68-4.62,1.48-6.69,1.15a18.74,18.74,0,0,1-6.21-2.68,11.82,11.82,0,0,1-3.35-3,4.08,4.08,0,0,1-1-1.87,6.27,6.27,0,0,1,.85-2.09c.13-.29,1.34-2.51,1.13-2.72l-.48-.45c-1.51,1.73-.84,4.61.85,6.16s4.07,2.09,6.34,2.44a17.74,17.74,0,0,0,7,0,7.38,7.38,0,0,0,5.28-4.24,11.47,11.47,0,0,0,.51-3.55c.09-2.58-.11-5.26.2-7.81.25-2.08.52-3.19-.55-5.18-2-3.76-6-6.38-10-7.6-1.38-.42-2.79-.71-4.14-1.21a13.88,13.88,0,0,1-8.43-9.47"/>
      <path class="cls-4" d="M466.66,86.91c-3,3.15-2.93,8.09-2.78,12.15,0,.34.14,4.11.87,3.46.41-.36.39-1.86.42-2.28a32.47,32.47,0,0,0,.07-3.82,16.81,16.81,0,0,1-.14,3.4l.09-.36c.14-.35.26-.7.44-1a8.58,8.58,0,0,1,1.4-1.93c.35-.37.39-1.91.43-2.28a28.66,28.66,0,0,0,.07-3.82c0-.49-.29-4.08-.87-3.47Z"/>
      <path class="cls-4" d="M459.53,105.12a19.69,19.69,0,0,0,12.15-5.94c1-1.06.55-4.75.5-6.11,0-.49-.28-4.07-.87-3.46a19.2,19.2,0,0,1-11.78,5.59c-1.34.14-.74,10,0,9.92Z"/>
      <path class="cls-6" d="M447.42,97.92a40.66,40.66,0,0,0,13.46,9.33c7.13,3,13.85,6.88,12.46,16.1-.27,1.76-.7,4.63,0,6.31.44,1.07.6,2,.9,0,1.17-7.73,1.86-17.7-2.79-24.51-2.46-3.61-5.95-5-9.86-6.53a40.21,40.21,0,0,1-13.83-9.31c-.61-.62-.77,2.85-.78,3.12-.06,1.14-.48,4.55.44,5.49Z"/>
      <path class="cls-6" d="M444.38,101.38c-.25,2.28-.65,5.15.08,7.4.91,2.77,3.3,3.8,5.73,5.14a72.58,72.58,0,0,0,10.25,4.63c2.37.86,8.12,2.21,8,5.63,0,1-.47,4.86.45,5.49.68.47.77-2.85.78-3.11.23-4.93.63-12-4.19-15-2.78-1.73-6.47-2.4-9.48-3.72-3.47-1.52-9.41-3.6-11-7.21l.38,6.56.15-1.3c.13-1.25.7-5.16-.23-6.11s-.74.34-.87,1.61Z"/>
      <path class="cls-6" d="M446,89.93c-3.18,1.85-3.05,8.09-3.07,11.26-.05,4.79.33,8.89,5.08,11,.42.19.63-4.14.63-4.47,0-.78.3-4-.63-4.46a10.92,10.92,0,0,1-2.2-1.2l-1-1c-.44-1-.61-.86-.52.38-.14,1.18-.15,1.38,0,.6a10.77,10.77,0,0,1,.23-1.13,3.15,3.15,0,0,1,1.5-2.11c.91-.52.64-3.58.64-4.46,0-.32-.37-4.62-.64-4.46Z"/>
      <path class="cls-6" d="M446.35,100.59c-2-.66-3.41-3-3.66-5.07l.1,5.41c-.06.9.4-.86.55-1.1a4,4,0,0,1,1.43-1.32,7.61,7.61,0,0,1,3.44-.85c1.07,0,.81-9,0-8.93-5.41.29-6.51,4.65-6.59,9.36-.07,3.69.5,10,4.73,11.43,0,0,1.69-8.36,0-8.93Z"/>
      <path class="cls-6" d="M456.18,146.49c3-.69,6.17-1.45,8.43-3.65s2.67-5.82,4.86-8.25c.93-1,.5-4.21.45-5.5,0-.43-.29-3.67-.79-3.11-2,2.26-2.33,5.47-4.34,7.73s-5.62,3.16-8.61,3.85c-1.47.33-.32,9,0,8.93Z"/>
      <path class="cls-6" d="M446.61,138.79c1.56,3.57,7.52,3.9,10.81,3.81.34,0,.3-3,0-3-3.22.09-9.18-.23-10.7-3.71-.1-.24-.26,1-.26,1a4.35,4.35,0,0,0,.15,1.83Z"/>
      <path class="cls-6" d="M454.34,142.58a6.17,6.17,0,0,0,2.51-1.21c.31-.25.22-1.15.22-1.49a6.11,6.11,0,0,0-.07-1s-.09-.48-.15-.44a6,6,0,0,1-2.51,1.21c-.27.06-.21,1.28-.21,1.49s0,1.53.21,1.49Z"/>
      <path class="cls-4" d="M448.49,111.62c-9.18,4-9.33,19.88-4,27,6.61,8.83,23,10.4,29.35.61.58-.9.78-9.87-.19-9.75a36.57,36.57,0,0,1-13.59-.63c-3.08-.76-10.23-2.57-11.67-5.76v9.57c1.05-2.76,6.65-5.56,9-7.23A38.1,38.1,0,0,1,468,120c1.79-.56.11-10,0-9.92-6,1.87-10.79,5.59-15.74,9.28-4.24,3.17-5,4.44-4.73,9.88.22,4.84,2.76,5.93,7.2,7.81a36.15,36.15,0,0,0,18.93,2.41l-.19-9.75c-4.08,6.25-12.29,7.33-19,5.47a17.5,17.5,0,0,1-9.56-6.07c-1.36-1.83-1.64-2-1.12-3.64.6-1.92,3-3.16,4.72-3.9,2-.84-.19-9.84,0-9.92Z"/>
      <path class="cls-4" d="M454,108.81a19.39,19.39,0,0,0-8.48,6.08,5.86,5.86,0,0,0-.42,2.28A28.63,28.63,0,0,0,445,121c0,.47.36,4.09.87,3.46a18.48,18.48,0,0,1,8.1-5.72c1-.35.7-4.16.7-5,0-.35-.22-5.13-.7-5Z"/>
      <path class="cls-4" d="M463.24,128.08c-3.51-1.63-7.43-5.3-7.85-9.42-.08-.79-.11-3.29-1-1.78s-.42,5.15-.26,6.79c.63,6.17,3.22,11.62,9.08,14.33.46.21.71-4.6.71-5,0-.88.33-4.48-.71-5Z"/>
      <path class="cls-1" d="M465.26,95.27c-1-1.61.61-3.82,2.47-4.07s3.65.83,5,2.1a15.87,15.87,0,0,1,5.12,10.5c.2,3.39-.57,6.53-3.26,8.6a34.6,34.6,0,0,1-9.28,5.2c-2.79,1-6,1.8-7.65,4.24a7.38,7.38,0,0,0,0,7.7,12.94,12.94,0,0,0,6.18,5.06,11,11,0,0,0,5.23,1c1.78-.16,3.17-1,5-1.13l.55.52c-3.69,1.24-6.23,4.81-9.91,6.07-3,1-6.21.4-9.17-.59a27.09,27.09,0,0,1-4.48-1.89,17.75,17.75,0,0,1-8.72-10.46,13.35,13.35,0,0,1,3.18-13c4.24-4.15,10.89-4.49,16-7.46a8.47,8.47,0,0,0,3.21-2.93c1.93-3.31.1-7.56.81-11.33"/>
    </g>
  </g>
</svg>
