<svg xmlns="http://www.w3.org/2000/svg" viewBox="0 0 72.38 70.89">
  <defs>
    <style>
      .cls-1 {
        fill: #2e6fff;
      }
    </style>
  </defs>
  <title>Ресурс 2dinner_p</title>
  <g id="Слой_2" data-name="Слой 2">
    <g id="Слой_1-2" data-name="Слой 1">
      <path class="cls-1" d="M4.52,1.79c-6,8.47-5.37,16.41.76,24.69a100.89,100.89,0,0,0,12.14,13c3.88,3.66,9,8.27,14.56,5.05,1.06-.61-.18-4.84.09-5-7.38,4.24-14.82-5.1-19.32-9.65A74,74,0,0,1,5.05,21c-1.15-1.61-2.83-3.64-3.36-5.58-1-3.74,1-6.1,2.94-8.8.77-1.08-.31-4.53-.11-4.82Z" transform="translate(-0.33)"/>
      <path class="cls-1" d="M31.65,44.08A96.29,96.29,0,0,0,44.08,59.4c3.58,3.55,9,9.74,14.14,10.79,7.84,1.6,8-10.57,3.74-14.13-5-4.2-10.25-7.45-14.8-12.34-4.08-4.38-7.87-9-12.21-13.16-4.64-4.44-10.14-7.43-14.64-12C15.09,13.26,10,7.81,4.81,2.51c.09.1-1.13,4-.28,4.82,3.92,4,7.75,8,11.62,12,3.46,3.59,6.72,7.48,11,10.08C36.25,35,42.37,44.19,49.81,51.58a82.47,82.47,0,0,0,10.38,8.28c2.1,1.51,5,3.35,1.35,5-2.13,1-4.29.09-6.17-1C45.86,58.12,38,48.41,31.93,39.26c.2.31-1,3.69-.28,4.82Z" transform="translate(-0.33)"/>
      <path class="cls-1" d="M23.92,39.5C19.16,46.13,12.29,50.37,6.81,56.25A11.93,11.93,0,0,0,4,67.28c1.8,8.12,11.33.39,14.72-2.28A62.94,62.94,0,0,0,34.24,47.11c.69-1.19-.34-4.42-.11-4.82A60.74,60.74,0,0,1,23.82,55.54C20.23,59,13.88,65.41,8.54,66,5.1,66.3,4.3,64,6.43,61.61a67.41,67.41,0,0,1,6.74-6.12A66.73,66.73,0,0,0,24,44.32c.77-1.08-.31-4.54-.11-4.82Z" transform="translate(-0.33)"/>
      <path class="cls-1" d="M34.24,34.76a32.17,32.17,0,0,1,7.7-6.93c.8-.49.54-4.18.18-4.91-2.55-5.19.13-7.43,4.28-10,2.91-1.78,5.92-3.41,8.88-5.11,3.95-2.26,5.49-4.38,9.15-.79,2.62,2.58,5.12,5.29,7.62,8l.09-4.82c-3.27,6-7.79,17.37-15.3,18.69-3.11.55-7.19-1.16-10-.2-.65.22-2,1.89-2.3,2.18-1.68,1.64-3.38,3.26-5,5-.85.89.23,4.69.11,4.82,2.42-2.54,5.46-7.13,9.09-7s7.27,1.08,10.66-.52c2.91-1.36,4.54-4.45,6.23-7C68,22.56,70.19,18.84,72.25,15c.43-.8.74-4.1.08-4.82q-3.45-3.71-7-7.32C63.55,1.07,62.58-.64,59.94.24s-5.25,3-7.62,4.36c-2.56,1.47-5.27,2.83-7.68,4.55-6.37,4.55-5.94,12.17-2.79,18.59L42,22.83a32.82,32.82,0,0,0-7.9,7.11c-.82,1,.27,4.63.11,4.82Z" transform="translate(-0.33)"/>
      <path class="cls-1" d="M51.13,19.85c5.36-1,7.15-6.82,11.26-9.65.52-.36.39-1.95.4-2.5a16,16,0,0,0-.32-2.5C58.38,8,56.53,13.91,51.22,14.85c-.8.14-.33,5-.09,5Z" transform="translate(-0.33)"/>
      <path class="cls-1" d="M56.6,24A55.35,55.35,0,0,0,68.28,11.4c.49-.73.33-2.23.31-3.07,0-.23-.2-2.06-.41-1.75A55,55,0,0,1,56.69,19c-.52.41-.39,1.91-.4,2.49A20.94,20.94,0,0,0,56.6,24Z" transform="translate(-0.33)"/>
      <path class="cls-1" d="M22.6,42.07,24,39.28a3.51,3.51,0,0,0,.23-1.15,13.7,13.7,0,0,0,.07-1.92,6.26,6.26,0,0,0-.14-1.5c0-.09-.13-.53-.27-.26L22.5,37.24a3.53,3.53,0,0,0-.24,1.15,15.41,15.41,0,0,0-.07,1.92,7.48,7.48,0,0,0,.14,1.5c0,.09.14.52.27.26Z" transform="translate(-0.33)"/>
      <path class="cls-1" d="M17.5,38.14a8.49,8.49,0,0,1,2.11-2.72,1.25,1.25,0,0,0,.26-.73A11.5,11.5,0,0,0,20,32.93a13,13,0,0,0-.08-1.77c0-.07-.15-.81-.24-.74a9.48,9.48,0,0,0-2.3,2.89,3.51,3.51,0,0,0-.23,1.15,13.7,13.7,0,0,0-.07,1.92,6.26,6.26,0,0,0,.14,1.5c0,.09.13.53.27.26Z" transform="translate(-0.33)"/>
      <path class="cls-1" d="M11.91,33a5.37,5.37,0,0,1,2.77-1.82c.19-.05.25-.64.26-.73a11.5,11.5,0,0,0,.14-1.76c0-.19,0-2.59-.32-2.51a5.91,5.91,0,0,0-3,2,3.12,3.12,0,0,0-.24,1.15,17.6,17.6,0,0,0-.07,1.92,7.48,7.48,0,0,0,.14,1.5c0,.13.1.47.28.26Z" transform="translate(-0.33)"/>
      <path class="cls-1" d="M7.14,28.94a11.61,11.61,0,0,1,3.8-2.06c.49-.16.4-2.1.4-2.49,0-.18-.05-2.59-.31-2.51a11.41,11.41,0,0,0-3.8,2.06c-.52.41-.4,1.9-.41,2.49A13,13,0,0,0,6.9,28.2c0,.07.15.81.24.74Z" transform="translate(-0.33)"/>
      <path class="cls-1" d="M4.8,24l2-1.86C7,22,7,21.2,7,21a15.41,15.41,0,0,0,.07-1.92A7.48,7.48,0,0,0,7,17.61c0-.17-.08-.44-.27-.26l-2,1.87c-.18.17-.22,1-.24,1.14a17.79,17.79,0,0,0-.07,1.93,7.62,7.62,0,0,0,.14,1.5c.05.16.09.43.28.25Z" transform="translate(-0.33)"/>
      <path class="cls-1" d="M39.27,43.94a32.59,32.59,0,0,0,5.21,6.15,10.26,10.26,0,0,0,.24-1.5c0-.37.12-1.22-.19-1.5a32,32,0,0,1-5.1-6c-.15-.24-.27,1-.28,1a3.73,3.73,0,0,0,.12,1.85Z" transform="translate(-0.33)"/>
      <path class="cls-1" d="M48.14,54.37c5.52,3.51,9.55,9.07,15.88,11.31,0,0,.61-2.8,0-3-6.32-2.24-10.35-7.8-15.88-11.31.17.11-.68,2.6,0,3Z" transform="translate(-0.33)"/>
      <path class="cls-1" d="M10,65.44A61.11,61.11,0,0,0,23.48,55.22c.52-.51-.13-2.83-.06-2.89A60.54,60.54,0,0,1,10,62.44c-.63.35.1,2.91,0,3Z" transform="translate(-0.33)"/>
    </g>
  </g>
</svg>
