<svg xmlns="http://www.w3.org/2000/svg" viewBox="0 0 77.14 69.39">
  <defs>
    <style>
      .cls-1 {
        fill: #2e6fff;
      }
    </style>
  </defs>
  <title>Ресурс 7badge_p</title>
  <g id="Слой_2" data-name="Слой 2">
    <g id="Слой_1-2" data-name="Слой 1">
      <path class="cls-1" d="M22.81,10.66c.15,3.14-1.46,6.66.26,9.69,2.48,4.36,12,2.64,16.07,2.65,3.65,0,7.31,0,11-.18,1.84-.08,4.15.17,5.32-1.54,2.18-3.18,0-10.64-.27-13.76,0-.28-.1-1.16-.5-1.24-3.28-.66-7.13,1.11-9.84-1.45C42.61,2.75,42.06.15,38.54,0c-2.79-.12-4.21,1.47-5.64,3.6-1.08,1.63.26,1.71-1.92,2.95-1.66,1-5.93.5-7.87.66-.94.08-.74,5.07,0,5,2.94-.24,7.59.44,9.63-1.82.85-1,.67-2.6,1.57-3.63A5.27,5.27,0,0,1,39.16,5c3.62.57,3.72,3.9,6.42,5.52s6.16.13,9.07.72l-.5-1.23c.21,2,1.29,5.18-.16,6.74-1.29,1.39-3,1-4.88,1.06q-6.48.22-13,.13c-3.22-.05-7.27.5-10.33-.51s-1.76-5.42-1.88-8.14c-.17-3.46-1.21-.49-1.13,1.33Z"/>
      <path class="cls-1" d="M23.13,13.1.6,14.73c-.87.06-.55,3.28-.5,3.76A258,258,0,0,1,.78,66.22c0,.24-.14,3.21.56,3.17,14.71-1,29.45-1.94,44.2-1.82,7.68.07,15.36.42,23,1.23,4.42.46,7.87,1.47,8.34-3.68.61-6.78,0-13.88,0-20.69l-.05-22.49c0-2.6,1-7.89-1.65-9.7-2-1.33-7.37-.3-9.52-.22-3.8.14-7.58.44-11.37.83-1,.1-.71,5.07,0,5a157.07,157.07,0,0,1,17.07-.94c3.71,0,4.29,1.46,4.3,5l0,8.8,0,17.6,0,9.78c0,3.44-.07,6.42-4.33,6-23.43-2.3-46.62-1.27-70.06.27l.56,3.16A278.63,278.63,0,0,0,1.1,16L.6,19.73,23.13,18.1c.94-.07.76-5.06,0-5Z"/>
      <path class="cls-1" d="M8.21,23.89C7.58,30,7.11,36.2,6.9,42.38c-.1,3-1.26,8.27.38,11,2,3.39,10.57,1.11,14,.92l9.36-.51c1.67-.1,4.78.32,6-1.11,1.83-2.08.67-7.34.56-9.62C37,37,37,30.88,36.39,24.86,36,20.34,34,19.93,29.82,20.09c-7.24.27-14.47.77-21.69,1.31-.94.07-.76,5.05,0,5q6.4-.48,12.81-.86,3.45-.2,6.9-.36c1.44-.07,3.85-.71,5.13-.17,3.76,1.59,2.71,9.7,2.85,12.89.11,2.55,1.52,9.42-.87,10.61-2.59,1.28-8.92.53-11.79.69-3.74.21-7.48.45-11.22.62-2.35.11-3.24.8-4-2-.55-2,.11-4.74.2-6.89.22-4.83.59-9.65,1.08-14.46.11-1.09-.69-5.62-1-2.53Z"/>
      <path class="cls-1" d="M7.29,61.72l29.82-1c.89,0,.82-5,0-5l-29.82,1c-.89,0-.81,5,0,5Z"/>
      <path class="cls-1" d="M42.13,61.1a252.23,252.23,0,0,1,28.17-.58c.8,0,.91-5,0-5a252.23,252.23,0,0,0-28.17.58c-.94.08-.75,5.06,0,5Z"/>
      <path class="cls-1" d="M42.29,51.17,71,50.44c.88,0,.83-5,0-5l-28.67.73c-.87,0-.82,5,0,5Z"/>
      <path class="cls-1" d="M68.61,37.22a130.16,130.16,0,0,0-26.82-1.48c-.91,0-.8,5,0,5a130.2,130.2,0,0,1,26.82,1.48c.61.1,1-4.83,0-5Z"/>
      <path class="cls-1" d="M43,31.74l25.33-.46c.87,0,.84-5,0-5L43,26.74c-.87,0-.84,5,0,5Z"/>
      <path class="cls-1" d="M22.71,25.62c-5-1.77-7,4.42-7.11,8.21-.06,1.82,0,4.31,1.45,5.61s4.72,1.38,6.65,1.11c4.56-.65,6.62-4.18,6.55-8.52,0-1.77-.32-3.88-1.66-5.18-1.66-1.6-4.17-1.49-6.29-1.34-.93.06-.77,5,0,5,1.74-.12,5.11-.43,6.2,1.42.35.59.47.44-.15,1.21a6,6,0,0,1-1,1,7.61,7.61,0,0,1-3.66,1.45c-1.41.2-6.11.4-6.78-1.37-.36-.93,1.17-2.59,1.86-3.09a4.11,4.11,0,0,1,3.93-.47c.33.12,1.18-4.58,0-5Z"/>
      <path class="cls-1" d="M13.3,47.78c-.25-1.1,3.83-3.07,4.49-3.31a18,18,0,0,1,5-.79,15.59,15.59,0,0,1,5.05.29c.48.13,4.64,1.76,4.18,2.81a5.87,5.87,0,0,0-.21,3.42c.09.32.36,1.89.79.9a10.9,10.9,0,0,0,.26-8c-1.44-3.6-5.27-4.48-8.8-4.46-3.93,0-8.73.66-10.88,4.42-1.41,2.47-1.32,5.59-.7,8.28.49,2.12,1-2.67.82-3.54Z"/>
    </g>
  </g>
</svg>
