<svg xmlns="http://www.w3.org/2000/svg" viewBox="0 0 64.5 90.19">
  <defs>
    <style>
      .cls-1 {
        fill: #2e6fff;
      }
    </style>
  </defs>
  <title>Ресурс 3speak_p</title>
  <g id="Слой_2" data-name="Слой 2">
    <g id="Слой_1-2" data-name="Слой 1">
      <path class="cls-1" d="M16.85,10.65l.21,9c0,.23,0,1.82.42,1.84,5.23.31,10.47.45,15.71.32,3.71-.09,9.79.72,13.08-.89,4-1.94,1.31-6.15,1.76-8.82.09-.58.5-4.1-.31-4.27-2.49-.52-4.87.36-7.32,0-2.84-.47-2.9-2.21-4.06-4.34C34.68.4,31.08-1.16,28,1c-1.87,1.32-2.51,3.44-2.71,5.61,0,.38.27,3.06,0,3.23.6-.41-3.64-1.15-3.87-1.18l-4-.43c-.47-.05-.8,4.91,0,5,2.49.27,7.29,1.95,8.58-.73,1.36-2.84-1.29-4.71,2.5-6.89a5.49,5.49,0,0,1,5-.09c2.22,1.08,2.23,3,3.34,4.83,2.45,4,7,1.67,10.89,2.47l-.3-4.27a16.62,16.62,0,0,0-.28,4.28A10.24,10.24,0,0,1,47.46,15c-.71,1.58-4.13,1.24-5.44,1.34a182.69,182.69,0,0,1-24.54.12l.42,1.84-.22-9c-.09-3.48-.88-.38-.83,1.33Z"/>
      <path class="cls-1" d="M16.38,8.73C11.18,10.16,1.94,5.07.54,13.11,0,16.1.36,19.32.36,22.34l0,16.54,0,30.18C.42,74-1.53,84.44,3,88.3c2,1.7,4.86,1.77,7.34,1.84,5,.13,10,0,15-.11,9.83-.14,19.67-.25,29.5-.42,2.95,0,6.7.25,8.47-2.59,1.19-1.9,1.09-4.54,1.14-6.69.24-10.23,0-20.5-.13-30.74-.18-11.11-.36-22.26-1-33.36-.14-2.42-.19-5.31-2.21-7-3.36-2.82-9-.47-12.93-1.31-.3-.07-.91,4.8,0,5,3.78.81,8.44-1.21,12,.68,3.69,2,2.62,10.25,2.75,13.85q.55,15.52.7,31.06.06,6.93,0,13.88c0,2.47.74,8.48-.85,10.33s-3.92,1.75-6,1.85c-9.18.44-18.42.27-27.61.4-4.5.06-9,.15-13.51.17-3.18,0-7.25.51-10.32-.64-5.65-2.1-4-10.57-4-15.45l0-13.63,0-29.2c0-4.13-1.5-11.64,3.6-12.8,3.89-.88,7.59,1.39,11.55.3,1-.27.23-5.06,0-5Z"/>
      <path class="cls-1" d="M34.59,8.13c-1.63.4-3.69-.69-5.13.39s-1.33,3.31-1.38,4.8c0,.41-.23,2.93.42,3.17,2.06.74,5.15,1.62,6.63-.66a6.8,6.8,0,0,0,.74-3.61,7.49,7.49,0,0,0-.66-3.77c-.27-.47-.53,1.66-.53,1.75a6.31,6.31,0,0,0,.3,3.08l0-2.43-.2.31c-.27.18-.47.49-.77.67a4.17,4.17,0,0,1-1.76.48,9.83,9.83,0,0,1-3.77-.82l.41,3.16c.09-2.56,4.1-1.13,5.68-1.52.93-.23.27-5.07,0-5Z"/>
      <path class="cls-1" d="M17.12,16.06C11.88,14.75,7,15.18,6,21.22c-1.19,7.4-.36,15.49-.43,23-.07,8.55-.18,17.1-.23,25.64,0,4.05-.45,10.48,3.85,12.75,2.95,1.56,7.77.87,10.94.93q6.35.14,12.69.13t12.7-.13c3.53-.07,8.17.52,11.23-1.59,3.38-2.33,3.36-7.23,3.42-10.93.13-8.43-1.72-16.76-1.62-25.17.09-7.26,2.4-14.36,1.25-21.64-.95-6-5.48-12-12.22-9.65-1,.36-.12,5,0,5A8.06,8.06,0,0,1,56,21.18c4,3.67,3.15,9.78,2.45,14.66A76.4,76.4,0,0,0,58,52.05c.42,6.2,4.37,21.83-1.79,25.27-2.71,1.52-6.69,1.09-9.65,1.16q-5.37.12-10.75.14c-7.16,0-14.33,0-21.48-.27C9,78.16,7,76.57,6.23,70.81c-.48-3.78.07-8,.1-11.83l.2-21.7c0-3.57-1.21-12.28,1.08-15s6.46-1.93,9.51-1.17c.25.06.95-4.76,0-5Z"/>
      <path class="cls-1" d="M23.76,32.66a269.3,269.3,0,0,0,29.66-.61c.74-.06.53-5,0-5a269.3,269.3,0,0,1-29.66.61c-.58,0-.7,5,0,5Z"/>
      <path class="cls-1" d="M23.63,46.62a193.53,193.53,0,0,1,29-1.24c.58,0,.69-5,0-5a193.53,193.53,0,0,0-29,1.24c-.79.09-.47,5.05,0,5Z"/>
      <path class="cls-1" d="M23.27,59.44q14.85.48,29.66-.45c.72-.05.55-5,0-5q-14.82.93-29.66.45c-.58,0-.69,5,0,5Z"/>
      <path class="cls-1" d="M23.85,71.75c9.66.91,19.26,3.13,28.87.72.93-.24.26-5.07,0-5-9.61,2.41-19.21.19-28.87-.72-.49,0-.77,4.93,0,5Z"/>
      <path class="cls-1" d="M18.82,39.34c-2-.6-4.85-1.25-6.28.84-1.19,1.74-1,5.11-.33,7a3.43,3.43,0,0,0,5,1.8c2.07-1.09,2.68-3.42,2.92-5.57.11-.91.34-2.6-.15-3.42s-.54.45-.59.9c-.3,2.62-4,4.88-6.14,2.78-.13-.13-.3-.5-.44-.58-.25-.45-.27-.16-.06.88-.19,1-.14,1.32.16.89.23-.06.69-.61.95-.74a3.28,3.28,0,0,1,.74-.27,8,8,0,0,1,4.24.49c.18,0,1-4.7,0-5Z"/>
      <path class="cls-1" d="M18.92,53.29c-2.05.25-5.11-.43-6,2.1-.74,2.07-.72,5.74,1.2,7.2,1.66,1.26,4.25,1.24,5.38-.71s1-5.31.16-7.36c-.2-.47-.53,1.65-.53,1.75a7.23,7.23,0,0,0,.3,3.07c-1.08-2.6.55-3.4-.25-2.14a2.73,2.73,0,0,1-.54.63,3,3,0,0,1-1.95.65A4,4,0,0,1,15,58.1a3.5,3.5,0,0,1-1-.69c-.35-.35-.54-1.19-.49,0l-.12,2.43c.34-1.95,4.41-1.36,5.6-1.51.8-.1.47-5,0-5Z"/>
      <path class="cls-1" d="M20.49,67.25c-1.75-1-3.91-2.21-5.91-1.09s-1.87,4-1.69,6S14,76,16.25,76.32a3.6,3.6,0,0,0,4.09-2.67,10.08,10.08,0,0,0,.15-3.42c0-.26-.35-1.88-.59-.89a2.94,2.94,0,0,1-2.7,2,4.08,4.08,0,0,1-1.93-.29,3.53,3.53,0,0,1-.92-.54c-.61-.54-.48-1.28-.6.46-.15,2.11-.22.94.24.65a6.94,6.94,0,0,1,.93-.64,3.86,3.86,0,0,1,1.65-.28,8.87,8.87,0,0,1,3.92,1.54c.25.16.43-2.32.43-2.5,0-.55.15-2.15-.43-2.5Z"/>
      <path class="cls-1" d="M18.26,8.48H15.43c-.63,0-.65,5,0,5h2.83c.63,0,.65-5,0-5Z"/>
    </g>
  </g>
</svg>
