<svg xmlns="http://www.w3.org/2000/svg" xmlns:xlink="http://www.w3.org/1999/xlink" viewBox="0 0 297.98 133.93">
  <defs>
    <style>
      .cls-1, .cls-3 {
        fill: none;
      }

      .cls-2 {
        clip-path: url(#clip-path);
      }

      .cls-3 {
        stroke: #2e6aff;
        stroke-miterlimit: 10;
      }

      .cls-4 {
        opacity: 0.3;
      }

      .cls-5 {
        fill: #2e6aff;
        opacity: 0.1;
      }
    </style>
    <clipPath id="clip-path">
      <path id="_Составной_обтравочный_контур_" data-name="&lt;Составной обтравочный контур&gt;" class="cls-1" d="M286.23,47.49V13.06A12.56,12.56,0,0,0,273.67.5H212.43a9.11,9.11,0,0,1-18.22,0H21.79A12.56,12.56,0,0,0,9.23,13.06V47.49a19.48,19.48,0,1,1,0,38.95v34.43a12.56,12.56,0,0,0,12.56,12.56H194.21a9.11,9.11,0,0,1,18.22,0h61.24a12.56,12.56,0,0,0,12.56-12.56V86.44a19.48,19.48,0,1,1,0-38.95Zm-82.91,61.76a9.11,9.11,0,1,1,9.11-9.11A9.11,9.11,0,0,1,203.32,109.25Zm0-33.17A9.11,9.11,0,1,1,212.43,67,9.11,9.11,0,0,1,203.32,76.08Zm0-33.18a9.11,9.11,0,1,1,9.11-9.11A9.11,9.11,0,0,1,203.32,42.9Z"/>
    </clipPath>
  </defs>
  <title>Ресурс 19ticket</title>
  <g id="Слой_2" data-name="Слой 2">
    <g id="Слой_1-2" data-name="Слой 1">
      <g class="cls-2">
        <path id="_Составной_контур_" data-name="&lt;Составной контур&gt;" class="cls-3" d="M286.23,47.49V13.06A12.56,12.56,0,0,0,273.67.5H212.43a9.11,9.11,0,0,1-18.22,0H21.79A12.56,12.56,0,0,0,9.23,13.06V47.49a19.48,19.48,0,1,1,0,38.95v34.43a12.56,12.56,0,0,0,12.56,12.56H194.21a9.11,9.11,0,0,1,18.22,0h61.24a12.56,12.56,0,0,0,12.56-12.56V86.44a19.48,19.48,0,1,1,0-38.95Zm-82.91,61.76a9.11,9.11,0,1,1,9.11-9.11A9.11,9.11,0,0,1,203.32,109.25Zm0-33.17A9.11,9.11,0,1,1,212.43,67,9.11,9.11,0,0,1,203.32,76.08Zm0-33.18a9.11,9.11,0,1,1,9.11-9.11A9.11,9.11,0,0,1,203.32,42.9Z"/>
        <g id="_Группа_" data-name="&lt;Группа&gt;" class="cls-4">
          <rect id="_Прямоугольник_" data-name="&lt;Прямоугольник&gt;" class="cls-5" y="4.29" width="297.98" height="5.55"/>
          <rect id="_Прямоугольник_2" data-name="&lt;Прямоугольник&gt;" class="cls-5" y="14.28" width="297.98" height="5.55"/>
          <rect id="_Прямоугольник_3" data-name="&lt;Прямоугольник&gt;" class="cls-5" y="24.27" width="297.98" height="5.55"/>
          <rect id="_Прямоугольник_4" data-name="&lt;Прямоугольник&gt;" class="cls-5" y="34.26" width="297.98" height="5.55"/>
          <rect id="_Прямоугольник_5" data-name="&lt;Прямоугольник&gt;" class="cls-5" y="44.26" width="297.98" height="5.55"/>
          <rect id="_Прямоугольник_6" data-name="&lt;Прямоугольник&gt;" class="cls-5" y="54.25" width="297.98" height="5.55"/>
          <rect id="_Прямоугольник_7" data-name="&lt;Прямоугольник&gt;" class="cls-5" y="64.24" width="297.98" height="5.55"/>
          <rect id="_Прямоугольник_8" data-name="&lt;Прямоугольник&gt;" class="cls-5" y="74.24" width="297.98" height="5.55"/>
          <rect id="_Прямоугольник_9" data-name="&lt;Прямоугольник&gt;" class="cls-5" y="84.23" width="297.98" height="5.55"/>
          <rect id="_Прямоугольник_10" data-name="&lt;Прямоугольник&gt;" class="cls-5" y="94.22" width="297.98" height="5.55"/>
          <rect id="_Прямоугольник_11" data-name="&lt;Прямоугольник&gt;" class="cls-5" y="104.21" width="297.98" height="5.55"/>
          <rect id="_Прямоугольник_12" data-name="&lt;Прямоугольник&gt;" class="cls-5" y="114.21" width="297.98" height="5.55"/>
          <rect id="_Прямоугольник_13" data-name="&lt;Прямоугольник&gt;" class="cls-5" y="124.2" width="297.98" height="5.55"/>
        </g>
      </g>
    </g>
  </g>
</svg>
