<svg xmlns="http://www.w3.org/2000/svg" viewBox="0 0 818.94 241.6">
  <defs>
    <style>
      .cls-1 {
        fill: #2e7d32;
      }
    </style>
  </defs>
  <title>Ресурс 145</title>
  <g id="Слой_2" data-name="Слой 2">
    <g id="Слой_1-2" data-name="Слой 1">
      <path class="cls-1" d="M367,1.46a10.21,10.21,0,0,0,.83,3,5.4,5.4,0,0,1,.48,3.8,6.51,6.51,0,0,0,.15,6.48l.2.31.35.11,1.13.35L410,45.82l1.69,1.28L411.62,45a5.71,5.71,0,0,1,.65-3.34,9.11,9.11,0,0,1,1,.49l-.28.17-.53.29v4.66l.4.3,10,7.59-.36.36L419,59.11l-.43.44.19.57,0,.08h0L311.57,35.12l-.1,0h-.1L307,35h-.19l-.17.07-29.8,10.59-.67-.27-.38-.16-.38.16-47,19.47-15.76-2.75-.3-.06-.27.13-20,8.75L188.7,72.4l3.72.4,7.19.79.29,0,.26-.13L213.31,67,230,69.29l.26,0,.24-.1,46.3-18.39,1.51.07h.2l.18-.06,29.18-10.37,1.84-.29,99.6,23.11-2,.72-.68.25,0,.72.34,9,0,.7.66.21,1.12.37-1,1.82-.12.23v3.54l.14.24.32.52-6-1.7-.35-.1-.34.15-9.46,4.27-.86.39.34.88a4.75,4.75,0,0,1,.08.89c0,.86.07,2.5,1.28,3a2.29,2.29,0,0,0-.07.28l-.32,1.83,1.71-.74a5.44,5.44,0,0,0,1-.54l.12-.08,0,.06a1.2,1.2,0,0,0,.21.26A2.54,2.54,0,0,0,395,93.3l.36,1.1.7-.35a10.22,10.22,0,0,0,.17,2.4,1.71,1.71,0,0,0,.34,1.21l.21.33-.38,74.44v1h4.5l.79.38-1.47,2.92-.08.14,0,.17-.49,3.51-.14,1,1,.16,7.79,1.3,1.18.19V182l-.84-65,.16,0L448,124.87l-.25.2-.36.3v6.8l1.41-.63.1,0v19.27l.55.17-.56,1.15-.1.21v10.3l1.42,21.3v.28l.17.24,1.67,2.32V188h2.16l-.73.91-.19.25,0,.32-.23,3.75-.26,4.35,2.13-3.8c.43-.77.49-.77.89-.78.15,0,.34,0,.56,0a4.23,4.23,0,0,0,1.9.51,4,4,0,0,0,3-1.73,3,3,0,0,1,1.19-1l.57-.12.17-.56c0-.14.08-.26.12-.38a2.11,2.11,0,0,0,.48.59,1.53,1.53,0,0,0,.29.86,1.67,1.67,0,0,0,1.44.63h.11a2.36,2.36,0,0,0,1.54.56c1.24,0,2.45-.86,3.72-1.77a12.56,12.56,0,0,1,2.26-1.4l.08.05a1.89,1.89,0,0,0,1.07.43,1.15,1.15,0,0,0,.64-.19H475l.3-.45a1.11,1.11,0,0,0,.05-1.08l-.83-1.91a1.79,1.79,0,0,0,.42-1c0-.9-.55-1.71-1.81-2.42,5.41-2.77,6.62-6.78,6.48-8.09h0c-.08-.91-1-1.9-2.74-1.9a8.14,8.14,0,0,0-3,.68c.4-.95.69-1.83.94-2.62.69-2.08,1.1-3.19,2.25-3.64l.61-.24,0-.65c.1-2.52-2.12-2.82-3.32-2.94a9.91,9.91,0,0,0,1.09-3,4.9,4.9,0,0,1,1-2.35l.89-.94-1.14-.62a8.5,8.5,0,0,0-3.19-.85H473a2.6,2.6,0,0,0,2.06-1.57,2.29,2.29,0,0,0-.2-1.71,3.46,3.46,0,0,0,2.58-1.39,5,5,0,0,0,.33-4.5,1.28,1.28,0,0,0-1.35-1,7.09,7.09,0,0,0-1.52.27,12.93,12.93,0,0,1-3.14.49,6.11,6.11,0,0,1-1.39-.15,8.65,8.65,0,0,1,1.25-.52c.84-.28,1.7-.58,1.84-1.48a.9.9,0,0,0,0-.23,5.36,5.36,0,0,0,1.34.2c1.89,0,2.88-1.48,3-4.4v-.05c-.06-1.83-1.46-2.39-2.82-2.93a10,10,0,0,1-5.51-4.46,4.49,4.49,0,0,1,1.43-.19c.71,0,1.51.08,2.28.16s1.58.16,2.31.16a3.61,3.61,0,0,0,2.86-1,2.8,2.8,0,0,0,.46-2.41,2.51,2.51,0,0,0-2.82-2.21,15.31,15.31,0,0,0-1.71.14,17.35,17.35,0,0,1-2.05.16,5.89,5.89,0,0,1-1.7-.22l.48-.25c1.95-1,3.48-2.2,3.7-6.74l.4-.16c1.9-.75,5.87-2.31,4.69-5.88l-.19-.59-.62-.08a9.41,9.41,0,0,0-1.46-.11,7,7,0,0,0-4.69,1.72,3,3,0,0,1-1.83.86,3.19,3.19,0,0,1-1-.21c5.11-2.35,7.31-4.27,7.27-6.3,0-1.17-.8-2.17-2.36-3,.9-.6,1.22-1,1-1.69-.23-.84-1.14-.84-1.44-.84l-.79,0-.24,0,.25-.41a3.79,3.79,0,0,0,.85-2.23,18.23,18.23,0,0,0,6.31-4.83,26.1,26.1,0,0,1,3.66-3.35L487,90.68l-3.08,0a6.22,6.22,0,0,1-3-.63c.35-.22.71-.43,1.06-.63a6.14,6.14,0,0,0,2.55-2.12,2.66,2.66,0,0,0,1.33-1.72,3.07,3.07,0,0,1,.77-1.32l1.53-1.37-2-.36-.26,0a4,4,0,0,1,1.36-1.62,5,5,0,0,0,2.15-3.53l.1-1-1.05,0-.47,0c-.35,0-.71,0-1.07,0s-.64,0-1,0A4.21,4.21,0,0,1,484.2,76a9.85,9.85,0,0,0,3.57-3.06l.8-1-1.12-.56-.91-.45a7.82,7.82,0,0,1,.77-.46,7.08,7.08,0,0,0,3.66-4l.55-1.38H490a3,3,0,0,0,1-2l0-.38-.22-.3a3.63,3.63,0,0,0-1.55-1,8.92,8.92,0,0,1,2-2.91A3.45,3.45,0,0,0,492.49,56v-.21c0-1.86-.06-2.59-1.46-3.6a2.68,2.68,0,0,0-.3-2.23l0-.05a12.77,12.77,0,0,0,1.43-1.41v1.78l.29.3a3,3,0,0,1,.42,1.59,3.16,3.16,0,0,0,.25,1.16c0,.2-.1.44-.15.65-.29,1.21-.78,3.23.81,3.92l.13.06.13,0,.8.11a8,8,0,0,0-.28,2.49c0,.44,0,.93,0,1.46v.16l0,.15c.58,2.16,2,2.61,3,2.61a5,5,0,0,0,1.34-.2,4.2,4.2,0,0,1-1.73.42l-5.29.26,5,1.68,1.14.38a2.06,2.06,0,0,1-.36,0,10.18,10.18,0,0,1-2-.28,14.42,14.42,0,0,0-1.46-.27l-1.59-.19.53,1.52c1.19,3.38,3.55,4.42,5.62,5.33a17,17,0,0,1,2.26,1.13l-3.05.62-1.11.22.35,1.07c.45,1.36,0,1.61-1.18,2.21a5,5,0,0,0-1.73,1.24l-.53.66.58.63c3.2,3.53,7.49,4.65,11.64,5.72a47.94,47.94,0,0,1,5.48,1.65,6.5,6.5,0,0,1-3,.64,26.22,26.22,0,0,1-5.68-.92,25.66,25.66,0,0,0-5.63-.91h-1.75l.89,1.51a4.43,4.43,0,0,0,2.9,1.94,3.58,3.58,0,0,1,2.65,2l0,0,0,0a3,3,0,0,0,2.78,1.42,14.4,14.4,0,0,0,2.05-.21,24.09,24.09,0,0,1,2.77-.27,10.11,10.11,0,0,1-4.64,1.62,5.45,5.45,0,0,1-2.11-.5,6.57,6.57,0,0,0-2.49-.57,5.44,5.44,0,0,0-1.3.16L497.7,95l.65,1.15c1.34,2.36,1.1,3,.89,3.61a2.76,2.76,0,0,0,.11,2.47l.24.49.55.06c1.55.17,2.44,1.22,3.57,2.54a11.88,11.88,0,0,0,5.19,4,12.41,12.41,0,0,1-2.25,2,18.22,18.22,0,0,0-3.1,2.85l-.69.89,1,.58a5.16,5.16,0,0,0,1.66.62,2.58,2.58,0,0,0-1.05,1.25l-.1.24,0,.25a2.83,2.83,0,0,0,1.93,2.57,3.82,3.82,0,0,0-2.55,2q-.86,1.95,1.13,4.67a4.49,4.49,0,0,0-1.82,2.91c-.4,2.49,1.12,5.64,4.53,9.39a10.86,10.86,0,0,0-1.1-.06c-1.85,0-3,.58-3.48,1.71-.62,1.54-.19,4.41,8.28,12.83a2.75,2.75,0,0,0-1.75,1.29c-.82,1.46-.21,3.7,2,7.46.16.88-.19,1.24-1,1.92a3.66,3.66,0,0,0-1.56,2.6c-.09,1.54.92,3.42,3.37,6.24a4.83,4.83,0,0,1-1.34.91c-1.11.61-2.49,1.37-2.71,2.94-.18,1.34.56,2.88,2.38,4.88a1.27,1.27,0,0,0-.18.27c-.23.43-.92,1.75,2.07,6.11l.37.54.4-.08c.12.14.29.37.42.56a10.81,10.81,0,0,0,.82,1,2.14,2.14,0,0,0-2.12,2.27l-.68.09-.94.11,0,.85a5.42,5.42,0,0,0-.5.44l-1.59,1.56,2.22.15c1.53.1,1.9.22,2.09,1.1l.25,1.17,1.11-.46a1.08,1.08,0,0,1,.38-.08,1.34,1.34,0,0,1,1,.68,3.24,3.24,0,0,1,.42,2.75l-.3.78.71.43A2.29,2.29,0,0,0,518,203a5.2,5.2,0,0,0,3.09-1.6c.6-.49,1.34-1.11,1.74-1.1.22,0,.72.45,1.24,2.18l.06.2.14.16A8.36,8.36,0,0,1,525,204c.42.69.89,1.48,1.87,1.48a1.8,1.8,0,0,0,.7-.15h5.81V194.72l-1,0-1.38-.05h0l0,0,0,0-1-1.49-.46-.71-.71.31-.72-.18V191.2l4.73-.79.84-.14v-3.14H537l.29-.48c1.34-2.21,1.6-6.82,1.64-15.1,0-3-.16-6-.3-8.83a90.71,90.71,0,0,1-.13-10.68v-.17c-.39-4.45.66-5.55,2.59-7.54l.07-.07a4.67,4.67,0,0,1,2.06-.34l.79,0,1.46-.07-.61-1.34a2.79,2.79,0,0,1,0-2.65c.63-1,2.14-1.55,4.06-1.55l.64,0,.45,0,.31-.31a2.7,2.7,0,0,1,1.64-.37,4.34,4.34,0,0,0,2.43-.59l.47-.34-.06-.57c-.56-5.89-.55-6.9.41-7.89a4.56,4.56,0,0,0,2.67-1.8l.07-.09.05-.11a10.67,10.67,0,0,0,.85-3c.36-2,.58-2.3,1.19-2.3a1.1,1.1,0,0,1,.25,0l1.25.15-.14-1.26c-.46-4.16-.19-4.5,1-5.93L563,113l0,0,0,0c.41-.7.73-1.35,1-1.93.65-1.33,1-2,1.68-2.18a9.62,9.62,0,0,1,4.39,1.44l.86.45.47-.85c2.23-4.07,5.68-6.84,8.2-8.87l.08-.06.06-.08,2.08-2.51A2.34,2.34,0,0,0,583.15,97c.14-.3.34-.72.5-.75l.1,0a5,5,0,0,1,1.25.47,1.11,1.11,0,0,0,.19.18l.13.09,0,0,.42.79a2.26,2.26,0,0,0-.4,2.64l-.44.39c-.37.32-.8.69-1.26,1.11l-.18.17-.08.23a29,29,0,0,1-2.67,5.62c-2.18,1.34-5.4,3.39-7,8l0,0,0,.09,1.31.36.58.27a.95.95,0,0,1-1.52.27.61.61,0,0,1,.25-.17l-.32.1s0-.07-.06-.09a.24.24,0,0,1,0,.1h0l-.19.34a3.22,3.22,0,0,1-.41.39,4.21,4.21,0,0,0-1.77,3.31v.17a14.47,14.47,0,0,0,1.07,3c1,2.27,2,4.61.53,6.63l-.22.29,0,.37a6.14,6.14,0,0,1-1.49,4.84,10.48,10.48,0,0,0-1.31,2.13l-.15.33.11.36a5.57,5.57,0,0,1,.3,1.65,3.44,3.44,0,0,0,.33,1.51,1.41,1.41,0,0,0-.21,1.12c.2.85,1.09,1.23,1.77,1.45a9.26,9.26,0,0,0,2.6.31c.38,0,.75,0,1.12,0l.93,0a6.45,6.45,0,0,1,.67,0l.42,0,.33-.29a5,5,0,0,0,1.86-3.2c.08-.46.08-.46.26-.54l.73-.33L581,140a8.62,8.62,0,0,0-1.25-3c-.34-.56-.43-.72-.4-1l0-.2-.06-.2c-.52-1.68-.19-2,.21-2.36l.51-.47v0a1.83,1.83,0,0,1,.35,0,1.48,1.48,0,0,1,1,.31l.49.43.59-.29a.33.33,0,0,1,.14,0,.41.41,0,0,1,.25.07s.06.15,0,.38a2,2,0,0,0-.05,1.86,1.48,1.48,0,0,0,1.21.94h.58l.23-.37c.16-.08.32-.18.48-.28a2.13,2.13,0,0,1,.93-.41c.06,0,.27,0,.62.34l1.15,1.11h0l.12.12v0l.66.49a5.08,5.08,0,0,1,.67.59l-.1.16a4,4,0,0,0-.62,2.16l-.05.1c-.55,1.17.66,3.28.8,3.52l.46.77.6-.27.63.78c.41.5.54.84.52,1s-.38.46-.66.67a3.09,3.09,0,0,0-.87.86l-.26.44.21.48a7.1,7.1,0,0,1,.46,4.46c-.05.49-.1,1-.15,1.64a14.69,14.69,0,0,0-.48,1.41c-.34,1.13-.56,1.78-1.21,2.09l-.71.34.16.76A6.17,6.17,0,0,0,589,161c.42.74,1,1.66.77,2.17-.12.32-.61.63-1.36.89l-.43.15-.18.41-.9,2.18-.1-.08c-.21-.17-.45-.88-.27-2.14l.8-5.37L584.65,164l-1.32,2.35-.1.19,0,.22c-.06.79-.13,1.51-.2,2.17-.22,2.2-.37,3.66.21,4.62v5.53H588l.17,2.08.08.92H591v9h5.69l1.39,4,.38-3.23a1.18,1.18,0,0,1,.48-.1,4.35,4.35,0,0,1,1.88.76,6,6,0,0,0,2.9,1,3.48,3.48,0,0,0,1.88-.58h.15a1.8,1.8,0,0,0,1.54-.65,1.63,1.63,0,0,0,.25-.57l0,0a21,21,0,0,1,1.69,1.39c1,.92,1.92,1.71,3.27,1.71a5.31,5.31,0,0,0,2.72-.93,6.88,6.88,0,0,1,.63.83,5,5,0,0,0,2.18,2.07,2.56,2.56,0,0,0,1.84.79h.5s.14.06.43.51c.32.65,1.31,1.85,2.25,1.85a1.23,1.23,0,0,0,.75-.25l.09-.07.07-.09c3-3.67,2.64-5.56,2-7.33a2.15,2.15,0,0,1-.21-1.31v-.06a18,18,0,0,0,.29-2.28,8.46,8.46,0,0,1,.81-3.37,1.2,1.2,0,0,0,.35-1.25c-.26-.8-1.08-.88-1.88-1a7,7,0,0,1-1.1-.16c2.07-2.26,2.92-4.1,2.52-5.47a2.13,2.13,0,0,0-.52-.9c1.51-1.8,2.11-3.14,2-4.27a3.41,3.41,0,0,0-2-2.34c-.81-.48-1.09-.71-1.13-1,2.05-2.51,2.87-4.26,2.67-5.66A3.19,3.19,0,0,0,626,161l-.27-.18c1.8-2.89,2.26-4.59,1.58-5.83a2.51,2.51,0,0,0-1.44-1.14c5.75-5.83,7.75-9.16,6.87-11.3-.68-1.67-2.86-1.94-4.1-2,2.92-2.87,4.33-5.29,4.28-7.34a4.11,4.11,0,0,0-1.17-2.8c1.05-2.06,1.26-3.74.59-4.89a2.67,2.67,0,0,0-1.7-1.25,5.08,5.08,0,0,0,1.29-1.12l.55-.67-.59-.64a6.81,6.81,0,0,0-1-.9,4.28,4.28,0,0,0,1-.74l1-1.07-1.38-.56a12.4,12.4,0,0,1-3.22-2.21h0l.22-.18a14.57,14.57,0,0,0,2.91-3.53c1.17-1.77,2.19-3.31,4-3.47l.53,0,.25-.47a2.15,2.15,0,0,0,.16-1.85c-.12-.44-.3-1,1-3.07l.89-1.44-1.69-.09h-.47a8.71,8.71,0,0,0-3.37.71,4.33,4.33,0,0,1-1.66.42,6.63,6.63,0,0,1-3-1l1.1,0h1.07c.85,0,2.39,0,2.88-1.29a4.89,4.89,0,0,1,2.39-1.35,3.27,3.27,0,0,0,2.39-1.74l.69-1.52-1.67.11a22.82,22.82,0,0,0-4.15.78,17.93,17.93,0,0,1-4.06.7,3.92,3.92,0,0,1-2.39-.68,33.75,33.75,0,0,1,3.63-.83c3.67-.71,7.47-1.45,10.59-5.44l.81-1-1.21-.51a7.12,7.12,0,0,0-.72-.28c-1.27-.47-1.61-.59-1.29-2.07l.23-1-1-.19-2.65-.47a16.62,16.62,0,0,1,1.94-.86c1.78-.69,3.61-1.4,4.24-3.79l.23-.84-.81-.34a7.35,7.35,0,0,0-2.41-.46l-.34,0,2.16-1L638,77.63a2.61,2.61,0,0,0,2.22-1.89l.06-.19,0-.2a10.91,10.91,0,0,0-.83-3.9l.52-.22a1.7,1.7,0,0,0,1.13-.68,2.06,2.06,0,0,0,.23-.41,6.75,6.75,0,0,0,1.12,1.61,6.13,6.13,0,0,1,1.41,2.64A4.27,4.27,0,0,0,642.71,76l-.28.65.53.49c.12.11.28.24.47.39l-1.63-.17.76,1.61a5,5,0,0,0,3.57,3.12,9.33,9.33,0,0,1,.93.34l-1.11.79-.81.58.58.81a8.06,8.06,0,0,0,3.39,2.27,2.65,2.65,0,0,1-1,.18c-.3,0-.6,0-.92-.06s-.66-.06-1-.06a3.47,3.47,0,0,0-1.33.23l-.72.28.09.76a4.39,4.39,0,0,0,2,3l.59.48-1.8-.23,1.39,1.89a5.85,5.85,0,0,1,.83,1.68,17.22,17.22,0,0,0,.72,1.71l.06.12.09.1a9.48,9.48,0,0,0,2.2,1.71,4.89,4.89,0,0,0-2,.67l-1.31.81,1.27.87a24.93,24.93,0,0,1,3.81,3.4,20.29,20.29,0,0,0,4.65,3.87,9.21,9.21,0,0,0,.43,1.2,2.6,2.6,0,0,0-.37,0,1.2,1.2,0,0,0-1.16.71c-.24.56,0,1.1.57,1.87-1.33.65-2,1.51-2,2.56,0,2.14,2.87,3.9,5.93,5.16a2.13,2.13,0,0,1-.7.13,3.46,3.46,0,0,1-1.45-.48,9.62,9.62,0,0,0-4.57-1.1h-.61l-.28.54a2.59,2.59,0,0,0-.24,2.23c.45,1.06,1.66,1.44,2.73,1.77a8.48,8.48,0,0,1,1.41.54c-.1,3.84,1,5.06,2.41,5.73l-.49,0-1.11,0c-.82,0-3.28,0-3.68,2.61a2.88,2.88,0,0,0,.12,2.64,2.64,2.64,0,0,0,2.21.9,15.72,15.72,0,0,0,2.24-.24,14.73,14.73,0,0,1,2.17-.23h.24a9.06,9.06,0,0,1-3.31,2.34,5,5,0,0,0-3.35,3.74l0,.13V141c.08,2.46,1.3,3,2.31,3a6.18,6.18,0,0,0,1.42-.22l.11,0a1.63,1.63,0,0,0-.09,1.17,1.41,1.41,0,0,0,.51.73c-.24,0-.47,0-.69,0s-.64,0-.92,0a2.15,2.15,0,0,0-2.23,1.24,3.06,3.06,0,0,0-.11,3,3.9,3.9,0,0,0,2.47,1.71,1.59,1.59,0,0,0-.13.9,2,2,0,0,0,1.29,1.44,6.6,6.6,0,0,0-2.93,1.57l-.84.7.78.78a5.51,5.51,0,0,1,1.18,2c.2.46.43,1,.73,1.55h-.14a2.1,2.1,0,0,0-1.65.65,2.29,2.29,0,0,0-.38,1.94l.1.61.6.18c.29.09.48.5.88,1.57a24.81,24.81,0,0,0,1,2.37,6.37,6.37,0,0,0-1.8-.3,2.85,2.85,0,0,0-2.15.83,3.74,3.74,0,0,0-.8,2.9v.15l.06.14a12.76,12.76,0,0,0,4.88,5.93,2.21,2.21,0,0,0-1.25,1.6,2.24,2.24,0,0,0,.69,1.94,1.28,1.28,0,0,0-.9,1c-.13.84.45,1.45,2.38,2.23a4.21,4.21,0,0,0-2.5,2.46,3,3,0,0,0,.31,2.36,2.88,2.88,0,0,0-2.11,2c-.4,1.62.79,3.51,3.64,5.77a5.87,5.87,0,0,0-3.4,2.12,3.52,3.52,0,0,0-.58,3.23l.07.21.15.16c1,1.07,2.25,1.21,3.7,1.37l1.37.17a1,1,0,0,0,0,.42l.19.75h.3l0,0H673l0-1a1.66,1.66,0,0,0-1.4-1.58c2.74-2.29,3.53-3.5,3.2-4.69a2.27,2.27,0,0,0-1.68-1.45,2.85,2.85,0,0,0,.14-2.55,2.36,2.36,0,0,0-1.12-1c1.08-.81,1.5-1.57,1.35-2.37a1.69,1.69,0,0,0-.81-1.17,1.75,1.75,0,0,0,.21-.48c.21-.84-.23-1.66-1.46-2.62,4-2.17,4.93-4.36,5-4.46l.12-.28-.06-.3c-.12-.64-.49-2.59-2.57-2.59a4.66,4.66,0,0,0-1.62.34c.1-.32.19-.64.28-.94.24-.85.7-2.44,1-2.44h.09l1.35.28-.15-1.38c-.14-1.21-1.19-1.79-2.33-2.27a7.47,7.47,0,0,0,1-1.28,12.92,12.92,0,0,1,1-1.3l1.12-1.3-1.68-.33a16.37,16.37,0,0,0-1.79-.25,3.86,3.86,0,0,1-1.65-.38,2.76,2.76,0,0,1,.9-.62c.54-.28,1.27-.66,1.36-1.51a.62.62,0,0,0,0-.13,2.26,2.26,0,0,0,1.62-.83c.65-.8.8-2,.45-3.76a1.16,1.16,0,0,0-.23-.76,1.21,1.21,0,0,0-1-.45,4.68,4.68,0,0,0-.88.13c-.24.05-.52.1-.81.14a1.58,1.58,0,0,0,.23-.49l0-.14a3.29,3.29,0,0,0,.63.07,1.76,1.76,0,0,0,1.35-.56c.54-.58.73-1.54.62-3.1,0-1.88-1.49-2.18-2.47-2.37a5.88,5.88,0,0,1-3.37-1.64,14.91,14.91,0,0,1,1.71-.15c2.11-.11,5.29-.27,5.22-3.78v-.28l-.15-.23c-.49-.79-1.5-.79-2.24-.79h-.55a7.38,7.38,0,0,1-1.83-.17,1.88,1.88,0,0,0,.92-.59c.57-.67.74-1.71.57-3.47a7.36,7.36,0,0,1,2.09-1.43c1-.53,1.76-.95,1.87-1.75a1.28,1.28,0,0,0-.4-1.12l-.18-.18-.24-.07a7.38,7.38,0,0,0-2-.31,5.3,5.3,0,0,0-1.33.17c1.44-1,2.06-2,2.09-3a3.24,3.24,0,0,0-1.59-2.59l.13-.08a1,1,0,0,0,.54-1.18l-.21-.73h-.58a2.32,2.32,0,0,0,.21-.79A11.71,11.71,0,0,0,677,125.1a14.71,14.71,0,0,1,2.46-2.77l1.37-1.12-1.67-.6a3.13,3.13,0,0,0-.73-.16,3.63,3.63,0,0,0,1.31-2,2,2,0,0,0,.93-.81l.47-.23-.17-.77-.25-1.09c.15-.24.34-.49.53-.76a5.7,5.7,0,0,0,1.43-3.34l.06-1.68-1.51.75a2.94,2.94,0,0,1-1.21.4,1.1,1.1,0,0,1-.88-.46,7.78,7.78,0,0,0,2.71-1.94l1.11-1.27-1.29-.28c1-.41,2.18-1.12,2.13-3.5v-.25l3,1.25-.38-.09-2.4-.7,1.25,2.16c1,1.81,2,3,3.39,3.63l-1,.25.33,1c.45,1.44.35,1.49-.42,1.87a5.35,5.35,0,0,0-1.55,1l-.73.7.71.72c1.93,2,4.74,2.71,7.21,3.37l1.5.42.4.12.37-.21a7.59,7.59,0,0,0,1.25-1,6.42,6.42,0,0,1,2.92-1.74l.93-.16-.11-1a3.23,3.23,0,0,0-.59-1.48c-.23-.35-.45-.69.89-3.1l.74-1.33-1.51-.15a5.33,5.33,0,0,0-.67,0,5.51,5.51,0,0,0-2.06.39,6,6,0,0,1,2.65-2,4.16,4.16,0,0,0,1.9-1.34l.94-1.35-1.63-.21a5,5,0,0,0-.78,0,16.71,16.71,0,0,0-3.9.67,16.48,16.48,0,0,1-3.77.65,4,4,0,0,1-1.83-.38c.75-.2,1.49-.36,2.22-.53,3.76-.86,7.65-1.74,10.55-5.38l.61-.76-.74-.63a6,6,0,0,0-.59-.4c-.86-.53-1.57-1-1.63-2.07l0-.65-.61-.23L699,94l.8-.33c1.54-.63,3.46-1.41,4.39-3.92l.6-1.61.71-.21-4.36-.69a4.54,4.54,0,0,1-.6-.12h0a2.54,2.54,0,0,0,2.09-.92,2.35,2.35,0,0,0,.37-1.89,4.13,4.13,0,0,0,0-3v0l1-.11.25,0,.21-.14.14-.11a3.46,3.46,0,0,0,1,.89,4,4,0,0,1,1.5,1.81,1.4,1.4,0,0,0-1.11,1,1.23,1.23,0,0,0,.12.88l-.6-.28.45,2a5.2,5.2,0,0,0,3.2,4.13l-1.12.56-1.21.61.94,1a8.85,8.85,0,0,0,2.34,1.71l-.42,0-.6,0a3,3,0,0,0-.93.12l-.93.27.25.94a7.08,7.08,0,0,0,1.47,2.87,3.65,3.65,0,0,1,.74,1.24l-.37.27-1.43,1.08,1.67.65c.25.1.33.27.35,1.07v.64l.34.29a17.61,17.61,0,0,0,1.88,1.4c.33.22.65.43,1,.68a5.76,5.76,0,0,0-2.24,1l-1.37,1,1.54.72a10,10,0,0,1,2.86,2.36,11,11,0,0,0,4.34,3.19,3.12,3.12,0,0,0,.74,1.14c-.86.57-1.57,1.22-1.45,2.15a1.46,1.46,0,0,0,.3.71,2.49,2.49,0,0,0-1.31,2c-.06,1.52,1.43,2.88,5.23,4.68a1.37,1.37,0,0,1-.66.25c-.17,0-.39-.15-.76-.41a7,7,0,0,0-4.5-1.42c-.22,0-.46,0-.72,0l-.59,0-.25.54a2.41,2.41,0,0,0-.12,2c.48,1.19,1.83,1.7,3.15,2.2a10.87,10.87,0,0,1,1.55.68c-.46,2.87.6,3.68,2,4.42a4.5,4.5,0,0,1,1.19.77,5.1,5.1,0,0,1-1.27.14,13.29,13.29,0,0,1-1.7-.14,10.45,10.45,0,0,0-1.31-.12,2.22,2.22,0,0,0-1.62.58,2.1,2.1,0,0,0-.58,1.51,2.69,2.69,0,0,0,.19,2.45,2.84,2.84,0,0,0,2.35.93,17.33,17.33,0,0,0,2.66-.3c.63-.1,1.27-.21,1.82-.25a4.71,4.71,0,0,1-4,2.44c-.8.07-2.29.22-2.25,1.9-.05,1.89.22,3,.88,3.71a2.06,2.06,0,0,0,1.5.61l.38,0c.27.77,1.16,1.1,2,1.42l.27.11h-.32a12.39,12.39,0,0,1-2.18-.26,9.1,9.1,0,0,0-1.4-.17,1.41,1.41,0,0,0-1.48.93,2.81,2.81,0,0,0,0,2.77,3.84,3.84,0,0,0,2.61,1.64,1.9,1.9,0,0,0-.35,1.7,1.45,1.45,0,0,0,.89.9,7.22,7.22,0,0,0-.82,0,4.65,4.65,0,0,0-.86.08l-1.86.35,1.35,1.34a6.09,6.09,0,0,1,1.17,2.83c.07.3.14.61.23.92a2.58,2.58,0,0,0-2.74,1.88l-.18.77.71.35c1.41.69,1.71,1.7,2.18,3.23.13.43.27.88.44,1.36a7.26,7.26,0,0,0-1.61-.19c-2,0-3,1-3,2l0,.46.28.27c0,.06.08.15.14.26a15.48,15.48,0,0,0,5.08,5.66l-.17.11c-.77.51-1.43.95-1.39,1.79a1.63,1.63,0,0,0,.78,1.25c-.93.34-1.47.76-1.51,1.49-.07,1.11,1.1,1.7,3.6,2.59a1.21,1.21,0,0,0,1.29,1.07h.48l.16-.05a1.45,1.45,0,0,1,.47-.08,6.85,6.85,0,0,1,3.11,1.47,6.3,6.3,0,0,0,3.14,1.42,2.22,2.22,0,0,0,.45-.05l1.36-.3-.71-1.19,0,0h.17a1.07,1.07,0,0,0,1.19-.91,1,1,0,0,0,0-.25h0a19.87,19.87,0,0,1,1.7,1.34c1,.88,1.92,1.64,3.26,1.64a4.85,4.85,0,0,0,2.29-.67c.32.21.68.48,1.05.77a9.65,9.65,0,0,0,3,1.77,1.7,1.7,0,0,0,1.57.9h0l.28.18,0,.16.2.23a2.65,2.65,0,0,0,1.77.92l2.11,1.38.35.21.14.19a2.4,2.4,0,0,0,.9.85,1.94,1.94,0,0,0,2,1.09,1.86,1.86,0,0,1,.64.08l.24.34h.51a1.08,1.08,0,0,0,.94-.61l.1-.18a5.53,5.53,0,0,0,1.3.22,1.41,1.41,0,0,0,1.12-.45l.71-.8-.86-.66-1-.78a5.48,5.48,0,0,1-.39-1.32c-.15-.74-.37-1.86-1.45-1.86a1.44,1.44,0,0,0-.91.36,11.06,11.06,0,0,1,3.4-3,16.86,16.86,0,0,0,1.52-1.06,14.09,14.09,0,0,1,1.89,1.15c1.4.94,2.84,1.92,4.43,1.92a3.64,3.64,0,0,0,2-.63,2.2,2.2,0,0,0,1.44-1.86l0,.21.1.75.75.11A3,3,0,0,1,771,191a3.84,3.84,0,0,0,2.87,1.45,6.47,6.47,0,0,0,2.61-.69,7.23,7.23,0,0,1,.6.8,4.26,4.26,0,0,0,2.62,2.19h1c.39,0,.62,0,1.32,1.07a2.35,2.35,0,0,0,2.45,1.78,2,2,0,0,1,1.13.32l.5.44h0a4.55,4.55,0,0,1,.22.68l.21.83.84-.07h.23a7.29,7.29,0,0,1,.79,0,7.19,7.19,0,0,0,.78.06,1.8,1.8,0,0,0,1.16-.34,2.39,2.39,0,0,1,1,1,10.3,10.3,0,0,0,.65.87,1.65,1.65,0,0,0-.37.82l-.08.38A1.34,1.34,0,0,1,791,202l-.21-.55-.59-.08a2.83,2.83,0,0,1-1.55-.63,1.9,1.9,0,0,0-1.15-.48,1.45,1.45,0,0,0-.51.1,1.38,1.38,0,0,0-1-.39c-.84,0-1.31.71-1.66,1.24l-.11.16h-.34l-.24.64a3.64,3.64,0,0,1-.51,0,3.08,3.08,0,0,0-2.62,1.11l-.12.15h-.21l.16.06-1.68,2.16,2.9-.79a4.78,4.78,0,0,1,1.25-.18,3.8,3.8,0,0,1,1.87.5,1.68,1.68,0,0,0,.8.25h.63a1,1,0,0,0,.26,0h.85v0h3.66l-.12.59.52-.59h1.14l1.73,1.26-.08-1.26h23.87v35.3H1V173.86l23.66-4.74.8-.16V144.52L143.23,84.36l138.54,16.27.57.07.35-.46L285,97.12l1-1.38-1.71-.21-145-18.13-.32,0-.29.16L25.46,140.71v-1.77l119.72-74,37.59,5.22.29,0,.27-.12,28-12.78L227,60l.3.06.28-.13,44.68-20.45,2.53-.19h.14l.13,0,21.17-7.65.36-.13.18-.33,1.06-1.94,4.87-2.28.68-.32-.12-.75c-.14-.83.58-1.48,2-2.66l.61-.52.38-.33,0-.5a2.08,2.08,0,0,0-.77-1.41,3.35,3.35,0,0,0,.87-1.3,5,5,0,0,1,.56-1l.34-.47-.23-.52a3.3,3.3,0,0,1,0-2.74,2.34,2.34,0,0,1,.37-.57,5.93,5.93,0,0,1-.19,1.47l-.14.6.47.39c1.68,1.41,1.39,2.15,1,3.1a2.41,2.41,0,0,0,.12,2.56l.07,2.36,0,1.17,1.15-.22.26,0-.2.84-.29,1.17,1.2.07,3.18.18h.14l.13,0,44.05-9.64.79-.17V14.77l2.05-1.3.43-.28,0-.52c.3-5.86,2.13-9.62,5.43-11.21M326.12,36.7l.2,0L365,28,398.68,53.6l.17.13.21.05,12.21,2.8,4.66,1.07-3.84-2.85-44.52-33-.37-.27-.44.1-50.23,11.2-4.63,1,4.65.92,9.36,1.86.21,0M297.83,72a4.2,4.2,0,0,0-.19,1.24l-.05,3,1.85-2.42a5.52,5.52,0,0,1,1.08-1.09l.07,0a4.39,4.39,0,0,0,.83.46,2.76,2.76,0,0,0-1.27,3l.48,3.16.77-1.59c.07.71.22,1.51.4,2.46v0a1.13,1.13,0,0,0,.05.48,1,1,0,0,0,.16.28l-.56,88.12v1h5.39l1.61.45-2.34,3.3-.21.29,0,.35.34,5.52.05.92.92,0,8.06.21,1,0v-1L315,80.19v-.08a13,13,0,0,0,.12-2.59l1.17,2.71.56-3.33a4,4,0,0,0-.81-3.44,3.09,3.09,0,0,0,.83-.76H317a.58.58,0,0,1,.54.27l1.74,2.23.05-2.83a3.2,3.2,0,0,0-.31-1.55c1.87-.54,1.9-2.54,1.92-3.69a4.19,4.19,0,0,1,.19-1.55l.7-1.2-1.36-.28L308.3,61.54l-.28-.06-.27.1-11.21,4.18-1.26.47.81,1.07a2.42,2.42,0,0,1,.13,1.21A3.28,3.28,0,0,0,297.83,72m31.39,5.59a5.15,5.15,0,0,0-.21.8l-.85,4.32,2.63-3.53a2,2,0,0,1,1.35-.8,1,1,0,0,0,.32.29,2.24,2.24,0,0,0-.86,2.54,1,1,0,0,0,.19.55l.31.43h.32a9.68,9.68,0,0,0,.2,4l1,5.44-.19,78v1h5l1.07,1L337.17,175l-.19.27v.32l0,5.5v1l1,0,8.21.23,1,0v-1l-1-94.9,0-.17a7.72,7.72,0,0,0,0-3.3l1,.61.33-1.33A2.92,2.92,0,0,0,346.29,79a1.37,1.37,0,0,1,.41-.09H347l.3,0,.24-.17.48-.37,1.89,2-.19-2.81s0-.1,0-.15c2.42-.83,1.81-3.45,1.51-4.74a5.69,5.69,0,0,1-.19-1l.17-.9-.89-.25-10.84-3-.3-.08-.3.1-10.15,3.56-.79.27.13.83a4.89,4.89,0,0,1-.12,1c-.21,1.16-.62,3.44,1.31,4.4m37.86,5.51a2.76,2.76,0,0,0-.25,1.48l.18,3.08,1.64-2.58a1.9,1.9,0,0,1,1-.23l.19.13a3.1,3.1,0,0,0-.48,2.83l.46,2,.47-.58a8.85,8.85,0,0,0,.54,2.17,1.15,1.15,0,0,0,0,.37l.16.84h.46l-.77,78v1h4.55l1.45,1.18L374.49,175l-.27.28,0,.38-.22,5.53,0,1.08,1.08,0,8.64-.37,1,0,0-1-1.79-88.54,1.32.23-.46-1.55a9.19,9.19,0,0,1-.28-1.83c0-.07,0-.14,0-.21l1,.36.22-1.13c.37-1.88-.37-2.69-1.06-3.15.14-.1.28-.2.41-.31l.35,0,.33,0c.24,0,.27,0,.35.32l2-.34a5.63,5.63,0,0,0-.41-1.78,2.42,2.42,0,0,0,1-.7c.78-1,.59-2.3.44-3.37a5.53,5.53,0,0,1-.09-1.11l.17-.9-.89-.24-9.48-2.57-.32-.09-.31.13L366,78.42l-.75.31.14.8a3.58,3.58,0,0,1,0,.75,2.44,2.44,0,0,0,1.65,2.81M182.71,121.32l-.7-.72-.71.83a9.41,9.41,0,0,0-2.36,5.67v17.1l1.21-.26,4.65-1,.63-.14v.78l.93.06,6.21.42,1.07.07V131.28l-1,0-6.2.17-1,0v.95l-.52-.18-4.51-1.53,2.65-.33.42,0,.25-.34a19.2,19.2,0,0,0,1.13-1.7c0,.1,0,.21,0,.31V131l1.06-.06,7.13-.4.95-.06v-.82h.67l-.19.72,3.74,1,1.26.35V127.1c0-.59-.06-3.54-1.39-4.48l-.59-.42-.58.42-.42.31.29-.36.52-.62-.5-.64c-1.63-2.07-3.25-3.08-5-3.08a4.56,4.56,0,0,0-2.22.61l-.05,0v-.3l-.64-.25a3.72,3.72,0,0,0-1.37-.24,5.38,5.38,0,0,0-4.84,3.24m508.18,1.31,1.7-1-.15-.31.12,0,.08,0a.47.47,0,0,1-.17,0h-.05a1.36,1.36,0,0,1-.06-.2l.54-1.72a6.32,6.32,0,0,0-1.39-.29,10.51,10.51,0,0,1-2.77-.69l-.88,1.79.3.17a7,7,0,0,1,2.73,2.37m-452,4.2c-1.6.81-2.17,3.22-2.17,5.24v2.6l.91.09,2,.18.76.07.26-.72c.6-1.64.93-2,1-2l.08,0a3.12,3.12,0,0,0-.15.39h-.23v1.39h1l0,.67,3.2.18.39,1.34v-1.32l2.25.13.06-1h1a5.41,5.41,0,0,0-.5-2.23l.41.41.13-.14a5.9,5.9,0,0,1,.75,1.73v1.51l.85.14,2.49.39,1.16.19v-4a12.7,12.7,0,0,0-.82-3.73l-.29-.92-.44-1.44-.79.66a7.64,7.64,0,0,0-5.88-3.19h-1v0l-.19,0a4.78,4.78,0,0,0-.92-.09c-1.95,0-3.8,1.2-5.35,3.48m450.86,0h0a.8.8,0,0,1-.08.17,2.37,2.37,0,0,0-.1,2.42l.22.53.58.07c.22,0,.22,0,.55.38a10.54,10.54,0,0,0,1,.93l1.1.92,0-.12a7.83,7.83,0,0,1,1.85,2.25l.6,1.1-.33.34a9.75,9.75,0,0,1-1.61,1.33,2.31,2.31,0,0,0-.47.38L691,134.75l2,5.88a1,1,0,0,0,.21.36,3.93,3.93,0,0,1,.46.9,1,1,0,0,0,1,.72H695l.37,2a3.6,3.6,0,0,0-1-.14l-.31,0-.89.1,0,.88a3,3,0,0,0,.21,1.75c-.86,1.12-1.18,2.49-.87,5.08l.3,2.42,1.49-1.93c2.41-3.12,3.26-5.47,2.52-7a2.34,2.34,0,0,0-.87-1l.6-5a3.64,3.64,0,0,1,.26-.91,3.62,3.62,0,0,0,.12-2.83l-.1-.27,0-2a4.54,4.54,0,0,0-1.21-3.17,3.41,3.41,0,0,0-.76-.58,4.87,4.87,0,0,0,1.42-2.12l.3-.75-.36-.24.13-.27a2,2,0,0,0,.17-1.86l-.31-.47h-.54a1,1,0,0,0-.87.5,13,13,0,0,1-2-.65,5.34,5.34,0,0,0-2-.54h0a2.92,2.92,0,0,0-1.24.29l-1.07.49.67,1c.68,1,.66,1.29.66,1.29m-490,18V132.8l-.78-.17-3.69-.82-1.21-.26V144.3l.9.09,3.69.36,1.09.11m36.94,2.65h4.44V134.85l-1.45.72-2.43,1.21-.56.28v10.45m4.91.33h1l5.69,0h1V137.52l-.75-.19-5.7-1.44-1.24-.32v12.27m8.37.39,1.06-.07,4-.26.94-.06V137l-.88-.11-4-.48-1.12-.14v12m173.65-5.32-.64.72c-.55.62-.73,3.42-.73,3.65v2.08l.64.24.74.29-.6.13-.78.17v16.7l.27.29.31.32h-.58v9.94l1,0,1.74-.07,1,0v-.55l2.26.31v1.36l1.39-.59,1.69-.72.61-.26v-27.1l-1,.11.43-.21.57-.27v-2.1c0-.43,0-1.26-.09-2a7,7,0,0,0-.14-.82l.45-.27-.73-.9c-.43-.53-.74-1-1-1.38-.53-.81-1-1.51-1.92-1.51a1.93,1.93,0,0,0-.94.28v-.58l-1.09.09a2.56,2.56,0,0,0-1.51.82,1.89,1.89,0,0,1-.52.38l-1.2.06.27,1.16.07.32M194.14,158.23v12.15l.84.14,3.69.59,1.15.18V158.2l-.94,0-2.27-.14,2.3-.2.91-.08V145.35l-.89-.09-3.69-.39-1.1-.11v13.47m-8.71-12.49-.76-.06L180,145.3l-1.08-.09v25l.81.15,4.65.9,1.19.23V171h.84l6.21,0h1V145.34l-1,0-6.21-.12-1,0v.56M552,156.65h3.3l.14-.84c.54-3.2,1.43-4.5,3-4.5h.15l2.45.11-1.68-1.79-.72-.77-.33-.36-.49.05c-.82.08-1.51.17-2.12.26a19.93,19.93,0,0,1-2.67.25h-.42l-.3.31-1.68,1.77-.92,1,1.19.61c.69.36.69.36.88,2.25l.07.78.1.9m-302,5.14v11.32l1.24-.31,4-1,.76-.19v-21l-.73-.21-4-1.12-1.27-.35v12.87m-13.28-.64v11l.8.17,2.43.52,1.21.25V160.45l-.66-.24-.16-.05.09,0,.73-.2v-11l-1.13.14-2.44.33-.87.11v11.63m12.6-.9V150l-.93-.07-5.69-.38-1.07-.07v10.62h1l5.7.09h1m297.17,7.86c-.46,0-.66-.33-1.12-1.38a6.86,6.86,0,0,0-1-1.72l-2.31-2.8.55,3.58.08.57a84.63,84.63,0,0,0,1.71,9.07c.19,2.66.87,3.45,1.61,4.09a1.82,1.82,0,0,1,.24.23l.61.79.79-.6c1-.77,2.08-1.72,2.17-2.93a2.38,2.38,0,0,0-.63-1.73,13.41,13.41,0,0,1-.35-3.28l-.07-1.1-.59.09-.69-5-.45-3.27-.09-.59-.56-.21-1.73-.64-2.53-.93,1.32,2.36,2.18,3.91.82,1.48m-297.17,4.45V160.93h-1l-5.7-.09-1,0v11l.9.09,5.69.58,1.1.12m468.22,22.73.67,0h.16a3,3,0,0,1,.46,0,2.32,2.32,0,0,0,.44,0,2,2,0,0,0,1.45-.72l.38-.39-.12-.54-.2-.85-.27-1.14-1,.4a4.94,4.94,0,0,1-.09-1.79l.28-3-2,2.28c-1.74,2-1.68,2.54-.56,4.91l.1.23.29.62m13-4.11a1.17,1.17,0,0,0-.55.61,1.9,1.9,0,0,0,.62,2l.89.88.66-1.06.07-.11,1.39,2.73a2.22,2.22,0,0,0,.44,1.27,1.29,1.29,0,0,0,1,.49,1.34,1.34,0,0,0,.69-.2l.55-.31-.05-.63a5.46,5.46,0,0,1,0-.66l1.15.33-.47-1.72-.15-.54c-.36-1.39-.67-2.58-1.78-2.58h-.07l-.78,0-.15.77a19.77,19.77,0,0,0-.37,2.81l-.22-3.06a1.05,1.05,0,0,0,.42-.84,1.35,1.35,0,0,0-1.32-1.26h0a1.3,1.3,0,0,0-.64-.18c-.77,0-1.13.64-1.3,1.21m36.86,4.52a1.59,1.59,0,0,0,1.09-.46h1.06l.3-.33.3-.37,0-.45a7.79,7.79,0,0,1-.06-1.45l.16-1.55-1.48.51a3.93,3.93,0,0,0-.79.37,1.42,1.42,0,0,1-.83.24h-.67l-.25.62a2.4,2.4,0,0,0,.06,2.23,1.38,1.38,0,0,0,1.16.63m-304.36.47a2.18,2.18,0,0,0,.42,0h0l.1.17.32.42h.51a1.07,1.07,0,0,0,.9-.5,2.61,2.61,0,0,0,0-2.36l0-.08,0-.05a2.33,2.33,0,0,0-1.6-1l-.42-.09-.36.25a2.31,2.31,0,0,0-1.12,2.41,1.33,1.33,0,0,0,1.3.92m276.18-.2c.29.63.59,1.16.84,1.6s.36.65.44.85l-.26.55.67.49.51.37.4.29.47-.14a2.05,2.05,0,0,0,1.6-1.19c.3-.88-.26-1.89-1.33-3.35a5.42,5.42,0,0,0-2.64-1.55,1.06,1.06,0,0,0-1,.59,1.42,1.42,0,0,0,.28,1.49m-147.08-1.25a1.77,1.77,0,0,0-.95.58,3.08,3.08,0,0,0-.65,1.84h0v4.63l1-.05.48,0,.23,0a7,7,0,0,1,1.31.31l1.72.47-.49-1.71a1.08,1.08,0,0,1,0-.78.5.5,0,0,1,.28-.14l2.19,2-.78-3.16-.2-.8-.09-.34-.28-.22a2.35,2.35,0,0,1-.78-1.55c-.12-.53-.36-1.64-1.49-1.64a2.64,2.64,0,0,0-1.52.65m178.74,6a1.35,1.35,0,0,0,.43-.08l.32-.1.19-.28a11.42,11.42,0,0,0,.65-1.05l.19-.31,1.46.55-.49-1.87-.13-.47c-.38-1.48-.68-2.65-1.75-2.71l-.88,0-.16.86c-.28,1.48-.54,2.49-.7,3.15-.25,1-.38,1.46,0,1.94a1.08,1.08,0,0,0,.87.42m-165.11-4.68a1.93,1.93,0,0,0-.46.22l-3.26,2.21,3.92-.39.26,0h0a1.26,1.26,0,0,0,1-.5l1.68,3.38c-.34,1.55-.06,1.93.1,2.17a1.8,1.8,0,0,0,.19.2h-.49a1.92,1.92,0,0,0-.38-1.49,1.11,1.11,0,0,0-.79-.33,1.48,1.48,0,0,0-1,.44l-.39.34.06.52a.57.57,0,0,1,0,.12l-.2.08a4.55,4.55,0,0,0-1.06.47l-3,1.85h4.91l.15,1.06,1.34-1,.39-.28,2.14-1.54v9.81l1.83-8.08h10.33l-4.42-.9c.89-1.31.72-1.83-.28-3.49l-.22-.37-.18-.29-.31-.13a8.29,8.29,0,0,1-1.33-.78,1.81,1.81,0,0,0-1.08-.49h-.64l-.27.55a1.22,1.22,0,0,0,.24,1.34,3.87,3.87,0,0,0,1.16,3.05l-1.89-.38a1.5,1.5,0,0,0-.67-.93l-.19-.33h-.58c-.24,0-.75,0-1.2,1.14h-.42a3.86,3.86,0,0,0,.74-.72l.24-.3,0-.38c0-.27,0-.48,0-.65l1.15.43-.47-1.84,0-.16c-.32-1.23-.56-2.2-1.55-2.2s-1.2,1-1.32,1.43c-.2.6-.35,1.1-.46,1.53l-.2-3.3a1.05,1.05,0,0,0,.46-.87A1.3,1.3,0,0,0,608,195h-.12a1.21,1.21,0,0,0-.56-.13,1.66,1.66,0,0,0-1.32.86c-.07.08-.16.2-.24.28M459,198.11a1.39,1.39,0,0,0-.21.27c-.22.41-.35,1,.9,3l.17.26.29.12a1.23,1.23,0,0,0,.53.11,1.29,1.29,0,0,0,1-.49c.43-.52.78-1.53.11-5.11l-.15-.77-.78,0h-.07c-1.11,0-1.43,1.21-1.79,2.61l0,.07m316.81.24c-.11,1.4.56,1.87,1.26,2.07l-.17.7-1.69-.21-.44,0a1.46,1.46,0,0,0-.16-.19,1.51,1.51,0,0,0-.12-.26l-.3-.47h-.55a1.33,1.33,0,0,0-1,.54c-.18.18-.45.45-.81.76a1.54,1.54,0,0,0-.58.58l-.76,1.42-.35.2-1.21.75.24-.86h1L770,202.2c-.43-2.89-1.26-2.95-1.56-2.95h-.53l-.3.41a1.15,1.15,0,0,0-.16.34,2.11,2.11,0,0,1-.6.35,2.85,2.85,0,0,0-1.56,1.46l-.92,1.51h1.85l-.25.58a1.14,1.14,0,0,0,.1,1.1,1.49,1.49,0,0,0,1.28.62,1.62,1.62,0,0,0,1-.33h1l-.44.83,1-.83h2.34l.3-.39a1.28,1.28,0,0,0,.19-1.34,1.37,1.37,0,0,0-.25-.33l.2-.16.15-.12a3.82,3.82,0,0,1,1-.11,1.54,1.54,0,0,0,.68.15,2.46,2.46,0,0,0,.82-.16l1.18-.4-.16.68,1.6-.4a2.69,2.69,0,0,0,1.79-1.95,2.8,2.8,0,0,0-.59-2.71l-.19-.18-.24-.07a4.83,4.83,0,0,1-1.1-1.07c-.39-.47-.67-.8-1.2-.8H776l-.3.42c-.34.48-.2.94.16,2m-45.7.26h-.26l-.29.5-.28.51.29.5.29.5h.57l.31,0h0l1.57,0h1.13l-.16-1.12a7.9,7.9,0,0,1,0-1,2,2,0,0,0-.38-1.6,1.11,1.11,0,0,0-.79-.33,1.45,1.45,0,0,0-1,.52l-.17.17-.07.23a3.13,3.13,0,0,1-.7,1.16m17.76,0h-.71l-.25.67a0,0,0,0,0,0,0,2.09,2.09,0,0,1-.38,0,1.78,1.78,0,0,0-2,1.68l-.07.94.93.12a29.21,29.21,0,0,1,2.93.49,3.47,3.47,0,0,0,.22.94v.32c.12.79.48,1.19,1.08,1.19.43,0,1-.21,1.06-1.18l1.29.79-.12-1.92a8.83,8.83,0,0,1,.45-2.35,2.47,2.47,0,0,0,.16-.86,1.35,1.35,0,0,0-.34-.92,1.81,1.81,0,0,0-1.24-.55,1.15,1.15,0,0,0-.26-.47l-.34-.33h-.43a1.47,1.47,0,0,0-1.12.69c-.22.27-.59.7-.87.7h0m-10.94-.65-.06.07h-.07a1.46,1.46,0,0,0-1.32,1.14,1.57,1.57,0,0,0-.17,1.2h-.18a1.53,1.53,0,0,0-1.2.59,3.18,3.18,0,0,0-.48,2.27l-.09-.1a2.48,2.48,0,0,0-2.29-1.92,2,2,0,0,0-1.55.76,2.29,2.29,0,0,0-.45,1.42l-.19.25.13.47a2.77,2.77,0,0,1,.07.39l.13.84H737l1.95,3.38-.16-3.38h2.31l-.42-1.3a1.91,1.91,0,0,0-.36-.7,2.08,2.08,0,0,0-1.84-1.87,1.48,1.48,0,0,0-1,.45l-.17.19a4.62,4.62,0,0,0-.41-.73,2.85,2.85,0,0,0,2.47-1.77l-1.8-.87a1.2,1.2,0,0,1,.26-.29l.06,0,0,0,.12-.07-.78-.62-.12.15,0,0m-276.35,5.94-.22-.84c-.47-1.78-1.39-2.05-1.9-2.05a1.75,1.75,0,0,0-1.14.47l-.42.42-1.14-.86v3.09l.57.27a2.63,2.63,0,0,0,1.16.27,3.31,3.31,0,0,0,1.42-.36l2.67,3.37-.89-3.35,1.77.07,2.87.13,1,0,0-1a1.92,1.92,0,0,0-1.15-2.12c-.18-.09-.18-.09-.23-.26l-.09-.27-.21-.19a1.46,1.46,0,0,0-1-.42c-.88,0-1.15.82-1.28,1.22a2.55,2.55,0,0,1-.64,1.16l-1.22,1.21M716,205.3h10.63l-1.08-1.56a1.19,1.19,0,0,1-.16-.32l.34,0,.06-1a1.56,1.56,0,0,0-.31-1.29l-.32-.33h-.43c-.64,0-.93.47-1.27,1s-.85,1.37-1.34,1.53l-6.12,2m-16.45-.72a1.34,1.34,0,0,0,1.29-.89,1.13,1.13,0,0,0-.33-1.28l-.21-.18-.28,0a.47.47,0,0,1-.16-.05,1.62,1.62,0,0,0-.57-.12c-.25,0-1.07.09-1.2,1.29l-.06.61.52.33a1.8,1.8,0,0,0,1,.33m-70.1.72h7.1l-.16-1.13a1.43,1.43,0,0,0-1.52-1.25,4.17,4.17,0,0,0-1.72.49l-3.7,1.89M641.8,63.65a7.08,7.08,0,0,0,1,.84,1.74,1.74,0,0,0-.39.58,1.87,1.87,0,0,0,.17,1.55,6.34,6.34,0,0,0-1.15,1.71,7.62,7.62,0,0,0-.14-.81,2.05,2.05,0,0,0,.22-1.47c-.06-.39-.06-.48.09-.65l.25-.31,0-.39-.07-1.05m63.57,10.6.54.61a1.29,1.29,0,0,0-.29.45,1.48,1.48,0,0,0,.17,1.32,11.73,11.73,0,0,0-1,1.81,7.18,7.18,0,0,0-.39-.63,3.39,3.39,0,0,0,.87-2,.38.38,0,0,0,0-.1l.06-.1,0-.25.06-1.09M409.54,90.45l.3,1.44-.55.7a2.83,2.83,0,0,0-.86-1.86,2.2,2.2,0,0,0,.25-.17.5.5,0,0,1,.12-.08l.12,0h.62m274.87,2.68a2,2,0,0,1,.72.94l0,.21a1.23,1.23,0,0,0,.12.5c0,.07,0,.18,0,.29a6.88,6.88,0,0,0-.72-.69l-.29-.25a2.1,2.1,0,0,0,.17-1m1.25,4.41a1.44,1.44,0,0,0,.74.28l.2.08a4.06,4.06,0,0,0-.72,3.48l0,.26.17.21a3.26,3.26,0,0,0,2,1.21l-4.33.15V103a2.36,2.36,0,0,0,.41-.71,1,1,0,0,0,.16-.64c-.05-.7-.66-1-1.1-1.13l-.35-.15a4.05,4.05,0,0,1,1.37-1.28,2.87,2.87,0,0,0,1.38-1.59m-277.33,5.21.32.08,27.8,6.59.92.22.27-.91.07-.26,9.22,2.62-.11.26-.06.16v.16l-.27,4.48,0,.37.22.29.9,1.2-38.08-5.89-1-.16-.06.37-.13-9.58m182.59,16.17a1,1,0,0,0,0,.12l0-.12m-.11,2.19a2,2,0,0,0,.19.43l-.18.17v-.6M189.1,123.62V124a4.08,4.08,0,0,0-1.23.26l.24-.21a1.21,1.21,0,0,1,.61-.37l.38-.06m-2.36,1.26-.33.27-.15-.15a3.06,3.06,0,0,0,.48-.12m402.77,2.3a10.7,10.7,0,0,1-.15,1.68c0-.28,0-.55.07-.82s.05-.57.08-.86m-343.09,2.16c.19,0,.4.2.7.55a2.49,2.49,0,0,0-1.11-.3v-.25h.41m-3.51,1.39h0m345.78,3.54a2.89,2.89,0,0,1-.12,1.68l-.35.48.29-1.29q.11-.44.18-.87m105.44,5.5h0m-268.95,9.48.06.29-.2.05.09-.21a.69.69,0,0,1,.05-.13m.67.15h0m.21,0,2.51.46v.25l-.25,0v.06l-2.26.28v-1.08m-240.63,7.63v.18l-.49-.08.49-.1m.16.34.68.12,1,.15-.86,0-.78.05v-.37m242.73,1.07V159l.8.16,1.69.35h.06l-.25.11-1.14.49v-.36l-.85-.14-2.32-.36,2-.75m-3.42,0V160l-1.37-.3-1.21-.27,1.34-.48,1.24-.46m161.93,11a2.21,2.21,0,0,1,.68.62h0a2,2,0,0,1-.37.52,3.54,3.54,0,0,0-.73,1.16l-.07.2,0,.21a2.64,2.64,0,0,1-.31,1.78c-.07.07-.1.07-.12.07a1.74,1.74,0,0,1-.94-.6,8.79,8.79,0,0,0,1.84-4M548,170.72l.16.29-.14,0c0-.09,0-.18,0-.26v-.05m-29.91,21.57a.52.52,0,0,1,.13.09l.25.24a2.26,2.26,0,0,0,.14.26,1.13,1.13,0,0,0-.29.23h-.09a1.45,1.45,0,0,1-1-.56,2.65,2.65,0,0,0,.5-.17,1.76,1.76,0,0,1,.31-.1m232.12.8a4,4,0,0,0,1.56.4,2.3,2.3,0,0,0,.58-.07l-.14.12c-.48.44-.78.71-1,.71a1.13,1.13,0,0,1-.38-.1,1.91,1.91,0,0,0-.66-.35l-.35-.11a3.33,3.33,0,0,0,.42-.6M368.07,0c-4,1.13-7.06,4.71-7.47,12.62l-4.09,2.61,1.58.28v1.3l-44,9.64-3.18-.18.58-2.36-1.8.35-.08-2.75c-1.64-1.33,2.2-2.91-1.5-6,.49-2.1.08-2.93-.54-2.93-1,0-2.63,2.32-1.49,4.94-1,1.39-.55,2.11-2.33,2.66-1.14,0,1.4.61,1.48,1.73-1.67,1.45-3.16,2.47-2.9,4.09l-5.16,2.43-1.22,2.22L274.73,38.3l-2.71.21L227.18,59l-16-2.77L182.91,69.17,145,63.9,24.46,138.39v4l114.78-64,145,18.12-2.34,3.12L143,83.33,24.46,143.91v24.23L0,173V241.6H818.94V204.3H793l0,.19-.3-.19h-6.44l.09,0-.11,0h0a2,2,0,0,0-.38-.08c-.07,0-.1,0,0,.08h-.38a6.3,6.3,0,0,0-2.67-.75,5.86,5.86,0,0,0-1.51.21c1.06-1.37,2.78-.08,3.28-1.42h0c.39,0,.85-1.39,1.4-1.39.22,0,.45.21.7.8.36-.37.58-.51.78-.51.49,0,.8.87,2.57,1.1.53,1.37,1.71,1.42,2.68,2H793a11.46,11.46,0,0,0-.26-2.1l-.22.25c0-.24.09-.36.14-.36s.05,0,.08.11l.72-.8c-1.58-.85-1.46-2.81-3.65-3,0,.35-.31.45-.71.45s-1-.11-1.57-.11h-.31c-.17-.7-.53-1.67-.92-1.67l-.12,0c-1.17-1-3.06,0-3.28-1.7-1-1.51-1.45-1.71-2.27-1.71l-.8,0c-1.58-.24-2.26-3.06-3.35-3.06a.78.78,0,0,0-.45.15,5.35,5.35,0,0,1-2.19.6c-2,0-2.21-2.2-4.5-2.54-.26-2-.46-2.53-.69-2.53s-.71,1.23-1.35,1.23c-.24,0-.52-.17-.85-.65a4,4,0,0,0-2.27-.5c-.73,0-1.49.07-2.12.07a2.41,2.41,0,0,1-1.24-.23c-1,.72,4,1.15,6.6,1.68-.08,1.12-.33,1.66-1,1.79a2.66,2.66,0,0,1-1.62.55c-2.22,0-4.51-2.64-6.54-3.22-1.37,1.42-4.29,2.29-5.93,5.31a1.63,1.63,0,0,1-.59.12,10.21,10.21,0,0,1-2.34-.78c.37.41-.42,1.59-.79,1.59-.09,0-.16-.08-.17-.26a3.12,3.12,0,0,1-1,.18,1.68,1.68,0,0,1-1.33-.58c-.1-.82-.43-.94-.8-.94l-.45,0c-.35,0-.68-.1-.83-.77-1.77-.23-3.4-2.17-4.77-2.82A4.57,4.57,0,0,1,737,189c-1.48,0-2.33-1.4-4.39-2.8a9.82,9.82,0,0,0-.43-2.49c-.16,0-.24,2.28-1.14,2.28a.79.79,0,0,1-.34-.09c-1.54-1.06-4.64-1.71-6.63-2.31-1,.85,5,2.84,6.59,3.37.43.11.49.21.17.21a10.38,10.38,0,0,1-2.15-.38l1.14,1.92-.24,0c-1.57,0-4-2.89-6.25-2.89a2.44,2.44,0,0,0-.8.13h-.32c-.29,0-.29-.08-.39-.82-4.7-1.63-4.48-2.07-.39-3-3.77-2-2.49-1.58,0-3.59a15.13,15.13,0,0,1-6.28-6.51c0-.5.7-1,2-1a9.33,9.33,0,0,1,3.55.87c-2-3-1.17-5.72-4.12-7.17.2-.87,1.13-1.11,2-1.11a3.43,3.43,0,0,1,1.41.25c-1-1.43-.81-4.22-2.3-5.7a3.79,3.79,0,0,1,.67-.06c.75,0,1.48.19,2.12.19a1.63,1.63,0,0,0,1.7-1.27c-.85-1.26-5.2.4-1.51-3.31h-.33c-2.9,0-4.34-1.42-3.41-3.2,0-.22.23-.3.54-.3.74,0,2.13.43,3.58.43a4.51,4.51,0,0,0,2.51-.66c-.62-1.68-5.34-1.44-2.82-3.25h-.11c-.53,0-1.28.4-1.93.4-.8,0-1.45-.6-1.38-3.29,0-2.13,3.81,1,6.85-5.16a2.23,2.23,0,0,0-1.14-.23c-1.42,0-3.48.57-4.93.57s-2.12-.46-1.55-2.21c0-1,.46-1.26,1.21-1.26s1.83.26,3,.26a5.76,5.76,0,0,0,2.81-.67c-1.57-3.21-4.69-1.23-3.67-6.05-1.28-1.45-5.94-1.53-4.76-4.06.23,0,.45,0,.65,0,3.46,0,4,1.83,5.26,1.83.59,0,1.34-.37,2.6-1.46-5.92-2.59-8.41-4.71-3.73-6.34-2.69-.82-1.05-1.77.36-2.63.28-.55-1.81-1.7-.9-2.2-3.74-.71-5-4.38-8-5.74,1.85-1.35,2.88-.76,3.76-1.28-1.7-1.83-2.62-2-4.31-3.42,0-.65.06-1.76-1-2.17l.88-.66c-.34-2.25-1.67-2.16-2.36-4.78a2.49,2.49,0,0,1,.65-.07c.37,0,.8,0,1.27,0a4.84,4.84,0,0,0,2.92-.83,11.14,11.14,0,0,1-4.79-2.57l2.89-1.45c-1.49-1.13-3.66-.81-4.45-4.36l1.56.74c-.09-.18-1.35-1.42-1.23-2.4-.92-.81.47-.65,1.17-1-1.23-3.52-2.59-2.93-3.15-4.23A9.91,9.91,0,0,1,707,76.59c-.83-.91-.59-1.2.64-1.3-1.67-1.85-3.07-3-3-5.5l-.32,5.5c-.17.28.06,1.8-1.43,2.23.34.5,1.8,2.08,1,2.63l-3.18.35c1.86.62,1.83,2.42,1.28,3.74.36,1.24-.33,1.88-1.42,1.88a5.19,5.19,0,0,1-3-1.2c.45,1.87,1.27,3,3.4,3.31l-2.55.75a3.1,3.1,0,0,0,2.29.78,12,12,0,0,0,2.53-.36c-1.27,3.44-4.64,2.93-6.43,4.86l3.43,1.27c.13,2,2,2.72,2.57,3.17-3.46,4.34-8.33,4.43-13.27,5.85l-1.19-.5c2.07-.07,2.71-1.66,3.87-2.79a8.07,8.07,0,0,1-3.26.87,2.55,2.55,0,0,1-2.1-.89c-.3-2.13.27-2.82,1.81-3.58l-2.06-.83h0c-1.08,0,0-1.76-.42-2.55,0,0,0,0,0,0s0,0,0-.09l0,0A2.6,2.6,0,0,0,685,92.35l1-5c-1,1.91-1.33,4.35-2.92,5.39.27,0,.54.73-.18,1.55,1.49,1.45,2,1.35,1.78,2.74s-2,1-3.12,3.66c.56.72,2.07.9,1.68,1.13-.18.85-1.15,1.13-2.21,2.19l1.7-.54c.07,3.23-2.27,2.07-3.92,3.9l2.22.48a8.47,8.47,0,0,1-3.45,2.13c.75,1.49,1.59,1.92,2.37,1.92a3.86,3.86,0,0,0,1.66-.5c-.06,1.76-1.37,2.7-2,4l.33,1.46c-.22.11,0,.48-1.14.87-.27,2.25-2,2.09-3.28,3.83h0c.64,0,1.46-.15,2.21-.15a3.4,3.4,0,0,1,1,.14c-2.91,2.39-3.61,5.89-7.73,7.06a1.77,1.77,0,0,1,.45-.07c1.1,0-.4,2-1,2.74a9.29,9.29,0,0,0,2-.53s-.45.24-1.56,1c4.33,2.23,2.7,4.15-3.36,7a3.32,3.32,0,0,0,2,.92c1.28,0,1.9-1.53,4.07-1.53a6.23,6.23,0,0,1,1.75.28c.81.78-2.91,1.53-3.89,3.33.62,5.18-1.89,2.5-2.83,4a5,5,0,0,0,4.2,1.49h.55c.69,0,1.21,0,1.4.32.09,4.14-5.86,1.83-7.53,3.57,3.15,4.27,6.47,2,6.44,4.38.16,2.15-.31,2.63-1,2.63s-1.21-.33-1.77-.33a.9.9,0,0,0-.66.24c1.93,1,0,1.7-1.43,1.7a2.54,2.54,0,0,1-.85-.11,4.47,4.47,0,0,0,3,1.12,21,21,0,0,0,2.47-.33c.19,0,.27.06.22.25.52,2.44,0,3.56-1.31,3.56a4.66,4.66,0,0,1-2-.64c3.34,2.79-.78,1.64-1.19,4.25,1.49,1.24,2.32.82,4.46,1.25-1.47,1.71-1.2,2.19-3.25,3.47,1.65.77,3.2,1.11,3.32,2.15l-.29,0c-1.7,0-1.72,3.49-3.14,6.42a7.59,7.59,0,0,1,3.46-1.38c1.08,0,1.4.82,1.59,1.78-.2.46-1.62,2.73-6,4.72,3.07,1.85,3.55,3.19,0,3.35,4,.43,4.27,1.75-.11,3.9,3.76.13,3.7,1.52,2.25,3.8,3.62.46,2.85,1.93-1.81,5.62.93,1,2.19.51,2.22,1.42H660c0-.07-.07-.09-.1-.09h0l0,0s0,0,0,0a8.56,8.56,0,0,0,.45-.86c-2.91-.69-4.65-.24-5.82-1.49-.65-2,1.46-4.33,5.44-4.33h.28c-6.78-4.58-6.66-7.38-2.5-7.81-2-2.07-1.76-4.2,3.58-5.46-5.38-1.69-5.77-2.56-2.06-2.56H660c-4.35-1.45-3.51-3.8-.29-3.8H660c-5.09-2.69-6.28-5.75-6.66-6.76-.09-1.67.48-2.67,2-2.67a10.2,10.2,0,0,1,4.38,1.5c-3.06-4-2.58-6.62-4.2-7.1-.2-1.19.36-1.42,1-1.42.42,0,.89.08,1.26.08a.76.76,0,0,0,.6-.18c-1.63-2.32-1.62-3.88-2.93-5.16,2.28-1.9,3-1.1,5.86-2.22-1.23-.71-6.17-.91-2.61-3.14-3.22-.12-4.69-1.61-3.56-3.64.15-.52.63-.64,1.31-.64s1.27.08,2.05.08a6.87,6.87,0,0,0,3.31-.74c-1.06-1.22-5.39,0-2.14-3.15a2.13,2.13,0,0,0-.93-.2c-.91,0-1.88.42-2.63.42s-1.26-.4-1.31-2c.92-3.88,3.9-2,7.27-6.71a2.3,2.3,0,0,0-1.83-.6c-1.39,0-3.16.47-4.41.47s-2-.47-1.35-2.31c.2-1.58,1.31-1.84,2.7-1.84.7,0,1.47.06,2.22.06a5.81,5.81,0,0,0,2.06-.3c-1-2.46-4.42.06-4.07-6.92-1.35-1.4-5.42-.91-4-3.6h0c3.41,0,4.35,1.58,6,1.58a5.46,5.46,0,0,0,3-1.32c-6.91-2.37-9.88-5.5-4.53-7.12-1.44-1.51-1.62-2-1.12-2a11.14,11.14,0,0,1,2.2.64c-.58-1.2-1.59-3.38-1.26-3.41-3.68-1.79-5.28-5-8.9-7.49,1.68-1,3.17-.12,3.89-1.16-1-.82-2.86-1.61-3.84-2.73-.79-1.61-.81-2.42-1.64-3.55l1.2.16c.08-2.35-3-2.5-3.23-4.8a2.67,2.67,0,0,1,1-.16c.61,0,1.25.12,1.93.12a3.72,3.72,0,0,0,3-1.45C649,85.73,647.25,85,646.54,84l2.26-1.62c-2.11-2-3.79-.6-5.33-3.87l3.07.33c-1-1-2.37-2-2.91-2.47A2.64,2.64,0,0,1,645,74.85h0c-1.07-3.83-1.89-3.29-2.82-5.16,0-1,.17-1.3,1.58-2.92-.64-1.24-.88-1.53,1.16-2.29a7.07,7.07,0,0,1-4.44-5.05l.34,5.33c-.88,1,.26,1.95-.65,2.43.17.7.8,3-.49,3.06l-2,.83c1,.38,1.38,2,1.57,4.35a1.67,1.67,0,0,1-1.8,1.24,14.84,14.84,0,0,1-3.9-.92c.65,1.4,1.49,1.94,3.39,2.58l-2.1,1c1.53,1.31,3.32.61,5,1.31-.9,3.39-4.9,2.54-7.59,5.49l4.85.87c-.61,2.73,1.05,2.82,2.59,3.48-4.33,5.53-10.13,4.32-15.22,6.46A4.78,4.78,0,0,0,628.7,99c2.57,0,5.53-1.31,8.28-1.48-.74,1.61-2.71.69-4.76,3-.16.71-.92.8-2,.8h-1.07a8.73,8.73,0,0,0-3.66.63c2.79,1.88,4.37,2.43,5.55,2.43,1.69,0,2.57-1.13,5-1.13h.42c-2.33,3.75-.44,3.69-1.14,5-3.7.33-4.54,4.89-7.43,7.21-2.93.37,1.84,3.54,3.21,4.1-1.32,1.35-2.41.63-4,2.26a3.38,3.38,0,0,1,1.67-.55,3.27,3.27,0,0,1,2.38,1.31c-1.27,1.56-3.33,1.47-3.24,2.84a6.78,6.78,0,0,1,1.61-.22c2.57,0,2.89,2.17,1,5.48,2.56,2,2,5.38-4.55,11,.77-.07,1.47-.11,2.1-.11,6.06,0,5.36,3.5-4.36,13.06h.36c3.19,0,3.38,1.7.61,6-.53,1.85,5.28.75-.65,7.85-.43,3.28,6.89,1.52.65,8.25,1.92.46,1.56,2.62-1.61,5.9-.41,2,4.26.88,3,2-1.21,2.43-.78,3.6-1.26,6.06-.57,2.2,2.59,3.05-1.6,8.26a.23.23,0,0,1-.14,0c-.44,0-1.31-1.06-1.38-1.35-.57-.9-1-1-1.37-1h-.43a1.67,1.67,0,0,1-1.31-.68c-1.54-.33-2.22-3.07-3.32-3.07a.83.83,0,0,0-.46.16,4.45,4.45,0,0,1-2.28.83c-1.47,0-2.32-1.44-4.38-2.91-.24-1.79-.44-2.39-.62-2.39-.34,0-.63,2.09-1,2.32.25.77,0,1.08-.73,1.08l-.43,0a2.54,2.54,0,0,1-1.6.61c-1.67,0-3.13-1.79-4.78-1.79a2.23,2.23,0,0,0-.86.17c-.29-.39-.42-.45-.45-.53l0,.26-.2-.57H592v-9h-2.81l-.24-3h-4.69v-3.94a2.56,2.56,0,0,0,1.7.95c1,0,1.58-1.27,1.42-2.94.38-1.1,2.48-1.84-.11-3.55l1.47-3.53c4.2-1.43.78-4.34.45-6,1.54-.73,1.53-2.56,2.25-4.16.21-3.07.72-4.32-.39-6.76.46-.77,2.86-1.29.93-3.66,1.57-.15,1.42-1.55-.06-1.55a3.85,3.85,0,0,0-1.55.39c-.66-1.12-1.09-2.64-.58-2.72-.31-2.49,2-2.28-.38-4.1.85-1.17-.08-3.29.18-5.15.91-1.62,1.14-4,.8-7.07.33-1.84,3-2.93,1.63-3.06-.68-1,0-1.74,0-2.55,1.37-.82-.69-1.86-1.32-1.86h-.08a8.64,8.64,0,0,0-.76,3.3.08.08,0,0,0-.07,0c-.27,0-.69,1.61.18,2.32a7.7,7.7,0,0,0-1,1,.19.19,0,0,1,0,.08c-.5,3.69-.58,8-1.35,11.38a1.89,1.89,0,0,0-1.32-.62c-1,0-1.71.9-2.24.92,0,.1,0,.15,0,.15a1,1,0,0,1-.22-1.42c.3-1.4-.55-1.83-1.23-1.83a1.2,1.2,0,0,0-.57.12,2.45,2.45,0,0,0-1.6-.55c-.91,0-1.69.41-1.53.8-.65.61-1.14,1.27-.48,3.39-.14,1.28,1.11,1.7,1.66,4.28-1.44.66-.07,1.89-2.36,3.9-.24,0-.5,0-.76,0-.64,0-1.33,0-2,0a8.28,8.28,0,0,1-2.32-.28c-1.92-.61-.72-1.29-.66-1.44-.92-1.8-.15-1.28-.86-3.61,1.07-2.42,3.17-3.12,2.89-7.44,2.61-3.54-.94-7.61-1.41-10.41,0-1.89,1.67-2.51,2.06-3.21.62-.21.27-1.51.09-1.51a.05.05,0,0,0,0,0v0s0,0,0,0c1.53-4.4,4.63-6.26,6.79-7.59a29.9,29.9,0,0,0,2.89-6c1.44-1.32,2.6-2.19,2.26-2.19h-.09c-1.22-2.12.82-1.89.21-3,.72-.32-.95-1.41-.93-1.41h0a4.26,4.26,0,0,0-2.08-.82.36.36,0,0,0-.21,0c-1.21.24-1.19,2.18-2,2.18h-.05l-2.32,2.8c-2.69,2.17-6.17,5-8.44,9.16a10.53,10.53,0,0,0-4.94-1.57c-1.79.41-2.08,2.3-3.46,4.62-1.81,2.41-2.47,2.23-1.88,7.56l-.37,0c-2.49,0-1.75,3.49-2.93,5.86a3.24,3.24,0,0,1-2.34,1.48c-1.58,1.45-1.57,2.55-1,8.94-1.08.77-3.11,0-4.19,1.06l-.7,0c-4.07,0-6.44,2.29-4.93,5.62-1.56.08-2.31,0-3.39.55-2.12,2.19-3.5,3.45-3.06,8.52-.41,5.08.39,12.27.43,19.59,0,6.81-.18,12.41-1.49,14.58H532.7v3.29l-6.84,1.14.18,1.52,1.09-.75v1.94l1.81.44.25-.11,1,1.49.27.53,2,.07v8.61h-5a1,1,0,0,1-.48.15c-.69,0-.92-1.13-1.88-2.25-.66-2.18-1.41-2.89-2.2-2.89-1.53,0-3.24,2.7-4.83,2.7a1.3,1.3,0,0,1-.71-.21c.73-1.83-.46-4.79-2.34-4.79a2,2,0,0,0-.76.16c-.37-1.69-1.59-1.79-3-1.89.93-.91.87-.21.81-1.12l.71-.09.22,0c1.46,0-.55-2.31,2.33-2.31h.25c.77,1.29,1.65,2.34,2.74,2.34A2.16,2.16,0,0,0,519,194c.06-.65.9.36,1.4-1.69a1.2,1.2,0,0,1-.64.29c-.51,0-.41-.94-.89-.94h0a1.15,1.15,0,0,0-.77-.32c-.46,0-.84.32-1.22.32s-.62-.22-1-1c-1.14-.9-1.66-2.43-2.35-2.43h-.08c-2.24-3.26-2.79-5.46-1.27-5.46l.32,0c-7.67-7.53,1-6.47,1-9.37-7.74-8.71,0-6.48-1-10.88-3.12-5.16-3.26-7.58.44-7.58l.58,0c-10.51-10.13-11.88-14.36-7.06-14.36a17.67,17.67,0,0,1,4,.59c-7.11-6.83-8.19-11.62-4.1-13.56-3.34-3.85-2.19-6.26,3.05-6.43-.59-1.86-3.8-.48-4.06-3.19a1.32,1.32,0,0,1,1.31-1c.58,0,1.22.25,1.79.25a1.18,1.18,0,0,0,1-.45c-1.25-2.1-3.08-.77-5.11-2,2-2.57,7.3-5,5.08-6.39-4.88-1.63-5.28-6.24-9.17-6.67-1-2,1.54-1.6-1-6.12a4.79,4.79,0,0,1,1.07-.13c1.69,0,2.66,1.07,4.6,1.07,1.58,0,3.81-.71,7.6-3.3a12,12,0,0,0-2.76-.32c-2.06,0-3.76.48-5,.48a2,2,0,0,1-1.93-.93c-1.56-3.15-4.34-1.86-5.58-4,3.38,0,7.61,1.83,11.31,1.83a6.8,6.8,0,0,0,5-1.85c-6.15-3-13.59-2.55-18.37-7.83,1.06-1.33,4.11-1.21,3.07-4.38l5.11-1c-3-3.32-7.42-2.36-9.18-7.37a29.65,29.65,0,0,0,3.52.56,2.93,2.93,0,0,0,2.6-1.32l-3.06-1c2.66-.13,3.73-1.56,5.09-4.07-1.85,1-3.51,1.86-4.75,1.86-1,0-1.7-.51-2.06-1.87.15-2.75-.31-4.39,1.66-4.69l-3-.41c-1.19-.52,0-3,0-4.06h-.05c-.45,0,0-2.08-1-3.07V43.75c-.47,2.83-1.5,4.29-4.53,6.54H489c1.23,0,1.33.62.93,2.36,1.64,1,1.57,1.31,1.57,3.36s-1.78,1.47-3.51,6.08a6.52,6.52,0,0,1,2,1c-.12,1.55-2,2-3,3h3c-1.5,3.72-4.06,3.07-5.12,5.1l2.08,1c-1.37,1.67-2.76,3.08-4.72,3.08a3.17,3.17,0,0,1-.43,0,4.69,4.69,0,0,0,4.07,1.93c.68,0,1.36-.07,2-.07h.42c-.29,3-3.48,2.8-3.68,6.06l1.26.22c-1.3,1.17-.89,2.79-2.14,2.94-.64,1.74-3.09,2-4.73,3.81,2,1,2.82,1.39,4.81,1.41-4,2.83-5.84,7-10.93,8.48,1.59.68-.79,2.44-1.07,4.18h.37c.91,0,1.7-.07,2.17-.07.88,0,.68.24-1.75,1.65,6.77,2.54,3,5.72-5.09,9.15a6.71,6.71,0,0,0,3.37,1.27c2.27,0,2.85-2.58,6.52-2.58a9.15,9.15,0,0,1,1.32.1c1.09,3.31-4,4.43-5.12,5.07-.14,6.86-3.05,5.63-5.07,7.81a5.8,5.8,0,0,0,3.57,1c1.4,0,2.74-.3,3.76-.3s1.65.28,1.84,1.37c.35,1.83-.76,2.25-2.34,2.25-1.37,0-3.11-.32-4.59-.32a3.33,3.33,0,0,0-2.74.91c3.65,6.8,8.55,4.9,8.64,7.7-.07,2.79-.94,3.42-2,3.42-.84,0-1.78-.43-2.47-.43a.81.81,0,0,0-.69.29c2.68,2-2,1.13-3,3.6a6.6,6.6,0,0,0,3.11.72c2.07,0,3.9-.76,4.66-.76.23,0,.36.06.38.24.89,2.73,0,4.67-2.49,4.67a6.32,6.32,0,0,1-1.63-.23c4.25,4.32-2,3.26-3,4.41,2,1.49,4.09.69,6.15,1.81-1.63,1.72-.77,4.43-3.1,6.69,1.13.7,4.2-.22,4.1,2.25-2.86,1.12-2.29,5-5.13,9.5,2.47-1.5,4.16-2,5.27-2s1.71.57,1.75,1c.19.57-.9,5.37-8,8,3.46,1.13,5.33,3,0,4.06a10.86,10.86,0,0,1,3.8,1.81s0-.08,0-.13,0,.14,0,.14h0c0,.14-.1.19-.18.19s-.57-.34-1-.57c-2.06.52-4.38,3.26-6.11,3.26a1.45,1.45,0,0,1-1.16-.58l.29-.07a4.37,4.37,0,0,1-.78.1c-.67,0-.88-.33-.63-1.15h-.12c-.9,0-1-2.26-1.44-2.26-.23,0-.54.6-1.1,2.41-1.53.35-2.15,2.68-4,2.68a3.43,3.43,0,0,1-1.72-.56c-1.15.26-1.54-.33-2.5,1.38l.22-3.75,2-2.54H453v-.6l-1.86-2.59-1.41-21.29v-10l1.07-2.19-1-.3V130l-1.51.67v-4.78l1.86-1.54-41.33-8.24.47-3,40.51,6.27-2.38-3.16.27-4.48.52-1.29L437,107.24l-.35,1.21-27.8-6.6L408.16,97l1-2,.71-1.49,2.21-2.82c0-2.74,1.56-2.08,1.12-5.89l-.27-2.26-3.27-.45-.86-1.44v-3l1.55-2.87L408.09,74l-.34-9,5.1-1.86L309.79,39.18l-2.13.33L278.4,49.92l-1.73-.09L230.17,68.3l-17-2.35L199.72,72.6l-7.19-.79,20-8.76,16,2.8,47.23-19.57,1,.41L307,36l4.35.13L418.81,61.26l1.15-.5-.3-.95,3.55-3.61,1.4.28.4-1-11.59-8.76c0-1.34,0-3.09,0-3.58,2-1.1.59-1.86-.77-2.46a.87.87,0,0,0-.42-.12c-1,0-1.7,2-1.61,4.42l-40-30.39-1.3-.4a5.57,5.57,0,0,1-.05-5.57c1-3.6-1.71-5-1.21-8.66Zm-42,35.68-9.37-1.86L367,22.62l44.52,33-12.21-2.8L365.23,27l-39.12,8.72ZM298.42,71.16c-2.13-1-.6-3.22-1.53-4.46l11.21-4.18,12.21,2.55C319.42,66.59,321,70,318,70h-.07a1.52,1.52,0,0,0-1.29-1c-.65,0-1.23.6-1.18,1.9.43,0,1.05-.19,1.61-.19.74,0,1.37.3,1.34,1.64a1.57,1.57,0,0,0-1.33-.65c-.24,0-.45,0-.58,0l-.1,0c-.67,1-.81,1.14-3.12,1.28,1.89.51,3,1.57,2.64,3.74-.17-.38-.95-1.21-1.4-1.21-.16,0-.28.1-.33.35-.23.82.25,2.07-.21,4.58,0,0,0-.3.06-.3s0,0,0,0l1.32,100.13-8.07-.21-.34-5.52,3.17-4.46-3.11-.87h-4.52L303,80.49a.19.19,0,0,1-.15.06c-.06,0-.1,0,0-.1-.48-2.51-.77-3.8,0-4.84a.38.38,0,0,0-.4-.32,1.85,1.85,0,0,0-1.3.85c-.34-2.15,1.53-2,2.49-3.22a6.57,6.57,0,0,1-2.82-1.15.21.21,0,0,0-.2-.12c-.42,0-1.34.8-2,1.6.05-2.37,1.48-1.52,2.73-2.36-.25-.74-.66-1.06-1.12-1.06a2.61,2.61,0,0,0-1.83,1.33Zm31.82,5.73c-2.63-.65-1-3.67-1.22-4.87l10.15-3.56,10.85,3c-.22,1.15,1.72,4.45-.93,5.09-.79-1.16-1.49-1.72-2-1.72s-.8.4-1,1.18c1.22.88,2.5-.36,2.63,1.63-.31-.34-.5-.48-.67-.48s-.48.31-1.09.75h-.23a6.17,6.17,0,0,0-2.57,1c1.11.66,2.93,1.25,2.48,3.11a19,19,0,0,0-1.79-1.26c-.11,0-.08.18.18.67-.35,1,.85,1.64.3,4.67l-.05-.08,1,95.34-8.21-.23,0-5.5,2.85-4-2-1.85h-4.38l.21-83.89a2.29,2.29,0,0,0-.82-.41c-.17,0-.19.21-.23.65-.57-3-.3-3.69.3-4.87,0-.31-.18-.41-.35-.41-.34,0-.83.43-.93.43s0,0,0-.05c-.46-2,1.05-1.66,2.19-2.68-2.21-1.12-1.74-.16-2-1.15A3.36,3.36,0,0,0,330,78.57c.44-2.26,1.58-1.7,2.87-2.6a1.25,1.25,0,0,0-1-.39,1.65,1.65,0,0,0-1.66,1.31Zm38.26,5.45c-2.8-.18-1.87-1.66-2.11-3l11.05-4.45,9.48,2.56c-.24,1.33,1.29,4.42-1.49,4.59a1.82,1.82,0,0,0-1.32-.62.94.94,0,0,0-1,.72c1,.62,2.63-.66,2.9,2.54a1.24,1.24,0,0,0-1.32-1.07c-.27,0-.53,0-.73,0a.54.54,0,0,1-.27,0,4.34,4.34,0,0,1-2.08,1.15c.84,1.16,2.55.72,2.07,3.17-.77-.27-1.53-.84-1.74-.84s-.07.16.2.6.2,2.19.6,3.52h-.19c-.38,0-.17.32-.72.34l1.8,89.27-8.64.37.22-5.52,2.93-3-2.59-2.1h-3.89l.79-79.09h-.28a1,1,0,0,0-.3,0c0,.06,0,.07-.06.07s0,0,.06-.07a.62.62,0,0,0-.05-.32,7,7,0,0,1-.44-4.25c.17-.16.22-.22.18-.22a6.24,6.24,0,0,0-1.24.83c-.48-2.08.83-2.35,1.64-3-1-.6-1.44-.09-1.89-.69a2,2,0,0,0-.39,0,2.36,2.36,0,0,0-1.84.67c-.14-2.15,1.71-1.14,2.62-2.36,0-.36-.23-.49-.55-.49-.59,0-1.42.42-1.4.68Zm25.3,6.25c-1.54,0-.91-2.49-1.27-3.41L402,80.92l9.51,2.69c.57,1,1.1,3.84-.64,4.64A1.74,1.74,0,0,0,409.33,87c-.5,0-.89.34-.79,1.11,1,.68,2.51-.21,1.95,2A1.27,1.27,0,0,0,409.42,89a.53.53,0,0,0-.53.49c-.91,0-.64.57-2.1.8.82,1.38,1.9,1.56,1.35,3.15-.54-.33-.73-1.14-.91-1.14a.09.09,0,0,0-.08.06c.11,1.54.63,2.42.11,4.57l1.1,85.1-7.79-1.3.49-3.51,1.93-3.82-1.91-.93h-3.73l.39-75.54c-.17-.25-.36-.37-.47-.37h0c0,.19.09.38.14.58-.22-.35-.23-.54-.14-.58a9.3,9.3,0,0,1-.05-3.8c.25-.44.27-.59.16-.59a11.53,11.53,0,0,0-1.42.84c-.55-1.7,1.07-2.12,1.84-2.85h-.16c-1.29,0-1.48-.52-1.39-.71a1.79,1.79,0,0,0-.82-.29c-.45,0-.68.4-1.5.75.24-1.39,1.4-1,2.12-1.81,0-.18-.28-.34-.62-.34a1.91,1.91,0,0,0-1.41.84Zm298.86,18c2.52,0,5.38-1.32,7.67-1.32a4.63,4.63,0,0,1,.65,0c-.83,1.2-2.78.85-4.7,3.48a3.52,3.52,0,0,1-.93.07l-1.9,0c-.81,0-1.75,0-2.8.1-2.07-.23-3.09-1.13-4.54-3.63a15.15,15.15,0,0,0,3.49.27,4.59,4.59,0,0,0,3.06,1ZM695,117.86c-2.79-.82-6.16-1.4-8.28-3.53,1.41-1.36,3.25-.68,2.23-3.9l3.17-.81a6.79,6.79,0,0,0,3.29,1.17c1.42,0,2.09-1,3.93-1l.57,0c-2.32,4.17-.63,3.53-.42,5.2-2.08.35-3.47,2.24-4.49,2.82Zm-509.33,6.21-2.24-1.78a4.46,4.46,0,0,1,4.15-3.21,2.85,2.85,0,0,1,1,.17v3.45c-1.19.2-1.16,1.26-2.92,1.37Zm506.06-2a8.48,8.48,0,0,0-3.34-2.83c2,.84,3.33.68,4.19,1h-.08c-.24,0-.49.26-1.06.28-.09.17-.18.64.29,1.56Zm-498.42,3.14a22.47,22.47,0,0,1-3.18-.94v-4.54a3.57,3.57,0,0,1,1.73-.48c1.76,0,3.21,1.47,4.18,2.7l-2.73,3.26Zm-13.34,4.6V127.1a8.31,8.31,0,0,1,2.12-5l3.2,3.31a22.46,22.46,0,0,1-2.34,4l-3,.37Zm14.78-.14c0-2.21-.6-2.34-1.4-3.22l4.17-3c.82.59,1,2.92,1,3.67v3.34l-3.74-1v.24ZM242,130l-2.3-2.47c1.29-1.93,2.87-3.16,4.61-3.16a3.68,3.68,0,0,1,.73.07v4.83a.41.41,0,0,0-.41-.34c-.58,0-1.62.84-2.63,1.07Zm4.42-1.64v-3.89h0a6.57,6.57,0,0,1,5.37,3.29l-1.9,2.22,2.68-2.25a16.75,16.75,0,0,1,1.06,4.36v2.81l-2.5-.4v-.78h0a5.54,5.54,0,0,0-1.82-3.07l-.11.13c-1.21-1.24-1.69-2.42-2.76-2.42Zm446.19,2.22c-1.15-.94-1.15-1.42-2.05-1.53-.84-2,1.4-1.19-.58-4.06a2,2,0,0,1,.82-.19c1.15,0,2.28,1,4.73,1.32,0-.44.11-.63.15-.63s0,.37-.23.91A3.39,3.39,0,0,0,694,126c-.8,0-1.61.49-2.37,2.08a3.3,3.3,0,0,1,2-1,3,3,0,0,1,1.65.57c-1.07,2.72-2.36,1.7-2.75,2.86Zm-506.74-.63v-1.3A3.68,3.68,0,0,1,189.4,125a3.56,3.56,0,0,1,3.58,3.64v.9l-7.14.4Zm54,4-2-.18v-1.69c0-1.62.43-3.82,1.69-4.38l2.63,3.61a1,1,0,0,0-.33-.05c-.86,0-1.41,1.22-1.95,2.69Zm2.68-.22a3.42,3.42,0,0,1,3.44-3.13c1.41,0,2.4,2,2.4,3.46h0l-5.84-.33c0,.11,0,.23,0,.33v-.33Zm453.33.18a11.48,11.48,0,0,0-2.65-3.07l.29,0c1.45,0,2.4,1.71,2.36,3.09ZM179.94,143V131.64l4.65,1.58V142l-4.65,1Zm12.7.09-6.21-.42V132.48l6.21-.17v10.74Zm6.18.7-3.68-.36v-10.6l3.68.81v10.15Zm38.94,2.76v-8.83l2.44-1.22v10Zm457.72-6.7c-.31-1.77-1.12-.29-1.59-1.58-.15-.09.71-.37,2-1.71.54,1.54-.27,2-.43,3.29Zm-452.81,7v-10l5.69,1.44v8.5l-5.69,0Zm8.37.32v-9.79l4,.49v9l-4,.26Zm443.45-6.64a.61.61,0,0,0,.63-.59c0,1.12-.39,1-.51,1.41,0,.19,0,.27,0,.27a5.61,5.61,0,0,0-.66-1.25s0,0,0-.05l0,.05a.82.82,0,0,0,.5.16Zm-269.2,4.85-.69-3c.87-.05,1.33-1.14,2.07-1.2v3.51a0,0,0,0,1,0,.06v-.06a.84.84,0,0,0-.46-.11.86.86,0,0,0-.92.8Zm2.85-.49c-.05,0-.1,0-.15-.18v-3a1.14,1.14,0,0,1,.62-.27c.61,0,.93,1,2.14,2.52l-.31.18h0c.53,0,.58,2.39.58,3.2v1.47l-1.47.7v-.83c0-1.9-.13-1.24-.37-2l1.21-2.54-1.87,1.09c-.08-.35-.14-.45-.2-.45s-.13.14-.2.14ZM424.2,149l-.88-.34v-1.39a11.44,11.44,0,0,1,.48-3l1.44,2.28a.43.43,0,0,0-.29-.19c-.47,0-.5,2-.75,2.62Zm1.39-.68c0-2.2.66-2.88,1.14-2.88,1.48,0,2.14,2.16,2.14,3v.5l-3.28-.61v0Zm267.85,3.89c-.39-3.24.28-4.15,1.55-5.27-1-.37-1,.22-.89-1.43h.24c2.08,0,2.67,2.1-.9,6.71Zm-498.3,4.92V145.87l3.68.38v10.56l-3.68.33Zm-2.5.4-6.21-1V146.2l6.21.12v11.22Zm-12.7-.36V146.29l4.65.39v9.54l-4.65,1Zm373-1.53c-.28-2.68-.18-3.14-1.49-3.82l1.68-1.77c1.65,0,2.85-.32,4.87-.52l.72.77h-.19c-2.72,0-3.59,2.68-4,5.34Zm-315.15,4.19V150.4l2.44-.32v9.09l-2.44.67Zm17.29,1-4,0V150.24l4,1.12v9.47Zm-6.69-1.59-5.69-.09v-8.56l5.69.38v8.27Zm175-1.21v-7l1.74-.39v6.78l-1.74.64Zm7.69.47-1.69-.35v-7.08l1.69-.2v7.63Zm-5.11-.19v-6.77l2.58-.31v6.12l-2.58,1Zm-241.31,12-4.65-.9V157.38l4.65.75v12.2Zm1.84-.32V158.73l6.21-.38V170l-6.21,0Zm12.39.11-3.68-.59V158.92l3.68.22v11Zm229.66-2.3-2.58-.41v-7.24l2.58.41v7.24Zm-188.28,4-2.44-.52V160.27l2.44.88v10.7ZM431,168.23l-1.69-.19v-6.8l1.69-.72v7.71Zm-5.95.11-1.74-1.85V160.7l1.74.38v7.26Zm-174,3.49V161.48l4,.58v8.75l-4,1Zm-2.68-.38-5.69-.59v-9l5.69.09v9.53Zm298.22-5.31-2.18-3.91,1.73.64.45,3.27Zm37.5,6.88c-.55-.91-.12-3,.13-6.2l1.32-2.35c-.21,1.4,0,2.57.63,3.07-.42,2.58-.62,3.61-2.08,5.48Zm-37,6.12c-.53-.68-1.45-.63-1.66-3.87a86.92,86.92,0,0,1-1.79-9.63c1,1.25,1,3.4,2.83,3.47.86,1.16.06,3,1.2,3h.21a13,13,0,0,0,.44,3.71c1.11,1.1.43,2.13-1.23,3.37Zm-123.81-2.73V168.5l1.74,0v7.88l-1.74.07Zm5.16-.34-2.58-.35v-7.09l2.58.75v6.69Zm.84.84v-7.4l1.69.25v6.43l-1.69.72ZM718.5,190.2c-.07.73-.17,2.94.92,2.94a1,1,0,0,0,.43-.09l.2.85c-.33.34-.52.42-.74.42s-.47-.08-.9-.08h-.21c-1.08-2.31-1.19-2.37.3-4.05Zm12.88,1.89s.12-1.12.48-1.12c.13,0,.29.14.48.52v0c0-.24.06-.32.16-.32s.48.33.2.33a.9.9,0,0,1-.32-.08l0,.07v0l-1,1.6c-.54-.53-.51-1.06-.18-1.06a.56.56,0,0,1,.23.06Zm36,2.61c-.4,0-.65-.6-.29-1.49,1,0,1.21-.42,1.94-.67a9.37,9.37,0,0,0,.06,1.7v-.07l-1.06,0c-.21.34-.45.49-.64.49ZM735.08,197c-.45,0-.72-1.11-.09-4.31h0c.4,0,.65,1.25,1,2.39a.51.51,0,0,0-.17,0c-.49,0-.6.76-.52,1.89a.35.35,0,0,1-.19.06Zm16.09-1.75c.94,0,1.53-.93,2.6-1.72.33-.44.56-.62.72-.62.51,0,.38,1.83,1.08,2.86l1.19.9a.48.48,0,0,1-.37.11,8.15,8.15,0,0,1-1.45-.29.14.14,0,0,0-.12-.08c-.28,0-.75.94-.77.94v0c-1-.87-2.37.25-2.58-1.29-.69,0-.81-.65-1.23-1a2.62,2.62,0,0,1-.42-.24,1.32,1.32,0,0,1,.42.24,2,2,0,0,0,.92.26Zm-288.11-.08c-.64,0-.4-1,.4-1.51a1.35,1.35,0,0,1,1,.57c.36.87.11,1.48,0,1.48s-.06-.14,0-.47l-1-.14a1,1,0,0,1-.35.07ZM742,199l-.51-.37c.23-.48-.63-1.49-1.42-3.19-.3-.42-.31-.57-.16-.57a5.22,5.22,0,0,1,1.84,1.16c1.84,2.5,1.29,2.67.25,3Zm-149.48-3.35a2.31,2.31,0,0,1,1.13-.6c.74,0,.2,1.88,1.67,3l.2.8a.66.66,0,0,0-.31-.06c-.63,0-1.86.43-1.35,2.21a6.8,6.8,0,0,0-1.58-.34c-.19,0-.37,0-.75.05v-3.58c0-.13.15-1.47,1-1.47Zm178.35,4.06c-.34,0,.18-.95.81-4.32.4,0,.67,1.29,1,2.44a.51.51,0,0,0-.2,0c-.46,0-.68.75-1.47,1.89l-.11,0ZM606.17,197c.54-.28.83-1.11,1.18-1.11.12,0,.25.1.41.38h.07c0-.18.11-.24.2-.24s.46.3.18.3a1.13,1.13,0,0,1-.33-.07h0v.15l-.07-.14-.9.12c-.34.54-.46.64-.56.64a.61.61,0,0,1-.13,0,.9.9,0,0,1-.28.08.4.4,0,0,1,.23-.09Zm-146.34,1.85c.33-1.18.58-2.44,1-2.44h0c.64,3.35.34,4.42-.14,4.42l-.15,0c-.8-1.26-1-2-.8-2a.19.19,0,0,1,.1,0Zm318,2.88.47-2c-.76-.53-1.63.06-1.42-1.56-.34-.95-.42-1.28-.34-1.28s1.15,1.58,2,1.83a2,2,0,0,1-.73,3Zm-47.31-2.15a3.8,3.8,0,0,0,1.3-1.85c.14-.15.25-.22.32-.22.31,0,.09,1.12.21,2l-1.83,0,0,0h0Zm17.4,0c1.1,0,1.75-1.39,2-1.39s.12.2.1.76c1.17,0,1.56.09,1.5.62h0a14.71,14.71,0,0,0-.61,3.16c-.66-.4-1-1-1.12-1s-.16.38-.19,1.54a3.07,3.07,0,0,0,.16.31c0,.07,0,.38-.08.38s0-.09-.09-.34,0-.24,0-.35c-.7-1.59.84-1.59-4-2.24.1-1.41,1.79-.09,2.31-1.47Zm-10-1.17,0,0c-.12.24.22.82.44.82a.14.14,0,0,0,.12-.08,1.83,1.83,0,0,1-1.56,1.16c-.45,0-.72-.29-.38-.81.22-1,.69-.12,1.38-1.09,0,0,0,0,0,0ZM610,202.58c-.47,0,0-1.8.5-3.38.13-.52.25-.72.36-.72s.41.79.62,1.6a.7.7,0,0,0-.23,0c-.43,0-.53.66-.48,1.9-.37.45-.61.64-.77.64Zm7.18,1.72-.14-.73a3,3,0,0,1-1.41-3.11c-.33-.44-.43-.61-.36-.61s1.15.85,2,1.2c1.19,2,1.23,1.85.19,3.25Zm151.86-2h-2.87c.93-1.52,1-.56,2.33-1.91a1.66,1.66,0,0,1,0-.17,10.09,10.09,0,0,1,.59,2.09Zm3.39-.26c.74-.63,1.15-1.13,1.22-1.13s0,.07-.07.22c.41.14.47.48.64.68a6.36,6.36,0,0,1,.87.05,1.62,1.62,0,0,1-.5.1.46.46,0,0,1-.37-.15h-.11a4.58,4.58,0,0,0-1.68.23l-.26.22a.49.49,0,0,1,.26-.22Zm-307,1.41-2.87-.12c.95-.94.85-2.1,1.21-2.1a.51.51,0,0,1,.31.17c.41,1.31,1.41.43,1.35,2.05Zm269.43.81-.19-.12c-.43-2,0-2.85.51-2.85s1,.51,1.29,1.45c-.24,1.53.41.76,1.07,1.52h.21c0-1.35.34-1.87.73-1.87s.86.6.9,1.43h0c.09,0,.22.1.33.44h-2c0,.1,0,.2,0,.31a2.3,2.3,0,0,0-.22-.31Zm-12.38,0c1.25-.4,2.07-2.5,2.31-2.5.06,0,.09.16.06.56h0c-.4,0-.67,1,0,1.94Zm-265.28-1.2c.46,0,1.1-.25.83-.91a.74.74,0,0,1,.48-.22c.43,0,.75.61.93,1.3a.32.32,0,0,0-.26-.13c-.37,0-.92.49-1.64.49a1.72,1.72,0,0,1-.73-.17V203a.74.74,0,0,0,.39.09Zm273,.88c-.31-1.17.25-1.81.91-1.81s1.33.58,1.45,1.82c0-.18,0-.32,0-.32a7.17,7.17,0,0,1,.58.63h-3c-.06-.38-.09-.49-.09-.49s0,.16.18.17Zm-124.62.32c1-.62,1.88-.31,1.73-1.64a.6.6,0,0,1,.31-.18c.29,0,.12.9.19,1.82h.42l-.39.28,0-.28Zm94-.72a.84.84,0,0,1-.46-.17c0-.3.09-.39.2-.39s.31.12.59.16c.1.08,0,.4-.33.4ZM612,204.3a4.29,4.29,0,0,1,.47-1.14s0,.05-.08.16h.13c.63,0,.35.92.72,1H612l0,.14v-.14Zm158.73,0a2.2,2.2,0,0,1,1-.39c.27,0,.33.17.16.39Zm-137.06,0a3.11,3.11,0,0,1,1.26-.38c.29,0,.5.11.53.38Zm127.65-.22s0-.06-.07-.06.07,0,.07.06-.16.28-.45.28c.29,0,.45-.18.45-.28Zm6.1.55c-.28,0-.54-.14-.46-.33h1a.5.5,0,0,1-.52.33ZM645.05,74.85l0,.1c0-.06,0-.1,0-.1ZM303,79.92v.57c.09-.08.15-.25,0-.57Zm42.22,5c-.59.48-.33.53,0,1v-1ZM683.1,92.75a.22.22,0,0,0-.19.14l.23-.13ZM407.22,96.48a4.36,4.36,0,0,0,0,.64l.06-.22v-.26c0-.1,0-.16,0-.16Zm250.47,11.15h0l.16.08a.33.33,0,0,0-.16-.08Zm33.79,12.77s0,0-.05,0a.17.17,0,0,0,.05,0Zm-.05,0,0,0h0l0,0Zm-102.51,2.91,0,.11v0a.28.28,0,0,0,0-.09Zm0,.11c-.07.1-.08.15-.07.15s0,0,.06-.09v-.06Zm-339,6.49-.71.59.13.08.58-.67Zm180.57,14.12h0l0,0Zm40.29,43.21c-.91.53-3.48-.21-5.1,1.54,1.92-.43,6-.81,5.1-1.54Zm128.86,1.12c-.85.68,2.91,2.1,5.23,2.1a4,4,0,0,0,.72-.06c-1.81-.83-5.06-1.47-5.95-2Zm-134,.42a3.75,3.75,0,0,0-.51.13,5.08,5.08,0,0,0-.26.68,1,1,0,0,0,.24-.09,3.73,3.73,0,0,1,.53-.72Zm298.78.63a7,7,0,0,0,1.67.3,1.94,1.94,0,0,0,.36,0l.12-.09-2.15-.18Zm-166.71.09,0,.25c0-.07,0-.15,0-.25Zm0,.25c-.06.45-.11.54-.07.61l.07-.61Zm8.5.42a1.66,1.66,0,0,1-.63.23,5.8,5.8,0,0,1,.67.36.22.22,0,0,0,.17.1h.07a4.28,4.28,0,0,0-.28-.68Zm-139.06.26-.84.21q.38-.08.84-.21Zm137.08,1.27a8.42,8.42,0,0,0,1.1.2l0,0-1.13-.18Zm135.14,12.11c-.13,0-.21.21-.11.21a.37.37,0,0,0,.11,0v-.17Z"/>
    </g>
  </g>
</svg>
